<svg width="22" height="20" viewBox="0 0 22 20" fill="none" xmlns="http://www.w3.org/2000/svg">
<path fill-rule="evenodd" clip-rule="evenodd" d="M11 2.17578L2.36904 17.9991L19.6309 17.9991L11 2.17578ZM9.24416 1.21808L0.613245 17.0414C-0.113709 18.3742 0.850919 19.9991 2.36904 19.9991H19.6309C21.149 19.9991 22.1136 18.3742 21.3867 17.0414L12.7557 1.21808C11.9977 -0.171651 10.0022 -0.17165 9.24416 1.21808ZM12 11.9991C12 12.5514 11.5522 12.9991 11 12.9991C10.4477 12.9991 9.99996 12.5514 9.99996 11.9991V7.99914C9.99996 7.44686 10.4477 6.99914 11 6.99914C11.5522 6.99914 12 7.44686 12 7.99914V11.9991ZM11 16.9991C11.6903 16.9991 12.25 16.4395 12.25 15.7491C12.25 15.0588 11.6903 14.4991 11 14.4991C10.3096 14.4991 9.74996 15.0588 9.74996 15.7491C9.74996 16.4395 10.3096 16.9991 11 16.9991Z" fill="#E12D3D"/>
</svg>
