<svg width="85" height="70" viewBox="0 0 85 70" fill="none" xmlns="http://www.w3.org/2000/svg">
<g clip-path="url(#clip0_68_9435)">
<path d="M41.3589 42.2955C41.1972 41.6543 41.322 41.0726 41.5943 40.5135C41.6229 40.4559 41.6332 40.3881 41.6414 40.3223C41.8195 38.9061 42.5318 37.7284 43.3261 36.5958C43.977 35.6688 44.7058 34.8014 45.4877 33.9813C47.0599 32.3308 48.6586 30.707 50.3535 29.1798C52.3146 27.4142 54.3023 25.6753 56.1528 23.7904C56.7955 23.1348 57.4056 22.4482 58.0135 21.7597C58.2407 21.5007 58.4291 21.2109 58.5601 20.8882C59.1107 19.5316 59.9439 18.3661 60.9469 17.3096C61.7146 16.4998 62.4146 15.6324 62.9817 14.6643C63.1823 14.321 63.3256 13.9634 63.3849 13.5317C63.1905 13.5317 63.1147 13.6715 63.0144 13.7517C62.3021 14.3272 61.6265 14.9582 60.775 15.3344C60.5662 15.4269 60.3553 15.5173 60.1383 15.5872C59.7085 15.727 59.4669 15.5091 59.2806 15.0713C59.2172 14.9212 59.3113 14.8554 59.4567 14.8801C59.5345 14.8945 59.6389 14.9151 59.6778 14.9705C59.8947 15.2768 60.1138 15.1206 60.3471 15.0014C61.4382 14.4505 62.3164 13.6551 63.0226 12.6623C63.1966 12.4177 63.3358 12.1587 63.2539 11.8381C63.2007 11.6284 63.1434 11.6058 62.951 11.7291C61.995 12.3396 61.0902 13.0117 60.3287 13.8627C59.8702 14.3765 59.3277 14.7979 58.7893 15.2275C57.1128 16.5676 55.4404 17.9139 53.7659 19.2582C52.1283 20.5716 50.3965 21.7535 48.6402 22.9004C46.8838 24.0453 45.1418 25.2107 43.3977 26.3741C40.9372 28.0144 38.3436 29.3771 35.5821 30.4542C31.0787 32.2095 26.7185 34.2876 22.6224 36.8733C20.4341 38.2546 18.2438 39.6296 16.0514 41.0027C14.8682 41.7426 13.6359 42.3798 12.377 42.978C9.61348 44.2893 6.85408 45.613 4.21955 47.1772C3.6996 47.4855 3.16123 47.7671 2.62286 48.0425C2.25849 48.2296 2.24007 48.2173 1.82247 48.1926C1.73854 48.0569 1.85113 47.9829 1.92073 47.9048C2.09882 47.7075 2.32399 47.5719 2.54303 47.428C4.75382 45.9604 7.03217 44.6059 9.39649 43.3973C10.2992 42.9348 11.204 42.4744 12.1027 42.0078C14.8068 40.606 17.4331 39.0644 20.0185 37.457C21.3102 36.6534 22.5303 35.7325 23.7789 34.861C25.3777 33.7449 27.0051 32.672 28.7102 31.7224C30.2435 30.8694 31.8381 30.1458 33.4757 29.5251C34.0387 29.3113 34.6405 29.2003 35.2157 29.0154C37.0437 28.4316 38.7878 27.6505 40.4909 26.7667C42.8941 25.5191 45.1377 24.0145 47.4181 22.5674C49.6105 21.1759 51.5838 19.4966 53.6247 17.9057C54.3104 17.3713 54.9839 16.8246 55.6881 16.3169C55.9481 16.1298 56.0156 15.9387 56.0299 15.6283C56.1712 12.4218 56.6502 9.29137 58.2428 6.43637C58.8221 5.39837 59.5079 4.44054 60.3697 3.61836C61.7637 2.2885 63.4013 1.49304 65.3501 1.51154C66.0686 1.51771 66.7707 1.52182 67.4872 1.41288C68.7666 1.21556 69.9989 1.47454 71.1473 2.07062C71.4032 2.20422 71.5158 2.16928 71.7 1.94318C72.9487 0.41188 75.3458 -0.712445 77.8984 0.547539C78.9301 1.05523 79.7837 1.78697 80.5207 2.66053C81.8635 4.25349 82.7458 6.09517 83.3619 8.07044C84.3568 11.2605 84.6782 14.5266 84.41 17.8543C84.2135 20.29 83.7406 22.6641 82.7949 24.9271C82.2606 26.2076 81.5851 27.4039 80.6844 28.4624C79.9536 29.3216 79.1082 30.039 78.0704 30.5035C76.6006 31.1612 75.1247 31.1859 73.6467 30.5343C72.9814 30.2425 72.3816 29.8478 71.8371 29.3668C71.5751 29.1366 71.3479 28.8818 71.2783 28.5406C71.1534 28.4604 71.0756 28.5447 70.9917 28.5837C69.8413 29.1428 68.6335 29.3483 67.3644 29.1839C67.1331 29.1531 66.9099 29.1592 66.6848 29.2127C64.9878 29.6238 63.4054 29.3134 61.9193 28.4378C60.7115 27.7266 59.7637 26.7359 58.9633 25.5972C58.7279 25.2621 58.515 24.9127 58.2919 24.5694C58.1671 24.5324 58.1118 24.6311 58.0524 24.6989C56.7812 26.1501 55.3196 27.3854 53.7803 28.5385C53.0822 29.0606 52.4538 29.6546 51.8704 30.3062C51.0393 31.2352 50.0997 32.0595 49.2195 32.9412C47.6535 34.5095 46.151 36.1333 44.892 37.9668C44.6484 38.3224 44.6771 38.2977 44.9698 38.493C45.8971 39.1117 46.7815 39.7879 47.6658 40.4641C48.37 41.0047 49.0639 41.5556 49.5838 42.2853C49.7271 42.4867 49.9011 42.4805 50.0956 42.4867C51.0454 42.5134 51.9932 42.5689 52.9205 42.8032C53.5346 42.9595 54.0771 43.2431 54.5295 43.6994C55.0781 44.2503 55.3462 44.9286 55.381 45.6891C55.4465 47.0601 55.3278 48.4228 54.9389 49.7362C54.5151 51.1648 53.5305 52.1103 52.1324 52.62C51.7107 52.7742 51.721 52.768 51.7926 53.2264C51.9175 54.0177 52.1119 54.8029 51.9666 55.6189C51.9031 55.9765 51.8315 56.3239 51.7046 56.6651C51.2235 57.9559 50.5869 59.183 50.1898 60.5067C49.9073 61.4502 49.6555 62.3977 49.4815 63.37C49.3198 64.2661 48.6832 64.8314 47.8828 65.1685C46.8408 65.6063 45.8194 65.522 44.8245 64.9383C43.1889 63.9763 42.5461 62.4697 42.4356 60.6691C42.3578 59.3886 42.6198 58.1512 43.0538 56.9529C43.1521 56.6836 43.1869 56.4514 42.9392 56.2109C42.5994 56.3712 42.2473 56.5418 41.8911 56.7001C41.713 56.7782 41.7069 56.9015 41.7519 57.0618C42.0262 58.0566 41.7232 58.9405 41.2279 59.7853C41.1276 59.9538 41.0129 60.1162 40.8901 60.2704C39.9198 61.4913 39.1931 62.8499 38.71 64.3237C38.2453 65.7358 37.0151 66.3339 35.7377 66.2023C35.531 66.1818 35.4327 66.2332 35.3754 66.4141C35.3611 66.4613 35.3447 66.5066 35.3304 66.5538C34.9762 67.746 34.0919 68.2187 32.9415 68.3359C31.7562 68.4572 30.7491 68.0707 29.8955 67.2609C28.5342 65.9701 27.8423 64.3627 27.7052 62.5026C27.6622 61.9229 27.7686 61.3577 27.9221 60.8007C27.9528 60.6917 28.0143 60.589 27.9836 60.4451C27.8034 60.3855 27.611 60.4225 27.4206 60.4266C25.9631 60.4533 24.5077 60.5376 23.0502 60.4512C21.7913 60.3772 20.5344 60.2991 19.2775 60.2087C18.8845 60.1799 18.5344 60.256 18.2049 60.4697C17.4352 60.9672 16.6655 61.4666 15.8897 61.9579C15.0279 62.5046 14.1006 62.9013 13.12 63.1932C12.0249 63.52 10.9359 63.8777 9.85503 64.2538C9.29619 64.4491 8.81718 64.8108 8.34841 65.1644C7.60125 65.7275 6.80904 66.2167 6.00251 66.6874C5.26763 67.115 4.58187 67.6247 3.87155 68.0934C2.95653 68.6977 2.06197 69.339 1.0753 69.824C0.915635 69.9021 0.731402 70.1241 0.561499 69.9001C0.405924 69.6987 0.627004 69.5424 0.737544 69.3944C1.43763 68.4489 2.36903 67.7378 3.23083 66.9567C4.09468 66.1756 5.03222 65.4912 6.02094 64.8704C7.6299 63.8612 9.20612 62.7965 10.7926 61.7523C11.7649 61.1131 12.7864 60.5581 13.814 60.0155C14.162 59.8326 14.5059 59.6435 14.8457 59.4441C15.4578 59.0844 16.0084 58.6527 16.4444 58.0793C16.6328 57.8326 16.8702 57.623 17.0585 57.3763C17.5478 56.7412 18.2028 56.5911 18.9459 56.7124C19.4945 56.8008 20.039 56.9179 20.5835 57.0269C21.5968 57.2283 22.6162 57.3866 23.652 57.364C24.1249 57.3537 24.5978 57.2941 25.0727 57.2632C25.7257 57.2201 26.3787 57.1605 27.0337 57.1502C29.1074 57.1173 31.1319 56.7761 33.1462 56.2972C36.3682 55.5285 39.5227 54.5624 42.5216 53.1359C43.6167 52.6138 44.6792 52.0404 45.6413 51.286C46.1039 50.9243 46.6136 50.6221 47.109 50.3015C47.3649 50.137 47.6392 50.1042 47.9524 50.1453C48.9738 50.2748 49.9973 50.4248 51.0331 50.3734C51.8745 50.3303 52.6728 50.0877 53.4732 49.8534C53.7659 49.7691 53.9379 49.5739 54.0095 49.2717C54.2429 48.2954 54.4046 47.3088 54.509 46.3119C54.552 45.8987 54.5049 45.4815 54.3841 45.093C54.1405 44.3099 53.5981 43.833 52.7834 43.6686C51.4057 43.3932 50.0199 43.3603 48.6299 43.5247C47.0967 43.7056 45.5573 43.7734 44.0221 43.6521C42.4192 43.5247 40.8533 43.1794 39.3855 42.4805C39.1337 42.3613 38.884 42.238 38.6936 42.0222C38.577 41.8906 38.5074 41.7324 38.6097 41.5741C38.7059 41.424 38.8758 41.4631 39.013 41.5124C39.582 41.7159 40.147 41.9317 40.7161 42.1393C40.9085 42.2092 41.0968 42.314 41.3671 42.2935L41.3589 42.2955ZM70.2978 6.12394C70.2875 6.09106 70.2671 6.0705 70.2364 6.06434C69.6141 5.01606 68.7789 4.17539 67.7246 3.57314C65.9867 2.58037 64.2631 2.6482 62.5846 3.73758C61.4198 4.49193 60.5416 5.51964 59.8497 6.70974C58.5867 8.88851 57.9623 11.2666 57.7249 13.7578C57.6942 14.0723 57.7515 14.3971 57.7699 14.7979C58.1036 14.5965 58.3656 14.4464 58.5846 14.2306C59.0391 13.9922 59.4117 13.6489 59.7965 13.3159C59.9664 13.1679 60.1752 13.0569 60.255 12.8247C60.341 12.8473 60.4004 12.8308 60.3963 12.726H60.3922C60.4372 12.7219 60.4945 12.7301 60.5273 12.7055C61.1741 12.208 61.9131 11.8298 62.4699 11.2112C62.5231 11.1515 62.5968 11.1063 62.6664 11.0652C63.0779 10.8227 63.473 10.9193 63.7186 11.3304C63.8803 11.6017 63.9724 11.8997 63.9602 12.2204C63.9561 12.3499 63.9397 12.4732 64.0584 12.578C64.3429 12.8288 64.431 13.1823 64.5333 13.5297C64.8588 14.6417 64.7094 15.7105 64.2304 16.7382C64.0298 17.1699 63.9008 17.5789 64.0912 18.0455C64.1382 18.1626 64.128 18.3045 64.1382 18.434C64.2304 19.7083 63.9745 20.9128 63.4341 22.0639C63.2867 22.3742 63.1495 22.6908 63.0083 23.0032C62.9469 23.1409 62.8977 23.2827 62.9633 23.4307C63.3031 24.1707 63.7636 24.7997 64.5825 25.0381C65.6633 25.3546 66.7011 25.1635 67.6591 24.6188C68.6601 24.0494 69.5445 23.3156 70.3019 22.4462C70.6969 21.9919 71.0408 21.4925 71.4093 21.0115C71.612 20.8758 71.7962 20.6888 72.0439 20.6559C72.2875 20.623 72.355 20.4873 72.4062 20.2715C72.5904 19.4884 72.7215 18.695 72.8054 17.8954C73.1043 15.0672 72.877 12.2903 71.9743 9.5853C71.569 8.37054 71.0715 7.19277 70.308 6.15066L70.2957 6.12189L70.2978 6.12394ZM48.7118 54.733C48.5214 54.7597 48.2942 54.7823 48.069 54.8234C47.0394 55.0084 46.0916 55.3866 45.2769 56.0567C45.1029 56.1985 44.9064 56.3301 44.8552 56.5788C44.5932 57.8285 44.2513 59.0638 44.2472 60.3567C44.2452 61.1419 44.3598 61.8942 44.6955 62.6012C45.0374 63.3247 45.6228 63.7872 46.3721 64.0092C47.3853 64.3093 48.2922 63.7256 48.4784 62.6999C48.5051 62.554 48.5296 62.4101 48.5603 62.2662C49.0086 60.2149 49.8172 58.3074 50.8735 56.5007C51.1621 56.0094 51.1437 55.8738 50.7261 55.4874C50.1693 54.9735 49.4815 54.7947 48.7118 54.733ZM76.8544 19.9057C77.1185 19.8193 77.2986 19.6837 77.4644 19.5275C77.8657 19.1472 78.1215 18.6806 78.2996 18.1585C78.6108 17.25 78.6108 16.2819 78.8626 15.3672C79.0366 14.7403 79.0673 14.1093 79.0304 13.468C78.9342 11.7415 78.6599 10.0457 78.1788 8.38493C77.8513 7.25855 77.3887 6.19588 76.6866 5.25038C76.2198 4.62142 75.6344 4.13839 74.9425 3.77047C74.4307 3.49709 73.9169 3.62864 73.3233 3.59986C73.4236 3.73141 73.4584 3.78691 73.5014 3.83213C74.6846 5.051 75.53 6.48364 76.1257 8.06428C77.3805 11.392 77.6773 14.8184 77.1369 18.325C77.0571 18.8389 76.9527 19.3507 76.8524 19.9057H76.8544ZM69.3868 2.88252C69.4605 2.97912 69.4749 3.00995 69.4994 3.03051C71.1841 4.35216 72.3387 6.06228 73.1104 8.03756C74.4942 11.5832 74.7685 15.2398 74.1073 18.9745C74.0152 19.4905 73.8719 19.9982 73.7675 20.512C73.6999 20.8409 73.876 21.0176 74.2035 20.9683C74.4512 20.9293 74.6764 20.8347 74.8565 20.6538C75.1861 20.3209 75.4215 19.9385 75.5075 19.4678C76.1032 16.1997 76.0151 12.9665 75.0285 9.78057C74.4942 8.05811 73.7327 6.44665 72.57 5.05306C71.7348 4.05206 70.7379 3.28333 69.3848 2.88457L69.3868 2.88252ZM40.6567 57.4071C40.493 57.3845 40.4152 57.4565 40.3292 57.4976C39.2484 58.0114 38.1389 58.4472 37.0048 58.8213C36.5709 58.9652 36.1307 59.0926 35.6906 59.2221C35.5576 59.2611 35.4532 59.2981 35.4348 59.4667C35.3283 60.4451 35.1216 61.4152 35.1072 62.3998C35.0949 63.1706 35.3058 63.89 35.752 64.5313C35.9056 64.7533 36.0857 64.8108 36.3416 64.743C36.8636 64.6032 37.2382 64.3381 37.4204 63.7852C37.8277 62.5519 38.3334 61.3597 39.1481 60.3259C39.4531 59.9394 39.7499 59.5468 40.0488 59.1563C40.4397 58.6466 40.6199 58.0628 40.6588 57.4051L40.6567 57.4071ZM33.1646 59.8552C32.702 59.9312 32.2721 60.0093 31.8402 60.071C31.615 60.1018 31.5167 60.2066 31.4594 60.4348C31.1851 61.5447 31.138 62.6629 31.1994 63.8016C31.2752 65.2363 32.0346 66.1304 33.2833 66.6915C33.5924 66.8313 33.7644 66.8046 33.9773 66.5436C34.1533 66.3298 34.2843 66.0811 34.446 65.855C34.5422 65.7214 34.5197 65.6371 34.4071 65.5241C33.7152 64.8355 33.3325 63.9722 33.0418 63.0596C32.7409 62.112 32.6815 61.1665 33.0581 60.221C33.0991 60.1183 33.1216 60.0073 33.1666 59.8552H33.1646Z" fill="#0D070B"/>
<path d="M71.4072 21.0134C71.0408 21.4924 70.6969 21.9918 70.2997 22.4481C69.5423 23.3196 68.656 24.0514 67.657 24.6207C66.699 25.1654 65.6612 25.3566 64.5803 25.04C63.7615 24.7996 63.2989 24.1706 62.9611 23.4327C62.8936 23.2847 62.9427 23.1429 63.0062 23.0052C63.1474 22.6907 63.2866 22.3762 63.4319 22.0658C63.9724 20.9148 64.2282 19.7103 64.1361 18.4359C64.1259 18.3044 64.1361 18.1625 64.089 18.0474C63.8987 17.5809 64.0276 17.1718 64.2282 16.7402C64.7052 15.7125 64.8567 14.6436 64.5312 13.5316C64.4288 13.1843 64.3408 12.8287 64.0563 12.58C63.9355 12.4752 63.9519 12.3518 63.958 12.2223C63.9683 11.8996 63.8782 11.6036 63.7165 11.3323C63.4729 10.9212 63.0778 10.8246 62.6643 11.0672C62.5947 11.1083 62.521 11.1535 62.4678 11.2131C61.911 11.8318 61.172 12.21 60.5252 12.7074C60.4924 12.7321 60.4351 12.7239 60.3901 12.73C60.3061 12.4957 60.4617 12.3251 60.5559 12.1442C61.1413 11.0363 61.9847 10.1525 62.9795 9.40844C63.3582 9.12273 63.7513 8.85553 64.1402 8.58215C65.043 7.94908 65.6714 7.09813 66.0194 6.06424C66.4083 4.90703 65.6693 3.93686 64.4555 3.93275C64.1054 3.93275 63.7758 4.0088 63.4586 4.15063C62.7564 4.46306 62.1669 4.92142 61.6797 5.51133C60.1546 7.353 59.1884 9.4701 58.6767 11.7948C58.5006 12.5944 58.4208 13.4145 58.5866 14.2346C58.3676 14.4504 58.1056 14.6005 57.7719 14.8019C57.7514 14.399 57.6962 14.0763 57.7269 13.7619C57.9643 11.2707 58.5887 8.89252 59.8517 6.71376C60.5415 5.52366 61.4218 4.49594 62.5865 3.7416C64.2651 2.65222 65.9887 2.58644 67.7266 3.57716C68.7808 4.17941 69.616 5.02008 70.2383 6.06835C70.2875 6.05808 70.3059 6.08069 70.2997 6.12796L70.312 6.15674C70.3652 6.32734 70.4062 6.50205 70.4737 6.66649C72.1789 10.948 72.4819 15.3528 71.6242 19.8603C71.5505 20.2447 71.4092 20.6188 71.4113 21.0176L71.4072 21.0134Z" fill="#FF5D6B"/>
<path d="M76.8543 19.9046C76.9546 19.3476 77.059 18.8379 77.1388 18.324C77.6792 14.8174 77.3824 11.389 76.1276 8.06326C75.5319 6.48263 74.6865 5.04793 73.5033 3.83111C73.4583 3.78589 73.4255 3.73039 73.3252 3.59885C73.9188 3.62762 74.4326 3.49607 74.9444 3.76945C75.6363 4.13943 76.2238 4.6204 76.6885 5.24936C77.3886 6.19692 77.8532 7.25753 78.1808 8.38391C78.6618 10.0447 78.9361 11.7404 79.0323 13.467C79.0692 14.1083 79.0364 14.7393 78.8645 15.3662C78.6127 16.283 78.6127 17.2511 78.3015 18.1575C78.1234 18.6796 77.8676 19.1462 77.4663 19.5264C77.3005 19.6826 77.1224 19.8183 76.8563 19.9046H76.8543Z" fill="#FF5D6B"/>
<path d="M69.3867 2.88096C70.7398 3.27972 71.7367 4.04845 72.5719 5.04945C73.7346 6.44509 74.4961 8.0545 75.0304 9.77696C76.0171 12.9629 76.1051 16.1981 75.5094 19.4642C75.4234 19.9349 75.188 20.3172 74.8584 20.6502C74.6783 20.8332 74.4531 20.9277 74.2054 20.9647C73.8779 21.0161 73.7019 20.8373 73.7694 20.5084C73.8738 19.9945 74.0171 19.4868 74.1092 18.9709C74.7684 15.2362 74.4961 11.5796 73.1123 8.03394C72.3406 6.05867 71.1861 4.34649 69.5014 3.0269C69.4768 3.0084 69.4604 2.97551 69.3888 2.87891L69.3867 2.88096Z" fill="#FF5D6B"/>
<path d="M60.2529 12.8246C60.2877 12.7732 60.298 12.6889 60.3942 12.7259C60.3983 12.8307 60.3389 12.8492 60.2529 12.8246Z" fill="#FF5D6B"/>
</g>
<defs>
<clipPath id="clip0_68_9435">
<rect width="84" height="70" fill="white" transform="translate(0.5)"/>
</clipPath>
</defs>
</svg>
