<svg width="150" height="140" viewBox="0 0 150 140" fill="none" xmlns="http://www.w3.org/2000/svg">
<g clip-path="url(#clip0_2_10056)">
<path d="M10.1214 136.927C9.71952 136.92 9.33543 137.036 8.94779 137.113C7.85243 137.338 7.38299 137.078 7.15183 136.015C6.87799 134.755 6.6895 133.478 6.437 132.215C5.34876 126.713 4.65882 121.145 3.70216 115.622C2.73483 110.043 1.80307 104.46 0.874858 98.8743C0.572568 97.0497 0.320067 95.2181 0.0497836 93.3865C0.0142201 93.1374 -0.0106744 92.8812 0.00710736 92.6321C0.0640091 91.9374 0.480103 91.5023 1.17004 91.383C4.38498 90.818 7.59993 90.2461 10.822 89.7057C11.263 89.6321 11.5261 89.4566 11.7538 89.0882C13.187 86.7654 14.6557 84.4636 16.0854 82.1408C19.6738 76.3161 23.6178 70.7231 27.4515 65.0564C33.4155 56.2422 39.2159 47.3193 45.3364 38.607C49.3658 32.8665 53.356 27.0981 57.7837 21.6419C57.8512 21.5576 57.901 21.4594 57.965 21.3576C57.8192 21.1331 57.5738 21.1226 57.3782 21.0454C53.2244 19.4208 50.39 15.4769 50.3473 11.0768C50.2975 5.87678 53.4129 2.52587 57.2858 1.37849C57.4743 1.32234 57.6877 1.31182 57.8264 1.15392C58.4238 0.469704 59.256 0.357422 60.0811 0.357422C65.7713 0.360931 70.5119 4.54343 71.0098 9.72594C71.3227 12.9821 70.5403 15.8944 68.4207 18.4313C67.7486 19.2348 66.9057 19.8524 66.038 20.4348C66.2016 20.719 66.4719 20.8313 66.703 20.9892C69.4379 22.8594 72.0696 24.8629 74.7013 26.8735C90.8187 39.1894 106.822 51.6422 122.762 64.1827C124.117 65.2493 125.465 66.3265 126.802 67.4178C127.325 67.8459 127.879 68.2564 128.175 68.8915C128.331 69.2248 128.591 69.0915 128.833 69.0494C130.877 68.7125 132.922 68.3722 134.974 68.0494C136.095 67.8739 137.211 67.6669 138.364 67.7827C138.954 67.8424 139.31 68.102 139.48 68.6459C139.623 69.0985 139.783 69.5476 139.932 69.9968C139.936 70.081 139.925 70.1687 139.946 70.2459C140.682 72.8985 141.173 75.6003 141.632 78.3091C142.624 84.1408 143.744 89.9443 144.801 95.7655C145.828 101.418 146.653 107.106 147.564 112.776C147.663 113.404 147.489 113.71 146.892 113.98C146.611 114.106 146.305 114.197 146.003 114.264C144.978 114.492 143.954 114.724 142.923 114.92C137.681 115.927 132.424 116.871 127.143 117.667C122.004 118.443 116.88 119.324 111.751 120.162C106.929 120.952 102.11 121.741 97.2877 122.534C91.626 123.468 85.9642 124.401 80.3061 125.338C74.7297 126.257 69.1498 127.169 63.577 128.106C58.1429 129.018 52.7159 129.969 47.2818 130.878C41.3142 131.875 35.3395 132.836 29.3719 133.822C24.1583 134.685 18.9447 135.52 13.7204 136.31C12.5184 136.492 11.3021 136.597 10.1249 136.927H10.1214ZM53.733 14.7927C53.8646 14.4874 53.7188 14.2032 53.7116 13.8979C53.6441 10.5435 54.9848 7.92943 57.8761 6.11889C58.3634 5.81362 58.7368 5.81362 59.0462 6.09433C59.3591 6.37854 59.3663 6.70486 59.064 7.22065C59.0497 7.24521 59.0284 7.26276 59.0106 7.28732C58.7403 7.66627 58.8364 8.04873 59.0675 8.38207C59.3414 8.78207 59.6685 8.50839 59.9744 8.38558C60.0526 8.354 60.1273 8.3154 60.2055 8.28031C61.0377 7.90838 61.0946 7.74347 60.6643 6.97153C60.2553 6.23819 60.5185 5.59607 61.34 5.3294C61.8699 5.15747 62.4069 5.19958 62.9439 5.27326C64.082 5.43467 65.1418 5.82064 66.1411 6.37854C66.3118 6.6031 66.543 6.73644 66.9057 6.88381C66.6603 6.62416 66.5999 6.35398 66.3438 6.2417C64.8039 4.38203 62.8479 3.34693 60.3869 3.30482C59.7895 3.2943 59.1671 3.39254 58.6123 3.17149C58.1606 2.98903 57.7943 3.07675 57.396 3.24517C53.1711 5.03817 51.1404 10.2558 53.5445 14.6699C53.5872 14.747 53.637 14.7997 53.7365 14.7927H53.733ZM145.803 112.541C145.729 112.162 145.679 111.885 145.622 111.611C144.612 106.783 143.57 101.962 142.649 97.1128C141.515 91.1373 140.508 85.1373 139.317 79.1723C138.73 76.2319 138.204 73.2775 137.912 70.288C137.78 68.9546 137.795 68.9652 136.507 69.2143C133.05 69.8845 129.597 70.5687 126.133 71.1968C119.903 72.3231 113.661 73.4073 107.427 74.5161C100.94 75.6705 94.4533 76.8319 87.97 77.9933C83.4712 78.8004 78.9724 79.6214 74.4701 80.4285C68.9613 81.4179 63.4525 82.3969 57.9473 83.3794C51.8801 84.4636 45.813 85.5548 39.7458 86.632C33.2306 87.7899 26.7118 88.9373 20.1965 90.0847C15.1892 90.9689 10.1818 91.8496 5.17449 92.7233C4.16804 92.8988 3.15448 93.0461 2.14803 93.2251C1.61814 93.3198 1.59324 93.3725 1.67859 93.8918C1.69638 94.004 1.72838 94.1093 1.74972 94.2216C2.11958 96.176 2.50723 98.1304 2.85931 100.088C3.97956 106.323 5.07136 112.562 6.20228 118.794C6.79619 122.075 7.54303 125.331 8.0587 128.625C8.35743 130.538 8.69884 132.44 9.00113 134.348C9.0687 134.766 9.18962 134.927 9.65906 134.829C10.605 134.633 11.5617 134.506 12.5148 134.341C16.2383 133.696 19.9547 133.029 23.6818 132.397C28.5824 131.569 33.4902 130.759 38.3944 129.955C43.384 129.138 48.3771 128.331 53.3702 127.524C58.0255 126.769 62.6843 126.032 67.3396 125.275C72.6955 124.404 78.0478 123.52 83.4037 122.636C88.2794 121.829 93.1552 121.011 98.031 120.201C102.572 119.446 107.107 118.667 111.652 117.952C116.563 117.18 121.467 116.355 126.361 115.481C131.507 114.562 136.671 113.752 141.852 113.05C143.143 112.874 144.438 112.713 145.811 112.534L145.803 112.541ZM16.8358 88.5514C18.9234 88.3829 123.338 70.0319 124.199 69.6845C123.103 68.8459 122.029 68.0248 120.959 67.1967C105.165 55.0141 89.4246 42.7649 73.8157 30.3507C70.6257 27.8139 67.3752 25.3542 64.4056 22.5682C63.5592 21.7752 62.7732 21.3927 61.6459 21.6945C61.3791 21.7647 61.1942 21.8138 61.0626 22.0805C59.7041 24.8033 58.0362 27.3472 56.3825 29.8946C50.959 38.2596 45.2689 46.4491 39.4862 54.572C33.9312 62.3721 28.2837 70.1126 23.0274 78.1161C20.8189 81.4776 19.0123 85.0706 16.8322 88.5549L16.8358 88.5514ZM67.2507 16.1927C65.1133 17.9822 62.6345 18.691 59.9566 18.691C58.0468 18.691 56.5959 17.5436 56.0873 15.719C55.5254 13.7049 55.9842 11.8979 57.4636 10.3681C57.677 10.147 57.9686 10.0031 58.1322 9.67331C57.8264 9.36454 57.6628 8.9505 57.4316 8.55751C57.3427 8.63119 57.268 8.6733 57.2182 8.73295C55.0951 11.3154 54.9137 14.6909 56.699 17.5015C57.1649 18.2348 57.7552 18.6874 58.5874 18.9471C61.8415 19.9682 65.4298 18.8629 67.2543 16.1962L67.2507 16.1927Z" fill="#0D070B"/>
<path d="M10.1215 136.928C11.2986 136.598 12.5149 136.493 13.717 136.31C18.9412 135.521 24.1584 134.686 29.3685 133.822C35.336 132.833 41.3107 131.875 47.2783 130.879C52.7124 129.97 58.1394 129.019 63.5735 128.107C69.1463 127.17 74.7263 126.261 80.3026 125.338C85.9643 124.405 91.6225 123.468 97.2842 122.535C102.103 121.742 106.926 120.952 111.748 120.163C116.876 119.324 122.001 118.443 127.14 117.668C132.421 116.871 137.677 115.928 142.919 114.92C143.951 114.724 144.975 114.492 145.999 114.264C146.301 114.198 146.607 114.106 146.888 113.98C147.486 113.71 147.66 113.401 147.56 112.777C146.65 107.103 145.821 101.419 144.797 95.7659C143.741 89.9483 142.617 84.1412 141.628 78.3096C141.17 75.6043 140.675 72.899 139.943 70.2463C139.921 70.1691 139.932 70.0814 139.928 69.9972C140.156 69.9902 140.377 69.9726 140.601 69.92C141.607 69.6779 142.603 70.2604 142.806 71.2323C143.147 72.8709 143.57 74.492 143.929 76.1236C144.278 77.6955 144.509 79.2991 144.726 80.8991C144.961 82.664 145.281 84.4184 145.601 86.1728C146.024 88.5027 146.494 90.822 146.927 93.1483C147.44 95.9133 147.952 98.6782 148.425 101.45C148.702 103.068 148.908 104.699 149.147 106.324C149.371 107.868 149.666 109.405 149.783 110.952C149.861 111.952 150.025 112.949 150 113.956C149.975 114.892 149.655 115.587 148.691 115.994C147.454 116.513 146.149 116.766 144.865 117.096C142.045 117.819 139.178 118.328 136.326 118.896C133.31 119.499 130.277 120.033 127.25 120.591C124.419 121.11 121.585 121.612 118.747 122.103C115.827 122.612 112.911 123.145 109.988 123.622C106.979 124.11 103.984 124.678 100.969 125.135C98.4827 125.51 96.0039 125.91 93.5287 126.345C91.0001 126.787 88.4716 127.25 85.9394 127.672C83.0446 128.152 80.139 128.584 77.2442 129.061C75.434 129.359 73.6416 129.766 71.8243 130.008C69.5838 130.307 67.3717 130.759 65.1348 131.089C62.5671 131.465 60.0172 131.963 57.453 132.384C54.8889 132.805 52.3212 133.184 49.7571 133.605C47.1965 134.026 44.6395 134.489 42.0789 134.91C39.5148 135.331 36.9471 135.71 34.3829 136.128C31.8224 136.549 29.2653 137.005 26.7048 137.437C24.3113 137.837 21.9215 138.258 19.5174 138.608C17.4227 138.914 15.3458 139.335 13.2297 139.496C13.0626 139.51 12.9025 139.591 12.7354 139.619C11.6009 139.816 10.4273 138.893 10.3598 137.763C10.342 137.468 10.4664 137.131 10.1179 136.928H10.1215Z" fill="#FF9DBF"/>
<path d="M66.1375 6.38196C66.205 6.33635 66.2726 6.29073 66.3402 6.24512C66.5962 6.3574 66.6567 6.62407 66.9021 6.88723C66.5429 6.73986 66.3082 6.61003 66.1375 6.38196V6.38196Z" fill="#FF9DBF"/>
<path d="M111.947 95.9659C112.434 98.4853 112.904 100.934 113.38 103.38C113.878 105.938 114.394 108.492 114.881 111.054C115.041 111.896 114.856 112.078 114.013 112.219C112.584 112.454 111.161 112.72 109.735 112.97C109.568 112.998 109.397 113.022 109.23 113.04C108.316 113.138 108.345 113.128 108.138 112.233C107.715 110.377 107.235 108.531 106.908 106.65C105.663 99.4712 104.084 92.3518 102.868 85.1658C102.676 84.0325 102.391 82.9167 102.146 81.7938C101.982 81.05 102.057 80.9272 102.807 80.7447C104.713 80.2815 106.655 80.0149 108.593 79.7166C108.96 79.6605 109.198 79.7658 109.387 80.0535C109.493 80.2184 109.611 80.3763 109.721 80.5412C112.466 84.6641 115.208 88.7904 117.957 92.9133C118.11 93.1448 118.285 93.3624 118.573 93.5484C118.448 92.8641 118.331 92.1764 118.199 91.4922C117.388 87.3658 116.574 83.243 115.767 79.1166C115.635 78.45 115.802 78.2078 116.492 78.0429C117.659 77.7692 118.861 77.7692 120.045 77.6043C120.607 77.5236 121.172 77.4464 121.731 77.3552C122.435 77.2394 122.57 77.2991 122.716 78.0043C122.879 78.8008 122.997 79.6043 123.125 80.4079C123.637 83.65 124.366 86.8465 125.002 90.0641C126.101 95.6186 127.225 101.166 128.342 106.717C128.463 107.32 128.609 107.917 128.815 108.503C129.035 109.134 128.875 109.401 128.225 109.534C126.585 109.871 124.938 110.187 123.292 110.499C123.071 110.542 122.84 110.538 122.613 110.545C122.15 110.563 121.827 110.391 121.549 109.994C118.477 105.58 115.415 101.159 112.523 96.6256C112.388 96.415 112.296 96.1729 111.954 95.9589L111.947 95.9659Z" fill="#0D070B"/>
<path d="M47.7547 120.032C47.7973 120.288 47.6586 120.52 47.4737 120.748C46.6024 121.818 45.7382 122.895 44.874 123.972C44.3583 124.618 43.7253 124.941 42.854 125.039C39.8346 125.383 36.8224 125.772 33.8529 126.439C33.8244 126.446 33.7995 126.453 33.7711 126.46C32.7611 126.727 31.8542 126.611 30.958 125.993C30.0547 125.369 29.066 124.857 28.0809 124.358C27.3661 123.997 27.0638 123.442 26.9642 122.699C26.6797 120.506 26.3916 118.309 26.0787 116.12C25.6021 112.793 25.122 109.463 24.6063 106.141C24.2649 103.923 24.0124 101.698 23.8417 99.4633C23.7848 98.7264 23.9377 98.1369 24.4854 97.565C25.3247 96.6913 26.0538 95.7194 26.8006 94.765C27.3021 94.1229 27.9386 93.8071 28.7459 93.7193C32.192 93.3334 35.5919 92.6913 39.0025 92.0842C39.3332 92.0246 39.6248 92.1053 39.9022 92.2527C41.1256 92.9053 42.3383 93.579 43.5653 94.2246C44.0347 94.4737 44.2659 94.8316 44.3263 95.3509C44.5326 97.1018 44.746 98.8562 44.9949 100.604C45.5319 104.348 46.1045 108.084 46.6415 111.828C47.022 114.463 47.367 117.102 47.7298 119.737C47.7404 119.821 47.744 119.906 47.7547 120.035V120.032ZM40.5957 118.649C40.5779 118.47 40.5673 118.33 40.5459 118.193C40.297 116.39 40.0374 114.59 39.7955 112.786C39.3581 109.541 38.9278 106.295 38.501 103.046C38.3374 101.797 38.1987 100.544 38.0422 99.2948C37.9711 98.7264 37.964 98.7299 37.3701 98.772C37.3416 98.772 37.3132 98.772 37.2847 98.779C35.2896 99.0492 33.2945 99.3264 31.2958 99.5896C31.022 99.6247 30.9651 99.7475 31.0042 99.9791C31.0256 100.116 31.0327 100.256 31.054 100.397C31.7013 104.772 32.1423 109.176 32.7219 113.558C32.978 115.502 33.2163 117.446 33.4759 119.39C33.5612 120.021 33.579 120.014 34.2227 119.92C35.375 119.751 36.5272 119.6 37.6795 119.432C38.5224 119.309 39.3617 119.169 40.201 119.035C40.4428 118.997 40.6562 118.937 40.5886 118.656L40.5957 118.649Z" fill="#0D070B"/>
<path d="M51.0337 90.7659C51.0159 90.1097 51.2293 89.829 51.9335 89.6886C52.9364 89.4886 53.9499 89.3483 54.9564 89.1729C58.2567 88.5939 61.5677 88.0746 64.8466 87.3904C65.7215 87.2079 66.4007 87.3272 67.0907 87.7132C68.1789 88.3202 69.3703 88.7237 70.4194 89.4079C70.7964 89.6536 71.0596 89.9167 71.1058 90.3939C71.4365 93.829 72.1976 97.194 72.7702 100.591C72.9515 101.668 73.0618 102.755 73.3072 103.822C73.4174 104.299 73.2787 104.685 72.9409 105.047C71.9451 106.12 70.9671 107.215 69.9855 108.299C69.7899 108.517 69.5517 108.629 69.2529 108.685C66.8524 109.124 64.4554 109.573 62.0549 110.019C61.9446 110.04 61.8273 110.04 61.717 110.071C61.2405 110.205 61.0627 110.096 61.18 110.836C61.6815 114.047 62.1224 117.264 62.5883 120.482C62.7057 121.285 62.6452 121.345 61.7917 121.493C60.1416 121.777 58.4985 122.085 56.8484 122.366C56.1513 122.485 56.0695 122.408 55.9593 121.738C54.9351 115.464 53.9464 109.184 53.0075 102.896C52.4207 98.9624 51.7379 95.0431 51.1013 91.1167C51.08 90.9799 51.0515 90.8395 51.0408 90.7623L51.0337 90.7659ZM64.5372 93.808C62.6844 94.0676 60.8884 94.3238 59.0889 94.5659C58.719 94.615 58.7332 94.8115 58.7795 95.0992C59.2205 97.9168 59.6508 100.738 60.0704 103.559C60.1273 103.927 60.2838 104.012 60.6394 103.945C62.3927 103.615 64.1531 103.306 65.91 102.987C66.4968 102.878 66.4897 102.875 66.4114 102.303C66.0344 99.5589 65.3089 96.8747 64.9498 94.1273C64.9106 93.829 64.7542 93.7483 64.5372 93.8115V93.808Z" fill="#0D070B"/>
<path d="M85.63 90.0704C85.7296 91.1511 85.9856 92.1827 86.167 93.2248C86.3413 94.2178 86.5191 95.2108 86.6933 96.2038C86.8072 96.8424 86.8036 96.8249 87.5078 96.7652C89.8656 96.5617 92.1488 95.9512 94.4569 95.4915C94.624 95.4599 94.7876 95.4038 94.9548 95.3863C95.4633 95.3371 95.634 95.4213 95.7514 95.9196C95.9185 96.6284 96.0323 97.3477 96.1533 98.067C96.2955 98.9231 96.4484 99.7793 96.5409 100.642C96.6156 101.33 96.4698 101.502 95.7941 101.618C93.3864 102.028 90.993 102.499 88.6031 103.011C88.4644 103.039 88.3257 103.067 88.1835 103.092C87.9914 103.123 87.8741 103.197 87.9096 103.421C88.2795 105.657 88.6422 107.895 89.0156 110.179C90.712 109.871 92.348 109.579 93.9839 109.278C95.5771 108.986 97.1668 108.681 98.7601 108.39C99.3647 108.281 99.4962 108.362 99.6456 108.983C99.9479 110.239 100.108 111.52 100.293 112.793C100.35 113.179 100.417 113.565 100.478 113.955C100.577 114.6 100.496 114.741 99.8625 114.934C98.4471 115.362 96.9926 115.618 95.5487 115.923C92.2377 116.622 88.8841 117.053 85.5518 117.604C85.2139 117.66 84.8832 117.751 84.5453 117.79C83.8732 117.867 83.706 117.741 83.5602 117.074C82.9165 114.116 82.4293 111.127 81.8958 108.148C80.9996 103.127 80.1248 98.1021 79.2428 93.0775C78.8978 91.1195 78.5493 89.1616 78.2185 87.2002C78.1474 86.7862 78.1225 86.3651 78.1083 85.944C78.0834 85.2107 78.1545 85.1195 78.8551 84.9686C79.3281 84.8668 79.8047 84.7826 80.2848 84.7265C82.632 84.4563 84.9045 83.8037 87.2268 83.3896C89.2966 83.0212 91.3557 82.6107 93.422 82.2282C94.2044 82.0844 94.4498 82.2282 94.624 83.0037C94.8943 84.2072 95.1184 85.4212 95.3637 86.6283C95.3744 86.6844 95.378 86.7405 95.3886 86.7932C95.6305 88.1125 95.634 88.116 94.336 88.3686C91.4411 88.93 88.5747 89.6072 85.6158 90.0634L85.63 90.0704Z" fill="#0D070B"/>
<path d="M8.17602 95.9729C8.5281 95.7413 8.79482 95.5273 9.09356 95.3764C10.3738 94.7308 11.7004 95.4992 11.7679 96.9132C11.8035 97.6501 11.5332 98.2852 11.1207 98.8712C10.9215 99.1519 10.8077 99.4185 10.8219 99.7905C10.8646 101.152 9.73726 102.155 8.38229 101.91C6.81393 101.626 5.73636 100.692 5.17445 99.208C5.0322 98.8326 4.98952 98.422 5.146 98.0571C5.32026 97.6501 5.2598 97.3097 5.07132 96.9413C4.90417 96.6115 4.85438 96.2501 4.86149 95.8782C4.87216 95.3308 5.09266 94.8887 5.5941 94.643C6.09199 94.3974 6.58988 94.4676 7.04865 94.7659C7.50742 95.0606 7.82394 95.4957 8.17602 95.9764V95.9729Z" fill="#0D070B"/>
<path d="M123.882 77.9298C123.861 77.5755 123.935 77.3579 124.188 77.2912C124.494 77.2105 124.679 77.4 124.753 77.6667C124.849 78.0176 124.91 78.379 124.988 78.7334C126.073 83.6001 127.147 88.4703 128.246 93.3335C129.16 97.3792 130.124 101.411 130.938 105.478C131.08 106.19 131.148 106.916 131.258 107.635C131.304 107.941 131.276 108.225 130.931 108.309C130.533 108.407 130.401 108.137 130.294 107.807C129.743 106.095 129.373 104.344 129.01 102.586C127.73 96.3862 126.446 90.1861 125.184 83.9825C124.8 82.0878 124.444 80.1895 123.957 78.3158C123.914 78.1544 123.896 77.986 123.886 77.9298H123.882Z" fill="#0D070B"/>
<path d="M131.813 73.0357C132.087 72.6883 132.282 72.3725 132.542 72.1199C133.086 71.5866 133.737 71.369 134.491 71.6602C135.234 71.948 135.572 72.5304 135.647 73.2848C135.664 73.4497 135.679 73.6322 135.632 73.7866C135.423 74.4848 135.33 75.148 135.668 75.8673C135.871 76.3024 135.661 76.8006 135.351 77.2042C134.459 78.3761 132.457 78.4042 131.564 77.2287C131.322 76.9094 131.055 76.6392 130.749 76.3866C130.333 76.0427 129.967 75.6533 129.679 75.1936C129.512 74.9305 129.373 74.6603 129.316 74.348C129.096 73.1655 130.017 72.355 131.169 72.7339C131.383 72.8041 131.578 72.9199 131.816 73.0322L131.813 73.0357Z" fill="#0D070B"/>
<path d="M50.0486 118.99C50.0877 119.418 49.8494 119.737 49.4831 119.786C49.0919 119.839 48.7754 119.579 48.7043 119.081C48.5443 117.972 48.4162 116.86 48.2704 115.748C47.7156 111.527 47.1466 107.309 46.6132 103.085C46.2931 100.555 46.0264 98.0213 45.749 95.488C45.717 95.1967 45.6031 94.7546 45.9801 94.6844C46.4673 94.5932 46.4389 95.1125 46.4851 95.4002C46.9795 98.3547 47.4667 101.313 47.9148 104.274C48.4802 108.011 49.0066 111.755 49.5472 115.499C49.7143 116.664 49.8814 117.829 50.0486 118.99Z" fill="#0D070B"/>
<path d="M72.6778 90.7231C72.6778 90.5757 72.6778 90.5476 72.6778 90.5196C72.6778 90.2389 72.6458 89.909 73.0334 89.8774C73.3535 89.8529 73.4495 90.1406 73.4957 90.3897C73.6842 91.4354 73.8336 92.488 74.0363 93.5301C74.6018 96.4144 74.9254 99.3302 75.3842 102.228C75.4375 102.558 75.5442 102.878 75.594 103.207C75.6402 103.52 75.5371 103.772 75.1708 103.804C74.8614 103.828 74.6942 103.642 74.6622 103.358C74.3208 100.218 73.5384 97.1442 73.1757 94.0038C73.0441 92.867 72.8307 91.7406 72.6707 90.7231H72.6778Z" fill="#0D070B"/>
<path d="M62.6452 112.004C62.6452 112.004 62.638 111.902 62.6452 111.822C62.6629 111.566 62.6878 111.278 63.0115 111.25C63.2782 111.225 63.3813 111.467 63.456 111.685C63.7049 112.432 63.801 113.211 63.929 113.983C64.2597 115.966 64.5656 117.955 64.8821 119.941C64.9532 120.39 64.8074 120.66 64.4696 120.72C64.1602 120.773 63.8792 120.569 63.8259 120.201C63.4276 117.52 63.0435 114.839 62.6523 112.159C62.6487 112.13 62.6487 112.102 62.6416 112.008L62.6452 112.004Z" fill="#0D070B"/>
<path d="M116.833 110.759C116.844 110.994 116.812 111.211 116.592 111.271C116.353 111.334 116.236 111.145 116.183 110.941C116.094 110.618 116.026 110.289 115.944 109.962C115.439 107.948 115.08 105.91 114.753 103.86C114.739 103.776 114.717 103.696 114.71 103.611C114.689 103.341 114.732 103.081 115.037 103.008C115.357 102.931 115.503 103.152 115.571 103.415C115.646 103.713 115.692 104.018 115.763 104.317C116.243 106.366 116.499 108.453 116.798 110.531C116.808 110.615 116.823 110.696 116.833 110.752V110.759Z" fill="#0D070B"/>
<path d="M110.848 79.5684C111.044 79.5544 111.157 79.6842 111.26 79.8176C111.698 80.3684 112.16 80.8983 112.559 81.4737C113.711 83.1334 114.838 84.8106 115.973 86.4808C116.051 86.5966 116.126 86.7194 116.172 86.8457C116.225 86.9861 116.182 87.1264 116.065 87.2247C115.916 87.3475 115.745 87.3334 115.599 87.2247C115.51 87.158 115.443 87.0668 115.379 86.9755C113.864 84.8176 112.27 82.7088 110.958 80.4211C110.848 80.2281 110.755 80.0246 110.681 79.814C110.642 79.6983 110.716 79.6 110.848 79.5719V79.5684Z" fill="#0D070B"/>
<path d="M100.951 108.021C101.136 108.021 101.253 108.092 101.31 108.232C101.381 108.414 101.442 108.6 101.495 108.786C101.957 110.436 101.907 112.165 102.316 113.825C102.38 114.078 102.242 114.278 101.975 114.309C101.708 114.344 101.552 114.179 101.527 113.92C101.381 112.306 100.844 110.751 100.723 109.134C100.702 108.857 100.698 108.576 100.709 108.299C100.713 108.148 100.823 108.053 100.951 108.021Z" fill="#0D070B"/>
<path d="M98.6036 100.379C98.6462 100.632 98.5502 100.828 98.2906 100.884C98.0274 100.944 97.8176 100.8 97.7892 100.551C97.6256 99.0458 97.1561 97.5896 97.085 96.0738C97.0708 95.758 96.9427 95.2738 97.3553 95.2036C97.8389 95.1229 97.8461 95.6492 97.9385 95.9791C98.2444 97.0633 98.2693 98.1931 98.4471 99.2984C98.504 99.6563 98.5502 100.018 98.6 100.376L98.6036 100.379Z" fill="#0D070B"/>
<path d="M89.3144 103.748C89.5883 103.78 89.6487 104.011 89.7092 104.222C89.9653 105.134 90.2462 106.046 90.3885 106.987C90.4738 107.538 90.5129 108.095 90.6979 108.629C90.801 108.934 90.6836 109.208 90.3493 109.281C90.0115 109.355 89.8088 109.141 89.7661 108.829C89.5741 107.418 89.1366 106.05 89.0726 104.622C89.0619 104.401 89.0584 104.176 89.0726 103.955C89.0797 103.839 89.1793 103.766 89.3144 103.748V103.748Z" fill="#0D070B"/>
<path d="M96.0608 82.6038C96.0643 82.3442 96.0821 82.0564 96.4164 82.0354C96.7223 82.0143 96.8468 82.274 96.9001 82.5266C97.085 83.4284 97.2486 84.3336 97.4264 85.2354C97.5225 85.7266 97.6363 86.2179 97.7287 86.7091C97.7821 86.9828 97.7109 87.2249 97.4087 87.3056C97.0566 87.3968 96.8645 87.1968 96.8076 86.8846C96.5551 85.4845 96.3133 84.0845 96.0679 82.6845C96.0644 82.6564 96.0679 82.6284 96.0644 82.6003L96.0608 82.6038Z" fill="#0D070B"/>
<path d="M88.6208 95.1587C88.5959 95.4745 88.4963 95.692 88.1904 95.7447C87.8953 95.7938 87.7032 95.6499 87.5823 95.3973C87.5574 95.3482 87.5432 95.292 87.5396 95.2359C87.4543 94.0078 87.1413 92.8113 86.992 91.5937C86.9813 91.5095 86.9742 91.4253 86.9777 91.3446C86.9848 91.1551 86.9422 90.9236 87.1947 90.8569C87.4863 90.7797 87.6072 90.9937 87.6712 91.2148C87.7886 91.6183 87.9024 92.0218 87.9771 92.4324C88.1122 93.1762 88.2829 93.9061 88.4963 94.6324C88.5532 94.8183 88.5852 95.0113 88.6208 95.1622V95.1587Z" fill="#0D070B"/>
<path d="M41.3995 91.0879C41.5311 91.137 41.6982 91.1791 41.8512 91.2528C42.8114 91.7265 43.768 92.2037 44.7283 92.6844C44.8278 92.7335 44.9239 92.7932 45.0163 92.8598C45.219 93.0037 45.3328 93.1932 45.2155 93.4318C45.0768 93.7125 44.835 93.7406 44.5718 93.6142C43.4195 93.0774 42.3242 92.4388 41.2395 91.7897C41.0723 91.6879 40.9336 91.5265 41.0332 91.2984C41.0972 91.1546 41.2253 91.1054 41.4031 91.0879H41.3995Z" fill="#0D070B"/>
<path d="M67.9478 86.1087C67.9798 85.9157 68.0829 85.807 68.2821 85.7894C68.5274 85.7684 68.7195 85.8947 68.9115 86.0035C69.8397 86.5368 70.7644 87.0807 71.6926 87.621C71.7886 87.6772 71.8918 87.7298 71.97 87.807C72.1265 87.9579 72.1692 88.1438 72.0518 88.3403C71.9344 88.5333 71.7459 88.5754 71.5361 88.5298C71.4828 88.5193 71.4223 88.5053 71.3761 88.4772C70.3198 87.8245 69.2636 87.1754 68.2109 86.5193C68.0616 86.428 67.9655 86.2877 67.9478 86.1158V86.1087Z" fill="#0D070B"/>
<path d="M32.5194 101.467C32.5194 101.235 32.5087 100.983 32.5194 100.734C32.5336 100.492 32.6367 100.292 32.9177 100.271C33.1844 100.249 33.348 100.4 33.4191 100.639C33.4903 100.881 33.5472 101.127 33.5934 101.372C33.9419 103.33 34.1162 105.313 34.4149 107.281C34.8346 110.05 35.2364 112.822 35.5494 115.604C35.6383 116.411 35.7272 117.218 35.8126 118.025C35.8517 118.39 35.7877 118.709 35.3609 118.804C34.9911 118.885 34.7137 118.653 34.6425 118.158C34.2051 115.081 33.7357 112.007 33.4085 108.916C33.1915 106.857 32.907 104.804 32.6581 102.744C32.6083 102.327 32.5656 101.909 32.5194 101.471V101.467Z" fill="#0D070B"/>
<path d="M62.2754 101.759C62.2754 102.053 62.2825 102.222 62.2754 102.39C62.2612 102.639 62.1438 102.832 61.8842 102.871C61.6282 102.906 61.461 102.752 61.3579 102.531C61.1054 101.99 61.0165 101.404 60.9204 100.825C60.6822 99.4183 60.4688 98.0042 60.2625 96.5902C60.2127 96.2604 60.2198 95.92 60.227 95.5867C60.2305 95.3726 60.3621 95.2112 60.5719 95.1551C60.8351 95.0884 61.0093 95.2323 61.1125 95.4533C61.1943 95.6288 61.2761 95.8147 61.3081 96.0042C61.6282 97.7972 61.9411 99.5902 62.2541 101.383C62.2825 101.548 62.2754 101.72 62.279 101.759H62.2754Z" fill="#0D070B"/>
</g>
<defs>
<clipPath id="clip0_2_10056">
<rect width="150" height="139.286" fill="white" transform="translate(0 0.357422)"/>
</clipPath>
</defs>
</svg>
