<svg width="137" height="127" viewBox="0 0 137 127" fill="none" xmlns="http://www.w3.org/2000/svg">
<g clip-path="url(#clip0_58_11283)">
<path d="M9.24406 124.524C8.87702 124.517 8.52622 124.623 8.17217 124.693C7.17175 124.898 6.74299 124.661 6.53186 123.692C6.28176 122.543 6.10961 121.379 5.87899 120.227C4.88506 115.211 4.25492 110.133 3.38117 105.098C2.49768 100.011 1.64666 94.9205 0.798899 89.8272C0.522807 88.1635 0.292189 86.4935 0.0453307 84.8234C0.0128493 84.5963 -0.00988766 84.3627 0.00635304 84.1356C0.0583233 83.5021 0.438356 83.1054 1.06849 82.9966C4.00481 82.4815 6.94113 81.9601 9.88394 81.4674C10.2867 81.4002 10.5271 81.2402 10.735 80.9043C12.044 78.7863 13.3854 76.6876 14.6912 74.5696C17.9686 69.2588 21.5707 64.1591 25.0722 58.9922C30.5194 50.9555 35.8171 42.8196 41.4071 34.8757C45.0873 29.6417 48.7317 24.382 52.7756 19.407C52.8373 19.3303 52.8828 19.2407 52.9413 19.1479C52.8081 18.9431 52.584 18.9335 52.4053 18.8632C48.6115 17.3819 46.0227 13.7858 45.9838 9.77391C45.9383 5.03252 48.7837 1.97718 52.3209 0.931001C52.493 0.879812 52.6879 0.870214 52.8146 0.726245C53.3603 0.102378 54.1203 0 54.8739 0C60.0709 0.00319931 64.4007 3.81678 64.8554 8.54217C65.1413 11.5111 64.4267 14.1666 62.4908 16.4797C61.8769 17.2123 61.1071 17.7754 60.3146 18.3065C60.464 18.5656 60.7108 18.668 60.922 18.812C63.4198 20.5172 65.8234 22.344 68.227 24.1772C82.9476 35.4068 97.5642 46.7612 112.122 58.1955C113.36 59.1681 114.591 60.1503 115.812 61.1453C116.29 61.5356 116.796 61.9099 117.066 62.489C117.209 62.793 117.446 62.6714 117.667 62.633C119.535 62.3259 121.402 62.0155 123.276 61.7212C124.3 61.5612 125.32 61.3725 126.372 61.478C126.911 61.5324 127.236 61.7692 127.392 62.2651C127.522 62.6778 127.668 63.0873 127.804 63.4968C127.808 63.5736 127.798 63.6536 127.817 63.724C128.49 66.1426 128.938 68.6061 129.357 71.076C130.263 76.3932 131.286 81.6849 132.251 86.9926C133.19 92.1467 133.943 97.3328 134.775 102.503C134.866 103.076 134.707 103.354 134.161 103.6C133.904 103.715 133.625 103.799 133.349 103.859C132.413 104.067 131.478 104.278 130.536 104.458C125.748 105.376 120.948 106.236 116.124 106.963C111.431 107.67 106.75 108.473 102.066 109.237C97.6617 109.957 93.2604 110.677 88.8559 111.4C83.6849 112.251 78.5139 113.102 73.3461 113.956C68.253 114.795 63.1567 115.626 58.0668 116.481C53.1037 117.312 48.147 118.18 43.1839 119.008C37.7335 119.917 32.2766 120.793 26.8262 121.692C22.0645 122.479 17.3027 123.241 12.5312 123.961C11.4333 124.127 10.3224 124.223 9.24731 124.524H9.24406ZM49.076 13.162C49.1962 12.8836 49.063 12.6245 49.0565 12.3462C48.9948 9.28761 50.2193 6.90412 52.8601 5.25328C53.3051 4.97494 53.6461 4.97494 53.9287 5.23088C54.2145 5.49002 54.221 5.78756 53.945 6.25786C53.932 6.28026 53.9125 6.29625 53.8962 6.31865C53.6494 6.66417 53.7371 7.0129 53.9482 7.31683C54.1983 7.68156 54.4971 7.43201 54.7765 7.32003C54.8479 7.29124 54.9161 7.25605 54.9876 7.22405C55.7477 6.88493 55.7996 6.73456 55.4066 6.03071C55.0331 5.36205 55.2734 4.77658 56.0238 4.53343C56.5077 4.37666 56.9982 4.41505 57.4887 4.48224C58.5281 4.62941 59.496 4.98133 60.4087 5.49002C60.5647 5.69478 60.7758 5.81635 61.1071 5.95073C60.883 5.71398 60.8278 5.46763 60.5939 5.36525C59.1874 3.66961 57.401 2.72582 55.1533 2.68742C54.6076 2.67783 54.0391 2.76741 53.5324 2.56585C53.1199 2.39949 52.7854 2.47947 52.4216 2.63304C48.5628 4.26789 46.7081 9.02527 48.9038 13.05C48.9428 13.1204 48.9883 13.1684 49.0792 13.162H49.076ZM133.167 102.289C133.099 101.943 133.053 101.69 133.001 101.441C132.079 97.0384 131.127 92.6426 130.286 88.2211C129.25 82.7727 128.331 77.3018 127.242 71.863C126.707 69.182 126.226 66.4882 125.959 63.7624C125.839 62.5466 125.852 62.5562 124.676 62.7834C121.519 63.3944 118.365 64.0183 115.202 64.591C109.511 65.618 103.81 66.6065 98.1164 67.6175C92.1918 68.6701 86.2672 69.7291 80.3458 70.788C76.2369 71.5239 72.128 72.2725 68.0159 73.0084C62.9845 73.9106 57.9532 74.8032 52.925 75.699C47.3837 76.6876 41.8424 77.6826 36.3011 78.6648C30.3505 79.7205 24.3966 80.7667 18.446 81.8129C13.8727 82.6191 9.29928 83.4221 4.7259 84.2188C3.80668 84.3787 2.88096 84.5131 1.96173 84.6763C1.47776 84.7627 1.45502 84.8106 1.53298 85.2841C1.54922 85.3865 1.57845 85.4825 1.59794 85.5849C1.93575 87.3669 2.28979 89.1489 2.61136 90.9341C3.63452 96.6193 4.6317 102.308 5.66461 107.99C6.20705 110.981 6.88916 113.95 7.36014 116.954C7.63298 118.698 7.94481 120.432 8.2209 122.172C8.28261 122.553 8.39305 122.7 8.8218 122.611C9.68581 122.431 10.5596 122.316 11.4301 122.166C14.8309 121.577 18.2252 120.969 21.6292 120.393C26.1051 119.638 30.5876 118.899 35.0668 118.167C39.6239 117.421 44.1843 116.685 48.7447 115.95C52.9965 115.262 57.2516 114.59 61.5034 113.899C66.3951 113.105 71.2835 112.299 76.1752 111.493C80.6284 110.757 85.0816 110.012 89.5348 109.273C93.6827 108.585 97.8241 107.875 101.975 107.222C106.461 106.518 110.94 105.766 115.409 104.97C120.11 104.131 124.826 103.392 129.558 102.752C130.737 102.592 131.92 102.445 133.174 102.282L133.167 102.289ZM15.3765 80.4148C17.2832 80.2612 112.649 63.5288 113.435 63.2121C112.434 62.4474 111.453 61.6988 110.476 60.9438C96.0506 49.8357 81.6743 38.6669 67.4182 27.3477C64.5046 25.0346 61.5359 22.7919 58.8237 20.2517C58.0506 19.5286 57.3328 19.1799 56.3031 19.455C56.0595 19.519 55.8906 19.5638 55.7704 19.807C54.5296 22.2896 53.0062 24.6091 51.4958 26.9318C46.5424 34.559 41.3454 42.0262 36.0639 49.4326C30.9904 56.5447 25.8323 63.6024 21.0316 70.9C19.0145 73.965 17.3644 77.2411 15.3733 80.418L15.3765 80.4148ZM61.4222 14.4385C59.47 16.0702 57.2061 16.7164 54.7602 16.7164C53.016 16.7164 51.6907 15.6702 51.2263 14.0066C50.7131 12.1702 51.1321 10.5225 52.4833 9.12765C52.6782 8.92609 52.9445 8.79492 53.0939 8.49418C52.8146 8.21264 52.6652 7.83512 52.4541 7.4768C52.3729 7.54399 52.3046 7.58238 52.2592 7.63677C50.32 9.99146 50.1544 13.0692 51.7849 15.6319C52.2104 16.3005 52.7496 16.7132 53.5097 16.95C56.4817 17.881 59.7591 16.8732 61.4254 14.4417L61.4222 14.4385Z" fill="#0D070B"/>
<path d="M9.24397 124.524C10.3191 124.223 11.43 124.127 12.5278 123.961C17.2994 123.241 22.0644 122.48 26.8229 121.693C32.2733 120.791 37.7301 119.917 43.1805 119.009C48.1437 118.18 53.1003 117.313 58.0635 116.481C63.1533 115.627 68.2497 114.798 73.3427 113.957C78.5138 113.106 83.6816 112.252 88.8526 111.401C93.2538 110.678 97.6583 109.958 102.063 109.238C106.747 108.473 111.427 107.67 116.121 106.963C120.944 106.237 125.745 105.376 130.533 104.458C131.475 104.279 132.41 104.068 133.346 103.86C133.622 103.799 133.901 103.716 134.158 103.601C134.703 103.354 134.862 103.073 134.772 102.503C133.94 97.33 133.183 92.1472 132.248 86.9931C131.283 81.6886 130.257 76.3937 129.354 71.0765C128.935 68.6098 128.483 66.1431 127.814 63.7244C127.795 63.654 127.804 63.5741 127.801 63.4973C128.009 63.4909 128.21 63.4749 128.415 63.4269C129.334 63.2061 130.244 63.7372 130.429 64.6234C130.741 66.1175 131.127 67.5956 131.455 69.0833C131.773 70.5166 131.985 71.9787 132.183 73.4376C132.397 75.0468 132.689 76.6465 132.982 78.2461C133.368 80.3705 133.797 82.4852 134.193 84.6064C134.661 87.1274 135.129 89.6485 135.561 92.1759C135.814 93.6508 136.003 95.1385 136.22 96.6198C136.425 98.0275 136.694 99.4288 136.802 100.84C136.873 101.751 137.022 102.66 137 103.578C136.977 104.433 136.685 105.066 135.804 105.437C134.674 105.911 133.482 106.141 132.309 106.442C129.734 107.101 127.116 107.565 124.511 108.083C121.756 108.633 118.986 109.12 116.221 109.628C113.636 110.102 111.047 110.559 108.455 111.007C105.788 111.471 103.125 111.957 100.455 112.392C97.707 112.837 94.9721 113.355 92.2177 113.771C89.9472 114.114 87.6833 114.478 85.4226 114.875C83.1131 115.278 80.8037 115.701 78.491 116.084C75.8471 116.523 73.1933 116.916 70.5493 117.351C68.896 117.623 67.259 117.994 65.5992 118.215C63.5529 118.487 61.5325 118.9 59.4894 119.201C57.1443 119.543 54.8154 119.997 52.4734 120.381C50.1315 120.765 47.7864 121.111 45.4445 121.494C43.1058 121.878 40.7704 122.301 38.4317 122.685C36.0898 123.069 33.7447 123.414 31.4028 123.795C29.0641 124.179 26.7287 124.595 24.39 124.988C22.204 125.353 20.0213 125.737 17.8256 126.057C15.9124 126.335 14.0155 126.719 12.0828 126.866C11.9302 126.879 11.784 126.952 11.6314 126.978C10.5952 127.157 9.52331 126.316 9.4616 125.286C9.44535 125.017 9.55904 124.71 9.24072 124.524H9.24397Z" fill="#FF9DBF"/>
<path d="M60.4058 5.49391C60.4675 5.45232 60.5292 5.41073 60.5909 5.36914C60.8248 5.47152 60.88 5.71467 61.1041 5.95462C60.776 5.82024 60.5617 5.70187 60.4058 5.49391Z" fill="#FF9DBF"/>
<path d="M102.245 87.1757C102.69 89.4728 103.119 91.706 103.554 93.9359C104.009 96.2682 104.48 98.5973 104.925 100.933C105.071 101.701 104.902 101.867 104.132 101.995C102.826 102.209 101.527 102.452 100.225 102.68C100.072 102.705 99.9161 102.728 99.7634 102.744C98.9287 102.833 98.9546 102.824 98.7662 102.008C98.3797 100.315 97.9412 98.6325 97.6424 96.9176C96.5055 90.3718 95.0634 83.8804 93.9525 77.3282C93.7771 76.2949 93.5172 75.2775 93.2931 74.2537C93.1437 73.5754 93.2119 73.4635 93.8973 73.2971C95.6383 72.8748 97.4118 72.6316 99.182 72.3597C99.5166 72.3085 99.7342 72.4045 99.9063 72.6668C100.004 72.8172 100.111 72.9612 100.212 73.1115C102.719 76.8707 105.224 80.6331 107.734 84.3923C107.874 84.6035 108.033 84.8018 108.296 84.9714C108.183 84.3475 108.075 83.7205 107.955 83.0966C107.215 79.3342 106.471 75.575 105.733 71.8126C105.613 71.2047 105.766 70.984 106.396 70.8336C107.462 70.5841 108.559 70.5841 109.641 70.4337C110.154 70.3601 110.671 70.2897 111.181 70.2066C111.824 70.101 111.947 70.1554 112.08 70.7984C112.23 71.5247 112.337 72.2573 112.454 72.99C112.922 75.9461 113.587 78.8607 114.169 81.7945C115.173 86.859 116.199 91.9171 117.219 96.9784C117.329 97.5287 117.463 98.0726 117.651 98.6069C117.852 99.1828 117.706 99.4259 117.112 99.5475C115.614 99.8546 114.11 100.143 112.607 100.427C112.405 100.466 112.194 100.462 111.986 100.469C111.564 100.485 111.268 100.328 111.015 99.9666C108.209 95.9418 105.412 91.9107 102.771 87.7772C102.648 87.5852 102.563 87.3645 102.251 87.1693L102.245 87.1757Z" fill="#0D070B"/>
<path d="M43.6158 109.12C43.6548 109.353 43.5281 109.564 43.3592 109.772C42.5634 110.748 41.7741 111.73 40.9848 112.713C40.5138 113.301 39.9357 113.596 39.1399 113.685C36.3822 113.999 33.631 114.354 30.9188 114.962C30.8928 114.968 30.8701 114.974 30.8441 114.981C29.9217 115.224 29.0934 115.118 28.2748 114.555C27.4498 113.986 26.5468 113.519 25.6471 113.064C24.9942 112.735 24.7181 112.229 24.6272 111.551C24.3673 109.552 24.1042 107.549 23.8184 105.552C23.3831 102.52 22.9447 99.4834 22.4737 96.4536C22.1618 94.4317 21.9312 92.4033 21.7753 90.3653C21.7233 89.6935 21.863 89.156 22.3632 88.6345C23.1298 87.8379 23.7957 86.9517 24.4778 86.0815C24.9358 85.496 25.5172 85.208 26.2545 85.1281C29.402 84.7761 32.5072 84.1907 35.6221 83.6372C35.9242 83.5828 36.1906 83.6564 36.4439 83.7907C37.5613 84.3858 38.6689 85.0001 39.7895 85.5888C40.2183 85.8159 40.4294 86.1422 40.4846 86.6157C40.673 88.2122 40.8679 89.8119 41.0952 91.4051C41.5857 94.8188 42.1087 98.2261 42.5991 101.64C42.9467 104.042 43.2618 106.448 43.5931 108.851C43.6028 108.928 43.6061 109.005 43.6158 109.123V109.12ZM37.0773 107.859C37.0611 107.696 37.0513 107.568 37.0318 107.443C36.8045 105.799 36.5673 104.158 36.3465 102.513C35.9469 99.5538 35.5539 96.5944 35.1641 93.6318C35.0147 92.4929 34.8881 91.3507 34.7451 90.2118C34.6802 89.6935 34.6737 89.6967 34.1312 89.7351C34.1053 89.7351 34.0793 89.7351 34.0533 89.7415C32.2311 89.9878 30.4089 90.2406 28.5834 90.4805C28.3333 90.5125 28.2813 90.6245 28.3171 90.8356C28.3366 90.9604 28.3431 91.0884 28.3625 91.2163C28.9537 95.2059 29.3565 99.221 29.8859 103.217C30.1198 104.989 30.3374 106.762 30.5745 108.534C30.6525 109.11 30.6687 109.104 31.2566 109.017C32.309 108.864 33.3614 108.726 34.4138 108.573C35.1836 108.461 35.9502 108.333 36.7168 108.211C36.9376 108.176 37.1325 108.122 37.0708 107.866L37.0773 107.859Z" fill="#0D070B"/>
<path d="M46.6108 82.4334C46.5945 81.8351 46.7894 81.5792 47.4326 81.4512C48.3485 81.2688 49.2743 81.1409 50.1935 80.9809C53.2078 80.453 56.2318 79.9795 59.2266 79.3556C60.0256 79.1893 60.646 79.2981 61.2761 79.65C62.2701 80.2035 63.3582 80.5714 64.3164 81.1953C64.6607 81.4192 64.9011 81.6592 64.9433 82.0943C65.2454 85.2264 65.9405 88.2945 66.4634 91.3915C66.6291 92.3737 66.7298 93.3654 66.9539 94.338C67.0546 94.7731 66.9279 95.1251 66.6193 95.4546C65.7098 96.4336 64.8166 97.4318 63.9201 98.4204C63.7415 98.6187 63.5238 98.7211 63.251 98.7723C61.0585 99.1722 58.8693 99.5817 56.6768 99.988C56.5761 100.007 56.4689 100.007 56.3682 100.036C55.9329 100.158 55.7705 100.058 55.8777 100.733C56.3357 103.661 56.7385 106.595 57.164 109.528C57.2712 110.261 57.216 110.315 56.4364 110.45C54.9293 110.709 53.4286 110.99 51.9215 111.246C51.2849 111.355 51.2102 111.285 51.1095 110.674C50.174 104.953 49.271 99.2266 48.4135 93.4934C47.8776 89.907 47.2539 86.3334 46.6725 82.7533C46.653 82.6286 46.627 82.5006 46.6173 82.4302L46.6108 82.4334ZM58.944 85.2072C57.2517 85.4439 55.6114 85.6775 53.9678 85.8982C53.63 85.943 53.643 86.1222 53.6852 86.3845C54.088 88.9536 54.481 91.5258 54.8643 94.0981C54.9163 94.434 55.0592 94.5108 55.384 94.45C56.9853 94.1493 58.5932 93.8677 60.1978 93.5766C60.7337 93.4774 60.7272 93.4742 60.6557 92.9527C60.3114 90.4509 59.6488 88.0034 59.3208 85.4983C59.285 85.2264 59.1421 85.1528 58.944 85.2104V85.2072Z" fill="#0D070B"/>
<path d="M78.2085 81.7991C78.2994 82.7845 78.5333 83.7251 78.6989 84.6753C78.8581 85.5807 79.0205 86.4861 79.1797 87.3915C79.2836 87.9738 79.2804 87.9578 79.9235 87.9034C82.077 87.7179 84.1623 87.1612 86.2704 86.7421C86.423 86.7133 86.5724 86.6621 86.7251 86.6461C87.1896 86.6013 87.3455 86.6781 87.4527 87.1324C87.6053 87.7787 87.7093 88.4345 87.8197 89.0904C87.9496 89.871 88.0893 90.6516 88.1738 91.4387C88.242 92.0657 88.1088 92.2225 87.4917 92.3281C85.2927 92.7024 83.1067 93.1311 80.9239 93.5982C80.7972 93.6238 80.6706 93.6494 80.5406 93.6718C80.3652 93.7006 80.2581 93.7678 80.2905 93.9725C80.6283 96.0105 80.9597 98.0516 81.3007 100.134C82.8501 99.8529 84.3442 99.5873 85.8384 99.3122C87.2935 99.0466 88.7454 98.7683 90.2006 98.5028C90.7528 98.4036 90.873 98.4772 91.0094 99.0434C91.2855 100.189 91.4317 101.357 91.6006 102.518C91.6525 102.87 91.7142 103.222 91.7695 103.577C91.8604 104.166 91.7857 104.294 91.2075 104.469C89.9148 104.86 88.5863 105.093 87.2675 105.372C84.2435 106.008 81.1805 106.402 78.137 106.904C77.8284 106.955 77.5264 107.039 77.2178 107.074C76.6039 107.144 76.4512 107.029 76.3181 106.421C75.7301 103.724 75.2852 100.998 74.7979 98.282C73.9794 93.7038 73.1804 89.1224 72.3748 84.5409C72.0598 82.7557 71.7414 80.9705 71.4394 79.1821C71.3744 78.8046 71.3517 78.4207 71.3387 78.0367C71.3159 77.3681 71.3809 77.2849 72.0208 77.1473C72.4528 77.0545 72.888 76.9778 73.3265 76.9266C75.4703 76.6802 77.5459 76.0852 79.6669 75.7076C81.5573 75.3717 83.438 74.9974 85.3252 74.6487C86.0397 74.5175 86.2639 74.6487 86.423 75.3557C86.6699 76.4531 86.8745 77.56 87.0986 78.6606C87.1084 78.7118 87.1116 78.763 87.1214 78.811C87.3422 80.0139 87.3455 80.0171 86.1599 80.2475C83.5159 80.7594 80.8979 81.3768 78.1955 81.7927L78.2085 81.7991Z" fill="#0D070B"/>
<path d="M7.46731 87.1823C7.78888 86.9711 8.03249 86.776 8.30533 86.6384C9.47466 86.0497 10.6862 86.7504 10.7479 88.0397C10.7804 88.7116 10.5336 89.2907 10.1568 89.8249C9.97488 90.0809 9.87094 90.324 9.88393 90.6632C9.92291 91.9045 8.89325 92.8195 7.65571 92.5955C6.22328 92.3364 5.23909 91.4854 4.72589 90.1321C4.59596 89.7897 4.55698 89.4154 4.6999 89.0827C4.85906 88.7116 4.80384 88.4012 4.63169 88.0653C4.47903 87.7646 4.43355 87.435 4.44005 87.0959C4.44979 86.5968 4.65118 86.1937 5.10917 85.9698C5.56391 85.7458 6.01864 85.8098 6.43765 86.0817C6.85666 86.3505 7.14575 86.7472 7.46731 87.1855V87.1823Z" fill="#0D070B"/>
<path d="M113.146 70.7303C113.126 70.4071 113.194 70.2088 113.425 70.148C113.704 70.0744 113.873 70.2472 113.942 70.4903C114.029 70.8102 114.084 71.1398 114.156 71.4629C115.147 75.9004 116.128 80.341 117.131 84.7753C117.966 88.4641 118.846 92.1401 119.59 95.8481C119.72 96.4975 119.782 97.1598 119.882 97.8157C119.925 98.094 119.899 98.3531 119.584 98.4299C119.22 98.5195 119.1 98.2732 119.002 97.9724C118.499 96.4112 118.161 94.8147 117.83 93.2118C116.66 87.5587 115.488 81.9055 114.335 76.2491C113.984 74.5214 113.659 72.7906 113.214 71.0822C113.175 70.935 113.159 70.7814 113.149 70.7303H113.146Z" fill="#0D070B"/>
<path d="M120.389 66.2672C120.639 65.9504 120.818 65.6625 121.055 65.4321C121.552 64.9458 122.147 64.7475 122.835 65.013C123.514 65.2754 123.823 65.8065 123.891 66.4943C123.907 66.6447 123.92 66.811 123.878 66.9518C123.686 67.5885 123.602 68.1931 123.91 68.849C124.095 69.2457 123.904 69.7 123.621 70.0679C122.806 71.1365 120.977 71.1621 120.162 70.0903C119.941 69.7992 119.697 69.5529 119.418 69.3225C119.038 69.009 118.703 68.6539 118.44 68.2347C118.288 67.9948 118.161 67.7484 118.109 67.4637C117.908 66.3855 118.749 65.6465 119.801 65.992C119.996 66.056 120.175 66.1616 120.393 66.264L120.389 66.2672Z" fill="#0D070B"/>
<path d="M45.7112 108.169C45.7469 108.56 45.5293 108.851 45.1948 108.896C44.8375 108.944 44.5484 108.707 44.4834 108.253C44.3372 107.242 44.2203 106.227 44.0871 105.213C43.5804 101.364 43.0607 97.5189 42.5735 93.6669C42.2812 91.3602 42.0376 89.0503 41.7842 86.7404C41.755 86.4748 41.651 86.0717 41.9953 86.0077C42.4403 85.9245 42.4143 86.398 42.4566 86.6604C42.9081 89.3542 43.3531 92.0512 43.7623 94.7514C44.2788 98.1587 44.7595 101.572 45.2532 104.986C45.4059 106.048 45.5585 107.11 45.7112 108.169Z" fill="#0D070B"/>
<path d="M66.3791 82.3954C66.3791 82.2611 66.3791 82.2355 66.3791 82.2099C66.3791 81.9539 66.3498 81.6532 66.7039 81.6244C66.9962 81.602 67.0839 81.8643 67.1261 82.0915C67.2983 83.0449 67.4347 84.0047 67.6198 84.9549C68.1363 87.5847 68.4319 90.2433 68.8509 92.886C68.8996 93.1867 68.9971 93.4778 69.0425 93.7786C69.0848 94.0633 68.9906 94.2937 68.656 94.3225C68.3734 94.3449 68.2208 94.1753 68.1915 93.9161C67.8797 91.0528 67.1651 88.2502 66.8338 85.3868C66.7136 84.3502 66.5187 83.3232 66.3726 82.3954H66.3791Z" fill="#0D070B"/>
<path d="M57.2161 101.799C57.2161 101.799 57.2096 101.706 57.2161 101.632C57.2324 101.399 57.2551 101.137 57.5507 101.111C57.7943 101.089 57.8885 101.309 57.9567 101.508C58.1841 102.189 58.2718 102.899 58.3887 103.603C58.6908 105.411 58.9701 107.225 59.2592 109.036C59.3242 109.445 59.191 109.692 58.8824 109.746C58.5998 109.794 58.3432 109.608 58.2945 109.272C57.9307 106.828 57.5799 104.384 57.2226 101.94C57.2194 101.914 57.2194 101.888 57.2129 101.802L57.2161 101.799Z" fill="#0D070B"/>
<path d="M106.708 100.664C106.718 100.878 106.689 101.076 106.487 101.131C106.27 101.188 106.162 101.015 106.114 100.83C106.032 100.536 105.971 100.235 105.896 99.9373C105.435 98.1009 105.107 96.2421 104.808 94.3737C104.795 94.2969 104.775 94.2233 104.769 94.1465C104.749 93.9002 104.788 93.6634 105.068 93.5962C105.36 93.5259 105.493 93.7274 105.555 93.9674C105.623 94.2393 105.665 94.5177 105.73 94.7896C106.169 96.658 106.403 98.5616 106.676 100.456C106.685 100.532 106.698 100.606 106.708 100.657V100.664Z" fill="#0D070B"/>
<path d="M101.241 72.2236C101.42 72.2108 101.524 72.3292 101.618 72.4508C102.018 72.9531 102.44 73.4361 102.804 73.9608C103.856 75.4741 104.886 77.0034 105.922 78.5263C105.993 78.6318 106.062 78.7438 106.104 78.859C106.152 78.987 106.113 79.1149 106.006 79.2045C105.87 79.3165 105.714 79.3037 105.581 79.2045C105.5 79.1437 105.438 79.0605 105.379 78.9774C103.996 77.0098 102.541 75.087 101.342 73.001C101.241 72.8251 101.157 72.6395 101.089 72.4476C101.053 72.342 101.121 72.2524 101.241 72.2268V72.2236Z" fill="#0D070B"/>
<path d="M92.2018 98.168C92.3707 98.168 92.4779 98.232 92.5298 98.3599C92.5948 98.5263 92.65 98.6959 92.6988 98.8654C93.121 100.369 93.0755 101.946 93.4491 103.46C93.5075 103.69 93.3809 103.872 93.1372 103.901C92.8936 103.933 92.7507 103.783 92.728 103.546C92.5948 102.074 92.1043 100.657 91.9939 99.1822C91.9744 98.9294 91.9712 98.6735 91.9809 98.4207C91.9842 98.2831 92.0848 98.1968 92.2018 98.168Z" fill="#0D070B"/>
<path d="M90.0578 91.1992C90.0967 91.4296 90.009 91.6087 89.7719 91.6599C89.5316 91.7143 89.3399 91.5831 89.3139 91.356C89.1645 89.9835 88.7358 88.6558 88.6708 87.2737C88.6578 86.9857 88.5409 86.5442 88.9176 86.4802C89.3594 86.4066 89.3659 86.8865 89.4504 87.1873C89.7297 88.1759 89.7524 89.206 89.9148 90.2138C89.9668 90.5402 90.009 90.8697 90.0545 91.196L90.0578 91.1992Z" fill="#0D070B"/>
<path d="M81.5737 94.2715C81.8238 94.3003 81.879 94.5114 81.9342 94.7034C82.1681 95.5352 82.4247 96.367 82.5546 97.2245C82.6326 97.7267 82.6683 98.2354 82.8372 98.7217C82.9314 99.0001 82.8242 99.2496 82.5189 99.3168C82.2103 99.384 82.0252 99.1888 81.9862 98.9041C81.8108 97.618 81.4113 96.3702 81.3528 95.0681C81.3431 94.8666 81.3398 94.6618 81.3528 94.4602C81.3593 94.3547 81.4502 94.2875 81.5737 94.2715Z" fill="#0D070B"/>
<path d="M87.7354 74.992C87.7386 74.7553 87.7548 74.4929 88.0602 74.4738C88.3395 74.4546 88.4532 74.6913 88.5019 74.9217C88.6708 75.7439 88.8202 76.5693 88.9826 77.3915C89.0703 77.8394 89.1743 78.2873 89.2587 78.7352C89.3075 78.9848 89.2425 79.2055 88.9664 79.2791C88.6448 79.3623 88.4694 79.1799 88.4175 78.8952C88.1868 77.6187 87.966 76.3422 87.7419 75.0656C87.7386 75.04 87.7419 75.0144 87.7386 74.9888L87.7354 74.992Z" fill="#0D070B"/>
<path d="M80.9404 86.439C80.9177 86.7269 80.8268 86.9253 80.5474 86.9733C80.2778 87.0181 80.1024 86.8869 79.992 86.6565C79.9693 86.6117 79.9563 86.5605 79.953 86.5094C79.8751 85.3896 79.5892 84.2986 79.4528 83.1885C79.4431 83.1117 79.4366 83.0349 79.4398 82.9613C79.4463 82.7886 79.4073 82.5774 79.6379 82.5166C79.9043 82.4462 80.0147 82.6414 80.0732 82.8429C80.1804 83.2109 80.2843 83.5788 80.3525 83.9531C80.476 84.6314 80.6319 85.2968 80.8268 85.9591C80.8787 86.1286 80.908 86.3046 80.9404 86.4422V86.439Z" fill="#0D070B"/>
<path d="M37.8114 82.7285C37.9316 82.7733 38.0842 82.8117 38.2239 82.8789C39.1009 83.3108 39.9747 83.7459 40.8517 84.1842C40.9426 84.229 41.0303 84.2834 41.1148 84.3442C41.2999 84.4753 41.4038 84.6481 41.2967 84.8657C41.17 85.1216 40.9491 85.1472 40.7087 85.032C39.6563 84.5425 38.6559 83.9603 37.6652 83.3684C37.5126 83.2756 37.3859 83.1284 37.4768 82.9205C37.5353 82.7893 37.6522 82.7445 37.8146 82.7285H37.8114Z" fill="#0D070B"/>
<path d="M62.0591 78.1878C62.0883 78.0118 62.1825 77.9126 62.3644 77.8966C62.5885 77.8775 62.7639 77.9926 62.9393 78.0918C63.7871 78.5781 64.6316 79.074 65.4794 79.5667C65.5671 79.6179 65.6613 79.6659 65.7327 79.7363C65.8756 79.8738 65.9146 80.0434 65.8074 80.2225C65.7002 80.3985 65.5281 80.4369 65.3365 80.3953C65.2877 80.3857 65.2325 80.3729 65.1903 80.3473C64.2256 79.7522 63.2609 79.1604 62.2994 78.5621C62.163 78.4789 62.0753 78.351 62.0591 78.1942V78.1878Z" fill="#0D070B"/>
<path d="M29.7011 92.1924C29.7011 91.9812 29.6914 91.7509 29.7011 91.5237C29.7141 91.3029 29.8083 91.1206 30.0649 91.1014C30.3085 91.0822 30.4579 91.2198 30.5229 91.4373C30.5878 91.6581 30.6398 91.882 30.682 92.106C31.0004 93.8912 31.1595 95.6988 31.4324 97.4936C31.8156 100.018 32.1827 102.545 32.4685 105.082C32.5497 105.818 32.6309 106.554 32.7089 107.29C32.7446 107.623 32.6861 107.914 32.2964 108C31.9586 108.074 31.7052 107.863 31.6402 107.412C31.2407 104.606 30.812 101.803 30.5131 98.9845C30.315 97.1065 30.0552 95.2349 29.8278 93.3569C29.7823 92.9762 29.7433 92.5955 29.7011 92.1956V92.1924Z" fill="#0D070B"/>
<path d="M56.878 92.4579C56.878 92.7267 56.8845 92.8803 56.878 93.0338C56.865 93.261 56.7578 93.4369 56.5207 93.4721C56.2868 93.5041 56.1341 93.3633 56.0399 93.1618C55.8093 92.6691 55.7281 92.1348 55.6404 91.6069C55.4228 90.324 55.2279 89.0347 55.0395 87.7454C54.994 87.4446 55.0005 87.1343 55.007 86.8303C55.0103 86.6352 55.1305 86.488 55.3221 86.4368C55.5625 86.376 55.7216 86.5072 55.8158 86.7088C55.8905 86.8687 55.9652 87.0383 55.9945 87.2111C56.2868 88.8459 56.5726 90.4808 56.8585 92.1156C56.8845 92.266 56.878 92.4227 56.8812 92.4579H56.878Z" fill="#0D070B"/>
</g>
<defs>
<clipPath id="clip0_58_11283">
<rect width="137" height="127" fill="white"/>
</clipPath>
</defs>
</svg>
