<svg width="19" height="18" viewBox="0 0 19 18" fill="none" xmlns="http://www.w3.org/2000/svg">
<path fill-rule="evenodd" clip-rule="evenodd" d="M14.707 7.207L9.707 12.207C9.513 12.401 9.256 12.5 9 12.5C8.769 12.5 8.537 12.42 8.349 12.259L4.849 9.259C4.43 8.899 4.381 8.269 4.741 7.85C5.101 7.429 5.732 7.381 6.151 7.741L8.948 10.138L13.293 5.793C13.684 5.402 14.316 5.402 14.707 5.793C15.098 6.184 15.098 6.816 14.707 7.207ZM9.5 0C4.529 0 0.5 4.029 0.5 9C0.5 13.971 4.529 18 9.5 18C14.471 18 18.5 13.971 18.5 9C18.5 4.029 14.471 0 9.5 0Z" fill="#07CBAD"/>
</svg>
