<svg width="460" height="236" viewBox="0 0 460 236" fill="none" xmlns="http://www.w3.org/2000/svg">
<g clip-path="url(#clip0_650_67493)">
<path fill-rule="evenodd" clip-rule="evenodd" d="M459.501 103.508C458.825 86.5955 458.197 69.6829 457.568 52.765C457.392 48.0247 457.216 43.284 457.039 38.5428C457.011 37.8287 456.997 37.1132 456.983 36.3976C456.928 33.6635 456.874 30.9288 456.074 28.2706C452.403 16.028 444.173 8.05814 432.394 3.56403C426.117 1.17307 419.518 0.497849 412.83 0.309672C405.871 0.117859 398.91 0.153193 391.947 0.188535C385.249 0.222537 378.549 0.256545 371.849 0.0882871C363.643 -0.114909 355.43 0.210729 347.221 0.5362C345.145 0.618524 343.069 0.700837 340.993 0.77458C334.541 0.999155 328.087 1.00625 321.632 1.01335C313.452 1.02235 305.272 1.03135 297.095 1.48301C292.381 1.74336 287.66 1.71212 282.939 1.68087C279.231 1.65633 275.523 1.63178 271.819 1.74867C259.715 2.11398 247.611 2.1617 235.503 2.20944C231.467 2.22535 227.432 2.24126 223.395 2.26893C214.086 2.33137 204.78 2.16135 195.474 1.99132C188.282 1.85992 181.09 1.72852 173.896 1.7044C167.104 1.68396 160.313 1.49382 153.52 1.30365C145.593 1.0817 137.664 0.85972 129.732 0.907411C124.863 0.940618 119.983 0.818857 115.103 0.61961L114.662 0.601734C104.704 0.197965 94.7365 -0.206235 84.7686 0.0882871C78.0253 0.287533 71.2819 0.309672 64.5497 0.243256L63.4821 0.232002C55.321 0.14538 47.1705 0.0588713 39.0403 0.907411C26.7959 2.19144 16.6919 7.41612 9.22767 17.312C5.56764 22.1603 3.40489 27.6064 3.17198 33.7277C2.70615 45.8264 2.26251 57.9361 1.81887 70.0458C1.72962 72.4473 1.63786 74.8476 1.54613 77.2474L1.54612 77.2475L1.54612 77.2477L1.54611 77.2478L1.54611 77.2479L1.54611 77.248L1.5461 77.2481L1.5461 77.2482L1.54609 77.2483L1.54609 77.2485L1.54608 77.2486L1.54608 77.2487L1.54608 77.2488L1.54607 77.2489L1.54607 77.249L1.54606 77.2491L1.54606 77.2493L1.54604 77.2497L1.54603 77.25C1.36422 82.0062 1.18247 86.7607 1.02032 91.5202C0.921021 94.4128 0.809568 97.3053 0.698106 100.198L0.698103 100.198C0.411177 107.645 0.124189 115.093 0.0443099 122.547C-0.0432333 130.921 0.00823984 139.3 0.0597076 147.677C0.0930069 153.097 0.126304 158.517 0.121947 163.935C0.121947 170.134 0.365949 176.322 0.898318 182.487C1.67469 191.486 4.03708 200.032 8.60658 207.902C9.5819 209.575 10.6866 211.167 11.8309 212.816C12.0269 213.099 12.224 213.383 12.4219 213.669C10.7361 214.4 9.22767 215.141 7.90784 216.204C3.24961 219.945 3.32725 224.285 8.15184 227.76C10.0373 229.111 12.1335 230.052 14.3074 230.838C20.7956 233.162 27.55 234.114 34.3821 234.335C44.3086 234.656 54.2461 234.867 64.1837 234.889C73.9746 234.912 83.7658 234.936 93.5573 234.961L93.5668 234.961L93.5767 234.961L93.5866 234.961L93.6005 234.961H93.6026H93.6047H93.6068H93.6088H93.6109H93.6129H93.615H93.6171H93.6191H93.6212H93.6232H93.6253H93.6274H93.6294H93.6315H93.6335C140.683 235.079 187.738 235.197 234.786 235.132C250.934 235.109 267.084 235.12 283.233 235.13H283.234H283.234H283.235H283.235H283.235H283.236H283.236H283.236H283.237H283.237H283.238H283.238H283.238H283.239H283.239H283.239H283.24C328.392 235.159 373.548 235.189 418.697 234.479C426.616 234.358 434.457 233.738 442.055 231.347C445.282 230.328 448.41 229.066 450.95 226.753C454.044 223.941 454.133 220.499 451.282 217.444C450.355 216.447 449.227 215.701 447.973 214.871C447.667 214.669 447.354 214.462 447.035 214.245C454.066 205.378 457.682 195.327 458.913 184.413C459.601 178.347 459.845 172.248 459.878 166.138C459.897 162.044 459.892 157.95 459.886 153.855C459.879 148.397 459.872 142.938 459.922 137.48C460.022 126.156 459.922 114.843 459.457 103.53L459.501 103.508ZM451.327 195.958C450.395 198.914 449.253 201.781 447.467 204.36C443.607 209.928 438.273 212.928 431.574 213.868C425.308 214.754 419.031 214.732 412.732 214.71H412.73C365.715 214.544 318.7 214.389 271.686 214.256C262.406 214.226 253.131 214.236 243.855 214.246H243.854H243.853H243.852H243.85H243.849H243.848H243.847H243.845H243.844H243.843H243.842H243.84H243.839H243.838H243.837H243.836H243.834C239.192 214.251 234.55 214.256 229.906 214.256V214.079L50.7968 214.676C49.4756 214.681 48.1544 214.697 46.8333 214.713C42.2102 214.769 37.5885 214.824 32.9735 214.411C30.6888 214.212 28.393 213.902 26.1415 213.437C18.9434 211.953 13.8304 207.714 10.7582 201.161C7.95221 195.184 6.43274 188.885 6.54365 182.188C6.67333 174.754 6.69047 167.321 6.70762 159.887C6.71393 157.148 6.72025 154.409 6.73219 151.67C6.82092 129.997 6.89856 108.334 6.9762 86.6608C7.02056 74.4514 7.05383 62.2531 7.06492 50.0437C7.06492 45.9536 6.99458 41.8547 6.92436 37.7627L6.92436 37.7626L6.89856 36.2515C6.77656 29.2889 9.17222 23.2894 13.7972 18.1422C19.021 12.3198 25.7533 9.12078 33.2286 7.36077C37.9867 6.24278 42.8224 5.96605 47.7246 6.07674C55.7346 6.24855 63.7539 6.22659 71.7739 6.20462H71.774C72.5379 6.20252 73.3019 6.20043 74.0658 6.1985C81.4986 6.18496 88.9325 6.19834 96.3668 6.21173C113.238 6.2421 130.111 6.27248 146.978 5.98819C160.72 5.75574 174.484 6.0214 188.226 6.43096C214.478 7.21687 240.742 7.09511 266.983 6.60807C289.598 6.18744 312.212 6.01033 334.827 6.20957C351.081 6.34978 367.342 6.25648 383.604 6.16317C389.168 6.13124 394.733 6.09932 400.297 6.07674C402.507 6.06689 404.718 6.04828 406.927 6.02968C409.684 6.00647 412.44 5.98327 415.192 5.97712C422.778 5.96605 430.165 7.43826 436.975 11.0468C445.537 15.5741 451.183 22.3153 452.924 32.0009C453.079 32.8643 453.212 33.7498 453.19 34.6243C453.014 42.1477 453.055 49.6711 453.096 57.1945C453.106 59.1353 453.117 61.0761 453.124 63.0169C453.193 86.2322 453.219 109.448 453.245 132.663C453.26 146.596 453.276 160.529 453.301 174.462C453.301 175.941 453.366 177.423 453.43 178.905V178.905V178.906V178.906V178.907V178.907V178.908V178.909V178.909V178.91V178.91V178.911V178.911V178.912V178.912V178.913V178.914V178.914C453.513 180.789 453.595 182.664 453.545 184.535C453.445 188.431 452.491 192.228 451.316 195.936L451.327 195.958ZM442.631 124.23C442.576 97.6968 442.509 71.1638 442.432 44.6198C442.432 42.8487 442.166 41.0998 441.711 39.384C439.814 32.2887 433.47 27.5732 425.03 27.5732C419.803 27.5732 414.576 27.6245 409.351 27.6757H409.351H409.35H409.35H409.35H409.349H409.349H409.349H409.349H409.348H409.348H409.348H409.348H409.347H409.347H409.347H409.346H409.346C405.171 27.7167 400.997 27.7577 396.826 27.7724C385.846 27.8119 374.868 27.8374 363.89 27.8628L363.888 27.8628L363.885 27.8628L363.883 27.8629L363.881 27.8629L363.879 27.8629L363.877 27.8629L363.874 27.8629L363.872 27.8629L363.87 27.8629L363.868 27.8629L363.866 27.8629L363.863 27.8629L363.861 27.8629L363.859 27.8629L363.857 27.8629L363.855 27.8629L363.852 27.8629H363.852C340.953 27.9161 318.056 27.9693 295.154 28.1488C288.856 28.1975 282.557 28.2567 276.258 28.3159H276.258H276.257H276.257H276.257H276.257H276.256H276.256H276.256H276.255H276.255H276.255H276.255H276.254H276.254H276.254H276.254H276.253C258.249 28.4851 240.243 28.6543 222.242 28.5805C208.937 28.5251 195.638 28.4134 182.337 28.3016L182.334 28.3016L182.332 28.3016L182.329 28.3015L182.326 28.3015L182.324 28.3015L182.321 28.3015L182.318 28.3014L182.316 28.3014L182.313 28.3014L182.31 28.3014L182.307 28.3013L182.305 28.3013L182.303 28.3013L182.301 28.3013L182.299 28.3013L182.297 28.3013L182.295 28.3012C176.982 28.2566 171.668 28.2119 166.354 28.1709C122.534 27.8388 78.7018 27.6949 34.8812 27.5842C24.5333 27.5621 17.679 34.5911 17.6679 44.498C17.6595 50.1844 17.6289 55.8723 17.5983 61.5607V61.5608V61.561V61.5612V61.5613V61.5615V61.5617V61.5619V61.562V61.5622V61.5624V61.5625V61.5627V61.5629V61.5631V61.5632V61.5634V61.5635V61.5636V61.5636V61.5636V61.5637V61.5637V61.5638V61.5638V61.5639V61.5639V61.564V61.564V61.5641V61.5641V61.5642V61.5642V61.5642V61.5643C17.548 70.912 17.4977 80.2607 17.5459 89.6052C17.5857 97.2109 17.5297 104.817 17.4738 112.422C17.4049 121.797 17.3359 131.171 17.4461 140.546C17.5661 150.382 17.4609 160.224 17.3558 170.068L17.3558 170.069C17.3248 172.965 17.2939 175.861 17.2687 178.757C17.2465 181.148 17.4128 183.494 17.6236 185.874C18.0783 190.988 22.2263 196.722 28.2599 197.552L28.5038 197.585C29.7411 197.752 30.9705 197.918 32.2194 197.918C36.077 197.923 39.932 197.962 43.7869 198.001L43.7922 198.001C47.6493 198.039 51.5064 198.078 55.3663 198.084C99.0143 198.133 142.668 198.127 186.32 198.121H186.321H186.322H186.323H186.324H186.325H186.326H186.327H186.328H186.329H186.33H186.331H186.332H186.333H186.334H186.335H186.336H186.337C200.879 198.119 215.42 198.117 229.961 198.117V198.272H238.213C254.91 198.247 271.609 198.235 288.307 198.223C330.606 198.193 372.908 198.164 415.203 197.918C416.694 197.911 418.185 197.919 419.676 197.927H419.676C422.976 197.945 426.274 197.963 429.566 197.818C436.631 197.497 441.167 193.147 442.399 186.273C442.817 183.932 442.768 181.611 442.719 179.289C442.703 178.536 442.687 177.784 442.687 177.03C442.684 172.626 442.682 168.223 442.68 163.819V163.818V163.816V163.814V163.813V163.811V163.81V163.808V163.807V163.805V163.804V163.802V163.8V163.799V163.797V163.796V163.794V163.793C442.674 150.604 442.667 137.415 442.643 124.219L442.631 124.23ZM439.936 56.3864C439.923 60.2499 439.91 64.1135 439.897 67.9771L439.897 68.0269C439.846 83.5179 439.794 99.0089 439.714 114.5C439.672 122.62 439.683 130.739 439.694 138.857V138.857V138.858V138.858V138.858V138.858V138.859V138.859V138.859V138.859V138.859V138.86V138.86V138.86V138.86V138.861V138.861V138.861C439.711 152.144 439.728 165.426 439.515 178.712C439.505 179.284 439.499 179.855 439.493 180.425V180.427C439.479 181.714 439.465 183 439.404 184.28C439.182 189.095 436.554 192.35 431.884 193.711C428.612 194.663 425.23 194.896 421.88 194.929C414.418 195.003 406.956 194.952 399.494 194.901L398.36 194.894L396.936 194.884C396.389 194.881 395.842 194.877 395.295 194.874C379.432 194.801 363.569 194.718 347.705 194.636C310.698 194.445 273.69 194.254 236.682 194.176C216.238 194.132 195.794 194.265 175.346 194.398H175.344H175.342H175.34H175.338H175.335H175.333H175.331H175.329H175.327H175.325H175.322H175.32H175.318H175.316H175.314H175.312H175.309C165.076 194.464 154.841 194.53 144.605 194.575C135.769 194.611 126.933 194.639 118.096 194.666C97.4816 194.731 76.8649 194.795 56.2536 194.973C53.7089 194.997 51.1643 194.961 48.6196 194.925C45.1419 194.876 41.6641 194.827 38.1863 194.929C35.2694 195.006 32.3303 194.652 29.4577 194.077C23.7458 192.936 20.7291 189.35 20.5738 183.528C20.4518 179.022 20.4185 174.506 20.4185 170.001C20.4052 159.815 20.4025 149.627 20.3999 139.438V139.433V139.433V139.432V139.432V139.432V139.432V139.431V139.431V139.431V139.431V139.43V139.43V139.43V139.429V139.429V139.429V139.429V139.428C20.3959 124.144 20.3919 108.86 20.352 93.579C20.3448 90.4564 20.3443 87.3333 20.3439 84.2099C20.3423 72.9174 20.3407 61.6211 20.0192 50.3315C19.9305 47.2321 20.3852 44.1659 20.8622 41.1219C21.694 35.7312 25.9973 31.0932 33.2065 31.0821C55.3594 31.0493 77.5123 31.1528 99.6652 31.2563C114.856 31.3273 130.046 31.3982 145.237 31.4253C158.28 31.4474 171.32 31.4668 184.36 31.4861C197.401 31.5055 210.441 31.5249 223.484 31.547H230.128C280.673 31.5929 331.218 31.38 381.756 31.167C392.155 31.1232 402.554 31.0794 412.952 31.0378C418.009 31.0157 423.056 31.0046 428.113 31.0821C434.114 31.1817 438.661 35.8862 439.448 42.3617C439.968 46.6561 439.954 50.9506 439.94 55.2537C439.938 55.6312 439.937 56.0088 439.936 56.3864ZM311.07 24.1763C310.804 24.1784 310.537 24.1805 310.271 24.1639L310.26 24.1528C307.665 23.9868 307.421 23.71 307.421 21.1641C307.426 20.6465 307.42 20.1266 307.413 19.6055V19.6047V19.6039V19.6031V19.6023V19.6015V19.6007V19.5999V19.5991V19.5982V19.5974V19.5966V19.5957V19.5949V19.594V19.5932V19.5923C307.405 18.9699 307.398 18.3457 307.41 17.7216C307.454 15.1646 308.719 13.8695 311.314 13.6592C311.669 13.637 312.024 13.637 312.379 13.637L344.554 13.7699C344.62 13.7699 344.687 13.7697 344.753 13.7695C345.221 13.7683 345.695 13.7671 346.151 13.8252C348.203 14.0909 349.345 15.2753 349.345 17.3674C349.345 17.9242 349.331 18.481 349.317 19.0383V19.0398V19.0413V19.0429V19.0444V19.0459V19.0474V19.0489V19.0504V19.0519V19.0534V19.0549V19.0565V19.058V19.0595V19.061V19.0625V19.0632V19.064V19.0647V19.0655V19.0662V19.067V19.0677V19.0685V19.0692V19.07V19.0707V19.0715V19.0722V19.073V19.0738V19.0745C349.291 20.0895 349.266 21.106 349.323 22.1271C349.411 23.6547 348.657 24.2303 346.96 24.2303H328.616V24.175H311.336C311.274 24.175 311.212 24.1753 311.15 24.1757L311.07 24.1763ZM364.861 24.662C365.383 24.7173 365.926 24.7173 366.458 24.7173H383.738V24.7727H402.083C403.902 24.7727 404.401 24.2303 404.401 22.3707C404.401 21.9891 404.385 21.6075 404.37 21.2266V21.2264V21.2261V21.2258C404.346 20.6346 404.323 20.045 404.356 19.4594C404.6 15.4192 403.691 14.3455 399.643 14.3233C391.98 14.268 384.322 14.2409 376.663 14.2137L376.66 14.2137L376.658 14.2137L376.656 14.2137L376.654 14.2137L376.651 14.2137L376.649 14.2137L376.647 14.2137L376.644 14.2137L376.642 14.2137L376.64 14.2136L376.638 14.2136L376.635 14.2136L376.633 14.2136L376.631 14.2136L376.628 14.2136C373.579 14.2028 370.529 14.192 367.479 14.1794C367.035 14.1794 366.592 14.1794 366.148 14.2237C363.719 14.5004 362.477 15.8619 362.61 18.2861C362.688 19.5259 362.665 20.7545 362.61 21.9832C362.521 24.1971 362.721 24.4295 364.861 24.662ZM67.1451 24.8684C65.315 24.8775 63.485 24.8865 61.655 24.8391H61.6661C60.0246 24.7948 60.0025 24.7062 60.5237 23.0348C60.7082 22.4415 60.6696 21.8524 60.6309 21.2623C60.6068 20.8946 60.5827 20.5265 60.6125 20.1568C60.7566 18.1754 61.3001 17.4338 63.2743 17.146C67.0452 16.6036 70.8606 16.7917 74.6537 17.0131C76.1732 17.1017 76.9163 18.1975 77.2712 19.6033C77.3586 19.9525 77.4056 20.3086 77.4525 20.6641C77.5722 21.571 77.6913 22.4738 78.4801 23.2451C79.1123 23.865 78.4024 24.6177 77.0272 24.6398C75.3191 24.6546 73.6111 24.6497 71.9031 24.6448C71.0491 24.6423 70.1951 24.6398 69.3411 24.6398V24.8612C68.6091 24.8612 67.8771 24.8648 67.1451 24.8684ZM65.4925 19.5701C64.9712 19.5812 64.4389 19.6587 63.9176 19.7472V19.7251C63.4739 19.8026 63.0303 19.9686 63.0303 20.5221C63.0403 21.1025 63.4765 21.0949 63.8633 21.088C63.9043 21.0873 63.9448 21.0866 63.9841 21.0866H68.7644V21.2084C69.238 21.2084 69.7104 21.2108 70.1824 21.2133H70.1825H70.1826H70.1828H70.1829H70.1831H70.1832H70.1833H70.1835H70.1836H70.1837H70.1839H70.184H70.1842H70.1843C71.1264 21.2182 72.0668 21.2231 73.0122 21.2084C73.1078 21.2065 73.2113 21.2128 73.3167 21.2192C73.8227 21.2501 74.3722 21.2836 74.2988 20.4225C74.2211 19.5701 73.5668 19.5701 72.9235 19.5701C72.1051 19.5701 71.2855 19.5689 70.4655 19.5677H70.4643H70.4631H70.4619H70.4607H70.4595H70.4583H70.457H70.4558H70.4546H70.4534H70.4522H70.451H70.4498H70.4486H70.4479C68.7955 19.5652 67.1416 19.5627 65.4925 19.5701ZM115.025 25.149C117.676 25.304 120.326 25.1933 123.41 24.8612H130.652C131.495 24.8612 132.327 24.2967 131.761 23.6436C131.024 22.8074 130.868 21.8683 130.711 20.9286C130.644 20.5248 130.577 20.121 130.464 19.7251C129.965 17.9983 129.343 17.4116 127.48 17.2677C123.953 16.991 120.415 16.9135 116.899 17.3563C114.537 17.6552 113.894 18.3857 113.838 20.7988C113.831 21.0608 113.838 21.3265 113.846 21.5921C113.86 22.1234 113.875 22.6548 113.772 23.1566L113.745 23.2816C113.382 24.9861 113.368 25.0517 115.036 25.149H115.025ZM118.547 19.8797L118.547 19.8797C120.106 19.7159 121.664 19.5523 123.243 19.7583C124.211 19.8817 125.199 19.8809 126.187 19.8802L126.415 19.8801C127.17 19.8801 127.613 20.1568 127.591 20.9317C127.572 21.6454 127.064 21.6028 126.618 21.5653L126.618 21.5653L126.618 21.5653L126.618 21.5653L126.618 21.5653L126.618 21.5653L126.618 21.5653L126.618 21.5653L126.618 21.5653C126.552 21.5598 126.488 21.5544 126.427 21.5515C125.357 21.512 124.288 21.4442 123.218 21.3765C122.79 21.3494 122.362 21.3222 121.935 21.2969V21.3523H117.443C117.364 21.3523 117.279 21.3575 117.193 21.3629C116.75 21.3904 116.269 21.4203 116.278 20.7435C116.278 20.0884 116.83 20.0481 117.314 20.0127C117.361 20.0092 117.408 20.0058 117.454 20.0018L117.443 19.9908C117.811 19.957 118.179 19.9184 118.547 19.8797ZM99.3939 24.939C95.4912 25.0302 91.5916 25.1214 87.6858 25.138V25.1269C85.9556 25.1269 85.9777 24.983 86.3327 23.1898C86.429 22.7266 86.4216 22.2359 86.4142 21.7448C86.4123 21.6138 86.4103 21.4828 86.4103 21.3523C86.4325 18.1422 86.9094 17.6441 90.2145 17.2788C90.3548 17.2609 90.4952 17.2407 90.6357 17.2203C91.0172 17.1652 91.4004 17.1098 91.7894 17.1017C92.6172 17.087 93.4399 17.0919 94.2644 17.0968C94.6772 17.0992 95.0904 17.1017 95.5049 17.1017V17.0242C95.9268 17.044 96.3478 17.0608 96.768 17.0775C97.7618 17.1172 98.7517 17.1567 99.7417 17.2345C101.993 17.4116 102.415 17.8323 103.069 19.9354C103.186 20.3097 103.242 20.7032 103.298 21.0977L103.298 21.0978L103.298 21.0979L103.298 21.098L103.298 21.0981L103.298 21.0982L103.298 21.0982L103.298 21.0983L103.298 21.0984L103.298 21.0985L103.298 21.0986L103.298 21.0986L103.299 21.0987C103.423 21.9755 103.549 22.8571 104.344 23.544C104.766 23.9093 104.411 24.5292 103.834 24.7727C103.679 24.8502 103.49 24.8502 103.313 24.8502C102.007 24.8779 100.701 24.9084 99.3958 24.9389L99.3939 24.939ZM90.9576 19.9165C90.5251 19.9577 90.0925 19.9988 89.66 20.0351H89.6489C89.172 20.0683 88.7283 20.3229 88.7838 20.821C88.8392 21.3412 89.3383 21.3634 89.8152 21.3634C90.873 21.356 91.9357 21.3584 92.9967 21.3609L92.998 21.3609C93.5274 21.3621 94.0565 21.3634 94.5844 21.3634V21.2969C94.9784 21.3201 95.3716 21.344 95.7643 21.3678L95.7645 21.3678C96.8751 21.4353 97.9812 21.5025 99.0873 21.5515C99.1267 21.5533 99.1669 21.5557 99.2077 21.5581C99.673 21.5853 100.206 21.6166 100.185 20.8431C100.163 20.19 99.7971 19.9354 99.1761 19.9022C98.6096 19.8785 98.0432 19.8407 97.4768 19.8028C96.4572 19.7347 95.4376 19.6666 94.418 19.6808C93.2646 19.6969 92.1111 19.8067 90.9577 19.9165L90.9576 19.9165ZM435.217 49.1319L435.217 49.1261C435.236 47.7171 435.255 46.3097 435.178 44.9076C434.957 41.0334 431.851 37.3805 428.091 36.6057C426.361 36.2515 424.575 36.019 422.812 36.019L422.773 36.0189C383.124 35.9304 343.487 35.8419 303.839 35.853C299.943 35.853 296.047 35.8474 292.148 35.8418H292.147H292.147H292.146H292.145H292.145H292.144H292.144H292.143H292.142H292.142H292.141C271.446 35.8123 250.667 35.7826 229.362 36.5835C218.416 35.9969 206.705 35.9526 195.005 35.9083L195.002 35.9083C155.722 35.7557 116.447 35.8369 77.1695 35.9181C65.1664 35.9429 53.1629 35.9677 41.1588 35.9858C38.497 35.9858 35.8573 36.0079 33.2066 36.3954C28.2822 37.1149 24.8661 40.8009 24.7441 45.7489C24.7316 46.2978 24.7508 46.8467 24.77 47.3936V47.3937V47.3937V47.3938V47.3939V47.3939V47.394V47.394V47.3941V47.3941V47.3942V47.3943C24.7848 47.8177 24.7996 48.2399 24.7996 48.6601C24.7837 54.5741 24.7661 60.4881 24.7484 66.402C24.7043 81.1875 24.6601 95.973 24.6443 110.758C24.6304 125.462 24.6382 140.161 24.646 154.862V154.863V154.864V154.865V154.866V154.868V154.869V154.87V154.871V154.872V154.873V154.874C24.6507 163.698 24.6554 172.522 24.6554 181.347C24.6554 184.701 25.9309 186.671 29.1362 187.734C31.5873 188.542 34.1493 188.985 36.7224 188.841C41.0971 188.585 45.4652 188.638 49.8369 188.691C51.1399 188.707 52.4432 188.723 53.7471 188.73C107.073 189.051 160.387 189.107 213.713 188.819C215.176 188.81 216.641 188.731 218.106 188.652H218.106H218.106H218.106H218.106H218.106H218.106H218.106H218.107H218.107H218.107H218.107C220.282 188.535 222.455 188.418 224.615 188.531C229.698 188.798 234.781 188.781 239.864 188.764C241.957 188.757 244.05 188.75 246.143 188.763C292.548 189.107 338.942 189.029 385.346 188.841C389.099 188.825 392.851 188.773 396.602 188.721C405.623 188.597 414.642 188.473 423.666 188.841C426.062 188.94 428.446 188.509 430.731 187.778C434.191 186.671 435.5 184.668 435.4 181.015C435.356 179.598 435.345 178.181 435.356 176.764C435.371 172.09 435.394 167.415 435.417 162.74V162.737V162.733V162.73V162.727V162.723V162.72V162.717V162.713V162.71V162.707V162.703C435.464 153.328 435.511 143.951 435.489 134.579C435.459 116.019 435.39 97.4583 435.321 78.8945L435.321 78.8773L435.321 78.7234C435.287 69.4781 435.252 60.232 435.223 50.9846L435.201 51.0068C435.201 50.3817 435.209 49.7567 435.217 49.1319ZM431.867 125.224V125.227L431.862 130.174C431.856 139.149 431.867 148.124 431.878 157.101V157.105V157.108V157.112V157.116V157.119V157.123V157.126V157.13V157.134V157.137V157.141C431.887 164.337 431.895 171.535 431.895 178.735C431.895 183.638 430.176 185.133 425.163 184.668C424.542 184.612 423.921 184.601 423.3 184.635C415.476 185.165 407.647 185.089 399.82 185.012H399.819C396.207 184.977 392.595 184.942 388.984 184.967C378.852 185.032 368.725 185.013 358.596 184.994C354.977 184.987 351.357 184.981 347.737 184.978C347.567 184.978 347.396 184.984 347.225 184.99C346.11 185.029 345.022 185.068 344.676 183.417C344.52 182.664 343.578 182.642 342.857 182.631C340.897 182.612 338.939 182.593 336.981 182.573L336.962 182.573H336.961H336.959H336.958H336.957H336.956H336.954H336.953H336.952H336.95H336.949C333.067 182.534 329.186 182.494 325.3 182.465C324.202 182.465 323.026 182.565 322.76 183.871C322.511 185.079 321.768 185.078 320.868 185.077L320.797 185.077C318.787 185.086 316.778 185.109 314.768 185.131C311.898 185.163 309.027 185.195 306.157 185.188C286.295 185.144 266.445 185.431 246.584 185.719H246.583H246.581H246.58H246.579H246.577H246.576H246.574H246.573H246.571H246.57H246.568L246.542 185.719C240.697 185.808 234.852 185.841 229.007 185.797C200.316 185.563 171.618 185.377 142.924 185.19C132.152 185.12 121.381 185.05 110.611 184.978C110.481 184.978 110.349 184.982 110.218 184.986C109.31 185.015 108.423 185.044 108.171 183.66C108.004 182.731 107.062 182.642 106.23 182.631C103.302 182.603 100.377 182.573 97.4513 182.542C94.526 182.512 91.6008 182.482 88.6728 182.454C87.6746 182.454 86.5655 182.487 86.2106 183.594C85.8113 184.834 84.9794 184.867 83.9591 184.867C79.3262 184.878 74.6934 184.894 70.061 184.91L70.022 184.91H70.0179H70.0139H70.0099H70.0059H70.0019H69.9979H69.9939H69.9899H69.9859H69.9819H69.9779C60.7089 184.942 51.4416 184.974 42.1792 184.967C41.1186 184.967 40.0581 184.883 38.9964 184.798L38.9961 184.798C37.149 184.652 35.2987 184.505 33.4395 184.801C33.2845 184.829 33.116 184.785 32.9456 184.741C32.8477 184.716 32.7491 184.691 32.652 184.679C29.1694 184.181 28.1934 183.173 28.1491 179.664C28.0908 175.025 28.092 170.377 28.0933 165.735V165.735V165.735C28.0934 165.072 28.0936 164.409 28.0936 163.747V113.072H27.8496V48.328C27.8496 48.2394 27.8484 48.1509 27.8471 48.0623V48.0622C27.8447 47.8852 27.8422 47.7081 27.8496 47.531C28.0271 43.048 29.48 41.2326 33.8277 40.0261C33.925 40.0002 34.0242 39.9676 34.1242 39.9349C34.3661 39.8555 34.6126 39.7747 34.848 39.7826C45.0906 40.162 55.3432 40.1314 65.5923 40.1008H65.5924H65.5925H65.5926H65.5927H65.5928H65.5929H65.593H65.5931H65.5932H65.5932H65.5933H65.5941H65.5949H65.5957H65.5964H65.5972H65.598H65.5988H65.5996H65.6003H65.6011H65.6019C70.5984 40.0858 75.5941 40.0709 80.5874 40.1036C80.8283 40.1051 81.0692 40.107 81.3101 40.1088H81.3105C82.7553 40.1196 84.2001 40.1304 85.6449 40.0925C86.6875 40.0593 87.5193 40.0925 87.7078 41.4429C87.8188 42.251 88.5729 42.4502 89.3493 42.4502L106.917 42.3838L107.024 42.3841C107.633 42.3865 108.41 42.3895 108.515 41.7418C108.765 40.0381 109.846 40.0754 110.97 40.1141H110.97H110.97H110.97H110.97H110.971H110.971H110.971L110.971 40.1141C111.139 40.1199 111.308 40.1257 111.476 40.1257C115.647 40.1257 119.817 40.1232 123.987 40.1208H123.989H123.99H123.991H123.992H123.994H123.995H123.996H123.997H123.999H124H124.001C132.336 40.1159 140.669 40.1109 148.997 40.1257C169.493 40.1589 189.978 40.0925 210.474 39.6165C224.76 39.2955 239.023 39.4726 253.308 39.7161C275.834 40.1036 298.371 40.1478 320.908 40.1257H322.771C323.503 40.1257 324.191 40.1257 324.301 41.133C324.423 42.2842 325.277 42.4502 326.253 42.4392C332.019 42.406 337.784 42.3949 343.549 42.3838H343.552L343.555 42.3838C344.409 42.3838 345.23 42.2842 345.385 41.2769C345.575 40.0868 346.358 40.0992 347.216 40.1127L347.217 40.1127C347.261 40.1134 347.305 40.1141 347.349 40.1146C349.123 40.1257 350.897 40.1146 352.67 40.1036L352.672 40.1036C358.205 40.0983 363.737 40.0962 369.269 40.094H369.269H369.27H369.271H369.271H369.272H369.272H369.273H369.274H369.274H369.275H369.276C386.984 40.0872 404.69 40.0804 422.402 39.9707C425.163 39.9486 427.625 40.1257 429.888 41.775C431.186 42.7159 431.973 43.8228 431.984 45.5164C431.997 48.4291 432.039 51.3401 432.081 54.2507C432.149 58.9394 432.216 63.6271 432.162 68.319L432.139 68.3522C431.905 87.305 431.886 106.258 431.867 125.202V125.204V125.207V125.209V125.211V125.213V125.215V125.218V125.22V125.222V125.224ZM53.4034 123.539C52.9894 123.534 52.5753 123.529 52.1612 123.543L52.1501 123.566C51.2961 123.599 50.797 123.311 50.8414 122.37C50.8636 121.957 50.8562 121.544 50.8488 121.13C50.8451 120.924 50.8414 120.717 50.8414 120.51C50.8719 117.378 50.9016 114.245 50.9314 111.111L50.9318 111.072L50.9321 111.037L50.9322 111.033L50.9322 111.03L50.9322 111.027L50.9323 111.024L50.9323 111.02L50.9323 111.017L50.9324 111.014L50.9324 111.011L50.9324 111.008L50.9325 111.004C51.0216 101.627 51.1107 92.2457 51.2185 82.864C51.2739 78.0268 53.3812 75.8461 58.1726 75.7908C66.1017 75.6942 74.0309 75.6444 81.9601 75.5946C84.9334 75.576 87.9067 75.5573 90.88 75.5362C91.1462 75.5362 91.4123 75.5362 91.6785 75.5472L91.9322 75.5604C93.7815 75.6558 94.6622 75.7013 95.092 76.1648C95.4828 76.5862 95.501 77.353 95.5357 78.8171L95.5382 78.9234C95.5825 80.9129 95.7595 80.9158 97.7697 80.9489L97.7786 80.949C97.956 80.949 98.1335 80.9441 98.311 80.9392C98.6659 80.9293 99.0208 80.9195 99.3757 80.949C100.396 81.0265 100.873 80.5837 100.84 79.5764C100.84 79.5174 100.85 79.4584 100.859 79.3993C100.864 79.3698 100.869 79.3403 100.873 79.3108L100.88 79.2706C101.516 75.6131 101.53 75.5362 105.21 75.5472C113.122 75.5789 121.034 75.6387 128.946 75.6986L128.953 75.6986H128.953H128.954H128.955H128.955H128.956H128.956H128.957H128.957H128.958H128.959C132.122 75.7225 135.286 75.7465 138.449 75.7686C139.436 75.7797 140.401 75.9568 141.322 76.2778C143.396 76.9973 144.727 78.3367 145.082 80.617C145.361 82.4248 145.37 84.2327 145.379 86.0405V86.0408L145.381 86.4283C145.452 95.693 145.495 104.958 145.537 114.222C145.548 116.536 145.559 118.85 145.57 121.164C145.581 121.695 145.57 122.226 145.548 122.758C145.525 123.289 145.215 123.532 144.705 123.532C143.995 123.543 143.285 123.543 142.575 123.543H98.1668H54.0245C53.8175 123.543 53.6105 123.541 53.4034 123.539ZM263.578 86.2069L263.576 85.8248C263.567 84.1036 263.558 82.3817 263.29 80.6502C262.924 78.2482 261.515 76.8977 259.319 76.1893C258.21 75.8351 257.068 75.7576 255.903 75.7465C252.518 75.717 249.13 75.6788 245.742 75.6405L245.734 75.6404L245.732 75.6404L245.73 75.6404L245.727 75.6404L245.725 75.6403L245.723 75.6403L245.72 75.6403L245.718 75.6403L245.716 75.6402C241.487 75.5925 237.259 75.5447 233.033 75.5141C229.307 75.4919 225.591 75.503 221.865 75.6026C219.627 75.6576 219.613 75.7563 219.308 77.8974L219.303 77.9382C219.272 78.1485 219.232 78.3587 219.192 78.5694L219.192 78.5703L219.192 78.5711L219.192 78.5719L219.192 78.5721C219.116 78.9706 219.04 79.3708 219.025 79.7757C218.992 80.7277 218.46 80.9712 217.628 80.9269C217.332 80.9122 217.036 80.9171 216.741 80.922C216.593 80.9245 216.445 80.9269 216.297 80.9269L216.26 80.9267C213.933 80.9159 213.779 80.9152 213.713 78.6909C213.621 75.7607 213.453 75.7498 210.895 75.5834C210.68 75.5694 210.448 75.5542 210.197 75.5362C209.842 75.5096 209.487 75.5114 209.132 75.5132L209.033 75.5137L208.972 75.5139L208.866 75.5141C206.162 75.5334 203.458 75.5514 200.754 75.5694L200.749 75.5694C192.641 75.6234 184.533 75.6774 176.425 75.7687C171.611 75.824 169.471 77.9825 169.415 82.7866C169.305 91.8032 169.222 100.82 169.139 109.832L169.139 109.838C169.106 113.459 169.073 117.079 169.038 120.699V122.558C169.038 123.211 169.382 123.521 170.014 123.521H172.144H216.552H261.227C261.545 123.521 261.823 123.527 262.066 123.532L262.066 123.532H262.067C262.842 123.548 263.261 123.556 263.487 123.351C263.753 123.11 263.751 122.572 263.745 121.399L263.744 121.197C263.733 118.866 263.723 116.535 263.712 114.204C263.669 104.868 263.627 95.532 263.556 86.1959L263.578 86.2069ZM290.54 123.532H289.209L289.22 123.554L289.218 123.554C287.28 123.51 287.246 123.509 287.246 121.451C287.235 109.43 287.313 97.409 287.601 85.3878C287.611 84.952 287.613 84.5162 287.615 84.0808C287.619 83.1004 287.623 82.1217 287.723 81.1483C287.989 78.392 289.365 76.8423 292.071 76.145C292.914 75.9236 293.812 75.7797 294.688 75.7797C305.236 75.669 315.783 75.5915 326.331 75.514C326.863 75.514 327.396 75.5251 327.928 75.5362C330.272 75.5952 331.599 76.7575 331.91 79.023C332.072 80.2553 332.775 80.89 334.017 80.9269H334.549C336.206 80.9343 337.156 80.093 337.4 78.4031C337.409 78.3433 337.418 78.2838 337.427 78.2244L337.428 78.2193L337.428 78.2188C337.486 77.8399 337.544 77.467 337.544 77.0858C337.544 76.0675 338.121 75.7022 339.052 75.669C339.394 75.6533 339.737 75.6307 340.08 75.6081L340.081 75.608C340.709 75.5666 341.339 75.5251 341.969 75.5251L374.677 75.7575C375.941 75.7686 377.172 75.9679 378.304 76.4881C380 77.263 381.121 78.5138 381.442 80.462C381.733 82.1912 381.742 83.9204 381.751 85.6497V85.6502L381.753 86.0076C381.824 95.4108 381.866 104.814 381.909 114.217L381.922 117.116L381.929 118.698L381.941 121.274C381.942 121.4 381.943 121.52 381.944 121.632L381.944 121.641C381.951 122.623 381.955 123.1 381.718 123.33C381.494 123.547 381.055 123.543 380.201 123.536C380.027 123.534 379.835 123.532 379.623 123.532H334.683H290.54ZM142.442 126.597H142.442C142.194 126.59 141.946 126.584 141.699 126.587L98.3329 127.052L53.6361 126.587L53.3166 126.584C51.9786 126.568 51.3614 126.56 51.083 126.864C50.8447 127.124 50.8548 127.612 50.8737 128.517C50.8783 128.737 50.8834 128.983 50.8855 129.255C50.9521 139.516 51.0186 149.766 51.1295 160.028C51.1517 162.053 51.2072 164.101 51.4623 166.105C51.9946 170.278 54.8118 172.658 59.0818 172.624C61.0561 172.614 63.028 172.581 64.9997 172.548L65.0031 172.548H65.0037H65.0043H65.0049H65.0055H65.0061H65.0067H65.0073C67.1977 172.512 69.388 172.475 71.5814 172.469C89.4046 172.447 107.239 172.447 125.062 172.469C127.319 172.469 129.573 172.512 131.826 172.554H131.827H131.828H131.829H131.83H131.83H131.831H131.832L131.835 172.554C133.743 172.59 135.651 172.625 137.562 172.635C141.776 172.658 144.627 170.101 145.037 165.983C145.055 165.808 145.073 165.633 145.092 165.457C145.264 163.793 145.438 162.121 145.448 160.448C145.478 155.51 145.495 150.573 145.511 145.637V145.637V145.636V145.636V145.635V145.634V145.634V145.633C145.531 139.872 145.55 134.111 145.592 128.347C145.592 126.986 145.259 126.388 143.828 126.565C143.373 126.623 142.908 126.61 142.442 126.597ZM261.238 126.584C261.711 126.591 262.184 126.599 262.658 126.576V126.587C263.445 126.554 263.789 126.886 263.756 127.672C263.741 128.085 263.746 128.497 263.751 128.91V128.912C263.753 129.119 263.756 129.325 263.756 129.532C263.747 132.033 263.74 134.535 263.733 137.038V137.045C263.713 144.53 263.692 152.019 263.634 159.507C263.622 161.622 263.434 163.736 263.234 165.839C262.813 170.178 260.029 172.669 255.637 172.635C253.992 172.621 252.35 172.592 250.708 172.562C248.451 172.521 246.195 172.481 243.936 172.481C225.58 172.469 207.214 172.469 188.858 172.481C186.739 172.481 184.623 172.515 182.507 172.549L182.503 172.549C180.811 172.576 179.118 172.603 177.423 172.613C172.854 172.647 170.081 170.245 169.593 165.739C169.393 163.902 169.338 162.031 169.316 160.183C169.216 149.744 169.138 139.317 169.072 128.879C169.06 126.599 169.083 126.565 171.401 126.587C182.667 126.687 193.933 126.805 205.204 126.923L205.209 126.923L205.213 126.923L205.218 126.923L205.223 126.923L205.227 126.923L205.232 126.923L205.268 126.923L205.303 126.924C209.078 126.963 212.853 127.003 216.63 127.041L260.528 126.576L260.589 126.576L260.682 126.577L260.806 126.578C260.95 126.579 261.094 126.582 261.238 126.584ZM380.211 126.565C379.84 126.613 379.461 126.602 379.08 126.592H379.08C378.836 126.585 378.591 126.579 378.348 126.588L334.716 127.052C330.985 127.013 327.255 126.974 323.525 126.934C312.442 126.816 301.364 126.698 290.285 126.599C290.151 126.597 290.022 126.596 289.899 126.594L289.619 126.59L289.618 126.59H289.618C288.346 126.571 287.745 126.562 287.467 126.858C287.217 127.123 287.227 127.633 287.245 128.6V128.6V128.601C287.25 128.868 287.256 129.169 287.257 129.51C287.324 139.594 287.39 149.667 287.501 159.751C287.524 161.865 287.568 164.002 287.834 166.094C288.355 170.267 291.184 172.658 295.443 172.624C297.417 172.614 299.389 172.581 301.36 172.548L301.364 172.548H301.364H301.365H301.365H301.366H301.367C303.558 172.512 305.748 172.475 307.942 172.47C325.765 172.447 343.6 172.447 361.423 172.47C363.68 172.47 365.934 172.512 368.188 172.554H368.189H368.19H368.191H368.192H368.193L368.195 172.554C370.103 172.59 372.012 172.625 373.923 172.636C378.137 172.658 380.988 170.112 381.409 165.994L381.448 165.615L381.463 165.469L381.463 165.468C381.636 163.804 381.809 162.132 381.819 160.459C381.85 155.526 381.867 150.593 381.883 145.661V145.657V145.653V145.65V145.646V145.642L381.883 145.622C381.903 139.866 381.922 134.111 381.964 128.359C381.964 127.019 381.653 126.366 380.211 126.565ZM420.398 97.1268L420.398 97.1278C420.505 99.2041 420.612 101.273 420.66 103.342V103.353C420.698 105.001 420.689 106.655 420.68 108.306C420.675 109.039 420.671 109.772 420.671 110.504C421.087 113.999 421.129 117.506 421.17 121.017V121.018V121.019V121.021V121.022V121.023C421.184 122.191 421.198 123.36 421.226 124.529C421.292 127.551 420.139 128.934 417.067 129.2C412.297 129.609 407.506 129.609 402.726 129.388C399.554 129.244 398.656 128.381 398.456 125.204C398.156 120.533 397.946 115.861 397.768 111.19C397.591 106.242 397.469 101.305 397.358 96.3575C397.302 93.6566 397.702 93.1363 400.43 92.7378C405.61 91.974 410.822 91.6309 416.057 91.9076C419.618 92.0958 420.172 92.7157 420.35 96.1914L420.377 96.7319L420.398 97.1268ZM414.027 125.081H414.027C415.024 125.092 416.018 125.104 417.011 125.049H417C418.22 124.983 418.653 124.352 418.597 123.123C418.549 122.009 417.847 122.065 417.167 122.118C417.069 122.126 416.973 122.134 416.878 122.138C416.158 122.168 415.438 122.218 414.718 122.268L414.717 122.268C414.118 122.309 413.518 122.351 412.919 122.381C411.051 122.471 409.181 122.555 407.31 122.639C405.48 122.721 403.648 122.803 401.816 122.89C401.742 122.894 401.664 122.894 401.586 122.894C401.139 122.894 400.664 122.895 400.541 123.488C400.386 124.274 400.741 124.85 401.462 125.204C402.282 125.602 403.181 125.647 404.057 125.602C406.963 125.447 409.869 125.259 412.774 125.071C413.193 125.071 413.61 125.076 414.027 125.081ZM404.708 119.28C408.922 119.278 413.085 119.276 417.255 119.293V119.304C418.253 119.304 418.686 118.983 418.641 117.931C418.592 116.97 418.577 116.006 418.562 115.043V115.042C418.541 113.622 418.519 112.203 418.386 110.792C418.058 107.291 417.967 107.283 414.506 106.973L414.383 106.962C411.021 106.658 407.65 106.693 404.278 106.728C403.846 106.732 403.413 106.737 402.981 106.74C401.118 106.751 400.131 107.393 400.153 108.844C400.17 109.883 400.142 110.925 400.115 111.973C400.052 114.37 399.989 116.794 400.452 119.282C401.868 119.282 403.276 119.281 404.679 119.28L404.708 119.28ZM408.837 56.5746C403.081 56.4307 397.658 60.637 395.994 66.2934C394.02 73.0234 398.545 81.3254 405.532 83.7163C407.296 84.3141 409.103 84.7458 411 84.5465C418.198 83.7827 422.856 78.5027 422.879 70.7985C422.989 69.5034 422.757 68.0091 422.257 66.5922C419.928 59.9285 415.636 56.7406 408.826 56.5635L408.837 56.5746ZM408.261 80.0303C401.839 80.2738 397.846 74.5067 397.957 69.8355C398.101 63.8692 402.826 59.0319 408.848 59.0983C415.314 59.1758 419.318 64.5776 419.141 69.3706C418.908 75.4365 414.427 80.0192 408.261 80.0303ZM111.676 67.2631C112.263 67.5029 112.926 67.6228 113.666 67.6228C114.426 67.6228 115.084 67.4837 115.642 67.2055C116.199 66.9273 116.622 66.5532 116.91 66.0831C117.208 65.613 117.357 65.0902 117.357 64.5146C117.357 63.9102 117.208 63.4161 116.91 63.0324C116.612 62.6487 116.257 62.3561 115.843 62.1546C115.44 61.9532 114.911 61.7421 114.257 61.5215C113.604 61.3104 113.123 61.1137 112.816 60.9315C112.508 60.7492 112.354 60.495 112.354 60.1688C112.354 59.8714 112.445 59.646 112.628 59.4925C112.811 59.3294 113.051 59.2478 113.349 59.2478C113.695 59.2478 113.979 59.3438 114.2 59.5356C114.421 59.7179 114.541 59.9721 114.56 60.2983H117.228C117.179 59.3486 116.814 58.6099 116.132 58.0822C115.449 57.545 114.551 57.2764 113.436 57.2764C112.34 57.2764 111.451 57.545 110.768 58.0822C110.086 58.6099 109.744 59.3438 109.744 60.2839C109.744 60.9171 109.893 61.4303 110.191 61.8236C110.489 62.217 110.845 62.5144 111.258 62.7158C111.672 62.9173 112.205 63.1187 112.859 63.3202C113.311 63.4545 113.657 63.5744 113.897 63.6799C114.147 63.7855 114.353 63.9198 114.517 64.0829C114.69 64.246 114.776 64.4522 114.776 64.7016C114.776 64.999 114.671 65.2341 114.459 65.4067C114.248 65.5698 113.959 65.6514 113.594 65.6514C113.238 65.6514 112.95 65.5554 112.729 65.3636C112.508 65.1621 112.378 64.8743 112.34 64.5002H109.716C109.735 65.1621 109.917 65.7281 110.263 66.1982C110.619 66.6683 111.09 67.0232 111.676 67.2631ZM85.8134 58.0535C85.0156 57.6314 84.0832 57.4203 83.0162 57.4203H79.2242V67.5221H83.0162C84.0736 67.5221 85.0011 67.311 85.799 66.8889C86.6064 66.4668 87.2264 65.872 87.6589 65.1046C88.1011 64.3371 88.3222 63.4593 88.3222 62.4712C88.3222 61.4735 88.1011 60.5957 87.6589 59.8378C87.2264 59.0704 86.6112 58.4756 85.8134 58.0535ZM85.0348 64.6297C84.5157 65.1381 83.79 65.3924 82.8576 65.3924H81.6897V59.5212H82.8576C83.79 59.5212 84.5157 59.7803 85.0348 60.2983C85.5538 60.8163 85.8134 61.5406 85.8134 62.4712C85.8134 63.4017 85.5538 64.1212 85.0348 64.6297ZM91.6177 67.5221L92.2232 65.7377H96.0008L96.6064 67.5221H99.2161L95.5539 57.4203H92.699L89.0368 67.5221H91.6177ZM94.112 60.14L95.3664 63.8382H92.8721L94.112 60.14ZM109.011 57.4203L105.507 64.1836V67.5221H103.041V64.1836L99.5377 57.4203H102.335L104.296 61.651L106.242 57.4203H109.011ZM205.271 66.9609C206.068 67.4022 206.943 67.6228 207.895 67.6228C208.846 67.6228 209.716 67.4022 210.504 66.9609C211.293 66.5196 211.917 65.9056 212.379 65.119C212.84 64.3227 213.071 63.4305 213.071 62.4424C213.071 61.4543 212.84 60.5669 212.379 59.7803C211.927 58.9936 211.302 58.3796 210.504 57.9383C209.716 57.497 208.846 57.2764 207.895 57.2764C206.943 57.2764 206.068 57.497 205.271 57.9383C204.482 58.3796 203.853 58.9936 203.382 59.7803C202.92 60.5669 202.69 61.4543 202.69 62.4424C202.69 63.4305 202.92 64.3227 203.382 65.119C203.853 65.9056 204.482 66.5196 205.271 66.9609ZM209.827 64.5721C209.346 65.1094 208.702 65.378 207.895 65.378C207.078 65.378 206.424 65.1142 205.934 64.5865C205.453 64.0493 205.213 63.3346 205.213 62.4424C205.213 61.5406 205.453 60.8259 205.934 60.2983C206.424 59.7707 207.078 59.5069 207.895 59.5069C208.702 59.5069 209.346 59.7755 209.827 60.3127C210.317 60.8403 210.562 61.5502 210.562 62.4424C210.562 63.325 210.317 64.0349 209.827 64.5721ZM201.328 57.4203H198.862V61.3776H195.027V57.4203H192.562V67.5221H195.027V63.3634H198.862V67.5221H201.328V57.4203ZM216.865 57.4203V63.4641C216.865 64.0685 217.014 64.5338 217.312 64.8599C217.61 65.1861 218.047 65.3492 218.624 65.3492C219.201 65.3492 219.643 65.1861 219.95 64.8599C220.258 64.5338 220.412 64.0685 220.412 63.4641V57.4203H222.877V63.4497C222.877 64.3515 222.685 65.1142 222.301 65.7377C221.916 66.3613 221.397 66.8314 220.743 67.1479C220.099 67.4645 219.378 67.6228 218.581 67.6228C217.783 67.6228 217.067 67.4693 216.432 67.1623C215.807 66.8458 215.312 66.3757 214.947 65.7521C214.582 65.119 214.399 64.3515 214.399 63.4497V57.4203H216.865ZM227.665 63.7087L229.77 67.5221H232.553L230.217 63.5217C230.957 63.301 231.515 62.9269 231.89 62.3992C232.274 61.8716 232.467 61.272 232.467 60.6005C232.467 60.0057 232.327 59.4685 232.048 58.9888C231.77 58.4995 231.347 58.1158 230.78 57.8376C230.222 57.5594 229.544 57.4203 228.747 57.4203H224.609V67.5221H227.074V63.7087H227.665ZM228.602 61.9675H227.074V59.4637H228.602C229.054 59.4637 229.391 59.574 229.612 59.7947C229.842 60.0153 229.958 60.3175 229.958 60.7012C229.958 61.1041 229.842 61.4159 229.612 61.6366C229.391 61.8572 229.054 61.9675 228.602 61.9675ZM237.677 67.6228C236.936 67.6228 236.273 67.5029 235.687 67.2631C235.1 67.0232 234.63 66.6683 234.274 66.1982C233.928 65.7281 233.745 65.1621 233.726 64.5002H236.35C236.389 64.8743 236.518 65.1621 236.739 65.3636C236.96 65.5554 237.249 65.6514 237.604 65.6514C237.97 65.6514 238.258 65.5698 238.47 65.4067C238.681 65.2341 238.787 64.999 238.787 64.7016C238.787 64.4522 238.7 64.246 238.527 64.0829C238.364 63.9198 238.157 63.7855 237.907 63.6799C237.667 63.5744 237.321 63.4545 236.869 63.3202C236.216 63.1187 235.682 62.9173 235.269 62.7158C234.855 62.5144 234.5 62.217 234.202 61.8236C233.904 61.4303 233.755 60.9171 233.755 60.2839C233.755 59.3438 234.096 58.6099 234.778 58.0822C235.461 57.545 236.35 57.2764 237.446 57.2764C238.561 57.2764 239.46 57.545 240.142 58.0822C240.825 58.6099 241.19 59.3486 241.238 60.2983H238.571C238.551 59.9721 238.431 59.7179 238.21 59.5356C237.989 59.3438 237.705 59.2478 237.359 59.2478C237.061 59.2478 236.821 59.3294 236.638 59.4925C236.456 59.646 236.365 59.8714 236.365 60.1688C236.365 60.495 236.518 60.7492 236.826 60.9315C237.133 61.1137 237.614 61.3104 238.268 61.5215C238.921 61.7421 239.45 61.9532 239.854 62.1546C240.267 62.3561 240.623 62.6487 240.921 63.0324C241.219 63.4161 241.368 63.9102 241.368 64.5146C241.368 65.0902 241.219 65.613 240.921 66.0831C240.632 66.5532 240.209 66.9273 239.652 67.2055C239.094 67.4837 238.436 67.6228 237.677 67.6228ZM359.933 67.2631C360.519 67.5029 361.182 67.6228 361.923 67.6228C362.682 67.6228 363.34 67.4837 363.898 67.2055C364.455 66.9273 364.878 66.5532 365.167 66.0831C365.465 65.613 365.614 65.0902 365.614 64.5146C365.614 63.9102 365.465 63.4161 365.167 63.0324C364.869 62.6487 364.513 62.3561 364.1 62.1546C363.696 61.9532 363.167 61.7421 362.514 61.5215C361.86 61.3104 361.379 61.1137 361.072 60.9315C360.764 60.7492 360.61 60.495 360.61 60.1688C360.61 59.8714 360.702 59.646 360.884 59.4925C361.067 59.3294 361.307 59.2478 361.605 59.2478C361.951 59.2478 362.235 59.3438 362.456 59.5356C362.677 59.7179 362.797 59.9721 362.816 60.2983H365.484C365.436 59.3486 365.071 58.6099 364.388 58.0822C363.706 57.545 362.807 57.2764 361.692 57.2764C360.596 57.2764 359.707 57.545 359.024 58.0822C358.342 58.6099 358.001 59.3438 358.001 60.2839C358.001 60.9171 358.15 61.4303 358.448 61.8236C358.746 62.217 359.101 62.5144 359.515 62.7158C359.928 62.9173 360.461 63.1187 361.115 63.3202C361.567 63.4545 361.913 63.5744 362.153 63.6799C362.403 63.7855 362.61 63.9198 362.773 64.0829C362.946 64.246 363.033 64.4522 363.033 64.7016C363.033 64.999 362.927 65.2341 362.716 65.4067C362.504 65.5698 362.216 65.6514 361.85 65.6514C361.495 65.6514 361.206 65.5554 360.985 65.3636C360.764 65.1621 360.634 64.8743 360.596 64.5002H357.972C357.991 65.1621 358.174 65.7281 358.52 66.1982C358.875 66.6683 359.346 67.0232 359.933 67.2631ZM312.01 57.4203H314.908V67.5221H312.442V61.4639L310.179 67.5221H308.189L305.911 61.4495V67.5221H303.445V57.4203H306.358L309.198 64.4138L312.01 57.4203ZM316.681 57.4203H319.146V67.5221H316.681V57.4203ZM327.522 67.5221H329.988V57.4203H327.522V63.6799L323.399 57.4203H320.933V67.5221H323.399V61.2912L327.522 67.5221ZM334.197 57.4203V63.4641C334.197 64.0685 334.346 64.5338 334.644 64.8599C334.942 65.1861 335.38 65.3492 335.956 65.3492C336.533 65.3492 336.975 65.1861 337.283 64.8599C337.59 64.5338 337.744 64.0685 337.744 63.4641V57.4203H340.21V63.4497C340.21 64.3515 340.018 65.1142 339.633 65.7377C339.249 66.3613 338.729 66.8314 338.076 67.1479C337.432 67.4645 336.711 67.6228 335.913 67.6228C335.115 67.6228 334.399 67.4693 333.765 67.1623C333.14 66.8458 332.645 66.3757 332.28 65.7521C331.914 65.119 331.732 64.3515 331.732 63.4497V57.4203H334.197ZM349.222 59.3917V57.4203H341.393V59.3917H344.075V67.5221H346.541V59.3917H349.222ZM352.925 59.3917V61.4351H356.227V63.3346H352.925V65.5507H356.66V67.5221H350.46V57.4203H356.66V59.3917H352.925Z" fill="#0D070B"/>
</g>
<defs>
<clipPath id="clip0_650_67493">
<rect width="460" height="235.144" fill="white"/>
</clipPath>
</defs>
</svg>
