<svg width="150" height="40" viewBox="0 0 150 40" fill="none" xmlns="http://www.w3.org/2000/svg">
<path fill-rule="evenodd" clip-rule="evenodd" d="M37.9504 28.1683C35.4063 29.3354 33.8162 29.0701 33.3921 28.964C35.5123 25.9934 36.7313 22.3331 36.7313 18.3545C36.7313 8.22239 28.5158 0 18.3922 0C8.26853 0 0 8.22239 0 18.4075C0 28.5396 8.21552 36.8151 18.3922 36.8151C20.9363 36.8151 23.3215 36.2846 25.5476 35.3828C31.484 38.5657 40.1236 36.709 42.5617 34.3218C41.1836 33.42 38.7455 30.3963 37.9504 28.1683ZM18.3922 27.9031C13.1448 27.9031 8.90457 23.6593 8.90457 18.4075C8.90457 13.1558 13.1448 8.91201 18.3922 8.91201C23.6395 8.91201 27.8798 13.1558 27.8798 18.4075C27.8798 23.6593 23.6395 27.9031 18.3922 27.9031ZM136.802 6.79005C132.455 6.79005 129.805 9.38939 129.805 9.38939V1.06091H121.484V33.42H129.54V31.3511C129.542 31.3533 129.546 31.3568 129.55 31.3613L129.57 31.3858C129.863 31.7306 132.062 34.3218 137.809 34.3218C141.413 34.3218 150 30.8206 150 21.1129C150.053 13.7923 145.6 6.79005 136.802 6.79005ZM135.477 26.6299C132.084 26.6299 129.54 24.0305 129.487 20.5294C129.434 17.1343 132.031 14.4289 135.371 14.4289C138.763 14.3759 141.413 16.9752 141.466 20.4763C141.466 23.9244 138.922 26.5768 135.477 26.6299ZM118.622 7.42667H109.717C109.505 8.06324 106.431 16.9222 106.166 17.6648C106.06 17.4526 102.933 9.49553 102.138 7.42667H92.7559C93.2884 8.64722 94.4554 11.2271 95.7898 14.1769C98.5731 20.3297 102.085 28.0921 102.085 28.4865C102.085 29.0701 99.5404 34.3748 94.5051 32.0938V39.6796C95.4591 39.9448 104.894 41.9607 109.24 31.245C110.459 28.2744 118.304 8.32848 118.622 7.42667ZM80.5652 10.2913C83.7454 6.36576 86.9786 6.15357 89.7877 6.89623V15.1186C89.6817 15.0656 80.8832 11.6705 80.8832 22.3862V33.4201H72.5087V7.26761H80.5652V10.2913ZM49.5052 7.26752C56.9257 5.30476 60.901 9.76076 60.901 9.76076V7.42667H68.7985L68.7984 33.42H60.9539L60.954 31.4042C54.9116 36.2846 48.4982 34.2157 45.2119 31.5634C42.7208 29.5475 41.2897 26.8952 40.6537 23.7653C39.9646 20.1581 40.2826 16.6039 42.0317 13.315C43.6749 10.2912 46.272 8.11629 49.5052 7.26752ZM48.7102 20.4233C48.6042 23.8714 51.2013 26.6299 54.6465 26.683C58.0388 26.736 60.7419 24.0306 60.8479 20.5825C60.901 17.3466 58.2508 14.5351 54.9646 14.482C51.4663 14.3759 48.7632 16.9222 48.7102 20.4233Z" fill="#0D070B"/>
</svg>
