<svg width="332" height="190" viewBox="0 0 332 190" fill="none" xmlns="http://www.w3.org/2000/svg">
<rect x="0.5" y="0.5" width="284.935" height="162" rx="13.0187" stroke="#0D070B"/>
<path d="M23.1926 15.7813C23.0213 15.4659 22.7735 15.227 22.449 15.0648C22.1336 14.8936 21.7596 14.808 21.327 14.808C20.5789 14.808 19.9796 15.0558 19.529 15.5515C19.0784 16.0382 18.8531 16.6916 18.8531 17.5117C18.8531 18.3859 19.0874 19.0708 19.556 19.5665C20.0337 20.0532 20.6871 20.2965 21.5162 20.2965C22.084 20.2965 22.5617 20.1523 22.9492 19.8639C23.3458 19.5755 23.6342 19.161 23.8144 18.6202H20.8809V16.9169H25.9098V19.0663C25.7386 19.6431 25.4457 20.1794 25.0311 20.6751C24.6255 21.1707 24.1073 21.5718 23.4764 21.8782C22.8456 22.1846 22.1336 22.3379 21.3405 22.3379C20.4032 22.3379 19.565 22.1351 18.826 21.7295C18.096 21.3149 17.5237 20.7427 17.1091 20.0126C16.7036 19.2826 16.5008 18.449 16.5008 17.5117C16.5008 16.5744 16.7036 15.7407 17.1091 15.0107C17.5237 14.2717 18.096 13.6994 18.826 13.2939C19.556 12.8793 20.3897 12.672 21.327 12.672C22.4625 12.672 23.4179 12.9469 24.1929 13.4966C24.977 14.0464 25.4952 14.808 25.7476 15.7813H23.1926ZM30.2185 22.3784C29.4794 22.3784 28.8125 22.2207 28.2177 21.9053C27.6319 21.5898 27.1677 21.1392 26.8253 20.5534C26.4918 19.9676 26.3251 19.2826 26.3251 18.4986C26.3251 17.7235 26.4963 17.043 26.8388 16.4572C27.1813 15.8624 27.6499 15.4073 28.2447 15.0918C28.8396 14.7764 29.5065 14.6187 30.2455 14.6187C30.9845 14.6187 31.6514 14.7764 32.2463 15.0918C32.8411 15.4073 33.3097 15.8624 33.6522 16.4572C33.9947 17.043 34.1659 17.7235 34.1659 18.4986C34.1659 19.2736 33.9902 19.9586 33.6387 20.5534C33.2962 21.1392 32.8231 21.5898 32.2192 21.9053C31.6244 22.2207 30.9575 22.3784 30.2185 22.3784ZM30.2185 20.3776C30.6601 20.3776 31.0341 20.2154 31.3405 19.891C31.6559 19.5665 31.8137 19.1024 31.8137 18.4986C31.8137 17.8947 31.6605 17.4306 31.354 17.1061C31.0566 16.7817 30.6871 16.6195 30.2455 16.6195C29.7949 16.6195 29.4209 16.7817 29.1235 17.1061C28.826 17.4216 28.6773 17.8857 28.6773 18.4986C28.6773 19.1024 28.8215 19.5665 29.1099 19.891C29.4073 20.2154 29.7769 20.3776 30.2185 20.3776ZM38.4205 22.3784C37.6815 22.3784 37.0146 22.2207 36.4197 21.9053C35.8339 21.5898 35.3698 21.1392 35.0273 20.5534C34.6939 19.9676 34.5271 19.2826 34.5271 18.4986C34.5271 17.7235 34.6984 17.043 35.0408 16.4572C35.3833 15.8624 35.852 15.4073 36.4468 15.0918C37.0416 14.7764 37.7085 14.6187 38.4475 14.6187C39.1866 14.6187 39.8535 14.7764 40.4483 15.0918C41.0431 15.4073 41.5118 15.8624 41.8542 16.4572C42.1967 17.043 42.368 17.7235 42.368 18.4986C42.368 19.2736 42.1922 19.9586 41.8407 20.5534C41.4983 21.1392 41.0251 21.5898 40.4213 21.9053C39.8264 22.2207 39.1595 22.3784 38.4205 22.3784ZM38.4205 20.3776C38.8621 20.3776 39.2361 20.2154 39.5426 19.891C39.858 19.5665 40.0157 19.1024 40.0157 18.4986C40.0157 17.8947 39.8625 17.4306 39.5561 17.1061C39.2587 16.7817 38.8891 16.6195 38.4475 16.6195C37.9969 16.6195 37.6229 16.7817 37.3255 17.1061C37.0281 17.4216 36.8794 17.8857 36.8794 18.4986C36.8794 19.1024 37.0236 19.5665 37.312 19.891C37.6094 20.2154 37.9789 20.3776 38.4205 20.3776ZM46.0548 14.6187C46.5865 14.6187 47.0506 14.7268 47.4472 14.9431C47.8527 15.1594 48.1637 15.4433 48.38 15.7948V14.7268H50.6917V22.2567C50.6917 22.9507 50.552 23.5771 50.2726 24.1358C50.0022 24.7036 49.5831 25.1542 49.0153 25.4877C48.4566 25.8212 47.7581 25.9879 46.9199 25.9879C45.8024 25.9879 44.8967 25.722 44.2027 25.1903C43.5087 24.6676 43.1122 23.9556 43.013 23.0543H45.2977C45.3698 23.3427 45.541 23.5681 45.8114 23.7303C46.0818 23.9015 46.4153 23.9871 46.8118 23.9871C47.2895 23.9871 47.668 23.8474 47.9474 23.5681C48.2358 23.2977 48.38 22.8606 48.38 22.2567V21.1888C48.1547 21.5403 47.8437 21.8287 47.4472 22.054C47.0506 22.2703 46.5865 22.3784 46.0548 22.3784C45.4329 22.3784 44.8696 22.2207 44.3649 21.9053C43.8602 21.5808 43.4592 21.1257 43.1618 20.5399C42.8734 19.9451 42.7292 19.2601 42.7292 18.485C42.7292 17.71 42.8734 17.0295 43.1618 16.4437C43.4592 15.8579 43.8602 15.4073 44.3649 15.0918C44.8696 14.7764 45.4329 14.6187 46.0548 14.6187ZM48.38 18.4986C48.38 17.9218 48.2177 17.4666 47.8933 17.1332C47.5779 16.7997 47.1903 16.633 46.7307 16.633C46.2711 16.633 45.879 16.7997 45.5546 17.1332C45.2391 17.4576 45.0814 17.9082 45.0814 18.485C45.0814 19.0618 45.2391 19.5215 45.5546 19.8639C45.879 20.1974 46.2711 20.3641 46.7307 20.3641C47.1903 20.3641 47.5779 20.1974 47.8933 19.8639C48.2177 19.5305 48.38 19.0753 48.38 18.4986ZM54.2702 12.2664V22.2703H51.9585V12.2664H54.2702ZM62.6507 18.3769C62.6507 18.5932 62.6372 18.8185 62.6102 19.0528H57.3784C57.4145 19.5215 57.5632 19.882 57.8246 20.1343C58.0949 20.3776 58.4239 20.4993 58.8114 20.4993C59.3882 20.4993 59.7893 20.256 60.0146 19.7693H62.475C62.3488 20.265 62.119 20.7111 61.7855 21.1077C61.4611 21.5042 61.051 21.8151 60.5553 22.0404C60.0596 22.2658 59.5054 22.3784 58.8925 22.3784C58.1535 22.3784 57.4956 22.2207 56.9188 21.9053C56.342 21.5898 55.8914 21.1392 55.5669 20.5534C55.2425 19.9676 55.0803 19.2826 55.0803 18.4986C55.0803 17.7145 55.238 17.0295 55.5534 16.4437C55.8779 15.8579 56.3285 15.4073 56.9053 15.0918C57.4821 14.7764 58.1445 14.6187 58.8925 14.6187C59.6225 14.6187 60.2714 14.7719 60.8392 15.0783C61.407 15.3847 61.8486 15.8219 62.1641 16.3896C62.4885 16.9574 62.6507 17.6198 62.6507 18.3769ZM60.285 17.7685C60.285 17.372 60.1498 17.0566 59.8794 16.8222C59.609 16.5879 59.2711 16.4707 58.8655 16.4707C58.478 16.4707 58.149 16.5834 57.8786 16.8087C57.6173 17.034 57.455 17.354 57.392 17.7685H60.285Z" fill="#0D070B"/>
<rect x="72.5176" y="11.9324" width="186.813" height="11.6758" rx="5.83792" fill="#F2F2F3"/>
<rect x="16" y="40" width="38" height="4" fill="#D9D9D9"/>
<rect x="16" y="47.7415" width="90" height="4" fill="#A3A3AD"/>
<rect x="16" y="55.4827" width="131" height="4" fill="#D9D9D9"/>
<rect x="16" y="63.2241" width="116" height="4" fill="#D9D9D9"/>
<rect x="16" y="79.2241" width="133" height="42.1895" rx="8.72985" fill="#F2F2F3"/>
<rect x="23.4824" y="86.7068" width="57" height="4" fill="#0D070B"/>
<rect x="23.4824" y="94.4482" width="116" height="4" fill="#0274D7"/>
<rect x="23.4824" y="102.189" width="108" height="4" fill="#0D070B"/>
<rect x="23.4824" y="109.931" width="71" height="4" fill="#0D070B"/>
<circle cx="286" cy="155" r="6" fill="white"/>
<g clip-path="url(#clip0_384_19937)">
<path d="M242.337 119.529C242.589 120.518 242.917 121.113 242.849 121.675C242.59 123.956 243.633 125.705 245.037 127.303C245.877 128.263 246.84 129.111 247.732 130.034C249.613 131.977 251.494 133.92 253.334 135.903C253.686 136.288 254.082 136.818 254.111 137.292C254.19 138.773 254.948 139.846 255.89 140.854C258.229 143.365 260.498 145.95 262.933 148.373C270.961 156.394 279.033 164.365 287.13 172.321C288.49 173.659 290.018 174.834 291.459 176.101C292.843 177.31 294.369 177.45 295.898 176.534C299.042 174.654 301.411 171.955 303.393 168.925C304.234 167.639 304.031 166.311 302.904 165.222C301.405 163.785 299.832 162.432 298.36 160.971C288.601 151.296 278.863 141.585 269.093 131.916C267.628 130.468 265.943 129.219 264.38 127.869C263.968 127.51 263.592 127.098 263.25 126.676C261.798 124.868 260.452 122.975 258.255 121.941C257.88 121.758 257.653 121.252 257.341 120.91C255.947 119.387 254.643 117.764 253.111 116.412C252.408 115.789 251.272 115.546 250.29 115.387C248.998 115.185 248.977 115.304 247.834 114.159C249.738 110.994 251.902 107.981 253.466 104.694C259.662 91.6535 259.602 78.3549 253.992 65.2151C248.469 52.3266 239.202 42.8657 226.235 37.362C212.627 31.5831 199.326 32.4606 186.33 39.6209C177.146 44.6866 169.932 51.6361 165.376 61.027C158.395 75.4104 158.553 89.9672 165.922 104.158C173.182 118.133 184.571 127.169 200.125 130.363C214.52 133.32 227.752 130.301 239.615 121.574C240.376 121.012 241.131 120.438 242.337 119.529ZM215.375 45.4364C223.759 47.5277 231.68 51.969 237.265 57.824C241.433 62.2021 245.063 67.0879 246.598 72.9863C250.516 88.1158 246.633 101.331 235.03 111.639C224.01 121.431 210.889 123.34 197.132 118.349C183.31 113.331 175.108 103.141 172.552 88.6866C171.056 80.2419 172.825 72.1334 176.585 64.5169C179.663 58.2813 184.53 53.6427 190.335 49.8665C198.264 44.6925 206.692 42.9131 215.382 45.4486L215.375 45.4364ZM225.048 38.8557C226.357 39.455 227.615 39.9783 228.815 40.6C236.471 44.5566 242.278 50.5123 246.88 57.6776C251.667 65.1202 254.665 73.2118 255.197 82.1231C255.244 82.9122 255.223 83.7245 255.04 84.4831C254.947 84.8308 254.397 85.263 254.04 85.2813C253.676 85.2873 253.178 84.9053 252.97 84.5598C252.751 84.1801 252.76 83.6442 252.741 83.1733C252.301 73.7275 249.057 65.2388 243.732 57.5277C238.875 50.5012 232.828 44.8228 224.779 41.5582C224.266 41.3482 223.729 41.1112 223.315 40.7622C222.614 40.1707 222.846 39.1145 223.715 38.8818C224.152 38.7605 224.64 38.8706 225.055 38.8679L225.048 38.8557ZM265.69 131.75C266.077 132.081 266.276 132.228 266.448 132.398C276.523 142.552 286.598 152.706 296.674 162.859C296.96 163.143 297.222 163.441 297.499 163.722C298.202 164.418 298.156 165.13 297.533 165.833C296.923 166.529 296.201 166.284 295.58 165.9C295.049 165.561 294.584 165.094 294.145 164.646C284.358 154.652 274.581 144.661 264.821 134.644C264.351 134.156 264.02 133.539 263.525 132.837C264.376 132.402 264.997 132.092 265.692 131.74L265.69 131.75ZM257.83 124.996C258.766 125.712 259.483 126.205 260.141 126.764C260.682 127.219 261.153 127.739 261.752 128.324C261.113 128.857 260.583 129.326 260.013 129.753C257.441 131.703 257.188 132.609 254.456 128.854C254.364 128.736 254.35 128.556 254.235 128.173C255.333 127.205 256.5 126.171 257.83 124.996ZM251.923 93.1413C252.233 92.3339 252.514 91.3223 253.019 90.443C253.234 90.0657 253.955 89.731 254.383 89.794C254.812 89.857 255.446 90.3892 255.511 90.8002C255.893 93.0868 255.311 95.2189 253.991 97.0912C253.711 97.4818 252.789 97.7526 252.346 97.5923C251.912 97.4346 251.481 96.6463 251.466 96.1245C251.438 95.1853 251.73 94.249 251.914 93.1387L251.923 93.1413ZM247.92 121.336C248.715 120.068 249.513 119.061 251.054 118.563C252.307 119.644 253.577 120.74 254.977 121.964C253.944 122.422 253.209 122.691 252.521 123.055C250.154 124.316 250.152 124.325 248.588 122.281C248.395 122.033 248.228 121.77 247.91 121.333L247.92 121.336Z" fill="#0D070B"/>
</g>
<defs>
<clipPath id="clip0_384_19937">
<rect width="162.37" height="118.1" fill="white" transform="translate(174.566 23) rotate(15)"/>
</clipPath>
</defs>
</svg>
