<svg width="243" height="190" viewBox="0 0 243 190" fill="none" xmlns="http://www.w3.org/2000/svg">
<rect x="19.5" y="0.5" width="189" height="189" rx="13.0187" stroke="#0D070B"/>
<rect x="19" y="135" width="189" height="1" fill="#0D070B"/>
<rect x="28" y="150" width="131" height="8" fill="#D9D9D9"/>
<rect x="28" y="164" width="53" height="8" fill="#A3A3AD"/>
<g clip-path="url(#clip0_384_19928)">
<path d="M149.025 72.6806C148.051 72.3107 147.756 71.6922 147.672 70.7463C147.624 70.1763 147.431 69.6064 147.215 69.0728C146.312 66.805 145.194 64.6706 143.076 63.2942C142.607 62.991 142.734 62.706 142.824 62.3301C143.443 59.7167 142.553 57.5763 140.767 55.7269C139.75 54.6779 138.559 53.8533 137.224 53.2772C136.153 52.8103 135.04 52.4344 135.287 50.8943C135.299 50.8094 135.221 50.7184 135.191 50.6214C133.14 44.4123 126.908 39.6464 120.454 39.3917C119.786 39.3675 119.473 39.2826 119.371 38.4882C118.95 35.2927 118.343 32.1518 115.714 29.8962C115.401 29.6233 115.455 29.3747 115.75 29.0534C116.43 28.3075 117.013 27.4647 117.705 26.731C118.926 25.4395 119.167 23.9054 118.764 22.2743C117.952 18.9939 114.836 17.9935 112.207 20.1218C112.099 20.2127 111.967 20.2794 111.852 20.3522C111.461 20.146 111.094 19.9217 110.697 19.7519C108.947 19 107.401 19.4669 106.006 20.619C104.694 21.7043 104.267 23.0808 104.67 24.7725C105.236 27.1433 106.523 28.8775 108.719 29.9265C109.061 30.0902 109.398 30.2782 109.765 30.4662C109.242 31.7031 108.328 32.5642 107.341 33.3282C105.549 34.7167 103.648 35.893 101.573 36.8571C98.5471 38.2578 95.8162 40.0829 95.5035 43.9757C94.8238 43.9394 94.2102 43.8484 93.5907 43.9151C90.2644 44.2668 87.7561 46.0313 85.7591 48.5962C84.8027 49.821 84.5441 51.3126 84.6584 52.8588C84.6884 53.2954 84.7365 53.732 84.8508 54.1504C85.0012 54.7082 84.8448 55.0417 84.3396 55.3146C83.2268 55.9149 82.2824 56.7456 81.4463 57.6915C79.4072 59.9774 78.4087 63.0699 80.5441 66.332C80.5862 66.3987 80.5802 66.4958 80.5982 66.5928C80.105 66.8899 79.5877 67.1627 79.1847 67.5811C77.711 69.1273 75.6478 70.1581 75.0102 72.432C73.6689 73.6386 73.7711 74.9362 74.7696 76.2884C75.0223 76.4339 75.0764 76.6461 74.9802 76.9069C75.3711 77.107 75.3591 77.4344 75.2568 77.7921C75.3651 77.78 75.4734 77.7679 75.5817 77.7558C75.5817 77.7558 75.5877 77.7497 75.5937 77.7436L75.6057 77.7315C75.6057 77.4708 75.5516 77.1918 75.6117 76.9432C75.702 76.5916 75.9305 76.5552 76.1892 76.8341C76.4478 77.0585 76.2914 77.2767 76.1892 77.5011C76.0809 77.78 75.8463 77.7558 75.6178 77.7436L75.6057 77.7558L75.5937 77.7679C75.5937 78.0589 75.5877 78.3439 75.5817 78.635C76.099 79.1382 75.8644 79.781 75.8824 80.3752C76.1651 81.6243 76.8629 82.6794 77.4944 83.7587C78.2463 85.0502 78.9381 86.3781 79.6418 87.7C81.7832 91.7262 83.323 96.001 84.8629 100.27C85.8974 103.138 86.9681 105.994 86.8418 109.129C86.8177 109.796 87.1005 110.311 87.5877 110.784C89.2659 112.421 91.1666 113.725 93.308 114.64C101.278 118.066 109.609 119.424 118.24 118.891C122.252 118.642 126.144 117.836 129.843 116.199C131.666 115.392 133.356 114.386 134.818 113.027C136.749 111.239 138.132 109.141 138.288 106.394C138.312 106.018 138.463 105.642 138.553 105.272C139.431 101.646 140.755 98.1657 142.036 94.6731C144.213 88.7308 146.288 82.7461 148.905 76.9736C149.224 76.2702 149.579 75.5789 149.837 74.8513C150.204 73.8145 149.994 73.0444 149.037 72.6806H149.025ZM98.7516 42.0354C99.8223 40.5498 101.302 39.5494 102.992 38.9006C105.043 38.1184 106.824 36.9238 108.466 35.4807C109.458 34.6076 110.3 33.5828 110.752 32.358C111.07 31.4909 111.588 31.1635 112.394 31.0604C112.821 31.0058 113.248 30.9513 113.675 30.9088C114.048 30.8664 114.306 30.9694 114.439 31.3757C115.088 33.3403 115.955 35.2321 116.129 37.3483C116.249 38.7975 115.918 40.0284 114.938 41.0774C114.445 41.6049 113.934 42.1203 113.38 42.5751C111.66 43.9879 111.534 44.8125 112.917 46.674C109.795 47.626 106.806 47.5714 103.786 47.1106C102.3 46.8862 100.875 46.5042 99.5696 45.7402C97.8854 44.7519 97.6027 43.618 98.7456 42.0354H98.7516ZM89.4042 47.723C90.92 46.4982 92.7426 46.1101 94.5952 45.7402C95.6178 45.5401 96.3215 45.6553 97.0914 46.5103C98.2944 47.8564 99.9546 48.675 101.687 49.0994C107.022 50.4092 112.255 50.2758 117.23 47.6139C117.735 47.341 118.24 47.056 118.722 46.7407C120.039 45.8918 121.915 46.1162 123.01 47.2622C123.979 48.2809 124.045 49.0327 123.293 50.2515C122.932 50.8276 122.499 51.349 121.994 51.7977C119.72 53.8411 117.23 55.3813 114.276 56.4121C110.613 57.6976 106.938 57.6612 103.203 57.5702C102.433 57.552 101.669 57.4853 101.097 57.455C98.3065 57.4975 95.714 57.4186 93.1215 57.5581C91.2388 57.6551 88.3756 55.4904 87.5997 53.4531C86.926 51.7007 87.7501 49.057 89.4042 47.723ZM77.9877 71.4679C79.3832 70.4371 80.8147 69.4608 81.6929 67.7691C82.5591 68.43 83.3832 68.8605 83.1847 70.0308C83.1125 70.4492 83.5095 70.8069 83.8223 71.1222C84.3636 71.668 84.917 72.2076 85.4283 72.7836C86.3305 73.8023 86.0839 74.5481 84.7245 74.7543C83.8283 74.8938 82.902 74.8877 82.0117 74.6148C81.2298 74.3784 80.4659 74.0812 79.6298 74.1116C78.8899 74.1358 78.6132 73.4506 78.102 73.1232C76.899 72.3592 76.8749 72.2864 77.9937 71.4618L77.9877 71.4679ZM83.305 91.4109C82.9802 91.5382 83.1666 91.229 83.1005 91.1259V91.1138C82.535 90.5317 82.3005 89.7616 81.9696 89.0461C81.6869 88.373 81.4042 87.7 81.1215 87.0209C81.1035 86.8329 81.0914 86.651 81.0734 86.463C80.7606 86.3781 80.7666 86.1356 80.7847 85.887C80.502 85.8203 80.4899 85.5595 80.4117 85.3473C80.1591 85.2018 80.0568 84.9532 79.9606 84.6985C79.8704 84.4924 79.7862 84.2923 79.6959 84.0861C78.932 82.7946 78.0238 81.5879 77.5426 80.1327C77.3802 80.0538 77.332 79.9326 77.3862 79.7628C77.3862 79.587 77.3862 79.405 77.3862 79.2292C77.332 79.1261 77.3561 79.0412 77.4644 79.023C77.4884 79.023 77.5365 79.1504 77.5726 79.2231L77.5907 79.2413C77.7651 79.2413 77.8493 79.3383 77.8674 79.5021L77.8854 79.5203C78.0538 79.5263 78.1441 79.6233 78.1862 79.781C78.6193 79.9811 79.0523 80.1691 79.4794 80.3752C80.3035 80.7875 80.5381 81.5576 80.0328 82.3095C79.6899 82.8188 79.8764 83.3221 79.9486 83.8314C80.1711 83.9466 80.2313 84.1589 80.2614 84.3832C80.4839 84.6136 80.5802 84.8926 80.5561 85.2079C80.7847 85.3716 80.8328 85.6081 80.8027 85.8688L80.7847 85.8809L80.8027 85.8688C81.1155 85.9597 81.0974 86.2083 81.0854 86.4509L81.0734 86.463L81.0854 86.4509C81.3802 86.5358 81.3741 86.8026 81.4343 87.0269C81.8433 87.5423 82.0839 88.1426 82.2523 88.7732C82.6072 89.5251 83.1065 90.2163 83.0944 91.1016V91.1138C83.2208 91.1805 83.3651 91.3745 83.299 91.3987L83.305 91.4109ZM85.7531 98.3597L85.6268 97.8807C85.4042 97.7412 85.3862 97.5108 85.3561 97.2804C85.1035 97.0257 85.0614 96.6983 85.0313 96.3648C84.8328 96.2314 84.8147 96.0131 84.7787 95.8069C84.4538 95.3643 84.3636 94.8368 84.2373 94.3214C83.8584 93.806 83.6719 93.2239 83.6719 92.5872V92.5751C83.5456 92.5084 83.4012 92.3143 83.4674 92.2901C83.7922 92.1628 83.6057 92.4659 83.6719 92.5751V92.5872C84.1411 93.0723 84.4178 93.6604 84.5381 94.3274C84.7125 94.7337 84.8869 95.1339 85.0614 95.5401C85.1696 95.813 85.2839 96.0919 85.3922 96.3648C85.4824 96.5649 85.5726 96.7589 85.6568 96.959L85.9335 97.5472C85.9997 97.6078 86.0238 97.6806 86.0177 97.7655C86.4388 98.2445 86.2343 98.8084 86.3365 99.5178C85.8253 99.1358 85.8132 98.7356 85.7411 98.3597H85.7531ZM86.523 84.4439C86.3606 84.3893 86.2824 84.2801 86.3245 84.0982C86.0959 84.0982 85.8433 83.8981 85.6568 84.1952C85.6208 84.2862 85.6388 84.365 85.705 84.4317C86.0418 84.6682 86.0478 84.9956 85.9576 85.3473C85.9335 85.4383 85.9576 85.5171 86.0177 85.5899C86.2704 85.7414 86.3305 85.9597 86.2403 86.2265C87.0042 88.8581 87.9065 91.4472 88.4659 94.1395C88.532 94.4669 88.5621 94.8004 88.6042 95.1339C88.8809 95.4977 88.929 95.91 88.8568 96.3527C88.9531 96.6437 88.9411 96.9348 88.8568 97.2258C89.1095 100.021 89.3621 102.81 89.6087 105.606C89.6629 106.23 89.699 106.861 89.6929 107.491C89.6929 107.879 89.9155 108.492 89.2298 108.492C88.526 108.492 88.8027 107.873 88.8087 107.51C88.8448 104.939 88.6584 102.38 88.4057 99.8271C88.3516 99.251 88.3456 98.6689 88.3155 98.0929C87.8283 95.7827 87.4674 93.4482 86.7275 91.1986C85.5967 87.7545 84.0568 84.4924 82.3245 81.3211C81.6448 80.0781 81.7952 79.7931 83.2448 79.6112C83.4854 79.5809 83.726 79.5809 83.9606 79.5384C84.52 79.4475 84.7847 79.5506 84.8629 80.2418C85.0614 81.9881 85.735 82.4732 87.5817 82.4429C87.9005 82.4429 88.3215 82.2125 88.52 82.5338C88.7967 82.9704 88.9651 83.4858 89.1275 83.9891C89.1997 84.2013 88.9892 84.3105 88.8027 84.3832C88.508 84.4924 88.3636 84.741 88.2373 85.0078C88.1531 86.1902 88.4478 87.3301 88.6523 88.4761C88.911 88.7005 88.8929 89.0097 88.917 89.3068C89.1877 89.5372 89.1997 89.8586 89.1937 90.18C89.4343 90.5377 89.4884 90.944 89.4824 91.3624C89.7651 91.708 89.735 92.1385 89.7771 92.5447C90.1802 92.9935 89.9756 93.521 90.0659 94.3517C89.6328 93.6908 89.4523 93.3088 89.4584 92.8419C89.3741 92.4538 89.2899 92.0597 89.1997 91.6716C89.0974 91.2896 89.0012 90.9076 88.899 90.5256C88.8147 90.2285 88.7305 89.9314 88.6463 89.6342L88.3095 88.5004C88.0388 87.9425 87.7621 87.3907 87.702 86.7601C87.4012 86.178 87.1065 85.5959 86.8057 85.0199C86.6373 84.9471 86.5591 84.8319 86.6012 84.644C86.6132 84.5591 86.5832 84.4863 86.511 84.4378L86.523 84.4439ZM86.5952 80.2539C86.6072 80.163 86.6493 80.0781 86.6794 79.9871C86.7335 80.0478 86.8177 80.1024 86.8177 80.1569C86.8177 80.2176 86.7396 80.2843 86.6974 80.3449C86.6614 80.3146 86.5892 80.2782 86.5952 80.2539ZM84.7426 66.7989C81.326 64.2159 81.1696 61.3903 84.2914 58.4616C84.8508 57.934 85.4584 57.4671 86.114 56.9154C88.3696 59.4863 91.4072 59.8562 94.4749 60.3473C97.4283 60.8142 100.376 61.1295 103.353 61.3054C108.358 61.5964 113.35 61.4569 118.343 61.0507C121.122 60.8263 123.906 60.6869 126.643 60.0805C128.057 59.7652 129.428 59.359 130.776 58.8314C132.021 58.3403 133.332 59.2013 133.398 60.5535C133.434 61.2023 133.23 61.7904 132.881 62.3362C132.249 63.3306 131.401 64.1128 130.451 64.7858C128.009 66.52 125.392 67.951 122.728 69.3032C121.561 69.8974 120.297 70.2066 119.034 70.5038C117.35 70.8979 115.678 71.3648 113.982 71.6922C112.43 71.9893 110.848 72.2986 109.278 72.3228C103.094 72.432 96.9952 71.7347 91.0523 69.9095C88.7907 69.2122 86.6433 68.2421 84.7365 66.805L84.7426 66.7989ZM121.585 81.976C121.543 82.0063 121.494 82.073 121.434 82.0912C121.308 82.1215 121.182 82.0973 121.128 81.9517C121.128 81.9335 121.182 81.8729 121.218 81.8668C121.344 81.8305 121.476 81.8123 121.585 81.9821V81.976ZM115.528 82.2731C115.497 82.2913 115.467 82.3337 115.437 82.3337C115.329 82.3277 115.299 82.2731 115.365 82.2003C115.383 82.1761 115.443 82.1761 115.473 82.1882C115.497 82.2003 115.509 82.2428 115.528 82.2731ZM96.4117 106.879C96.2794 106.946 96.0749 106.758 96.1411 106.515C96.117 106.339 96.0869 106.163 96.0629 105.994C95.8944 105.824 95.7862 105.63 95.8042 105.375C95.5095 105.036 95.3771 104.648 95.3952 104.187C95.4493 102.938 95.4794 101.689 95.5215 100.439C95.5215 100.148 95.5095 99.8574 95.5035 99.5663L95.4373 99.6148C95.1786 98.7296 95.1967 97.82 95.2629 96.9166L94.9741 94.0424C94.914 93.3573 94.6072 92.7085 94.6614 92.0051C94.5771 91.52 94.3125 91.0713 94.3606 90.5559C94.2403 90.1739 94.0117 89.8101 94.0899 89.3796C93.5125 87.5969 92.9892 85.796 92.1651 84.1104C91.9185 83.6071 92.117 83.4191 92.5681 83.2918C95.4493 82.4732 95.2809 81.9578 95.8343 85.2503C96.1952 85.8263 96.1832 86.4509 96.0508 87.0997C95.6719 86.6631 95.5215 86.1598 95.5155 85.602C95.3832 85.2927 95.2689 84.9774 95.1125 84.6803C94.9681 84.4196 94.7456 84.1952 94.4208 84.3044C94.114 84.4075 94.0478 84.6985 94.0298 85.0078C93.9576 86.2629 94.3847 87.4756 94.3967 88.7247C94.7275 89.2886 94.6854 89.9132 94.7155 90.5317C95.0102 90.9925 94.9621 91.5079 94.9441 92.0112C95.2929 92.6478 95.2749 93.3391 95.2448 94.0364C95.6599 94.7579 95.4914 95.5523 95.5516 96.3223C95.8584 96.9044 95.8343 97.529 95.7501 98.1535C95.7561 98.6265 95.7621 99.1055 95.7741 99.5785C95.7741 99.8695 95.7862 100.155 95.7862 100.446C96.0268 101.476 96.099 102.525 96.129 103.58C96.3456 104.072 96.4057 104.575 96.3215 105.102C96.3456 105.478 96.3756 105.854 96.3997 106.23C96.5501 106.455 96.7666 106.709 96.4117 106.891V106.879ZM100.4 101.592V102.174C100.412 102.374 100.424 102.574 100.43 102.768C100.46 103.004 100.508 103.247 100.273 103.417C100.093 103.211 100.123 102.974 100.159 102.738C100.159 102.55 100.159 102.356 100.165 102.168C100.165 101.974 100.153 101.786 100.153 101.592C100.081 101.319 100.003 101.046 100.093 100.755C99.8102 100.397 99.8283 99.9787 99.8704 99.5603C98.8057 94.5578 97.5967 89.5857 96.917 84.5106C96.899 84.365 96.8629 84.2256 96.8328 84.0861C96.7726 83.7951 96.905 83.6253 97.1817 83.5768C97.4403 83.5343 97.5907 83.6131 97.711 83.8981C100.009 89.2826 100.857 94.8974 100.394 100.724C100.496 101.016 100.466 101.307 100.394 101.598L100.4 101.592ZM104.105 108.577C103.786 108.201 103.666 107.934 103.479 107.867C102.367 107.479 102.397 106.624 102.451 105.672C102.559 103.835 102.583 101.992 102.673 100.154C102.908 95.4674 102.439 90.8712 101.001 86.3903C100.556 85.0138 100.592 85.0017 101.861 84.2438C102.066 84.1225 102.21 83.9042 102.475 83.8981C104.123 86.5722 104.388 103.029 104.105 108.577ZM109.356 95.1885C109.404 95.4249 109.434 95.6553 109.236 95.8494C109.055 95.6493 109.079 95.4128 109.122 95.1763C109.073 94.8913 108.977 94.6064 109.097 94.3153C108.61 92.3992 108.297 90.4407 107.672 88.561C107.335 87.5545 106.968 86.5661 106.451 85.6323L105.915 85.2746C105.458 85.1897 105.194 85.5959 104.815 85.7718C104.634 85.2988 104.4 84.8865 104.55 84.3529C105.097 84.3953 105.543 84.6076 105.934 84.9532C106.264 84.9896 106.595 85.0078 106.842 85.2685C107.131 85.2867 107.413 85.3109 107.702 85.3231C109.296 85.3898 109.296 85.3898 109.308 87.0694C109.32 89.4766 109.332 91.8899 109.338 94.2971C109.476 94.5882 109.404 94.8853 109.356 95.1824V95.1885ZM112.731 85.7657C112.123 85.8082 112.069 86.4933 111.991 86.9966C111.762 88.464 111.57 89.9314 111.365 91.3987C111.479 92.1991 111.118 92.9449 111.082 93.7271C111.076 94.0061 111.07 94.2789 111.064 94.5578C111.209 95.2976 110.661 95.8979 110.679 96.6194C110.601 94.9641 110.312 93.3148 110.77 91.6898C110.914 89.8283 110.655 87.9425 111.058 86.0992C111.058 85.7657 110.992 85.4201 111.058 85.0987C111.257 84.0679 112.821 83.4009 113.657 83.983C113.915 84.1649 113.958 84.4681 113.928 84.7592C113.849 85.5171 113.753 86.275 113.663 87.033C113.687 87.1846 113.771 87.3604 113.525 87.415C113.5 87.2877 113.482 87.1664 113.458 87.039C113.416 86.9542 113.38 86.8632 113.326 86.7844C113.079 86.4569 113.272 85.7293 112.743 85.7657H112.731ZM118.349 89.6464C118.349 89.4584 118.349 89.2644 118.355 89.0764V88.4943C118.144 87.9425 118.222 87.0694 117.362 87.1239C116.67 87.1664 116.592 87.9243 116.478 88.47C115.413 93.5452 114.427 98.6386 114.631 103.853C114.691 105.424 114.246 106.752 113.422 108.328C113.32 106 113.488 103.956 113.729 101.925C114.18 98.0323 114.463 94.1152 115.125 90.2467C115.473 88.1972 115.949 86.1598 115.804 84.0558C115.78 83.6798 115.973 83.5283 116.291 83.4797C117.512 83.3039 118.728 83.1341 120.081 82.9401C119.395 84.6682 119.251 86.3175 118.866 87.9122C118.95 88.3366 118.842 88.7187 118.643 89.0885C118.631 89.2765 118.619 89.4645 118.607 89.6464C118.637 89.8768 118.667 90.1133 118.463 90.2891C118.276 90.0951 118.312 89.8647 118.355 89.6342L118.349 89.6464ZM120.598 94.8853C120.67 95.4128 120.412 95.8676 120.297 96.3587C120.34 96.6255 120.273 96.862 120.105 97.0682C120.093 97.5472 120.081 98.0262 119.798 98.4506C119.774 98.6204 119.756 98.7902 119.732 98.966C119.792 99.5785 119.515 100.13 119.431 100.718C119.335 101.488 119.239 102.259 119.137 103.029C119.221 103.756 119.004 104.447 118.92 105.157C118.908 105.284 118.758 105.393 118.595 105.351C118.457 105.315 118.331 105.218 118.379 105.054C118.607 104.278 118.439 103.429 118.848 102.689C118.89 102.022 118.788 101.331 119.155 100.706C119.125 99.9968 119.131 99.2874 119.443 98.6265L119.497 98.099C119.654 96.6073 119.852 95.1278 120.322 93.6968C120.785 90.5923 121.23 87.4877 121.717 84.3893C121.964 82.837 122.884 82.2003 124.424 82.4429C124.658 82.4793 124.881 82.5642 125.115 82.6309C125.314 83.1281 125.115 83.595 124.821 83.8254C123.335 85.026 122.83 86.7419 122.337 88.4579C121.717 90.5862 121.176 92.7388 120.598 94.8853ZM127.287 103.047C127.269 103.429 127.245 103.805 127.227 104.187C127.251 104.605 127.317 105.03 127.016 105.387C126.956 105.891 127.161 106.43 126.77 107.018C126.499 106.218 126.746 105.527 126.752 104.842C126.655 104.484 126.703 104.15 126.95 103.865C126.974 103.514 126.998 103.156 127.028 102.804C126.914 102.259 127.161 101.798 127.461 101.337C127.503 101.913 127.768 102.501 127.293 103.053L127.287 103.047ZM129.735 83.9951C128.929 83.977 128.592 84.6136 128.243 85.1836C127.534 86.3417 127.106 87.6211 126.685 88.9066C126.505 89.4523 126.294 89.992 126.096 90.5317C126.042 91.1683 125.879 91.7807 125.567 92.3386C125.609 92.4295 125.597 92.5023 125.525 92.5751C125.579 93.0965 125.302 93.5392 125.2 94.0243C125.103 94.5093 125.007 94.9884 124.911 95.4734C124.821 95.9585 124.731 96.4436 124.64 96.9287C124.538 97.5108 124.436 98.0868 124.328 98.6689C124.081 99.536 124.267 100.476 123.846 101.313C123.792 102.004 123.973 102.731 123.558 103.374L123.467 104.775C123.522 105.108 123.509 105.436 123.287 105.721C123.203 106.6 123.437 107.522 122.992 108.358C123.01 108.437 122.992 108.51 122.944 108.577C122.974 108.941 122.758 109.189 122.493 109.535C122.21 108.935 122.355 108.437 122.613 107.952C122.643 107.776 122.667 107.607 122.697 107.431C122.613 106.727 122.956 106.085 122.974 105.393C122.914 105.042 122.932 104.708 123.179 104.417L123.293 103.083C123.377 102.489 123.461 101.901 123.546 101.307C123.738 100.433 123.642 99.4996 124.105 98.6871C124.105 98.0929 123.955 97.4744 124.358 96.9348C124.376 96.4375 124.237 95.91 124.616 95.4734C124.664 94.9823 124.532 94.4548 124.899 94.0243C124.929 93.521 124.863 92.9995 125.2 92.5629C125.23 92.375 125.254 92.187 125.284 92.0051C125.362 91.1926 125.464 90.3861 125.813 89.6403C126.288 87.4271 126.776 85.22 127.233 83.0068C127.311 82.6369 127.437 82.4065 127.828 82.3155C128.839 82.073 129.837 81.788 131.064 81.4606C130.734 82.2974 130.475 82.9462 130.222 83.595C130.132 83.8254 130.054 84.0133 129.735 84.0073V83.9951ZM130.15 90.9682C130.12 91.0531 130.09 91.1986 130.048 91.1986C129.934 91.2047 129.891 91.1077 129.958 91.0046C130.006 90.9318 130.114 90.8227 130.15 90.8348C130.186 90.853 130.204 90.853 130.216 90.853C130.192 90.853 130.156 90.8652 130.15 90.9622V90.9682ZM133.278 83.9163C132.899 84.5651 132.55 85.2321 132.189 85.893C132.141 86.4388 131.822 86.8693 131.582 87.3362C131.473 87.6211 131.371 87.9061 131.263 88.1851L130.974 89.034L130.715 89.9192C130.589 90.2588 130.499 90.6226 130.156 90.8288C130.174 90.4286 130.036 89.992 130.397 89.6585C130.433 89.3432 130.409 89.0036 130.685 88.7611C130.715 88.4397 130.722 88.1123 130.968 87.8576C130.992 87.5363 130.998 87.2028 131.251 86.9542C131.323 86.3296 131.479 85.7354 131.834 85.2079C132.135 83.8921 132.737 82.6672 132.953 81.3272C132.989 81.0846 133.043 80.836 133.278 80.7148C134.517 80.0842 135.732 79.3869 137.188 79.3808C137.332 79.3808 137.476 79.405 137.615 79.4354C138.282 79.5809 138.427 79.8598 138.024 80.4116C136.821 82.0609 136.009 83.9042 135.311 85.8082C135.449 86.178 135.143 86.4327 135.07 86.748C135.064 87.0936 134.938 87.3907 134.697 87.6454C134.325 87.3119 134.493 87.0269 134.77 86.7541C134.8 86.3478 134.685 85.9052 135.064 85.5838C135.064 85.1593 135.082 84.7349 135.052 84.3105C135.022 83.8436 134.758 83.4858 134.325 83.3585C133.855 83.2251 133.506 83.5101 133.278 83.9042V83.9163ZM139.455 85.0441C138.547 87.0694 137.651 89.1007 136.749 91.1259C136.791 91.3684 136.682 91.5503 136.508 91.7019C136.532 91.9687 136.484 92.1991 136.255 92.3628C136.291 92.4538 136.273 92.5205 136.195 92.5751C136.231 92.8297 136.159 93.042 135.955 93.1996C135.991 93.2966 135.967 93.3815 135.888 93.4482C135.931 93.6968 135.852 93.903 135.66 94.0667C135.696 94.1577 135.678 94.2425 135.6 94.3092C135.371 95.2309 135.143 96.1586 134.908 97.0803C134.86 97.2683 134.836 97.4683 134.74 97.626C134.601 97.8503 134.337 97.8928 134.108 97.8079C133.885 97.723 133.928 97.5108 134 97.3289C134.499 96.0373 134.734 94.6609 135.329 93.4058C135.293 93.3088 135.311 93.2178 135.389 93.145C135.347 92.8904 135.407 92.6781 135.612 92.5084C135.576 92.4174 135.594 92.3386 135.672 92.2719C135.63 92.0172 135.69 91.7989 135.9 91.6352C135.864 91.5443 135.882 91.4654 135.961 91.4048C135.918 91.1501 135.991 90.9379 136.195 90.7803C136.159 90.6832 136.183 90.6044 136.261 90.5377C136.219 90.2891 136.297 90.0829 136.49 89.9253C137.272 87.13 138.276 84.4196 139.66 81.8668C139.888 81.4424 140.135 81.024 140.315 80.5814C140.815 79.3323 140.803 79.3262 142.379 78.9321C141.765 81.1999 140.37 83.0129 139.455 85.0502V85.0441ZM146.042 76.8765C146.042 77.1251 145.928 77.3192 145.765 77.495C145.765 77.7315 145.675 77.9195 145.476 78.0529C145.103 78.9806 144.688 79.8901 144.382 80.836C144.213 81.3636 143.84 81.5819 143.425 81.8062C143.239 82.0124 143.052 82.2185 142.866 82.4247C142.782 82.6248 142.643 82.8795 142.433 82.7643C142.228 82.6551 142.415 82.4853 142.565 82.3944C142.685 81.9699 142.74 81.5152 143.1 81.1999C143.311 80.5692 143.588 79.9568 143.72 79.3141C143.888 78.4834 144.376 77.9983 145.103 77.6951C145.224 77.4101 145.422 77.1979 145.711 77.0827C145.681 77.0099 145.687 76.9372 145.735 76.8705C145.825 76.6461 145.879 76.3005 146.216 76.4703C146.355 76.543 146.192 76.7735 146.036 76.8705L146.042 76.8765Z" fill="#0D070B"/>
</g>
<path fill-rule="evenodd" clip-rule="evenodd" d="M189.759 151.265C189.36 151.731 188.64 151.731 188.241 151.265L187.481 150.378C186.76 149.537 185.639 149 184.5 149C182.513 149 181 150.521 181 152.466C181 153.131 181.273 154.022 181.907 155.12C182.527 156.196 183.404 157.319 184.395 158.406C186.022 160.193 187.835 161.756 188.999 162.7C190.164 161.755 191.977 160.191 193.605 158.403C194.595 157.315 195.473 156.192 196.094 155.117C196.728 154.018 197 153.128 197 152.466C197 150.521 195.487 149 193.5 149C192.361 149 191.24 149.537 190.519 150.378L189.759 151.265ZM187.642 147.914C186.715 147.335 185.622 147 184.5 147C181.42 147 179 149.405 179 152.466C179 157.111 186.301 163.142 188.426 164.8C188.769 165.067 189.231 165.067 189.574 164.799C191.699 163.141 199 157.103 199 152.466C199 149.405 196.58 147 193.5 147C192.378 147 191.285 147.335 190.358 147.914C189.847 148.233 189.387 148.625 189 149.077C188.613 148.625 188.153 148.233 187.642 147.914Z" fill="#0D070B"/>
<path d="M200.125 11.5861C200.505 10.8971 201.495 10.8971 201.875 11.586L207.463 21.709C207.745 22.2196 208.402 22.3817 208.889 22.0605L218.541 15.6938C219.198 15.2605 220.075 15.7207 220.092 16.5075L220.335 28.0677C220.347 28.6509 220.854 29.0998 221.435 29.0417L232.94 27.8898C233.723 27.8114 234.285 28.6264 233.934 29.3308L228.778 39.6799C228.517 40.202 228.757 40.835 229.298 41.0533L240.021 45.3801C240.751 45.6746 240.87 46.6577 240.232 47.1183L230.856 53.8855C230.384 54.2268 230.302 54.8989 230.679 55.3435L238.163 64.1578C238.672 64.7577 238.321 65.6837 237.542 65.795L226.096 67.43C225.518 67.5124 225.134 68.0696 225.261 68.6387L227.792 79.9212C227.964 80.6891 227.223 81.3458 226.481 81.0823L215.586 77.2105C215.036 77.0152 214.437 77.3298 214.285 77.8931L211.282 89.0591C211.078 89.8191 210.116 90.0561 209.582 89.4782L201.734 80.9866C201.338 80.5583 200.662 80.5583 200.266 80.9866L192.418 89.4782C191.884 90.0561 190.922 89.8191 190.718 89.0591L187.715 77.8931C187.563 77.3298 186.964 77.0152 186.414 77.2105L175.519 81.0823C174.777 81.3458 174.036 80.6891 174.208 79.9212L176.739 68.6387C176.866 68.0696 176.482 67.5124 175.904 67.43L164.458 65.795C163.679 65.6837 163.328 64.7577 163.837 64.1578L171.321 55.3435C171.698 54.8989 171.616 54.2268 171.143 53.8855L161.768 47.1183C161.13 46.6577 161.249 45.6746 161.979 45.3801L172.702 41.0533C173.243 40.835 173.483 40.202 173.222 39.6799L168.066 29.3308C167.715 28.6264 168.277 27.8114 169.06 27.8898L180.565 29.0417C181.146 29.0998 181.653 28.6509 181.665 28.0677L181.908 16.5075C181.925 15.7207 182.802 15.2605 183.459 15.6938L193.111 22.0605C193.598 22.3817 194.255 22.2196 194.537 21.709L200.125 11.5861Z" fill="white" stroke="#0274D7" stroke-width="3"/>
<path d="M186.116 44.344C186.116 42.4 186.668 40.9 187.772 39.844C188.9 38.788 190.352 38.26 192.128 38.26C193.904 38.26 195.344 38.788 196.448 39.844C197.552 40.9 198.104 42.4 198.104 44.344C198.104 46.288 197.552 47.788 196.448 48.844C195.344 49.9 193.904 50.428 192.128 50.428C190.352 50.428 188.9 49.9 187.772 48.844C186.668 47.788 186.116 46.288 186.116 44.344ZM210.56 38.656L196.7 64H190.76L204.62 38.656H210.56ZM192.092 41.86C190.94 41.86 190.364 42.688 190.364 44.344C190.364 45.976 190.94 46.792 192.092 46.792C192.644 46.792 193.076 46.588 193.388 46.18C193.7 45.772 193.856 45.16 193.856 44.344C193.856 42.688 193.268 41.86 192.092 41.86ZM203.252 58.312C203.252 56.368 203.804 54.868 204.908 53.812C206.012 52.756 207.452 52.228 209.228 52.228C211.004 52.228 212.444 52.756 213.548 53.812C214.652 54.868 215.204 56.368 215.204 58.312C215.204 60.256 214.652 61.756 213.548 62.812C212.444 63.868 211.004 64.396 209.228 64.396C207.452 64.396 206.012 63.868 204.908 62.812C203.804 61.756 203.252 60.256 203.252 58.312ZM209.192 55.828C208.64 55.828 208.208 56.032 207.896 56.44C207.608 56.848 207.464 57.472 207.464 58.312C207.464 59.944 208.04 60.76 209.192 60.76C209.744 60.76 210.176 60.556 210.488 60.148C210.8 59.74 210.956 59.128 210.956 58.312C210.956 57.496 210.8 56.884 210.488 56.476C210.176 56.044 209.744 55.828 209.192 55.828Z" fill="#0D070B"/>
<ellipse cx="33.2101" cy="102.541" rx="30.8261" ry="19.2337" transform="rotate(-4.39772 33.2101 102.541)" fill="white" stroke="#0274D7" stroke-width="3"/>
<path d="M16.0677 102.011C16.2796 101.504 16.63 101.066 17.1188 100.698C17.6075 100.33 18.1957 100.091 18.8833 99.9835C19.7013 99.8551 20.4748 99.9462 21.2038 100.257C21.9328 100.567 22.5475 101.078 23.0479 101.789C23.5601 102.498 23.8962 103.363 24.0563 104.382C24.2164 105.402 24.1623 106.333 23.894 107.177C23.6357 108.007 23.2081 108.688 22.6112 109.219C22.0125 109.738 21.3042 110.062 20.4862 110.19C19.7868 110.3 19.1548 110.26 18.5904 110.069C18.0241 109.866 17.5565 109.557 17.1875 109.141L17.4053 110.528L14.3646 111.006L12.2981 97.8473L15.3389 97.3697L16.0677 102.011ZM20.9623 104.868C20.8431 104.109 20.5366 103.55 20.0429 103.19C19.5591 102.817 19.0089 102.679 18.3925 102.775C17.7879 102.87 17.3067 103.171 16.9488 103.676C16.6027 104.18 16.4893 104.811 16.6084 105.57C16.7276 106.329 17.0291 106.895 17.5129 107.268C18.0085 107.64 18.5586 107.778 19.1632 107.683C19.7678 107.588 20.2491 107.288 20.6069 106.782C20.963 106.265 21.0814 105.627 20.9623 104.868ZM34.1397 97.7334L35.698 107.656L32.6572 108.133L32.445 106.782C32.2056 107.269 31.8407 107.691 31.35 108.047C30.8694 108.39 30.309 108.611 29.6688 108.712C28.9101 108.831 28.2142 108.77 27.5812 108.53C26.9464 108.277 26.4186 107.856 25.998 107.266C25.5774 106.676 25.2992 105.948 25.1633 105.083L24.2529 99.286L27.2758 98.8113L28.122 104.199C28.2262 104.863 28.4791 105.352 28.8806 105.665C29.2821 105.979 29.7733 106.09 30.3542 105.999C30.9469 105.906 31.3863 105.648 31.6724 105.227C31.9585 104.805 32.0494 104.263 31.9451 103.599L31.099 98.2109L34.1397 97.7334ZM45.9262 95.8824L42.0007 111.494L38.7288 112.008L40.2118 106.601L34.6701 97.6501L38.0665 97.1167L41.335 102.962L42.6365 96.399L45.9262 95.8824ZM50.0213 92.16L51.0033 100.733L48.4249 101.138L46.7316 92.6766L50.0213 92.16ZM50.4734 105.481C49.94 105.565 49.4771 105.48 49.085 105.225C48.7028 104.958 48.4754 104.592 48.4027 104.13C48.3283 103.656 48.4319 103.233 48.7135 102.86C49.0071 102.486 49.4206 102.257 49.954 102.174C50.4756 102.092 50.9275 102.185 51.3097 102.453C51.7038 102.719 51.938 103.089 52.0125 103.563C52.0851 104.025 51.9747 104.444 51.6811 104.818C51.3976 105.178 50.995 105.399 50.4734 105.481Z" fill="#0D070B"/>
<defs>
<clipPath id="clip0_384_19928">
<rect width="76" height="100" fill="white" transform="translate(74 19)"/>
</clipPath>
</defs>
</svg>
