<svg width="191" height="88" viewBox="0 0 191 88" fill="none" xmlns="http://www.w3.org/2000/svg">
<g clip-path="url(#clip0_384_19932)">
<path fill-rule="evenodd" clip-rule="evenodd" d="M158.445 39.2865C148.175 39.17 138.853 38.5614 129.673 36.7421C123.618 35.5443 117.672 33.7768 112.017 31.2C110.035 30.3001 108.157 29.2318 106.601 27.6714C105.962 27.0305 105.368 26.383 105.762 25.373C105.905 25.0159 105.707 24.7904 105.514 24.5701C105.473 24.5228 105.431 24.4758 105.394 24.4278C104.613 23.4178 104.27 22.3042 104.193 21.0028C104.064 18.8727 104.148 16.7621 104.425 14.6579C104.819 11.6085 106.246 9.22589 108.731 7.26415C112.824 4.03342 117.601 2.71265 122.514 1.74796C132.41 -0.194357 142.384 -0.472756 152.403 0.686161C159.388 1.48899 166.263 2.79681 172.919 5.1276C176.443 6.36421 179.761 8.01518 182.647 10.4301C184.719 12.1653 186.288 14.2306 186.695 17.0016C186.908 18.4454 186.817 19.9022 186.656 21.333C186.54 22.3106 186.817 22.848 187.637 23.3207C188.58 23.858 189.361 24.635 189.987 25.5349C191.427 27.6002 191.381 29.8663 189.826 31.8474C188.819 33.1358 187.489 34.0164 186.043 34.735C183.441 36.0299 180.665 36.8003 177.838 37.4219C171.15 38.8916 164.359 39.2736 158.452 39.2865H158.445ZM115.439 5.17939C113.528 5.78799 111.752 6.64908 110.158 7.87274C109.106 8.5655 108.389 9.56903 107.718 10.592C106.588 12.3077 106.627 14.0752 107.647 15.8298C108.273 16.911 109.106 17.8304 110.068 18.6008C113.728 21.5272 117.93 23.366 122.385 24.6738C122.455 24.7072 122.525 24.743 122.594 24.7786C122.752 24.8604 122.909 24.9414 123.075 24.991C127.949 26.4478 132.933 27.406 137.968 28.0534C144.624 28.9145 151.312 29.0764 158.006 28.6815L158.38 28.6589C160.82 28.5122 163.267 28.3651 165.656 27.7491L166.056 27.7038C166.495 27.7945 166.883 27.6455 167.264 27.4578C170.743 26.9269 174.106 25.9557 177.354 24.6026C179.122 23.8645 180.807 22.9646 182.26 21.6956C182.306 21.6556 182.358 21.6182 182.412 21.5803C182.634 21.4214 182.873 21.2512 182.738 20.828C182.06 20.8345 181.485 20.9899 180.904 21.4172C180.142 21.974 179.303 22.4466 178.438 22.8351C175.481 24.1623 172.505 25.4702 169.342 26.26C168.716 26.4154 168.092 26.5724 167.467 26.7294C166.842 26.8864 166.218 27.0434 165.592 27.1988C165.249 27.1276 164.927 27.147 164.662 27.4125L164.094 27.5031C157.019 28.4613 149.93 28.7915 142.804 28.1959L141.822 28.1506C140.541 27.9004 139.245 27.7824 137.95 27.6645C137.301 27.6054 136.652 27.5464 136.006 27.4707C133.727 27.2053 131.468 26.8816 129.221 26.3571C127.989 26.069 126.798 25.6632 125.61 25.258C124.769 24.9713 123.929 24.6849 123.075 24.4407C122.588 24.2246 122.101 24.0061 121.615 23.7876C120.497 23.286 119.38 22.7842 118.247 22.3106C115.71 21.2488 113.437 19.7468 111.262 18.0958C110.281 17.3448 109.383 16.4966 108.602 15.5255C107.776 14.5025 107.614 13.4213 107.989 12.1976C108.234 11.3948 108.634 10.6891 109.177 10.0546C109.497 9.67916 109.804 9.28758 110.111 8.89547L110.111 8.89511C110.281 8.67878 110.451 8.46229 110.623 8.24826C111.707 7.38716 112.914 6.75914 114.199 6.24767C114.407 6.16582 114.622 6.10015 114.836 6.03449C115.3 5.89239 115.764 5.7504 116.162 5.44484C118.686 4.75856 121.21 4.07227 123.798 3.65143C125.025 3.45292 126.232 3.16264 127.44 2.87237C129.028 2.49048 130.617 2.10861 132.249 1.93572C136.155 1.55874 140.074 1.5534 143.987 1.54806L144.547 1.54726C141.855 1.22354 139.15 1.27533 136.451 1.3336C136.044 1.34219 135.637 1.34287 135.229 1.34354C133.794 1.3459 132.357 1.34827 130.945 1.69617C125.606 2.117 120.403 3.12053 115.432 5.17292L115.439 5.17939ZM152.932 27.1211C153.249 27.1553 153.567 27.2064 153.885 27.2574C154.591 27.3707 155.296 27.4839 155.986 27.4125C159.827 27.024 163.668 26.6161 167.464 25.8068C170.453 25.1659 173.364 24.3825 176.153 23.1135C176.65 22.8851 177.13 22.6279 177.612 22.3704L177.612 22.3703C178.249 22.0292 178.887 21.6874 179.568 21.4107C181.569 20.5885 182.35 18.4908 182.034 16.27C181.743 14.2176 180.652 12.7415 178.974 11.6538C178.154 11.1229 177.295 10.6308 176.411 10.2229C171.389 7.91806 166.237 5.90452 160.802 4.85567C156.257 3.98163 151.673 3.16585 147 3.19175C145.545 3.19981 144.09 3.15881 142.635 3.1178C140.584 3.05999 138.532 3.00215 136.477 3.08169C131.552 3.26945 126.749 4.19528 121.972 5.30241C119.357 5.911 116.762 6.53902 114.257 7.53607C112.243 8.33242 110.81 9.76974 109.603 11.479C108.699 12.7609 108.77 13.8098 109.745 15.014C110.623 16.1082 111.668 17.0275 112.837 17.8109C117.459 20.9251 122.52 23.107 127.84 24.635C133.677 26.3066 139.713 26.7129 145.738 27.1184L146.354 27.16C146.36 27.1603 146.366 27.1608 146.372 27.1614L146.391 27.1634L146.409 27.1656L146.41 27.1656C146.529 27.18 146.689 27.1993 146.683 26.9722C146.422 26.71 146.167 26.4402 145.912 26.1702C144.882 25.0805 143.851 23.9899 142.397 23.3983C142.126 23.2883 141.867 23.0552 141.68 22.8156C141.086 22.0646 140.26 21.8315 139.376 21.6891C138.656 21.5707 137.942 21.6192 137.224 21.6679C137.117 21.6751 137.01 21.6824 136.903 21.6891C135.444 21.7797 134.005 21.7474 132.804 20.7115C132.556 20.4935 132.245 20.4025 131.933 20.3112C131.846 20.2858 131.76 20.2605 131.674 20.2324C131.184 20.0754 130.695 19.9135 130.206 19.7516L130.205 19.7516C128.738 19.266 127.271 18.7805 125.761 18.426C124.896 18.2253 124.108 17.8304 123.476 17.1894C122.456 16.16 122.469 15.0917 123.54 14.0946C123.793 13.8631 124.069 13.6552 124.343 13.449C124.475 13.3495 124.606 13.2505 124.734 13.1494C123.889 11.7056 123.973 11.3883 125.29 10.5337C126.478 9.75632 127.79 9.26737 129.1 8.7792L129.102 8.77834L129.103 8.77812C129.287 8.70966 129.47 8.64121 129.654 8.57198C130.538 8.24178 131.351 7.85979 132.016 7.16056C132.701 6.42895 133.591 6.02106 134.534 5.69734C136.07 5.17939 137.652 4.98516 139.259 5.03696C140.66 5.08228 142.048 4.95926 143.417 4.68734C145.728 4.22118 148.026 4.20176 150.311 4.83625C150.682 4.93823 151.057 5.03117 151.431 5.12417L151.431 5.12427C152.008 5.26742 152.584 5.4107 153.152 5.58728C154.85 6.12465 156.528 6.33831 158.323 6.01459C160.627 5.60023 162.59 6.52607 164.191 8.15114C165.127 9.10288 165.792 10.2618 165.308 11.6538C164.83 13.0199 163.577 13.3048 162.319 13.4925C161.907 13.5527 161.495 13.6123 161.084 13.6718L161.072 13.6735L161.066 13.6744L161.061 13.6751L161.06 13.6753L161.06 13.6753L161.059 13.6753L161.059 13.6753L161.059 13.6753L161.059 13.6754L161.059 13.6754L161.059 13.6754L161.054 13.676C160.148 13.8072 159.243 13.9382 158.336 14.0752C158.262 14.0859 158.185 14.0934 158.107 14.101C157.71 14.1396 157.286 14.1808 157.199 14.6514C157.119 15.1007 157.484 15.3246 157.821 15.5313C157.892 15.5748 157.962 15.6175 158.026 15.6614C159.097 16.393 160.246 17.0016 161.466 17.416C163.149 17.9865 164.842 18.53 166.535 19.0736L166.535 19.0737L166.535 19.0738L166.535 19.0739L166.536 19.0739L166.536 19.074L166.536 19.0741L166.536 19.0742L166.537 19.0742L166.537 19.0743L166.538 19.0745L166.538 19.0747L166.539 19.075L166.54 19.0752L166.54 19.0754L166.541 19.0756L166.542 19.0758L166.542 19.076L166.543 19.0763C167.595 19.414 168.647 19.7519 169.697 20.0964C169.825 20.1392 169.971 20.1635 170.118 20.1882C170.55 20.2607 170.997 20.3356 171.059 20.8863C171.131 21.4936 170.668 21.7308 170.223 21.9595C170.103 22.0209 169.985 22.0816 169.878 22.1488C169.709 22.2545 169.519 22.3243 169.328 22.3943C169.226 22.4314 169.124 22.4687 169.026 22.5114C168.674 22.6616 168.32 22.8075 167.966 22.9535C167.176 23.2793 166.384 23.6055 165.617 23.981C164.049 24.745 162.396 25.2435 160.718 25.6709C158.174 26.3248 155.579 26.7327 152.932 27.1146V27.1211ZM169.1 21.2085C169.218 21.2461 169.336 21.2838 169.455 21.3192C169.449 21.3319 169.443 21.3442 169.438 21.3561C169.43 21.3724 169.424 21.3877 169.418 21.4018C169.401 21.4436 169.388 21.4739 169.368 21.4819C168.566 21.8112 167.777 22.1754 166.988 22.5398C164.799 23.5509 162.607 24.5627 160.13 24.8292C159.513 24.8948 158.897 24.9647 158.281 25.0345L158.28 25.0346C155.677 25.33 153.079 25.6246 150.428 25.5932C148.129 25.5673 146.548 24.5832 145.082 23.107C144.095 22.1099 143.023 21.2424 141.738 20.6467C140.647 20.1417 139.556 19.7792 138.31 19.954C137.644 20.0464 136.981 19.9315 136.316 19.8165C135.957 19.7544 135.598 19.6922 135.238 19.6626C135.05 19.6497 134.799 19.5655 134.695 19.4231C133.748 18.1371 132.399 17.4547 131.05 16.7726C130.525 16.5068 130 16.2412 129.499 15.9398C129.183 15.7488 128.85 15.588 128.52 15.4284C128.391 15.3662 128.263 15.3041 128.137 15.2406C128.692 13.24 128.595 12.9551 126.949 11.6732C126.939 11.329 127.179 11.2825 127.398 11.24C127.471 11.2258 127.542 11.212 127.601 11.1876C129.602 10.346 131.552 9.45897 133.101 7.82742C134.135 6.73301 135.637 6.57658 137.042 6.43017L137.116 6.42248L137.519 6.37981C139.947 6.12244 142.376 5.8651 144.798 5.50311C146.444 5.25708 148.091 5.45779 149.704 5.8851C150.996 6.22177 152.3 6.55844 153.604 6.85626C154.708 7.10876 155.818 7.30299 156.973 7.10229C159.394 6.68793 161.17 7.85979 162.583 9.64672C163.461 10.7538 163.197 11.3495 161.828 11.7121C161.061 11.9164 160.285 12.0915 159.508 12.2668L159.507 12.267C159.127 12.3527 158.747 12.4385 158.368 12.5278C158.284 12.5473 158.199 12.5652 158.115 12.5832C157.945 12.6192 157.776 12.6552 157.613 12.7026C156.735 12.9616 155.966 13.363 155.766 14.3666C155.553 15.4089 156.212 16.0175 156.948 16.5355C158.303 17.4937 159.801 18.1929 161.344 18.7886C163.648 19.682 166.011 20.4266 168.419 21.0093C168.648 21.0645 168.873 21.1364 169.1 21.2085ZM136.432 30.2528C136.757 30.3218 137.153 30.4063 137.638 30.493C137.591 30.8602 137.542 31.2274 137.493 31.5946C137.394 32.3328 137.295 33.071 137.213 33.8092C137.174 34.1976 136.981 34.3724 136.639 34.3724C136.403 34.3762 136.168 34.3561 135.932 34.3359L135.932 34.3359C135.761 34.3213 135.59 34.3067 135.418 34.3012C134.908 34.2818 134.682 34.0358 134.728 33.5243C134.744 33.3463 134.752 33.1667 134.76 32.9871C134.768 32.8073 134.776 32.6276 134.792 32.4496C134.83 32.0522 134.854 31.7163 134.874 31.4339L134.874 31.4331C134.927 30.6868 134.953 30.3143 135.149 30.1673C135.344 30.0207 135.707 30.0981 136.432 30.2528ZM113.094 27.0613L113.094 27.0604L113.094 27.0602C113.156 26.5531 113.212 26.0875 113.237 25.6191C113.249 25.3787 113.342 25.133 113.433 24.8916C113.588 24.4826 113.738 24.0858 113.482 23.748C113.217 23.3935 112.768 23.1802 112.32 22.9676C112.147 22.885 111.973 22.8026 111.811 22.7121C111.733 22.6687 111.632 22.666 111.523 22.6631C111.469 22.6617 111.414 22.6602 111.359 22.6538C111.249 23.34 111.139 23.9938 111.029 24.6477L111.029 24.6479C110.801 26.0248 111.288 27.0521 112.488 27.7297C112.571 27.7777 112.671 27.8022 112.797 27.8329C112.858 27.8477 112.925 27.864 112.998 27.8851V27.8916C113.029 27.6 113.062 27.3258 113.094 27.0627L113.094 27.0613ZM121.274 26.9787C121.261 26.9921 121.246 27.0044 121.232 27.0163C121.199 27.0443 121.169 27.0698 121.165 27.1017C121.1 27.4837 121.037 27.8657 120.974 28.2477C120.911 28.6297 120.848 29.0116 120.784 29.3936C120.569 30.6885 121.096 31.4892 122.365 31.7956C122.454 31.8169 122.552 31.7934 122.66 31.7675L122.66 31.7674C122.716 31.7539 122.775 31.7398 122.837 31.7309C122.766 30.572 122.791 29.426 122.959 28.3059C123.069 27.5743 122.843 27.2247 122.133 27.147C122.022 27.135 121.919 27.088 121.817 27.0414C121.644 26.9627 121.473 26.8852 121.274 26.9787ZM133.303 33.0695C133.309 33.3223 133.314 33.5864 133.314 33.8664C132.946 33.8087 132.634 33.7696 132.37 33.7365C131.711 33.6539 131.352 33.6089 131.179 33.406C130.972 33.1644 131.027 32.6989 131.147 31.6789C131.161 31.5632 131.175 31.4405 131.19 31.3101C131.233 30.9059 131.3 30.5047 131.366 30.1044C131.399 29.9083 131.431 29.7125 131.461 29.5166C133.482 29.7347 133.482 29.7368 133.331 31.5183L133.327 31.569C133.283 32.0484 133.293 32.5336 133.303 33.0695ZM115.051 24.5378C114.903 25.5673 114.761 26.5384 114.619 27.5031C114.49 28.4009 114.834 29.0354 115.652 29.4066C115.671 29.4158 115.691 29.4253 115.71 29.4347C115.923 29.5376 116.135 29.6406 116.413 29.5102C116.434 29.196 116.443 28.8773 116.452 28.5572V28.557V28.5568V28.5567V28.5565V28.5564V28.5562V28.5561V28.5559V28.5557C116.472 27.801 116.492 27.0389 116.678 26.3118C116.917 25.3536 116.607 24.9716 115.794 24.745C115.668 24.7109 115.543 24.6749 115.416 24.6381C115.302 24.6051 115.186 24.5715 115.064 24.5378H115.051ZM139.731 33.8851C140.69 33.7633 141.1 33.7113 141.294 33.4791C141.438 33.3062 141.463 33.0332 141.506 32.5569L141.506 32.5562L141.506 32.5533L141.506 32.5524C141.522 32.3721 141.541 32.1627 141.571 31.9186C141.706 30.8115 141.577 30.7338 140.441 30.6497C139.924 30.6108 139.524 30.6432 139.46 31.2906C139.425 31.6424 139.341 31.9866 139.256 32.3391C139.131 32.8495 139.003 33.3774 139.014 33.971L139.021 33.9775C139.284 33.942 139.518 33.9122 139.726 33.8858L139.728 33.8855L139.73 33.8852L139.731 33.8851ZM129.027 32.8898C129.049 32.5987 129.069 32.3017 129.09 32.0009L129.09 31.9966L129.09 31.9961V31.9958L129.09 31.9897C129.131 31.3976 129.172 30.7905 129.228 30.1835L129.231 30.1498C129.337 28.9857 129.338 28.9843 128.014 28.8304C127.952 29.1474 127.899 29.4671 127.845 29.7871C127.729 30.4735 127.614 31.1613 127.42 31.828C127.188 32.6373 127.549 32.838 128.201 32.9287L128.227 32.9328L128.255 32.9377L128.296 32.9452L128.318 32.9493C128.531 32.9891 128.749 33.0299 129.027 32.8769V32.8898ZM108.447 21.5443L108.447 21.544L108.447 21.5438V21.5438C108.497 21.211 108.547 20.8763 108.594 20.5387C109.662 20.9593 109.977 21.5224 109.745 22.5308C109.598 23.1747 109.574 23.8496 109.549 24.5297L109.549 24.5303C109.539 24.8347 109.528 25.1401 109.506 25.4443C108.047 24.868 108.021 24.8421 108.176 23.489C108.253 22.8433 108.349 22.1977 108.447 21.5446L108.447 21.5443ZM118.02 27.2389L118.019 27.2395C117.93 27.8617 117.843 28.4647 117.763 29.0699C117.588 30.3573 117.595 30.3583 119.14 30.5973L119.144 30.5979C119.17 30.2884 119.194 29.9783 119.218 29.6681C119.277 28.9009 119.336 28.1324 119.428 27.3671L119.437 27.2949C119.558 26.2796 119.558 26.2776 118.208 25.9169C118.145 26.3672 118.083 26.8016 118.021 27.227L118.02 27.2328L118.02 27.2361L118.02 27.238L118.02 27.2389ZM169.859 31.4849L169.859 31.4809C169.898 31.9005 169.962 32.5059 170.026 33.1117L170.027 33.1164C170.065 33.4725 169.897 33.7574 169.594 33.8415C169.187 33.9516 168.916 33.6862 168.813 33.2977C168.535 32.2424 168.593 31.1611 168.71 30.0929C168.748 29.7368 168.929 29.3548 169.387 29.4131C169.814 29.4649 169.943 29.8145 169.93 30.2094C169.921 30.4615 169.906 30.7106 169.886 31.0261L169.886 31.0267C169.878 31.1636 169.869 31.3131 169.859 31.4809L169.859 31.4784V31.4849ZM178.874 28.2399L178.874 28.2374L178.875 28.2348C178.913 27.9864 178.952 27.7367 179.006 27.4902C179.084 27.1276 178.942 26.8557 178.612 26.7715C178.225 26.6744 177.896 26.8298 177.786 27.2506C177.496 28.3577 177.476 29.4843 177.741 30.5979C177.831 30.9669 178.044 31.2777 178.49 31.2065C178.942 31.1352 179.006 30.7921 178.967 30.3972C178.932 30.0226 178.903 29.6456 178.875 29.2662C178.857 29.0291 178.839 28.791 178.819 28.552L178.825 28.5455C178.842 28.4441 178.858 28.3421 178.874 28.2399ZM124.315 31.4654C124.257 32.2424 124.315 32.3201 124.928 32.4366C125.593 32.5596 125.696 32.2165 125.709 31.6597C125.729 30.7338 125.813 29.808 126.058 28.9081C126.2 28.3836 125.993 28.1894 125.483 28.0793C124.883 27.9434 124.786 28.2671 124.722 28.7203C124.592 29.6332 124.45 30.5526 124.308 31.4654H124.315ZM159.556 33.6797H159.601V34.7674C159.601 35.1558 159.717 35.5119 160.175 35.5119C160.627 35.5119 160.782 35.1558 160.808 34.7803C160.885 33.7574 160.937 32.728 160.989 31.6985C161.008 31.2906 160.86 30.9669 160.414 30.9475C160.059 30.9345 159.859 31.2065 159.814 31.5367C159.741 32.0405 159.684 32.5476 159.627 33.0534C159.604 33.2625 159.58 33.4714 159.556 33.6797ZM106.292 19.1102L106.292 19.1207C106.231 20.1701 106.172 21.1808 106.097 22.1876C106.039 22.9775 106.446 23.353 107.15 23.6055C107.174 23.2885 107.183 22.9766 107.192 22.671C107.211 21.9968 107.23 21.3538 107.408 20.7568C107.763 19.5526 107.343 18.8274 106.349 18.1476C106.33 18.4726 106.311 18.7932 106.292 19.1102ZM156.954 33.7639H156.909C156.905 33.6865 156.901 33.609 156.898 33.5313L156.89 33.3699L156.89 33.3693L156.89 33.3687L156.89 33.3682V33.3677C156.872 32.9861 156.854 32.6027 156.825 32.2229C156.799 31.8798 156.612 31.6144 156.27 31.6014C155.934 31.5885 155.676 31.8474 155.637 32.1647C155.514 33.1423 155.669 34.107 155.824 35.0652C155.87 35.3307 156.083 35.5119 156.38 35.486C156.67 35.4601 156.838 35.2335 156.877 34.981C156.92 34.6797 156.931 34.3746 156.942 34.0687C156.946 33.9672 156.949 33.8655 156.954 33.7639ZM182.26 25.9752H182.208C182.182 26.2341 182.156 26.4866 182.124 26.7456C182.118 26.8028 182.109 26.862 182.1 26.9218C182.045 27.2819 181.988 27.6658 182.447 27.788C183.047 27.9498 183.293 27.4384 183.344 26.9787C183.423 26.2194 183.433 25.4551 183.443 24.6902L183.446 24.5092L183.448 24.363C183.448 24.0328 183.286 23.7609 182.905 23.748C182.544 23.735 182.299 23.9551 182.273 24.2853C182.241 24.683 182.247 25.0806 182.254 25.4782C182.257 25.6439 182.26 25.8095 182.26 25.9752ZM172.886 30.5979H172.938C172.935 30.6291 172.932 30.6604 172.929 30.6916L172.922 30.7624C172.915 30.8299 172.908 30.8972 172.901 30.9646L172.901 30.965C172.875 31.2046 172.85 31.4433 172.841 31.6791C172.828 32.0417 172.828 32.4431 173.338 32.469C173.79 32.4949 173.99 32.1647 174.055 31.8021C174.216 30.8892 174.261 29.9569 174.203 29.0311C174.184 28.7138 174.094 28.4031 173.693 28.3772C173.325 28.3577 173.106 28.5714 173.054 28.9081C172.999 29.2767 172.966 29.651 172.933 30.0234L172.933 30.0241L172.933 30.0247L172.933 30.0252L172.933 30.0258L172.933 30.0264L172.933 30.0271C172.916 30.216 172.899 30.4044 172.88 30.5914L172.886 30.5979ZM164.113 32.8251H164.139C164.139 32.9435 164.138 33.0627 164.136 33.1821V33.1833V33.1835V33.1838V33.184V33.1843V33.1845V33.1847V33.185V33.1852C164.133 33.4237 164.13 33.6632 164.139 33.8998C164.152 34.2624 164.191 34.6379 164.701 34.6314C165.166 34.6314 165.333 34.2624 165.353 33.9192C165.398 33.2376 165.4 32.556 165.402 31.8744C165.402 31.6885 165.403 31.5025 165.404 31.3165C165.404 30.9799 165.237 30.695 164.901 30.6561C164.468 30.6043 164.249 30.9151 164.204 31.2971C164.161 31.6649 164.146 32.0362 164.131 32.4083C164.126 32.5472 164.12 32.6861 164.113 32.8251ZM143.52 33.2071C144.751 33.0344 145.397 32.3524 145.457 31.1611L145.389 31.1434C143.829 30.7331 143.794 30.7238 143.52 33.2071ZM183.506 14.0817C184.046 15.4723 184.09 16.9119 184.133 18.3451L184.133 18.3466L184.133 18.348L184.133 18.3494L184.133 18.3508L184.133 18.3522L184.133 18.3536L184.133 18.355L184.133 18.3565C184.142 18.6477 184.151 18.9386 184.164 19.2288C185.191 17.3383 184.816 15.6355 183.506 14.0817ZM148.468 31.1748L148.389 31.1756C148.251 31.177 148.119 31.1784 147.987 31.1741C147.29 31.1482 147.284 31.7115 147.309 32.1194C147.339 32.5406 147.626 32.4801 147.898 32.4227C147.981 32.4051 148.063 32.3878 148.136 32.3848C148.284 32.38 148.428 32.3364 148.571 32.293C148.622 32.2777 148.673 32.2624 148.723 32.2488C148.813 32.2231 148.915 32.2074 149.017 32.1916C149.378 32.136 149.752 32.0782 149.692 31.569C149.636 31.1132 149.335 31.1487 149.035 31.184C148.884 31.2019 148.733 31.2197 148.614 31.1741H148.607C148.56 31.1741 148.513 31.1744 148.468 31.1748ZM151.564 31.2583L151.59 31.6338L153.255 31.3942C152.674 31.1676 152.112 31.0446 151.564 31.2583ZM82.1087 88.0193C73.6778 87.9999 65.2985 87.4431 57.0483 85.5461C53.2202 84.6656 49.476 83.5261 45.9383 81.7845C44.0791 80.8716 42.3297 79.7774 40.8578 78.2883C39.5925 77.0064 38.6436 75.5367 38.5209 73.6915C38.4785 73.1147 38.1637 72.8283 37.8159 72.5119L37.7462 72.4484C37.3406 72.0753 36.9294 71.7091 36.5183 71.3429C35.2743 70.2349 34.0318 69.1282 32.9498 67.8386C31.5037 66.1164 30.5612 64.213 30.4257 61.9728C30.3805 61.2153 30.0964 60.8787 29.3863 60.7168C27.4561 60.2895 25.6938 59.4284 23.983 58.4508C20.7101 56.5861 17.45 54.6891 14.4095 52.4555C14.1159 52.2393 13.816 52.028 13.5154 51.8163L13.5154 51.8163L13.5153 51.8162L13.5153 51.8162L13.5153 51.8162L13.5152 51.8161L13.515 51.816C11.9251 50.6961 10.3162 49.5628 9.52909 47.6191C9.47614 47.4917 9.30597 47.3991 9.15387 47.3163C9.12051 47.2981 9.08803 47.2805 9.05783 47.263C8.8998 47.1691 8.72584 47.0911 8.55521 47.0147L8.50266 46.9911C3.60936 44.8545 1.29828 40.8922 0.588168 35.7904L0.570249 35.6594C0.499203 35.139 0.427695 34.6152 0.284757 34.1135C-0.393074 31.7892 0.19438 29.7174 1.50485 27.7945C3.04127 25.5349 5.10059 23.8192 7.36003 22.3301C11.3495 19.695 15.7006 17.8174 20.2259 16.3348C27.256 14.0299 34.4733 12.5732 41.8003 11.602C48.7852 10.6762 55.7959 10.4172 62.8131 10.7862C70.0627 11.1682 77.1508 12.4113 83.8711 15.3442C86.3758 16.4384 88.5901 17.8692 90.191 20.1482C90.2348 20.2112 90.2795 20.2732 90.324 20.3351C90.5222 20.6104 90.7171 20.8811 90.8172 21.2036C91.0199 21.8441 91.2481 22.4768 91.4763 23.1094C92.0184 24.6122 92.5604 26.1148 92.7603 27.7233C92.9058 28.9031 92.9521 28.9084 94.0648 29.0359L94.1354 29.044C102.702 30.0411 110.958 32.1777 118.776 35.8551C122.204 37.4672 125.4 39.4549 128.201 42.0187C131.119 44.6927 133.301 47.8327 134.231 51.7498C134.566 53.1676 134.67 54.592 134.592 56.0552C134.547 56.9001 134.562 57.7483 134.577 58.5971V58.5972C134.598 59.8167 134.619 61.0373 134.463 62.2512C134.386 62.8339 134.741 63.0929 135.128 63.3583C135.941 63.9216 136.658 64.582 137.271 65.3654C139.201 67.8257 139.324 70.4931 137.633 73.1282C136.548 74.8116 135.076 76.0935 133.443 77.2136C130.525 79.2141 127.323 80.6256 124.005 81.791C116.717 84.3419 109.209 85.8957 101.559 86.8086C95.0972 87.5791 88.6159 88.0517 82.1022 88.0193H82.1087ZM56.9644 72.9728C55.9444 72.5779 54.918 72.2153 53.8464 71.9758C53.6799 71.9056 53.514 71.8343 53.3481 71.763C52.948 71.591 52.5483 71.4192 52.1421 71.2636C48.4302 69.8327 44.8538 68.1235 41.7035 65.6503C38.3466 63.0152 35.6095 59.9334 34.809 55.5438C34.7121 54.9934 34.4346 54.7345 33.9375 54.6373C33.8162 54.6152 33.6961 54.5748 33.5745 54.5339C33.269 54.431 32.955 54.3253 32.5947 54.5014C33.0853 57.4602 34.4346 59.9722 36.3648 62.1865C40.9546 67.4566 46.9196 70.4478 53.4526 72.4937C54.2305 72.9198 55.0805 73.1345 55.9307 73.3493L55.9307 73.3493L56.1316 73.4001C57.3906 73.9126 58.7014 74.2407 60.0116 74.5687L60.0116 74.5687L60.0117 74.5687L60.0118 74.5687L60.0119 74.5687L60.012 74.5688L60.012 74.5688L60.0121 74.5688L60.0122 74.5688L60.0123 74.5689L60.0124 74.5689L60.0126 74.569L60.0128 74.569L60.0129 74.569L60.0131 74.5691L60.0132 74.5691L60.0134 74.5692L60.0136 74.5692L60.0137 74.5693C60.7719 74.759 61.5298 74.9487 62.2773 75.1741C62.4135 75.1975 62.5503 75.2192 62.6872 75.2409C63.0043 75.2911 63.3218 75.3413 63.6329 75.4137C66.9576 76.1388 70.308 76.6762 73.6907 77.0452C73.7407 77.0549 73.7907 77.065 73.8407 77.0751C73.9908 77.1055 74.1409 77.1359 74.291 77.1553C80.2882 77.8092 86.2983 77.6927 92.302 77.3884L92.4878 77.379L92.7235 77.3674H92.7236C94.3738 77.2862 96.0356 77.2044 97.6536 76.7927L97.6546 76.7926C97.9383 76.7732 98.222 76.7538 98.4993 76.728C98.8479 76.8186 99.1707 76.7474 99.4741 76.5532C101.224 76.4043 102.954 76.1259 104.632 75.5885C104.994 75.6555 105.337 75.5683 105.681 75.4808L105.681 75.4808L105.683 75.4804C105.737 75.4666 105.791 75.4528 105.846 75.4396C110.068 74.436 114.148 73.0246 118.092 71.2312C121.197 69.8198 124.141 68.117 126.775 65.9222C129.06 64.0123 130.964 61.7915 132.107 59.0011C133.133 56.4955 133.398 53.9252 132.501 51.3095C132.236 49.924 131.603 48.7133 130.712 47.632C129.292 45.3595 127.452 43.4949 125.219 42.0187C122.624 39.688 119.59 38.0953 116.42 36.7292C116.339 36.6841 116.26 36.6364 116.18 36.5886L116.18 36.5885L116.18 36.5885L116.18 36.5884L116.18 36.5883L116.18 36.5883C116.042 36.5058 115.904 36.4233 115.761 36.3536C109.002 33.2395 101.798 31.7439 94.5098 30.5785C94.3064 30.5461 94.1031 30.5154 93.8998 30.4846C93.6964 30.4538 93.493 30.4231 93.2897 30.3907C92.7732 30.3066 92.7022 30.6497 92.6506 31.0382C92.5989 31.4525 92.8249 31.582 93.1799 31.6079C93.3051 31.6184 93.4292 31.6309 93.5531 31.6435C93.7359 31.662 93.9184 31.6805 94.1031 31.6921C98.3896 31.9575 102.573 32.8445 106.711 33.9452C109.796 34.7664 112.768 35.9131 115.739 37.0591L115.739 37.0592L115.739 37.0593L115.891 37.1176C118.912 38.5873 121.778 40.3095 124.438 42.3684C126.297 44.2589 128.053 46.2336 129.279 48.6226C129.783 49.9175 130.119 51.2512 130.415 52.6044C130.525 56.3401 129.292 59.5708 126.858 62.3807C125.703 63.7144 124.425 64.8993 123.011 65.9481C120.894 67.5149 118.628 68.8292 116.258 69.9817C113.147 71.4902 109.855 72.5131 106.562 73.5296C105.271 73.821 103.978 74.1107 102.686 74.4004C101.393 74.6902 100.1 74.9799 98.8092 75.2712C98.6807 75.2774 98.5516 75.2796 98.4225 75.2819C98.1428 75.2868 97.8629 75.2917 97.5891 75.336C93.167 76.0352 88.7127 76.3266 84.2455 76.4819C82.1661 76.5537 80.0949 76.4603 78.023 76.3669C76.9174 76.317 75.8116 76.2672 74.7042 76.2424L74.1861 76.1774L74.186 76.1774C70.2849 75.6881 66.3801 75.1983 62.5226 74.4296L61.5638 74.1748L61.5585 74.1734L61.5387 74.1681L61.5242 74.1643C60.006 73.7609 58.4906 73.3582 56.9708 72.9599L56.9644 72.9728ZM49.6051 76.5467C49.926 75.9858 50.0931 75.3772 50.2581 74.7761L50.2582 74.776L50.2582 74.776L50.2582 74.7759L50.2582 74.7758L50.2582 74.7757L50.2583 74.7756L50.2583 74.7755L50.2583 74.7754L50.2583 74.7753C50.3123 74.5788 50.3661 74.383 50.4249 74.19C49.7987 73.8015 49.2565 73.5814 48.6496 73.439C48.5397 73.7659 48.4393 74.0849 48.3412 74.3968L48.341 74.3973L48.3409 74.3976L48.3408 74.3979L48.3407 74.3984C48.1164 75.1113 47.904 75.7864 47.6168 76.4302C47.2294 77.2977 47.7007 77.5179 48.3527 77.6991C49.2694 78.1394 49.2758 78.1394 49.5018 77.2654C49.5421 77.1034 49.5607 76.9321 49.5791 76.7622C49.5872 76.6876 49.5952 76.6133 49.6051 76.5402V76.5467ZM108.092 38.3348C109.196 38.9563 110.339 39.5067 111.539 39.921C111.857 40.1017 112.175 40.2809 112.494 40.4601C114.914 41.8227 117.335 43.1855 119.338 45.1653C119.372 45.6072 119.403 46.0491 119.434 46.4909C119.486 47.2274 119.538 47.9639 119.602 48.7003C119.676 49.5268 119.728 50.3556 119.78 51.1843L119.78 51.1845L119.78 51.1846L119.78 51.1848L119.78 51.185L119.78 51.1852L119.78 51.1854L119.78 51.1856L119.78 51.1857L119.78 51.1859C119.883 52.8169 119.985 54.4479 120.254 56.0617C120.262 56.3285 120.271 56.5947 120.281 56.8608L120.281 56.8628V56.8629V56.8631V56.8633V56.8634V56.8636V56.8638V56.864V56.8641V56.8643C120.308 57.5721 120.334 58.2784 120.306 58.9881C120.28 59.6485 120.177 60.296 119.602 60.7945C116.982 63.0541 114.173 65.0158 110.952 66.3301C109.48 66.9322 108.015 67.5343 106.549 68.1429C105.983 68.2811 105.418 68.4235 104.853 68.5659C103.722 68.8508 102.592 69.1357 101.456 69.386C94.8842 70.8233 88.2156 71.4254 81.4954 71.4643C80.9618 71.4276 80.4282 71.3889 79.8945 71.3502L79.8923 71.35L79.8901 71.3498L79.8878 71.3497L79.8868 71.3496H79.8867H79.8865H79.8864H79.8862H79.8861H79.886H79.8858H79.8857C78.5368 71.2517 77.187 71.1536 75.8339 71.0888C74.4647 71.0225 73.1121 70.8348 71.7596 70.6471L71.7594 70.6471C70.7336 70.5047 69.7077 70.3624 68.6747 70.273C67.7064 70.0496 66.7365 69.8279 65.7665 69.6061C64.7966 69.3844 63.8266 69.1626 62.8583 68.9393C62.6095 68.8624 62.3622 68.7809 62.115 68.6995C61.3426 68.445 60.5715 68.191 59.7596 68.0782C59.5751 68.0082 59.3915 67.9352 59.2082 67.8624C58.9169 67.7467 58.6261 67.6312 58.333 67.5279C55.344 66.5114 52.4907 65.223 49.7794 63.5849C47.0358 61.934 44.757 59.8363 43.085 57.0911C43.0541 57.041 43.025 56.9896 42.9961 56.9385C42.8491 56.679 42.7049 56.4244 42.349 56.3595C41.051 56.1325 39.7563 55.9022 38.4696 55.6733C37.9582 55.5823 37.4479 55.4916 36.9393 55.4013C36.7643 55.873 36.8858 56.2145 37.0016 56.5402C37.0225 56.5989 37.0432 56.6572 37.062 56.7156C37.8689 59.1953 39.3666 61.2153 41.271 62.931C45.4864 66.738 50.4249 69.2242 55.8088 70.8751C56.577 71.2118 57.3646 71.4708 58.1974 71.5873C60.3406 72.3189 62.5226 72.8692 64.782 73.1153C67.6289 73.8015 70.5146 74.19 73.4325 74.3583C74.4395 74.6303 75.4595 74.695 76.4988 74.6173H77.3832C77.4381 74.6262 77.4935 74.636 77.549 74.6459C77.6962 74.6721 77.8448 74.6986 77.9901 74.708C83.8 75.0446 89.5907 74.8051 95.349 73.9958C95.6086 73.9592 95.8685 73.9233 96.1284 73.8874L96.1286 73.8874C98.4018 73.5731 100.68 73.2582 102.87 72.5261C105.387 72.0276 107.86 71.3801 110.229 70.3636C114.89 68.9328 119.189 66.8157 122.966 63.695C124.438 62.4778 125.767 61.1117 126.781 59.4737C127.736 57.9328 128.505 56.3142 128.518 54.4496C128.756 52.7921 128.518 51.2124 127.698 49.7427C126.704 46.9781 124.722 45.0293 122.436 43.333C119.809 41.1447 116.898 39.4549 113.683 38.296C112.784 37.7318 111.791 37.4133 110.796 37.0943L110.795 37.0941C110.626 37.0398 110.456 36.9854 110.287 36.9299C109.196 36.4313 108.06 36.0882 106.879 35.894C106.709 35.6934 106.477 35.6404 106.246 35.5876C106.179 35.5722 106.111 35.5569 106.046 35.5379C102.712 34.572 99.3038 33.9757 95.8951 33.3792C95.3967 33.292 94.8983 33.2048 94.4 33.1164C94.2329 33.0861 94.0599 33.0421 93.886 32.9978C93.4286 32.8813 92.9649 32.7632 92.586 32.8898C92.1993 33.0166 92.1403 33.3947 92.0784 33.7915C92.0328 34.0837 91.9856 34.3859 91.8049 34.6056C91.7882 34.6265 91.8229 34.6881 91.8617 34.7571L91.8617 34.7572L91.8618 34.7574C91.8829 34.7949 91.9052 34.8346 91.9211 34.871C92.3703 34.9007 92.8218 34.92 93.2747 34.9392C94.104 34.9746 94.9377 35.01 95.7686 35.1106C99.0545 35.512 102.237 36.3407 105.381 37.3377C105.833 37.5061 106.287 37.6762 106.74 37.8462C107.194 38.0161 107.647 38.186 108.099 38.3542L108.092 38.3348ZM58.6041 13.1947C50.7283 13.1947 43.9436 13.745 37.2104 14.8004C29.7543 15.9658 22.4724 17.7915 15.4682 20.6468C12.1178 22.0128 8.88353 23.5991 6.01082 25.8392C4.77781 26.7974 3.68037 27.8916 2.89279 29.2512C1.5565 31.5626 1.80181 33.6991 3.63518 35.622C4.09352 36.1076 4.61642 36.5414 5.14578 36.9428C6.72738 38.1341 8.52202 38.9175 10.3683 39.5908C16.5914 41.8634 23.0728 42.6921 29.6381 42.9381C34.8993 43.1388 40.1542 42.9381 45.4025 42.4396C51.9872 41.8245 58.5008 40.808 64.9111 39.2024C71.2828 37.6097 77.4478 35.4472 83.0383 31.8734C84.4779 30.954 85.84 29.9375 87.0084 28.6815C87.8606 27.7686 88.5836 26.7651 89.0161 25.5802C89.7521 23.5667 89.1775 21.3525 87.5959 19.954C84.6134 17.306 81.0435 15.914 77.2219 15.0658C70.7405 13.6285 64.1623 13.2336 58.6041 13.1882V13.1947ZM44.7047 57.6177L44.7047 57.6177C44.4986 57.2913 44.2795 56.9443 44.0267 56.5814C47.8695 57.1234 51.3711 57.0522 54.8728 56.9746C55.9444 56.9552 56.6158 58.0947 56.1639 59.1694L56.1488 59.2055C55.7923 60.0544 55.4382 60.8979 55.2472 61.798C54.9954 62.9764 55.3828 63.585 56.5641 63.7727C57.9069 63.9799 59.2561 63.8763 60.5537 63.4943C64.0332 62.4584 67.4353 62.4649 70.8438 63.8504C73.5809 64.9575 76.4859 65.4819 79.4038 65.8639C80.327 65.987 81.2566 65.9934 82.1733 65.7798C83.3436 65.5036 84.514 65.2332 85.6844 64.9627C86.2699 64.8274 86.8554 64.6921 87.441 64.5561C88.0542 64.4137 88.603 64.1353 89.113 63.7727C89.61 63.4166 89.9134 62.9699 89.8618 62.3354C89.8011 61.5769 89.9482 60.8463 90.0952 60.1167L90.0952 60.1166C90.1828 59.6816 90.2703 59.2469 90.3137 58.8068C90.4043 57.8576 90.966 57.184 91.5335 56.5036L91.5336 56.5034L91.5337 56.5033L91.5338 56.5032L91.5339 56.5031L91.534 56.503L91.5341 56.5029L91.5342 56.5028L91.5343 56.5027C91.6942 56.3109 91.8546 56.1185 92.005 55.9193C92.883 54.7474 93.9094 54.1194 95.4265 54.3395C96.9758 54.5661 98.0668 53.7374 98.9125 52.4037C99.5128 52.9087 99.4806 53.446 99.2869 53.9769C99.0222 54.6891 99.0609 55.3948 99.1642 56.12C99.5064 58.4313 99.7452 60.7427 98.9447 63.0152C98.7382 63.5914 98.9447 64.0446 99.4354 64.3425C99.8291 64.5885 100.249 64.8086 100.688 64.951C101.546 65.2359 101.882 65.0676 102.282 64.2518C102.339 64.1343 102.39 64.0131 102.44 63.8921C102.552 63.6265 102.662 63.3627 102.831 63.1447C103.509 62.2901 103.754 61.3124 103.728 60.2506C103.683 58.4767 104.2 56.9034 105.252 55.479C105.697 54.8769 106.149 54.3978 106.917 54.21C109.177 53.6597 110.113 50.5908 109.015 48.3248C108.318 46.881 107.395 45.6185 106.072 44.492C107.24 43.6827 108.254 42.9316 108.802 41.708C108.977 41.3325 109.383 41.0929 109.971 41.3648C112.391 42.4826 114.676 43.8361 116.96 45.1892L116.96 45.1892L117.291 45.3854C117.797 45.6843 117.809 46.1108 117.82 46.5409V46.5412C117.822 46.6049 117.824 46.6686 117.827 46.7321C117.947 49.0285 118.056 51.3277 118.165 53.626L118.165 53.6355L118.165 53.6446L118.166 53.6536L118.166 53.663C118.221 54.8126 118.275 55.9619 118.331 57.1106C118.338 57.2794 118.337 57.451 118.336 57.6227C118.332 58.0303 118.329 58.4378 118.447 58.8068C118.77 59.791 118.318 60.3737 117.64 60.9369C114.948 63.1771 111.895 64.7762 108.641 65.9934C102.114 68.4278 95.349 69.6903 88.3899 69.9622C79.4167 70.3118 70.5533 69.5867 61.8577 67.243C58.0102 66.2006 54.4015 64.5755 50.8381 62.7951C49.5893 62.1735 48.5424 61.3429 47.4957 60.5125C47.0923 60.1924 46.6889 59.8724 46.274 59.5644C45.6303 59.0836 45.2062 58.4119 44.7048 57.6178L44.7047 57.6177ZM108.299 40.7044C107.385 40.2386 106.463 39.9251 105.551 39.6147C105.258 39.5153 104.967 39.4161 104.677 39.3124C104.438 39.2283 104.129 39.1506 103.974 39.4225C103.783 39.7522 103.474 39.9318 103.164 40.112C102.853 40.2928 102.541 40.4741 102.347 40.808C101.908 41.5655 101.249 41.9669 100.32 42.0058C99.7065 42.0317 99.2223 42.2777 99.1384 43.1323C99.0674 43.8251 98.8285 44.6344 98.0087 45.0034C97.7542 45.1216 97.6545 45.3744 97.5564 45.6232C97.5202 45.7152 97.4841 45.8066 97.4406 45.8904C96.7111 47.3536 96.0075 47.645 94.4581 47.0558C92.5408 46.3307 91.0884 45.1005 90.3008 42.9122C87.583 48.0917 83.0577 50.6103 77.9191 52.2548C73.9941 53.5108 70.0046 54.5532 65.9763 55.4466C64.0109 55.8831 62.0184 56.163 59.9987 56.4468L59.9987 56.4468L59.9986 56.4468L59.9986 56.4468L59.9985 56.4468L59.9985 56.4469L59.9984 56.4469L59.9984 56.4469L59.9984 56.4469L59.9983 56.4469L59.9974 56.447C59.2313 56.5547 58.4613 56.6629 57.6874 56.7804C58.249 57.9975 58.0166 59.0529 57.3711 60.0823C56.9837 60.6974 56.6932 61.3642 56.577 62.0894C56.506 62.5426 56.6093 62.8987 57.2226 62.8404C57.4887 62.8165 57.7547 62.7957 58.0207 62.7749L58.0211 62.7748C58.9812 62.6997 59.9405 62.6246 60.8958 62.4066C64.2785 61.6297 67.6289 61.5779 70.8954 63.0476C73.2914 64.1238 75.8721 64.3887 78.4443 64.6527C78.7967 64.6889 79.149 64.7251 79.5007 64.7633C81.3924 64.9694 83.1641 64.4704 84.9364 63.9712C85.8918 63.7021 86.8473 63.4329 87.8218 63.2742C88.59 63.1512 88.887 62.5426 88.8999 61.6556C88.9193 59.1241 89.5261 56.8451 91.3982 54.8898C92.5989 53.6403 93.7674 52.9928 95.4458 53.2324C96.4464 53.3748 97.2663 53.1288 97.8279 52.1965C98.1184 51.7109 98.5316 51.2189 99.1965 51.3937C99.9389 51.5879 100.191 52.2483 100.339 52.9151C100.404 53.213 100.442 53.5561 100.359 53.8345C100.077 54.7356 100.154 55.6275 100.232 56.5295V56.5295C100.247 56.7034 100.262 56.8776 100.275 57.0523C100.339 57.9583 100.354 58.8682 100.369 59.7789L100.369 59.7798L100.369 59.7806L100.369 59.7813C100.374 60.0607 100.378 60.3402 100.384 60.6197C100.397 61.3966 100.313 62.1671 100.113 62.9181C99.9844 63.4111 100.344 63.5849 100.681 63.7482C100.716 63.765 100.751 63.7817 100.785 63.7986L100.802 63.8072C101.022 63.9177 101.349 64.0823 101.456 63.7921C101.584 63.4344 101.795 63.1137 102.007 62.7929C102.361 62.2544 102.716 61.7158 102.676 61.0017C102.653 60.5791 102.646 60.1588 102.639 59.7381V59.738V59.7378V59.7377V59.7376V59.7374V59.7373V59.7372V59.737L102.639 59.7363V59.7358C102.634 59.4353 102.629 59.1346 102.618 58.8327C102.547 56.7545 103.548 55.0582 104.6 53.4007C104.91 52.9151 105.439 52.6367 106.026 52.5461C106.846 52.4231 107.33 51.8857 107.518 51.1541C107.989 49.3348 108.008 47.5673 106.569 46.0911C106.454 45.9734 106.333 45.8624 106.212 45.7514C106.067 45.6181 105.921 45.4849 105.788 45.3401C104.923 44.3948 104.942 43.7927 105.975 43.0482C106.859 42.4072 107.595 41.6562 108.286 40.7109L108.299 40.7044ZM101.624 38.3478C98.2217 37.4737 94.9423 36.7162 91.3918 36.8004C91.6407 37.662 91.6276 38.4533 91.6148 39.2274C91.6106 39.477 91.6065 39.7249 91.6113 39.9728C91.6145 40.1382 91.6152 40.3054 91.6159 40.4736C91.6206 41.6356 91.6256 42.8434 92.4827 43.7992C93.2058 44.6085 94.0837 45.243 95.0198 45.7933C95.5427 46.1041 95.9817 46.13 96.3302 45.5797C96.5788 45.1863 96.8853 44.8358 97.1921 44.485C97.7538 43.8426 98.3164 43.1993 98.5251 42.2907C98.6542 41.7144 99.132 41.1835 99.784 41.0346C100.423 40.8857 100.701 40.4714 100.914 39.9146C101.035 39.5933 101.182 39.2838 101.354 38.9234C101.438 38.7463 101.528 38.5569 101.624 38.3478ZM57.5357 80.3751C57.4286 80.7514 57.3192 81.1357 57.2038 81.53C56.9385 81.4398 56.6582 81.3717 56.3836 81.3049C55.6971 81.1379 55.0465 80.9797 54.7566 80.509C54.4689 80.0413 54.7404 79.4821 55.0146 78.9171L55.0147 78.917C55.1466 78.6452 55.2792 78.372 55.3505 78.107C55.3763 78.0099 55.4086 77.9128 55.4409 77.8157L55.4427 77.8104C55.7677 76.888 55.9274 76.4347 56.2334 76.2894C56.5289 76.1491 56.9608 76.2962 57.8098 76.5852L57.81 76.5853L57.8102 76.5853L57.8102 76.5854L57.8488 76.5985C58.3717 76.7733 58.5976 76.9675 58.3846 77.5826C58.0734 78.4865 57.8122 79.4037 57.5363 80.373L57.5357 80.3751ZM26.5846 46.9263V47.7033C26.5846 48.7133 27.0731 49.2312 28.05 49.2571H28.0501C28.1534 49.2571 28.2566 49.2571 28.3599 49.2701C29.0054 49.3413 29.3218 49.0694 29.3347 48.4025C29.3411 48.014 29.3589 47.6272 29.3766 47.2403C29.3944 46.8535 29.4121 46.4666 29.4186 46.0782C29.438 44.9844 29.4315 44.984 28.3547 44.9129L28.3534 44.9128C27.157 44.8308 26.5653 45.4005 26.5782 46.622V46.9328L26.5846 46.9263ZM22.2594 44.5567V47.6126C22.2594 47.6471 22.2601 47.6817 22.2608 47.7162V47.7163C22.2623 47.7853 22.2637 47.8543 22.2594 47.9234C22.1884 48.4413 22.4531 48.6226 22.9308 48.7392C24.7964 49.1988 24.9707 49.0823 25.0353 47.2306C25.0998 45.4221 24.1767 44.5308 22.2659 44.5567H22.2594ZM53.175 79.8745C53.2744 79.5267 53.3686 79.1738 53.4634 78.8189C53.6704 78.0443 53.8797 77.2607 54.1498 76.5014C54.4015 75.8021 54.266 75.4978 53.5559 75.2777C53.4107 75.2323 53.2822 75.1903 53.1677 75.1529C52.7129 75.0042 52.482 74.9287 52.3254 75.0053C52.1639 75.0844 52.0816 75.3254 51.9145 75.815L51.9143 75.8157L51.8888 75.8903C51.8709 75.9425 51.8521 75.9972 51.8322 76.0546L51.5224 76.9287C51.0145 78.3617 51.4901 79.3436 52.949 79.8745C52.9765 79.8863 53.0087 79.8838 53.0572 79.88C53.0886 79.8775 53.1268 79.8745 53.175 79.8745ZM31.026 48.519C31.2626 48.4673 31.4882 48.4174 31.7053 48.3693L31.7056 48.3693L31.7057 48.3692C32.4125 48.2128 33.0297 48.0761 33.647 47.9622C34.1118 47.8781 34.3442 47.7033 34.4023 47.1788C34.6024 45.2041 34.5507 45.1264 32.5495 45.0941C32.2913 45.0941 32.0331 45.0941 31.7749 45.0747C31.2778 45.0358 31.0067 45.1977 31.0196 45.7609C31.0374 46.3653 31.0337 46.9696 31.0297 47.6167V47.6169V47.6172V47.6174V47.6177V47.618V47.6182V47.6185V47.6188V47.6191C31.0279 47.9072 31.026 48.2037 31.026 48.5126V48.519ZM20.6068 48.2795C20.7575 47.7251 20.7596 47.1741 20.7616 46.6285V46.6284C20.7625 46.403 20.7633 46.1785 20.7746 45.9552C20.8778 44.1697 20.865 44.1682 19.1006 43.9616L19.0962 43.9611L19.06 43.9563C18.8193 43.9246 18.5705 43.8917 18.3861 44.1877C18.3931 44.3242 18.4019 44.4641 18.4108 44.6066C18.4264 44.8559 18.4424 45.1129 18.4506 45.3725C18.4635 45.8365 18.4572 46.2942 18.4507 46.7582L18.4506 46.7645C18.4377 47.9687 18.4377 47.9752 19.6514 48.2018C19.8525 48.2412 20.0595 48.251 20.2764 48.2613C20.3798 48.2661 20.4855 48.2711 20.5939 48.2795H20.6068ZM58.83 81.7392C60.2589 81.8902 61.1648 81.3658 61.5478 80.1659C61.6165 79.9541 61.6812 79.7412 61.7458 79.5286L61.7459 79.5283C61.8452 79.2015 61.9444 78.8753 62.0578 78.5538C62.0733 78.5093 62.0906 78.4635 62.1081 78.4172C62.2434 78.0596 62.3898 77.6723 61.8125 77.615C61.6842 77.603 61.5432 77.5437 61.3986 77.4829C60.9977 77.3142 60.5693 77.1341 60.3083 77.9193C60.0191 78.8031 59.6666 79.6647 59.2996 80.5618L59.2995 80.562L59.2994 80.5621C59.1422 80.9464 58.9823 81.3373 58.8236 81.7392H58.83ZM68.0752 81.4944C69.4028 81.5093 70.0119 81.5162 70.3683 81.2195C70.6703 80.968 70.7907 80.4983 71.0132 79.6305C71.0503 79.4858 71.0902 79.33 71.1343 79.1623C70.9523 79.1365 70.7704 79.1108 70.5884 79.0852C69.8601 78.9826 69.1319 78.8801 68.4036 78.7609C67.9517 78.6897 67.7839 78.8516 67.7064 79.3048C67.6207 79.7934 67.4877 80.2758 67.3448 80.7938C67.2833 81.017 67.2199 81.2468 67.1577 81.4867H67.1641C67.5007 81.4879 67.803 81.4913 68.0752 81.4944ZM14.616 45.9228V43.3136C14.7293 43.3135 14.8276 43.3101 14.916 43.307H14.9161H14.9162H14.9162H14.9163H14.9163H14.9164H14.9165H14.9165H14.9165C15.072 43.3016 15.1972 43.2972 15.3197 43.3136L15.3225 43.314C16.7464 43.5143 16.7528 43.5152 16.6818 44.8998C16.6495 45.5667 16.6044 46.2271 16.5463 46.894C16.514 47.2759 16.2945 47.386 15.9136 47.3342C14.8614 47.1983 14.616 46.9522 14.616 45.9228ZM84.7296 82.9887H84.6844C84.6844 82.7671 84.6859 82.5462 84.6873 82.3256L84.6873 82.3228C84.6902 81.8804 84.6931 81.4389 84.6844 80.9946C84.678 80.6774 84.5941 80.3666 84.2197 80.3083C83.7678 80.2371 83.5935 80.5543 83.4837 80.9169C83.4385 81.0593 83.4192 81.2212 83.4192 81.3701C83.417 81.7628 83.417 82.1549 83.417 82.5466C83.417 83.3303 83.417 84.1131 83.3998 84.8987C83.3869 85.4101 83.5806 85.6562 84.1035 85.6562C84.6909 85.6562 84.7361 85.2742 84.7296 84.8274C84.7253 84.4198 84.7268 84.015 84.7282 83.6092V83.6085V83.6078V83.6071V83.6064V83.6057V83.6049V83.6042V83.6035V83.6028C84.7289 83.3985 84.7296 83.194 84.7296 82.9887ZM12.5503 46.2854C12.5939 46.2005 12.6324 46.1361 12.6637 46.0835C12.7114 46.0038 12.7426 45.9515 12.7504 45.8969C12.802 45.5408 12.8343 45.1782 12.8666 44.8157C13 43.3827 12.2813 42.5086 10.7105 42.1935C10.7105 42.4552 10.7197 42.7156 10.7288 42.9739C10.7493 43.5532 10.7694 44.1225 10.6846 44.6732C10.5684 45.4113 10.8137 45.7221 11.4722 45.8904C11.7064 45.947 11.9318 46.0386 12.1759 46.1377L12.1759 46.1378L12.1761 46.1378L12.1764 46.1379L12.1767 46.1381L12.1773 46.1383C12.2961 46.1866 12.4194 46.2367 12.5503 46.2854ZM66.3378 78.5214C65.731 78.3919 65.2856 78.2948 64.8401 78.1912C64.5367 78.1264 64.3624 78.2495 64.272 78.5408C64.0509 79.2606 63.8243 79.9777 63.5959 80.7009C63.4709 81.0965 63.3453 81.4939 63.2198 81.8945C64.5066 81.9032 65.3286 81.3895 65.6858 80.3536C65.8451 79.8897 66.0086 79.4299 66.1891 78.9219L66.3314 78.5214H66.3378ZM56.4286 44.725C56.4502 44.8986 56.473 45.0872 56.4972 45.2877L56.4972 45.2878C56.5885 46.0445 56.7002 46.9698 56.8482 47.891C56.9063 48.2342 57.1451 48.5903 57.5906 48.5126C58.0166 48.4349 58.1651 48.0917 58.0941 47.6968C57.8488 46.3307 57.7261 44.9516 57.6422 43.5661C57.6228 43.2165 57.4808 42.9575 57.1129 42.9316C56.7578 42.9122 56.5125 43.1388 56.4479 43.4561C56.4061 43.6447 56.4131 43.8468 56.4231 44.1416L56.4231 44.1418V44.1419V44.142V44.1421V44.1422V44.1423V44.1424V44.1425V44.1426C56.4286 44.3029 56.435 44.4907 56.435 44.7186L56.4286 44.725ZM51.135 45.6962C51.1526 45.8636 51.1721 46.0569 51.1935 46.2692L51.1935 46.2694C51.2507 46.837 51.3216 47.5403 51.4062 48.2471C51.4513 48.6356 51.6515 48.9334 52.0969 48.914C52.5746 48.8881 52.6714 48.5385 52.6392 48.1565C52.5746 47.3061 52.5043 46.4557 52.434 45.6053C52.3989 45.1802 52.3637 44.7552 52.3293 44.3301C52.3035 44.0258 52.0905 43.851 51.8387 43.8251C51.5224 43.7862 51.1996 43.9222 51.1479 44.2783C51.1139 44.5087 51.1191 44.7448 51.1266 45.0847C51.1305 45.2605 51.135 45.4641 51.135 45.7091V45.6962ZM99.2094 80.5414H99.2736C99.2619 80.7411 99.2526 80.9414 99.2433 81.1417L99.2432 81.1431L99.2431 81.1463V81.1465C99.2218 81.6049 99.2004 82.0636 99.1513 82.5161C99.119 82.8528 98.8737 83.0599 98.5187 83.0405C98.1442 83.0211 97.9699 82.7427 97.9699 82.4254C97.9829 81.3572 98.0151 80.2889 98.0732 79.2206C98.0991 78.7868 98.3056 78.3854 98.8221 78.4372C99.486 78.5077 99.3924 78.977 99.2965 79.457L99.2933 79.4731C99.249 79.7134 99.2381 79.9598 99.2273 80.206C99.2224 80.3181 99.2175 80.43 99.2094 80.5414ZM43.2076 74.6173C43.3561 74.1706 43.4723 73.8339 43.5885 73.4972C43.6344 73.3591 43.6754 73.2185 43.7165 73.0778C43.7909 72.8228 43.8654 72.5674 43.9694 72.3254C44.4416 71.2496 44.4242 71.2403 43.5701 70.7861L43.5698 70.786L43.569 70.7855C43.4776 70.7369 43.3767 70.6832 43.2657 70.6226C43.1796 70.5772 43.0808 70.5541 42.9625 70.5264L42.9623 70.5263C42.9122 70.5146 42.8586 70.5021 42.8009 70.4867C42.5818 71.1395 42.3691 71.7665 42.1564 72.3935L42.1554 72.3966C41.8412 73.3246 42.1941 74.067 43.2141 74.6238L43.2076 74.6173ZM37.3721 47.238L37.3722 47.238L37.3723 47.238C37.8706 47.1458 38.3603 47.0551 38.8437 46.9328C39.3922 46.7929 39.3562 46.4047 39.3209 46.0257C39.3089 45.8963 39.297 45.7679 39.3085 45.6509C39.3408 45.3401 39.2827 44.9905 38.863 45.0099C38.6691 45.0181 38.4669 45.0155 38.2635 45.0128C37.6678 45.0049 37.0625 44.997 36.6294 45.2624C36.2772 45.4788 36.3664 45.9662 36.4567 46.4596L36.4567 46.4597C36.4988 46.6898 36.5411 46.9212 36.5391 47.127C36.5391 47.1503 36.5598 47.1735 36.6042 47.2231L36.6042 47.2231C36.634 47.2564 36.6744 47.3016 36.7263 47.3666V47.3601C36.9431 47.3174 37.1583 47.2776 37.3719 47.2381L37.3719 47.238L37.372 47.238L37.372 47.238L37.3721 47.238L37.3721 47.238ZM88.0349 33.2524H88.0413C88.0264 33.0143 88.0135 32.7762 88.0007 32.5383L88.0006 32.5375V32.5374C87.9747 32.0576 87.9489 31.5788 87.9058 31.1029C87.8735 30.7598 87.654 30.5461 87.286 30.572C87.002 30.5914 86.7954 30.7857 86.7825 31.0576C86.7115 32.3913 86.6857 33.7186 86.9633 35.0393C87.0343 35.3695 87.2344 35.5897 87.6024 35.5702C87.9897 35.5508 88.1382 35.253 88.1382 34.9422C88.1382 34.5375 88.1048 34.1328 88.0717 33.7305C88.0587 33.5729 88.0458 33.4156 88.0349 33.2589V33.2524ZM63.0326 46.9522C63.4925 46.0298 63.3702 45.0883 63.248 44.1471C63.1815 43.6351 63.115 43.1231 63.1423 42.6144C63.1617 42.2324 63.0261 41.8569 62.5936 41.831C62.0643 41.7986 61.9093 42.2 61.9222 42.6532L61.9293 42.9187C61.9578 44.0029 61.9864 45.0909 62.2192 46.1624C62.3096 46.5832 62.471 46.9393 63.0326 46.9587V46.9522ZM39.5476 69.2537L39.5455 69.2607L39.5454 69.261L39.5453 69.2613L39.5452 69.2616L39.5451 69.262L39.545 69.2624C39.3586 69.8806 39.1877 70.4474 39.0373 71.0176C38.863 71.665 39.2956 71.9563 39.8056 72.1247L39.8214 72.1298C40.1431 72.2332 40.5892 72.3765 40.7416 71.9434C40.7757 71.8459 40.811 71.7474 40.8466 71.6482L40.8469 71.6475C41.0879 70.9762 41.3409 70.2715 41.2903 69.6061C41.2565 69.1593 40.6315 68.9003 40.0221 68.6477C39.9339 68.6111 39.8461 68.5747 39.7604 68.5379V68.5443C39.6875 68.7897 39.6165 69.0252 39.5476 69.2537ZM85.1035 34.649V34.6489V34.6487C85.0882 34.2476 85.0702 33.7759 85.0201 33.3107C84.9943 33.0517 84.7619 32.8575 84.4779 32.8575C84.2713 32.8575 84.0324 32.9675 83.9937 33.1747C83.7355 34.502 83.7484 35.8227 84.2261 37.1047C84.3229 37.3636 84.5747 37.4608 84.8588 37.4154C85.1815 37.3636 85.2719 37.1047 85.2655 36.8522C85.2572 36.5245 85.2251 36.1968 85.1878 35.8163C85.1669 35.6029 85.1443 35.3729 85.1234 35.117V35.1106C85.1158 34.9729 85.1099 34.8171 85.1035 34.649ZM45.6736 71.9628C45.5491 72.3213 45.4347 72.657 45.3249 72.9795L45.3245 72.9806L45.3244 72.981L45.3238 72.9829L45.3236 72.9833C45.1721 73.4282 45.0291 73.8479 44.8796 74.2677C44.5482 75.1957 44.9162 75.8669 45.9835 76.2812C46.081 75.9594 46.174 75.6362 46.267 75.3132L46.2671 75.3129L46.2672 75.3127L46.2672 75.3124L46.2673 75.3121L46.2674 75.3118L46.2675 75.3116L46.2676 75.3113L46.2676 75.311L46.2677 75.3107C46.47 74.608 46.6721 73.9058 46.9196 73.2188C47.081 72.7786 47.0035 72.552 46.6032 72.3837C46.3722 72.2866 46.1411 72.1806 45.8578 72.0507L45.6801 71.9693L45.6736 71.9628ZM65.9763 42.582C66.0023 42.7929 66.0298 43.0185 66.0585 43.254C66.1152 43.7196 66.1767 44.2241 66.241 44.7315C66.2926 45.1264 66.5767 45.1912 66.9124 45.1718C67.2739 45.1523 67.4934 44.984 67.4675 44.6085C67.3965 43.4366 67.3126 42.2648 67.2158 41.0929C67.1964 40.8145 67.0157 40.5944 66.7381 40.5685C66.3959 40.5361 66.1248 40.7498 66.0731 41.0735C66.0177 41.3932 66.0052 41.7229 65.9908 42.1052V42.1055C65.9851 42.2573 65.979 42.4174 65.9699 42.5885L65.9763 42.582ZM79.5136 36.8651H79.5007C79.5232 37.0766 79.5412 37.2888 79.5591 37.5008C79.5978 37.9571 79.6364 38.4127 79.7202 38.8592C79.8041 39.2995 79.9526 39.8498 80.5723 39.7139C81.0887 39.5973 81.0306 39.1182 80.979 38.6974L80.9553 38.5112L80.9553 38.511C80.8658 37.8082 80.7757 37.1008 80.7401 36.399C80.7373 36.3469 80.7355 36.2939 80.7337 36.2408C80.7188 35.8055 80.7036 35.3638 80.1398 35.3695C79.5588 35.376 79.4748 35.9134 79.4878 36.4054C79.4878 36.5247 79.4992 36.644 79.5103 36.7604V36.7605V36.7606L79.5104 36.7608L79.5174 36.8358L79.52 36.8651H79.5136ZM88.1124 81.9204C88.1342 82.1267 88.1535 82.3196 88.1718 82.5027C88.2184 82.9692 88.2587 83.3723 88.3189 83.7721C88.377 84.1606 88.6159 84.4649 89.0355 84.4066C89.4809 84.3483 89.5067 83.9664 89.5261 83.5844C89.539 83.2163 89.4981 82.8503 89.4573 82.4848C89.3962 81.9372 89.3351 81.3905 89.4551 80.8392C89.5455 80.4119 89.3389 80.127 88.9193 80.0882C88.5061 80.0493 88.2479 80.3277 88.1963 80.7227C88.1549 81.0451 88.1397 81.3709 88.1274 81.6346L88.1274 81.6355L88.1273 81.6368C88.1224 81.7429 88.1179 81.8388 88.1124 81.9204ZM114.296 77.2136H114.354V75.6597C114.354 75.2712 114.302 74.8892 113.844 74.8504C113.425 74.818 113.147 75.1159 113.134 75.5173C113.102 76.7085 113.102 77.8934 113.115 79.0847C113.115 79.4213 113.321 79.6738 113.696 79.6674C114.07 79.6609 114.264 79.4019 114.283 79.0717C114.305 78.6461 114.3 78.2174 114.294 77.7877C114.292 77.5964 114.29 77.405 114.29 77.2136H114.296ZM89.7521 28.1053C89.7813 28.3212 89.8101 28.5404 89.8393 28.7622C89.9326 29.4713 90.0294 30.2062 90.1523 30.941C90.2039 31.2583 90.4299 31.5108 90.8043 31.446C91.0754 31.4007 91.2885 31.1935 91.2949 30.9281C91.3078 29.698 91.1271 28.4808 90.8495 27.283C90.7849 27.0176 90.5396 26.8751 90.2556 26.901C89.9522 26.9269 89.8295 27.1535 89.7908 27.4254C89.7724 27.5683 89.7671 27.7144 89.7609 27.8848C89.7584 27.9538 89.7558 28.0268 89.7521 28.1053ZM76.7571 40.5555C76.7313 40.1705 76.7038 39.7855 76.6764 39.4005L76.6764 39.4003L76.6764 39.4001L76.6763 39.3999L76.6763 39.3997L76.6763 39.3996L76.6763 39.3994L76.6763 39.3992L76.6762 39.399C76.6488 39.014 76.6215 38.6291 76.5957 38.2442L76.5917 38.1763C76.5688 37.7736 76.5446 37.3466 75.9824 37.3895C75.466 37.4284 75.3175 37.8686 75.3304 38.296C75.3691 39.1182 75.4595 39.9405 75.5563 40.7627C75.6144 41.2289 75.8791 41.5655 76.3826 41.4555C76.8345 41.3583 76.7893 40.9246 76.7506 40.5685L76.7571 40.5555ZM7.50743 41.5574L7.50743 41.5574C7.51963 41.9774 7.53081 42.3621 7.48268 42.7439C7.34712 43.8186 7.81191 44.3948 8.92872 44.602C8.96745 44.0258 9.00619 43.4755 9.05138 42.9187C9.12454 41.9518 8.6081 41.2893 7.50205 40.931H7.49559C7.49559 41.1501 7.50163 41.3577 7.50743 41.5574ZM38.0887 70.1496L38.0891 70.1483L38.0891 70.1482C38.1861 69.7551 38.2707 69.4119 38.3401 69.0688C38.5639 68.007 38.1874 67.2149 37.2104 66.6927C36.4745 68.3113 36.737 69.5846 37.998 70.5126V70.519C38.0293 70.3905 38.0596 70.2678 38.0887 70.1496ZM109.642 78.8839H109.642C109.653 79.0537 109.666 79.2227 109.678 79.3915C109.704 79.7292 109.73 80.0659 109.738 80.4054C109.751 80.7162 109.693 81.0399 109.319 81.1176C108.964 81.1953 108.693 80.9687 108.615 80.6709C108.312 79.4213 108.247 78.1523 108.499 76.8898C108.563 76.5661 108.899 76.4302 109.235 76.4949C109.512 76.5467 109.667 76.7668 109.667 77.0452C109.672 77.4548 109.67 77.8615 109.669 78.2691V78.2698C109.668 78.4741 109.667 78.6787 109.667 78.8839H109.642L109.642 78.8775V78.8839ZM92.9863 82.0629H92.9669C92.9669 82.2315 92.9655 82.4001 92.964 82.5689V82.5696V82.5703V82.571V82.5718V82.5725V82.5732V82.5739C92.9612 82.9156 92.9583 83.2582 92.9669 83.6038C92.9734 83.934 93.1025 84.2253 93.464 84.2707C93.9159 84.3289 94.1418 84.0246 94.1547 83.6297C94.2064 82.5031 94.2257 81.3766 94.2322 80.25C94.2322 79.9328 94.0966 79.622 93.7222 79.5897C93.2897 79.5508 93.0315 79.8163 92.9992 80.2177C92.9715 80.657 92.9768 81.0963 92.9821 81.5357C92.9842 81.7114 92.9863 81.8871 92.9863 82.0629ZM71.8638 42.7957C71.8329 42.505 71.8014 42.2248 71.7708 41.9518C71.7051 41.3674 71.6431 40.8158 71.5991 40.2642C71.5668 39.8822 71.5152 39.5131 71.0568 39.5067C70.5533 39.5067 70.379 39.8563 70.3532 40.3224C70.3165 41.0317 70.4414 41.7238 70.5656 42.4128L70.5657 42.413C70.5945 42.5731 70.6234 42.7329 70.6501 42.8928C70.7211 43.3201 70.9535 43.6956 71.47 43.5661C71.8776 43.4668 71.8703 43.1199 71.8649 42.8676V42.8675L71.864 42.8169L71.8638 42.7957ZM104.8 79.8875H104.838C104.826 80.0604 104.815 80.2338 104.804 80.4073L104.804 80.4079L104.804 80.4085L104.804 80.4091L104.804 80.4098L104.804 80.4105L104.804 80.4107L104.804 80.4109L104.804 80.4111L104.804 80.4113L104.804 80.4115L104.804 80.4117L104.804 80.4119L104.804 80.4122L104.804 80.4124C104.777 80.8522 104.75 81.2925 104.69 81.7262C104.645 82.0435 104.413 82.296 104.058 82.2765C103.715 82.2571 103.515 82.0046 103.515 81.655L103.517 81.3884C103.522 80.4996 103.528 79.6109 103.586 78.7221C103.612 78.3595 103.832 78.0293 104.283 78.0423C104.768 78.0617 104.845 78.4113 104.845 78.7998C104.839 79.1621 104.819 79.5245 104.8 79.8868L104.8 79.8875ZM117.756 75.6079V76.1906C117.758 76.2439 117.758 76.2988 117.758 76.3541C117.758 76.7154 117.758 77.0944 118.234 77.1618C118.86 77.2459 118.976 76.7474 119.028 76.2748C119.085 75.7082 119.125 75.1375 119.166 74.5659L119.179 74.3792L119.196 74.1447C119.222 73.8145 119.131 73.5037 118.789 73.4196C118.395 73.3224 118.066 73.4972 117.995 73.9181C117.908 74.4047 117.846 74.8986 117.799 75.2762L117.799 75.2773C117.783 75.4016 117.769 75.5133 117.756 75.6079ZM127.384 69.5321L127.405 69.3572C127.427 69.1712 127.45 68.9743 127.472 68.7774C127.51 68.3825 127.427 68.0264 126.981 67.9616C126.549 67.8969 126.284 68.2206 126.219 68.5702C126.052 69.5285 126.039 70.5061 126.2 71.4708C126.258 71.801 126.562 71.9693 126.904 71.924C127.188 71.8851 127.343 71.665 127.349 71.3801C127.358 71.0436 127.355 70.7071 127.352 70.3522C127.351 70.2199 127.35 70.0851 127.349 69.9467C127.349 69.892 127.349 69.8368 127.349 69.7809H127.356L127.368 69.6722L127.384 69.5321ZM73.3937 81.1824C73.7873 80.9618 74.2481 80.9519 74.7027 80.9421C75.5156 80.9246 76.3083 80.9076 76.6602 79.6868C75.8404 79.5897 75.1367 79.5055 74.4331 79.4213C74.0393 79.3695 73.7359 79.4472 73.6197 79.894C73.5975 79.9781 73.5684 80.0602 73.5381 80.1456L73.538 80.1457L73.538 80.1458L73.538 80.1459L73.538 80.1459L73.5379 80.146L73.5379 80.1461C73.4446 80.4092 73.3401 80.7036 73.3937 81.1824ZM121.41 73.3366L121.412 73.393C121.419 73.6065 121.433 74.0245 121.468 74.4425C121.494 74.7209 121.668 74.9346 121.952 74.9605C122.301 74.9928 122.572 74.7986 122.611 74.4555C122.72 73.4843 122.72 72.5067 122.598 71.542C122.566 71.2765 122.32 71.1147 122.036 71.1082C121.752 71.1082 121.558 71.2765 121.468 71.5355C121.351 71.8717 121.368 72.2167 121.39 72.648C121.4 72.8548 121.412 73.0815 121.41 73.3366ZM130.209 67.12C130.24 66.9225 130.266 66.7714 130.289 66.6389C130.305 66.5498 130.319 66.4691 130.332 66.3884C130.396 65.9934 130.312 65.6568 129.873 65.5726C129.447 65.4884 129.215 65.7474 129.118 66.1423C128.957 66.7898 128.847 67.4437 129.034 68.0976C129.118 68.4019 129.305 68.6932 129.654 68.6803C129.996 68.6674 130.183 68.3954 130.202 68.0588C130.216 67.8092 130.211 67.5597 130.206 67.3547L130.206 67.3531L130.204 67.2775L130.204 67.2314C130.203 67.1916 130.202 67.1543 130.202 67.12H130.209ZM42.1402 46.2126C41.9429 46.2627 41.7398 46.3143 41.5288 46.368C41.2756 45.3935 41.5791 44.8847 42.4394 44.8416C42.8009 44.8286 43.156 44.8157 43.5175 44.7898C43.7822 44.7704 44.0533 44.7833 44.1243 45.1006C44.2018 45.4372 44.0985 45.7091 43.7241 45.8063C43.2143 45.94 42.7011 46.0703 42.1402 46.2126ZM34.441 64.0964C33.4727 66.3301 33.6018 66.6991 34.9639 67.366C35.0033 67.0876 35.0959 66.8066 35.188 66.527C35.473 65.6619 35.7533 64.8108 34.441 64.0964ZM5.43628 39.8951C5.16084 41.4145 5.42552 42.3554 6.23031 42.718C6.52296 41.1382 6.25828 40.1973 5.43628 39.8951ZM32.9885 64.841C33.4598 62.4584 33.3371 62.0505 31.9169 61.306C31.95 61.5042 31.9787 61.7016 32.0073 61.8985C32.1516 62.8914 32.2935 63.8684 32.9885 64.841ZM80.979 79.9975C79.9203 79.7774 79.2037 79.8875 78.8293 80.3277C79.6104 80.3277 80.3012 80.2889 80.979 79.9975ZM48.6045 44.3495C47.9053 44.246 47.3426 44.3545 46.8147 44.4564C46.6163 44.4946 46.4228 44.5319 46.2288 44.5567C46.0997 44.5761 45.9577 44.7056 46.0416 44.8934C46.0997 45.0358 46.1901 45.1912 46.3579 45.1459C46.5292 45.1013 46.7051 45.0685 46.8845 45.0351C47.4357 44.9323 48.0201 44.8233 48.6045 44.3495ZM55.109 21.5474C54.1092 21.5691 53.0801 21.5915 52 21.7538C52.0984 21.5681 52.1902 21.405 52.2744 21.2556L52.2745 21.2555C52.428 20.983 52.5562 20.7555 52.652 20.5172C53.1943 19.177 52.6198 18.4195 51.1543 18.5166C51.0624 18.5243 50.9728 18.5388 50.8828 18.5534L50.8827 18.5534L50.8827 18.5534L50.8826 18.5534L50.8826 18.5534L50.8825 18.5534L50.8825 18.5535L50.8825 18.5535L50.8824 18.5535L50.8822 18.5535C50.8206 18.5635 50.7589 18.5735 50.696 18.5814C48.1332 18.918 45.5897 19.0281 42.9881 18.8209C36.7456 18.3289 30.6386 19.2612 24.6737 21.0999C22.6983 21.7085 20.8391 22.6279 19.122 23.7933C18.0052 24.5508 16.9594 25.3989 16.1912 26.5254C15.0614 28.1894 15.4359 29.8533 17.153 30.8503C17.2279 30.8946 17.3033 30.9366 17.3782 30.9784C17.6652 31.1382 17.9451 31.2942 18.1601 31.5561C19.7094 33.4013 21.8139 34.1847 24.0863 34.5796C25.9261 34.9033 27.7982 34.9745 29.6445 34.8127C32.2977 34.5796 34.7831 35.2141 37.1846 36.1529C38.3595 36.6126 39.2697 36.4636 40.1993 35.7579C40.2472 35.7217 40.2949 35.6852 40.3425 35.6487C40.789 35.3063 41.2317 34.9668 41.8326 34.9551C42.3679 34.9452 42.907 34.9147 43.4463 34.8841L43.4464 34.8841C44.6693 34.8149 45.8938 34.7455 47.0809 34.9163C50.399 35.3889 53.0458 34.2753 55.3698 32.0481C55.8733 31.569 56.4414 31.2841 57.1386 31.187C61.948 30.4878 66.7638 29.9504 71.6313 30.4878C71.6782 30.4929 71.7292 30.4994 71.7824 30.5063L71.7826 30.5063C72.0666 30.5428 72.4125 30.5873 72.5157 30.4619C72.8977 29.9867 73.3773 29.9654 73.8626 29.9439C74.0253 29.9367 74.1886 29.9295 74.3491 29.9051C76.5763 29.5619 77.8674 27.6973 77.338 25.5543C77.2154 25.0558 77.196 24.7709 77.6221 24.3759C78.1514 23.8904 78.2353 23.1523 77.8415 22.5178C76.5956 20.4848 74.9107 19.0605 72.4189 18.931C71.5474 18.8857 70.6759 19.041 69.8109 19.2029C68.3474 19.4713 66.8821 19.7341 65.4164 19.997L65.4157 19.9971L65.415 19.9973L65.4149 19.9973C63.0275 20.4255 60.639 20.8538 58.2554 21.3071C57.2225 21.5015 56.1826 21.5241 55.109 21.5474ZM50.9266 19.9217C50.8014 19.9313 50.6747 19.9394 50.5479 19.9474L50.5475 19.9475C50.42 19.9556 50.2925 19.9636 50.1666 19.9734C49.618 20.0145 49.0688 20.0784 48.5192 20.1424L48.5192 20.1424C47.1677 20.2996 45.8138 20.4572 44.46 20.2777C41.4646 19.8827 38.5015 20.0187 35.5126 20.3359C31.7942 20.7309 28.2178 21.6502 24.7447 23.0163C22.8662 23.7544 21.1167 24.745 19.5093 25.9751C18.8508 26.4801 18.2311 27.0305 17.7728 27.7297C17.2886 28.4807 17.3919 28.8951 18.1795 29.3612C18.2964 29.4307 18.4164 29.4958 18.5361 29.5607C18.9184 29.7681 19.2985 29.9743 19.5739 30.3194C20.1484 31.0381 20.9489 31.3812 21.7623 31.7179C23.5698 32.4689 25.4742 32.5337 27.3851 32.5337C27.6885 32.5337 27.9725 32.5207 28.1855 32.2035C29.0556 30.9295 30.4207 30.6486 31.7752 30.3699L31.7755 30.3699L31.7757 30.3698L31.7759 30.3698L31.7761 30.3697L31.7763 30.3697L31.7765 30.3696L31.7768 30.3696L31.777 30.3696C31.9294 30.3382 32.0817 30.3069 32.2332 30.2741C32.6786 30.177 33.1563 30.2288 33.6017 30.4101C34.4603 30.7597 34.6346 31.2906 34.144 32.087C34.0751 32.1992 33.9833 32.2999 33.8915 32.4006C33.8456 32.451 33.7997 32.5013 33.7567 32.5531C33.7805 32.5726 33.8006 32.5907 33.8186 32.6068C33.8544 32.6389 33.8816 32.6632 33.9116 32.6761C33.9833 32.7025 34.056 32.7262 34.1285 32.7499L34.1286 32.7499C34.2518 32.7902 34.3748 32.8303 34.4926 32.8833C35.5449 33.3365 36.5067 33.5372 37.2168 32.2747C37.3944 31.9576 37.7769 31.7313 38.1309 31.5218L38.1311 31.5218C38.1889 31.4875 38.2461 31.4537 38.3014 31.4201C39.1729 30.8892 39.3472 30.928 40.025 31.7827C40.0478 31.812 40.0714 31.848 40.0955 31.8847C40.167 31.9937 40.2431 32.1095 40.3155 32.0805C40.8096 31.8666 41.3375 31.9055 41.8507 31.9433C42.3164 31.9776 42.7699 32.011 43.1753 31.8539C44.3317 31.4014 45.4506 31.4445 46.6119 31.4892L46.6677 31.4913C48.1977 31.5561 49.5082 31.1093 50.4442 29.8015C50.993 29.031 51.6643 28.3512 52.5939 28.1052C53.6397 27.8203 54.7307 27.7297 55.8152 27.788C57.016 27.8527 58.1909 27.7103 59.34 27.393C61.6446 26.7585 63.9492 26.2859 66.3571 26.5967C67.1705 26.7003 67.7774 26.4607 68.3196 25.7097C69.4881 24.0911 71.0503 23.6702 72.6061 24.9068C73.9171 25.9449 74.8594 25.4676 75.8937 24.9437C76.0206 24.8794 76.1488 24.8144 76.2793 24.7515C76.402 24.6932 76.5182 24.5508 76.5633 24.4213C76.8474 23.5408 76.318 22.1682 75.5563 21.5013C74.0651 20.2064 72.3543 20.1352 70.6049 20.6661C68.1841 21.3991 65.7051 21.8176 63.2274 22.2359C62.2033 22.4089 61.1793 22.5817 60.1598 22.7768C58.7396 23.0487 57.2936 23.2494 55.8475 23.1199C53.0329 22.8739 50.4313 23.5925 47.8943 24.6932C47.8313 24.7208 47.7678 24.7499 47.704 24.7792C47.1535 25.0321 46.5812 25.295 46.1126 24.622C45.7511 24.1105 46.0997 23.6767 47.2423 23.1393C48.7485 22.4357 49.9851 21.4102 50.9266 19.9217ZM10.4715 33.2459L10.5125 33.255C11.3097 33.4324 12.0278 33.5922 12.0532 34.5343C12.0715 35.0689 12.4562 35.1544 12.8375 35.2392L12.8988 35.253C13.424 35.3727 13.9516 35.485 14.4801 35.5975C14.8092 35.6676 15.1387 35.7377 15.4681 35.8098C15.5253 35.8227 15.5827 35.8349 15.6402 35.8471L15.6409 35.8473C16.1866 35.9634 16.7261 36.0782 16.9013 36.7809C16.9916 37.1377 17.2993 37.1081 17.5695 37.0821L17.5696 37.082C17.6082 37.0783 17.6461 37.0747 17.6824 37.0723C18.1333 37.0418 18.5814 36.9997 19.0285 36.9577L19.0287 36.9576C19.2471 36.9371 19.4654 36.9166 19.6836 36.8975C20.8327 36.7939 21.872 36.9946 22.4918 38.0887C22.6983 38.4513 22.8726 38.6132 23.3181 38.542C24.2025 38.3995 25.0998 38.542 25.8938 38.898C27.6613 39.6887 29.4913 39.6293 31.3199 39.57L31.3202 39.57C31.8424 39.5531 32.3646 39.5361 32.8852 39.539C32.9904 39.539 33.0957 39.5211 33.1989 39.5035L33.199 39.5035L33.1991 39.5035L33.1991 39.5035L33.1992 39.5034L33.1993 39.5034C33.2479 39.4952 33.296 39.4869 33.3435 39.4807L33.3439 39.4807C33.8215 39.4224 34.3506 39.3579 34.4151 40.0052C34.4668 40.5425 33.9632 40.672 33.563 40.7174C31.8652 40.8986 30.1545 41.054 28.5341 40.3289C27.9467 40.0699 27.4109 39.8822 26.7653 40.1217C26.467 40.2294 26.108 40.2155 25.775 40.2025L25.6937 40.1994C25.6434 40.1972 25.5933 40.1948 25.5432 40.1924L25.4176 40.1863C24.345 40.1337 23.327 40.0837 22.2981 40.7756C21.4201 41.3648 20.2452 41.2418 19.4254 40.4325C18.9606 39.9728 18.5216 39.8304 17.9277 39.8692C17.1982 39.921 16.4881 39.7656 15.7845 39.5908C14.0156 39.157 13.6283 38.4189 14.2674 36.6191C13.6977 36.4744 13.1396 36.2956 12.5814 36.1168L12.5813 36.1168L12.5812 36.1168C11.6406 35.8155 10.6999 35.5141 9.70334 35.376C7.86996 35.1235 7.48263 34.5926 7.57946 32.7279C7.595 32.406 7.45688 32.2673 7.29834 32.1081C7.25921 32.0688 7.21884 32.0282 7.17922 31.9834C6.09469 30.7533 6.2238 29.6267 7.66339 28.8174C8.39286 28.4095 8.90931 27.9628 9.09652 27.1341C9.14816 26.8945 9.30955 26.6614 9.45803 26.4607C9.75498 26.0658 10.1617 25.8521 10.6717 25.9363C11.201 26.0205 11.4592 26.4025 11.5819 26.8816C11.8659 28.034 11.8143 29.18 11.0719 30.1382C10.6846 30.6367 10.478 31.0252 10.7491 31.6338C10.8834 31.9415 10.7715 32.2287 10.6491 32.5429C10.5655 32.7574 10.477 32.9846 10.4586 33.2394L10.4715 33.2459ZM77.9459 17.7003L77.9448 17.7008V17.6943L77.9459 17.7003ZM78.9713 18.905C78.5271 18.6533 78.0765 18.395 77.9459 17.7003C78.0089 17.672 78.0623 17.6436 78.1087 17.619C78.1998 17.5708 78.2637 17.5368 78.3192 17.5454C80.5593 17.8886 82.5153 18.9439 84.2712 20.2776C84.4877 20.4433 84.6991 20.6341 84.9138 20.8279C85.1858 21.0735 85.463 21.3238 85.7625 21.5336C85.8245 21.5777 85.8877 21.6211 85.951 21.6647C86.3164 21.9161 86.6887 22.1723 86.8922 22.5695C87.1052 22.9904 87.0407 23.4112 86.4339 23.4306C85.6075 23.463 84.7877 23.3594 83.9743 23.1976C83.6515 23.1328 83.4062 22.971 83.3029 22.6343C82.8962 21.2941 81.9924 20.433 80.7336 19.8632C80.2625 19.6521 79.8109 19.3903 79.3605 19.1292L79.3602 19.129C79.2306 19.0539 79.1011 18.9788 78.9713 18.905ZM76.6602 33.9645C75.1948 33.9904 74.2911 34.7932 73.4583 35.5831C72.9483 36.0687 72.4706 36.2435 71.838 36.2176C71.6705 36.2123 71.5025 36.2084 71.3344 36.2046H71.3343C70.887 36.1943 70.4392 36.184 69.9981 36.1464C69.4688 36.101 68.9975 35.8809 68.7716 35.3565C68.6683 35.1169 68.6812 34.8385 68.8749 34.6378C69.0233 34.4824 69.217 34.463 69.4365 34.5666C70.7534 35.2011 71.6766 34.4371 72.5674 33.6472C74.0393 32.3459 75.027 32.3653 76.6667 33.9645H76.6602ZM85.4822 26.1405L86.0853 26.7003L85.9957 26.6617L85.9348 26.6353C85.4123 26.4091 84.8977 26.1863 84.3616 26.2276C83.8245 26.2681 83.4542 25.997 83.0846 25.7265C82.8634 25.5645 82.6425 25.4028 82.3862 25.3083C82.1345 25.2176 82.057 24.9263 82.1022 24.6543C82.1603 24.2983 82.425 24.1299 82.7477 24.1105C83.9227 24.0328 85.0976 23.9616 86.2725 23.9357C86.8277 23.9227 87.286 24.1558 87.357 24.7903C87.428 25.4183 87.0278 25.7226 86.5049 25.891C86.3855 25.9293 86.2581 25.9392 86.1287 25.9494C85.9096 25.9665 85.6846 25.9841 85.4822 26.1405ZM82.0054 27.8268C82.1018 27.8307 82.1929 27.8322 82.2801 27.8337H82.2803C82.4851 27.8372 82.6681 27.8403 82.8447 27.8721C82.9646 27.8935 83.1235 27.9102 83.2845 27.9271C83.6606 27.9666 84.0486 28.0074 83.9808 28.1117C83.6748 28.5599 83.9188 28.6958 84.152 28.8258C84.2927 28.9042 84.4295 28.9804 84.4392 29.1217C84.465 29.426 84.3617 29.6008 84.1164 29.7368C83.2449 30.2418 80.7401 30.0087 79.9784 29.3612C79.6814 29.1087 79.5007 28.8239 79.5911 28.4289C79.6879 28.0146 80.0107 27.8527 80.3915 27.8333C80.7898 27.8149 81.1912 27.8193 81.566 27.8235C81.7198 27.8252 81.8691 27.8268 82.0119 27.8268H82.0054ZM78.5724 32.2835C78.5773 32.4498 78.5827 32.6335 78.8293 32.8704V32.8574C78.9901 32.8152 79.1737 32.7963 79.3569 32.7775C79.7913 32.7327 80.2237 32.6882 80.3463 32.333C80.5723 31.6985 80.966 31.3813 81.7407 30.9669C81.4147 30.9669 81.1287 30.9712 80.8686 30.9751L80.8684 30.9751C80.4126 30.9819 80.036 30.9875 79.662 30.9669L79.6423 30.9658C79.0074 30.9308 78.6898 30.9133 78.5549 31.0617C78.4199 31.2103 78.468 31.5252 78.5641 32.1553L78.5646 32.1582C78.5699 32.1992 78.5711 32.2407 78.5724 32.2834V32.2835ZM126.561 50.7786C126.634 51.465 126.127 51.6723 125.701 51.8465C125.636 51.8728 125.574 51.8983 125.516 51.9245C125.464 52.3562 125.682 52.4901 125.883 52.6144C125.935 52.6467 125.987 52.6784 126.032 52.7144C126.574 53.1482 126.716 53.6597 126.478 54.3266C126.449 54.4026 126.417 54.4792 126.384 54.5564C126.222 54.9391 126.053 55.336 126.381 55.7509C126.381 56.5796 125.92 56.9746 124.999 56.9357C124.25 56.4825 123.45 56.5214 122.636 56.6962C122.333 56.7609 121.997 56.7933 121.823 56.4825C121.629 56.1264 121.778 55.7898 122.043 55.5114C122.624 54.8833 123.353 54.7474 124.147 54.9351C124.599 55.0452 124.806 54.8963 124.896 54.4625C124.908 54.4067 124.928 54.3504 124.947 54.2946C125.012 54.111 125.075 53.9316 124.857 53.7827C124.676 53.6597 124.463 53.7244 124.289 53.841C123.792 54.1906 123.243 54.2035 122.675 54.1064C121.842 52.8245 121.965 52.5331 123.831 51.7562C123.589 51.7562 123.381 51.7588 123.193 51.7612H123.193H123.193C122.869 51.7652 122.608 51.7685 122.346 51.7562C120.958 51.685 120.377 50.7656 121.042 49.5808C121.1 49.476 121.162 49.3756 121.221 49.2773L121.221 49.2772C121.539 48.756 121.821 48.293 121.468 47.5414C121.216 47.004 121.901 46.4666 122.514 46.6155C123.24 46.7887 123.555 47.3804 123.868 47.9691L123.869 47.9711C123.895 48.02 123.921 48.0689 123.947 48.1176C124.25 48.6744 124.496 49.2312 123.831 49.7362C124.116 49.81 124.419 49.8263 124.721 49.8424C125.451 49.8815 126.168 49.9199 126.574 50.7721L126.561 50.7786ZM113.696 13.6674C113.801 13.8753 113.899 14.073 113.995 14.2642C114.141 14.5552 114.278 14.8311 114.419 15.1046C114.638 15.5319 114.561 15.9139 114.231 16.2312C113.915 16.5419 113.521 16.6455 113.095 16.4837C112.146 16.134 111.546 15.4736 111.372 14.4766C111.217 13.5831 111.475 12.8709 112.327 12.4048C113.205 11.9218 113.641 11.0051 114.031 10.1841C114.085 10.0695 114.139 9.9568 114.193 9.8474C114.562 9.09768 115.163 8.81162 115.752 8.53087C116.038 8.3946 116.322 8.25958 116.575 8.07341C116.828 7.88692 116.83 8.04536 116.832 8.26718C116.835 8.49201 116.838 8.78195 117.104 8.84387C117.537 8.94746 117.195 9.32945 117.014 9.34887C116.184 9.40979 115.826 9.97776 115.469 10.5445C115.257 10.8811 115.045 11.2174 114.735 11.4466C114.599 11.5437 114.528 11.6926 114.645 11.9516C115.133 12.9895 115.11 13.0004 114.103 13.467L114.089 13.4731L114.089 13.4733C114.001 13.5177 113.912 13.5621 113.696 13.6674Z" fill="#0D070B"/>
<path fill-rule="evenodd" clip-rule="evenodd" d="M131.509 1.77115C131.771 1.76685 132.033 1.76254 132.261 1.94224V1.94871C136.282 1.56004 140.323 1.56015 144.363 1.56025L144.559 1.56025C141.867 1.23653 139.162 1.28833 136.464 1.3466C136.051 1.3553 135.638 1.35555 135.224 1.3558C133.793 1.35667 132.358 1.35754 130.951 1.70916C131.127 1.77743 131.318 1.77429 131.509 1.77115ZM122.538 24.6307L122.736 24.5638C122.85 24.525 122.965 24.4861 123.081 24.4473C123.941 24.6926 124.787 24.9806 125.633 25.2687C126.819 25.6725 128.005 26.0765 129.233 26.3637C131.473 26.8881 133.739 27.2119 136.018 27.4773C136.664 27.5529 137.314 27.612 137.963 27.6711C139.26 27.789 140.557 27.9069 141.835 28.1571C142.151 28.3643 142.48 28.3255 142.816 28.2024C149.936 28.7916 157.031 28.4679 164.106 27.5097C164.383 27.7833 164.709 27.7548 165.035 27.7264C165.249 27.7077 165.462 27.689 165.662 27.7557C163.247 28.3722 160.772 28.5215 158.306 28.6703L158.012 28.688C151.318 29.0894 144.623 28.9211 137.974 28.06C132.939 27.4126 127.955 26.4544 123.081 24.9976C122.928 24.952 122.783 24.8771 122.637 24.8019C122.556 24.7598 122.474 24.7176 122.39 24.6804L122.538 24.6307ZM115.883 37.1371L115.732 37.0787C112.761 35.9327 109.788 34.7859 106.703 33.9647C102.559 32.864 98.3822 31.977 94.0957 31.7116C93.9408 31.7019 93.7875 31.6857 93.6341 31.6695L93.634 31.6695C93.4807 31.6533 93.3275 31.6371 93.1726 31.6274C92.8175 31.6015 92.5916 31.472 92.6432 31.0576C92.6948 30.6692 92.7594 30.326 93.2823 30.4102C93.4857 30.4426 93.6891 30.4733 93.8924 30.5041C94.0958 30.5348 94.2991 30.5656 94.5024 30.598C101.791 31.7634 108.995 33.2589 115.754 36.3731C115.92 36.4492 116.079 36.5463 116.239 36.6437C116.296 36.679 116.354 36.7143 116.412 36.7486C116.361 36.7776 116.306 36.8008 116.251 36.8239C116.098 36.8885 115.945 36.9528 115.883 37.1436V37.1371ZM105.368 37.3231L105.374 37.3249H105.367L105.368 37.3231ZM106.129 36.5831C105.821 36.7723 105.513 36.9617 105.368 37.3231C102.226 36.3269 99.0452 35.4989 95.7613 35.0977C94.929 34.9971 94.0967 34.9616 93.2662 34.9262H93.2661H93.266C92.8147 34.907 92.3638 34.8878 91.9138 34.8582C91.8979 34.8217 91.8755 34.7819 91.8544 34.7444L91.8544 34.7443C91.8156 34.6753 91.7809 34.6137 91.7976 34.5927C91.9821 34.3718 92.0292 34.0673 92.0746 33.7736C92.1357 33.3787 92.1937 33.0033 92.5787 32.877C92.9518 32.7569 93.4071 32.8708 93.8577 32.9836C94.0387 33.0289 94.2189 33.0739 94.3927 33.1036C94.8898 33.1918 95.3871 33.2788 95.8844 33.3658L95.8846 33.3659L95.8848 33.3659L95.885 33.3659L95.8853 33.366L95.8855 33.366L95.8857 33.3661L95.886 33.3661L95.8862 33.3661L95.8864 33.3662L95.8867 33.3662L95.8869 33.3663L95.8871 33.3663L95.8873 33.3663L95.8876 33.3664L95.8878 33.3664C99.2965 33.9629 102.704 34.5592 106.039 35.5251C106.104 35.5436 106.17 35.5586 106.236 35.5736C106.47 35.6268 106.7 35.6792 106.871 35.8811C106.722 36.218 106.426 36.4005 106.129 36.5831ZM122.662 54.1129L122.659 54.1152C121.829 52.8368 121.954 52.5388 123.817 51.7692C123.579 51.7692 123.372 51.7718 123.184 51.7741C122.859 51.7782 122.594 51.7815 122.332 51.7692C120.944 51.698 120.363 50.7786 121.028 49.5938C121.085 49.4947 121.143 49.3994 121.2 49.306C121.524 48.7769 121.811 48.3083 121.454 47.5543C121.203 47.017 121.887 46.4796 122.5 46.6285C123.227 46.8017 123.541 47.3934 123.854 47.9821C123.88 48.0317 123.907 48.0813 123.933 48.1306C124.237 48.6938 124.482 49.2442 123.817 49.7492C124.102 49.823 124.406 49.8393 124.707 49.8554C125.437 49.8945 126.154 49.9329 126.561 50.7851C127.109 50.6232 127.458 50.2347 127.69 49.7297C126.696 46.9652 124.714 45.0164 122.429 43.3201C122.186 43.4893 121.949 43.6707 121.713 43.8521C120.99 44.4067 120.266 44.962 119.337 45.1718L119.368 45.6112L119.387 45.8788C119.453 46.8214 119.519 47.7641 119.602 48.7068C119.676 49.5336 119.727 50.3626 119.778 51.1915V51.1916V51.1916V51.1917V51.1917V51.1918V51.1919V51.1919V51.192V51.192V51.1921V51.1921V51.1922V51.1923V51.1923V51.1924V51.1924V51.1925V51.1925V51.1926V51.1927V51.1927V51.1928V51.1928V51.1929V51.1929V51.193V51.1931V51.1931V51.1932V51.1932V51.1933V51.1933V51.1934V51.1935V51.1935V51.1936V51.1936V51.1937V51.1937C119.879 52.8243 119.98 54.4548 120.254 56.0682L120.646 55.7507L120.648 55.7488L120.657 55.7417C121.327 55.199 121.993 54.6593 122.659 54.1152L122.662 54.1194V54.1129ZM132.493 51.316L132.494 51.3179C132.042 51.4607 131.677 51.7434 131.312 52.0267C131.027 52.2473 130.742 52.4683 130.415 52.6239C130.524 56.3531 129.291 59.5903 126.858 62.4002C125.702 63.7339 124.424 64.9187 123.01 65.9676C120.893 67.5344 118.627 68.8487 116.258 70.0012C113.146 71.5162 109.854 72.5326 106.561 73.5491C106.24 73.8874 105.919 74.2274 105.598 74.5673L105.593 74.5721C105.27 74.9136 104.948 75.2551 104.625 75.595C104.987 75.6621 105.33 75.5749 105.674 75.4873C105.729 75.4734 105.783 75.4594 105.838 75.4461C110.054 74.4491 114.14 73.0312 118.085 71.2378C121.196 69.8199 124.133 68.1236 126.767 65.9288C129.053 64.0188 130.957 61.7916 132.1 59.0076C133.126 56.5091 133.391 53.9329 132.494 51.3179L132.5 51.316H132.493ZM41.2766 62.9311C45.4856 66.7381 50.4241 69.2243 55.8145 70.8752V70.8817C56.5524 70.158 57.4164 69.6124 58.2799 69.0673L58.2799 69.0673C58.7837 68.7492 59.2872 68.4313 59.7652 68.0783C59.6582 68.0357 59.5513 67.9924 59.4441 67.949L59.4438 67.9489C59.0791 67.8013 58.7127 67.653 58.3386 67.528C55.3497 66.505 52.4963 65.2166 49.785 63.5851C47.0414 61.9341 44.7626 59.8364 43.0906 57.0912C43.0591 57.0401 43.0295 56.9875 42.9999 56.935C42.8536 56.6753 42.7091 56.4189 42.3547 56.3596C41.0201 56.1254 39.6821 55.8877 38.3535 55.6516L36.9449 55.4014C36.7699 55.8731 36.8914 56.2146 37.0072 56.5403C37.0281 56.599 37.0488 56.6573 37.0676 56.7157C37.8745 59.1889 39.3722 61.209 41.2766 62.9311ZM96.0624 73.8914C98.353 73.579 100.659 73.2645 102.869 72.5197L102.875 72.5132L102.836 72.5004L102.815 72.4937C102.533 72.4042 102.245 72.3126 102.637 71.9564C102.985 71.638 103.336 71.3232 103.687 71.0086L103.687 71.0085L103.687 71.0084L103.687 71.0083L103.688 71.0082L103.688 71.0081L103.688 71.008L103.688 71.0079L103.688 71.0079L103.688 71.0078L103.688 71.0077L103.688 71.0076L103.688 71.0075L103.688 71.0074C104.286 70.4716 104.883 69.9365 105.464 69.3861C105.554 69.3021 105.648 69.2213 105.743 69.1402C106.072 68.8589 106.405 68.5738 106.555 68.1365C105.989 68.2746 105.424 68.4171 104.859 68.5595C103.728 68.8444 102.598 69.1293 101.462 69.3796C94.8834 70.8169 88.2213 71.419 81.5011 71.4579C81.2644 71.9766 80.8164 72.2386 80.3673 72.5013L80.3672 72.5014C80.1549 72.6256 79.9423 72.7499 79.7516 72.9017C79.4449 73.1467 79.112 73.3572 78.779 73.5676C78.2851 73.8798 77.7912 74.192 77.3825 74.6174C77.4558 74.6269 77.5291 74.639 77.6027 74.6511L77.6033 74.6512L77.6034 74.6512C77.7305 74.6722 77.8586 74.6934 77.9893 74.7015C83.7993 75.0382 89.5899 74.7987 95.3482 73.9894C95.5552 73.9607 95.7624 73.9324 95.9697 73.9041L96.0624 73.8914ZM126.774 59.4673C127.729 57.9264 128.497 56.3078 128.51 54.4367L128.504 54.4432C128.081 54.5176 127.788 54.8068 127.494 55.0961C127.175 55.4114 126.855 55.7268 126.367 55.764C126.371 56.5884 125.911 56.9812 124.986 56.9423C124.138 57.9864 123.115 58.8389 122.092 59.692C121.541 60.1508 120.99 60.6098 120.467 61.0989C119.308 62.1801 118.111 63.2224 116.913 64.2647L116.913 64.2649C115.715 65.3072 114.518 66.3496 113.359 67.4309C113.008 67.7588 112.637 68.0649 112.266 68.3709L112.266 68.3709C111.531 68.9771 110.797 69.5828 110.222 70.3573C114.883 68.9329 119.182 66.8093 122.958 63.6887C124.43 62.465 125.76 61.1054 126.774 59.4673ZM53.4336 72.4922L53.4388 72.4938H53.4323L53.4336 72.4922ZM53.6286 72.2398C53.5641 72.3234 53.4996 72.4071 53.4336 72.4922C46.9026 70.4528 40.9396 67.4618 36.351 62.1866C34.4208 59.9723 33.0716 57.4603 32.5809 54.5015C32.9412 54.3254 33.2552 54.4311 33.5608 54.534C33.6823 54.5749 33.8025 54.6153 33.9237 54.6374C34.4272 54.7281 34.6983 54.987 34.7952 55.5438C35.5892 59.9335 38.3264 63.0153 41.6897 65.6504C44.84 68.1236 48.4164 69.8328 52.1283 71.2637C52.5305 71.4177 52.9262 71.5879 53.3223 71.7582L53.3225 71.7584L53.3229 71.7585L53.3232 71.7586L53.3236 71.7588L53.3239 71.7589L53.3243 71.759L53.3246 71.7592L53.325 71.7593L53.3253 71.7595L53.3256 71.7596L53.326 71.7597L53.3263 71.7599L53.3267 71.76L53.327 71.7601L53.3274 71.7603L53.3277 71.7604L53.328 71.7606L53.3284 71.7607L53.3287 71.7608L53.3291 71.761L53.3294 71.7611L53.3298 71.7612L53.3301 71.7614L53.3304 71.7615L53.3308 71.7617L53.3311 71.7618L53.3315 71.7619L53.3318 71.7621L53.3322 71.7622L53.3325 71.7623L53.3328 71.7625L53.3332 71.7626L53.3335 71.7628L53.3339 71.7629L53.3342 71.763L53.3346 71.7632L53.335 71.7634L53.3353 71.7635L53.3357 71.7637L53.3361 71.7638L53.3364 71.764L53.3368 71.7642C53.5018 71.8351 53.6669 71.906 53.8326 71.9759C53.7646 72.0634 53.6983 72.1494 53.632 72.2354L53.6289 72.2394L53.6286 72.2398ZM97.6462 76.7928L97.642 76.7939C97.7614 76.4986 97.9866 76.2854 98.2114 76.0726C98.4519 75.845 98.692 75.6177 98.8018 75.2907C98.6733 75.2969 98.5442 75.2991 98.4151 75.3014C98.1354 75.3063 97.8555 75.3112 97.5817 75.3555C93.1596 76.0547 88.7053 76.3461 84.2381 76.5015C82.163 76.5732 80.0906 76.4798 78.0174 76.3864C76.911 76.3366 75.8043 76.2867 74.6968 76.2619C74.5694 76.5254 74.334 76.651 74.0981 76.777C73.9514 76.8552 73.8046 76.9336 73.6833 77.0453C73.7038 77.0493 73.7243 77.0534 73.7448 77.0576C73.7815 77.0651 73.8181 77.0729 73.8548 77.0807L73.855 77.0808C73.9979 77.1111 74.1408 77.1415 74.2837 77.1554C80.2808 77.8158 86.291 77.6927 92.2946 77.3885C92.4558 77.3797 92.6172 77.3713 92.7787 77.3629L92.782 77.3627L92.7854 77.3625L92.7888 77.3623L92.7923 77.3621L92.7957 77.3619L92.7986 77.3618C94.4202 77.2771 96.0522 77.1919 97.642 76.7939L97.6398 76.7993L97.6462 76.7928ZM68.6738 70.2666C68.2588 70.5653 67.8294 70.8444 67.3998 71.1236C66.4795 71.7219 65.5581 72.3208 64.7746 73.1153C62.5217 72.8757 60.3332 72.3254 58.19 71.5873C58.3489 71.5498 58.5121 71.548 58.6752 71.5461C58.9626 71.5428 59.2498 71.5396 59.5134 71.3413C59.925 71.0286 60.3606 70.7484 60.7965 70.468L60.7966 70.4679L60.7967 70.4678L60.7968 70.4678L60.7969 70.4677L60.797 70.4676L60.7971 70.4676L60.7972 70.4675L60.7973 70.4674L60.7974 70.4674L60.7974 70.4673L60.7975 70.4672L60.7976 70.4671L60.7977 70.4671L60.7978 70.467L60.7979 70.4669L60.798 70.4669L60.7981 70.4668L60.7982 70.4667L60.7983 70.4667L60.7984 70.4666L60.7985 70.4665L60.7985 70.4665L60.7986 70.4664L60.7987 70.4663L60.7988 70.4663L60.7989 70.4662L60.799 70.4661L60.7991 70.466L60.7992 70.466L60.7993 70.4659L60.7994 70.4658L60.7995 70.4658L60.7995 70.4657L60.7996 70.4656L60.7997 70.4656C61.5179 70.0033 62.2368 69.5407 62.8509 68.9328C63.8192 69.1562 64.7892 69.378 65.7591 69.5997C66.7291 69.8215 67.699 70.0432 68.6673 70.2666H68.6738ZM57.1966 81.53L57.2024 81.532H57.196L57.1966 81.53ZM57.5715 80.2298C57.4515 80.6519 57.3285 81.0843 57.1966 81.53C56.9313 81.4399 56.651 81.3717 56.3763 81.3049C55.6899 81.138 55.0392 80.9798 54.7493 80.5091C54.4617 80.0414 54.7331 79.4822 55.0074 78.9171C55.1393 78.6453 55.2719 78.3721 55.3432 78.1071C55.3691 78.01 55.4013 77.9128 55.4336 77.8157L55.4355 77.8104C55.7607 76.8841 55.9204 76.4293 56.2267 76.2843C56.5222 76.1445 56.9542 76.2932 57.803 76.5853L57.8415 76.5985C58.3644 76.7798 58.5904 76.9676 58.3773 77.5826C58.081 78.4387 57.8332 79.31 57.5715 80.2298ZM125.205 42.0253C127.439 43.5014 129.278 45.3661 130.699 47.6386C130.46 47.8069 130.219 47.9736 129.979 48.1403L129.978 48.141C129.738 48.3075 129.498 48.474 129.259 48.6421C128.039 46.2531 126.283 44.2784 124.424 42.3878C124.618 42.1224 124.869 41.9864 125.205 42.0253ZM112.694 39.0027C113.041 38.7887 113.388 38.5746 113.675 38.2831C112.785 37.7206 111.791 37.4024 110.798 37.0844L110.797 37.0841C110.624 37.0288 110.452 36.9735 110.28 36.917C109.917 37.1519 109.553 37.3885 109.189 37.6251L109.181 37.6298L109.172 37.6359C108.809 37.8716 108.446 38.1073 108.085 38.3414C109.195 38.9629 110.331 39.5132 111.532 39.9276C111.848 39.5254 112.271 39.2641 112.694 39.0027ZM84.7287 82.9887C84.7287 83.194 84.728 83.3985 84.7273 83.6028V83.6035V83.6043V83.605V83.6057V83.6064V83.6071V83.6078V83.6085V83.6092V83.6099V83.6106V83.6114V83.6121V83.6128V83.6135V83.6142V83.6149V83.6156V83.6163V83.617V83.6177V83.6184V83.6192V83.6199V83.6206V83.6213V83.622V83.6227V83.6234V83.6241C84.7259 84.0249 84.7244 84.4248 84.7287 84.8275C84.7287 85.2742 84.69 85.6497 84.1026 85.6562C83.5797 85.6562 83.3925 85.4102 83.3989 84.8987C83.414 84.2151 83.4137 83.5293 83.4134 82.8426C83.4131 82.3521 83.4129 81.8611 83.4183 81.3701C83.4183 81.2212 83.4376 81.0594 83.4828 80.9169C83.5926 80.5544 83.7604 80.2306 84.2188 80.3083C84.5932 80.3666 84.6771 80.6839 84.6835 80.9946C84.6922 81.439 84.6893 81.8804 84.6864 82.3228L84.6864 82.3256C84.685 82.5462 84.6835 82.7671 84.6835 82.9887H84.7287ZM47.6094 76.4366C47.2221 77.3042 47.6869 77.5243 48.3453 77.7056V77.7121C48.6617 77.2136 49.049 76.7927 49.5977 76.5532C49.9072 75.9992 50.0727 75.4065 50.2367 74.8192L50.2368 74.819C50.2951 74.6101 50.3532 74.402 50.4176 74.1965C49.7914 73.808 49.2556 73.5879 48.6423 73.4455C48.5291 73.7801 48.426 74.1077 48.3251 74.4283L48.325 74.4284C48.1038 75.1314 47.8931 75.8008 47.6094 76.4366ZM42.148 72.3903C41.8381 73.3183 42.191 74.0607 43.2067 74.6175L43.2002 74.611C43.3552 74.1707 43.4714 73.8341 43.5811 73.4909C43.6251 73.3564 43.6646 73.2211 43.7039 73.0864L43.704 73.0861C43.7801 72.8254 43.8556 72.5666 43.962 72.319C44.4342 71.2432 44.4168 71.234 43.5627 70.7798C43.4711 70.731 43.3697 70.6772 43.2583 70.6163C43.1817 70.5759 43.0951 70.5556 42.9936 70.5319C42.9326 70.5177 42.8663 70.5022 42.7935 70.4803C42.5741 71.1342 42.361 71.7622 42.148 72.3903ZM40.0146 68.6542L40.0149 68.6543C40.6242 68.9069 41.2492 69.166 41.283 69.6128C41.3331 70.2716 41.0856 70.9642 40.8467 71.6323C40.8086 71.7389 40.7707 71.8449 40.7343 71.95C40.5819 72.3831 40.1358 72.2398 39.8141 72.1364L39.7983 72.1313C39.2883 71.963 38.8557 71.6651 39.03 71.0242C39.1805 70.4536 39.3515 69.8864 39.5381 69.2676C39.6077 69.0368 39.6794 68.7989 39.7531 68.5509V68.5445C39.8387 68.5813 39.9264 68.6176 40.0145 68.6542L40.0146 68.6542ZM45.844 72.0507L45.6664 71.9693L45.6599 71.9628L45.5875 72.176C45.328 72.9395 45.1024 73.6036 44.8659 74.2677C44.5345 75.1957 44.9025 75.8669 45.9698 76.2812C46.0503 76.0098 46.1285 75.7375 46.2068 75.4651L46.2068 75.4648L46.2069 75.4647C46.4235 74.7106 46.6403 73.956 46.9058 73.2188C47.0672 72.7786 46.9962 72.552 46.5895 72.3837C46.3585 72.2867 46.1275 72.1807 45.8443 72.0508L45.8443 72.0508L45.844 72.0507ZM88.105 81.9269C88.1106 81.8442 88.1146 81.7468 88.119 81.639C88.1298 81.3757 88.1431 81.0508 88.1889 80.7292C88.2406 80.3342 88.4988 80.0558 88.912 80.0947C89.3316 80.1335 89.5381 80.4184 89.4478 80.8457C89.3276 81.4017 89.389 81.9507 89.4502 82.4982L89.4503 82.4984C89.491 82.8626 89.5317 83.2262 89.5188 83.5909C89.5059 83.9664 89.4736 84.3548 89.0282 84.4131C88.6086 84.4649 88.3697 84.1671 88.3116 83.7786C88.2503 83.3721 88.2097 82.9656 88.1621 82.4886L88.162 82.4877L88.1619 82.4869L88.1619 82.4865L88.1618 82.486L88.1618 82.4854L88.1617 82.4849C88.1442 82.3096 88.1258 82.1248 88.105 81.9269ZM114.3 77.7941C114.298 77.6029 114.295 77.4115 114.295 77.22H114.302H114.36C114.36 77.0474 114.359 76.8747 114.358 76.7021C114.357 76.3568 114.355 76.0115 114.36 75.6662C114.366 75.2777 114.308 74.8957 113.85 74.8569C113.424 74.8245 113.152 75.1223 113.14 75.5238C113.101 76.715 113.101 77.8999 113.12 79.0911C113.12 79.4278 113.32 79.6803 113.701 79.6738C114.076 79.6674 114.269 79.4084 114.289 79.0782C114.311 78.6525 114.305 78.2238 114.3 77.7941ZM37.9907 70.5256C36.7297 69.6019 36.4671 68.3286 37.2031 66.7057C38.18 67.2236 38.5566 68.0157 38.3328 69.0818C38.2793 69.3287 38.2198 69.5737 38.1556 69.8385C38.1036 70.0528 38.0484 70.2801 37.9907 70.5321V70.5256ZM109.635 78.897C109.645 79.0667 109.658 79.2357 109.671 79.4045V79.4046V79.4048V79.4049V79.405V79.4052V79.4053V79.4054V79.4056V79.4057V79.4059V79.406V79.4061V79.4063V79.4064V79.4065V79.4067V79.4068V79.407V79.4071V79.4072V79.4074V79.4075C109.697 79.7442 109.723 80.0799 109.731 80.4185C109.738 80.7292 109.686 81.0529 109.312 81.1306C108.956 81.2019 108.685 80.9817 108.608 80.6839C108.298 79.4344 108.233 78.1654 108.492 76.9029C108.556 76.5791 108.892 76.4432 109.228 76.5079C109.505 76.5597 109.654 76.7799 109.66 77.0583C109.669 77.4681 109.666 77.875 109.663 78.2829L109.663 78.2854C109.662 78.4888 109.66 78.6926 109.66 78.897H109.635ZM62.5088 74.449C62.4668 74.5721 62.4265 74.6935 62.3861 74.8149C62.3458 74.9363 62.3054 75.0576 62.2635 75.1806C61.5163 74.9554 60.7588 74.7658 60.001 74.5761L60.0009 74.5761L60.0009 74.5761L60.0008 74.5761L60.0008 74.5761L60.0007 74.576L60.0007 74.576L60.0006 74.576L60.0005 74.576L60.0004 74.5759L60.0003 74.5759L60.0001 74.5759L59.9999 74.5758L59.9998 74.5758L59.9996 74.5757L59.9995 74.5757L59.9993 74.5756L59.9991 74.5756L59.999 74.5755L59.9988 74.5755L59.9987 74.5754L59.9985 74.5754C58.6881 74.2474 57.3771 73.9192 56.1178 73.4066C56.4406 73.3549 56.7311 73.2254 56.957 72.9793L57.9164 73.2342C59.4477 73.6412 60.976 74.0473 62.5088 74.449ZM92.9734 81.5267C92.9762 81.7076 92.979 81.8885 92.979 82.0693H92.9597C92.9597 82.2425 92.9582 82.4149 92.9568 82.5868V82.5869V82.587V82.587V82.5871V82.5872V82.5872V82.5873V82.5874V82.5874V82.5875V82.5876V82.5876V82.5877V82.5878V82.5878V82.5879V82.588V82.5881V82.5881V82.5882C92.9539 82.9301 92.9511 83.2702 92.9597 83.6103C92.9661 83.934 93.0952 84.2318 93.4567 84.2771C93.9022 84.3289 94.1281 84.0311 94.1475 83.6361C94.1991 82.5096 94.225 81.3831 94.225 80.2565C94.2314 79.9393 94.0894 79.6285 93.715 79.5961C93.2824 79.5573 93.0178 79.8227 92.9919 80.2241C92.96 80.6583 92.9667 81.0925 92.9734 81.5267ZM104.831 79.8941C104.818 80.0702 104.808 80.2468 104.797 80.4236L104.797 80.4238L104.797 80.424L104.797 80.4243L104.797 80.4245L104.797 80.4247L104.797 80.4249L104.797 80.4252L104.797 80.4254L104.797 80.4256L104.797 80.4259L104.797 80.4261L104.797 80.4263L104.796 80.4265L104.796 80.4268L104.796 80.427L104.796 80.4272L104.796 80.4275L104.796 80.4277L104.796 80.4279C104.77 80.8669 104.743 81.3064 104.683 81.7393C104.638 82.0565 104.405 82.3155 104.05 82.2896C103.702 82.2702 103.502 82.0177 103.508 81.6681L103.51 81.4001C103.515 80.5108 103.52 79.6176 103.579 78.7352C103.605 78.3726 103.818 78.0359 104.276 78.0553C104.76 78.0748 104.844 78.4179 104.838 78.8128C104.838 79.0388 104.825 79.2623 104.813 79.4864C104.805 79.6218 104.798 79.7575 104.793 79.8941H104.831ZM117.785 75.2828C117.769 75.4075 117.755 75.5196 117.742 75.6145V76.1972C117.743 76.2467 117.743 76.2976 117.742 76.349C117.738 76.7137 117.733 77.1002 118.22 77.1683C118.846 77.2525 118.962 76.754 119.014 76.2813C119.071 75.7149 119.111 75.1442 119.152 74.5728C119.162 74.4323 119.172 74.2918 119.182 74.1512C119.208 73.8211 119.117 73.5103 118.775 73.4261C118.381 73.3225 118.059 73.5038 117.981 73.9246C117.894 74.4113 117.832 74.9052 117.785 75.2828ZM127.342 69.7875C127.342 69.9847 127.343 70.1742 127.345 70.3588C127.348 70.7137 127.35 71.0502 127.342 71.3867C127.335 71.6651 127.174 71.8852 126.896 71.9306C126.554 71.9759 126.251 71.8076 126.193 71.4774C126.031 70.5127 126.044 69.535 126.212 68.5768C126.27 68.2207 126.541 67.9035 126.974 67.9682C127.419 68.033 127.503 68.3891 127.464 68.784C127.444 69.0091 127.416 69.2342 127.39 69.443L127.39 69.4443C127.374 69.5653 127.36 69.6808 127.348 69.7875H127.342ZM121.37 72.6482C121.38 72.855 121.392 73.0817 121.39 73.3367L121.39 73.3355V73.342L121.39 73.3367L121.392 73.3983L121.393 73.448V73.4482C121.399 73.6736 121.41 74.0581 121.448 74.4426C121.474 74.721 121.648 74.9347 121.932 74.9606C122.281 74.993 122.552 74.7987 122.591 74.4556C122.7 73.4909 122.7 72.5133 122.578 71.5421C122.539 71.2702 122.294 71.1083 122.016 71.1083C121.732 71.1083 121.538 71.2766 121.448 71.5356C121.33 71.8718 121.348 72.2169 121.37 72.6482ZM130.199 67.3669L130.199 67.3678C130.203 67.5741 130.209 67.8212 130.195 68.0652C130.176 68.4019 129.989 68.6738 129.646 68.6868C129.298 68.6997 129.117 68.4084 129.027 68.1041C128.839 67.4437 128.949 66.7898 129.111 66.1488C129.207 65.7539 129.44 65.4949 129.866 65.5791C130.305 65.6632 130.389 65.9999 130.324 66.3949C130.292 66.5956 130.26 66.7963 130.202 67.1265H130.195C130.195 67.1966 130.197 67.2779 130.199 67.3669ZM35.1793 66.5223C35.4629 65.6567 35.742 64.8048 34.4337 64.09C33.4654 66.3237 33.5945 66.6927 34.9566 67.3596C34.996 67.0818 35.0879 66.8013 35.1793 66.5223ZM5.43542 39.8953C6.25743 40.1974 6.52211 41.1384 6.22946 42.7181C5.42466 42.3555 5.15999 41.4146 5.43542 39.8953ZM32.0061 61.9028C32.1505 62.8949 32.2922 63.8689 32.9876 64.8475C33.4589 62.4714 33.3362 62.057 31.916 61.3125C31.949 61.5099 31.9776 61.7065 32.0061 61.9024L32.0061 61.9024L32.0061 61.9024L32.0061 61.9025L32.0061 61.9025L32.0061 61.9025L32.0061 61.9026L32.0061 61.9026L32.0061 61.9026L32.0061 61.9027L32.0061 61.9027L32.0061 61.9027L32.0061 61.9028ZM80.9782 79.9975C80.3004 80.2889 79.6096 80.3277 78.8285 80.3277C79.2029 79.8875 79.9195 79.7774 80.9782 79.9975ZM46.8618 45.0419C47.4193 44.939 48.0115 44.8296 48.6036 44.3496C47.9112 44.2464 47.351 44.354 46.8223 44.4556C46.6215 44.4941 46.4252 44.5318 46.228 44.5568C46.0989 44.5697 45.9568 44.7057 46.0408 44.8934C46.0989 45.0359 46.1828 45.1913 46.3571 45.146C46.5214 45.1048 46.6899 45.0736 46.8618 45.0419ZM74.0852 74.3236L74.0854 74.3236C74.9025 74.2781 75.7183 74.2327 76.498 74.6109C75.4651 74.6951 74.4387 74.6239 73.4316 74.3519C73.6491 74.3479 73.8672 74.3357 74.0852 74.3236ZM98.492 76.7346C98.7696 76.4238 99.1182 76.4691 99.4668 76.5597C99.1634 76.754 98.8406 76.8252 98.492 76.7346ZM115.438 5.17948C115.57 5.33431 115.748 5.36522 115.925 5.39611C116.007 5.41043 116.089 5.42475 116.167 5.45141C115.772 5.75536 115.308 5.89747 114.846 6.03883C114.629 6.10523 114.413 6.17146 114.205 6.25423C112.92 6.76571 111.713 7.39373 110.628 8.25482C110.557 8.02174 110.357 7.95053 110.157 7.87931C111.752 6.65565 113.533 5.79455 115.438 5.18596V5.17948ZM184.144 19.2289C185.17 17.3449 184.796 15.6356 183.486 14.0818C184.029 15.4665 184.071 16.8998 184.113 18.327L184.113 18.3284L184.113 18.3298L184.113 18.3311C184.122 18.6308 184.131 18.9303 184.144 19.2289ZM151.537 31.2584C152.086 31.0448 152.647 31.1743 153.228 31.3944L151.563 31.6339L151.537 31.2584ZM165.591 27.2055C165.346 27.5551 165.01 27.5162 164.661 27.4191C164.926 27.1537 165.249 27.1342 165.591 27.2055ZM166.056 27.7168C166.398 27.3478 166.83 27.4061 167.263 27.4708C166.882 27.6586 166.495 27.801 166.056 27.7168ZM73.5263 80.1439C73.4325 80.4075 73.326 80.7065 73.38 81.189C73.7736 80.9684 74.2344 80.9585 74.6889 80.9487C75.5018 80.9312 76.2946 80.9142 76.6465 79.6934C76.3889 79.6629 76.1428 79.6343 75.9045 79.6066C75.3845 79.5462 74.9019 79.4901 74.4193 79.4279C74.0255 79.3761 73.7221 79.4538 73.6059 79.9006C73.5843 79.9813 73.5559 80.0608 73.5263 80.1439Z" fill="#FFD9A2"/>
</g>
<defs>
<clipPath id="clip0_384_19932">
<rect width="191" height="88" fill="white"/>
</clipPath>
</defs>
</svg>
