<svg width="367" height="202" viewBox="0 0 367 202" fill="none" xmlns="http://www.w3.org/2000/svg">
<path fill-rule="evenodd" clip-rule="evenodd" d="M73.2108 20.6292C72.3289 21.0376 71.7776 20.9448 71.6306 20.9077C72.3656 19.8679 72.7882 18.5868 72.7882 17.1943C72.7882 13.6481 69.9402 10.7703 66.4306 10.7703C62.9211 10.7703 60.0547 13.6481 60.0547 17.2129C60.0547 20.7591 62.9027 23.6555 66.4306 23.6555C67.3126 23.6555 68.1395 23.4699 68.9112 23.1542C70.9691 24.2682 73.9642 23.6184 74.8094 22.7829C74.3317 22.4673 73.4865 21.409 73.2108 20.6292ZM66.4306 20.5363C64.6116 20.5363 63.1416 19.051 63.1416 17.2129C63.1416 15.3748 64.6116 13.8895 66.4306 13.8895C68.2497 13.8895 69.7197 15.3748 69.7197 17.2129C69.7197 19.051 68.2497 20.5363 66.4306 20.5363ZM107.479 13.1468C105.973 13.1468 105.054 14.0565 105.054 14.0565V11.1416H102.169V22.4673H104.962V21.7432C104.964 21.745 104.967 21.7491 104.972 21.7553C105.074 21.876 105.836 22.7829 107.828 22.7829C109.078 22.7829 112.055 21.5575 112.055 18.1598C112.073 15.5976 110.529 13.1468 107.479 13.1468ZM107.02 20.0907C105.844 20.0907 104.962 19.181 104.944 17.9556C104.925 16.7673 105.826 15.8204 106.983 15.8204C108.159 15.8018 109.078 16.7116 109.096 17.937C109.096 19.1438 108.214 20.0722 107.02 20.0907ZM101.177 13.3696H98.0899C98.0164 13.5924 96.9507 16.693 96.8588 16.953C96.8221 16.8787 95.738 14.0937 95.4624 13.3696H92.2101C92.3945 13.7965 92.7987 14.6985 93.2609 15.7301L93.2613 15.7309L93.2618 15.7321C94.2267 17.8856 95.444 20.6025 95.444 20.7406C95.444 20.9448 94.562 22.8015 92.8164 22.0031V24.6581C93.1472 24.751 96.4179 25.4565 97.9246 21.706C98.3472 20.6663 101.067 13.6852 101.177 13.3696ZM87.9839 14.3722C89.0864 12.9983 90.2073 12.924 91.1811 13.1839V16.0618C91.1444 16.0432 88.0942 14.8549 88.0942 18.6054V22.4673H85.191V13.3139H87.9839V14.3722ZM77.2165 13.3139C79.7889 12.6269 81.167 14.1865 81.167 14.1865V13.3696H83.9048L83.9048 22.4673H81.1854L81.1854 21.7617C79.0907 23.4699 76.8674 22.7458 75.7282 21.8174C74.8646 21.1119 74.3684 20.1836 74.148 19.0881C73.9091 17.8256 74.0193 16.5816 74.6257 15.4305C75.1953 14.3722 76.0957 13.611 77.2165 13.3139ZM76.9409 17.9184C76.9041 19.1253 77.8045 20.0907 78.9988 20.1093C80.1748 20.1279 81.1119 19.181 81.1486 17.9741C81.167 16.8416 80.2483 15.8575 79.1091 15.839C77.8964 15.8018 76.9593 16.693 76.9409 17.9184Z" fill="#0D070B"/>
<rect x="121.518" y="11.9324" width="186.813" height="11.6758" rx="5.83792" fill="#F2F2F3"/>
<rect x="44.5" y="0.5" width="284.935" height="162" rx="13.0187" stroke="#0D070B"/>
<rect x="308.5" y="97.5" width="58" height="52" rx="9.5" fill="white" stroke="#0D070B"/>
<path fill-rule="evenodd" clip-rule="evenodd" d="M328.648 130.473C328.685 129.68 328.377 128.845 327.882 128.155C326.674 126.475 325.981 124.513 325.981 122.417C325.981 116.204 332.071 111.167 339.583 111.167C340.622 111.167 341.634 111.263 342.606 111.445C342.62 110.809 342.721 109.324 343.005 108.476C341.888 108.273 340.742 108.167 339.583 108.167C330.941 108.167 322.959 114.058 322.959 122.417C322.959 125.19 323.88 127.753 325.42 129.897C325.491 129.995 325.544 130.094 325.58 130.181C325.585 130.193 325.589 130.204 325.593 130.214C325.378 130.47 325.198 130.653 325.067 130.766C324.886 130.822 324.404 130.996 323.948 131.407C323.626 131.698 323.091 132.316 322.978 133.283C322.861 134.294 323.273 135.063 323.605 135.482C324.108 136.118 324.736 136.366 324.818 136.398L324.825 136.401C325.124 136.524 325.383 136.573 325.433 136.582L325.438 136.583C325.531 136.601 325.611 136.612 325.662 136.618C325.85 136.642 326.052 136.653 326.222 136.659C326.594 136.673 327.101 136.67 327.692 136.632C328.85 136.557 330.505 136.331 332.151 135.701C332.655 135.507 333.052 135.531 333.266 135.606C335.223 136.293 337.358 136.667 339.583 136.667C348.225 136.667 356.208 130.776 356.208 122.417C356.208 121.306 356.067 120.238 355.802 119.222C354.873 119.667 353.473 119.973 352.889 120.07C353.083 120.827 353.185 121.612 353.185 122.417C353.185 128.63 347.095 133.667 339.583 133.667C337.699 133.667 335.905 133.35 334.273 132.777C333.239 132.414 332.086 132.51 331.062 132.902L331.05 132.907C330.686 133.045 330.318 133.16 329.954 133.253C329.63 133.337 329.31 133.405 329 133.459C327.445 133.732 326.154 133.67 325.997 133.634C325.977 133.63 325.976 133.626 325.995 133.623C326.595 133.53 327.39 132.812 328.144 131.852C328.191 131.793 328.233 131.733 328.273 131.672C328.511 131.303 328.628 130.894 328.648 130.473ZM333.25 119.25C333.25 118.376 333.959 117.667 334.833 117.667H344.333C345.207 117.667 345.916 118.376 345.916 119.25C345.916 120.125 345.207 120.833 344.333 120.833H334.833C333.959 120.833 333.25 120.125 333.25 119.25ZM334.833 124C333.959 124 333.25 124.709 333.25 125.583C333.25 126.458 333.959 127.167 334.833 127.167H341.166C342.041 127.167 342.75 126.458 342.75 125.583C342.75 124.709 342.041 124 341.166 124H334.833Z" fill="#0D070B"/>
<circle cx="351.459" cy="112.125" r="5.54167" fill="#FF5D6B"/>
<path fill-rule="evenodd" clip-rule="evenodd" d="M159.002 64.6742C157.755 60.6643 152.246 60.6643 150.998 64.6742L147.929 74.5368C147.709 75.2446 147.101 75.6699 146.473 75.6699H136.542C134.472 75.6699 133.038 77.0756 132.54 78.6774C132.043 80.2756 132.415 82.2455 134.049 83.4856L142.084 89.581C142.628 89.9937 142.882 90.7565 142.659 91.4724L139.59 101.335C138.981 103.293 139.759 105.126 141.1 106.143C142.45 107.167 144.429 107.399 146.085 106.143L154.12 100.048C154.649 99.6463 155.352 99.6463 155.881 100.048L163.916 106.143C165.571 107.399 167.551 107.167 168.901 106.143C170.242 105.126 171.02 103.293 170.41 101.335L167.341 91.4724C167.119 90.7564 167.372 89.9937 167.916 89.581L175.951 83.4856C177.586 82.2455 177.958 80.2756 177.461 78.6774C176.962 77.0756 175.528 75.6699 173.459 75.6699H163.527C162.9 75.6699 162.292 75.2446 162.071 74.5368L159.002 64.6742Z" fill="#0274D7"/>
<path fill-rule="evenodd" clip-rule="evenodd" d="M223.002 64.6742C221.755 60.6643 216.246 60.6643 214.998 64.6742L211.929 74.5368C211.709 75.2446 211.101 75.6699 210.473 75.6699H200.542C198.472 75.6699 197.038 77.0756 196.54 78.6774C196.043 80.2756 196.415 82.2455 198.049 83.4856L206.084 89.581C206.628 89.9937 206.882 90.7565 206.659 91.4724L203.59 101.335C202.981 103.293 203.759 105.126 205.1 106.143C206.45 107.167 208.429 107.399 210.085 106.143L218.12 100.048C218.649 99.6463 219.352 99.6463 219.881 100.048L227.916 106.143C229.571 107.399 231.551 107.167 232.901 106.143C234.242 105.126 235.02 103.293 234.41 101.335L231.341 91.4724C231.119 90.7564 231.372 89.9937 231.916 89.581L239.951 83.4856C241.586 82.2455 241.958 80.2756 241.461 78.6774C240.962 77.0756 239.528 75.6699 237.459 75.6699H227.527C226.9 75.6699 226.292 75.2446 226.071 74.5368L223.002 64.6742Z" fill="#0274D7"/>
<path fill-rule="evenodd" clip-rule="evenodd" d="M287.002 64.6742C285.755 60.6643 280.246 60.6643 278.998 64.6742L275.929 74.5368C275.709 75.2446 275.101 75.6699 274.473 75.6699H264.542C262.472 75.6699 261.038 77.0756 260.54 78.6774C260.043 80.2756 260.415 82.2455 262.049 83.4856L270.084 89.581C270.628 89.9937 270.882 90.7565 270.659 91.4724L267.59 101.335C266.981 103.293 267.759 105.126 269.1 106.143C270.45 107.167 272.429 107.399 274.085 106.143L282.12 100.048C282.649 99.6463 283.352 99.6463 283.881 100.048L291.916 106.143C293.571 107.399 295.551 107.167 296.901 106.143C298.242 105.126 299.02 103.293 298.41 101.335L295.341 91.4724C295.119 90.7564 295.372 89.9937 295.916 89.581L303.951 83.4856C305.586 82.2455 305.958 80.2756 305.461 78.6774C304.962 77.0756 303.528 75.6699 301.459 75.6699H291.527C290.9 75.6699 290.292 75.2446 290.071 74.5368L287.002 64.6742Z" fill="#0274D7"/>
<rect x="0.5" y="39.5" width="122" height="52" rx="9.5" fill="white" stroke="#0D070B"/>
<path fill-rule="evenodd" clip-rule="evenodd" d="M22.009 58L22.0049 58.0432L22.4565 62.0535C22.5814 63.1621 23.519 64 24.6345 64C25.8067 64 26.7713 63.0778 26.8241 61.9069L26.9971 58.0664L26.9908 58H22.009ZM17.7069 66C19.1025 66 20.4217 65.2251 21.1023 64.0662C21.8513 65.2364 23.1618 66 24.6345 66C26.0275 66 27.2673 65.319 28.0306 64.266C28.7488 65.3133 30.0089 66 31.3227 66C31.5544 66 31.7807 65.9789 32 65.9385V71C32 72.6569 30.6569 74 29 74H28V70.5C28 68.567 26.433 67 24.5 67C22.567 67 21 68.567 21 70.5V74H20C18.3431 74 17 72.6569 17 71V65.9329C17.2285 65.9769 17.4648 66 17.7069 66ZM15 64.8255C14.3026 64.0798 13.9116 63.049 14.017 61.942L14.2969 59.0028C14.4591 57.3003 15.8891 56 17.5994 56H19.7622H22.1995H26.8003H29.0922H31.1302C33.0106 56 34.5828 57.4296 34.7611 59.3015L35.0126 61.942C35.1195 63.0645 34.7159 64.1088 34 64.8568V71C34 73.7614 31.7614 76 29 76H28H21H20C17.2386 76 15 73.7614 15 71V64.8255ZM33 61.905L32.7701 59.4912C32.6921 58.6719 32.0229 58.0402 31.2088 58.0018C31.1827 58.0006 31.1565 58 31.1302 58H29.0021L29.0014 58.0164L29.4241 62.4552C29.5075 63.3311 30.4429 64 31.3227 64C32.1637 64 32.8521 63.395 33 62.6115V61.905ZM19.5757 62.4552L19.9942 58.0605L19.9874 58H17.5994C16.9202 58 16.3523 58.5163 16.2879 59.1925L16.008 62.1316C15.9126 63.1335 16.7005 64 17.7069 64C18.5867 64 19.4923 63.3311 19.5757 62.4552ZM26 70.5V74H23V70.5C23 69.6716 23.6716 69 24.5 69C25.3284 69 26 69.6716 26 70.5Z" fill="#0D070B"/>
<rect x="42" y="55" width="70" height="8" fill="#D9D9D9"/>
<rect x="42" y="69" width="25" height="8" fill="#A3A3AD"/>
<path d="M85.7235 76.0754L128.563 115.005C131.241 117.438 129.57 121.892 125.954 121.965L112.629 122.232C111.914 122.247 111.445 122.985 111.735 123.638L119.722 141.631C120.591 143.589 119.763 145.884 117.844 146.837L111.178 150.144C109.138 151.156 106.667 150.265 105.744 148.184L97.86 130.424C97.5797 129.792 96.759 129.628 96.2578 130.104L85.7574 140.064C83.208 142.482 79.0029 140.674 79.0046 137.16L79.0334 79.0337C79.0351 75.5625 83.1545 73.7409 85.7235 76.0754Z" fill="white" stroke="#0D070B" stroke-width="5"/>
</svg>
