<svg width="103" height="132" viewBox="0 0 103 132" fill="none" xmlns="http://www.w3.org/2000/svg">
<g clip-path="url(#clip0_384_19924)">
<path d="M26.0293 12.6132L33.4661 4.45179L37.9282 2.59692L37.1846 6.67764L32.3506 17.0649L33.838 26.3393L46.4806 41.9202L60.2387 47.1138L55.4048 57.8721L32.3506 83.8402L36.4409 87.179L34.2098 97.5663L39.7874 106.099L46.4806 116.857L26.4012 125.76L13.7586 122.051L13.3867 116.857L14.5022 107.954L17.477 101.647L21.1954 94.9695L23.0546 85.6951L17.477 79.3886L26.4012 68.2593L43.134 57.8721L53.1737 50.0816L54.6611 46.0009L31.9788 41.9202L25.2856 36.3556L21.1954 24.4844L26.0293 12.6132Z" fill="#F3D8E1"/>
<path d="M100.68 115.232C99.2667 114.431 97.7124 114.045 96.1358 113.711C93.2801 113.095 90.3723 112.917 87.0703 112.598C88.8998 111.062 90.3797 109.704 91.7406 108.228C94.2989 105.453 96.4482 102.411 97.6827 98.8201C99.817 92.6322 98.7982 87.0379 94.3881 82.1188C93.1536 80.7388 91.7481 79.5591 90.2533 78.4684C87.9776 76.8213 85.516 75.5526 82.7495 74.7958C82.8685 74.4248 82.928 74.1355 83.047 73.8758C85.0921 69.3054 84.8839 64.7721 82.7941 60.2907C80.9349 56.3139 77.9528 53.2867 74.4203 50.7715C68.6567 46.6685 62.1644 44.3166 55.2779 42.9143C53.9318 42.6398 52.5188 42.6175 51.1728 42.1427C51.2694 41.9869 51.2918 41.9127 51.3364 41.8904C51.8123 41.6456 52.2883 41.4081 52.7642 41.1633C58.3939 38.3513 63.4881 34.8048 67.7197 30.1083C70.2482 27.3037 72.2934 24.2098 73.3717 20.5446C75.2606 14.1119 73.1858 8.28757 67.6379 4.53331C65.3994 3.02715 62.9378 1.99585 60.3424 1.30584C53.5897 -0.489679 46.7627 -0.319031 40.0175 1.12035C27.546 3.7691 16.4874 9.19274 7.41451 18.3113C5.01241 20.73 3.33913 23.5346 2.49133 26.8214C1.00397 32.5789 2.51364 37.4758 6.84187 41.512C8.73083 43.2704 10.9693 44.4946 13.364 45.4443C15.0001 46.0972 16.7105 46.5276 18.3987 46.9653C18.3838 47.1063 18.3987 47.1953 18.3689 47.2176C17.9302 47.5069 17.484 47.8037 17.0303 48.0634C13.4904 50.1112 10.3744 52.6264 8.06895 56.0542C4.15718 61.8785 4.15718 68.5857 8.07639 74.41C9.61581 76.6952 11.5048 78.6613 13.6986 80.3233C14.9257 81.2507 16.2048 82.104 17.4691 82.9943C17.1865 83.5805 16.5544 83.714 16.0561 84.0034C10.6718 87.0825 6.57415 91.4674 3.16808 96.5571C2.40953 97.6923 1.78483 98.9091 1.30888 100.193C-1.17502 106.789 -0.148741 112.754 4.6257 118.014C6.47747 120.055 8.67877 121.665 11.0957 122.985C14.4572 124.811 18.0566 125.998 21.7601 126.895C22.3923 127.051 23.0393 127.125 23.5673 127.578C25.1885 128.965 27.1147 129.73 29.1747 130.13C34.0235 131.065 38.9243 131.725 43.8549 131.911C57.0479 132.415 70.1069 131.176 83.0321 128.55C87.7471 127.593 92.4174 126.443 96.8349 124.44C98.523 123.675 100.144 122.815 101.483 121.509C103.766 119.29 103.454 116.827 100.68 115.254V115.232ZM55.6869 47.9299C57.9031 47.9966 58.3047 48.5902 57.2933 50.586C54.7424 55.6461 51.5223 60.2536 47.5957 64.3492C44.5168 67.5618 41.3636 70.7151 38.3145 73.95C35.8306 76.5913 33.4731 79.3439 32.0006 82.7124C31.7255 83.343 31.3239 83.4617 30.5728 83.3059C28.4905 83.1427 26.252 82.8163 24.0507 82.3266C22.3476 81.9482 20.9049 80.9614 19.4027 80.1156C18.7854 79.7669 18.83 79.2846 19.0383 78.7504C19.5217 77.5262 20.1835 76.4132 20.9644 75.3597C23.3516 72.147 26.1256 69.3202 29.4424 67.0424C32.432 64.9872 35.5926 63.2214 38.731 61.4185C41.9214 59.5859 45.1192 57.7532 48.0865 55.5645C50.8009 53.5538 53.6121 51.6025 54.9879 48.3083C55.1292 47.9744 55.3448 47.9002 55.6795 47.915L55.6869 47.9299ZM40.2481 3.30168C43.5872 2.69328 46.9412 2.3594 50.4663 2.41876C49.2689 6.18785 49.9011 8.23563 52.8758 10.7063C53.7905 11.4631 54.8094 12.0715 55.8505 12.6502C56.8843 13.2289 57.9403 13.7706 58.9591 14.379C61.2497 15.7441 61.7033 16.7755 61.1456 19.402C60.6622 21.6575 59.5392 23.5865 57.9477 25.2411C56.0811 27.1776 53.9021 28.7134 51.5595 30.0192C49.0756 31.4067 46.4653 32.5493 43.8549 33.677C43.3641 33.8922 42.9179 34.1222 42.3825 33.6919C37.9204 30.086 34.5366 25.7975 33.6367 19.951C33.2128 17.2355 33.7409 14.6461 34.9531 12.1976C36.2619 9.54888 37.6303 6.92238 38.9095 4.25137C39.2144 3.61329 39.6383 3.42039 40.263 3.30168H40.2481ZM36.7379 4.01395C36.8792 4.73364 36.4479 5.03042 36.2024 5.40139C35.2654 6.84077 34.2614 8.24305 33.3467 9.69727C30.1786 14.7277 30.0224 19.9658 32.4022 25.3153C33.9193 28.7282 36.2024 31.5922 39.0359 34.0257C39.3928 34.3299 39.7424 34.6341 40.2853 35.109C37.08 36.4816 34.0532 37.4906 31.0041 38.4478C30.2307 38.6926 29.7473 38.381 29.2341 37.9729C26.3412 35.6729 24.363 32.7422 23.6863 29.1141C22.4964 22.7333 23.7383 16.8867 27.8509 11.7154C29.7398 9.33371 32.0081 7.31562 33.9565 4.99332C34.6482 4.16234 35.7934 4.37008 36.7379 4.02137V4.01395ZM10.3 38.9078C6.61877 36.1329 5.2727 32.4899 6.34361 27.9566C7.78635 21.8504 11.3114 17.1687 16.1751 13.3699C19.4175 10.8324 23.0541 8.97016 26.8023 7.3082C26.951 7.234 27.0775 7.11529 27.2336 7.04851C27.3154 6.98174 27.4121 6.95206 27.5237 6.95206C27.6575 6.85561 27.7988 6.77399 27.955 6.71464C28.0517 6.64044 28.1558 6.61076 28.2748 6.6256C28.6541 6.41044 28.6541 6.6256 28.6169 6.90754L28.5574 6.95948C28.5053 7.09303 28.4087 7.18206 28.2748 7.22658C25.2778 10.1795 22.8236 13.4664 21.7155 17.6139C20.2579 23.0672 20.4364 28.3869 22.9649 33.5286C24.0507 35.7322 25.5901 37.5945 27.6204 39.3233C24.6084 40.0875 21.7527 40.592 18.9267 41.2152C15.5801 41.9498 12.836 40.822 10.3 38.9078ZM17.417 78.8246C13.8325 76.2352 10.8801 73.3787 9.34065 69.3573C7.72686 65.1431 8.39617 61.2107 11.118 57.6271C12.8285 55.3716 14.9926 53.6206 17.4245 52.2109C21.8345 49.666 26.542 48.0337 31.6585 47.4253C36.2619 46.8763 40.8282 46.1418 45.491 46.4905C48.1534 46.6908 50.8084 46.9653 53.5302 47.5737C53.1882 48.7015 52.4593 49.4657 51.7305 50.2076C49.7672 52.2035 47.5287 53.8654 45.2159 55.431C40.9323 58.3245 36.3809 60.7581 31.9486 63.4069C27.9922 65.7663 24.3853 68.5263 21.3957 72.0506C19.7373 74.0019 18.25 76.0571 17.417 78.8246ZM3.48787 102.27C5.58505 96.7426 9.07292 92.2761 14.3679 89.3973C16.7477 88.1063 19.1498 86.8525 21.7973 85.9102C22.3179 87.4238 21.9758 88.8112 21.656 90.1764C21.1429 92.38 20.2133 94.4277 19.1944 96.4384C18.0194 98.7607 16.7923 101.061 15.6545 103.398C13.6912 107.442 12.6723 111.737 12.3228 116.204C12.2187 117.502 12.4046 118.786 12.598 120.144C5.36938 117.072 0.542884 110.031 3.48043 102.278L3.48787 102.27ZM26.9734 122.77C25.2778 123.06 23.5747 123.327 21.8717 123.601C21.4478 123.668 21.0536 123.564 20.6446 123.46C18.9713 123.045 17.365 122.414 15.7363 121.858C14.7472 121.524 14.3977 120.9 14.2489 119.906C13.8102 117.027 14.3308 114.238 14.896 111.448C15.4463 108.703 16.5321 106.136 17.7666 103.628C19.0754 100.972 20.4587 98.3452 21.7155 95.6668C23.5673 91.7345 23.9689 89.9835 24.0804 86.1105C27.5237 87.2679 30.9446 88.3438 34.4697 88.9002C34.5663 89.5235 34.2689 89.9241 34.1053 90.3544C32.6997 94.1458 32.96 97.8036 35.0572 101.276C35.8529 102.597 36.7082 103.88 37.608 105.134C39.8837 108.324 42.0701 111.567 44.1301 114.898C44.4722 115.447 44.7845 116.011 45.2159 116.753C39.1177 119.12 33.2947 121.672 26.9734 122.755V122.77ZM68.0915 104.199C66.1431 106.373 63.8823 108.213 61.3092 109.615C56.9884 111.982 52.3701 113.726 47.8857 115.737C47.2536 116.018 46.8297 115.966 46.4504 115.276C43.7657 110.32 40.4637 105.757 37.3923 101.039C35.8975 98.7385 34.9902 96.2975 35.377 93.4929C35.5331 92.3651 35.8752 91.3041 36.2545 90.2506C36.485 89.6051 36.8495 89.3306 37.5857 89.427C39.1177 89.6348 40.6571 89.746 42.1891 89.9093C48.4806 90.5696 54.7499 90.5696 61.1902 89.108C61.4802 92.4096 63.3617 94.5761 65.6076 96.52C66.4183 97.2175 67.2586 97.8852 67.9874 98.6569C69.6979 100.46 69.7425 102.344 68.0841 104.192L68.0915 104.199ZM70.5606 71.3086C69.8318 72.4067 68.9022 73.3119 67.8907 74.1429C64.7004 76.7545 61.0786 78.6762 57.4197 80.5014C55.0771 81.6662 52.4445 82.0446 49.8788 82.5343C44.9556 83.4617 39.9804 83.6992 34.9828 83.5879C34.5738 83.5805 34.1573 83.5137 33.3988 83.4395C34.1945 82.3785 34.782 81.5772 35.3918 80.7982C38.1583 77.2962 41.3487 74.2022 44.6284 71.1899C48.3096 67.8141 51.7975 64.2675 54.6458 60.1423C56.9735 56.7739 59.1748 53.3461 60.1639 49.2134C61.8521 49.5473 63.3617 50.1854 64.8714 50.8309C64.8193 50.9793 64.8119 51.1202 64.7375 51.1944C62.447 53.4203 62.856 56.6626 65.0424 58.9849C65.5705 59.5488 66.1431 60.0607 66.7232 60.5727C67.6974 61.4407 68.7237 62.2569 69.6756 63.1472C72.5165 65.8108 72.7396 68.0515 70.568 71.3012L70.5606 71.3086Z" fill="#0D070B"/>
</g>
<defs>
<clipPath id="clip0_384_19924">
<rect width="103" height="132" fill="white"/>
</clipPath>
</defs>
</svg>
