<svg width="24" height="24" viewBox="0 0 24 24" fill="none" xmlns="http://www.w3.org/2000/svg">
<path d="M8.37834 15.0238C9.67559 13.4598 9.89186 12 12.1621 12C14.4324 12 14.5405 13.4598 15.6216 15.0238C16.537 16.3481 18 15.858 18 17.9434C18 22.3227 14.8648 20.6544 12.2702 20.6544C9.6757 20.6544 6 22.427 6 17.9434C6 15.858 7.24628 16.3887 8.37834 15.0238Z" stroke="#0D070B" stroke-width="2"/>
<ellipse cx="4.21373" cy="11.1616" rx="1.5" ry="2" transform="rotate(-25.442 4.21373 11.1616)" stroke="#0D070B" stroke-width="2"/>
<ellipse rx="1.5" ry="2" transform="matrix(-0.90302 -0.429598 -0.429598 0.90302 19.7863 11.1616)" stroke="#0D070B" stroke-width="2"/>
<ellipse cx="9.03519" cy="7.08759" rx="1.5" ry="2.5" transform="rotate(-13.3081 9.03519 7.08759)" stroke="#0D070B" stroke-width="2"/>
<ellipse rx="1.5" ry="2.5" transform="matrix(-0.973146 -0.230187 -0.230187 0.973146 14.9648 7.08759)" stroke="#0D070B" stroke-width="2"/>
</svg>
