<svg width="24" height="24" viewBox="0 0 24 24" fill="none" xmlns="http://www.w3.org/2000/svg">
<path fill-rule="evenodd" clip-rule="evenodd" d="M10 2C8.89543 2 8 2.89543 8 4V5.27924C8 6.1401 8.55086 6.90438 9.36754 7.17661L9.7767 7.31299C6.44011 8.27632 4 11.3532 4 15C4 19.4183 7.58172 23 12 23C16.4183 23 20 19.4183 20 15C20 11.3532 17.5599 8.27632 14.2233 7.31299L14.6325 7.17661C15.4491 6.90438 16 6.1401 16 5.27924V4C16 2.89543 15.1046 2 14 2H10ZM10 4H14V5.27924L12 5.94591L10 5.27924V4ZM18 15C18 18.1559 15.1559 21 12 21C8.84409 21 6 18.1559 6 15C6 11.8441 8.84409 9 12 9C15.1559 9 18 11.8441 18 15Z" fill="#0D070B"/>
</svg>
