<svg width="24" height="24" viewBox="0 0 24 24" fill="none" xmlns="http://www.w3.org/2000/svg">
<path fill-rule="evenodd" clip-rule="evenodd" d="M15 2C13.8954 2 13 2.89543 13 4V16V20C13 21.1046 13.8954 22 15 22H20C21.1046 22 22 21.1046 22 20V16V4C22 2.89543 21.1046 2 20 2H15ZM20 16H15V20H20V16ZM20 14V4L15 4V14H20ZM2 16C2 15.2529 2.40961 14.6015 3.01651 14.2581C3.00562 14.1736 3 14.0875 3 14V10C3 9.25292 3.40961 8.60152 4.01651 8.25812C4.00562 8.17361 4 8.08745 4 7.99997V4.3874C4 3.02228 5.33739 2.05834 6.63246 2.49003L7.63246 2.82336C8.44914 3.09559 9 3.85987 9 4.72073V7.99997C9 8.08745 8.99438 8.17361 8.98349 8.25812C9.59039 8.60152 10 9.25292 10 10V14C10 14.0875 9.99438 14.1736 9.98349 14.2581C10.5904 14.6015 11 15.2529 11 16V20C11 21.1046 10.1046 22 9 22H4C2.89543 22 2 21.1046 2 20V16ZM8 14H5V10H8V14ZM4 16H5H8H9V20H4V16ZM6 4.3874L7 4.72073V7.99997H6V4.3874Z" fill="#0D070B"/>
</svg>
