<svg width="24" height="24" viewBox="0 0 24 24" fill="none" xmlns="http://www.w3.org/2000/svg">
<path fill-rule="evenodd" clip-rule="evenodd" d="M11.1028 2.71575C11.6701 2.42808 12.3299 2.42808 12.8972 2.71575L21.8184 7.23902C22.5849 7.62765 22.9762 8.38543 22.9989 9.15358C22.9996 9.16895 23 9.18441 23 9.19995V9.22484V13.2C23 13.7522 22.5523 14.2 22 14.2C21.4477 14.2 21 13.7522 21 13.2V11.5887L19 12.5013V15.993C19 17.0947 18.4332 18.1136 17.5116 18.6687L13.5116 21.078C12.5775 21.6407 11.4225 21.6407 10.4884 21.078L6.48837 18.6687C5.56671 18.1136 4.99998 17.0947 4.99998 15.993V12.5013L2.25664 11.2494C0.61708 10.5013 0.571298 8.05548 2.1816 7.23902L11.1028 2.71575ZM21 9.22616L12 4.5L3 9.22616L12 13.5L21 9.22616ZM12.8222 15.3204L17 13.414V15.993C17 16.3602 16.8111 16.6998 16.5039 16.8849L12.5039 19.2942C12.1925 19.4818 11.8075 19.4818 11.4961 19.2942L7.49611 16.8849C7.18889 16.6998 6.99998 16.3602 6.99998 15.993V13.4139L11.1778 15.3204C11.7026 15.5599 12.2974 15.5599 12.8222 15.3204Z" fill="#0D070B"/>
</svg>
