<svg width="24" height="24" viewBox="0 0 24 24" fill="none" xmlns="http://www.w3.org/2000/svg">
<path fill-rule="evenodd" clip-rule="evenodd" d="M8 7C8 4.79086 9.79086 3 12 3C14.2091 3 16 4.79086 16 7H17.5966C19.0314 7 20.2654 8.01604 20.5408 9.42424L22.3008 18.4242C22.6631 20.2771 21.2445 22 19.3566 22H4.64356C2.75565 22 1.337 20.2771 1.69933 18.4242L3.45933 9.42424C3.73471 8.01604 4.96869 7 6.40356 7H8ZM14 10V9H10V10C10 10.5523 9.55228 11 9 11C8.44772 11 8 10.5523 8 10V9H6.40356C6.37772 9 6.35209 9.00099 6.32668 9.00293L7.7544 13.9999H16.1917L17.2631 9H16V10C16 10.5523 15.5523 11 15 11C14.4477 11 14 10.5523 14 10ZM18.8439 11.168L18.1473 14.419C17.9497 15.3411 17.1348 15.9999 16.1917 15.9999H7.7544C6.86144 15.9999 6.07667 15.408 5.83135 14.5494L5.03798 11.7726L3.66215 18.8081C3.54137 19.4257 4.01426 20 4.64356 20H19.3566C19.9859 20 20.4588 19.4257 20.338 18.8081L18.8439 11.168ZM12 5C13.1046 5 14 5.89543 14 7H10C10 5.89543 10.8954 5 12 5Z" fill="#84848A"/>
</svg>
