<svg width="24" height="24" viewBox="0 0 24 24" fill="none" xmlns="http://www.w3.org/2000/svg">
<path fill-rule="evenodd" clip-rule="evenodd" d="M20.3742 5.88267C20.7647 5.49214 20.7647 4.85898 20.3742 4.46845C19.9837 4.07793 19.3505 4.07793 18.96 4.46845L17.5458 5.88267C17.1553 6.27319 17.1553 6.90636 17.5458 7.29688C17.9363 7.6874 18.5695 7.6874 18.96 7.29688L20.3742 5.88267ZM17.7846 16.3757L18.1011 16.2637C18.116 16.2217 18.1365 16.1393 18.1399 16.0011C18.1473 15.7035 18.073 15.2331 17.8267 14.5929C17.3337 13.3112 16.2813 11.6892 14.7174 10.1253C13.1534 8.56139 11.5315 7.50892 10.2497 7.01594C9.60952 6.7697 9.13916 6.69538 8.84157 6.70275C8.69917 6.70628 8.61608 6.72786 8.5753 6.74293C8.55519 6.75036 8.54402 6.75665 8.53889 6.75988C8.53397 6.76297 8.53168 6.76505 8.53018 6.76655C8.52868 6.76805 8.52659 6.77035 8.5235 6.77527C8.5221 6.7775 8.52012 6.78087 8.51772 6.78562L8.48104 6.91307C8.47383 6.95581 8.46806 7.01016 8.46638 7.07794C8.45901 7.37553 8.53333 7.8459 8.77957 8.48612C9.27255 9.76786 10.325 11.3898 11.8889 12.9537C13.4529 14.5177 15.0748 15.5701 16.3565 16.0631C16.9968 16.3093 17.4671 16.3837 17.7647 16.3763L17.7846 16.3757ZM14.6166 17.4967C13.2667 16.7854 11.8263 15.7195 10.4747 14.3679C9.19622 13.0894 8.17334 11.7314 7.46446 10.4458L6.72982 12.9987C6.73718 13.0166 6.74408 13.0348 6.75049 13.0533C7.13304 14.1588 7.83264 15.2614 8.70695 16.1357C9.63215 17.0609 11.0631 17.8823 12.2425 18.257C12.2798 18.2689 12.316 18.2827 12.3509 18.2984L14.6166 17.4967ZM5.04587 18.8505L5.91202 15.8406C6.30924 16.4531 6.7746 17.0318 7.29274 17.5499C7.93912 18.1963 8.7574 18.789 9.61065 19.268L6.5206 20.3614C5.66742 20.6681 4.74944 19.7276 5.04587 18.8505ZM6.69567 5.47747C6.7661 5.36841 6.84719 5.26756 6.93919 5.17556C8.50128 3.61346 12.6169 5.19638 16.1316 8.71109C19.6463 12.2258 21.2292 16.3414 19.6671 17.9035C19.5594 18.0112 19.4396 18.1039 19.3086 18.1821C19.2253 18.2547 19.1274 18.3131 19.0164 18.353L7.43245 22.452C4.87291 23.3721 2.11896 20.5505 3.00827 17.9192L6.48849 5.82519C6.53438 5.68942 6.60575 5.57261 6.69567 5.47747ZM14.9762 1.19174C15.5096 1.33468 15.8262 1.88302 15.6833 2.41648L15.1656 4.34833C15.0227 4.8818 14.4744 5.19838 13.9409 5.05544C13.4074 4.9125 13.0909 4.36416 13.2338 3.8307L13.7514 1.89885C13.8944 1.36538 14.4427 1.0488 14.9762 1.19174ZM22.4262 9.15938C22.9597 9.01644 23.508 9.33302 23.6509 9.86649C23.7939 10.4 23.4773 10.9483 22.9438 11.0912L21.012 11.6089C20.4785 11.7518 19.9302 11.4352 19.7872 10.9018C19.6443 10.3683 19.9609 9.81996 20.4943 9.67702L22.4262 9.15938Z" fill="#0D070B"/>
</svg>
