<svg width="24" height="24" viewBox="0 0 24 24" fill="none" xmlns="http://www.w3.org/2000/svg">
<path fill-rule="evenodd" clip-rule="evenodd" d="M13.5089 2.86795C13.5819 2.32051 14.0849 1.9359 14.6323 2.00889L17.6323 2.40889C18.1291 2.47513 18.5002 2.89891 18.5002 3.40012V5.00012H19.638C21.3436 5.00012 22.6705 6.55432 22.4822 8.33142L21.3163 19.3314C21.1553 20.8507 19.9303 22.0001 18.4721 22.0001H15.5279C15.0707 22.0001 14.6364 21.8871 14.2506 21.6851C13.7058 21.8888 13.1159 22.0001 12.5 22.0001H7.5C4.81944 22.0001 2.63156 19.8907 2.50572 17.2413C1.88865 16.6919 1.5 15.8914 1.5 15.0001C1.5 14.1097 1.88794 13.3098 2.50403 12.7604C2.63038 9.00541 5.71423 6.00012 9.5 6.00012H10.5C11.0457 6.00012 11.5768 6.06257 12.0866 6.18071C12.6068 5.46663 13.4276 5.00012 14.3621 5.00012L16.5002 5.00012V4.27563L14.368 3.99134C13.8205 3.91835 13.4359 3.41539 13.5089 2.86795ZM14.1488 7.02513C14.9768 7.53185 15.6913 8.20585 16.2453 9.00012H20.4918L20.5861 8.11055C20.6489 7.51819 20.2065 7.00012 19.638 7.00012H14.3621C14.2886 7.00012 14.2172 7.00878 14.1488 7.02513ZM17.2101 11.0001C17.377 11.5607 17.4755 12.1507 17.496 12.7604C18.1121 13.3099 18.5 14.1097 18.5 15.0001C18.5 15.8914 18.1113 16.6919 17.4943 17.2413C17.4452 18.2739 17.083 19.2245 16.5004 20.0001H18.4721C18.9582 20.0001 19.3665 19.617 19.4202 19.1106L20.2798 11.0001H17.2101ZM4.5 14.0001C3.94772 14.0001 3.5 14.4478 3.5 15.0001C3.5 15.5524 3.94772 16.0001 4.5 16.0001H15.5C16.0523 16.0001 16.5 15.5524 16.5 15.0001C16.5 14.4478 16.0523 14.0001 15.5 14.0001H4.5ZM7.5 20.0001C6.19378 20.0001 5.08254 19.1653 4.67071 18.0001H15.3293C14.9175 19.1653 13.8062 20.0001 12.5 20.0001H7.5ZM15.4 12.0001C14.9367 9.71788 12.919 8.00012 10.5 8.00012H9.5C7.08104 8.00012 5.06329 9.71788 4.60002 12.0001H15.4Z" fill="#0D070B"/>
</svg>
