<svg width="24" height="24" viewBox="0 0 24 24" fill="none" xmlns="http://www.w3.org/2000/svg">
<path fill-rule="evenodd" clip-rule="evenodd" d="M13.3453 6.77334L16 4.04086V7.88017C16 10.1334 14.2091 11.9601 12 11.9601C9.79086 11.9601 8 10.1334 8 7.88017V4.04086L10.6547 6.77334C11.4175 7.48068 12.5825 7.48068 13.3453 6.77334ZM8.04641 1.32698L12 5.2639L15.9536 1.32698C16.7395 0.59825 18 1.167 18 2.25033V7.88017C18 10.9126 15.8376 13.43 12.9998 13.9154V17.2605C13.5882 16.7402 14.3006 16.2456 15.11 15.8155C18.0362 14.2606 21.1221 14.1378 22.0026 15.5414C22.883 16.945 21.2246 19.3433 18.2983 20.8983C15.9715 22.1347 13.5438 22.4656 12.2042 21.8437C10.8645 22.4656 8.43677 22.1347 6.10998 20.8983C3.18376 19.3433 1.52533 16.945 2.40577 15.5414C3.2862 14.1378 6.37211 14.2606 9.29832 15.8155C9.92849 16.1504 10.4999 16.5244 10.9998 16.9191V13.9154C8.16216 13.4297 6 10.9125 6 7.88017V2.25033C6 1.167 7.26051 0.59825 8.04641 1.32698ZM11.1298 20.1773C11.0866 20.0584 11.002 19.8844 10.8375 19.6464C10.3723 18.9737 9.48392 18.1732 8.23554 17.5098C6.98716 16.8464 5.78978 16.5386 4.92413 16.5041C4.61798 16.4919 4.41194 16.5116 4.27852 16.5366C4.3217 16.6554 4.40626 16.8295 4.5708 17.0674C5.03601 17.7402 5.92438 18.5407 7.17276 19.2041C8.42114 19.8674 9.61852 20.1753 10.4842 20.2097C10.7903 20.2219 10.9964 20.2023 11.1298 20.1773ZM4.23518 16.332C4.23533 16.3321 4.23525 16.3345 4.23446 16.3391C4.23462 16.3343 4.23502 16.332 4.23518 16.332ZM4.06438 16.6043C4.06426 16.6042 4.06626 16.6027 4.07071 16.6002C4.06671 16.6031 4.06449 16.6044 4.06438 16.6043ZM13.5708 19.6464C13.4063 19.8844 13.3217 20.0584 13.2785 20.1773C13.412 20.2023 13.618 20.2219 13.9242 20.2097C14.7898 20.1753 15.9872 19.8674 17.2356 19.2041C18.4839 18.5407 19.3723 17.7402 19.8375 17.0674C20.0021 16.8295 20.0866 16.6554 20.1298 16.5366C19.9964 16.5116 19.7903 16.4919 19.4842 16.5041C18.6185 16.5386 17.4212 16.8464 16.1728 17.5098C14.9244 18.1732 14.036 18.9737 13.5708 19.6464ZM20.1731 16.3332C20.1731 16.3324 20.1731 16.332 20.1731 16.332C20.1733 16.332 20.1737 16.3343 20.1739 16.3391C20.1734 16.3363 20.1732 16.3343 20.1731 16.3332ZM20.3376 16.6002C20.3421 16.6027 20.3441 16.6042 20.3439 16.6043C20.3439 16.6044 20.3429 16.6038 20.341 16.6026C20.3401 16.602 20.3389 16.6012 20.3376 16.6002Z" fill="#84848A"/>
</svg>
