<svg width="24" height="24" viewBox="0 0 24 24" fill="none" xmlns="http://www.w3.org/2000/svg">
<path fill-rule="evenodd" clip-rule="evenodd" d="M19.0001 4.21777C17.3324 5.01039 15.4177 5.17382 14.4346 5.1416H9.00012V9.33521C9.00012 9.88749 8.5524 10.3352 8.00012 10.3352C7.44783 10.3352 7.00012 9.88749 7.00012 9.33521V5.14379C5.88703 5.19436 5.00012 6.11279 5.00012 7.23837V16.0655C5.25541 15.9891 5.526 15.9481 5.80621 15.9481H14.4517C16.3438 15.9481 17.5016 15.5785 18.1575 15.1253C18.7701 14.7021 19.0001 14.1731 19.0001 13.5932V4.21777ZM5.00012 18.7545L5 19.1935C5 19.6389 5.36106 20 5.80645 20H17.0001V17.7052C16.2508 17.866 15.4011 17.9481 14.4517 17.9481H5.80621C5.36108 17.9481 5.00012 18.3088 5.00012 18.7545ZM17.0001 22H19.0001H20C20.5523 22 21 21.5523 21 21C21 20.4477 20.5523 20 20 20H19.0001V16.9588C19.1018 16.8988 19.1998 16.8361 19.2944 16.7708C20.4559 15.9682 21.0001 14.8198 21.0001 13.5932V3.57803C21.0001 2.8702 20.5383 2.38695 20.085 2.17033C19.6387 1.95702 19.0372 1.91317 18.5083 2.21913C17.1765 2.98961 15.3633 3.17352 14.4874 3.14224L14.4696 3.1416H7.09689C4.83431 3.1416 3.00012 4.97579 3.00012 7.23837L3 19.1935C3 20.7435 4.25649 22 5.80645 22H17.0001Z" fill="#0D070B"/>
</svg>
