<svg width="24" height="24" viewBox="0 0 24 24" fill="none" xmlns="http://www.w3.org/2000/svg">
<path fill-rule="evenodd" clip-rule="evenodd" d="M9 2C6.79086 2 5 3.79086 5 6V10C3.34315 10 2 11.3431 2 13V18C2 19.1046 2.89543 20 4 20H6V21C6 21.5523 6.44772 22 7 22C7.55228 22 8 21.5523 8 21V20H16V21C16 21.5523 16.4477 22 17 22C17.5523 22 18 21.5523 18 21V20H20C21.1046 20 22 19.1046 22 18V13C22 11.3431 20.6569 10 19 10V6C19 3.79086 17.2091 2 15 2H9ZM17 10.7639V6C17 4.89543 16.1046 4 15 4H9C7.89543 4 7 4.89543 7 6V10.7639C7.61375 11.3132 8 12.1115 8 13H16C16 12.1115 16.3863 11.3132 17 10.7639ZM6 13V18H4V13C4 12.4477 4.44772 12 5 12C5.55228 12 6 12.4477 6 13ZM16 18H8V15H16V18ZM20 13V18H18V13C18 12.4477 18.4477 12 19 12C19.5523 12 20 12.4477 20 13Z" fill="#0D070B"/>
</svg>
