<svg width="24" height="24" viewBox="0 0 24 24" fill="none" xmlns="http://www.w3.org/2000/svg">
<path fill-rule="evenodd" clip-rule="evenodd" d="M8.27698 3C7.9145 3 7.55882 3.09852 7.24799 3.28501L2.97101 5.8512C2.3686 6.21265 2 6.86366 2 7.56619V11C2 12.1046 2.89543 13 4 13H6V15.5V18C6 19.6569 7.34315 21 9 21H15C16.6569 21 18 19.6569 18 18V15.5V13H20C21.1046 13 22 12.1046 22 11V7.53518C22 6.86648 21.6658 6.24202 21.1094 5.87108L17.3066 3.3359C16.9781 3.11688 16.5921 3 16.1972 3H15C14.4477 3 14 3.44772 14 4C14 4.1139 13.9307 4.33942 13.5666 4.58216C13.2095 4.82024 12.6585 5 12 5C11.3415 5 10.7905 4.82024 10.4334 4.58216C10.0693 4.33942 10 4.1139 10 4C10 3.44772 9.55228 3 9 3H8.27698ZM18 11H20V7.53518L16.1972 5H15.7803C15.5416 5.51986 15.1327 5.9418 14.676 6.24626C13.9474 6.73204 12.9983 7 12 7C11.0017 7 10.0526 6.73204 9.32398 6.24626C8.87518 5.94706 8.47254 5.53441 8.23223 5.02685L4 7.56619L4 11H6V10.5C6 9.94772 6.44772 9.5 7 9.5C7.55228 9.5 8 9.94772 8 10.5V13V15.5H16V13V10.5C16 9.94772 16.4477 9.5 17 9.5C17.5523 9.5 18 9.94772 18 10.5V11ZM16 17.5H8V18C8 18.5523 8.44772 19 9 19H15C15.5523 19 16 18.5523 16 18V17.5Z" fill="#0D070B"/>
</svg>
