<svg width="24" height="24" viewBox="0 0 24 24" fill="none" xmlns="http://www.w3.org/2000/svg">
<path fill-rule="evenodd" clip-rule="evenodd" d="M18 6L18 15H6L6 6H18ZM6 17H18V19C18 20.1046 17.1046 21 16 21H8C6.89543 21 6 20.1046 6 19L6 17ZM17.7324 4C17.3866 3.4022 16.7403 3 16 3L8 3C7.25972 3 6.61337 3.4022 6.26756 4H17.7324ZM16 1C18.2091 1 20 2.79086 20 5L20 19C20 21.2091 18.2091 23 16 23H8C5.79086 23 4 21.2091 4 19V5C4 2.79086 5.79086 1 8 1H16ZM12 20C12.5523 20 13 19.5523 13 19C13 18.4477 12.5523 18 12 18C11.4477 18 11 18.4477 11 19C11 19.5523 11.4477 20 12 20Z" fill="#0D070B"/>
</svg>
