<svg width="24" height="24" viewBox="0 0 24 24" fill="none" xmlns="http://www.w3.org/2000/svg">
<path fill-rule="evenodd" clip-rule="evenodd" d="M19.5 5.00097C19.5 4.3721 18.9264 3.89932 18.3091 4.01936L10.3091 5.57491C9.83924 5.66628 9.5 6.07784 9.5 6.55653V7.39404L19.5 5.72738V5.00097ZM19.5 7.75496V13.5746H18C16.067 13.5746 14.5 15.1416 14.5 17.0746C14.5 19.0076 16.067 20.5746 18 20.5746C19.933 20.5746 21.5 19.0076 21.5 17.0746V14.0618V13.5746V5.00097C21.5 3.11438 19.7793 1.69603 17.9274 2.05613L9.92739 3.61168C8.51771 3.88579 7.5 5.12045 7.5 6.55653V15H6C4.067 15 2.5 16.567 2.5 18.5C2.5 20.433 4.067 22 6 22C7.933 22 9.5 20.433 9.5 18.5V16.5746V15V9.42163L19.5 7.75496ZM16.5 17.0746C16.5 16.2462 17.1716 15.5746 18 15.5746H19.5V17.0746C19.5 17.903 18.8284 18.5746 18 18.5746C17.1716 18.5746 16.5 17.903 16.5 17.0746ZM4.5 18.5C4.5 17.6716 5.17157 17 6 17H7.5V18.5C7.5 19.3284 6.82843 20 6 20C5.17157 20 4.5 19.3284 4.5 18.5Z" fill="#84848A"/>
</svg>
