<svg width="24" height="24" viewBox="0 0 24 24" fill="none" xmlns="http://www.w3.org/2000/svg">
<path fill-rule="evenodd" clip-rule="evenodd" d="M12.5575 2.16983L12.0008 2.99888C12.2791 2.58441 12.4182 2.3771 12.4878 2.27344C12.5566 2.17097 12.5574 2.16976 12.5575 2.16983C12.2203 1.94339 11.7797 1.94339 11.4425 2.16983L11.4397 2.1717L11.4351 2.17481L11.4206 2.18473C11.4085 2.19298 11.3918 2.20449 11.3708 2.21918C11.3288 2.24855 11.2694 2.29069 11.1952 2.34497C11.0467 2.45346 10.8381 2.61087 10.5895 2.81219C10.0937 3.21359 9.43063 3.7959 8.76443 4.51925C7.46494 5.93021 6 8.04372 6 10.5C6 10.6677 6.00338 10.8344 6.01006 11H2C1.44772 11 1 11.4477 1 12V15C1 18.866 4.13401 22 8 22H12H16C19.866 22 23 18.866 23 15V12C23 11.4477 22.5523 11 22 11H17.9899C17.9966 10.8344 18 10.6677 18 10.5C18 8.04372 16.5351 5.93021 15.2356 4.51925C14.5694 3.7959 13.9063 3.21359 13.4105 2.81219C13.1619 2.61087 12.9533 2.45346 12.8048 2.34497C12.7306 2.29069 12.6712 2.24855 12.6292 2.21918C12.6082 2.20449 12.5915 2.19298 12.5794 2.18473L12.5649 2.17481L12.5603 2.1717L12.5575 2.16983ZM15.9835 11.0857C15.9944 10.8931 16 10.6978 16 10.5C16 8.81415 14.9649 7.17765 13.7644 5.87415C13.1806 5.24026 12.5937 4.72423 12.152 4.36659C12.099 4.32371 12.0483 4.28321 12 4.24514C11.9517 4.28321 11.901 4.32371 11.848 4.36659C11.4063 4.72423 10.8194 5.24026 10.2356 5.87415C9.03506 7.17765 8 8.81415 8 10.5C8 10.6978 8.00558 10.8931 8.01646 11.0857C9.67623 11.369 11.1035 12.3339 12 13.6822C12.8965 12.3339 14.3238 11.369 15.9835 11.0857ZM7 13H6.25969H3V15C3 17.7614 5.23858 20 8 20H11V17C11 14.7909 9.20914 13 7 13ZM11.9959 2.9939L11.4425 2.16983C11.4426 2.16976 11.4434 2.17097 11.5122 2.27343C11.5815 2.37667 11.7198 2.58273 11.9959 2.9939ZM16 20H13V17C13 14.7909 14.7909 13 17 13H17.7403H21V15C21 17.7614 18.7614 20 16 20Z" fill="#0D070B"/>
</svg>
