<svg width="24" height="24" viewBox="0 0 24 24" fill="none" xmlns="http://www.w3.org/2000/svg">
<g clip-path="url(#clip0_313_12244)">
<path fill-rule="evenodd" clip-rule="evenodd" d="M19.6961 13.3298L20.5621 12.8298C21.0404 12.5537 21.2043 11.9421 20.9281 11.4638L19.6782 9.29882L18.1782 6.70074L16.9281 4.53558C16.652 4.05728 16.0404 3.89341 15.5621 4.16955L14.6961 4.66955C14.2178 4.94569 14.0539 5.55728 14.33 6.03558L14.8301 6.90171L17.8301 12.0979L18.33 12.9638C18.6062 13.4421 19.2178 13.6059 19.6961 13.3298ZM16.098 13.0979L16.598 13.9638C17.4264 15.3987 19.2612 15.8903 20.6961 15.0619L21.5621 14.5619C22.997 13.7334 23.4886 11.8987 22.6602 10.4638L22.1176 9.52394C22.5191 9.05431 22.6028 8.36443 22.2763 7.79882L20.7763 5.20074C20.4497 4.63514 19.8104 4.36266 19.2029 4.47562L18.6602 3.53558C17.8317 2.1007 15.997 1.60907 14.5621 2.4375L13.6961 2.9375C12.2612 3.76593 11.7696 5.6007 12.598 7.03558L13.098 7.90171L7.90211 10.9016L7.40211 10.0356C6.57368 8.60068 4.73891 8.10906 3.30403 8.93748L2.43801 9.43748C1.00313 10.2659 0.511503 12.1007 1.33993 13.5356L1.8825 14.4753C1.48077 14.945 1.39703 15.635 1.72363 16.2006L3.22363 18.7987C3.55023 19.3644 4.18966 19.6369 4.79724 19.5238L5.33993 20.4638C6.16836 21.8986 8.00313 22.3903 9.43801 21.5618L10.304 21.0618C11.7389 20.2334 12.2305 18.3986 11.4021 16.9638L10.9021 16.0977L16.098 13.0979ZM15.098 11.3658L14.098 9.63376L8.90211 12.6336L9.90211 14.3657L15.098 11.3658ZM6.17006 11.9016L6.16985 11.9017L9.16985 17.0979L9.17006 17.0977L9.67006 17.9638C9.9462 18.4421 9.78232 19.0536 9.30403 19.3298L8.43801 19.8298C7.95971 20.1059 7.34812 19.9421 7.07198 19.4638L3.07198 12.5356C2.79584 12.0573 2.95971 11.4457 3.43801 11.1695L4.30403 10.6695C4.78232 10.3934 5.39391 10.5573 5.67006 11.0356L6.17006 11.9016Z" fill="#0D070B"/>
</g>
<defs>
<clipPath id="clip0_313_12244">
<rect width="24" height="24" fill="white"/>
</clipPath>
</defs>
</svg>
