<svg width="24" height="24" viewBox="0 0 24 24" fill="none" xmlns="http://www.w3.org/2000/svg">
<path fill-rule="evenodd" clip-rule="evenodd" d="M17.9998 9L16.9864 6.29775C16.6937 5.51715 15.9475 5 15.1138 5H8.88577C8.05208 5 7.30584 5.51715 7.01311 6.29775L5.99977 9H17.9998ZM3.79444 9.18487L5.14045 5.59551C5.72591 4.03429 7.21839 3 8.88577 3H15.1138C16.7811 3 18.2736 4.03429 18.8591 5.59551L20.205 9.18471C21.8253 9.69596 23 11.2108 23 13V14C23 15.8666 21.7215 17.4346 19.9924 17.8759C19.9974 17.9166 20 17.958 20 18V20C20 20.5523 19.5523 21 19 21H18C17.4477 21 17 20.5523 17 20V18H7V20C7 20.5523 6.55228 21 6 21H5C4.44772 21 4 20.5523 4 20V18C4 17.958 4.00259 17.9166 4.00763 17.8759C2.27853 17.4346 1 15.8666 1 14V13C1 11.211 2.17447 9.69629 3.79444 9.18487ZM5 11C3.89543 11 3 11.8954 3 13V14C3 15.1046 3.89543 16 5 16H19C20.1046 16 21 15.1046 21 14V13C21 11.8954 20.1046 11 19 11H5ZM7 13.5C7 14.3284 6.32843 15 5.5 15C4.67157 15 4 14.3284 4 13.5C4 12.6716 4.67157 12 5.5 12C6.32843 12 7 12.6716 7 13.5ZM18.5 15C19.3284 15 20 14.3284 20 13.5C20 12.6716 19.3284 12 18.5 12C17.6716 12 17 12.6716 17 13.5C17 14.3284 17.6716 15 18.5 15ZM9 14C9 13.4477 9.44772 13 10 13H14C14.5523 13 15 13.4477 15 14C15 14.5523 14.5523 15 14 15H10C9.44772 15 9 14.5523 9 14Z" fill="#0D070B"/>
</svg>
