<svg width="24" height="24" viewBox="0 0 24 24" fill="none" xmlns="http://www.w3.org/2000/svg">
<g clip-path="url(#clip0_313_12237)">
<path fill-rule="evenodd" clip-rule="evenodd" d="M5.59209 5.05439L5.42462 5.22186L5.25715 5.38934C1.24914 9.39735 1.24914 15.8956 5.25715 19.9036C6.32595 20.9724 8.05882 20.9724 9.12763 19.9036L11.435 17.5962L13.9099 15.1214L19.5668 20.7782C19.9573 21.1687 20.5904 21.1687 20.981 20.7782C21.3715 20.3877 21.3715 19.7545 20.981 19.364L15.3241 13.7071L17.799 11.2323L20.1064 8.92487C21.1752 7.85607 21.1752 6.12319 20.1064 5.05439C16.0984 1.04638 9.60011 1.04638 5.59209 5.05439ZM13.9099 12.2929L14.9706 11.2323L10.3744 6.63608C9.39806 5.65977 7.81515 5.65977 6.83883 6.63608C5.86252 7.61239 5.86252 9.1953 6.83883 10.1716L11.435 14.7678L12.4957 13.7071L13.9099 12.2929ZM6.67136 18.4894C4.47686 16.2949 3.77473 13.1732 4.56498 10.3853C4.77757 10.8189 5.06412 11.2253 5.42462 11.5858L10.0208 16.182L7.71341 18.4894C7.42566 18.7772 6.95912 18.7772 6.67136 18.4894ZM18.6922 7.51066L16.3848 9.81806L11.7886 5.22186C11.4281 4.86136 11.0216 4.57482 10.5881 4.36222C13.3759 3.57198 16.4977 4.2741 18.6922 6.4686C18.9799 6.75636 18.9799 7.2229 18.6922 7.51066Z" fill="#84848A"/>
</g>
<defs>
<clipPath id="clip0_313_12237">
<rect width="24" height="24" fill="white"/>
</clipPath>
</defs>
</svg>
