<svg width="37" height="36" viewBox="0 0 37 36" fill="none" xmlns="http://www.w3.org/2000/svg">
<rect x="0.5" width="36" height="36" rx="18" fill="#DBF4EA"/>
<path fill-rule="evenodd" clip-rule="evenodd" d="M13 11.5H24C24.6604 11.5 25.2709 11.7134 25.7664 12.0749L19.0999 17.3C18.7443 17.5667 18.2555 17.5667 17.8999 17.3L11.2334 12.075C11.729 11.7134 12.3396 11.5 13 11.5ZM10.1004 13.7275C10.0349 13.974 10 14.2329 10 14.5V21.5C10 23.1569 11.3431 24.5 13 24.5H24C25.6569 24.5 27 23.1569 27 21.5V14.5C27 14.2329 26.9651 13.9739 26.8996 13.7274L20.2999 18.9C19.2332 19.7 17.7666 19.7 16.6999 18.9L10.1004 13.7275ZM8 14.5C8 11.7386 10.2386 9.5 13 9.5H24C26.7614 9.5 29 11.7386 29 14.5V21.5C29 24.2614 26.7614 26.5 24 26.5H13C10.2386 26.5 8 24.2614 8 21.5V14.5Z" fill="#0D070B"/>
</svg>
