<svg width="37" height="36" viewBox="0 0 37 36" fill="none" xmlns="http://www.w3.org/2000/svg">
<rect x="0.5" width="36" height="36" rx="18" fill="#E2E4E2"/>
<path fill-rule="evenodd" clip-rule="evenodd" d="M12.4898 24.01C11.3182 22.8384 11.3182 20.9389 12.4898 19.7674L13.5504 18.7067C13.941 18.3162 13.941 17.683 13.5504 17.2925C13.1599 16.902 12.5268 16.902 12.1362 17.2925L11.0756 18.3531C9.12295 20.3058 9.12295 23.4716 11.0756 25.4242C13.0282 27.3768 16.194 27.3768 18.1466 25.4242L21.1518 22.419C22.6163 20.9545 22.6163 18.5802 21.1518 17.1157L20.6215 16.5854C20.231 16.1948 19.5978 16.1948 19.2073 16.5854C18.8168 16.9759 18.8168 17.6091 19.2073 17.9996L19.7376 18.5299C20.421 19.2133 20.421 20.3214 19.7376 21.0048L16.7324 24.01C15.5609 25.1816 13.6614 25.1816 12.4898 24.01ZM24.5106 11.9892C25.6822 13.1608 25.6822 15.0602 24.5106 16.2318L23.4499 17.2925C23.0594 17.683 23.0594 18.3162 23.4499 18.7067C23.8405 19.0972 24.4736 19.0972 24.8642 18.7067L25.9248 17.646C27.8774 15.6934 27.8774 12.5276 25.9248 10.575C23.9722 8.62234 20.8064 8.62234 18.8537 10.575L15.8485 13.5802C14.3841 15.0446 14.3841 17.419 15.8485 18.8835L16.3789 19.4138C16.7694 19.8043 17.4026 19.8043 17.7931 19.4138C18.1836 19.0233 18.1836 18.3901 17.7931 17.9996L17.2628 17.4693C16.5793 16.7858 16.5793 15.6778 17.2628 14.9944L20.268 11.9892C21.4395 10.8176 23.339 10.8176 24.5106 11.9892Z" fill="#0D070B"/>
</svg>
