<svg width="37" height="36" viewBox="0 0 37 36" fill="none" xmlns="http://www.w3.org/2000/svg">
<rect x="0.5" width="36" height="36" rx="18" fill="#F3DCDC"/>
<path fill-rule="evenodd" clip-rule="evenodd" d="M26.5 18C26.5 22.4183 22.9183 26 18.5 26C16.6513 26 14.9491 25.3729 13.5944 24.3199L24.8199 13.0944C25.8729 14.4491 26.5 16.1513 26.5 18ZM12.1802 22.9057L23.4057 11.6802C22.051 10.6271 20.3487 10 18.5 10C14.0817 10 10.5 13.5817 10.5 18C10.5 19.8487 11.1271 21.551 12.1802 22.9057ZM28.5 18C28.5 23.5228 24.0228 28 18.5 28C12.9772 28 8.5 23.5228 8.5 18C8.5 12.4772 12.9772 8 18.5 8C24.0228 8 28.5 12.4772 28.5 18Z" fill="#0D070B"/>
</svg>
