<svg width="37" height="36" viewBox="0 0 37 36" fill="none" xmlns="http://www.w3.org/2000/svg">
<rect x="0.5" width="36" height="36" rx="18" fill="#F8F2DA"/>
<path fill-rule="evenodd" clip-rule="evenodd" d="M13.5 14C13.5 15.1046 12.6046 16 11.5 16C10.3954 16 9.5 15.1046 9.5 14C9.5 12.8954 10.3954 12 11.5 12C12.6046 12 13.5 12.8954 13.5 14ZM11.5 10C13.3638 10 14.9299 11.2748 15.374 13H23.5C24.0523 13 24.5 13.4477 24.5 14C24.5 14.5523 24.0523 15 23.5 15H15.374C14.9299 16.7252 13.3638 18 11.5 18C9.29086 18 7.5 16.2091 7.5 14C7.5 11.7909 9.29086 10 11.5 10ZM27.5 22C27.5 23.1046 26.6046 24 25.5 24C24.3954 24 23.5 23.1046 23.5 22C23.5 20.8954 24.3954 20 25.5 20C26.6046 20 27.5 20.8954 27.5 22ZM21.626 23C22.0701 24.7252 23.6362 26 25.5 26C27.7091 26 29.5 24.2091 29.5 22C29.5 19.7909 27.7091 18 25.5 18C23.6362 18 22.0701 19.2748 21.626 21H13.5C12.9477 21 12.5 21.4477 12.5 22C12.5 22.5523 12.9477 23 13.5 23H21.626Z" fill="#0D070B"/>
</svg>
