<svg width="37" height="36" viewBox="0 0 37 36" fill="none" xmlns="http://www.w3.org/2000/svg">
<rect x="0.5" width="36" height="36" rx="18" fill="#D5CEEE"/>
<path fill-rule="evenodd" clip-rule="evenodd" d="M21.5 13C21.5 14.6569 20.1569 16 18.5 16C16.8431 16 15.5 14.6569 15.5 13C15.5 11.3431 16.8431 10 18.5 10C20.1569 10 21.5 11.3431 21.5 13ZM23.5 13C23.5 15.7614 21.2614 18 18.5 18C15.7386 18 13.5 15.7614 13.5 13C13.5 10.2386 15.7386 8 18.5 8C21.2614 8 23.5 10.2386 23.5 13ZM25.5 23.5C25.5 23.577 25.3856 24.1851 23.9695 24.8931C22.6731 25.5413 20.7421 26 18.5 26C16.2579 26 14.3269 25.5413 13.0305 24.8931C11.6144 24.1851 11.5 23.577 11.5 23.5C11.5 23.423 11.6144 22.8149 13.0305 22.1069C14.3269 21.4587 16.2579 21 18.5 21C20.7421 21 22.6731 21.4587 23.9695 22.1069C25.3856 22.8149 25.5 23.423 25.5 23.5ZM27.5 23.5C27.5 25.9853 23.4706 28 18.5 28C13.5294 28 9.5 25.9853 9.5 23.5C9.5 21.0147 13.5294 19 18.5 19C23.4706 19 27.5 21.0147 27.5 23.5Z" fill="#0D070B"/>
</svg>
