<svg width="37" height="36" viewBox="0 0 37 36" fill="none" xmlns="http://www.w3.org/2000/svg">
<rect x="0.5" width="36" height="36" rx="18" fill="#DBE8F4"/>
<path fill-rule="evenodd" clip-rule="evenodd" d="M21.5 15V13C21.5 11.3431 20.1569 10 18.5 10C16.8431 10 15.5 11.3431 15.5 13V15H21.5ZM23.5 15V13C23.5 10.2386 21.2614 8 18.5 8C15.7386 8 13.5 10.2386 13.5 13V15H12.5C10.2909 15 8.5 16.7909 8.5 19V22.9255C8.5 24.8766 9.90765 26.543 11.8313 26.8692L17.8313 27.8866C18.2739 27.9617 18.7261 27.9617 19.1687 27.8866L25.1687 26.8692C27.0924 26.543 28.5 24.8766 28.5 22.9255V19C28.5 16.7909 26.7091 15 24.5 15H23.5ZM23.5 17H21.5H15.5H13.5H12.5C11.3954 17 10.5 17.8954 10.5 19V22.9255C10.5 23.9011 11.2038 24.7343 12.1656 24.8974L18.1656 25.9148C18.387 25.9523 18.613 25.9523 18.8344 25.9148L24.8344 24.8974C25.7962 24.7343 26.5 23.9011 26.5 22.9255V19C26.5 17.8954 25.6046 17 24.5 17H23.5ZM17.5 20C17.5 19.4477 17.9477 19 18.5 19C19.0523 19 19.5 19.4477 19.5 20V23C19.5 23.5523 19.0523 24 18.5 24C17.9477 24 17.5 23.5523 17.5 23V20Z" fill="#0D070B"/>
</svg>
