<svg width="371" height="249" viewBox="0 0 371 249" fill="none" xmlns="http://www.w3.org/2000/svg">
<g clip-path="url(#clip0_403_20534)">
<path d="M4.02069 148.317C3.14029 156.372 7.60095 164.868 13.3529 166.988C13.5437 166.401 13.683 165.785 13.9252 165.22C14.9376 162.865 17.4541 161.904 19.7505 162.967C21.9074 163.958 22.8245 166.834 21.7094 168.991C21.2545 169.878 20.4621 170.333 19.6331 170.656C19.6918 171.323 20.154 171.404 20.4768 171.602C41.0708 184.257 61.6648 196.898 82.2588 209.545C82.9264 209.956 83.462 210.499 84.3351 209.633C84.9366 209.032 86.1105 209.751 85.9491 210.712C85.751 211.9 86.5654 212.069 87.1817 212.524C87.5118 212.766 87.7319 212.678 88.0988 212.473C89.2213 211.834 89.8522 212.157 90.0503 213.353C90.2777 214.703 90.4978 214.835 91.7451 214.343C92.8236 213.918 93.5866 214.395 93.8874 215.656C94.0928 216.527 94.5893 216.808 95.3767 216.5C96.5359 216.045 97.3356 216.463 97.5044 217.711C97.5704 218.187 97.5264 218.576 98.0399 218.87C101.796 221.034 105.267 223.675 109.192 225.568C115.42 228.576 121.943 230.263 128.891 230.065C133.982 229.918 138.7 228.532 142.977 225.7C179.095 201.828 215.214 177.948 251.354 154.113C281.72 134.085 312.131 114.137 342.204 93.6765C346.474 90.7713 350.692 87.8001 354.882 84.7849C360.061 81.0654 362.394 75.9741 362.541 69.7309C362.57 68.4397 362.636 67.1559 362.328 65.8794C362.189 65.3072 362.116 64.7203 361.536 64.3975C361.132 64.4341 361.132 64.7789 361.074 65.021C360.039 69.3788 357.391 72.5407 353.744 74.969C337.795 85.6139 321.735 96.0901 305.667 106.566C254.611 139.858 203.578 173.18 152.522 206.471C149.382 208.518 146.366 210.8 142.992 212.458C130.439 218.642 117.878 218.738 105.567 211.9C77.4166 196.259 49.8968 179.533 21.9955 163.459C20.0733 162.351 18.1951 161.148 16.2509 160.077C11.218 157.319 6.97 153.753 3.99866 148.31L4.02069 148.317ZM345.762 87.1692C345.513 88.8786 344.852 90.3752 343.187 91.4096C336.709 95.4372 330.414 99.7436 323.708 103.397C321.478 104.615 320.473 104.505 318.793 102.634C317.215 100.881 317.274 100.396 319.277 99.1273C324.478 95.826 329.673 92.5173 334.897 89.26C337.486 87.6461 340.113 86.0981 342.761 84.5869C344.331 83.6918 345.116 84.0953 345.535 85.8414C345.63 86.2375 345.674 86.6483 345.762 87.1765V87.1692ZM312.754 108.459C312.666 110.095 312.05 111.57 310.451 112.582C306.386 115.157 302.38 117.813 298.294 120.351C295.653 121.987 292.909 123.454 290.224 125.017C289.013 125.729 287.839 125.619 286.775 124.826C286.174 124.379 285.668 123.77 285.235 123.154C284.501 122.097 284.64 121.613 285.726 120.835C285.917 120.696 286.122 120.579 286.321 120.454C291.574 117.131 296.812 113.785 302.08 110.491C304.618 108.907 307.193 107.388 309.783 105.899C311.449 104.945 312.38 105.473 312.652 107.41C312.696 107.703 312.703 107.997 312.747 108.444L312.754 108.459ZM96.6386 214.791C96.6313 214.16 97.1669 213.632 97.8712 213.588C98.5902 213.544 99.1918 214.153 99.1624 214.894C99.1331 215.554 98.5755 216.023 97.8712 215.994C97.1815 215.965 96.6533 215.451 96.646 214.791H96.6386ZM90.5199 208.848C91.1655 208.834 91.7524 209.369 91.7964 210.008C91.8405 210.653 91.2975 211.225 90.6152 211.233C89.9476 211.24 89.368 210.712 89.346 210.074C89.324 209.391 89.8376 208.856 90.5199 208.841V208.848ZM87.123 208.753C86.5801 208.782 85.8978 208.1 85.9198 207.513C85.9418 206.912 86.3013 206.53 86.8809 206.501C87.5412 206.464 87.952 206.853 88.0401 207.513C88.1281 208.137 87.6806 208.724 87.123 208.753ZM94.4817 213.514C93.748 213.551 93.2124 213.03 93.2051 212.34C93.2051 211.651 93.5793 211.262 94.2322 211.174C94.8778 211.086 95.4354 211.658 95.4207 212.348C95.4061 213.008 95.0979 213.434 94.4743 213.514H94.4817Z" fill="#FF9DBF"/>
<path d="M2.80276 160.136C0.381653 156.328 -0.366669 152.176 0.16156 147.679C0.689789 143.138 3.16223 139.653 6.15561 136.601C8.60605 134.107 11.2179 131.693 14.2039 129.793C17.1165 127.937 20.0512 126.103 23.0226 124.335C74.614 93.7208 126.081 62.8791 177.797 32.4703C189.572 25.5449 201.039 18.0986 213.02 11.5106C213.379 11.3126 213.71 11.0705 214.032 10.821C223.277 3.68284 233.797 0.293488 245.397 0.00737415C247.407 -0.0513159 249.395 0.146763 251.369 0.44755C254.567 0.924407 257.73 1.60668 260.605 3.16197C263.856 4.92267 267.157 6.56599 270.488 8.17263C283.268 14.3351 296.166 20.2481 308.859 26.5866C318.506 31.3992 327.963 36.608 337.927 40.7823C340.252 41.758 342.439 43.0565 344.757 44.0176C349.548 46.0131 353.708 48.8595 357.251 52.6304C357.655 53.0559 358.036 53.5034 358.462 53.9069C364.206 59.3871 367.002 65.8576 365.131 73.8835C364.999 74.4557 365.057 74.8519 365.549 75.2627C368.41 77.6837 369.834 80.919 370.641 84.4844C371.998 90.4928 369.511 96.89 364.441 100.404C362.805 101.541 361.147 102.656 359.496 103.771C323.4 127.996 287.304 152.198 251.215 176.437C227.304 192.496 203.49 208.695 179.477 224.592C173.072 228.833 166.447 232.75 160.174 237.174C155.148 240.725 149.734 243.454 144.202 246.022C140.174 247.892 135.912 249.007 131.451 249.015C125.662 249.015 120.197 247.503 115.032 244.958C107.027 241.018 99.6026 236.044 91.8991 231.576C83.7848 226.867 75.7218 222.069 67.6588 217.271C49.794 206.64 32.8684 194.616 15.862 182.702C12.7366 180.516 9.84595 178.022 7.21942 175.234C5.58334 173.503 4.28476 171.558 3.48508 169.328C2.72205 167.208 2.25983 164.949 3.1329 162.792C3.58044 161.691 3.38235 161.046 2.81009 160.151L2.80276 160.136ZM356.752 59.3797C355.777 56.9881 354.243 55.0146 352.321 53.3346C351.485 52.601 350.626 51.8674 349.68 51.2878C345.938 49.0063 342.211 46.7173 338.249 44.8099C318.822 35.4415 299.145 26.5646 279.974 16.668C273.621 13.3887 267.179 10.2708 260.701 7.2556C254.479 4.35778 247.972 3.71952 241.273 4.48249C233.775 5.34084 226.762 7.74713 220.21 11.4593C217.664 12.9045 215.258 14.5919 212.778 16.1545C203.453 22.0455 193.739 27.2689 184.275 32.9325C136.477 61.5513 88.4142 89.7298 40.5205 118.195C33.4626 122.391 26.3314 126.455 19.2882 130.673C16.0161 132.632 13.0594 135.061 10.0367 137.386C8.39328 138.648 7.38083 140.489 6.72784 142.485C6.14825 144.253 6.36102 145.962 7.10938 147.62C8.16586 149.968 9.76523 151.927 11.7608 153.504C13.2722 154.7 14.8275 155.852 16.6397 156.615C17.4981 156.974 18.2684 157.546 19.0755 158.023C44.2108 173.011 69.2582 188.146 94.533 202.899C97.0641 204.381 99.6393 205.797 102.324 206.971C104.005 207.704 105.377 208.922 107.093 209.59C113.175 211.952 119.47 213.148 125.985 213.228C131.04 213.272 135.926 212.48 140.504 210.25C142.463 209.296 144.143 207.902 145.956 206.714C184.649 181.22 223.555 156.057 262.388 130.762C288.83 113.536 315.234 96.2591 341.668 79.0262C344.618 77.1041 347.765 75.4828 350.626 73.4507C353.642 71.3158 355.909 68.484 357.046 64.8746C357.633 63.0038 357.508 61.1844 356.774 59.3724L356.752 59.3797ZM13.3528 166.995C13.5436 166.408 13.683 165.792 13.9251 165.227C14.9376 162.872 17.454 161.911 19.7504 162.975C21.9074 163.965 22.8245 166.841 21.7093 168.998C21.2545 169.886 20.4621 170.341 19.633 170.663C19.6917 171.331 20.154 171.412 20.4767 171.61C41.0707 184.265 61.6647 196.905 82.2587 209.553C82.9264 209.964 83.4619 210.507 84.335 209.641C84.9366 209.039 86.1105 209.758 85.9491 210.719C85.751 211.908 86.5653 212.077 87.1816 212.532C87.5118 212.774 87.7319 212.686 88.0987 212.48C89.2212 211.842 89.8522 212.165 90.0503 213.36C90.2777 214.71 90.4978 214.842 91.745 214.351C92.8235 213.925 93.5865 214.402 93.8873 215.664C94.0928 216.535 94.5892 216.816 95.3767 216.508C96.5359 216.053 97.3356 216.471 97.5043 217.718C97.5703 218.195 97.5263 218.584 98.0399 218.877C101.796 221.042 105.266 223.683 109.192 225.575C115.42 228.583 121.943 230.271 128.891 230.072C133.982 229.926 138.7 228.539 142.977 225.707C179.095 201.835 215.214 177.956 251.354 154.12C281.72 134.092 312.131 114.145 342.204 93.6841C346.474 90.7789 350.692 87.8077 354.882 84.7925C360.061 81.0731 362.394 75.9817 362.541 69.7385C362.57 68.4473 362.636 67.1635 362.328 65.887C362.189 65.3148 362.115 64.7279 361.536 64.4051C361.132 64.4417 361.132 64.7866 361.074 65.0286C360.039 69.3864 357.383 72.5483 353.744 74.9766C337.794 85.6215 321.735 96.0977 305.667 106.574C254.611 139.866 203.578 173.187 152.522 206.479C149.382 208.526 146.366 210.807 142.992 212.465C130.439 218.65 117.878 218.745 105.567 211.908C77.4165 196.267 49.8967 179.54 21.9954 163.467C20.0732 162.359 18.1951 161.156 16.2509 160.085C11.2179 157.326 6.96997 153.761 3.99863 148.317C3.11823 156.372 7.57892 164.868 13.3308 166.988L13.3528 166.995Z" fill="#0D070B"/>
<path d="M337.589 75.7689C336.078 76.8767 334.567 77.9918 333.011 79.0482C323.532 85.4454 313.863 91.5639 304.281 97.807C268.845 120.887 233.431 144.003 198.002 167.098C182.331 177.317 166.638 187.515 150.974 197.749C149.587 198.651 148.333 198.512 147.027 197.764C145.2 196.714 143.395 195.614 141.561 194.572C111.943 177.721 82.6992 160.231 53.1765 143.218C46.977 139.646 40.8436 135.963 34.7615 132.192C33.9178 131.671 33.03 131.187 32.4284 130.351C31.3792 128.883 31.57 127.952 33.1034 127.042C42.9712 121.151 52.861 115.289 62.7141 109.369C111.972 79.7672 161.517 50.6422 210.966 21.3559C214.392 19.3237 217.877 17.3869 221.347 15.4135C222.008 15.0393 222.69 14.6799 223.49 14.7092C225.001 14.7752 226.314 15.4575 227.642 16.0591C231.971 18.0179 236.05 20.4755 240.283 22.625C267.04 36.2191 293.797 49.8279 320.561 63.4146C325.785 66.0704 331.045 68.6674 336.276 71.3084C337.164 71.756 338.029 72.2402 338.712 73.0105C339.24 73.612 339.269 74.1549 338.763 74.7125C338.411 75.1013 338.015 75.4608 337.589 75.7689ZM104.254 89.2456C103.697 89.1502 103.234 89.2383 102.758 89.5244C100.146 91.087 97.5266 92.635 94.8193 94.2416C95.2082 94.6818 95.6557 94.7038 96.0886 94.7698C101.716 95.5988 107.343 96.4278 112.97 97.2495C121.561 98.504 130.145 99.7511 138.737 100.998C147.966 102.341 157.188 103.676 166.418 105.011C175.009 106.258 183.593 107.506 192.184 108.738C200.775 109.971 209.374 111.159 217.958 112.414C230.834 114.299 243.753 115.942 256.563 118.268C258.926 118.701 261.303 119.053 263.665 119.493C264.325 119.618 264.883 119.618 265.492 119.222C268.383 117.314 271.295 115.458 274.208 113.58C274.391 113.463 274.633 113.367 274.538 112.942C273.151 112.795 271.721 112.634 270.283 112.487C256.981 111.071 243.753 109.156 230.525 107.234C217.76 105.378 204.979 103.603 192.206 101.791C180.189 100.081 168.171 98.3646 156.154 96.6699C145.758 95.2027 135.362 93.7721 124.966 92.3048C119.859 91.5859 114.753 90.8302 109.647 90.0819C107.849 89.8178 106.052 89.5611 104.262 89.2529L104.254 89.2456ZM124.577 77.2728C123.99 77.1848 123.462 77.1114 122.897 77.4636C120.652 78.8501 118.385 80.1927 116.125 81.5572C116.052 81.6012 116.052 81.7626 115.964 82.0047C125.296 83.3399 134.518 84.6531 143.747 85.9883C152.163 87.2061 160.57 88.446 168.986 89.6711C177.511 90.9109 186.043 92.1508 194.576 93.3759C204.091 94.7478 213.614 96.105 223.13 97.4696C232.536 98.8121 241.934 100.162 251.34 101.497C259.116 102.598 266.871 103.845 274.611 105.173C277.612 105.693 280.635 106.104 283.584 106.904C284.098 107.043 284.479 106.985 284.89 106.721C287.847 104.828 290.803 102.935 293.907 100.954C293.173 100.463 292.484 100.499 291.831 100.433C281.618 99.4063 271.435 98.1592 261.281 96.6846C252.638 95.4374 243.981 94.2416 235.331 93.0091C227.672 91.916 220.012 90.7936 212.353 89.7004C203.585 88.4533 194.825 87.2135 186.058 85.981C177.349 84.7558 168.641 83.5453 159.932 82.3202C151.165 81.0877 142.398 79.8405 133.638 78.5934C130.622 78.1605 127.6 77.7203 124.584 77.2655L124.577 77.2728ZM332.52 73.3553C314.405 64.1042 296.284 54.8679 278.17 45.6095C276.893 44.9566 275.565 44.6191 274.157 44.4211C265.507 43.2106 256.857 41.9561 248.207 40.7236C240.43 39.6158 232.646 38.5007 224.869 37.4003C216.043 36.1531 207.217 34.9206 198.391 33.6661C197.268 33.5047 196.293 33.5047 195.214 34.1576C181.869 42.2275 168.479 50.2314 155.105 58.2572C154.76 58.4627 154.437 58.6974 153.938 59.0349C155.589 59.6071 157.152 59.6218 158.663 59.8419C172.412 61.8593 186.168 63.8401 199.924 65.8283C212.463 67.6403 225.001 69.4377 237.532 71.2424C251.053 73.1939 264.575 75.1747 278.104 77.0894C287.685 78.4466 297.267 79.7525 306.805 81.4031C310.906 82.1074 315.007 82.8337 319.094 83.604C319.776 83.7361 320.297 83.7214 320.898 83.3252C325.264 80.4641 329.636 77.6176 334.119 74.9399C334.258 74.8519 334.354 74.6905 334.479 74.5511C333.892 74.0155 333.195 73.7074 332.52 73.3626V73.3553Z" fill="#0D070B"/>
<path d="M296.907 48.0307C296.753 47.95 296.607 47.8546 296.46 47.7592C294.824 46.7248 293.107 45.8371 291.354 45.0155C285.675 42.3524 280.334 39.0437 274.692 36.322C273.687 35.8378 272.77 35.1922 272.022 34.3485C271.53 33.7983 271.259 33.1601 271.655 32.4191C272.007 31.7662 272.616 31.6048 273.357 31.6341C274.604 31.7808 275.793 32.2944 276.908 32.94C280.451 35.0015 284.083 36.9089 287.722 38.8016C291.412 40.7164 294.846 43.086 298.646 44.81C299.761 45.3162 300.092 46.5414 299.541 47.4658C299.02 48.3461 297.993 48.5662 296.915 48.0307H296.907Z" fill="#0D070B"/>
<path d="M319.277 99.1352C324.479 95.8338 329.673 92.5252 334.897 89.2679C337.486 87.6539 340.113 86.106 342.762 84.5947C344.332 83.6997 345.117 84.1032 345.535 85.8492C345.63 86.2453 345.674 86.6562 345.762 87.1844C345.513 88.8937 344.852 90.3903 343.187 91.4247C336.709 95.4524 330.414 99.7587 323.708 103.412C321.478 104.63 320.473 104.52 318.793 102.649C317.215 100.896 317.274 100.412 319.277 99.1425V99.1352ZM323.547 101.292C329.526 97.037 335.96 93.5156 342.175 89.6347C343.774 88.637 343.921 88.2995 343.407 86.0546C335.66 91.2487 327.853 95.9732 320.121 100.889C321.735 102.202 322.131 102.297 323.539 101.292H323.547Z" fill="#0D070B"/>
<path d="M285.733 120.843C285.924 120.703 286.13 120.586 286.328 120.461C291.581 117.138 296.819 113.793 302.087 110.499C304.625 108.914 307.201 107.395 309.79 105.906C311.456 104.952 312.388 105.481 312.659 107.417C312.703 107.711 312.71 108.004 312.754 108.452C312.666 110.088 312.05 111.562 310.451 112.575C306.386 115.15 302.38 117.806 298.294 120.344C295.653 121.98 292.909 123.447 290.224 125.01C289.013 125.721 287.839 125.611 286.775 124.819C286.174 124.372 285.667 123.763 285.235 123.146C284.501 122.09 284.64 121.606 285.726 120.828L285.733 120.843ZM290.598 122.611C296.621 118.348 303.07 114.776 309.336 110.902C310.906 109.934 311.096 109.391 310.421 107.388C302.762 112.545 294.963 117.248 287.252 122.149C288.778 123.528 289.174 123.616 290.598 122.611Z" fill="#0D070B"/>
<path d="M97.864 213.588C98.583 213.544 99.1846 214.153 99.1552 214.894C99.1259 215.554 98.5683 216.023 97.864 215.994C97.1743 215.965 96.6461 215.451 96.6387 214.791C96.6314 214.16 97.167 213.632 97.8713 213.588H97.864Z" fill="#0D070B"/>
<path d="M90.5124 208.841C91.1581 208.827 91.745 209.362 91.789 210C91.833 210.646 91.2901 211.218 90.6078 211.226C89.9402 211.233 89.3606 210.705 89.3386 210.066C89.3166 209.384 89.8301 208.849 90.5124 208.834V208.841Z" fill="#0D070B"/>
<path d="M86.8736 206.494C87.534 206.457 87.9448 206.846 88.0328 207.506C88.1209 208.13 87.6733 208.716 87.1158 208.746C86.5728 208.775 85.8905 208.093 85.9125 207.506C85.9345 206.904 86.294 206.523 86.8736 206.494Z" fill="#0D070B"/>
<path d="M94.2321 211.174C94.8777 211.086 95.4353 211.659 95.4206 212.348C95.4059 213.009 95.0978 213.434 94.4742 213.515C93.7405 213.551 93.2049 213.031 93.1976 212.341C93.1976 211.651 93.5718 211.263 94.2247 211.174H94.2321Z" fill="#0D070B"/>
</g>
<defs>
<clipPath id="clip0_403_20534">
<rect width="371" height="249" fill="white" transform="matrix(-1 0 0 1 371 0)"/>
</clipPath>
</defs>
</svg>
