<svg width="173" height="110" viewBox="0 0 173 110" fill="none" xmlns="http://www.w3.org/2000/svg">
<g clip-path="url(#clip0_1_11270)">
<path d="M173 28.3846C172.807 28.2462 172.62 28.3785 172.446 28.4184C166.876 29.6947 161.229 30.199 155.527 30.196C149.611 30.196 143.741 29.627 137.892 28.7752C136.076 28.5107 134.251 28.2862 132.441 27.9818C132.276 27.9541 132.105 27.9172 131.927 28.0002C131.896 28.277 132.019 28.523 132.095 28.7783C132.738 30.9217 133.501 33.0252 134.309 35.1103C135.458 38.0656 136.554 41.0394 137.512 44.0655C137.788 44.9327 138.036 45.8092 138.198 46.7041C138.575 48.7615 139.187 50.7666 139.558 52.8239C140.253 56.6988 140.501 60.5798 139.668 64.4793C138.985 67.6745 137.408 70.3316 135.026 72.5089C132.925 74.4278 130.384 75.2828 127.585 75.4396C127.22 75.4611 126.853 75.4396 126.476 75.4396C126.342 75.8025 126.547 76.0608 126.614 76.3253C127.187 78.5949 126.727 80.6122 125.169 82.359C124.722 82.8572 124.198 83.2601 123.567 83.5061C123.016 83.7214 122.563 84.1058 122.012 84.3303C120.664 84.8746 119.237 85.1237 117.844 85.4989C113.309 86.7198 108.697 87.6577 104.242 89.1769C102.644 89.7213 101.067 90.3271 99.4865 90.9237C97.888 91.5264 96.6754 92.5936 95.6434 93.9006C94.685 95.1122 93.7602 96.3547 92.8171 97.5817C90.5143 100.577 87.9176 103.305 84.8952 105.55C81.6402 107.967 77.9411 109.431 73.8745 109.871C70.5919 110.224 67.4287 109.849 64.3849 108.542C63.6163 108.213 62.8477 107.881 62.3118 107.198C62.1648 107.011 61.9872 107.017 61.7882 107.029C57.9482 107.235 54.4665 106.073 51.2911 104.034C47.1694 101.386 43.7765 97.9784 41.3237 93.6853C40.9593 93.0456 40.6256 92.3875 40.301 91.7263C40.1754 91.468 40.056 91.3573 39.7436 91.4342C37.2633 92.0462 34.7431 92.0277 32.2199 91.8309C28.3034 91.5264 24.5523 90.5608 20.9695 88.9371C19.221 88.1467 17.6011 87.1626 16.067 85.994C13.8806 84.3241 11.7248 82.6266 9.80181 80.6522C6.13028 76.8819 3.15079 72.6565 1.39923 67.6407C0.446902 64.9313 -0.0675415 62.1359 0.00595038 59.2513C0.054945 57.3446 0.376472 55.4841 1.14814 53.725C2.0576 51.6492 3.46313 50.0715 5.52703 49.0506C6.75496 48.4447 7.90939 47.6974 9.25062 47.3376C10.0529 47.1223 10.8521 46.8948 11.6514 46.6641C12.1474 46.5227 12.6251 46.3443 13.0446 46.0214C15.6781 43.9917 18.728 43.0045 21.9372 42.4018C23.897 42.0327 25.8843 42.0235 27.8655 41.9559C29.2527 41.9067 30.6368 41.8052 31.9688 41.6483C32.0546 41.5561 32.0515 41.5161 32.0056 41.473C30.3857 39.8401 29.7916 37.8165 29.7702 35.5716C29.7487 33.1728 30.7011 31.1801 32.2658 29.4394C34.3022 27.173 36.8438 25.6968 39.6732 24.6758C42.1413 23.7871 44.6952 23.1812 47.2031 22.4186C50.5072 21.4129 53.7775 20.2874 57.1337 19.4694C61.4452 18.4176 65.7812 17.5104 70.2244 17.2244C71.2747 17.1567 72.3312 17.0952 73.3815 17.1444C75.7792 17.2551 78.1799 17.2275 80.5807 17.2767C83.9613 17.3413 87.3327 17.5196 90.6981 17.8856C94.3267 18.2792 97.9768 18.4422 101.602 18.8758C106.153 19.4232 110.673 20.1336 115.165 21.0501C118.717 21.7758 122.281 22.4401 125.864 22.9967C126.464 23.089 126.47 23.089 126.452 22.4678C126.415 21.0839 126.535 19.7185 126.822 18.3622C127.211 16.5355 128.056 14.9548 129.339 13.6017C130.46 12.4208 131.7 11.3844 133.078 10.5203C136.15 8.59206 139.396 7.06979 142.92 6.16873C149.207 4.56035 155.49 2.93045 161.774 1.30055C163.66 0.811575 165.596 0.713166 167.522 0.531724C169.178 0.374884 170.838 0.205743 172.495 0.0458282C172.66 0.0304518 172.831 -0.0402798 173 0.0458282V2.84742C171.738 3.24413 170.464 3.59164 169.181 3.90224C166.826 4.47424 164.42 4.80022 162.099 5.51984C160.601 5.98421 159.098 6.41475 157.588 6.84222C153.136 8.10001 148.637 9.17944 144.154 10.3265C141.009 11.1322 138.122 12.4792 135.39 14.1983C134.349 14.8533 133.403 15.6314 132.552 16.5232C131.952 17.1537 131.468 17.8518 131.217 18.6975C130.773 20.1828 130.705 21.6928 130.855 23.2243C130.892 23.5902 131.027 23.7686 131.431 23.824C134.172 24.1991 136.903 24.6235 139.644 24.9926C144.479 25.6415 149.338 25.8998 154.217 25.8998C160.31 25.8998 166.343 25.4077 172.286 24.0116C172.516 23.9562 172.752 23.8486 173 23.95V28.3785V28.3846ZM59.8131 73.8435L59.8253 73.862L59.6906 73.7482C59.4977 73.3915 59.1363 73.21 58.8424 72.9671C57.2898 71.6816 55.6026 70.6206 53.7194 69.8949C53.5019 69.8118 53.2876 69.6427 53.0273 69.7595H53.0334C53.0396 69.6488 52.9814 69.6181 52.8865 69.6335C52.7272 69.5474 52.5741 69.5166 52.4149 69.6396C51.9402 70.0086 51.4136 70.3193 51.0675 70.8359C50.6082 71.1865 50.3357 71.6878 50.0172 72.1521C49.3068 73.413 48.872 74.7538 48.823 76.2084C48.6209 77.8383 48.7923 79.4375 49.1935 81.0182C50.1213 84.6932 51.9831 87.8453 54.537 90.6131C56.3712 92.5997 58.4718 94.2081 60.943 95.3091C61.1635 95.4075 61.3686 95.5582 61.6289 95.5397C63.0743 96.2778 64.6084 96.5576 66.2191 96.4531C66.954 96.4377 67.6798 96.3547 68.3534 96.0287C69.0537 95.8524 69.4232 95.428 69.4619 94.7555C69.4803 94.4387 69.5171 94.1189 69.4252 93.8083C69.4436 93.6884 69.4803 93.5684 69.4742 93.4485C69.3211 91.0159 68.8924 88.6295 68.1268 86.3169C67.643 84.8561 67.0306 83.4477 66.1946 82.1468C65.9588 81.6671 65.6159 81.2519 65.3586 80.7875C64.3543 78.9854 63.1325 77.3432 61.7759 75.7963C61.2125 75.1536 60.649 74.5109 59.9692 73.9881L59.9784 74.0065L59.8161 73.8435H59.8131ZM51.4932 51.0157C51.5697 51.0741 51.6187 51.028 51.6647 50.9695C52.1117 50.7881 52.5527 50.579 53.012 50.4314C53.2845 50.3453 53.4713 50.2069 53.6489 49.9916C54.4359 49.0136 55.4097 48.2571 56.5212 47.6851C56.7325 47.6482 56.904 47.5529 57.0418 47.3653C56.8397 47.2853 56.6774 47.3776 56.5151 47.4483C55.5597 47.6851 54.7054 48.128 53.8939 48.6784C53.0426 49.2566 52.32 49.9731 51.6279 50.7266C51.5146 50.7696 51.4442 50.8434 51.4319 50.9665L51.3431 51.0556C51.4136 51.1202 51.4625 51.0987 51.4932 51.0187V51.0157ZM99.8355 43.1798C99.9213 43.2137 99.9887 43.1952 100.041 43.1183C102.004 42.1711 104.071 41.9097 106.196 42.3157C112.295 43.4751 117.229 48.8937 117.908 55.115C118.043 56.339 118.052 57.566 118.043 58.7961C118.04 59.1621 118.003 59.5311 118.147 59.8879C118.374 60.4537 118.803 60.6782 119.375 60.4906C120.184 60.2262 120.582 59.6019 120.762 58.8207C120.851 58.4394 120.909 58.0458 120.943 57.6552C121.335 52.9685 119.991 48.8384 116.791 45.4156C113.548 41.9497 109.555 40.2829 104.769 40.9472C103.036 41.187 101.379 41.7068 100.022 42.9123C99.8937 42.9369 99.8141 43.0107 99.7896 43.1398C99.7376 43.1583 99.6518 43.1768 99.7069 43.2444C99.7559 43.3028 99.808 43.2413 99.8325 43.1798H99.8355ZM44.1348 66.2445C43.6448 66.1153 43.259 65.8047 42.8977 65.4818C42.3679 65.0082 41.8565 64.5131 41.3543 64.0149C40.8246 63.489 40.2244 63.0739 39.517 62.8371C38.1728 62.3912 36.8285 61.9176 35.426 61.6931C33.901 61.4501 32.6057 60.7766 31.4605 59.7679C31.3288 59.6511 31.2063 59.4604 30.9675 59.5557C31.5493 61.0503 31.9627 61.4993 33.3131 61.813C34.2654 62.0344 35.1963 62.3327 36.1548 62.5265C38.1789 62.9355 40.0192 63.732 41.6208 65.0605C42.1138 65.4695 42.665 65.7863 43.2131 66.1092C43.4948 66.2752 43.7857 66.3829 44.1195 66.3245C44.1532 66.4936 44.2787 66.4444 44.3828 66.429C44.441 66.4229 44.4624 66.3737 44.4318 66.3306C44.3553 66.2322 44.2542 66.2014 44.1348 66.2445V66.2445ZM73.2407 43.4166L73.1978 43.5058L73.2896 43.5243L73.2223 43.4289C71.8841 41.919 70.7236 40.2891 69.7743 38.5023C68.9934 37.0323 67.7655 36.0575 66.2559 35.4086C63.8674 34.3784 61.3901 34.363 58.9067 34.8458C56.6805 35.2794 54.5768 36.1159 52.5251 37.2199C53.2172 37.6935 53.9092 38.1087 54.5094 38.6469C54.7054 38.8221 54.8707 38.6899 55.0392 38.5915C56.0099 38.0349 57.0724 37.7581 58.1656 37.5859C58.9893 37.4567 59.8069 37.509 60.4469 38.1087C60.9889 38.613 61.6044 39.0097 62.1771 39.471C62.9181 40.0676 63.7633 40.2029 64.6666 39.9692C64.9973 39.8831 65.3219 39.7693 65.6404 39.6432C66.8805 39.1543 67.989 39.348 68.9598 40.2768C69.1006 40.4121 69.2507 40.5412 69.3885 40.6796C70.3469 41.636 71.4462 42.4172 72.5486 43.1921C72.7476 43.3305 72.9283 43.6042 73.2407 43.4197V43.4166ZM48.4188 65.2881C49.3772 65.0667 50.351 64.9252 51.3339 65.0267C53.7377 65.2727 56.0466 65.8755 58.2085 66.9918C61.4911 68.6832 64.2256 71.0419 66.4243 73.9973C71.3268 80.5938 73.5407 88.0206 73.0814 96.2439C73.0631 96.5668 73.0508 96.8867 73.0355 97.2096C74.3859 95.3736 74.9585 93.3193 75.0045 91.1267C75.029 89.9734 74.8697 88.8233 74.6891 87.6793C73.6112 80.8367 70.6593 74.9445 65.8027 70.0209C64.1828 68.3787 62.3271 67.0687 60.2479 66.0938C56.4355 64.3071 52.5037 63.7535 48.4126 65.0236C47.8676 65.1405 47.3592 65.3373 46.9122 65.6848C47.445 65.6479 47.9411 65.4972 48.4188 65.2942V65.2881ZM118.138 66.9733C119.828 68.1204 121.491 69.289 122.958 70.7098C123.163 70.9066 123.377 71.0235 123.668 71.0358C125.065 71.0942 126.458 71.1773 127.854 71.0635C128.617 71.002 129.355 70.8298 130.062 70.5407C132.34 69.6212 133.774 67.8436 134.75 65.6848C135.742 63.4921 135.929 61.1211 135.85 58.7469C135.767 56.3328 135.47 53.9433 134.83 51.6061C134.309 49.7087 134.08 47.7436 133.507 45.8584C132.61 42.8938 131.541 39.9877 130.433 37.0938C129.303 34.1323 128.164 31.1708 127.407 28.0832C127.227 27.3482 127.227 27.3513 126.455 27.2375C124.566 26.9577 122.67 26.7024 120.79 26.3826C117.167 25.7675 113.557 25.0941 109.935 24.4821C105.972 23.8147 102 23.2212 97.9952 22.8768C95.5546 22.6677 93.108 22.5077 90.6766 22.2371C86.9959 21.8281 83.3029 21.6467 79.6038 21.6005C77.6685 21.5759 75.7363 21.6067 73.801 21.4929C72.9957 21.4437 72.1842 21.4929 71.3789 21.5206C67.1714 21.6774 63.062 22.52 58.9893 23.4826C53.3886 24.8081 47.9258 26.6563 42.3404 28.0463C40.7634 28.44 39.269 29.0489 37.8574 29.8608C36.5039 30.6388 35.3127 31.5983 34.3849 32.8776C33.4264 34.1969 33.1998 35.6546 33.5091 37.2199C33.7694 38.5484 34.0541 39.8616 34.9146 40.9779C35.1198 41.2455 35.227 41.3162 35.5362 41.2362C37.0336 40.8488 38.4545 40.2491 39.9151 39.754C40.1877 39.6617 40.2826 39.4618 40.3775 39.2312C40.7572 38.3147 41.4064 37.6259 42.2087 37.0692C43.3876 36.2512 44.7105 35.8514 46.1313 35.7592C47.8186 35.6484 49.4476 35.9221 51.0247 36.5341C51.2451 36.6202 51.4472 36.7679 51.7136 36.6264C53.358 35.7561 55.1157 35.1226 56.7295 34.1846C56.9101 34.0801 57.0387 33.9632 57.1214 33.7756C57.838 32.1857 59.0445 31.0693 60.5541 30.2636C60.8144 30.1252 60.9461 29.9653 61.0104 29.667C61.4758 27.5266 62.7895 26.1089 64.7799 25.2878C65.4628 25.0049 66.1885 24.8849 66.9081 24.7373C70.0162 24.1038 72.8763 24.7342 75.5465 26.4011C77.6716 27.7265 79.2976 29.5409 80.6817 31.5983C81.9556 33.4927 82.7885 35.5347 82.7701 37.8596C82.7701 38.1364 82.8375 38.2532 83.1253 38.2747C84.1603 38.3455 85.0453 38.8006 85.8813 39.388C87.2102 40.3198 88.4321 41.3839 89.611 42.491C91.779 44.5299 94.3604 44.7021 97.098 44.2808C97.2511 44.2562 97.3644 44.1916 97.4501 44.0532C98.4269 42.5125 99.8876 41.5253 101.385 40.5751C102.595 39.8062 103.917 39.4341 105.329 39.3019C108.707 38.9882 111.781 39.8831 114.439 41.922C119.73 45.9814 122.511 51.3447 122.113 58.1165C121.917 61.444 120.772 64.4516 118.248 66.7857C118.196 66.8319 118.172 66.9088 118.141 66.958L118.138 66.9733ZM66.458 47.19C66.4702 47.2884 66.458 47.353 66.4855 47.3776C66.6662 47.5406 66.8438 47.7159 67.0428 47.8543C68.5004 48.8599 69.7988 50.0623 71.0573 51.2986C72.6099 52.8178 74.4533 53.562 76.5907 53.6789C77.2735 53.7158 77.9533 53.8173 78.6301 53.9249C79.1169 54.0018 79.3007 54.3893 79.1139 54.8536C79.0098 55.1181 78.8077 55.2903 78.5811 55.4441C78.232 55.6809 77.84 55.8162 77.4511 55.9669C75.5281 56.7173 73.5193 57.1509 71.5136 57.5999C69.1282 58.135 66.755 58.7316 64.342 59.156C62.2689 59.5219 60.2387 60.0693 58.282 60.8689C57.3664 61.241 56.5641 61.7761 55.7404 62.4219C56.0527 62.508 56.2855 62.5664 56.5121 62.6403C58.0248 63.1169 59.611 63.3445 61.0287 64.1318C63.4479 65.4757 65.916 66.7427 68.038 68.5571C70.4296 70.5991 72.4169 72.9794 73.9358 75.7471C73.9817 75.8332 74.0246 75.9224 74.0797 76.0055C74.3277 76.3745 74.6921 76.3868 74.9769 76.0454C75.1392 75.8486 75.2219 75.618 75.2311 75.3689C75.2433 74.9998 75.2433 74.6339 75.1821 74.2679C74.9157 72.6257 74.1624 71.1988 73.2345 69.858C71.7341 67.693 69.8508 65.9154 67.6645 64.4578C67.4624 64.3224 67.2419 64.1994 67.0643 64.0334C66.2559 63.2768 66.4243 62.2282 67.4164 61.7515C67.7808 61.5762 68.1605 61.5393 68.5617 61.5578C69.4191 61.5947 70.2734 61.6285 71.1308 61.6285C72.8763 61.6285 74.5206 61.2133 76.0609 60.3799C77.1357 59.7987 78.1371 59.0791 79.2578 58.5778C83.2999 56.7757 87.2776 58.1934 89.4273 60.752C89.9968 61.4286 90.5541 62.1144 91.1114 62.8002C91.7637 63.6059 92.4864 64.3347 93.3346 64.9344C94.7768 65.9585 96.3171 66.223 97.9921 65.5987C98.4545 65.4265 98.5862 65.4634 98.8189 65.897C99.0149 66.2629 99.168 66.6566 99.2935 67.0502C99.5324 67.7944 100.056 68.105 100.901 68.1881C99.5416 66.3583 98.6137 64.4116 97.8053 62.4035C97.7318 62.222 97.6553 62.0406 97.5695 61.8622C96.6356 59.854 95.4475 58.0427 93.6102 56.7388C93.0712 56.3544 92.5384 55.9607 91.9903 55.5917C89.6539 54.0141 87.0173 53.3375 84.2614 53.0361C82.7272 52.8701 81.1839 53.1345 79.6436 52.9193C78.6668 52.784 77.7145 52.621 76.8111 52.212C75.8956 51.7968 75.0259 51.2986 74.1716 50.7666C72.8211 49.9239 71.4646 49.0905 70.1111 48.251C68.9904 47.556 67.7563 47.2792 66.4488 47.19H66.458ZM109.589 66.9979C109.334 66.3275 109.292 65.7432 109.39 65.1558C109.546 64.2117 109.711 63.2676 109.993 62.3481C110.498 60.6936 110.795 59.0053 110.669 57.2616C110.627 56.6496 110.614 56.0284 110.513 55.4256C110.229 53.7188 109.729 52.0766 108.737 50.6343C107.46 48.783 105.795 47.3745 103.844 46.2643C102.316 45.394 100.678 45.1142 98.9781 45.1388C97.8268 45.1572 96.6785 45.228 95.5301 45.148C93.0008 44.9727 90.6123 44.3546 88.4933 42.8784C87.9666 42.5125 87.5042 42.0789 87.0143 41.6729C85.82 40.6796 84.5737 39.757 82.9783 39.5448C82.0811 39.4249 81.1778 39.3419 80.2744 39.308C77.6563 39.2096 75.2709 38.4716 73.1947 36.8263C72.4843 36.2635 71.7708 35.7007 71.039 35.1656C69.5324 34.0585 67.9615 33.0621 66.1211 32.6039C64.9759 32.3179 63.8214 32.0873 62.6394 32.361C61.8984 32.5332 61.1849 32.7884 60.5296 33.1882C60.793 33.2313 61.0349 33.219 61.2768 33.2067C63.059 33.1113 64.7952 33.3143 66.461 33.9939C68.6382 34.8827 70.3439 36.2235 71.0635 38.61C71.5228 40.1353 72.4414 41.4208 73.4458 42.6417C73.8439 43.1245 74.3277 43.4874 74.8422 43.8226C75.2525 44.0901 75.623 44.0901 76.067 43.841C77.2643 43.1737 78.4861 42.5525 79.7049 41.919C80.1611 41.6822 80.6174 41.4423 81.1135 41.3008C81.7872 41.1071 82.4241 41.1809 83.0028 41.5961C84.2736 42.5063 84.8187 43.7365 84.6166 45.3018C84.54 45.8892 84.2583 46.4027 84.044 46.9563C84.7268 47.1839 85.3913 47.0977 86.0466 47.067C88.0799 46.9686 89.6385 47.7712 90.7624 49.4903C90.8113 49.4688 90.8787 49.4503 90.9369 49.4165C92.4251 48.4816 94.0113 47.7989 95.7414 47.476C96.0109 47.4268 96.2559 47.3192 96.5009 47.2085C97.6737 46.6672 98.9108 46.5749 100.166 46.7226C100.871 46.8056 101.581 46.9286 102.193 47.3192C103.085 47.885 103.945 48.497 104.652 49.2935C106.744 51.6522 107.702 54.4661 107.886 57.5691C108.03 59.974 108.002 62.3881 108.177 64.7899C108.211 65.2327 108.278 65.6694 108.407 66.0938C108.56 66.6074 108.884 66.9334 109.592 67.0041L109.589 66.9979ZM1.21857 60.1831C1.25225 60.6505 1.28593 61.2625 1.34412 61.8745C1.38392 62.2897 1.44211 62.7048 1.52478 63.1138C2.82008 69.6365 5.89755 75.1567 10.7817 79.6558C12.5669 81.3011 14.5757 82.5897 16.8142 83.5245C18.8383 84.3672 20.9297 84.8131 23.1222 84.4717C25.3362 84.1242 27.1275 83.0448 28.3187 81.1104C29.2312 79.6312 29.7426 77.9921 29.9937 76.2699C30.3122 74.0957 30.1193 71.9399 29.5956 69.8334C28.1687 64.0887 25.3025 59.1621 21.0736 55.0412C19.4109 53.4205 17.546 52.0736 15.4546 51.0649C13.406 50.0746 11.2747 49.4134 8.95972 49.4811C6.71515 49.5487 4.89929 50.4467 3.49988 52.2027C2.96094 52.8793 2.53224 53.6174 2.19234 54.4139C1.42373 56.2098 1.20019 58.1011 1.21857 60.1831V60.1831ZM70.0989 97.0527C70.4357 96.7483 70.5582 96.4807 70.7052 96.2316C71.2717 95.2752 71.6391 94.2327 71.9913 93.184C72.1475 92.7104 72.2087 92.2338 72.1842 91.7356C72.028 88.5342 71.2717 85.4712 70.105 82.5036C68.1483 77.5339 65.2086 73.2808 60.9706 69.9933C57.4828 67.287 53.5816 65.9339 49.1292 66.3306C47.3929 66.4844 45.7945 66.8257 44.4288 68.0774C40.8766 71.3341 38.9904 75.3443 38.8158 80.154C38.7117 83.0048 39.1496 85.7787 40.1815 88.4604C40.7297 89.8842 41.3023 91.2866 42.0801 92.6028C43.3448 94.7493 44.8513 96.7114 46.5692 98.5104C47.4695 99.4515 48.4341 100.325 49.4997 101.078C49.9253 101.38 50.3816 101.613 50.9205 101.604C51.3523 101.595 51.5085 101.398 51.3891 100.983C51.2696 100.559 51.0859 100.183 50.7307 99.8666C49.7263 98.9656 48.7617 98.0215 47.8921 96.9851C44.5941 93.061 42.4139 88.5711 41.2196 83.5953C40.5276 80.7107 40.4265 77.8076 41.1492 74.9045C41.4615 73.6498 42.0586 72.5242 42.6741 71.4048C43.6785 69.5843 45.1147 68.2926 47.1633 67.7668C48.9669 67.3055 50.7552 67.4039 52.5343 67.8898C55.2566 68.6371 57.5961 70.0978 59.7273 71.9061C63.996 75.5319 67.0183 80.0126 68.7883 85.3482C69.5018 87.4978 70.1571 89.6505 70.3316 91.9262C70.4602 93.6023 70.3438 95.266 70.1019 97.0527H70.0989ZM14.7319 46.9194C15.9904 47.1593 17.1755 47.3315 18.284 47.8112C18.4953 47.9035 18.6637 47.8235 18.8352 47.719C19.3558 47.4053 19.9314 47.3038 20.5224 47.2823C21.5268 47.2454 22.5312 47.2238 23.5326 47.3038C25.6853 47.4699 27.8318 47.4852 29.9753 47.1316C32.0056 46.7994 34.0235 46.4427 35.9343 45.6278C37.2449 45.0681 38.4545 44.3208 39.7161 43.6688C39.9764 43.5335 40.2367 43.3582 40.5153 43.309C42.9742 42.8692 45.2464 43.2536 47.1816 44.9512C47.6042 45.3233 47.9625 45.7692 48.3759 46.1475C49.221 46.9225 49.9223 47.0024 50.9114 46.4212C51.3952 46.1352 51.8453 45.7938 52.3046 45.4648C52.6874 45.1911 53.0886 44.9758 53.5724 44.9297C53.9858 44.8897 54.044 44.7513 53.7837 44.4345C53.4254 44.0009 53.0518 43.5704 52.6537 43.1737C51.3431 41.8698 49.9468 40.6673 48.1891 40.0092C46.6703 39.4403 45.1239 39.2004 43.553 39.8985C41.5166 40.8026 39.3823 41.4577 37.2817 42.1896C36.2191 42.5586 35.1351 42.9061 34.0021 42.9523C32.0699 43.0322 30.1438 43.2321 28.2085 43.2475C26.1048 43.2659 23.9949 43.2198 21.9065 43.5704C19.3221 44.0071 16.8019 44.576 14.9554 46.6734C14.9095 46.7256 14.8574 46.7779 14.7319 46.9102V46.9194ZM48.1891 69.1537C46.7744 69.4182 46.1221 69.7042 45.1239 70.4146C44.3736 70.9497 43.8347 71.6878 43.2161 72.3459C42.7323 72.8594 42.423 73.4622 42.2362 74.1357C42.0127 74.9414 41.829 75.7533 41.7341 76.5867C41.3635 79.8004 41.8474 82.931 42.8487 85.9602C44.4165 90.7053 47.0683 94.8047 50.5623 98.3536C51.2176 99.0179 51.9249 99.6175 52.7272 100.11C54.5951 101.251 56.6162 101.942 58.7597 102.305C60.5939 102.616 62.37 102.447 64.0848 101.718C64.3879 101.589 64.7156 101.481 64.9698 101.204C64.884 101.174 64.8411 101.146 64.8044 101.152C64.6819 101.164 64.5625 101.183 64.4431 101.211C62.618 101.601 60.7899 101.555 58.974 101.192C55.1188 100.417 51.9219 98.4981 49.3221 95.5459C47.5828 93.5684 46.2875 91.3173 45.2862 88.9032C43.5805 84.7977 43.0814 80.5661 44.2297 76.2084C44.931 73.5514 46.0946 71.1496 48.1891 69.1537V69.1537ZM12.8885 48.2418C12.9252 48.2879 12.9497 48.334 12.9895 48.3586C13.0508 48.3955 13.1181 48.4263 13.1855 48.4447C15.8251 49.1828 18.134 50.5359 20.2315 52.2704C24.5553 55.85 27.7492 60.2508 29.6538 65.5526C31.0257 69.369 31.684 73.2869 31.0594 77.3524C30.992 77.7922 31.0532 77.8537 31.4942 77.8968C32.0147 77.949 32.3057 77.7245 32.4128 77.1956C32.4373 77.0757 32.4557 76.9526 32.471 76.8327C32.9487 73.004 32.6486 69.2367 31.5922 65.5218C30.058 60.1247 27.2592 55.5548 22.8589 52.0367C19.9468 49.7087 16.6825 48.294 12.8915 48.2418H12.8885ZM80.9696 33.9386C80.8256 33.6311 80.7123 33.3328 80.5531 33.0591C77.6685 28.1201 73.4734 25.4262 67.6675 25.5984C65.5363 25.663 63.751 26.561 62.373 28.2247C62.2291 28.3969 62.1097 28.5784 62.0638 28.8029C62.027 28.9689 61.9413 29.1565 62.1189 29.2764C62.3087 29.4025 62.52 29.3287 62.6548 29.1842C63.1968 28.5999 63.9133 28.3477 64.6329 28.1171C66.1089 27.6496 67.6216 27.5758 69.1343 27.8803C72.4506 28.5476 75.0412 30.279 76.756 33.2466C76.9183 33.5265 77.0408 33.628 77.3807 33.4896C78.5137 33.0222 79.5763 33.2374 80.5592 33.9294C80.6695 34.0062 80.7828 34.0062 80.9726 33.9417L80.9696 33.9386ZM58.8822 45.4832C58.8944 45.3172 58.8424 45.271 58.7811 45.231C57.443 44.3638 56.3926 43.2137 55.5291 41.8759C54.8493 40.818 54.0133 39.8862 53.1131 39.0159C50.7338 36.7156 47.9472 35.9344 44.7442 36.8171C43.5683 37.14 42.5608 37.7888 41.6514 38.5946C41.5228 38.7084 41.385 38.856 41.5013 39.0374C41.6208 39.225 41.8045 39.1727 41.9484 39.0589C42.469 38.6499 43.0937 38.5331 43.7183 38.4039C45.329 38.0748 46.9367 38.0995 48.4861 38.653C50.7031 39.4434 52.4914 40.8795 54.0593 42.614C54.6839 43.3059 55.2964 44.0071 55.9394 44.6836C56.7632 45.5509 57.8135 45.557 58.8822 45.4832V45.4832ZM88.7046 52.2304C89.2986 52.5502 89.8805 52.6671 90.4102 52.9131C90.6797 53.0392 90.8481 52.9623 91.0655 52.8055C91.4605 52.5195 91.8647 52.2212 92.3057 52.0213C94.0205 51.2432 95.7445 50.4836 97.6216 50.1638C99.1772 49.8993 100.589 50.1792 101.832 51.1756C102.31 51.56 102.751 51.9844 103.149 52.4549C103.464 52.8301 103.798 53.1899 104.129 53.5528C104.263 53.7004 104.41 53.8203 104.64 53.7158C104.879 53.6081 105.069 53.4759 105.075 53.1868C105.075 53.0638 105.081 52.9377 105.053 52.8209C104.573 50.702 102.98 48.9183 100.913 48.497C99.5263 48.2141 98.1452 48.2448 96.7642 48.5554C94.538 49.0506 92.52 50.0162 90.6154 51.2463C90.0397 51.6184 89.4824 52.0213 88.7015 52.2304H88.7046ZM63.9684 57.6767C63.8796 57.2247 63.7235 56.8187 63.5275 56.4251C61.8249 53.0546 57.6267 50.9234 53.9276 51.5815C52.4394 51.846 51.2329 52.5994 50.4061 53.888C49.956 54.5922 49.6865 55.3703 49.7141 56.3113C50.3295 56.0253 50.8777 55.7701 51.4289 55.5148C51.6095 55.4318 51.6371 55.2534 51.6922 55.0935C52.0842 53.9649 52.8834 53.2698 53.9766 52.8701C57.3143 51.6399 61.3441 53.642 62.4527 57.0801C62.5415 57.3538 62.4986 57.7444 62.7283 57.8828C62.9947 58.0458 63.3376 57.8244 63.6469 57.769C63.7388 57.7536 63.8276 57.7136 63.9715 57.6706L63.9684 57.6767ZM71.976 47.5775C72.4353 47.9035 72.8793 48.1956 73.2958 48.5185C73.6142 48.7676 73.847 48.7123 74.1164 48.4355C75.329 47.1869 76.8203 46.3474 78.33 45.5293C79.2701 45.0219 80.204 44.8651 81.2084 45.3079C81.5728 45.4678 81.9586 45.4832 82.3567 45.3879C82.6752 45.311 82.8007 45.1296 82.8099 44.819C82.8283 44.0194 82.4302 43.4751 81.7749 43.0814C81.4381 42.8784 81.1288 42.8046 80.7644 43.0722C80.4521 43.2998 80.0785 43.4412 79.7294 43.6196C77.1663 44.9266 74.6064 46.2336 71.976 47.5775ZM41.5503 62.2036C41.7555 62.3789 41.8657 62.4742 41.979 62.5695C42.5517 63.0677 42.4322 63.0001 42.9314 62.6095C43.997 61.7792 45.1239 61.0534 46.3365 60.4568C47.8063 59.7341 49.2609 58.9837 50.7246 58.2487C51.2053 58.0089 51.6983 57.7936 52.2342 57.6952C53.3182 57.4891 54.2736 57.7013 55.0269 58.5655C55.0912 58.6393 55.1494 58.7193 55.2259 58.7808C55.3515 58.8853 55.4954 58.8976 55.6302 58.7961C55.7771 58.6824 55.7465 58.5378 55.6669 58.4056C55.4709 58.0919 55.2168 57.8305 54.9442 57.5814C54.5125 57.1878 53.9337 57.0955 53.4591 56.8003C52.718 56.339 52.0382 56.4374 51.337 56.8833C49.022 58.3502 46.6458 59.7034 44.1562 60.8535C43.2958 61.2502 42.472 61.7238 41.5565 62.2036H41.5503ZM53.2294 55.1919C53.4254 55.2688 53.5448 55.3057 53.6551 55.358C54.096 55.564 54.5125 55.6624 54.9412 55.2903C55.1188 55.1365 55.3913 55.115 55.6393 55.1027C56.7019 55.0504 57.5532 55.4349 58.1564 56.3298C58.5025 56.8464 58.8944 57.3077 59.4517 57.6091C59.7457 57.769 60.0335 57.8459 60.3734 57.6706C60.3398 57.5537 60.3183 57.4307 60.2663 57.3262C59.3997 55.5978 58.0248 54.4754 56.1415 54.0848C55.0116 53.8511 54.0256 54.2416 53.2294 55.195V55.1919ZM63.555 48.3186C63.1386 47.9434 62.8171 47.9742 62.4159 48.2633C61.3288 49.0413 60.2755 49.8747 59.0751 50.4836C59.0383 50.5021 59.0261 50.5667 58.9955 50.619C59.1516 50.6866 59.317 50.7389 59.4609 50.8281C59.7365 50.9941 59.9417 50.9234 60.1775 50.7266C61.2247 49.8501 62.3455 49.0782 63.555 48.3217V48.3186ZM66.2069 49.7732C66.0568 49.5457 65.867 49.4749 65.7139 49.355C65.5516 49.2289 65.4168 49.2628 65.2607 49.3796C64.0725 50.2714 62.8569 51.1264 61.5922 51.9229C62.0944 52.3811 62.0913 52.3749 62.5506 52.0213C63.111 51.5877 63.6898 51.1848 64.2961 50.8158C64.9146 50.4375 65.5546 50.1023 66.2069 49.7732V49.7732ZM60.845 47.353C60.5878 47.2792 60.401 47.2146 60.1989 47.3684C60.0642 47.4729 59.9141 47.559 59.7733 47.6574C58.8638 48.2879 57.8135 48.6538 56.8734 49.2258C56.509 49.4473 56.1293 49.6472 55.7373 50.0377C56.166 50.0623 56.4722 50.0777 56.7815 50.1023C56.9653 50.1177 57.1031 50.0531 57.2378 49.927C58.135 49.0813 59.1884 48.457 60.2295 47.8174C60.4286 47.6974 60.6705 47.6236 60.845 47.353ZM75.9905 79.3975C75.9935 79.0131 75.9813 78.6933 75.8129 78.4103C75.7057 78.232 75.5465 78.1243 75.326 78.1489C75.1086 78.1735 74.9891 78.3119 74.9157 78.5149C74.7993 78.8347 74.885 79.1453 74.9493 79.4559C75.0473 79.9357 75.3444 80.274 75.6169 80.194C76.0548 80.0648 75.9537 79.662 75.9874 79.4006L75.9905 79.3975ZM105.029 55.2872C105.02 55.7332 105.274 56.1083 105.586 56.1114C105.868 56.1145 106.116 55.7977 106.113 55.4349C106.11 55.0043 105.828 54.6537 105.494 54.6599C105.204 54.666 105.038 54.8875 105.029 55.2872V55.2872Z" fill="#0D070B"/>
<path d="M53.0245 69.7603C53.2848 69.6404 53.4992 69.8095 53.7166 69.8956C55.5998 70.6214 57.2901 71.6855 58.8396 72.9678C59.1336 73.2108 59.4949 73.3922 59.6878 73.749C59.7766 73.7305 59.8256 73.7674 59.8226 73.8628L59.8103 73.8443C59.8654 73.8997 59.9175 73.9519 59.9726 74.0073L59.9634 73.9888C59.9573 74.2041 60.092 74.3517 60.2023 74.5116C61.9844 77.0826 63.9197 79.5367 65.855 81.9907C65.9346 82.0922 65.9959 82.2737 66.1888 82.1445C67.0248 83.4454 67.6372 84.8569 68.121 86.3146C68.8866 88.6272 69.3153 91.0136 69.4684 93.4462C69.4745 93.5661 69.4377 93.6861 69.4194 93.806C69.3551 93.7322 69.2846 93.6645 69.2326 93.5846C63.9105 85.8164 58.5885 78.0451 53.2695 70.2739C53.1623 70.1171 52.997 69.9817 53.0215 69.7603H53.0245Z" fill="#8669FB"/>
<path d="M48.823 76.2061C50.0387 78.0174 51.2605 79.8257 52.47 81.6432C55.3791 86.0193 58.282 90.3985 61.1819 94.7808C61.3411 95.0238 61.5524 95.2421 61.6259 95.5373C61.3656 95.5558 61.1604 95.4051 60.94 95.3067C58.4688 94.2057 56.3681 92.5974 54.5339 90.6107C51.9801 87.843 50.1183 84.6908 49.1904 81.0158C48.7924 79.4351 48.6178 77.8329 48.8199 76.2061H48.823Z" fill="#8669FB"/>
<path d="M51.0648 70.833C52.1458 72.263 53.1165 73.7668 54.1301 75.243C58.8366 82.1039 63.537 88.9711 68.2405 95.8351C68.2803 95.8966 68.314 95.9612 68.3508 96.0258C67.6771 96.3518 66.9513 96.4348 66.2164 96.4502C65.9868 95.872 65.5887 95.3984 65.2518 94.891C60.3554 87.5011 55.4529 80.1142 50.5504 72.7274C50.4065 72.509 50.3177 72.2261 50.0176 72.1523C50.333 71.6849 50.6086 71.1867 51.0679 70.8361L51.0648 70.833Z" fill="#8669FB"/>
<path d="M56.5214 47.6821C56.5183 47.6021 56.5153 47.5222 56.5122 47.4422C56.6776 47.3746 56.8399 47.2823 57.042 47.3592C56.9042 47.5468 56.7327 47.6452 56.5214 47.679V47.6821Z" fill="#8669FB"/>
<path d="M100.022 42.9092C100.071 42.9738 100.077 43.0414 100.041 43.1152C99.9886 43.189 99.9182 43.2106 99.8324 43.1767L99.7896 43.1398C99.814 43.0107 99.8937 42.9369 100.022 42.9123V42.9092Z" fill="#8669FB"/>
<path d="M51.6281 50.7207C51.6404 50.8037 51.6557 50.8837 51.6679 50.9667C51.622 51.0252 51.573 51.0713 51.4934 51.0129C51.4719 50.9944 51.4536 50.979 51.4321 50.9606C51.4444 50.8376 51.5148 50.7607 51.6281 50.7207V50.7207Z" fill="#8669FB"/>
<path d="M51.4933 51.0132C51.4596 51.0932 51.4106 51.1147 51.3433 51.0501C51.3739 51.0194 51.4045 50.9917 51.4321 50.9609C51.4535 50.9794 51.4719 50.9948 51.4933 51.0132V51.0132Z" fill="#8669FB"/>
<path d="M53.0308 69.7537C52.9297 69.7783 52.8899 69.7229 52.8838 69.6307C52.9787 69.6153 53.0369 69.646 53.0308 69.7537Z" fill="#8669FB"/>
<path d="M99.8326 43.1767C99.8112 43.2382 99.756 43.2997 99.707 43.2413C99.6489 43.1736 99.7377 43.1552 99.7897 43.1367L99.8326 43.1736V43.1767Z" fill="#8669FB"/>
<path d="M27.18 73.5796C27.1953 74.7697 27.0759 75.8153 26.837 76.8517C26.4114 78.6876 25.2631 80.0469 23.9096 81.2586C21.8672 83.0884 19.497 83.3252 16.9616 82.624C15.112 82.1104 13.4738 81.1755 12.0345 79.927C6.82275 75.4125 3.59216 69.7939 2.75313 62.8745C2.4806 60.6265 2.60921 58.4061 3.36556 56.2503C3.79427 55.0294 4.41282 53.9193 5.34678 53.0121C6.60533 51.7912 8.10579 51.2284 9.86654 51.2315C12.35 51.2345 14.5057 52.0864 16.4624 53.5564C18.1221 54.8049 19.546 56.2842 20.8138 57.9233C23.3891 61.2538 25.456 64.8519 26.5155 68.9728C26.9136 70.5258 27.128 72.1065 27.1769 73.5827L27.18 73.5796ZM16.1623 54.9618C16.1807 54.8449 16.1103 54.808 16.0123 54.8019C15.0293 53.9223 13.8657 53.3749 12.6347 52.9536C11.8202 52.5661 11.1006 52.6123 10.5433 53.4118C10.2095 53.5102 10.0472 53.7993 9.85735 54.0515C9.26635 54.8357 8.97545 55.746 8.84378 56.7024C8.81009 56.9392 8.58043 57.1944 8.81622 57.4466C8.66005 57.7172 8.69373 58.0186 8.68454 58.3108C8.64473 59.5716 8.78866 60.8171 9.03363 62.0472C9.95228 66.654 11.9764 70.7319 14.9804 74.3146C16.1685 75.7323 17.5311 76.9716 19.1633 77.8727C19.4113 78.008 19.644 78.2294 19.9686 78.1556L19.9625 78.1433C19.938 78.2663 20.0145 78.2817 20.1064 78.2786C21.368 78.8506 22.6296 78.9613 23.8912 78.2786C24.6384 77.8665 25.2294 77.3038 25.5877 76.5134C25.8235 76.3135 25.9368 76.0275 25.9827 75.7507C26.1481 74.7851 26.2124 73.8102 25.998 72.8384C26.0807 72.165 25.9031 71.5191 25.7745 70.8733C25.1651 67.838 24.0566 64.9811 22.5745 62.2748C21.0955 59.5747 19.1663 57.2375 16.7717 55.3031C16.591 55.1555 16.4471 54.9187 16.1593 54.9587H16.1654L16.1623 54.9618ZM19.5583 81.8706C19.5185 81.7537 19.4266 81.7291 19.3378 81.7014C13.7187 79.9823 9.71037 76.4119 7.22083 71.0886C6.09701 68.6868 5.39578 66.1589 5.03138 63.5418C4.6333 60.6726 4.58737 57.8095 5.38659 54.9833C5.42334 54.8511 5.47846 54.7096 5.37741 54.5774C4.90583 55.0356 4.59043 55.5461 4.27197 56.441C3.64728 58.2062 3.47886 60.0391 3.56461 61.8904C3.76977 66.4049 5.23042 70.5012 7.83939 74.167C9.84817 76.987 12.3714 79.2535 15.455 80.8465C16.735 81.5077 18.0946 81.9013 19.5583 81.8706V81.8706Z" fill="#0D070B"/>
<path d="M23.8909 78.2816C22.6416 75.9474 21.3983 73.6102 20.1429 71.2822C16.9888 65.4361 13.8287 59.5961 10.6716 53.75C10.6134 53.6454 10.5858 53.5224 10.543 53.4086C11.1003 52.609 11.8199 52.5629 12.6344 52.9504C12.6344 53.2641 12.8304 53.5009 12.9713 53.753C15.6139 58.5382 18.2566 63.3203 20.9053 68.0993C22.4609 70.907 24.0287 73.7086 25.5874 76.5133C25.2322 77.3036 24.6381 77.8664 23.8909 78.2785V78.2816Z" fill="#8669FB"/>
<path d="M8.81599 57.4463C9.46823 58.3996 9.95511 59.4422 10.5032 60.4539C13.5899 66.1494 16.6674 71.854 19.7448 77.5556C19.8459 77.7432 20.0204 77.9123 19.9684 78.1584C19.6438 78.2291 19.4111 78.0107 19.163 77.8754C17.5309 76.9744 16.1682 75.732 14.9801 74.3173C11.9761 70.7346 9.95205 66.6537 9.0334 62.05C8.78843 60.8199 8.6445 59.5713 8.68431 58.3135C8.6935 58.0214 8.66288 57.72 8.81599 57.4494V57.4463Z" fill="#8669FB"/>
<path d="M25.9981 72.8447C25.3245 71.879 24.8161 70.818 24.2466 69.7909C21.6437 65.0919 19.044 60.3928 16.4472 55.6907C16.3217 55.4631 16.1043 55.2632 16.1563 54.9619C16.4442 54.925 16.5881 55.1618 16.7688 55.3063C19.1634 57.2437 21.0926 59.5779 22.5716 62.278C24.0537 64.9842 25.1622 67.8412 25.7715 70.8765C25.9001 71.5223 26.0778 72.1712 25.9951 72.8416L25.9981 72.8447Z" fill="#8669FB"/>
<path d="M16.1618 54.9646C16.0393 54.9769 16.0178 54.9 16.0117 54.8047C16.1097 54.8139 16.1801 54.8477 16.1618 54.9646Z" fill="#8669FB"/>
<path d="M19.9621 78.1465C20.0601 78.1372 20.0999 78.1957 20.1061 78.2818C20.0142 78.2818 19.9376 78.2664 19.9621 78.1465Z" fill="#8669FB"/>
</g>
<defs>
<clipPath id="clip0_1_11270">
<rect width="173" height="110" rx="7" fill="white"/>
</clipPath>
</defs>
</svg>
