<svg width="141" height="108" viewBox="0 0 141 108" fill="none" xmlns="http://www.w3.org/2000/svg">
<g clip-path="url(#clip0_1_11660)">
<path d="M30.4348 49.4241C30.2498 49.3781 30.1519 49.5217 30.0405 49.6085C27.1335 51.8503 24.2265 54.0895 21.3277 56.3449C20.7974 56.757 20.3134 57.2314 19.8076 57.6732C19.4486 57.9877 19.0924 58.3103 18.7171 58.6031C17.9149 59.2347 17.4173 59.213 16.664 58.4838C15.8536 57.6976 15.1113 56.8464 14.4015 55.9654C12.6992 53.8482 11.16 51.6199 9.61818 49.3862C7.42367 46.2037 5.43583 42.8964 3.45071 39.5865C3.02649 38.879 2.53157 38.2175 2.06112 37.5398C1.57708 36.8404 1.17733 36.0976 0.807504 35.3359C0.328899 34.3546 0.380567 34.0265 1.13111 33.2431C2.08016 32.2537 3.15702 31.4024 4.25835 30.5919C5.48206 29.6919 6.71664 28.8055 7.98385 27.9624C11.2607 25.7856 14.6653 23.8148 18.0917 21.8928C19.9408 20.8546 21.9259 20.0549 23.9328 19.3338C25.2979 18.8431 26.6576 18.3443 28.1695 17.9621C27.5087 17.0784 26.9105 16.238 26.2714 15.4302C24.3788 13.0338 22.1462 10.9708 19.8157 9.00817C19.1359 8.43618 18.3881 7.94552 17.6375 7.46841C17.5831 7.43317 17.5233 7.40335 17.4689 7.36811C17.148 7.1648 16.9794 6.87474 17.0202 6.49522C17.0637 6.08317 17.3139 5.80667 17.7055 5.71721C18.2548 5.59251 18.815 5.50305 19.3752 5.42715C22.6928 4.96901 26.0376 4.74944 29.3661 4.37263C32.5858 4.00666 35.8027 3.63257 39.0224 3.26118C42.2204 2.89522 45.4183 2.53197 48.6136 2.16058C52.0916 1.75667 55.5724 1.38528 59.0423 0.924436C61.1117 0.650641 63.1893 0.450039 65.2641 0.216906C65.5877 0.178954 65.9249 0.173533 66.2295 0.0759423C66.6591 -0.0623107 67.0453 0.0108821 67.426 0.189798C69.8136 1.3148 72.0788 2.61871 74.0829 4.36179C76.2339 6.23227 78.3578 8.11901 80.0873 10.4043C80.4408 10.8705 80.8215 11.3151 81.0961 11.8139C81.2675 11.8518 81.3653 11.7543 81.4768 11.6892C86.2411 8.91058 91.3426 7.0916 96.8167 6.31901C98.8263 6.03438 100.839 5.90968 102.864 5.96389C103.066 5.96932 103.251 6.02624 103.433 6.09673C108.504 8.03769 113.576 9.97323 118.645 11.925C124.948 14.3512 131.249 16.7883 137.55 19.2226C138.259 19.4964 138.956 19.7946 139.684 20.0169C140.302 20.2067 140.555 20.5401 140.492 20.9603C140.43 21.3832 140.09 21.5892 139.423 21.5702C138.597 21.5458 137.773 21.4753 136.946 21.4591C133.968 21.3994 131.061 21.8982 128.163 22.519C124.875 23.2238 121.723 24.3163 118.618 25.5741C117.973 25.8344 117.312 26.0512 116.662 26.2898C116.63 26.4552 116.763 26.5202 116.853 26.607C119.746 29.4588 122.58 32.3675 125.054 35.5988C126.887 37.9952 128.823 40.313 130.458 42.8558C131.681 44.7561 132.756 46.7377 133.696 48.7871C134.121 49.7115 134.444 50.6793 134.781 51.6389C135.048 52.3979 134.866 52.8235 134.129 53.1624C133.737 53.344 133.313 53.4633 132.894 53.5744C129.514 54.4771 126.099 55.2335 122.694 56.0359C119.648 56.7543 116.6 57.4591 113.554 58.172C112.999 58.3021 112.994 58.3076 112.964 58.885C112.815 61.6771 112.684 64.472 112.515 67.2642C112.333 70.2732 112.102 73.2768 111.914 76.2859C111.765 78.6877 111.526 81.0841 111.444 83.4913C111.428 83.944 111.39 84.3859 111.466 84.8413C111.553 85.3726 111.275 85.7928 110.925 86.1777C110.03 87.1645 108.934 87.8287 107.708 88.3329C104.57 89.6205 101.369 90.7265 98.1165 91.6862C93.7003 92.9874 89.2786 94.275 84.8651 95.5871C81.4932 96.5901 78.1456 97.6772 74.7601 98.6422C70.6022 99.8269 66.4579 101.049 62.3735 102.47C59.888 103.332 57.3264 103.936 54.7729 104.56C53.8565 104.785 52.8857 104.782 51.9448 104.948C46.6556 105.869 41.3366 106.609 36.0257 107.409C34.6062 107.623 33.1813 107.789 31.7591 107.981C31.2315 108.052 30.8508 107.889 30.4266 107.515C29.6353 106.821 29.124 105.953 28.5992 105.083C23.8839 97.238 19.3208 89.3034 14.7577 81.3714C13.9474 79.9618 13.1316 78.5549 12.3185 77.1452C12.188 76.9202 12.052 76.6952 11.9514 76.4567C11.6849 75.8169 11.9051 75.2395 12.536 74.9413C13.8032 74.3449 15.1439 73.9654 16.5144 73.735C18.9591 73.3229 21.3821 72.8106 23.8213 72.3741C26.0022 71.9838 28.1831 71.5771 30.3777 71.2518C31.0113 71.157 31.0194 71.157 31.0004 70.5335C30.8617 66.0253 30.7067 61.5172 30.587 57.0091C30.5245 54.6696 30.4239 52.3274 30.4919 49.9853C30.4973 49.7982 30.5571 49.6003 30.4375 49.4241H30.4348ZM133.928 19.3744C133.786 19.3202 133.645 19.2606 133.503 19.2091C126.816 16.6961 120.13 14.1886 113.445 11.6675C109.91 10.3338 106.383 8.98106 102.856 7.63106C102.563 7.51992 102.274 7.48197 101.967 7.49281C98.6305 7.6148 95.3373 8.06209 92.1231 8.95938C88.8327 9.87835 85.6864 11.1985 82.5727 12.5919C82.5156 12.6163 82.4613 12.657 82.5347 12.8006C83.3178 13.0853 84.1527 13.3781 84.9794 13.6925C95.0382 17.5284 105.17 21.1771 115.167 25.1756C115.357 25.2515 115.507 25.2705 115.705 25.1431C117.136 24.2268 118.672 23.5058 120.233 22.8524C124.617 21.0172 129.193 19.9627 133.928 19.5805C134.034 19.6265 134.194 19.6347 134.216 19.5534C134.246 19.4503 134.099 19.3961 133.993 19.369C133.974 19.3636 133.949 19.3744 133.928 19.3771V19.3744ZM53.7205 36.3037C53.7613 36.5964 53.9272 36.7184 54.0441 36.8675C56.5377 40.0148 58.9552 43.2163 61.1769 46.5642C62.5094 48.5756 63.744 50.6305 64.7067 52.8479C65.7944 55.3527 66.8087 57.8874 67.6898 60.4735C68.3451 62.4009 69.063 64.3148 69.1936 66.375C69.2126 66.6814 69.3459 66.7166 69.6205 66.6461C70.5451 66.4076 71.4778 66.188 72.4078 65.9738C82.4177 63.6561 92.4276 61.3383 102.44 59.0287C108.281 57.6814 114.128 56.3449 119.975 55.0166C124.149 54.0678 128.307 53.0594 132.503 52.2028C132.834 52.135 133.191 52.1567 133.544 51.9452C133.207 51.403 133.163 50.7768 132.891 50.2347C131.768 47.9847 130.662 45.7238 129.294 43.6094C125.873 38.3178 122.226 33.197 117.753 28.7133C117.141 28.0979 116.513 27.488 115.972 26.8157C115.615 26.3738 115.27 26.2898 114.737 26.3901C112.583 26.8021 110.422 27.1871 108.257 27.5476C105.214 28.0518 102.166 28.5262 99.1172 29.0142C95.147 29.6485 91.1822 30.2964 87.2092 30.9118C83.345 31.5109 79.4754 32.0774 75.6303 32.7958C70.0964 33.8259 64.5217 34.6067 58.9607 35.4877C57.2257 35.7615 55.4908 36.0299 53.7178 36.3064L53.7205 36.3037ZM52.9237 37.8163C52.9536 38.1714 52.9808 38.3964 52.989 38.6214C53.0515 40.6356 53.1576 42.6497 53.2283 44.6639C53.367 48.5431 53.4295 52.425 53.5138 56.3043C53.7015 65.1714 53.9 74.0386 54.055 82.9058C54.123 86.766 54.1311 90.6263 54.3052 94.4811C54.3922 96.4302 54.4221 98.3793 54.4765 100.323C54.6206 100.391 54.7403 100.318 54.8599 100.277C55.9912 99.8919 57.155 99.6127 58.2999 99.2684C62.2103 98.0946 66.118 96.8991 70.0257 95.7199C77.3897 93.5025 84.7754 91.3636 92.1176 89.0702C97.8201 87.2865 103.531 85.5353 109.282 83.9142C110.223 83.6485 110.226 83.6567 110.291 82.6862C110.294 82.6428 110.296 82.5994 110.299 82.5561C110.484 79.8073 110.65 77.0585 110.854 74.3151C111.202 69.666 111.496 65.0142 111.969 60.3759C112.031 59.7768 112.056 59.175 112.102 58.5407C111.974 58.5597 111.89 58.5651 111.811 58.5841C110.288 58.9473 108.771 59.3214 107.248 59.6765C99.5442 61.4711 91.8375 63.2467 84.1391 65.0549C79.2307 66.207 74.3277 67.3645 69.4002 68.4326C69.2697 68.4597 69.1582 68.5166 69.0413 68.5762C68.3098 68.9666 67.7605 68.7308 67.5892 67.9311C67.445 67.2533 67.3308 66.5675 67.2166 65.8844C66.9827 64.4937 66.5667 63.1546 66.099 61.7937C65.4218 62.0431 64.7855 62.3277 64.1247 62.5094C62.2185 63.0299 60.2796 63.4338 58.3434 63.8323C57.6554 63.9732 57.1713 63.6479 56.9674 62.9648C56.8722 62.6449 56.8967 62.3196 56.9021 61.997C56.9293 60.197 57.0218 58.3997 56.9837 56.5997C56.9103 53.0973 56.4263 49.6437 55.8443 46.2009C55.4881 44.1055 54.9877 42.0425 54.3024 40.0284C54.0305 39.2287 53.6226 38.5157 52.9292 37.8136L52.9237 37.8163ZM17.5587 57.7925C18.5675 56.9305 19.5356 56.0549 20.5527 55.2443C23.0191 53.2844 25.5209 51.3705 28.0608 49.5055C29.0751 48.76 30.103 48.0308 31.1717 47.3585C33.6898 45.7726 36.2052 44.1868 38.7206 42.5982C40.3549 41.5654 42.0246 40.5922 43.6888 39.6109C45.1899 38.7244 46.8079 38.082 48.3335 37.2552C49.2717 36.7455 50.2506 36.3389 51.2731 36.0299C51.4743 35.9702 51.6892 35.9323 51.8333 35.7832C51.7925 35.5365 51.6021 35.4877 51.4689 35.3928C49.7639 34.1567 48.0398 32.9422 46.3456 31.6898C40.567 27.4121 34.7966 23.1208 29.0316 18.8241C28.7488 18.6127 28.5367 18.5883 28.2158 18.7428C26.6875 19.472 25.1592 20.2067 23.6038 20.8735C21.325 21.8521 19.1141 22.9446 16.9713 24.197C12.6693 26.71 8.48693 29.391 4.52485 32.4109C3.67913 33.0561 2.84701 33.7202 2.13182 34.5172C1.93331 34.7395 1.9034 34.8913 2.10191 35.1217C2.32762 35.3847 2.52885 35.672 2.71648 35.9621C4.59827 38.8518 6.39304 41.7985 8.17149 44.7506C10.6271 48.825 13.1996 52.8154 16.305 56.4371C16.6994 56.8952 17.0828 57.3642 17.5587 57.7898V57.7925ZM30.2498 18.4826C30.7774 18.8702 31.2478 19.2118 31.7129 19.5588C38.6744 24.7582 45.7501 29.8031 52.5893 35.1624C52.7579 35.2952 52.9101 35.3386 53.125 35.2979C53.6797 35.1895 54.2399 35.1109 54.7974 35.0187C59.1293 34.3058 63.4612 33.5982 67.7931 32.8826C71.2467 32.3106 74.7138 31.8443 78.1756 31.3428C78.6705 31.2723 78.6732 31.2669 78.7058 30.7952C78.8799 28.3094 79.0621 25.8235 79.2252 23.335C79.4319 20.1768 79.6277 17.0187 79.8887 13.8633C79.9023 13.6979 79.9785 13.5217 79.8371 13.3401C79.7256 13.3509 79.5951 13.3482 79.4727 13.3781C78.4339 13.6302 77.3734 13.744 76.3155 13.8552C70.8224 14.4271 65.3321 14.9964 59.8363 15.544C55.1427 16.0103 50.4437 16.444 45.7474 16.894C41.2251 17.3277 36.7029 17.7506 32.1833 18.2034C31.5714 18.2657 30.9324 18.2196 30.2498 18.4799V18.4826ZM19.9898 7.20004C21.8144 8.63136 23.4053 10.1061 24.958 11.6187C26.3884 13.0148 27.778 14.4488 28.8032 16.1892C29.0289 16.5714 29.0941 17.1543 29.5319 17.2871C29.9398 17.4118 30.432 17.26 30.8862 17.2274C30.9297 17.2247 30.9732 17.2139 31.014 17.2085C32.6102 17.016 34.2065 16.8127 35.8055 16.6338C38.8076 16.2922 41.8125 15.9642 44.8147 15.6335C48.0996 15.2702 51.3819 14.9043 54.6696 14.5491C58.648 14.1208 62.6236 13.6952 66.602 13.2859C69.868 12.9497 73.1339 12.6353 76.4025 12.3181C77.2347 12.2368 78.0695 12.1853 78.9071 12.1202C78.8962 12.047 78.9016 12.0226 78.8907 12.0091C78.5481 11.5889 78.2136 11.1633 77.8601 10.754C74.8498 7.29221 71.5431 4.18558 67.4287 2.03588C67.0806 1.85426 66.7625 1.80004 66.3763 1.84883C63.9806 2.14161 61.5876 2.44522 59.1864 2.68106C55.8117 3.01179 52.4451 3.4157 49.0731 3.7898C45.7474 4.16118 42.4189 4.5407 39.0932 4.9148C36.5886 5.19673 34.0814 5.47052 31.5769 5.76871C28.621 6.12383 25.6677 6.50606 22.7118 6.87474C21.8552 6.98046 20.9986 7.08076 19.9925 7.20275L19.9898 7.20004Z" fill="#0D070B"/>
<path d="M30.2495 18.4816C30.9321 18.2186 31.5684 18.2647 32.183 18.2051C36.7025 17.7523 41.2248 17.3267 45.7471 16.8957C50.4434 16.4457 55.1397 16.012 59.836 15.5457C65.3318 14.9981 70.8221 14.4316 76.3152 13.8569C77.373 13.7457 78.4336 13.6319 79.4724 13.3797C79.5947 13.3499 79.7225 13.3526 79.8368 13.3418C79.9782 13.5234 79.902 13.6996 79.8884 13.865C79.6274 17.0204 79.4316 20.1785 79.2249 23.3367C79.0617 25.8252 78.8795 28.3111 78.7055 30.7969C78.6729 31.2686 78.6674 31.274 78.1752 31.3445C74.7135 31.846 71.2436 32.3123 67.7928 32.8843C63.4609 33.5999 59.1289 34.3102 54.797 35.0204C54.2396 35.1126 53.6794 35.1912 53.1246 35.2996C52.9098 35.343 52.7575 35.2996 52.5889 35.1641C45.7471 29.8047 38.6713 24.7599 31.7125 19.5605C31.2475 19.2135 30.7771 18.8719 30.2495 18.4843V18.4816Z" fill="#CEB186"/>
<path d="M133.925 19.5782C133.925 19.5104 133.925 19.4426 133.925 19.3749C133.947 19.3722 133.968 19.3613 133.99 19.3667C134.096 19.3938 134.24 19.4453 134.213 19.5511C134.191 19.6324 134.031 19.6243 133.925 19.5782Z" fill="#CEB186"/>
</g>
<defs>
<clipPath id="clip0_1_11660">
<rect width="140" height="108" fill="white" transform="translate(0.5)"/>
</clipPath>
</defs>
</svg>
