<svg width="140" height="108" viewBox="0 0 140 108" fill="none" xmlns="http://www.w3.org/2000/svg">
<g clip-path="url(#clip0_1_9047)">
<path d="M29.9343 49.4241C29.7494 49.3781 29.6515 49.5217 29.54 49.6085C26.633 51.8503 23.726 54.0895 20.8272 56.3449C20.2969 56.757 19.8129 57.2314 19.3071 57.6732C18.9481 57.9877 18.5919 58.3103 18.2166 58.6031C17.4144 59.2347 16.9168 59.213 16.1635 58.4838C15.3531 57.6976 14.6108 56.8464 13.901 55.9654C12.1987 53.8482 10.6596 51.6199 9.11769 49.3862C6.92318 46.2037 4.93534 42.8964 2.95022 39.5865C2.526 38.879 2.03108 38.2175 1.56063 37.5398C1.07659 36.8404 0.676846 36.0976 0.307016 35.3359C-0.171589 34.3546 -0.119921 34.0265 0.630618 33.2431C1.57967 32.2537 2.65653 31.4024 3.75786 30.5919C4.98157 29.6919 6.21615 28.8055 7.48337 27.9624C10.7602 25.7856 14.1648 23.8148 17.5912 21.8928C19.4403 20.8546 21.4254 20.0549 23.4323 19.3338C24.7974 18.8431 26.1571 18.3443 27.6691 17.9621C27.0083 17.0784 26.41 16.238 25.771 15.4302C23.8783 13.0338 21.6457 10.9708 19.3152 9.00817C18.6354 8.43618 17.8876 7.94552 17.137 7.46841C17.0827 7.43317 17.0228 7.40335 16.9684 7.36811C16.6476 7.1648 16.479 6.87474 16.5197 6.49522C16.5633 6.08317 16.8134 5.80667 17.205 5.71721C17.7543 5.59251 18.3145 5.50305 18.8747 5.42715C22.1923 4.96901 25.5371 4.74944 28.8656 4.37263C32.0853 4.00666 35.3023 3.63257 38.522 3.26118C41.7199 2.89522 44.9179 2.53197 48.1131 2.16058C51.5911 1.75667 55.0719 1.38528 58.5418 0.924436C60.6112 0.650641 62.6888 0.450039 64.7636 0.216906C65.0872 0.178954 65.4244 0.173533 65.729 0.0759423C66.1587 -0.0623107 66.5448 0.0108821 66.9255 0.189798C69.3131 1.3148 71.5783 2.61871 73.5825 4.36179C75.7335 6.23227 77.8573 8.11901 79.5868 10.4043C79.9403 10.8705 80.321 11.3151 80.5956 11.8139C80.767 11.8518 80.8649 11.7543 80.9764 11.6892C85.7406 8.91058 90.8421 7.0916 96.3162 6.31901C98.3258 6.03438 100.338 5.90968 102.364 5.96389C102.565 5.96932 102.75 6.02624 102.932 6.09673C108.004 8.03769 113.075 9.97323 118.144 11.925C124.448 14.3512 130.749 16.7883 137.049 19.2226C137.759 19.4964 138.455 19.7946 139.184 20.0169C139.801 20.2067 140.054 20.5401 139.992 20.9603C139.929 21.3832 139.589 21.5892 138.923 21.5702C138.096 21.5458 137.272 21.4753 136.446 21.4591C133.468 21.3994 130.561 21.8982 127.662 22.519C124.374 23.2238 121.223 24.3163 118.117 25.5741C117.473 25.8344 116.812 26.0512 116.162 26.2898C116.129 26.4552 116.263 26.5202 116.352 26.607C119.246 29.4588 122.079 32.3675 124.554 35.5988C126.387 37.9952 128.323 40.313 129.957 42.8558C131.181 44.7561 132.255 46.7377 133.196 48.7871C133.62 49.7115 133.944 50.6793 134.281 51.6389C134.547 52.3979 134.365 52.8235 133.628 53.1624C133.237 53.344 132.812 53.4633 132.394 53.5744C129.014 54.4771 125.598 55.2335 122.193 56.0359C119.148 56.7543 116.099 57.4591 113.054 58.172C112.499 58.3021 112.494 58.3076 112.464 58.885C112.314 61.6771 112.184 64.472 112.015 67.2642C111.833 70.2732 111.602 73.2768 111.414 76.2859C111.264 78.6877 111.025 81.0841 110.944 83.4913C110.927 83.944 110.889 84.3859 110.965 84.8413C111.052 85.3726 110.775 85.7928 110.424 86.1777C109.529 87.1645 108.434 87.8287 107.207 88.3329C104.069 89.6205 100.868 90.7265 97.616 91.6862C93.1998 92.9874 88.7782 94.275 84.3647 95.5871C80.9927 96.5901 77.6452 97.6772 74.2596 98.6422C70.1017 99.8269 65.9574 101.049 61.873 102.47C59.3875 103.332 56.8259 103.936 54.2724 104.56C53.356 104.785 52.3852 104.782 51.4443 104.948C46.1552 105.869 40.8361 106.609 35.5252 107.409C34.1057 107.623 32.6808 107.789 31.2586 107.981C30.731 108.052 30.3503 107.889 29.9261 107.515C29.1348 106.821 28.6235 105.953 28.0987 105.083C23.3834 97.238 18.8203 89.3034 14.2573 81.3714C13.4469 79.9618 12.6311 78.5549 11.818 77.1452C11.6875 76.9202 11.5515 76.6952 11.4509 76.4567C11.1844 75.8169 11.4047 75.2395 12.0355 74.9413C13.3028 74.3449 14.6434 73.9654 16.0139 73.735C18.4586 73.3229 20.8816 72.8106 23.3208 72.3741C25.5017 71.9838 27.6827 71.5771 29.8772 71.2518C30.5108 71.157 30.5189 71.157 30.4999 70.5335C30.3612 66.0253 30.2062 61.5172 30.0866 57.0091C30.024 54.6696 29.9234 52.3274 29.9914 49.9853C29.9968 49.7982 30.0566 49.6003 29.937 49.4241H29.9343ZM133.427 19.3744C133.286 19.3202 133.144 19.2606 133.003 19.2091C126.316 16.6961 119.629 14.1886 112.945 11.6675C109.41 10.3338 105.883 8.98106 102.356 7.63106C102.062 7.51992 101.774 7.48197 101.467 7.49281C98.13 7.6148 94.8369 8.06209 91.6226 8.95938C88.3322 9.87835 85.1859 11.1985 82.0723 12.5919C82.0151 12.6163 81.9608 12.657 82.0342 12.8006C82.8174 13.0853 83.6522 13.3781 84.4789 13.6925C94.5377 17.5284 104.67 21.1771 114.666 25.1756C114.857 25.2515 115.006 25.2705 115.205 25.1431C116.635 24.2268 118.172 23.5058 119.732 22.8524C124.116 21.0172 128.693 19.9627 133.427 19.5805C133.533 19.6265 133.694 19.6347 133.715 19.5534C133.745 19.4503 133.598 19.3961 133.492 19.369C133.473 19.3636 133.449 19.3744 133.427 19.3771V19.3744ZM53.22 36.3037C53.2608 36.5964 53.4267 36.7184 53.5436 36.8675C56.0373 40.0148 58.4548 43.2163 60.6765 46.5642C62.0089 48.5756 63.2435 50.6305 64.2062 52.8479C65.2939 55.3527 66.3082 57.8874 67.1893 60.4735C67.8447 62.4009 68.5626 64.3148 68.6931 66.375C68.7121 66.6814 68.8454 66.7166 69.12 66.6461C70.0446 66.4076 70.9773 66.188 71.9073 65.9738C81.9173 63.6561 91.9272 61.3383 101.94 59.0287C107.781 57.6814 113.628 56.3449 119.474 55.0166C123.648 54.0678 127.806 53.0594 132.002 52.2028C132.334 52.135 132.69 52.1567 133.044 51.9452C132.706 51.403 132.663 50.7768 132.391 50.2347C131.268 47.9847 130.161 45.7238 128.793 43.6094C125.372 38.3178 121.726 33.197 117.252 28.7133C116.641 28.0979 116.012 27.488 115.471 26.8157C115.115 26.3738 114.77 26.2898 114.237 26.3901C112.083 26.8021 109.921 27.1871 107.756 27.5476C104.714 28.0518 101.665 28.5262 98.6167 29.0142C94.6465 29.6485 90.6817 30.2964 86.7087 30.9118C82.8445 31.5109 78.9749 32.0774 75.1298 32.7958C69.5959 33.8259 64.0212 34.6067 58.4602 35.4877C56.7253 35.7615 54.9903 36.0299 53.2173 36.3064L53.22 36.3037ZM52.4232 37.8163C52.4532 38.1714 52.4804 38.3964 52.4885 38.6214C52.5511 40.6356 52.6571 42.6497 52.7278 44.6639C52.8665 48.5431 52.929 52.425 53.0133 56.3043C53.201 65.1714 53.3995 74.0386 53.5545 82.9058C53.6225 86.766 53.6306 90.6263 53.8047 94.4811C53.8917 96.4302 53.9216 98.3793 53.976 100.323C54.1201 100.391 54.2398 100.318 54.3594 100.277C55.4907 99.8919 56.6545 99.6127 57.7994 99.2684C61.7098 98.0946 65.6175 96.8991 69.5252 95.7199C76.8892 93.5025 84.2749 91.3636 91.6171 89.0702C97.3196 87.2865 103.03 85.5353 108.782 83.9142C109.723 83.6485 109.725 83.6567 109.791 82.6862C109.793 82.6428 109.796 82.5994 109.799 82.5561C109.984 79.8073 110.149 77.0585 110.353 74.3151C110.702 69.666 110.995 65.0142 111.468 60.3759C111.531 59.7768 111.555 59.175 111.602 58.5407C111.474 58.5597 111.389 58.5651 111.311 58.5841C109.788 58.9473 108.27 59.3214 106.748 59.6765C99.0437 61.4711 91.3371 63.2467 83.6386 65.0549C78.7302 66.207 73.8272 67.3645 68.8997 68.4326C68.7692 68.4597 68.6577 68.5166 68.5408 68.5762C67.8093 68.9666 67.26 68.7308 67.0887 67.9311C66.9445 67.2533 66.8303 66.5675 66.7161 65.8844C66.4823 64.4937 66.0662 63.1546 65.5985 61.7937C64.9213 62.0431 64.285 62.3277 63.6242 62.5094C61.718 63.0299 59.7791 63.4338 57.8429 63.8323C57.1549 63.9732 56.6709 63.6479 56.4669 62.9648C56.3717 62.6449 56.3962 62.3196 56.4016 61.997C56.4288 60.197 56.5213 58.3997 56.4832 56.5997C56.4098 53.0973 55.9258 49.6437 55.3438 46.2009C54.9876 44.1055 54.4872 42.0425 53.802 40.0284C53.53 39.2287 53.1221 38.5157 52.4287 37.8136L52.4232 37.8163ZM17.0582 57.7925C18.0671 56.9305 19.0351 56.0549 20.0522 55.2443C22.5186 53.2844 25.0204 51.3705 27.5603 49.5055C28.5746 48.76 29.6025 48.0308 30.6712 47.3585C33.1893 45.7726 35.7047 44.1868 38.2201 42.5982C39.8544 41.5654 41.5241 40.5922 43.1884 39.6109C44.6894 38.7244 46.3074 38.082 47.833 37.2552C48.7712 36.7455 49.7501 36.3389 50.7726 36.0299C50.9738 35.9702 51.1887 35.9323 51.3328 35.7832C51.292 35.5365 51.1016 35.4877 50.9684 35.3928C49.2634 34.1567 47.5393 32.9422 45.8452 31.6898C40.0665 27.4121 34.2961 23.1208 28.5311 18.8241C28.2483 18.6127 28.0362 18.5883 27.7153 18.7428C26.187 19.472 24.6587 20.2067 23.1033 20.8735C20.8245 21.8521 18.6136 22.9446 16.4708 24.197C12.1688 26.71 7.98644 29.391 4.02436 32.4109C3.17864 33.0561 2.34652 33.7202 1.63134 34.5172C1.43282 34.7395 1.40291 34.8913 1.60142 35.1217C1.82713 35.3847 2.02836 35.672 2.216 35.9621C4.09778 38.8518 5.89255 41.7985 7.671 44.7506C10.1266 48.825 12.6991 52.8154 15.8046 56.4371C16.1989 56.8952 16.5823 57.3642 17.0582 57.7898V57.7925ZM29.7494 18.4826C30.2769 18.8702 30.7474 19.2118 31.2124 19.5588C38.1739 24.7582 45.2496 29.8031 52.0888 35.1624C52.2574 35.2952 52.4097 35.3386 52.6245 35.2979C53.1792 35.1895 53.7394 35.1109 54.2969 35.0187C58.6288 34.3058 62.9607 33.5982 67.2926 32.8826C70.7462 32.3106 74.2134 31.8443 77.6751 31.3428C78.17 31.2723 78.1727 31.2669 78.2053 30.7952C78.3794 28.3094 78.5616 25.8235 78.7247 23.335C78.9314 20.1768 79.1272 17.0187 79.3883 13.8633C79.4019 13.6979 79.478 13.5217 79.3366 13.3401C79.2251 13.3509 79.0946 13.3482 78.9722 13.3781C77.9334 13.6302 76.8729 13.744 75.815 13.8552C70.322 14.4271 64.8316 14.9964 59.3358 15.544C54.6422 16.0103 49.9432 16.444 45.2469 16.894C40.7246 17.3277 36.2024 17.7506 31.6828 18.2034C31.071 18.2657 30.4319 18.2196 29.7494 18.4799V18.4826ZM19.4893 7.20004C21.3139 8.63136 22.9048 10.1061 24.4575 11.6187C25.8879 13.0148 27.2775 14.4488 28.3027 16.1892C28.5284 16.5714 28.5936 17.1543 29.0314 17.2871C29.4394 17.4118 29.9316 17.26 30.3857 17.2274C30.4292 17.2247 30.4727 17.2139 30.5135 17.2085C32.1097 17.016 33.706 16.8127 35.305 16.6338C38.3071 16.2922 41.312 15.9642 44.3142 15.6335C47.5991 15.2702 50.8814 14.9043 54.1691 14.5491C58.1475 14.1208 62.1231 13.6952 66.1015 13.2859C69.3675 12.9497 72.6334 12.6353 75.9021 12.3181C76.7342 12.2368 77.569 12.1853 78.4066 12.1202C78.3957 12.047 78.4011 12.0226 78.3903 12.0091C78.0476 11.5889 77.7132 11.1633 77.3596 10.754C74.3493 7.29221 71.0426 4.18558 66.9282 2.03588C66.5802 1.85426 66.262 1.80004 65.8758 1.84883C63.4801 2.14161 61.0871 2.44522 58.6859 2.68106C55.3112 3.01179 51.9446 3.4157 48.5727 3.7898C45.2469 4.16118 41.9184 4.5407 38.5927 4.9148C36.0881 5.19673 33.5809 5.47052 31.0764 5.76871C28.1205 6.12383 25.1673 6.50606 22.2113 6.87474C21.3547 6.98046 20.4981 7.08076 19.492 7.20275L19.4893 7.20004Z" fill="#84848A"/>
<path d="M29.75 18.4816C30.4326 18.2186 31.0689 18.2647 31.6835 18.2051C36.203 17.7523 40.7253 17.3267 45.2475 16.8957C49.9438 16.4457 54.6402 16.012 59.3365 15.5457C64.8323 14.9981 70.3226 14.4316 75.8157 13.8569C76.8735 13.7457 77.9341 13.6319 78.9729 13.3797C79.0952 13.3499 79.223 13.3526 79.3372 13.3418C79.4786 13.5234 79.4025 13.6996 79.3889 13.865C79.1279 17.0204 78.9321 20.1785 78.7254 23.3367C78.5622 25.8252 78.38 28.3111 78.206 30.7969C78.1734 31.2686 78.1679 31.274 77.6757 31.3445C74.214 31.846 70.7441 32.3123 67.2933 32.8843C62.9613 33.5999 58.6294 34.3102 54.2975 35.0204C53.7401 35.1126 53.1799 35.1912 52.6251 35.2996C52.4103 35.343 52.258 35.2996 52.0894 35.1641C45.2475 29.8047 38.1718 24.7599 31.213 19.5605C30.748 19.2135 30.2776 18.8719 29.75 18.4843V18.4816Z" fill="#D9D9DD"/>
<path d="M133.425 19.5782C133.425 19.5104 133.425 19.4426 133.425 19.3749C133.447 19.3722 133.468 19.3613 133.49 19.3667C133.596 19.3938 133.74 19.4453 133.713 19.5511C133.691 19.6324 133.531 19.6243 133.425 19.5782Z" fill="#D9D9DD"/>
</g>
<defs>
<clipPath id="clip0_1_9047">
<rect width="140" height="108" fill="white"/>
</clipPath>
</defs>
</svg>
