<svg width="141" height="120" viewBox="0 0 141 120" fill="none" xmlns="http://www.w3.org/2000/svg">
<g clip-path="url(#clip0_1_10776)">
<path d="M74.25 18C75.59 19.1 74.98 20.16 74.44 21.09C73.12 23.37 71.69 25.59 70.33 27.85C69.63 29.01 68.99 30.2 68.18 31.61C69.1 32.03 69.85 32.43 70.64 32.73C75.88 34.69 81.15 36.54 86.35 38.6C88.93 39.62 91.43 40.9 93.85 42.27C95.75 43.35 96.71 45.08 96.78 47.42C97.09 57.56 97.68 67.7 97.87 77.85C98.03 86.4 97.79 94.95 97.72 103.5C97.72 103.89 97.74 104.29 97.76 104.86C98.62 105.12 99.47 105.27 100.24 105.62C101.75 106.31 103.36 106.92 104.65 107.91C106.23 109.13 106.17 110.88 104.7 112.25C103.9 113 102.93 113.66 101.92 114.08C94.33 117.24 86.5 119.31 78.17 118.98C74.58 118.84 70.97 119.08 67.4 118.74C60.19 118.05 53.34 115.92 46.71 113.03C43.37 111.57 41.8 109.07 41.77 105.54C41.73 100.03 41.8 94.51 41.76 88.99C41.71 82.94 41.48 76.86 41.5 70.79C41.53 62.88 41.68 54.97 41.91 47.07C41.97 45.03 42.96 43.26 44.7 42C49.85 38.24 55.6 35.69 61.56 33.53C62.23 33.28 62.91 33.04 63.59 32.81C64.96 32.33 65.84 31.48 66.19 29.98C66.4 29.07 66.93 28.21 67.44 27.42C69.27 24.61 71.14 21.82 73.04 19.06C73.33 18.64 73.82 18.37 74.25 18.01V18ZM44.29 77.01H44.42C44.48 86.12 44.56 95.24 44.58 104.36C44.58 106.64 45.44 108.41 47.32 109.62C48.46 110.35 49.65 111.04 50.9 111.54C59.47 114.95 68.39 115.79 77.51 114.94C79.01 114.8 80.5 114.39 81.97 114.05C83.19 113.76 83.85 112.9 84.05 111.69C84.23 110.55 83.53 109.92 82.67 109.39C82.19 109.1 81.7 108.83 81.23 108.52C75.86 104.99 71.34 100.7 68.72 94.66C65.38 86.97 61.93 79.31 58.62 71.61C57.74 69.56 57.09 67.4 56.47 65.26C55.88 63.23 55.89 61.16 56.37 59.09C56.7 57.68 57.39 56.51 58.84 56.1C60.43 55.64 62.06 55.12 63.7 55.03C71.13 54.63 78.57 54.37 85.71 51.97C86.92 51.56 88.16 51.22 89.32 50.7C90.68 50.08 91.17 49.03 90.76 48.05C90.37 47.13 89.51 46.85 88.08 47.23C86.3 47.69 84.55 48.29 82.75 48.64C74.32 50.27 65.88 49.78 57.45 48.54C56.44 48.39 55.45 48 54.49 47.63C53.19 47.12 52.13 46.37 51.74 44.87C51.41 43.62 50.45 43.13 49.15 43.27C46.27 43.6 43.62 46.76 43.81 49.68C43.89 51.04 44.04 52.39 44.05 53.75C44.15 61.51 44.22 69.26 44.3 77.02L44.29 77.01Z" fill="#0D070B"/>
</g>
<g clip-path="url(#clip1_1_10776)">
<path fill-rule="evenodd" clip-rule="evenodd" d="M26.6146 2.05997C26.9116 1.25735 28.0468 1.25735 28.3438 2.05997L29.573 5.38198C29.6664 5.63432 29.8654 5.83328 30.1177 5.92665L33.4397 7.1559C34.2423 7.4529 34.2423 8.58812 33.4397 8.88511L30.1177 10.1144C29.8654 10.2077 29.6664 10.4067 29.573 10.659L28.3438 13.981C28.0468 14.7837 26.9116 14.7837 26.6146 13.981L25.3853 10.659C25.2919 10.4067 25.093 10.2077 24.8406 10.1144L21.5186 8.88511C20.716 8.58812 20.716 7.4529 21.5186 7.1559L24.8406 5.92665C25.093 5.83328 25.2919 5.63432 25.3853 5.38198L26.6146 2.05997ZM26.6146 22.4766C26.9116 21.674 28.0468 21.674 28.3438 22.4766L29.573 25.7986C29.6664 26.051 29.8654 26.2499 30.1177 26.3433L33.4397 27.5726C34.2423 27.8696 34.2423 29.0048 33.4397 29.3018L30.1177 30.531C29.8654 30.6244 29.6664 30.8234 29.573 31.0757L28.3438 34.3977C28.0468 35.2003 26.9116 35.2003 26.6146 34.3977L25.3853 31.0757C25.2919 30.8234 25.093 30.6244 24.8406 30.531L21.5186 29.3018C20.716 29.0048 20.716 27.8696 21.5186 27.5726L24.8406 26.3433C25.093 26.2499 25.2919 26.051 25.3853 25.7986L26.6146 22.4766ZM12.1415 13.3851L12.8958 11.3465L13.6502 13.3851C14.1012 14.6041 15.0623 15.5651 16.2812 16.0161L18.3198 16.7705L16.2812 17.5249C15.0623 17.9759 14.1012 18.937 13.6502 20.1559L12.8958 22.1945L12.1415 20.1559C11.6904 18.9369 10.7294 17.9759 9.51048 17.5249L7.47185 16.7705L9.51048 16.0161C10.7294 15.5651 11.6904 14.6041 12.1415 13.3851ZM11.4548 6.83629C11.9498 5.49858 13.8419 5.49858 14.3369 6.83629L16.3856 12.373C16.5412 12.7935 16.8728 13.1251 17.2934 13.2807L22.8301 15.3295C24.1678 15.8245 24.1678 17.7165 22.8301 18.2115L17.2934 20.2603C16.8728 20.4159 16.5412 20.7475 16.3856 21.1681L14.3369 26.7047C13.8419 28.0424 11.9498 28.0424 11.4548 26.7047L9.40608 21.1681C9.25046 20.7475 8.91886 20.4159 8.49829 20.2603L2.96162 18.2115C1.62392 17.7165 1.62392 15.8245 2.96162 15.3295L8.49829 13.2807C8.91886 13.1251 9.25046 12.7935 9.40608 12.373L11.4548 6.83629Z" fill="#0274D7"/>
</g>
<g clip-path="url(#clip2_1_10776)">
<path fill-rule="evenodd" clip-rule="evenodd" d="M131.615 48.06C131.912 47.2574 133.047 47.2574 133.344 48.06L134.573 51.382C134.666 51.6343 134.865 51.8333 135.118 51.9267L138.44 53.1559C139.242 53.4529 139.242 54.5881 138.44 54.8851L135.118 56.1144C134.865 56.2077 134.666 56.4067 134.573 56.659L133.344 59.981C133.047 60.7837 131.912 60.7837 131.615 59.981L130.385 56.659C130.292 56.4067 130.093 56.2077 129.841 56.1144L126.519 54.8851C125.716 54.5881 125.716 53.4529 126.519 53.1559L129.841 51.9267C130.093 51.8333 130.292 51.6343 130.385 51.382L131.615 48.06ZM131.615 68.4766C131.912 67.674 133.047 67.674 133.344 68.4766L134.573 71.7986C134.666 72.051 134.865 72.2499 135.118 72.3433L138.44 73.5726C139.242 73.8696 139.242 75.0048 138.44 75.3018L135.118 76.531C134.865 76.6244 134.666 76.8234 134.573 77.0757L133.344 80.3977C133.047 81.2003 131.912 81.2003 131.615 80.3977L130.385 77.0757C130.292 76.8234 130.093 76.6244 129.841 76.531L126.519 75.3018C125.716 75.0048 125.716 73.8696 126.519 73.5726L129.841 72.3433C130.093 72.2499 130.292 72.051 130.385 71.7986L131.615 68.4766ZM117.141 59.3851L117.896 57.3465L118.65 59.3851C119.101 60.6041 120.062 61.5651 121.281 62.0161L123.32 62.7705L121.281 63.5249C120.062 63.9759 119.101 64.937 118.65 66.1559L117.896 68.1945L117.141 66.1559C116.69 64.9369 115.729 63.9759 114.51 63.5249L112.472 62.7705L114.51 62.0161C115.729 61.5651 116.69 60.6041 117.141 59.3851ZM116.455 52.8363C116.95 51.4986 118.842 51.4986 119.337 52.8363L121.386 58.373C121.541 58.7935 121.873 59.1251 122.293 59.2807L127.83 61.3295C129.168 61.8245 129.168 63.7165 127.83 64.2115L122.293 66.2603C121.873 66.4159 121.541 66.7475 121.386 67.1681L119.337 72.7047C118.842 74.0424 116.95 74.0424 116.455 72.7047L114.406 67.1681C114.25 66.7475 113.919 66.4159 113.498 66.2603L107.962 64.2115C106.624 63.7165 106.624 61.8245 107.962 61.3295L113.498 59.2807C113.919 59.1251 114.25 58.7935 114.406 58.373L116.455 52.8363Z" fill="#0274D7"/>
</g>
<defs>
<clipPath id="clip0_1_10776">
<rect width="64.32" height="101.03" fill="white" transform="translate(41.5 18)"/>
</clipPath>
<clipPath id="clip1_1_10776">
<rect width="35" height="35" fill="white" transform="translate(0.5)"/>
</clipPath>
<clipPath id="clip2_1_10776">
<rect width="35" height="35" fill="white" transform="translate(105.5 46)"/>
</clipPath>
</defs>
</svg>
