<svg width="123" height="83" viewBox="0 0 123 83" fill="none" xmlns="http://www.w3.org/2000/svg">
<g clip-path="url(#clip0_1_9037)">
<path d="M1.33266 49.44C1.04077 52.125 2.51965 54.9568 4.42664 55.6636C4.48988 55.4679 4.53609 55.2625 4.61636 55.0742C4.95203 54.2892 5.78632 53.9689 6.54766 54.3235C7.26277 54.6536 7.56683 55.6122 7.19711 56.3312C7.0463 56.627 6.7836 56.7787 6.50874 56.8863C6.5282 57.1088 6.68144 57.1357 6.78847 57.2017C13.6161 61.4201 20.4438 65.6335 27.2714 69.8494C27.4928 69.9864 27.6703 70.1673 27.9598 69.8788C28.1592 69.6783 28.5484 69.9179 28.4949 70.2383C28.4292 70.6344 28.6992 70.6907 28.9036 70.8423C29.013 70.923 29.086 70.8936 29.2076 70.8252C29.5798 70.6124 29.7889 70.72 29.8546 71.1186C29.93 71.5686 30.003 71.6126 30.4165 71.4487C30.774 71.3069 31.027 71.4659 31.1267 71.8865C31.1948 72.1767 31.3594 72.2704 31.6205 72.1677C32.0048 72.0161 32.27 72.1555 32.3259 72.5712C32.3478 72.7301 32.3332 72.8597 32.5035 72.9576C33.7488 73.679 34.8993 74.5593 36.2007 75.1902C38.2657 76.1929 40.4281 76.7553 42.7316 76.6893C44.4196 76.6404 45.9837 76.1782 47.4017 75.2342C59.3763 67.2768 71.3508 59.317 83.3327 51.3718C93.4002 44.6958 103.482 38.0467 113.453 31.2265C114.868 30.2581 116.267 29.2677 117.656 28.2626C119.373 27.0228 120.147 25.3257 120.195 23.2446C120.205 22.8142 120.227 22.3863 120.125 21.9608C120.078 21.77 120.054 21.5744 119.862 21.4668C119.728 21.479 119.728 21.594 119.709 21.6747C119.366 23.1272 118.488 24.1812 117.279 24.9906C111.991 28.539 106.666 32.031 101.339 35.5231C84.4126 46.6204 67.4931 57.7275 50.5662 68.8248C49.5252 69.5071 48.5255 70.2676 47.4066 70.8203C43.2448 72.8818 39.0806 72.9135 34.9991 70.6344C25.6661 65.4208 16.5423 59.8452 7.29196 54.4873C6.65468 54.118 6.032 53.717 5.38742 53.36C3.71882 52.4405 2.31047 51.252 1.32536 49.4375L1.33266 49.44ZM114.632 29.0574C114.55 29.6272 114.331 30.126 113.779 30.4708C111.631 31.8134 109.544 33.2488 107.321 34.4667C106.581 34.8726 106.248 34.8359 105.691 34.2123C105.168 33.6279 105.187 33.4665 105.852 33.0434C107.576 31.943 109.298 30.8401 111.03 29.7543C111.889 29.2163 112.759 28.7004 113.638 28.1966C114.158 27.8983 114.418 28.0328 114.557 28.6148C114.589 28.7468 114.603 28.8838 114.632 29.0598V29.0574ZM103.689 36.154C103.66 36.6993 103.456 37.1908 102.925 37.5283C101.578 38.3867 100.25 39.2719 98.895 40.118C98.0193 40.6633 97.1096 41.1524 96.2194 41.6733C95.818 41.9105 95.4288 41.8738 95.0761 41.6097C94.8767 41.4606 94.7089 41.2576 94.5653 41.0522C94.3221 40.7 94.3683 40.5386 94.7283 40.2794C94.7915 40.233 94.8597 40.1938 94.9253 40.1523C96.6669 39.0445 98.4036 37.9294 100.15 36.8314C100.992 36.3032 101.845 35.797 102.704 35.3005C103.256 34.9826 103.565 35.1587 103.655 35.8043C103.67 35.9021 103.672 35.9999 103.687 36.1491L103.689 36.154ZM32.0389 71.5979C32.0365 71.3876 32.214 71.2115 32.4475 71.1969C32.6859 71.1822 32.8853 71.3852 32.8756 71.6321C32.8659 71.8522 32.681 72.0087 32.4475 71.999C32.2189 71.9892 32.0437 71.818 32.0413 71.5979H32.0389ZM30.0103 69.6171C30.2243 69.6122 30.4189 69.7907 30.4335 70.0035C30.4481 70.2187 30.2681 70.4094 30.0419 70.4119C29.8206 70.4143 29.6284 70.2383 29.6211 70.0255C29.6138 69.7981 29.7841 69.6196 30.0103 69.6147V69.6171ZM28.8841 69.5853C28.7041 69.5951 28.4779 69.3677 28.4852 69.172C28.4925 68.9715 28.6117 68.8444 28.8038 68.8346C29.0227 68.8224 29.159 68.952 29.1881 69.172C29.2173 69.3799 29.069 69.5755 28.8841 69.5853ZM31.3238 71.1724C31.0805 71.1846 30.903 71.011 30.9005 70.7811C30.9005 70.5513 31.0246 70.4217 31.2411 70.3923C31.4551 70.363 31.64 70.5537 31.6351 70.7836C31.6302 71.0037 31.5281 71.1455 31.3213 71.1724H31.3238Z" fill="#D9D9DD"/>
<path d="M0.928749 53.3777C0.126068 52.1085 -0.12204 50.7244 0.053093 49.2253C0.228226 47.7116 1.04793 46.55 2.04034 45.5328C2.85275 44.7013 3.71867 43.8968 4.70864 43.2634C5.67429 42.6447 6.64725 42.0334 7.63235 41.444C24.7368 31.2393 41.7998 20.9587 58.9456 10.8225C62.8495 8.51399 66.6513 6.03189 70.6234 3.8359C70.7426 3.76987 70.852 3.68917 70.9591 3.60603C74.0238 1.22664 77.5119 0.0968529 81.3574 0.00148149C82.0239 -0.0180819 82.6831 0.0479445 83.3374 0.148207C84.3979 0.307159 85.4462 0.534583 86.3997 1.05301C87.4773 1.63991 88.5718 2.18769 89.6761 2.72323C93.9133 4.77739 98.1894 6.7484 102.397 8.86124C105.596 10.4654 108.731 12.2017 112.034 13.5931C112.806 13.9184 113.53 14.3512 114.299 14.6716C115.887 15.3367 117.266 16.2855 118.441 17.5425C118.575 17.6843 118.702 17.8335 118.843 17.968C120.747 19.7947 121.674 21.9516 121.054 24.6269C121.01 24.8176 121.029 24.9497 121.192 25.0866C122.141 25.8936 122.613 26.972 122.88 28.1605C123.33 30.1633 122.506 32.2957 120.825 33.4671C120.283 33.8461 119.733 34.2178 119.186 34.5895C107.218 42.6643 95.2511 50.7317 83.2863 58.8114C75.3592 64.1644 67.4637 69.5639 59.5026 74.8631C57.3792 76.2766 55.1827 77.5824 53.1031 79.057C51.4369 80.2406 49.6418 81.1503 47.8078 82.0062C46.4724 82.6298 45.0592 83.0015 43.5803 83.0039C41.6612 83.0039 39.8491 82.5002 38.1367 81.6516C35.483 80.3384 33.0214 78.6804 30.4674 77.1912C27.7772 75.6212 25.1041 74.0219 22.4309 72.4226C16.5081 68.8792 10.8966 64.8711 5.25836 60.8998C4.22218 60.171 3.26382 59.3396 2.39303 58.4103C1.85062 57.8332 1.42008 57.1852 1.15496 56.4418C0.901993 55.7351 0.748749 54.9819 1.0382 54.2629C1.18658 53.8961 1.1209 53.6809 0.931175 53.3826L0.928749 53.3777ZM118.276 19.7923C117.952 18.9951 117.444 18.3372 116.807 17.7772C116.529 17.5327 116.245 17.2882 115.931 17.095C114.691 16.3344 113.455 15.5715 112.141 14.9357C105.701 11.8129 99.177 8.8539 92.8212 5.55503C90.7148 4.46193 88.5791 3.42262 86.4314 2.41756C84.3687 1.45162 82.2112 1.23886 79.9904 1.49319C77.5046 1.7793 75.1792 2.5814 73.0071 3.81878C72.1631 4.30053 71.3653 4.86298 70.5431 5.38385C67.4516 7.34752 64.2311 9.08866 61.0934 10.9765C45.2465 20.5161 29.312 29.909 13.4335 39.3972C11.0936 40.796 8.72935 42.1507 6.39427 43.5569C5.30943 44.2098 4.32919 45.0192 3.32706 45.7944C2.78221 46.215 2.44654 46.8288 2.23006 47.494C2.0379 48.0833 2.10844 48.6531 2.35654 49.2058C2.70681 49.9883 3.23706 50.6412 3.89867 51.167C4.39973 51.5656 4.9154 51.9495 5.51619 52.2039C5.80078 52.3237 6.05618 52.5144 6.32374 52.6734C14.657 57.6694 22.9611 62.7143 31.3406 67.632C32.1798 68.126 33.0336 68.598 33.9238 68.9892C34.4808 69.2338 34.9357 69.6397 35.5049 69.8622C37.5213 70.6497 39.6083 71.0483 41.7682 71.0752C43.4441 71.0898 45.0641 70.8257 46.5819 70.0823C47.2313 69.7644 47.7883 69.2998 48.3891 68.9036C61.2174 60.4058 74.1163 52.018 86.9908 43.5862C95.7571 37.8444 104.511 32.0854 113.275 26.3411C114.253 25.7004 115.296 25.16 116.245 24.4826C117.245 23.771 117.996 22.827 118.373 21.6239C118.568 21.0003 118.526 20.3938 118.283 19.7898L118.276 19.7923ZM4.42649 55.6641C4.48973 55.4685 4.53594 55.2631 4.61621 55.0748C4.95188 54.2898 5.78618 53.9695 6.54752 54.324C7.26263 54.6542 7.56668 55.6128 7.19696 56.3317C7.04615 56.6276 6.78345 56.7792 6.50859 56.8868C6.52805 57.1094 6.6813 57.1363 6.78832 57.2023C13.616 61.4207 20.4436 65.6341 27.2713 69.85C27.4926 69.987 27.6702 70.1679 27.9596 69.8794C28.1591 69.6788 28.5483 69.9185 28.4948 70.2388C28.4291 70.635 28.6991 70.6912 28.9034 70.8429C29.0129 70.9236 29.0858 70.8942 29.2075 70.8257C29.5796 70.613 29.7888 70.7206 29.8545 71.1192C29.9299 71.5691 30.0028 71.6132 30.4163 71.4493C30.7739 71.3075 31.0269 71.4664 31.1266 71.8871C31.1947 72.1772 31.3593 72.271 31.6204 72.1683C32.0047 72.0167 32.2698 72.156 32.3258 72.5718C32.3476 72.7307 32.3331 72.8603 32.5033 72.9581C33.7487 73.6795 34.8992 74.5599 36.2005 75.1908C38.2656 76.1934 40.428 76.7559 42.7314 76.6898C44.4195 76.6409 45.9835 76.1788 47.4016 75.2348C59.3761 67.2774 71.3507 59.3176 83.3325 51.3724C93.4001 44.6964 103.482 38.0473 113.453 31.227C114.868 30.2587 116.267 29.2683 117.656 28.2632C119.373 27.0234 120.146 25.3263 120.195 23.2452C120.205 22.8148 120.227 22.3869 120.125 21.9614C120.078 21.7706 120.054 21.575 119.862 21.4674C119.728 21.4796 119.728 21.5945 119.709 21.6752C119.366 23.1278 118.485 24.1818 117.279 24.9912C111.991 28.5395 106.666 32.0316 101.339 35.5237C84.4125 46.621 67.4929 57.7281 50.5661 68.8254C49.525 69.5077 48.5253 70.2682 47.4064 70.8208C43.2447 72.8823 39.0804 72.9141 34.9989 70.635C25.6659 65.4214 16.5421 59.8458 7.29182 54.4879C6.65453 54.1186 6.03185 53.7176 5.38728 53.3605C3.71867 52.4411 2.31033 51.2526 1.32522 49.4381C1.03333 52.1232 2.51221 54.955 4.41919 55.6617L4.42649 55.6641Z" fill="#84848A"/>
<path d="M111.922 25.2561C111.421 25.6254 110.92 25.9971 110.404 26.3492C107.262 28.4816 104.056 30.5211 100.879 32.6022C89.1309 40.2955 77.3898 48.001 65.6439 55.6992C60.4484 59.1056 55.2456 62.5048 50.0524 65.9161C49.5927 66.2169 49.1768 66.1705 48.7438 65.921C48.1382 65.5713 47.5398 65.2045 46.9317 64.8573C37.1122 59.2401 27.4168 53.4103 17.629 47.7393C15.5736 46.5484 13.5402 45.3208 11.5237 44.0639C11.244 43.8902 10.9497 43.7288 10.7502 43.4501C10.4024 42.961 10.4656 42.6504 10.974 42.3472C14.2455 40.3835 17.5244 38.4296 20.791 36.4562C37.122 26.5889 53.5478 16.8806 69.9419 7.11846C71.0778 6.44107 72.2332 5.79548 73.3837 5.13766C73.6026 5.01295 73.8288 4.89312 74.094 4.9029C74.595 4.92491 75.0304 5.15234 75.4707 5.35286C76.9058 6.00579 78.2582 6.825 79.6617 7.54151C88.5325 12.0729 97.4034 16.6091 106.277 21.138C108.008 22.0233 109.752 22.889 111.487 23.7693C111.781 23.9185 112.068 24.0799 112.294 24.3367C112.469 24.5372 112.479 24.7181 112.311 24.904C112.195 25.0336 112.063 25.1534 111.922 25.2561ZM34.5631 29.7484C34.3783 29.7166 34.225 29.7459 34.0669 29.8413C33.201 30.3622 32.3326 30.8782 31.4351 31.4137C31.564 31.5604 31.7124 31.5678 31.8559 31.5898C33.7215 31.8661 35.5871 32.1424 37.4528 32.4163C40.3011 32.8345 43.1469 33.2502 45.9953 33.6659C49.0552 34.1134 52.1127 34.5585 55.1726 35.0036C58.0209 35.4193 60.8668 35.835 63.7151 36.2458C66.5634 36.6567 69.4141 37.0528 72.26 37.471C76.5288 38.0995 80.8122 38.6473 85.0591 39.4225C85.8423 39.5667 86.6304 39.6841 87.4136 39.8308C87.6325 39.8724 87.8174 39.8724 88.0193 39.7404C88.9776 39.1045 89.9433 38.4859 90.9089 37.8598C90.9697 37.8207 91.05 37.7889 91.0184 37.6471C90.5587 37.5982 90.0844 37.5444 89.6076 37.4955C85.1977 37.0235 80.8122 36.3852 76.4266 35.7445C72.1943 35.1258 67.9571 34.5341 63.7224 33.93C59.7381 33.3603 55.7539 32.788 51.7697 32.2231C48.323 31.7341 44.8764 31.2572 41.4297 30.7681C39.7368 30.5285 38.0438 30.2766 36.3509 30.0271C35.755 29.9391 35.159 29.8535 34.5656 29.7508L34.5631 29.7484ZM41.3008 25.7574C41.1062 25.7281 40.9311 25.7036 40.7438 25.821C39.9995 26.2832 39.2479 26.7307 38.4987 27.1856C38.4744 27.2002 38.4744 27.254 38.4452 27.3347C41.5392 27.7798 44.5966 28.2175 47.6566 28.6626C50.4465 29.0685 53.234 29.4818 56.0239 29.8902C58.8503 30.3035 61.6792 30.7168 64.508 31.1251C67.6628 31.5824 70.82 32.0348 73.9748 32.4897C77.0931 32.9372 80.2089 33.3872 83.3272 33.8322C85.9056 34.199 88.4766 34.6148 91.0427 35.0574C92.0376 35.231 93.0397 35.3679 94.0175 35.6345C94.1878 35.681 94.3143 35.6614 94.4505 35.5734C95.4307 34.9424 96.411 34.3115 97.4398 33.6513C97.1966 33.4874 96.968 33.4996 96.7515 33.4776C93.3656 33.1353 89.9895 32.7196 86.6231 32.228C83.7578 31.8123 80.8876 31.4137 78.0198 31.0029C75.4804 30.6385 72.941 30.2644 70.4016 29.9C67.495 29.4843 64.5907 29.071 61.684 28.6602C58.7968 28.2518 55.9096 27.8483 53.0224 27.4399C50.1157 27.0291 47.209 26.6133 44.3048 26.1976C43.3051 26.0533 42.3029 25.9066 41.3032 25.755L41.3008 25.7574ZM110.241 24.4516C104.236 21.3679 98.2279 18.2891 92.2224 15.203C91.7992 14.9854 91.3589 14.8729 90.8919 14.8069C88.0241 14.4034 85.1564 13.9852 82.2886 13.5744C79.7103 13.2051 77.1296 12.8334 74.5513 12.4666C71.6251 12.0509 68.699 11.64 65.7728 11.2219C65.4007 11.1681 65.0772 11.1681 64.7196 11.3857C60.2951 14.0757 55.8561 16.7436 51.4219 19.4189C51.3076 19.4874 51.2005 19.5656 51.0351 19.6781C51.5824 19.8689 52.1005 19.8738 52.6016 19.9471C57.1598 20.6196 61.7205 21.2799 66.2812 21.9426C70.4381 22.5466 74.595 23.1457 78.7495 23.7473C83.2324 24.3978 87.7152 25.0581 92.2005 25.6963C95.3772 26.1487 98.5539 26.584 101.716 27.1342C103.076 27.369 104.435 27.6111 105.79 27.8678C106.016 27.9119 106.189 27.907 106.389 27.7749C107.836 26.8212 109.285 25.8724 110.772 24.9798C110.818 24.9505 110.849 24.8967 110.891 24.8502C110.696 24.6717 110.465 24.569 110.241 24.454V24.4516Z" fill="#84848A"/>
<path d="M98.4348 16.0096C98.3837 15.9827 98.3351 15.9509 98.2864 15.9191C97.744 15.5743 97.1748 15.2784 96.5935 15.0045C94.7109 14.1168 92.9401 13.0139 91.0696 12.1067C90.7364 11.9453 90.4323 11.7301 90.1842 11.4489C90.0212 11.2655 89.9312 11.0527 90.0626 10.8057C90.1793 10.5881 90.3812 10.5343 90.6269 10.5441C91.0404 10.593 91.4345 10.7641 91.8042 10.9793C92.979 11.6665 94.183 12.3023 95.3895 12.9332C96.613 13.5715 97.7513 14.3614 99.0113 14.936C99.381 15.1048 99.4905 15.5131 99.308 15.8213C99.1353 16.1147 98.7948 16.1881 98.4372 16.0096H98.4348Z" fill="#84848A"/>
<path d="M105.851 33.0434C107.576 31.943 109.298 30.8401 111.029 29.7543C111.888 29.2163 112.759 28.7004 113.637 28.1966C114.158 27.8983 114.418 28.0328 114.556 28.6148C114.588 28.7468 114.603 28.8838 114.632 29.0598C114.549 29.6296 114.33 30.1285 113.778 30.4733C111.63 31.8158 109.543 33.2513 107.32 34.4691C106.581 34.875 106.247 34.8384 105.69 34.2148C105.167 33.6303 105.187 33.4689 105.851 33.0459V33.0434ZM107.267 33.7624C109.249 32.344 111.382 31.1702 113.442 29.8766C113.973 29.544 114.021 29.4315 113.851 28.6832C111.282 30.4146 108.694 31.9894 106.131 33.6279C106.666 34.0656 106.797 34.0974 107.264 33.7624H107.267Z" fill="#84848A"/>
<path d="M94.731 40.2796C94.7943 40.2332 94.8624 40.194 94.9281 40.1525C96.6696 39.0447 98.4063 37.9296 100.153 36.8316C100.994 36.3034 101.848 35.7972 102.707 35.3008C103.259 34.9828 103.568 35.1589 103.658 35.8045C103.672 35.9023 103.675 36.0001 103.689 36.1493C103.66 36.6946 103.456 37.1862 102.926 37.5236C101.578 38.382 100.25 39.2672 98.8953 40.1133C98.0196 40.6587 97.1099 41.1477 96.2197 41.6686C95.8183 41.9058 95.4291 41.8691 95.0764 41.605C94.877 41.4559 94.7091 41.2529 94.5656 41.0475C94.3224 40.6953 94.3686 40.5339 94.7286 40.2747L94.731 40.2796ZM96.3437 40.869C98.3407 39.4482 100.479 38.2573 102.556 36.9661C103.076 36.6433 103.14 36.4623 102.916 35.7947C100.377 37.5139 97.791 39.0814 95.2345 40.7149C95.7405 41.1746 95.8718 41.204 96.3437 40.869Z" fill="#84848A"/>
<path d="M32.4446 71.1941C32.683 71.1794 32.8824 71.3824 32.8727 71.6294C32.863 71.8495 32.6781 72.006 32.4446 71.9962C32.216 71.9864 32.0408 71.8152 32.0384 71.5952C32.036 71.3848 32.2135 71.2088 32.447 71.1941H32.4446Z" fill="#84848A"/>
<path d="M30.0076 69.6138C30.2216 69.6089 30.4162 69.7874 30.4308 70.0001C30.4454 70.2153 30.2654 70.4061 30.0392 70.4085C29.8179 70.411 29.6257 70.2349 29.6184 70.0222C29.6111 69.7947 29.7814 69.6162 30.0076 69.6113V69.6138Z" fill="#84848A"/>
<path d="M28.8015 68.8309C29.0204 68.8186 29.1566 68.9483 29.1858 69.1683C29.215 69.3762 29.0666 69.5718 28.8817 69.5816C28.7017 69.5914 28.4755 69.364 28.4828 69.1683C28.4901 68.9678 28.6093 68.8407 28.8015 68.8309Z" fill="#84848A"/>
<path d="M31.2406 70.3897C31.4547 70.3604 31.6395 70.5511 31.6347 70.781C31.6298 71.0011 31.5276 71.1429 31.3209 71.1698C31.0777 71.182 30.9001 71.0084 30.8977 70.7785C30.8977 70.5487 31.0217 70.4191 31.2382 70.3897H31.2406Z" fill="#84848A"/>
</g>
<defs>
<clipPath id="clip0_1_9037">
<rect width="123" height="83" fill="white" transform="matrix(-1 0 0 1 123 0)"/>
</clipPath>
</defs>
</svg>
