<svg width="145" height="223" viewBox="0 0 145 223" fill="none" xmlns="http://www.w3.org/2000/svg">
<g clip-path="url(#clip0_401_21119)">
<path d="M9.51389 166.969C9.41027 162.57 11.6592 159.756 14.4567 157.26C16.1937 155.712 18.272 154.697 20.4235 153.92C23.3429 152.873 25.9636 151.301 28.5539 149.656C34.4901 145.875 39.9327 141.44 45.2839 136.888C49.2028 133.554 53.3899 130.642 58.0219 128.391C61.0693 126.904 64.1411 126.947 67.1945 128.299C69.1997 129.186 71.1561 130.214 72.7651 131.749C75.8917 134.741 77.3545 138.46 77.4154 142.761C77.4215 143.263 77.2996 143.721 77.0985 144.174C75.1543 148.64 72.2714 152.176 67.9442 154.648C61.0023 158.606 54.164 162.76 47.9534 167.843C44.4794 170.682 41.6027 174.053 39.3355 177.913C37.5741 180.911 34.9594 182.911 31.8999 184.275C29.3157 185.425 26.5243 185.597 23.7329 184.979C19.174 183.963 15.7488 181.278 13.0123 177.595C10.5927 174.346 9.4956 170.67 9.50779 166.975L9.51389 166.969ZM63.8424 151.797C64.6713 151.821 65.8293 151.687 66.969 151.393C71.4669 150.243 74.685 146.548 75.2761 141.856C75.8003 137.69 73.4721 133.346 69.5837 131.29C64.0313 128.36 55.9985 130.367 53.0913 135.873C50.952 139.929 51.3665 144.755 54.5906 148.034C57.0346 150.518 60.0088 151.778 63.8424 151.791V151.797ZM34.094 150.108C32.9116 150.879 31.9974 151.497 31.0527 152.078C29.8094 152.843 28.5417 153.571 27.2983 154.336C26.5243 154.819 26.0672 155.388 26.1282 156.471C26.2683 158.808 26.2013 161.151 26.2135 163.494C26.244 168.522 25.9575 173.539 25.8051 178.561C25.7686 179.736 26.3963 180.586 26.7011 181.596C26.7559 181.785 26.9631 181.877 27.1704 181.889C28.1943 181.951 29.2243 182.042 30.108 181.351C31.4489 180.299 32.6861 179.118 33.8929 177.913C34.1915 177.613 34.3195 177.271 34.2646 176.855C33.8746 173.851 33.838 170.823 33.643 167.807C33.3992 164.154 33.2895 160.502 33.6673 156.844C33.8868 154.715 33.9416 152.568 34.094 150.102V150.108ZM37.5375 173.582C38.147 172.682 38.7077 171.887 39.2318 171.067C40.5483 169 42.0171 167.042 43.876 165.445C44.9121 164.552 45.1742 163.585 45.0706 162.24C44.6501 156.825 44.8207 151.405 45.0584 145.991C45.1316 144.407 45.2839 142.822 45.1681 141.262C44.7842 141.152 44.5891 141.33 44.4063 141.47C42.2366 143.128 40.1948 144.939 38.1104 146.701C37.6289 147.105 37.6106 147.6 37.6167 148.151C37.6899 156.305 37.4034 164.46 37.312 172.615C37.312 172.884 37.1962 173.19 37.5497 173.588L37.5375 173.582Z" fill="#FFA826"/>
<path fill-rule="evenodd" clip-rule="evenodd" d="M0.262045 119.061V149.857C0.353466 160.661 0.572876 171.465 1.07265 182.256C1.31034 187.426 3.12657 192.075 6.95407 195.758C7.55745 196.339 8.0755 196.988 8.58137 197.642C11.4947 201.411 14.8163 204.782 18.5585 207.712C31.4306 217.788 46.1981 222.437 62.3736 222.963C68.3403 223.153 74.2522 222.553 80.0788 221.25C91.7929 218.626 102.343 213.622 111.363 205.589C113.911 203.319 116.373 200.94 118.756 198.493C123.175 193.953 126.051 188.551 126.704 182.214C127.283 176.573 127.508 170.896 127.496 165.225C127.477 156.865 127.392 148.505 127.307 140.145C127.28 137.506 127.253 134.866 127.228 132.226C127.173 126.36 126.85 120.505 126.216 114.669L126.193 114.452V114.452C125.914 111.856 125.635 109.253 124.704 106.777C124.602 106.501 124.453 106.221 124.305 105.943L124.305 105.943C124.014 105.394 123.726 104.852 123.802 104.361C123.883 103.847 124.28 103.394 124.685 102.932C124.921 102.663 125.159 102.392 125.338 102.103C126.966 99.5111 128.709 97.0006 130.453 94.4881C131.047 93.6325 131.642 92.7767 132.231 91.9173C137.059 84.8759 141.014 77.4185 143.3 69.1047C144.909 63.2562 145.579 57.4383 144.384 51.4369C144.125 50.1267 143.897 48.8115 143.67 47.4964L143.67 47.4955L143.67 47.4951C143.389 45.8756 143.109 44.2561 142.769 42.6459C141.648 37.348 139.301 32.613 136.394 28.1165C133.926 24.293 131.25 20.6285 127.795 17.6187C127.192 17.0976 126.546 16.6262 125.9 16.1546C125.325 15.7348 124.75 15.3148 124.205 14.8596C122.139 13.1344 119.987 11.5377 117.702 10.1307C104.781 2.17775 90.903 -1.60906 75.7028 0.642227C66.9446 1.93917 59.0032 5.26104 52.1527 10.9504C49.4161 13.2323 46.899 15.7711 45.1498 18.9523C45.012 19.2034 44.8484 19.4374 44.6843 19.6722L44.6843 19.6722L44.6842 19.6723L44.6842 19.6723L44.6842 19.6723L44.6842 19.6724L44.6841 19.6725L44.6836 19.6732L44.6835 19.6734C44.652 19.7184 44.6205 19.7635 44.5891 19.8088C38.7442 28.1104 33.131 36.565 28.2491 45.4845C27.1825 47.4299 27.4141 49.2591 29.0536 50.7762C29.4498 51.1433 29.8581 51.4859 30.2786 51.8224C30.5163 52.0181 30.7236 52.22 30.7358 52.5381C30.7442 52.717 30.7546 52.8961 30.7649 53.0752C30.8363 54.311 30.9077 55.5478 30.3701 56.7287C30.2099 57.0827 30.0545 57.4384 29.8991 57.794L29.8991 57.7941L29.899 57.7942L29.899 57.7944L29.8989 57.7945L29.8988 57.7946L29.8988 57.7947C29.4689 58.7786 29.0393 59.7617 28.5112 60.7052C27.8265 61.928 27.074 63.1103 26.3218 64.2922L26.3217 64.2924C25.5273 65.5406 24.7331 66.7884 24.0193 68.083C22.8674 70.1814 22.4408 72.4143 23.7817 74.6228C24.6349 76.0237 25.7807 77.1249 27.213 77.9569C28.2247 78.5442 29.2608 78.7889 30.4188 78.7522C31.1807 78.7216 31.6561 78.4096 32.0705 77.7672C32.3698 77.3017 32.6687 76.8359 32.9676 76.3701L32.9677 76.3699L32.9678 76.3698L32.9679 76.3696L32.968 76.3694L32.9681 76.3693L32.9682 76.3691C34.8057 73.5056 36.643 70.6425 38.5614 67.8383C43.2858 60.9373 47.8394 53.9228 52.3935 46.9076C55.3888 42.2934 58.3844 37.679 61.4289 33.0963C63.3182 30.2455 65.7683 28.0309 69.1082 26.8379C73.338 25.3208 77.7079 24.7457 82.1388 24.4459C86.204 24.1706 90.2021 24.8008 94.1881 25.5471C103.013 27.1989 110.437 31.3711 116.592 37.8925C119.231 40.6883 120.956 43.9857 122.102 47.6195C123.205 51.0944 123.638 54.6548 123.717 58.3009C123.815 62.779 122.76 66.9084 120.469 70.7381C120.196 71.1908 119.918 71.64 119.639 72.0891L119.639 72.0893L119.639 72.0895L119.638 72.0897L119.638 72.0899L119.638 72.0901L119.638 72.0904C118.938 73.2189 118.238 74.3469 117.641 75.5282C115.275 80.2254 112.629 84.7624 109.982 89.2999L109.982 89.3001L109.982 89.3003L109.982 89.3004L109.982 89.3006L109.982 89.3007L109.981 89.3009C108.523 91.8014 107.064 94.3021 105.652 96.8298C105.415 97.2519 105.159 97.466 104.653 97.5027C103.877 97.557 103.101 97.6374 102.327 97.7178L102.326 97.7178L102.326 97.7178L102.326 97.7178L102.326 97.7178L102.326 97.7179L102.325 97.7179L102.325 97.7179C100.916 97.8641 99.5085 98.0101 98.1009 97.9983C91.1803 97.9486 84.2637 98.0721 77.3447 98.1955L77.3439 98.1956L77.3322 98.1958C75.7246 98.2245 74.117 98.2531 72.5091 98.2797C64.3075 98.4138 56.1038 98.4792 47.8992 98.5446H47.8989H47.8986H47.8984H47.8981H47.8978L47.8948 98.5446C42.2546 98.5895 36.614 98.6345 30.9734 98.7018C24.8299 98.7691 18.6925 98.8853 12.5551 99.1361C7.44165 99.3503 4.06516 102.397 1.52975 106.557C0.969035 107.474 0.566782 108.484 0.450982 109.573C0.41837 109.876 0.384471 110.178 0.350568 110.481L0.350532 110.482C0.0803118 112.895 -0.190149 115.311 0.188908 117.746C0.25595 118.174 0.262045 118.621 0.262045 119.061ZM53.7795 102.578C54.5434 102.579 55.3075 102.58 56.0716 102.58L56.0594 102.574C63.2789 102.384 70.5013 102.404 77.7226 102.425H77.7229H77.7232H77.7236H77.7239H77.7243H77.7246C80.9334 102.434 84.1419 102.443 87.3498 102.434C87.6632 102.432 87.9772 102.435 88.2912 102.439H88.2915C88.9545 102.447 89.6177 102.455 90.2753 102.409C95.2486 102.079 100.191 102.366 105.146 102.874C106.829 103.042 108.529 103.037 110.23 103.032H110.23C111.067 103.03 111.904 103.027 112.74 103.045C114.167 103.076 115.532 103.412 116.873 103.89C118.183 104.348 119.164 105.217 119.762 106.441C120.536 108.025 120.968 109.689 120.975 111.506C120.999 116.932 121.115 122.353 121.237 127.779C121.307 130.888 121.41 133.995 121.514 137.102L121.514 137.104C121.735 143.718 121.956 150.33 121.852 156.948C121.828 158.541 121.796 160.133 121.764 161.725C121.732 163.31 121.7 164.895 121.675 166.479C121.657 167.8 121.645 169.122 121.688 170.437C121.925 177.271 120.792 183.865 118.317 190.234C117.683 191.849 116.434 192.962 115.093 193.935C109.888 197.697 104.251 200.64 98.168 202.726C91.7502 204.928 85.241 206.739 78.4941 207.59C67.9015 208.923 57.3271 209.143 46.7527 207.271C40.7007 206.201 34.74 204.806 28.9317 202.781C24.123 201.105 19.5763 198.829 15.4928 195.801C11.5007 192.834 8.27663 189.059 5.94234 184.655C4.74777 182.403 4.52227 179.797 4.59541 177.234C4.93671 165.36 5.19879 153.485 5.25364 141.611C5.26444 139.243 5.26833 136.875 5.27222 134.507C5.28149 128.861 5.29076 123.215 5.39382 117.569C5.46086 114.149 5.96063 110.747 7.34413 107.566C8.50213 104.905 10.3671 103.027 13.384 102.654C13.891 102.589 14.406 102.623 14.9219 102.657H14.9221L14.9225 102.657C15.1878 102.675 15.4534 102.692 15.7183 102.697C24.1937 102.831 32.6656 102.744 41.1367 102.656H41.1377H41.1387H41.1397H41.1406H41.1416H41.1426C43.8294 102.629 46.5161 102.601 49.2028 102.58C50.7263 102.572 52.2524 102.575 53.7795 102.578ZM121.287 99.654C121.113 99.9643 120.928 100.294 120.505 100.555L120.499 100.562C119 99.2401 117.226 98.6467 115.343 98.2185C114.182 97.9548 113.001 97.8532 111.83 97.7523C111.18 97.6964 110.533 97.6407 109.894 97.5578C109.812 97.1013 110.022 96.853 110.218 96.6201C110.269 96.5595 110.32 96.5001 110.364 96.4383C111.163 95.3298 111.967 94.2232 112.77 93.1167C113.976 91.4568 115.181 89.797 116.373 88.1305C119.786 83.3588 123.053 78.5136 125.186 72.9832C128.325 64.859 128.91 56.6369 126.972 48.0967C125.485 41.5508 122.084 36.253 117.653 31.4506C114.154 27.6577 110.187 24.4459 105.695 21.8949C103.471 20.6331 101.109 19.6793 98.7455 18.725C98.1297 18.4764 97.5138 18.2277 96.9003 17.9735C96.6087 17.8527 96.3144 17.7381 96.0206 17.6236L96.0202 17.6235C95.5403 17.4365 95.0614 17.2499 94.5965 17.0375C93.1154 16.3584 91.5674 15.9791 89.9462 15.8629C89.0236 15.7968 88.111 15.6809 87.1948 15.5647L86.8927 15.5264C79.3962 14.5904 72.7468 16.805 66.646 21.0323C66.1218 21.3994 65.6525 21.8276 65.2625 22.3354C63.1476 25.0761 61.0998 27.8535 59.1616 30.7288C56.3722 34.8665 53.6949 39.0762 51.0177 43.286L51.0177 43.2861L51.0176 43.2863L51.0175 43.2864L51.0174 43.2865L51.0173 43.2867L51.0172 43.2868L51.0171 43.287C48.8219 46.7388 46.6267 50.1906 44.3697 53.6026C41.2998 58.2461 38.3478 62.9695 35.3949 67.6946L35.3946 67.695C34.1032 69.7614 32.8116 71.8282 31.5098 73.8887C31.412 74.0416 31.3202 74.1987 31.2283 74.356C31.0738 74.6204 30.9192 74.8851 30.7358 75.1305C30.6681 75.2199 30.6112 75.3308 30.5538 75.4428C30.399 75.7444 30.2404 76.0534 29.8581 75.9687C29.4672 75.8749 29.2773 75.4 29.1175 75L29.0963 74.947C28.7184 74.0049 28.6696 73.1668 29.3157 72.2124C30.5632 70.3682 31.7654 68.4937 32.9674 66.6195L32.9677 66.6191L32.9679 66.6187L32.9682 66.6184L32.9684 66.618L32.9686 66.6176L32.9689 66.6173C33.9276 65.1225 34.8861 63.6279 35.8675 62.1489C35.948 62.0275 36.0286 61.9066 36.109 61.786C36.9971 60.4536 37.8649 59.1518 38.3176 57.5362C39.3964 53.6882 37.4887 51.2718 34.3926 50.1951C34.3244 50.1723 34.2571 50.1418 34.1897 50.1113C34.0763 50.06 33.9626 50.0085 33.8441 49.9932C32.8628 49.8647 32.2594 49.4671 32.2472 48.3353C32.2412 47.7052 31.8328 47.1485 31.4184 46.653C30.9247 46.0595 30.8759 45.509 31.4001 44.8299C37.1413 37.4031 42.0537 29.4196 46.9295 21.4116C48.2399 19.2643 50.0439 17.5085 51.8662 15.8384C59.637 8.72362 68.901 4.97351 79.323 4.12928C95.3766 2.82622 109.785 7.11468 122.401 17.2455C123.047 17.7594 123.687 18.31 124.223 18.934C125.533 20.4572 126.899 21.9316 128.386 23.2591C131.445 25.9876 133.603 29.3401 135.181 33.0473C138.125 39.9603 140.252 47.1057 140.514 54.6854C140.74 61.3903 139.509 67.8077 136.565 73.8642C134.68 77.747 132.434 81.4233 130.189 85.097L130.188 85.0977L130.188 85.0984L130.187 85.099C129.812 85.7137 129.436 86.3282 129.062 86.9437C126.934 90.4463 124.788 93.9403 122.643 97.4329L122.641 97.4359L121.413 99.4359C121.37 99.5067 121.329 99.5798 121.287 99.654ZM34.0147 52.3729L34.3012 52.2934V52.2873C34.4235 52.3945 34.5464 52.5013 34.6693 52.6081L34.6695 52.6083L34.6696 52.6084L34.6705 52.6092L34.6707 52.6093L34.6708 52.6095L34.671 52.6096C34.9822 52.8801 35.2939 53.151 35.5994 53.4313C37.1474 54.8567 37.3851 56.3739 36.1418 58.1174C34.9568 59.7778 33.8653 61.4954 32.774 63.2126C32.1927 64.1275 31.6114 65.0421 31.0161 65.948C30.2908 67.0599 29.5741 68.1761 28.857 69.2928L28.8562 69.2941L28.8562 69.2942L28.8562 69.2942L28.8561 69.2943L28.8561 69.2944L28.856 69.2944C28.3623 70.0634 27.8684 70.8325 27.3715 71.6007C26.9083 72.3225 26.6157 72.396 26.0123 71.8698C25.7657 71.655 25.5653 71.3832 25.365 71.1114C25.3029 71.0272 25.2408 70.9429 25.1773 70.8604C24.897 70.4934 24.9945 70.1936 25.2505 69.8143C27.3192 66.737 29.3646 63.6457 31.4112 60.5526L32.2899 59.2247C32.8567 58.3743 33.3382 57.4689 33.7466 56.5268C34.3256 55.1871 34.5206 53.8167 34.0147 52.3729ZM16.0474 152.769C9.61137 156.048 6.7956 161.536 6.52134 168.565L6.51524 168.559C6.52699 168.811 6.53307 169.063 6.53915 169.315C6.55201 169.847 6.56485 170.379 6.63104 170.902C8.05721 182.379 18.8205 190.411 29.4315 188.668C33.2407 188.038 36.605 186.526 39.2623 183.645C39.4712 183.419 39.6807 183.193 39.8903 182.967C41.1421 181.617 42.3957 180.265 43.5286 178.818C47.6243 173.582 52.6098 169.287 57.8025 165.219C60.0743 163.439 62.4258 161.765 64.7778 160.091C67.1142 158.428 69.451 156.764 71.7107 154.996C74.5021 152.812 76.7449 150.224 78.1285 146.964C80.3287 141.788 79.9508 136.821 76.4463 132.336C74.2583 129.535 71.5218 127.387 68.1575 126.035C63.1476 124.029 58.3754 124.255 53.7678 127.13C52.1892 128.109 50.7082 129.216 49.2638 130.385C45.6969 133.263 42.2818 136.324 38.8676 139.383L38.8594 139.39L38.8539 139.395L38.8511 139.398L38.8482 139.4L38.848 139.4C38.1617 140.015 37.4753 140.63 36.7878 141.244C32.0035 145.514 26.6218 148.781 20.7465 151.277C20.6678 151.31 20.5897 151.345 20.5116 151.38L20.5115 151.38C20.1481 151.542 19.7854 151.704 19.3691 151.729C18.1806 151.797 17.0896 152.237 16.0474 152.769ZM13.0183 177.589C10.5987 174.334 9.50166 170.663 9.51385 166.968L9.51995 166.962C9.41634 162.57 11.6592 159.75 14.4628 157.254C16.1998 155.706 18.2781 154.684 20.4295 153.913C23.3489 152.867 25.9697 151.295 28.5599 149.649C34.4962 145.869 39.9388 141.433 45.29 136.882C49.2028 133.554 53.396 130.636 58.028 128.384C61.0754 126.904 64.1471 126.947 67.2006 128.293C69.2119 129.18 71.1683 130.208 72.7712 131.743C75.8978 134.728 77.3605 138.448 77.4215 142.755C77.4276 143.256 77.2996 143.715 77.1045 144.168C75.1603 148.634 72.2775 152.17 67.9502 154.641C61.0083 158.599 54.1761 162.753 47.9595 167.837C44.4855 170.682 41.6088 174.047 39.3415 177.907C37.5801 180.91 34.9655 182.905 31.9059 184.269C29.3218 185.419 26.5304 185.597 23.739 184.973C19.1801 183.957 15.7549 181.271 13.0183 177.589ZM59.9297 196.755C59.9297 196.167 59.927 195.578 59.9244 194.99C59.9181 193.578 59.9117 192.166 59.9419 190.754C59.9662 189.567 59.7529 189.108 58.5888 188.692C57.1322 188.166 55.8645 187.334 54.8954 186.153C51.4031 181.914 50.0562 174.738 54.1457 169.801C55.6999 167.929 57.3089 166.247 59.6554 165.402C65.7928 163.182 73.9293 166.192 75.9954 173.588C77.7385 179.834 74.6485 186.539 68.7366 189.169C67.6017 189.676 67.6022 189.683 67.682 190.84L67.6883 190.931C67.812 192.742 67.9215 194.552 68.0308 196.361L68.0309 196.362L68.0309 196.363L68.0309 196.363L68.0309 196.363L68.031 196.363L68.031 196.363C68.11 197.671 68.189 198.979 68.2734 200.285C68.2979 200.655 68.3385 201.026 68.379 201.396L68.379 201.396C68.4289 201.852 68.4787 202.307 68.4989 202.763C68.5598 204.029 68.4196 204.158 67.1824 204.359C65.8122 204.581 64.4296 204.614 63.0479 204.648C62.4814 204.662 61.9151 204.675 61.3497 204.702C60.0455 204.763 59.7102 204.28 59.7224 202.903C59.7346 201.537 59.7306 200.171 59.7265 198.805C59.7245 198.121 59.7224 197.438 59.7224 196.755H59.9175H59.9297ZM63.6962 168.296L63.7435 168.367C64.3913 169.337 64.4085 169.363 65.4027 169.721C67.1154 170.333 68.3343 171.453 68.9255 173.184C70.7722 178.592 68.5233 183.982 65.2443 186.257C65.2258 186.27 65.207 186.283 65.1879 186.295L65.1532 186.317C64.9809 186.428 64.8055 186.54 64.8055 186.79C68.7488 186.79 72.9358 182.856 72.8993 177.87C72.8566 172.505 68.1637 167.947 63.6962 168.296ZM112.448 121.777C116.209 120.774 119.238 116.651 119.219 112.515C119.195 107.046 114.855 103.357 109.516 104.403C105.646 105.162 102.739 108.557 102.154 112.369C101.167 118.761 107.213 123.166 112.448 121.777ZM105.61 111.335C106.865 108.888 108.931 107.615 111.631 107.352H111.637C112.454 107.346 113.204 107.481 113.868 107.964C115.136 108.881 115.166 110.497 113.911 111.42C113.356 111.83 112.716 112.063 112.034 112.191C110.431 112.491 109.084 113.152 108.407 114.779C108.261 115.14 107.962 115.415 107.627 115.629C106.5 116.345 105.299 115.819 105.147 114.485C105.019 113.402 105.11 112.301 105.61 111.335ZM117.756 182.734C117.433 185.407 116.385 188.264 113.6 190.185C110.577 192.265 106.902 192.173 103.927 190.001C101.148 187.97 99.9354 184.422 100.886 181.027C101.807 177.742 103.903 175.441 107.072 174.316C110.266 173.178 114.453 174.004 116.55 177.717C117.299 179.039 117.744 180.678 117.756 182.734ZM103.647 183.431C103.604 184.587 103.909 185.236 104.634 185.505C105.451 185.811 106.311 185.419 106.95 184.446C106.96 184.43 106.97 184.414 106.98 184.399C106.996 184.375 107.012 184.351 107.024 184.324C107.664 182.813 108.919 182.183 110.437 181.914C111.107 181.791 111.753 181.565 112.326 181.174C113.734 180.219 113.71 178.457 112.271 177.552C111.546 177.093 110.735 176.965 109.888 177.02C106.567 177.228 103.769 180.097 103.641 183.431H103.647ZM23.8914 134.9C23.8792 137.224 25.7381 139.2 27.9688 139.237C30.4372 139.274 32.552 137.273 32.5703 134.881C32.5886 132.398 30.7236 130.654 28.0115 130.617C25.8052 130.587 23.9036 132.563 23.8914 134.9ZM102.014 136.444C102.012 138.921 100.056 140.779 97.717 140.546C95.4437 140.314 93.8712 138.148 94.2978 135.799C94.3649 135.42 94.4929 135.04 94.6757 134.704C95.3888 133.383 98.0339 132.245 99.4906 132.593C100.989 132.948 102.013 134.513 102.014 136.444ZM54.5905 148.047C57.0284 150.53 60.0027 151.791 63.8424 151.803V151.809C64.6712 151.833 65.8292 151.693 66.969 151.405C71.4669 150.261 74.6849 146.566 75.2761 141.868C75.8002 137.696 73.4721 133.352 69.5836 131.303C64.0313 128.372 55.9984 130.373 53.0912 135.885C50.952 139.941 51.3664 144.768 54.5905 148.047ZM63.0561 137.989C64.525 137.965 65.7013 139.158 65.7073 140.693V140.687C65.7195 141.88 64.2751 143.44 63.1354 143.464C61.6543 143.495 60.4293 142.192 60.4598 140.62C60.4842 139.2 61.6543 138.014 63.0561 137.989Z" fill="#0D070B"/>
</g>
<defs>
<clipPath id="clip0_401_21119">
<rect width="145" height="223" fill="white"/>
</clipPath>
</defs>
</svg>
