<svg width="683" height="194" viewBox="0 0 683 194" fill="none" xmlns="http://www.w3.org/2000/svg">
<path fill-rule="evenodd" clip-rule="evenodd" d="M195.901 147.205L195.9 147.205H195.9C194.302 147.067 192.761 146.934 191.245 147.013C184.89 147.334 180.493 145.786 178.647 142.335C176.904 139.084 179.076 135.611 184.143 133.57C187.02 132.409 190.163 131.9 193.529 132.26C195.173 132.434 196.804 132.657 198.436 132.88C199.55 133.032 200.664 133.185 201.782 133.322C202.834 133.449 203.895 133.545 204.931 133.638L204.932 133.638L204.932 133.638C205.376 133.678 205.815 133.717 206.247 133.758C207.096 132.936 207.915 132.129 208.721 131.335C210.469 129.613 212.155 127.952 213.942 126.332C221.722 119.276 231.237 113.42 243.028 109.173C249.898 106.696 257.214 105.054 265.054 104.407C270.739 103.942 276.296 104.346 281.671 105.502C292.337 107.796 297.859 114.31 295.429 121.56C294.149 125.381 291.169 128.654 287.305 131.613C282.942 134.958 277.558 137.519 271.873 139.841C259.498 144.895 245.707 147.245 231.426 148.65C229.097 148.878 226.757 149.049 224.415 149.22L224.413 149.22C223.353 149.297 222.292 149.375 221.232 149.457C217.248 154.755 219.961 160.406 227.828 163.038C231.623 164.31 235.711 164.863 239.988 164.974C260.898 165.521 278.649 160.583 294.381 152.073C295.944 151.227 296.614 150.243 296.854 148.982C299.25 136.595 308.224 126.338 322.007 117.822C333.445 110.749 347.254 106.364 363.004 104.998C373.498 104.086 383.511 105.413 392.364 109.461C392.903 109.708 393.474 109.925 394.044 110.143C394.547 110.334 395.051 110.526 395.533 110.738C400.265 112.806 402.412 116.008 401.038 119.63C400.01 122.335 398.883 125.024 397.755 127.713L397.755 127.714C396.405 130.934 395.055 134.154 393.876 137.403C391.325 144.447 389.453 151.575 389.23 158.836C389.19 160.082 389.199 161.328 389.21 162.802V162.803C389.215 163.559 389.221 164.376 389.221 165.283C389.988 164.923 390.642 164.631 391.215 164.375C392.232 163.921 392.991 163.582 393.661 163.182C399.689 159.566 403.648 155.009 407.599 150.436C409.479 148.263 410.098 146.001 410.218 143.54C410.999 128.472 413.301 113.475 417.062 98.606C419.916 87.3019 423.062 76.029 426.208 64.7569L426.209 64.7537C427.445 60.3229 428.682 55.8921 429.9 51.4596C430.246 50.2086 430.658 48.9626 431.109 47.596L431.11 47.5934C431.331 46.9252 431.561 46.2281 431.798 45.4875C420.282 45.2497 409.162 45.3493 397.525 45.5484C397.823 45.9438 398.103 46.3004 398.364 46.6327L398.366 46.6347C398.911 47.3284 399.373 47.916 399.732 48.5289C401.381 51.3159 400.256 54.4733 396.907 56.2262C393.378 58.0732 389.573 58.1174 385.537 56.8179C383.914 56.2981 382.068 55.8889 380.273 55.7728C375.403 55.4554 370.527 55.1753 365.652 54.8952L365.652 54.8952C360.589 54.6044 355.527 54.3136 350.474 53.9812C347.082 53.76 343.596 53.489 340.393 52.7868C330.414 50.6136 327.889 43.4139 335.206 38.5146C338.1 36.5736 341.75 35.4843 345.665 34.6935C354.82 32.8411 364.283 32.0945 373.79 31.8899C387.849 31.5923 401.914 31.4351 415.979 31.2779L415.98 31.2779C421.252 31.2189 426.525 31.16 431.798 31.0937C432.937 31.0789 434.077 31.0838 435.216 31.0888C435.786 31.0912 436.355 31.0937 436.925 31.0937C437.066 30.9565 437.209 30.8319 437.344 30.714C437.629 30.4661 437.879 30.2479 438.007 30.0043C439.976 26.2498 441.935 22.4929 443.895 18.7358L443.901 18.7242C446.205 14.3067 448.509 9.88898 450.828 5.47448C451.223 4.72244 451.773 3.98146 452.425 3.3013C455.191 0.442441 460.034 -0.680092 464.508 0.442441C469.274 1.63686 471.687 4.61185 470.313 8.03474C468.461 12.6421 466.514 17.236 464.566 21.8296L464.564 21.8327C463.722 23.8208 462.879 25.8089 462.043 27.798C461.715 28.5759 461.39 29.3509 461.019 30.2377L460.601 31.2374C461.069 31.2955 461.508 31.3587 461.929 31.4192L461.929 31.4193C462.749 31.5373 463.498 31.6451 464.259 31.6853C470.646 32.02 477.037 32.326 483.428 32.632L483.43 32.6322C497.103 33.2869 510.774 33.9415 524.397 34.876C551.233 36.7119 577.846 39.5597 604.012 43.9447C605.068 44.1217 606.133 44.3042 607.147 44.5475C612.462 45.8414 615.176 48.8717 613.974 52.1342C612.849 55.1811 608.375 57.2216 602.939 56.8953C598.703 56.6405 594.493 56.2206 590.281 55.8006C589.862 55.7588 589.443 55.717 589.024 55.6754C588.718 55.6451 588.413 55.6149 588.108 55.5848C580.942 54.8812 573.784 54.1361 566.625 53.391C551 51.7645 535.376 50.1382 519.674 48.9436C505.286 47.8493 490.805 47.239 476.322 46.6286C470.095 46.3662 463.867 46.1037 457.647 45.8027C457.058 45.7736 456.458 45.8165 455.736 45.8682C455.363 45.8949 454.957 45.9239 454.504 45.9465C454.069 47.2381 453.625 48.5222 453.182 49.8022C452.2 52.6432 451.225 55.4636 450.373 58.2999C444.585 77.6207 439.244 96.9969 435.731 116.544C433.189 130.706 431.017 144.934 432.571 159.217C432.982 163.001 434.256 166.756 435.525 170.493L435.525 170.493L435.526 170.497C435.822 171.368 436.117 172.239 436.401 173.108C436.772 174.255 437.598 175.342 438.421 176.424C438.705 176.796 438.988 177.169 439.252 177.543C440.248 178.953 441.863 179.744 444.43 179.522C445.195 179.456 445.993 179.484 446.766 179.55C451.163 179.937 454.323 181.391 455.723 184.156C457.054 186.783 455.594 189.62 451.953 191.389C447.625 193.49 442.713 194.248 437.371 193.568C430.355 192.683 425.306 189.974 421.459 186.23C417.886 182.757 415.731 178.892 413.996 174.911C413.704 174.243 413.433 173.569 413.116 172.783L413.115 172.781L413.112 172.773C412.973 172.43 412.826 172.065 412.665 171.67C412.309 171.844 411.98 172.007 411.667 172.162C410.945 172.519 410.315 172.831 409.668 173.124C408.276 173.761 406.91 174.431 405.545 175.101C402.437 176.625 399.329 178.15 395.911 179.279C383.957 183.222 372.811 180.02 369.178 171.748C368.133 169.371 367.711 166.867 367.293 164.384C367.241 164.071 367.188 163.759 367.134 163.447C366.939 162.307 366.988 161.149 367.038 159.99C367.06 159.468 367.083 158.947 367.083 158.427L366.172 158.238C365.914 158.43 365.651 158.62 365.388 158.809C364.785 159.244 364.18 159.679 363.631 160.141C357.405 165.366 350.243 169.939 341.518 173.434C336.837 175.309 331.934 176.874 326.309 177.006C315.85 177.255 307.339 175.038 302.204 168.778C301.96 168.483 301.681 168.197 301.321 167.83C301.149 167.654 300.958 167.459 300.744 167.235C300.442 167.353 300.145 167.469 299.852 167.583C298.812 167.989 297.822 168.375 296.837 168.767C279.499 175.707 260.907 179.827 240.211 179.312C232.963 179.13 225.956 178.289 219.369 176.282C204.624 171.781 197.239 164.282 197.436 153.748C197.452 152.82 197.557 151.886 197.661 150.957L197.685 150.74C197.758 150.104 197.851 149.469 197.962 148.721C198.023 148.312 198.088 147.869 198.158 147.373L198.149 147.378C197.386 147.333 196.637 147.268 195.901 147.205ZM374.52 119.691L374.03 118.878C372.98 118.923 371.922 118.944 370.864 118.965C368.531 119.012 366.199 119.059 363.948 119.359C350.99 121.073 340.204 125.232 331.883 131.884C322.874 139.078 318.082 147.273 318.271 156.574C318.314 158.808 318.735 161.158 322.161 162.353C325.032 163.352 327.46 162.308 329.758 161.32L329.759 161.32C330.08 161.182 330.398 161.045 330.715 160.915C339.027 157.492 345.193 152.714 350.371 147.417C355.593 142.075 360.573 136.634 365.4 131.137C367.671 128.553 369.724 125.892 371.778 123.23C372.691 122.046 373.604 120.863 374.537 119.685L374.52 119.691ZM232.86 134.455C250.172 133.908 270.207 126.1 272.757 119.055C261.74 117.059 240.288 125.243 232.86 134.455ZM194.353 107.57C186.865 110.81 180.837 114.786 175.684 119.309C160.562 132.581 148.762 147.046 138.706 162.12C136.346 165.662 134.326 169.298 132.306 172.933L132.306 172.933C131.387 174.587 130.468 176.241 129.518 177.886C129.38 178.122 129.253 178.362 129.127 178.602L129.127 178.602C128.851 179.124 128.575 179.645 128.187 180.131C126.066 182.79 121.815 184.333 117.478 184.09C112.832 183.83 109.105 181.795 107.8 178.781C107.584 178.28 107.417 177.771 107.202 177.116C107.092 176.781 106.969 176.408 106.821 175.978C106.349 176.224 105.903 176.456 105.476 176.678C104.15 177.368 103.016 177.958 101.892 178.56C91.6641 184.035 80.3285 188.116 67.1811 189.846C56.0688 191.312 45.1541 190.831 34.5485 188.149C23.6338 185.384 15.5444 180.562 10.0226 173.959C1.84728 164.188 -0.514285 153.654 0.687966 142.739C2.55146 125.801 11.4395 110.224 23.6166 95.3545C37.1591 78.8151 54.5832 64.283 77.8553 52.8807C85.5755 49.0984 93.7594 45.8027 102.897 43.5853C108.487 42.2305 114.215 41.3568 120.243 41.4784C131.811 41.7107 140.536 45.9686 143.43 53.218C146.624 61.2361 144.014 68.7731 137.487 75.7461C134.413 79.0252 128.771 79.921 124.142 78.2566C119.634 76.6364 118.268 73.4181 120.149 69.8791L120.343 69.514C121.684 66.9967 123.062 64.4108 123.455 61.7946C124.305 56.1654 121.385 54.6668 113.159 56.5193C108.204 57.6308 103.369 59.1625 98.8862 60.9375C85.9963 66.0359 75.176 72.6937 65.6868 80.2197C45.6178 96.1397 31.5171 113.984 24.8275 134.107C21.9249 142.844 21.401 151.63 25.2912 160.345C25.4629 160.732 25.6499 161.114 25.837 161.497C25.9305 161.688 26.024 161.879 26.1156 162.071C32.6421 175.856 50.341 178.007 65.5151 175.381C76.2151 173.528 84.9057 169.508 92.789 164.675C100.054 160.218 106.04 155.07 111.707 149.772C112.557 148.976 113.081 147.97 113.408 147.008C117.547 134.726 120.046 122.29 121.901 109.793C122.072 108.604 122.382 107.387 123.008 106.27C124.623 103.4 128.882 101.631 133.554 101.725C138.045 101.819 142.193 103.594 143.335 106.469C144.082 108.355 144.117 110.44 143.833 112.403C143.477 114.912 142.903 117.409 142.33 119.906L142.329 119.906C142.059 121.084 141.788 122.261 141.54 123.44C141.377 124.225 141.317 125.016 141.824 126.039C142.069 125.831 142.318 125.624 142.568 125.417L142.568 125.417C143.089 124.985 143.612 124.552 144.099 124.103C146.061 122.296 147.987 120.47 149.913 118.644C154.208 114.572 158.502 110.501 163.198 106.63C169.922 101.078 178.2 96.4273 186.891 92.1472C190.747 90.245 195.032 88.8018 199.867 88.1437C211.116 86.6175 220.657 91.3952 220.923 98.7995C221.112 103.97 218.141 108.665 214.594 113.138C212.645 115.599 209.966 117.905 207.046 119.945C204.152 121.963 200.081 122.146 196.174 121.178C192.378 120.238 190.249 118.292 189.699 115.704C189.295 113.818 190.3 112.17 191.906 110.605C192.576 109.949 193.111 109.237 193.646 108.524C193.886 108.204 194.127 107.885 194.379 107.57H194.353ZM565.918 119.353C561.513 122.621 556.369 125.342 549.516 127.847L549.524 127.836C549.584 127.273 549.648 126.778 549.707 126.327C549.825 125.414 549.92 124.685 549.902 123.96C549.887 123.294 549.891 122.626 549.895 121.958C549.908 120.011 549.92 118.061 549.447 116.163C547.712 109.173 541.117 103.035 526.819 102.875C525.883 102.864 524.93 102.847 524.028 102.714C514.943 101.382 506.312 102.477 498.102 104.982C476.033 111.717 461.468 122.721 454.246 137.695C451.206 144.005 450.51 150.48 452.357 157.038C457.269 174.534 483.409 183.15 508.176 175.43C516.617 172.804 522.465 168.391 527.858 163.68C534.101 158.222 538.541 152.145 542.131 145.802C543.032 144.209 544.286 143.386 547.068 143.225C552.427 142.921 557.305 141.561 561.899 139.791C562.918 139.399 563.94 139.011 565.134 138.559C565.792 138.309 566.502 138.04 567.292 137.74C567.151 138.171 567.025 138.56 566.909 138.919C566.643 139.741 566.429 140.405 566.201 141.063C565.509 143.074 564.8 145.083 564.092 147.092C562.525 151.535 560.959 155.978 559.563 160.445C558.464 163.978 557.674 167.573 557.253 171.167C556.892 174.247 559.288 176.591 563.668 177.919C567.884 179.196 572.728 178.61 576.12 176.315C577.7 175.248 579.048 173.948 580.027 172.61C591.492 156.917 606.211 142.501 621.814 128.444C630.204 120.891 640.097 114.222 651.793 108.725C652.375 108.453 653.01 108.228 653.865 107.925C654.348 107.754 654.901 107.558 655.554 107.315C655.17 108.02 654.81 108.653 654.476 109.241C653.809 110.412 653.247 111.401 652.806 112.414C652.446 113.241 652.066 114.067 651.685 114.894C650.514 117.439 649.341 119.988 648.744 122.588C647.396 128.433 653.545 134.378 662.167 136.236C667.027 137.281 671.879 136.269 674.516 133.653C677.032 131.154 676.826 127.858 673.262 125.641C670.883 124.159 670.84 122.793 671.819 121.068C674.601 116.174 677.358 111.269 680.106 106.364C680.337 105.953 680.583 105.545 680.828 105.136C681.484 104.043 682.14 102.95 682.528 101.819C685.156 94.1379 676.439 88.1934 664.4 89.3436C658.594 89.8966 653.279 91.2901 648.264 93.1646C637.4 97.229 627.671 102.272 619.281 108.261C614.659 111.555 610.362 115.04 606.066 118.525C604.16 120.071 602.254 121.617 600.319 123.147C599.791 123.566 599.245 123.982 598.7 124.397C598.475 124.568 598.25 124.739 598.027 124.911C599.776 120.053 602.126 115.436 604.471 110.832C604.739 110.305 605.007 109.778 605.275 109.251C606.099 107.636 606.915 105.988 607.275 104.313C608.014 100.901 605.06 97.7267 600.38 96.5488C595.399 95.2991 590.092 96.4438 586.906 99.4962C586.124 100.243 585.48 101.05 584.853 101.857C579.847 108.277 573.183 113.956 565.918 119.353ZM500.911 120.23C501.135 120.205 501.426 120.173 501.812 120.116L501.821 120.122C502.216 129.323 510.271 135.235 522.027 139.852C521.541 140.608 521.073 141.354 520.611 142.091C519.655 143.616 518.724 145.102 517.699 146.56C514.213 151.531 509.799 156.12 503.753 159.986C502.439 160.826 501.014 161.667 499.408 162.236C487.488 166.456 479.004 163.475 474.744 155.567C472.443 151.293 473.413 146.808 475.2 142.501C479.107 133.062 488.029 125.923 500.241 120.354C500.377 120.29 500.563 120.269 500.911 120.23ZM526.664 117.446C523.152 119.718 523.393 121.908 527.429 123.827C528.133 121.598 528.468 119.525 526.664 117.446Z" fill="white"/>
</svg>
