<svg width="18" height="18" viewBox="0 0 18 18" fill="none" xmlns="http://www.w3.org/2000/svg">
<path fill-rule="evenodd" clip-rule="evenodd" d="M14.207 7.207L9.207 12.207C9.013 12.401 8.756 12.5 8.5 12.5C8.269 12.5 8.037 12.42 7.849 12.259L4.349 9.259C3.93 8.899 3.881 8.269 4.241 7.85C4.601 7.429 5.232 7.381 5.651 7.741L8.448 10.138L12.793 5.793C13.184 5.402 13.816 5.402 14.207 5.793C14.598 6.184 14.598 6.816 14.207 7.207ZM9 0C4.029 0 0 4.029 0 9C0 13.971 4.029 18 9 18C13.971 18 18 13.971 18 9C18 4.029 13.971 0 9 0Z" fill="#0274D7"/>
</svg>
