<svg width="11" height="10" viewBox="0 0 11 10" fill="none" xmlns="http://www.w3.org/2000/svg">
<path fill-rule="evenodd" clip-rule="evenodd" d="M9.9482 8.31193L6.59571 4.96022L9.9482 1.60852C10.2571 1.29958 10.2571 0.798641 9.9482 0.490493C9.63926 0.181554 9.13991 0.181554 8.83097 0.490493L5.47847 3.84299L2.12677 0.490493C1.81783 0.181554 1.31768 0.181554 1.00954 0.490493C0.700597 0.798641 0.700597 1.29958 1.00954 1.60852L4.36124 4.96022L1.00954 8.31193C0.700597 8.62086 0.700597 9.12101 1.00954 9.42995C1.31768 9.73889 1.81783 9.7381 2.12677 9.42995L5.47847 6.07746L8.83097 9.42995C9.13991 9.73889 9.63926 9.7381 9.9482 9.42995C10.2571 9.12101 10.2571 8.62086 9.9482 8.31193" fill="#0D070B"/>
</svg>
