<svg width="12" height="12" viewBox="0 0 12 12" fill="none" xmlns="http://www.w3.org/2000/svg">
<path fill-rule="evenodd" clip-rule="evenodd" d="M11.6062 10.1923L7.36325 5.95025L11.6062 1.70825C11.9972 1.31725 11.9972 0.68325 11.6062 0.29325C11.2153 -0.09775 10.5833 -0.09775 10.1923 0.29325L5.94925 4.53625L1.70725 0.29325C1.31625 -0.09775 0.68325 -0.09775 0.29325 0.29325C-0.09775 0.68325 -0.09775 1.31725 0.29325 1.70825L4.53525 5.95025L0.29325 10.1923C-0.09775 10.5833 -0.09775 11.2163 0.29325 11.6073C0.68325 11.9983 1.31625 11.9973 1.70725 11.6073L5.94925 7.36425L10.1923 11.6073C10.5833 11.9983 11.2153 11.9973 11.6062 11.6073C11.9972 11.2163 11.9972 10.5833 11.6062 10.1923Z" fill="#E12D3D"/>
</svg>
