<svg width="40" height="40" viewBox="0 0 40 40" fill="none" xmlns="http://www.w3.org/2000/svg">
<circle cx="20" cy="20" r="20" fill="white"/>
<path fill-rule="evenodd" clip-rule="evenodd" d="M13.6484 12.6484H16.6484C17.2007 12.6484 17.6484 13.0962 17.6484 13.6484V16.6484C17.6484 17.2007 17.2007 17.6484 16.6484 17.6484H13.6484C13.0962 17.6484 12.6484 17.2007 12.6484 16.6484V13.6484C12.6484 13.0962 13.0962 12.6484 13.6484 12.6484ZM10.6484 13.6484C10.6484 11.9916 11.9916 10.6484 13.6484 10.6484H16.6484C18.3053 10.6484 19.6484 11.9916 19.6484 13.6484V16.6484C19.6484 18.3053 18.3053 19.6484 16.6484 19.6484H13.6484C11.9916 19.6484 10.6484 18.3053 10.6484 16.6484V13.6484ZM13.6484 22.6484H16.6484C17.2007 22.6484 17.6484 23.0962 17.6484 23.6484V26.6484C17.6484 27.2007 17.2007 27.6484 16.6484 27.6484H13.6484C13.0962 27.6484 12.6484 27.2007 12.6484 26.6484V23.6484C12.6484 23.0962 13.0962 22.6484 13.6484 22.6484ZM10.6484 23.6484C10.6484 21.9916 11.9916 20.6484 13.6484 20.6484H16.6484C18.3053 20.6484 19.6484 21.9916 19.6484 23.6484V26.6484C19.6484 28.3053 18.3053 29.6484 16.6484 29.6484H13.6484C11.9916 29.6484 10.6484 28.3053 10.6484 26.6484V23.6484ZM26.6484 12.6484H23.6484C23.0962 12.6484 22.6484 13.0962 22.6484 13.6484V16.6484C22.6484 17.2007 23.0962 17.6484 23.6484 17.6484H26.6484C27.2007 17.6484 27.6484 17.2007 27.6484 16.6484V13.6484C27.6484 13.0962 27.2007 12.6484 26.6484 12.6484ZM23.6484 10.6484C21.9916 10.6484 20.6484 11.9916 20.6484 13.6484V16.6484C20.6484 18.3053 21.9916 19.6484 23.6484 19.6484H26.6484C28.3053 19.6484 29.6484 18.3053 29.6484 16.6484V13.6484C29.6484 11.9916 28.3053 10.6484 26.6484 10.6484H23.6484ZM23.6484 22.6484H26.6484C27.2007 22.6484 27.6484 23.0962 27.6484 23.6484V26.6484C27.6484 27.2007 27.2007 27.6484 26.6484 27.6484H23.6484C23.0962 27.6484 22.6484 27.2007 22.6484 26.6484V23.6484C22.6484 23.0962 23.0962 22.6484 23.6484 22.6484ZM20.6484 23.6484C20.6484 21.9916 21.9916 20.6484 23.6484 20.6484H26.6484C28.3053 20.6484 29.6484 21.9916 29.6484 23.6484V26.6484C29.6484 28.3053 28.3053 29.6484 26.6484 29.6484H23.6484C21.9916 29.6484 20.6484 28.3053 20.6484 26.6484V23.6484Z" fill="black"/>
</svg>
