<svg width="54" height="54" viewBox="0 0 54 54" fill="none" xmlns="http://www.w3.org/2000/svg">
<circle cx="27" cy="27" r="27" fill="#DBE8F4"/>
<path fill-rule="evenodd" clip-rule="evenodd" d="M19.1235 32.4509C19.1547 31.7835 18.8954 31.0803 18.4782 30.4996C17.4616 29.0847 16.8779 27.4322 16.8779 25.667C16.8779 20.4348 22.0062 16.1933 28.3323 16.1933C29.2071 16.1933 30.0589 16.2744 30.8775 16.428C30.8898 15.8919 30.9742 14.6411 31.2141 13.9275C30.2733 13.7561 29.3078 13.667 28.3323 13.667C21.0547 13.667 14.3325 18.6279 14.3325 25.667C14.3325 28.0026 15.1087 30.161 16.4057 31.9663C16.4651 32.049 16.5101 32.1319 16.5402 32.2053C16.5442 32.2151 16.5478 32.2244 16.551 32.2332C16.3703 32.449 16.2181 32.6028 16.1078 32.6978C15.956 32.7449 15.5495 32.8914 15.1657 33.2378C14.8946 33.4826 14.4441 34.003 14.3493 34.8179C14.2503 35.6688 14.5975 36.3167 14.8766 36.6693C15.3004 37.2046 15.8297 37.4138 15.8984 37.441L15.9043 37.4433C16.1558 37.5471 16.3745 37.5878 16.4159 37.5955L16.4202 37.5963C16.4991 37.6113 16.5663 37.6205 16.609 37.6259C16.7676 37.6458 16.9372 37.6555 17.0808 37.6607C17.394 37.672 17.821 37.6701 18.3184 37.6377C19.294 37.5742 20.6876 37.3844 22.0731 36.8534C22.4979 36.6906 22.8319 36.7102 23.0121 36.7734C24.6603 37.352 26.4585 37.667 28.3323 37.667C35.6099 37.667 42.332 32.7061 42.332 25.667C42.332 24.7314 42.2133 23.8324 41.9902 22.977C41.2078 23.3513 40.0287 23.6087 39.537 23.6906C39.7006 24.3281 39.7866 24.9892 39.7866 25.667C39.7866 30.8992 34.6583 35.1407 28.3323 35.1407C26.7458 35.1407 25.2347 34.8739 23.8609 34.3917C22.9896 34.0859 22.0184 34.1663 21.1563 34.4967L21.1461 34.5006C20.8402 34.6173 20.5299 34.7135 20.2234 34.7927C19.9507 34.8631 19.6809 34.92 19.42 34.9657C18.1104 35.1952 17.0232 35.1438 16.8913 35.1135C16.8742 35.1096 16.8732 35.106 16.8897 35.1034C17.3944 35.0255 18.0644 34.4205 18.6995 33.6126C18.7384 33.5631 18.7745 33.5125 18.8077 33.461C19.0083 33.1503 19.1069 32.8057 19.1235 32.4509ZM22.9987 23.0003C22.9987 22.2639 23.5957 21.667 24.332 21.667H32.332C33.0684 21.667 33.6654 22.2639 33.6654 23.0003C33.6654 23.7367 33.0684 24.3337 32.332 24.3337H24.332C23.5957 24.3337 22.9987 23.7367 22.9987 23.0003ZM24.332 27.0003C23.5957 27.0003 22.9987 27.5973 22.9987 28.3337C22.9987 29.07 23.5957 29.667 24.332 29.667H29.6654C30.4017 29.667 30.9987 29.07 30.9987 28.3337C30.9987 27.5973 30.4017 27.0003 29.6654 27.0003H24.332Z" fill="#0D070B"/>
<circle cx="38.3346" cy="16.9997" r="4.66667" fill="#FF5D6B"/>
</svg>
