<svg width="40" height="40" viewBox="0 0 40 40" fill="none" xmlns="http://www.w3.org/2000/svg">
<circle cx="20" cy="20" r="20" fill="white"/>
<path fill-rule="evenodd" clip-rule="evenodd" d="M20.0001 10.123C19.4547 10.123 19.0125 10.5652 19.0125 11.1107V12.1547C18.3057 12.2383 17.6566 12.415 17.0651 12.6847C16.2079 13.0569 15.5464 13.5688 15.0805 14.2202C14.6146 14.8717 14.3817 15.5883 14.3817 16.37C14.3817 17.3565 14.6333 18.1569 15.1364 18.7711C15.6582 19.3667 16.2731 19.8228 16.9813 20.1392C17.538 20.3673 18.2151 20.5955 19.0125 20.8236V25.6027C18.5375 25.4828 18.1214 25.2903 17.7639 25.0251C17.1304 24.5412 16.7763 23.9176 16.7018 23.1545H14.0742C14.1301 24.0852 14.4283 24.9134 14.9687 25.6393C15.5091 26.3466 16.2452 26.905 17.1769 27.3145C17.7439 27.5524 18.3558 27.7179 19.0125 27.811V28.8885C19.0125 29.4339 19.4547 29.8761 20.0001 29.8761C20.5456 29.8761 20.9878 29.4339 20.9878 28.8885V27.8779C21.8224 27.8178 22.574 27.6393 23.2426 27.3424C24.0998 26.9516 24.7614 26.4211 25.2273 25.751C25.6931 25.081 25.9261 24.3271 25.9261 23.4895C25.9074 22.5589 25.6465 21.8051 25.1434 21.2281C24.6589 20.651 24.0719 20.2229 23.3824 19.9438C22.7543 19.6725 21.9561 19.4012 20.9878 19.1299V14.3608C21.4886 14.4763 21.9141 14.6807 22.2643 14.9741C22.8606 15.458 23.1867 16.1002 23.2426 16.9005H25.7863C25.7118 15.4115 25.1527 14.2389 24.1092 13.3827C23.2764 12.6994 22.2359 12.2888 20.9878 12.1508V11.1107C20.9878 10.5652 20.5456 10.123 20.0001 10.123ZM19.0125 14.3224C18.5096 14.412 18.0841 14.5827 17.736 14.8345C17.1956 15.2253 16.9254 15.7372 16.9254 16.37C16.9254 16.8726 17.0838 17.2914 17.4006 17.6264C17.736 17.9429 18.146 18.2034 18.6305 18.4082C18.7477 18.4515 18.875 18.4964 19.0125 18.5428V14.3224ZM20.9878 21.3747V25.7119C21.6414 25.6323 22.1787 25.4313 22.5997 25.1089C23.1588 24.6808 23.4383 24.141 23.4383 23.4895C23.4383 22.8195 23.1401 22.3262 22.5438 22.0098C22.1601 21.7942 21.6415 21.5825 20.9878 21.3747Z" fill="#0D070B"/>
</svg>
