<svg width="40" height="40" viewBox="0 0 40 40" fill="none" xmlns="http://www.w3.org/2000/svg">
<circle cx="20" cy="20" r="20" fill="white"/>
<g clip-path="url(#clip0_1_8992)">
<path fill-rule="evenodd" clip-rule="evenodd" d="M25.8341 9.5444C26.0353 9.00083 26.8041 9.00083 27.0052 9.5444L27.8378 11.7942C27.901 11.9651 28.0357 12.0999 28.2066 12.1631L30.4565 12.9956C31 13.1968 31 13.9656 30.4565 14.1667L28.2066 14.9992C28.0357 15.0625 27.901 15.1972 27.8378 15.3681L27.0052 17.6179C26.8041 18.1615 26.0353 18.1615 25.8341 17.6179L25.0016 15.3681C24.9384 15.1972 24.8037 15.0625 24.6328 14.9992L22.3829 14.1667C21.8394 13.9656 21.8394 13.1968 22.3829 12.9956L24.6328 12.1631C24.8037 12.0999 24.9384 11.9651 25.0016 11.7942L25.8341 9.5444ZM25.8341 23.3716C26.0353 22.828 26.8041 22.828 27.0052 23.3716L27.8378 25.6214C27.901 25.7923 28.0357 25.927 28.2066 25.9903L30.4565 26.8228C31 27.0239 31 27.7927 30.4565 27.9939L28.2066 28.8264C28.0357 28.8896 27.901 29.0244 27.8378 29.1953L27.0052 31.4451C26.8041 31.9887 26.0353 31.9887 25.8341 31.4451L25.0016 29.1953C24.9384 29.0244 24.8037 28.8896 24.6328 28.8264L22.3829 27.9939C21.8394 27.7927 21.8394 27.0239 22.3829 26.8228L24.6328 25.9903C24.8037 25.927 24.9384 25.7923 25.0016 25.6214L25.8341 23.3716ZM16.0323 17.2144L16.5431 15.8337L17.054 17.2144C17.3595 18.0399 18.0104 18.6907 18.8359 18.9962L20.2165 19.5071L18.8359 20.018C18.0104 20.3234 17.3595 20.9743 17.054 21.7998L16.5431 23.1805L16.0323 21.7998C15.7268 20.9743 15.0759 20.3234 14.2504 20.018L12.8698 19.5071L14.2504 18.9962C15.0759 18.6907 15.7268 18.0399 16.0323 17.2144ZM15.5672 12.7792C15.9025 11.8732 17.1838 11.8732 17.5191 12.7792L18.9066 16.5289C19.012 16.8137 19.2366 17.0383 19.5214 17.1437L23.2711 18.5312C24.177 18.8664 24.177 20.1478 23.2711 20.483L19.5214 21.8705C19.2366 21.9759 19.012 22.2005 18.9066 22.4853L17.5191 26.235C17.1838 27.141 15.9025 27.141 15.5672 26.235L14.1797 22.4853C14.0743 22.2005 13.8497 21.9759 13.5649 21.8705L9.81521 20.483C8.90925 20.1478 8.90925 18.8664 9.81521 18.5312L13.5649 17.1437C13.8497 17.0383 14.0743 16.8137 14.1797 16.5289L15.5672 12.7792Z" fill="#0D070B"/>
</g>
<defs>
<clipPath id="clip0_1_8992">
<rect width="23.7037" height="23.7037" fill="white" transform="translate(8.14844 8.14844)"/>
</clipPath>
</defs>
</svg>
