<svg width="54" height="54" viewBox="0 0 54 54" fill="none" xmlns="http://www.w3.org/2000/svg">
<circle cx="27" cy="27" r="27" fill="#DBE8F4"/>
<path fill-rule="evenodd" clip-rule="evenodd" d="M19.1245 32.45C19.1557 31.7825 18.8964 31.0793 18.4791 30.4986C17.4626 29.0837 16.8789 27.4313 16.8789 25.666C16.8789 20.4338 22.0072 16.1923 28.3332 16.1923C34.6593 16.1923 39.7876 20.4338 39.7876 25.666C39.7876 30.8982 34.6593 35.1397 28.3332 35.1397C26.7468 35.1397 25.2356 34.8729 23.8618 34.3907C22.9906 34.0849 22.0194 34.1653 21.1573 34.4957L21.1471 34.4996C20.8412 34.6163 20.5309 34.7125 20.2244 34.7917C19.9516 34.8621 19.6819 34.919 19.421 34.9647C18.1114 35.1943 17.0242 35.1428 16.8923 35.1125C16.8752 35.1086 16.8741 35.105 16.8907 35.1025C17.3954 35.0246 18.0654 34.4196 18.7005 33.6116C18.7394 33.5621 18.7755 33.5115 18.8087 33.46C19.0093 33.1493 19.1079 32.8047 19.1245 32.45ZM16.1088 32.6968C15.9569 32.7439 15.5505 32.8904 15.1667 33.2369C14.8955 33.4817 14.445 34.002 14.3503 34.8169C14.2513 35.6678 14.5985 36.3157 14.8776 36.6683C15.3014 37.2037 15.8307 37.4129 15.8994 37.44L15.9053 37.4424C16.1567 37.5461 16.3755 37.5868 16.4169 37.5945L16.4212 37.5953C16.5001 37.6103 16.5673 37.6195 16.61 37.6249C16.7685 37.6448 16.9382 37.6545 17.0817 37.6597C17.3949 37.6711 17.822 37.6691 18.3194 37.6368C19.295 37.5732 20.6885 37.3834 22.0741 36.8524C22.4989 36.6897 22.8329 36.7092 23.0131 36.7724C24.6613 37.351 26.4595 37.666 28.3332 37.666C35.6108 37.666 42.333 32.7052 42.333 25.666C42.333 18.6269 35.6108 13.666 28.3332 13.666C21.0556 13.666 14.3335 18.6269 14.3335 25.666C14.3335 28.0016 15.1097 30.1601 16.4067 31.9653C16.4661 32.048 16.5111 32.1309 16.5411 32.2043C16.5451 32.2141 16.5487 32.2234 16.552 32.2323C16.3712 32.4481 16.2191 32.6019 16.1088 32.6968ZM22.9997 22.9993C22.9997 22.263 23.5966 21.666 24.333 21.666H32.333C33.0694 21.666 33.6663 22.263 33.6663 22.9993C33.6663 23.7357 33.0694 24.3327 32.333 24.3327H24.333C23.5966 24.3327 22.9997 23.7357 22.9997 22.9993ZM24.333 26.9993C23.5966 26.9993 22.9997 27.5963 22.9997 28.3327C22.9997 29.0691 23.5966 29.666 24.333 29.666H29.6663C30.4027 29.666 30.9997 29.0691 30.9997 28.3327C30.9997 27.5963 30.4027 26.9993 29.6663 26.9993H24.333Z" fill="#0D070B"/>
</svg>
