<svg width="54" height="54" viewBox="0 0 54 54" fill="none" xmlns="http://www.w3.org/2000/svg">
<circle cx="27" cy="27" r="27" fill="#E2E4E2"/>
<path fill-rule="evenodd" clip-rule="evenodd" d="M34.3333 17.6667H19.6667C17.4575 17.6667 15.6667 19.4575 15.6667 21.6667V32.3333C15.6667 34.5425 17.4575 36.3333 19.6667 36.3333H34.3333C36.5425 36.3333 38.3333 34.5425 38.3333 32.3333V31H31.6667C29.4575 31 27.6667 29.2091 27.6667 27C27.6667 24.7909 29.4575 23 31.6667 23H38.3333V21.6667C38.3333 19.4575 36.5425 17.6667 34.3333 17.6667ZM31.6667 25.6667H38.3333V28.3333H31.6667C30.9303 28.3333 30.3333 27.7364 30.3333 27C30.3333 26.2636 30.9303 25.6667 31.6667 25.6667ZM41 32.3333V31V23V21.6667C41 17.9848 38.0152 15 34.3333 15H19.6667C15.9848 15 13 17.9848 13 21.6667V32.3333C13 36.0152 15.9848 39 19.6667 39H34.3333C38.0152 39 41 36.0152 41 32.3333ZM21 23C20.2636 23 19.6667 23.597 19.6667 24.3333V29.6667C19.6667 30.403 20.2636 31 21 31C21.7364 31 22.3333 30.403 22.3333 29.6667V24.3333C22.3333 23.597 21.7364 23 21 23Z" fill="#84848A"/>
</svg>
