<svg width="40" height="40" viewBox="0 0 40 40" fill="none" xmlns="http://www.w3.org/2000/svg">
<circle cx="20" cy="20" r="20" fill="#F2F2F3"/>
<path fill-rule="evenodd" clip-rule="evenodd" d="M24.9336 16.886C26.3722 17.893 27.5592 19.1081 28.3346 19.9995C27.5592 20.891 26.3722 22.106 24.9336 23.113C23.3754 24.2037 21.684 24.9378 20.0002 24.9378C18.3163 24.9378 16.6249 24.2037 15.0668 23.113C13.6281 22.106 12.4411 20.891 11.6658 19.9995C12.4411 19.1081 13.6281 17.893 15.0668 16.886C16.6249 15.7953 18.3163 15.0612 20.0002 15.0612C21.684 15.0612 23.3754 15.7953 24.9336 16.886ZM30.0028 18.9101C30.5424 19.5456 30.5424 20.4534 30.0028 21.0889C28.3493 23.0363 24.4932 26.9131 20.0002 26.9131C15.5071 26.9131 11.6511 23.0363 9.99747 21.0889C9.45788 20.4534 9.45788 19.5456 9.99746 18.9101C11.6511 16.9627 15.5071 13.0859 20.0002 13.0859C24.4932 13.0859 28.3493 16.9627 30.0028 18.9101ZM21.9753 19.9995C21.9753 21.0905 21.091 21.9748 20 21.9748C18.9091 21.9748 18.0247 21.0905 18.0247 19.9995C18.0247 18.9086 18.9091 18.0242 20 18.0242C21.091 18.0242 21.9753 18.9086 21.9753 19.9995ZM23.9507 19.9995C23.9507 22.1814 22.1819 23.9501 20 23.9501C17.8182 23.9501 16.0494 22.1814 16.0494 19.9995C16.0494 17.8177 17.8182 16.0489 20 16.0489C22.1819 16.0489 23.9507 17.8177 23.9507 19.9995Z" fill="#0D070B"/>
</svg>
