<svg width="18" height="18" viewBox="0 0 18 18" fill="none" xmlns="http://www.w3.org/2000/svg">
<path fill-rule="evenodd" clip-rule="evenodd" d="M13.4303 1.05958C13.5831 0.646806 14.1669 0.646806 14.3197 1.05958L14.9518 2.76804C14.9999 2.89782 15.1022 3.00014 15.232 3.04816L16.9404 3.68035C17.3532 3.83309 17.3532 4.41691 16.9404 4.56965L15.232 5.20184C15.1022 5.24986 14.9999 5.35218 14.9518 5.48196L14.3197 7.19042C14.1669 7.60319 13.5831 7.60319 13.4303 7.19042L12.7982 5.48196C12.7501 5.35218 12.6478 5.24986 12.518 5.20184L10.8096 4.56965C10.3968 4.41691 10.3968 3.83309 10.8096 3.68035L12.518 3.04816C12.6478 3.00014 12.7501 2.89782 12.7982 2.76804L13.4303 1.05958ZM13.4303 11.5596C13.5831 11.1468 14.1669 11.1468 14.3197 11.5596L14.9518 13.268C14.9999 13.3978 15.1022 13.5001 15.232 13.5482L16.9404 14.1803C17.3532 14.3331 17.3532 14.9169 16.9404 15.0697L15.232 15.7018C15.1022 15.7499 14.9999 15.8522 14.9518 15.982L14.3197 17.6904C14.1669 18.1032 13.5831 18.1032 13.4303 17.6904L12.7982 15.982C12.7501 15.8522 12.6478 15.7499 12.518 15.7018L10.8096 15.0697C10.3968 14.9169 10.3968 14.3331 10.8096 14.1803L12.518 13.5482C12.6478 13.5001 12.7501 13.3978 12.7982 13.268L13.4303 11.5596ZM5.98704 6.88396L6.375 5.83552L6.76296 6.88396C6.99492 7.51083 7.48917 8.00508 8.11604 8.23704L9.16448 8.625L8.11604 9.01296C7.48917 9.24492 6.99492 9.73917 6.76296 10.366L6.375 11.4145L5.98704 10.366C5.75508 9.73917 5.26083 9.24492 4.63396 9.01296L3.58552 8.625L4.63396 8.23704C5.26083 8.00508 5.75508 7.51083 5.98704 6.88396ZM5.63391 3.51597C5.88848 2.82801 6.86152 2.82801 7.11609 3.51597L8.16973 6.3634C8.24977 6.5797 8.4203 6.75023 8.6366 6.83027L11.484 7.88391C12.172 8.13848 12.172 9.11152 11.484 9.36609L8.6366 10.4197C8.4203 10.4998 8.24977 10.6703 8.16973 10.8866L7.11609 13.734C6.86152 14.422 5.88848 14.422 5.63391 13.734L4.58027 10.8866C4.50023 10.6703 4.3297 10.4998 4.1134 10.4197L1.26597 9.36609C0.57801 9.11152 0.57801 8.13848 1.26597 7.88391L4.1134 6.83027C4.3297 6.75023 4.50023 6.5797 4.58027 6.3634L5.63391 3.51597Z" fill="#0D070B"/>
</svg>
