<svg width="16" height="11" viewBox="0 0 16 11" fill="none" xmlns="http://www.w3.org/2000/svg">
<path fill-rule="evenodd" clip-rule="evenodd" d="M11.7461 3.13566C12.8386 3.90038 13.74 4.82305 14.3287 5.5C13.74 6.17695 12.8386 7.09961 11.7461 7.86434C10.5629 8.69257 9.27846 9.25 7.99979 9.25C6.72111 9.25 5.4367 8.69257 4.25349 7.86434C3.16101 7.09962 2.25961 6.17695 1.67085 5.5C2.25961 4.82305 3.16101 3.90039 4.25349 3.13566C5.4367 2.30743 6.72111 1.75 7.99979 1.75C9.27846 1.75 10.5629 2.30743 11.7461 3.13566ZM15.5956 4.67276C16.0053 5.15533 16.0053 5.84467 15.5956 6.32724C14.3399 7.80609 11.4117 10.75 7.99979 10.75C4.58786 10.75 1.65969 7.80609 0.403993 6.32724C-0.00575752 5.84467 -0.00575839 5.15533 0.403992 4.67276C1.65969 3.19391 4.58786 0.25 7.99979 0.25C11.4117 0.25 14.3399 3.19391 15.5956 4.67276ZM9.49969 5.5C9.49969 6.32843 8.82812 7 7.99969 7C7.17127 7 6.49969 6.32843 6.49969 5.5C6.49969 4.67157 7.17127 4 7.99969 4C8.82812 4 9.49969 4.67157 9.49969 5.5ZM10.9997 5.5C10.9997 7.15685 9.65655 8.5 7.99969 8.5C6.34284 8.5 4.99969 7.15685 4.99969 5.5C4.99969 3.84315 6.34284 2.5 7.99969 2.5C9.65655 2.5 10.9997 3.84315 10.9997 5.5Z" fill="#525256"/>
</svg>
