<svg width="17" height="15" viewBox="0 0 17 15" fill="none" xmlns="http://www.w3.org/2000/svg">
<path fill-rule="evenodd" clip-rule="evenodd" d="M6.50679 1.5L6.5037 1.53239L6.84241 4.54013C6.93604 5.37155 7.63923 6 8.47591 6C9.355 6 10.0785 5.30835 10.1181 4.43015L10.2478 1.54983L10.2431 1.5H6.50679ZM3.28017 7.5C4.32687 7.5 5.31626 6.91884 5.8267 6.04962C6.3885 6.92733 7.37139 7.5 8.47591 7.5C9.52065 7.5 10.4505 6.98923 11.023 6.19947C11.5616 6.98499 12.5067 7.5 13.492 7.5C13.6658 7.5 13.8355 7.48415 14 7.45386V11.25C14 12.4926 12.9926 13.5 11.75 13.5H11V10.875C11 9.42525 9.82475 8.25 8.375 8.25C6.92525 8.25 5.75 9.42525 5.75 10.875V13.5H5C3.75736 13.5 2.75 12.4926 2.75 11.25V7.44967C2.92137 7.48269 3.09859 7.5 3.28017 7.5ZM1.25 6.61913C0.726956 6.05984 0.433702 5.28672 0.512769 4.45652L0.72271 2.25214C0.844324 0.975195 1.9168 0 3.19952 0H4.82166H6.64964H10.1002H11.8191H13.3476C14.758 0 15.9371 1.0722 16.0708 2.47616L16.2594 4.45651C16.3396 5.2984 16.0369 6.08158 15.5 6.6426V11.25C15.5 13.3211 13.8211 15 11.75 15H11H5.75H5C2.92893 15 1.25 13.3211 1.25 11.25V6.61913ZM14.75 4.42873L14.5776 2.61837C14.5191 2.00392 14.0172 1.53017 13.4066 1.50139C13.387 1.50047 13.3674 1.5 13.3476 1.5H11.7516L11.751 1.51228L12.0681 4.84143C12.1306 5.49833 12.8322 6 13.492 6C14.1228 6 14.6391 5.54622 14.75 4.95859V4.42873ZM4.68177 4.84142L4.99568 1.54535L4.99057 1.5H3.19952C2.69014 1.5 2.26425 1.88726 2.21595 2.39435L2.00601 4.59873C1.93445 5.35015 2.52535 6 3.28017 6C3.94004 6 4.61921 5.49833 4.68177 4.84142ZM9.5 10.875V13.5H7.25V10.875C7.25 10.2537 7.75368 9.75 8.375 9.75C8.99632 9.75 9.5 10.2537 9.5 10.875Z" fill="#525256"/>
</svg>
