<svg width="10" height="15" viewBox="0 0 10 15" fill="none" xmlns="http://www.w3.org/2000/svg">
<path fill-rule="evenodd" clip-rule="evenodd" d="M5 0C4.58579 0 4.25 0.335787 4.25 0.75V1.54279C3.71329 1.60629 3.22036 1.74043 2.77123 1.94523C2.12028 2.22792 1.61792 2.61661 1.26415 3.11131C0.910377 3.60601 0.733491 4.15018 0.733491 4.74382C0.733491 5.49293 0.924528 6.10071 1.3066 6.56714C1.70283 7.01944 2.16981 7.36572 2.70755 7.60601C3.13034 7.77926 3.64449 7.95251 4.25 8.12576V11.7549C3.88934 11.6638 3.5733 11.5176 3.30189 11.3163C2.82075 10.9488 2.55189 10.4753 2.49528 9.89576H0.5C0.542453 10.6025 0.768868 11.2314 1.17925 11.7827C1.58962 12.3198 2.14858 12.7438 2.85613 13.0548C3.28669 13.2354 3.75132 13.3611 4.25 13.4318V14.25C4.25 14.6642 4.58579 15 5 15C5.41421 15 5.75 14.6642 5.75 14.25V13.4826C6.38374 13.4369 6.95449 13.3014 7.46227 13.076C8.11321 12.7792 8.61557 12.3763 8.96934 11.8675C9.32311 11.3587 9.5 10.7862 9.5 10.1502C9.48585 9.44346 9.28774 8.87103 8.90566 8.43286C8.53774 7.9947 8.09198 7.66961 7.5684 7.4576C7.09144 7.25159 6.4853 7.04558 5.75 6.83957V3.21801C6.13031 3.30574 6.45342 3.46098 6.71934 3.68375C7.17217 4.05124 7.41981 4.53887 7.46227 5.14664H9.39387C9.33726 4.0159 8.91274 3.12544 8.12028 2.47527C7.48789 1.95641 6.6978 1.64459 5.75 1.53979V0.75C5.75 0.335786 5.41421 0 5 0ZM4.25 3.18886C3.86815 3.25689 3.54504 3.38652 3.28066 3.57774C2.87028 3.87456 2.66509 4.26325 2.66509 4.74382C2.66509 5.12544 2.78538 5.44346 3.02594 5.69788C3.28066 5.93816 3.59198 6.13604 3.95991 6.29152C4.04892 6.32445 4.14562 6.35853 4.25 6.39376V3.18886ZM5.75 8.5442V11.8378C6.24631 11.7773 6.65433 11.6247 6.97406 11.3799C7.39859 11.0548 7.61085 10.6449 7.61085 10.1502C7.61085 9.64134 7.38443 9.26678 6.9316 9.0265C6.64025 8.86281 6.24638 8.70204 5.75 8.5442Z" fill="#525256"/>
</svg>
