<svg width="20" height="20" viewBox="0 0 20 20" fill="none" xmlns="http://www.w3.org/2000/svg">
<circle cx="10.1633" cy="10.1629" r="8.83673" fill="white" stroke="black" stroke-width="2"/>
<path fill-rule="evenodd" clip-rule="evenodd" d="M11.6327 8.6942V7.71461C11.6327 6.90308 10.9748 6.24522 10.1633 6.24522C9.35176 6.24522 8.69389 6.90308 8.69389 7.71461V8.6942H11.6327ZM12.6123 8.6942V7.71461C12.6123 6.36207 11.5158 5.26562 10.1633 5.26562C8.81075 5.26562 7.7143 6.36207 7.7143 7.71461V8.6942H7.2245C6.14248 8.6942 5.26532 9.57135 5.26532 10.6534V12.5761C5.26532 13.5317 5.95478 14.3479 6.89697 14.5077L9.83575 15.006C10.0526 15.0428 10.274 15.0428 10.4908 15.006L13.4296 14.5077C14.3718 14.3479 15.0612 13.5317 15.0612 12.5761V10.6534C15.0612 9.57135 14.1841 8.6942 13.1021 8.6942H12.6123ZM12.6123 9.67379H11.6327H8.69389H7.7143H7.2245C6.68349 9.67379 6.24491 10.1124 6.24491 10.6534V12.5761C6.24491 13.0539 6.58964 13.462 7.06074 13.5419L9.99951 14.0402C10.1079 14.0586 10.2186 14.0586 10.327 14.0402L13.2658 13.5419C13.7369 13.462 14.0816 13.0539 14.0816 12.5761V10.6534C14.0816 10.1124 13.6431 9.67379 13.1021 9.67379H12.6123ZM9.67348 11.1432C9.67348 10.8727 9.89277 10.6534 10.1633 10.6534C10.4338 10.6534 10.6531 10.8727 10.6531 11.1432V12.6126C10.6531 12.8831 10.4338 13.1024 10.1633 13.1024C9.89277 13.1024 9.67348 12.8831 9.67348 12.6126V11.1432Z" fill="#0D070B"/>
</svg>
