<svg width="37" height="36" viewBox="0 0 37 36" fill="none" xmlns="http://www.w3.org/2000/svg">
<rect x="0.5" width="36" height="36" rx="18" fill="#FFD9A2"/>
<path fill-rule="evenodd" clip-rule="evenodd" d="M18.5 8C17.9477 8 17.5 8.44772 17.5 9V10.0571C16.7844 10.1417 16.1271 10.3206 15.5283 10.5936C14.6604 10.9706 13.9906 11.4888 13.5189 12.1484C13.0472 12.808 12.8113 13.5336 12.8113 14.3251C12.8113 15.3239 13.066 16.1343 13.5755 16.7562C14.1038 17.3592 14.7264 17.821 15.4434 18.1413C16.0071 18.3723 16.6927 18.6033 17.5 18.8343V23.6732C17.0191 23.5518 16.5977 23.3569 16.2358 23.0883C15.5943 22.5984 15.2358 21.967 15.1604 21.1943H12.5C12.5566 22.1366 12.8585 22.9753 13.4057 23.7102C13.9528 24.4264 14.6981 24.9918 15.6415 25.4064C16.2156 25.6472 16.8351 25.8147 17.5 25.909V27C17.5 27.5523 17.9477 28 18.5 28C19.0523 28 19.5 27.5523 19.5 27V25.9768C20.345 25.9159 21.106 25.7352 21.783 25.4346C22.6509 25.0389 23.3208 24.5018 23.7925 23.8233C24.2642 23.1449 24.5 22.3816 24.5 21.5336C24.4811 20.5913 24.217 19.828 23.7075 19.2438C23.217 18.6596 22.6226 18.2261 21.9245 17.9435C21.2886 17.6688 20.4804 17.3941 19.5 17.1194V12.2907C20.0071 12.4076 20.4379 12.6146 20.7925 12.9117C21.3962 13.4016 21.7264 14.0518 21.783 14.8622H24.3585C24.283 13.3545 23.717 12.1673 22.6604 11.3004C21.8172 10.6086 20.7637 10.1928 19.5 10.0531V9C19.5 8.44772 19.0523 8 18.5 8ZM17.5 12.2518C16.9909 12.3425 16.5601 12.5154 16.2075 12.7703C15.6604 13.1661 15.3868 13.6843 15.3868 14.3251C15.3868 14.8339 15.5472 15.258 15.8679 15.5972C16.2075 15.9175 16.6226 16.1814 17.1132 16.3887C17.2319 16.4326 17.3608 16.478 17.5 16.525V12.2518ZM19.5 19.3923V23.7837C20.1617 23.7031 20.7058 23.4996 21.1321 23.1731C21.6981 22.7397 21.9811 22.1932 21.9811 21.5336C21.9811 20.8551 21.6792 20.3557 21.0755 20.0353C20.687 19.8171 20.1618 19.6027 19.5 19.3923Z" fill="#0D070B"/>
</svg>
