<svg width="33" height="32" viewBox="0 0 33 32" fill="none" xmlns="http://www.w3.org/2000/svg">
<g clip-path="url(#clip0_1_8911)">
<path fill-rule="evenodd" clip-rule="evenodd" d="M17.3814 3.04745C16.056 2.72385 14.6328 2.71927 13.222 3.0973C8.74085 4.29801 6.08156 8.90404 7.28227 13.3852L8.61088 18.3436C8.72753 18.7789 8.70955 19.1206 8.62153 19.3845C8.53551 19.6424 8.35596 19.9074 8.00826 20.1551C7.03214 20.8505 5.92617 22.2334 6.37587 23.9118C6.8047 25.5122 8.44971 26.4619 10.0501 26.0331L27.4368 21.3743C29.0372 20.9455 29.9869 19.3005 29.5581 17.7001C29.1084 16.0218 27.4591 15.3771 26.2661 15.263C25.8411 15.2223 25.5531 15.0826 25.3497 14.9022C25.1415 14.7177 24.9551 14.4308 24.8384 13.9954L24.0465 11.0398C23.0212 11.0606 22.023 10.8424 21.1211 10.4253L22.2626 14.6856C22.4898 15.5333 22.9156 16.3081 23.5808 16.8978L23.5808 16.8978C24.2518 17.4925 25.0882 17.8291 26.012 17.9175C26.2905 17.9441 26.5835 18.0353 26.7797 18.1576C26.8666 18.2119 26.911 18.2574 26.9323 18.2842C26.9492 18.3055 26.967 18.3333 26.9823 18.3903C27.0299 18.5681 26.9244 18.7509 26.7466 18.7985L9.35993 23.4573C9.1821 23.5049 8.99932 23.3994 8.95168 23.2216C8.93641 23.1646 8.93794 23.1316 8.94191 23.1048C8.94693 23.0708 8.96266 23.0092 9.01084 22.9188C9.11953 22.7148 9.32769 22.4893 9.55555 22.327C10.3114 21.7885 10.8675 21.0788 11.1512 20.2283C11.4325 19.385 11.4138 18.501 11.1867 17.6534L9.85807 12.695C9.03854 9.63643 10.8536 6.49263 13.9122 5.6731C15.1152 5.35075 16.3314 5.436 17.4141 5.84419C17.199 4.89662 17.1983 3.94676 17.3814 3.04745ZM16.2139 27.1422C16.0233 26.431 16.4454 25.6998 17.1567 25.5093L21.0204 24.474C21.7317 24.2834 22.4628 24.7055 22.6534 25.4168C22.844 26.1281 22.4219 26.8592 21.7106 27.0498L17.8469 28.0851C17.1356 28.2756 16.4045 27.8535 16.2139 27.1422Z" fill="#0D070B"/>
<ellipse cx="23.8337" cy="4.66667" rx="4.66667" ry="4.66667" fill="#FF5D6B"/>
</g>
<defs>
<clipPath id="clip0_1_8911">
<rect width="32" height="32" fill="white" transform="translate(0.5)"/>
</clipPath>
</defs>
</svg>
