<svg width="37" height="36" viewBox="0 0 37 36" fill="none" xmlns="http://www.w3.org/2000/svg">
<rect x="0.5" width="36" height="36" rx="18" fill="#DBE8F4"/>
<g clip-path="url(#clip0_68_2110)">
<path fill-rule="evenodd" clip-rule="evenodd" d="M24.4071 7.41278C24.6108 6.86241 25.3892 6.86241 25.5929 7.41278L26.4358 9.69072C26.4998 9.86376 26.6362 10.0002 26.8093 10.0642L29.0872 10.9071C29.6376 11.1108 29.6376 11.8892 29.0872 12.0929L26.8093 12.9358C26.6362 12.9998 26.4998 13.1362 26.4358 13.3093L25.5929 15.5872C25.3892 16.1376 24.6108 16.1376 24.4071 15.5872L23.5642 13.3093C23.5002 13.1362 23.3638 12.9998 23.1907 12.9358L20.9128 12.0929C20.3624 11.8892 20.3624 11.1108 20.9128 10.9071L23.1907 10.0642C23.3638 10.0002 23.5002 9.86376 23.5642 9.69072L24.4071 7.41278ZM24.4071 21.4128C24.6108 20.8624 25.3892 20.8624 25.5929 21.4128L26.4358 23.6907C26.4998 23.8638 26.6362 24.0002 26.8093 24.0642L29.0872 24.9071C29.6376 25.1108 29.6376 25.8892 29.0872 26.0929L26.8093 26.9358C26.6362 26.9998 26.4998 27.1362 26.4358 27.3093L25.5929 29.5872C25.3892 30.1376 24.6108 30.1376 24.4071 29.5872L23.5642 27.3093C23.5002 27.1362 23.3638 26.9998 23.1907 26.9358L20.9128 26.0929C20.3624 25.8892 20.3624 25.1108 20.9128 24.9071L23.1907 24.0642C23.3638 24.0002 23.5002 23.8638 23.5642 23.6907L24.4071 21.4128ZM14.4827 15.1786L15 13.7807L15.5173 15.1786C15.8266 16.0144 16.4856 16.6734 17.3214 16.9827L18.7193 17.5L17.3214 18.0173C16.4856 18.3266 15.8266 18.9856 15.5173 19.8214L15 21.2193L14.4827 19.8214C14.1734 18.9856 13.5144 18.3266 12.6786 18.0173L11.2807 17.5L12.6786 16.9827C13.5144 16.6734 14.1734 16.0144 14.4827 15.1786ZM14.0119 10.688C14.3513 9.77068 15.6487 9.77068 15.9881 10.688L17.393 14.4845C17.4997 14.7729 17.7271 15.0003 18.0155 15.107L21.812 16.5119C22.7293 16.8513 22.7293 18.1487 21.812 18.4881L18.0155 19.893C17.7271 19.9997 17.4997 20.2271 17.393 20.5155L15.9881 24.312C15.6487 25.2293 14.3513 25.2293 14.0119 24.312L12.607 20.5155C12.5003 20.2271 12.2729 19.9997 11.9845 19.893L8.18796 18.4881C7.27068 18.1487 7.27068 16.8513 8.18796 16.5119L11.9845 15.107C12.2729 15.0003 12.5003 14.7729 12.607 14.4845L14.0119 10.688Z" fill="#0D070B"/>
</g>
<defs>
<clipPath id="clip0_68_2110">
<rect width="24" height="24" fill="white" transform="translate(6.5 6)"/>
</clipPath>
</defs>
</svg>
