<svg width="37" height="36" viewBox="0 0 37 36" fill="none" xmlns="http://www.w3.org/2000/svg">
<rect x="0.5" width="36" height="36" rx="18" fill="#F3D8E1"/>
<path fill-rule="evenodd" clip-rule="evenodd" d="M23.4954 14.8476C24.9521 15.8672 26.1539 17.0974 26.9389 18C26.1539 18.9026 24.9521 20.1328 23.4954 21.1524C21.9178 22.2568 20.2053 23 18.5004 23C16.7955 23 15.0829 22.2568 13.5053 21.1524C12.0487 20.1328 10.8468 18.9026 10.0618 18C10.8468 17.0974 12.0487 15.8672 13.5053 14.8476C15.0829 13.7432 16.7955 13 18.5004 13C20.2053 13 21.9178 13.7432 23.4954 14.8476ZM28.6281 16.897C29.1744 17.5404 29.1744 18.4596 28.6281 19.103C26.9538 21.0748 23.0496 25 18.5004 25C13.9511 25 10.0469 21.0748 8.37264 19.103C7.82631 18.4596 7.82631 17.5404 8.37264 16.897C10.0469 14.9252 13.9511 11 18.5004 11C23.0496 11 26.9538 14.9252 28.6281 16.897ZM20.5002 18C20.5002 19.1046 19.6048 20 18.5002 20C17.3957 20 16.5002 19.1046 16.5002 18C16.5002 16.8954 17.3957 16 18.5002 16C19.6048 16 20.5002 16.8954 20.5002 18ZM22.5002 18C22.5002 20.2091 20.7094 22 18.5002 22C16.2911 22 14.5002 20.2091 14.5002 18C14.5002 15.7909 16.2911 14 18.5002 14C20.7094 14 22.5002 15.7909 22.5002 18Z" fill="#0D070B"/>
</svg>
