<svg width="32" height="32" viewBox="0 0 32 32" fill="none" xmlns="http://www.w3.org/2000/svg">
<path fill-rule="evenodd" clip-rule="evenodd" d="M8.12448 21.4505C8.15567 20.783 7.89636 20.0798 7.47915 19.4991C6.46262 18.0842 5.87888 16.4317 5.87888 14.6665C5.87888 9.43433 11.0072 5.19282 17.3332 5.19282C23.6593 5.19282 28.7876 9.43433 28.7876 14.6665C28.7876 19.8987 23.6593 24.1402 17.3332 24.1402C15.7468 24.1402 14.2356 23.8734 12.8618 23.3912C11.9906 23.0854 11.0194 23.1658 10.1573 23.4962L10.1471 23.5001C9.84117 23.6168 9.53087 23.713 9.22441 23.7922C8.95163 23.8626 8.68189 23.9195 8.42097 23.9652C7.11142 24.1948 6.02421 24.1433 5.8923 24.113C5.87521 24.1091 5.87415 24.1055 5.89072 24.103C6.39537 24.0251 7.06538 23.42 7.70048 22.6121C7.73941 22.5626 7.77546 22.512 7.80871 22.4605C8.00929 22.1498 8.10791 21.8052 8.12448 21.4505ZM5.10877 21.6973C4.95694 21.7444 4.5505 21.8909 4.1667 22.2374C3.89553 22.4822 3.44505 23.0025 3.35026 23.8174C3.25127 24.6683 3.59849 25.3162 3.8776 25.6688C4.30136 26.2042 4.83065 26.4133 4.89939 26.4405L4.9053 26.4429C5.15673 26.5466 5.37549 26.5873 5.41692 26.595L5.4212 26.5958C5.50012 26.6108 5.56731 26.62 5.60996 26.6254C5.76854 26.6453 5.93822 26.655 6.08174 26.6602C6.39493 26.6716 6.82197 26.6696 7.31939 26.6372C8.29502 26.5737 9.68853 26.3839 11.0741 25.8529C11.4989 25.6901 11.8329 25.7097 12.0131 25.7729C13.6613 26.3515 15.4595 26.6665 17.3332 26.6665C24.6108 26.6665 31.333 21.7056 31.333 14.6665C31.333 7.62737 24.6108 2.6665 17.3332 2.6665C10.0556 2.6665 3.33347 7.62737 3.33347 14.6665C3.33347 17.0021 4.10965 19.1606 5.40667 20.9658C5.46608 21.0485 5.51108 21.1314 5.54113 21.2048C5.54513 21.2146 5.54874 21.2239 5.55201 21.2327C5.37124 21.4485 5.21906 21.6024 5.10877 21.6973ZM11.9997 11.9998C11.9997 11.2635 12.5966 10.6665 13.333 10.6665H21.333C22.0694 10.6665 22.6663 11.2635 22.6663 11.9998C22.6663 12.7362 22.0694 13.3332 21.333 13.3332H13.333C12.5966 13.3332 11.9997 12.7362 11.9997 11.9998ZM13.333 15.9998C12.5966 15.9998 11.9997 16.5968 11.9997 17.3332C11.9997 18.0695 12.5966 18.6665 13.333 18.6665H18.6663C19.4027 18.6665 19.9997 18.0695 19.9997 17.3332C19.9997 16.5968 19.4027 15.9998 18.6663 15.9998H13.333Z" fill="#0D070B"/>
</svg>
