<svg width="37" height="36" viewBox="0 0 37 36" fill="none" xmlns="http://www.w3.org/2000/svg">
<rect x="0.5" width="36" height="36" rx="18" fill="#D5CEEE"/>
<path fill-rule="evenodd" clip-rule="evenodd" d="M12 10.5H15C15.5523 10.5 16 10.9477 16 11.5V14.5C16 15.0523 15.5523 15.5 15 15.5H12C11.4477 15.5 11 15.0523 11 14.5V11.5C11 10.9477 11.4477 10.5 12 10.5ZM9 11.5C9 9.84315 10.3431 8.5 12 8.5H15C16.6569 8.5 18 9.84315 18 11.5V14.5C18 16.1569 16.6569 17.5 15 17.5H12C10.3431 17.5 9 16.1569 9 14.5V11.5ZM12 20.5H15C15.5523 20.5 16 20.9477 16 21.5V24.5C16 25.0523 15.5523 25.5 15 25.5H12C11.4477 25.5 11 25.0523 11 24.5V21.5C11 20.9477 11.4477 20.5 12 20.5ZM9 21.5C9 19.8431 10.3431 18.5 12 18.5H15C16.6569 18.5 18 19.8431 18 21.5V24.5C18 26.1569 16.6569 27.5 15 27.5H12C10.3431 27.5 9 26.1569 9 24.5V21.5ZM25 10.5H22C21.4477 10.5 21 10.9477 21 11.5V14.5C21 15.0523 21.4477 15.5 22 15.5H25C25.5523 15.5 26 15.0523 26 14.5V11.5C26 10.9477 25.5523 10.5 25 10.5ZM22 8.5C20.3431 8.5 19 9.84315 19 11.5V14.5C19 16.1569 20.3431 17.5 22 17.5H25C26.6569 17.5 28 16.1569 28 14.5V11.5C28 9.84315 26.6569 8.5 25 8.5H22ZM22 20.5H25C25.5523 20.5 26 20.9477 26 21.5V24.5C26 25.0523 25.5523 25.5 25 25.5H22C21.4477 25.5 21 25.0523 21 24.5V21.5C21 20.9477 21.4477 20.5 22 20.5ZM19 21.5C19 19.8431 20.3431 18.5 22 18.5H25C26.6569 18.5 28 19.8431 28 21.5V24.5C28 26.1569 26.6569 27.5 25 27.5H22C20.3431 27.5 19 26.1569 19 24.5V21.5Z" fill="black"/>
</svg>
