<svg width="32" height="32" viewBox="0 0 32 32" fill="none" xmlns="http://www.w3.org/2000/svg">
<path fill-rule="evenodd" clip-rule="evenodd" d="M22.434 18.6778L22.434 18.6778C22.9282 19.426 23.649 19.9675 24.5185 20.292C24.7806 20.3899 25.04 20.5538 25.1978 20.7227C25.2678 20.7976 25.2989 20.853 25.3125 20.8845C25.3233 20.9094 25.3333 20.9409 25.3333 20.9998C25.3333 21.1839 25.1841 21.3332 25 21.3332H7C6.8159 21.3332 6.66667 21.1839 6.66667 20.9998C6.66667 20.9409 6.67669 20.9094 6.68747 20.8845C6.70109 20.853 6.73223 20.7976 6.80219 20.7227C6.95996 20.5538 7.21939 20.3899 7.4815 20.292C8.35099 19.9675 9.07178 19.426 9.56596 18.6778C10.0559 17.936 10.2667 17.0774 10.2667 16.1998V11.0665C10.2667 7.90007 12.8336 5.33317 16 5.33317C19.1664 5.33317 21.7333 7.90007 21.7333 11.0665V16.1998C21.7333 17.0774 21.9441 17.936 22.434 18.6778ZM24.4 16.1998V11.0665C24.4 6.42731 20.6392 2.6665 16 2.6665C11.3608 2.6665 7.6 6.42731 7.6 11.0665V16.1998C7.6 16.6506 7.4942 16.9759 7.34088 17.2081C7.19103 17.4349 6.94901 17.6444 6.54905 17.7937C5.4262 18.2128 4 19.2623 4 20.9998C4 22.6567 5.34315 23.9998 7 23.9998H25C26.6569 23.9998 28 22.6567 28 20.9998C28 19.2623 26.5738 18.2128 25.451 17.7937C25.051 17.6444 24.809 17.4349 24.6591 17.2081C24.5058 16.9759 24.4 16.6506 24.4 16.1998ZM14 25.3332C13.2636 25.3332 12.6667 25.9301 12.6667 26.6665C12.6667 27.4029 13.2636 27.9998 14 27.9998H18C18.7364 27.9998 19.3333 27.4029 19.3333 26.6665C19.3333 25.9301 18.7364 25.3332 18 25.3332H14Z" fill="#0D070B"/>
</svg>
