<svg width="33" height="32" viewBox="0 0 33 32" fill="none" xmlns="http://www.w3.org/2000/svg">
<g clip-path="url(#clip0_1_8910)">
<path fill-rule="evenodd" clip-rule="evenodd" d="M8.62448 21.45C8.65567 20.7825 8.39636 20.0793 7.97915 19.4986C6.96262 18.0837 6.37888 16.4313 6.37888 14.666C6.37888 9.43384 11.5072 5.19233 17.8332 5.19233C18.708 5.19233 19.5599 5.27344 20.3785 5.42706C20.3907 4.89088 20.4752 3.64013 20.715 2.92649C19.7743 2.75515 18.8088 2.66602 17.8332 2.66602C10.5556 2.66602 3.83347 7.62688 3.83347 14.666C3.83347 17.0016 4.60965 19.1601 5.90667 20.9653C5.96608 21.048 6.01108 21.1309 6.04113 21.2043C6.04513 21.2141 6.04874 21.2234 6.05201 21.2323C5.87124 21.4481 5.71906 21.6019 5.60877 21.6968C5.45694 21.7439 5.0505 21.8904 4.6667 22.2369C4.39553 22.4817 3.94505 23.002 3.85026 23.8169C3.75127 24.6678 4.09849 25.3157 4.3776 25.6683C4.80136 26.2037 5.33065 26.4129 5.39939 26.44L5.4053 26.4424C5.65673 26.5461 5.87549 26.5868 5.91692 26.5945L5.9212 26.5953C6.00012 26.6103 6.06731 26.6195 6.10996 26.6249C6.26854 26.6448 6.43822 26.6545 6.58174 26.6597C6.89493 26.6711 7.32197 26.6691 7.81939 26.6367C8.79502 26.5732 10.1885 26.3834 11.5741 25.8524C11.9989 25.6896 12.3329 25.7092 12.5131 25.7724C14.1613 26.351 15.9595 26.666 17.8332 26.666C25.1108 26.666 31.833 21.7051 31.833 14.666C31.833 13.7304 31.7142 12.8315 31.4912 11.976C30.7088 12.3504 29.5297 12.6077 29.038 12.6896C29.2015 13.3271 29.2876 13.9882 29.2876 14.666C29.2876 19.8982 24.1593 24.1397 17.8332 24.1397C16.2468 24.1397 14.7356 23.8729 13.3618 23.3907C12.4906 23.0849 11.5194 23.1653 10.6573 23.4957L10.6471 23.4996C10.3412 23.6163 10.0309 23.7125 9.72441 23.7917C9.45163 23.8621 9.18189 23.919 8.92097 23.9647C7.61142 24.1943 6.52421 24.1428 6.3923 24.1125C6.37521 24.1086 6.37415 24.105 6.39072 24.1025C6.89537 24.0246 7.56538 23.4196 8.20048 22.6116C8.23941 22.5621 8.27546 22.5115 8.30871 22.46C8.50929 22.1493 8.60791 21.8047 8.62448 21.45ZM12.4997 11.9993C12.4997 11.263 13.0966 10.666 13.833 10.666H21.833C22.5694 10.666 23.1663 11.263 23.1663 11.9993C23.1663 12.7357 22.5694 13.3327 21.833 13.3327H13.833C13.0966 13.3327 12.4997 12.7357 12.4997 11.9993ZM13.833 15.9993C13.0966 15.9993 12.4997 16.5963 12.4997 17.3327C12.4997 18.0691 13.0966 18.666 13.833 18.666H19.1663C19.9027 18.666 20.4997 18.0691 20.4997 17.3327C20.4997 16.5963 19.9027 15.9993 19.1663 15.9993H13.833Z" fill="#0D070B"/>
<circle cx="27.8337" cy="6.00065" r="4.66667" fill="#FF5D6B"/>
</g>
<defs>
<clipPath id="clip0_1_8910">
<rect width="32" height="32" fill="white" transform="translate(0.5)"/>
</clipPath>
</defs>
</svg>
