<svg width="55" height="54" viewBox="0 0 55 54" fill="none" xmlns="http://www.w3.org/2000/svg">
<circle cx="27.5" cy="27" r="27" fill="#D5CEEE"/>
<path fill-rule="evenodd" clip-rule="evenodd" d="M31.5 20.3327C31.5 22.5418 29.7091 24.3327 27.5 24.3327C25.2909 24.3327 23.5 22.5418 23.5 20.3327C23.5 18.1235 25.2909 16.3327 27.5 16.3327C29.7091 16.3327 31.5 18.1235 31.5 20.3327ZM34.1667 20.3327C34.1667 24.0146 31.1819 26.9993 27.5 26.9993C23.8181 26.9993 20.8333 24.0146 20.8333 20.3327C20.8333 16.6508 23.8181 13.666 27.5 13.666C31.1819 13.666 34.1667 16.6508 34.1667 20.3327ZM36.8333 34.3327C36.8333 34.4353 36.6808 35.2461 34.7927 36.1902C33.0641 37.0545 30.4895 37.666 27.5 37.666C24.5105 37.666 21.9359 37.0545 20.2073 36.1902C18.3192 35.2461 18.1667 34.4353 18.1667 34.3327C18.1667 34.23 18.3192 33.4192 20.2073 32.4752C21.9359 31.6109 24.5105 30.9993 27.5 30.9993C30.4895 30.9993 33.0641 31.6109 34.7927 32.4752C36.6808 33.4192 36.8333 34.23 36.8333 34.3327ZM39.5 34.3327C39.5 37.6464 34.1274 40.3327 27.5 40.3327C20.8726 40.3327 15.5 37.6464 15.5 34.3327C15.5 31.019 20.8726 28.3327 27.5 28.3327C34.1274 28.3327 39.5 31.019 39.5 34.3327Z" fill="#0D070B"/>
</svg>
