<svg width="55" height="54" viewBox="0 0 55 54" fill="none" xmlns="http://www.w3.org/2000/svg">
<circle cx="27.5" cy="27" r="27" fill="#FFD9A2"/>
<path fill-rule="evenodd" clip-rule="evenodd" d="M34.8333 17.6667H20.1667C17.9575 17.6667 16.1667 19.4575 16.1667 21.6667V32.3333C16.1667 34.5425 17.9575 36.3333 20.1667 36.3333H34.8333C37.0425 36.3333 38.8333 34.5425 38.8333 32.3333V31H32.1667C29.9575 31 28.1667 29.2091 28.1667 27C28.1667 24.7909 29.9575 23 32.1667 23H38.8333V21.6667C38.8333 19.4575 37.0425 17.6667 34.8333 17.6667ZM32.1667 25.6667H38.8333V28.3333H32.1667C31.4303 28.3333 30.8333 27.7364 30.8333 27C30.8333 26.2636 31.4303 25.6667 32.1667 25.6667ZM41.5 32.3333V31V23V21.6667C41.5 17.9848 38.5152 15 34.8333 15H20.1667C16.4848 15 13.5 17.9848 13.5 21.6667V32.3333C13.5 36.0152 16.4848 39 20.1667 39H34.8333C38.5152 39 41.5 36.0152 41.5 32.3333ZM21.5 23C20.7636 23 20.1667 23.597 20.1667 24.3333V29.6667C20.1667 30.403 20.7636 31 21.5 31C22.2364 31 22.8333 30.403 22.8333 29.6667V24.3333C22.8333 23.597 22.2364 23 21.5 23Z" fill="#0D070B"/>
</svg>
