<svg width="54" height="54" viewBox="0 0 54 54" fill="none" xmlns="http://www.w3.org/2000/svg">
<circle cx="27" cy="27" r="27" fill="#DBF4EA"/>
<path fill-rule="evenodd" clip-rule="evenodd" d="M23.1067 19.4095C23.5235 17.6454 25.1083 16.3327 26.9997 16.3327C28.8911 16.3327 30.4758 17.6454 30.8926 19.4095C29.6474 19.493 28.3365 19.5448 26.9997 19.5448C25.6629 19.5448 24.3519 19.493 23.1067 19.4095ZM20.333 21.8473V25.666C20.333 26.4024 20.93 26.9993 21.6663 26.9993C22.4027 26.9993 22.9997 26.4024 22.9997 25.666V22.0749C24.2766 22.1592 25.623 22.2114 26.9997 22.2114C28.3763 22.2114 29.7227 22.1592 30.9997 22.0749V25.666C30.9997 26.4024 31.5966 26.9993 32.333 26.9993C33.0694 26.9993 33.6663 26.4024 33.6663 25.666V21.8473C34.1787 21.7939 34.6718 21.7371 35.1422 21.6787C36.2431 21.5419 37.0699 22.4716 36.9939 23.3056L39.6495 23.5477L36.9939 23.3056L36.0091 34.1065C35.8249 36.1268 34.1356 37.666 32.1214 37.666H21.878C19.8637 37.666 18.1745 36.1268 17.9903 34.1065L17.0055 23.3056C16.9294 22.4716 17.7562 21.5419 18.8571 21.6787C19.3275 21.7371 19.8206 21.7939 20.333 21.8473ZM20.4329 19.1764C20.0025 19.1305 19.586 19.0821 19.1859 19.0324C16.5352 18.703 14.1068 20.8828 14.3498 23.5477L15.3346 34.3487C15.6436 37.7381 18.4807 40.3327 21.878 40.3327H32.1214C35.5186 40.3327 38.3557 37.7381 38.6647 34.3487L39.6495 23.5477C39.8925 20.8828 37.4642 18.703 34.8134 19.0324C34.4133 19.0821 33.9969 19.1305 33.5664 19.1764C33.0189 16.0456 30.2872 13.666 26.9997 13.666C23.7121 13.666 20.9804 16.0456 20.4329 19.1764Z" fill="#0D070B"/>
</svg>
