<svg width="13" height="14" viewBox="0 0 13 14" fill="none" xmlns="http://www.w3.org/2000/svg">
<path fill-rule="evenodd" clip-rule="evenodd" d="M7.62523 1.22084C7.27429 0.0930503 5.72501 0.093054 5.37407 1.22084L4.51091 3.99471C4.44896 4.19378 4.27801 4.3134 4.10145 4.3134H1.30821C0.726147 4.3134 0.322814 4.70874 0.182629 5.15924C0.0427564 5.60874 0.147489 6.16278 0.607213 6.51154L2.86699 8.22589C3.02 8.34196 3.0914 8.55648 3.02874 8.75783L2.16558 11.5317C1.99418 12.0825 2.21298 12.5979 2.59017 12.884C2.96975 13.172 3.52656 13.2372 3.99216 12.884L6.25194 11.1697C6.40079 11.0567 6.5985 11.0567 6.74735 11.1697L9.00714 12.884C9.47274 13.2372 10.0295 13.172 10.4091 12.884C10.7863 12.5979 11.0051 12.0825 10.8337 11.5317L9.97056 8.75783C9.9079 8.55648 9.9793 8.34196 10.1323 8.22589L12.3921 6.51154C12.8518 6.16278 12.9565 5.60874 12.8167 5.15924C12.6765 4.70874 12.2731 4.3134 11.6911 4.3134H8.89784C8.72129 4.3134 8.55034 4.19378 8.48839 3.99471L7.62523 1.22084Z" fill="#0D070B"/>
</svg>
