<svg width="22" height="20" viewBox="0 0 22 20" fill="none" xmlns="http://www.w3.org/2000/svg">
<path fill-rule="evenodd" clip-rule="evenodd" d="M9.5 0C4.52905 0 0.5 4.02905 0.5 9C0.5 12.7728 2.82083 16.003 6.11286 17.341C7.74328 18.9832 10.0028 20 12.5 20C17.471 20 21.5 15.971 21.5 11C21.5 7.22723 19.1792 3.99703 15.8872 2.65902C14.2567 1.0168 11.9972 0 9.5 0ZM3.5 11C3.5 11.6634 3.57175 12.3099 3.70791 12.9324C2.94554 11.8116 2.5 10.4579 2.5 9C2.5 5.13362 5.63362 2 9.5 2C9.98111 2 10.4509 2.04852 10.9047 2.14093C6.69484 2.89385 3.5 6.57348 3.5 11ZM12.5 4C8.63362 4 5.5 7.13362 5.5 11C5.5 14.8664 8.63362 18 12.5 18C16.3664 18 19.5 14.8664 19.5 11C19.5 7.13362 16.3664 4 12.5 4ZM12.7071 14.7073L17.7071 9.70725C18.0981 9.31625 18.0981 8.68425 17.7071 8.29325C17.3161 7.90225 16.6841 7.90225 16.2931 8.29325L11.9481 12.6383L9.15109 10.2413C8.73209 9.88125 8.10109 9.92925 7.74109 10.3503C7.38109 10.7692 7.43009 11.3993 7.84909 11.7592L11.3491 14.7593C11.5371 14.9202 11.7691 15.0002 12.0001 15.0002C12.2561 15.0002 12.5131 14.9012 12.7071 14.7073Z" fill="#84848A"/>
</svg>
