<svg width="24" height="25" viewBox="0 0 24 25" fill="none" xmlns="http://www.w3.org/2000/svg">
<path d="M7.96293 22.1006L7.90337 21.6041L7.96293 22.1006C8.40028 22.0481 8.83859 22.1905 9.16157 22.49L10.119 23.3779C11.0778 24.2671 12.56 24.2671 13.5188 23.3779L14.4762 22.49C14.7992 22.1905 15.2375 22.0481 15.6748 22.1006L16.9713 22.2561C18.2697 22.4119 19.4687 21.5407 19.7218 20.2577L19.9745 18.9767C20.0597 18.5445 20.3306 18.1717 20.7153 17.9571L21.8555 17.3209C22.9975 16.6837 23.4555 15.2741 22.9061 14.0874L22.3576 12.9025C22.1725 12.5028 22.1725 12.0419 22.3576 11.6422L22.9061 10.4573C23.4555 9.27061 22.9975 7.86102 21.8555 7.22387L20.7153 6.58769C20.3306 6.37308 20.0597 6.00023 19.9745 5.56807L19.7218 4.28705C19.4687 3.00407 18.2697 2.13289 16.9713 2.28867L15.6748 2.4442C15.2375 2.49667 14.7992 2.35426 14.4762 2.05474L13.5188 1.1669C12.56 0.277699 11.0778 0.2777 10.119 1.1669L9.16157 2.05474C8.83859 2.35426 8.40028 2.49667 7.96293 2.4442L6.66652 2.28867C5.36813 2.13289 4.16906 3.00407 3.91599 4.28705L3.6633 5.56807C3.57805 6.00023 3.30716 6.37308 2.9225 6.58769L1.78226 7.22387C0.640274 7.86102 0.182272 9.27061 0.731648 10.4573L1.28018 11.6422C1.46523 12.0419 1.46523 12.5028 1.28018 12.9025L0.731648 14.0874C0.182272 15.2741 0.640275 16.6837 1.78226 17.3209L2.9225 17.9571L3.16611 17.5204L2.9225 17.9571C3.30716 18.1717 3.57805 18.5445 3.6633 18.9767L3.91599 20.2577C4.16906 21.5407 5.36813 22.4119 6.66652 22.2561L7.96293 22.1006Z" fill="#8669FB" stroke="white"/>
<path fill-rule="evenodd" clip-rule="evenodd" d="M18.526 8.97867L10.8189 16.6858L6.11182 11.9787L7.52603 10.5645L10.8189 13.8573L17.1118 7.56445L18.526 8.97867Z" fill="white"/>
</svg>
