<svg width="156" height="175" viewBox="0 0 156 175" fill="none" xmlns="http://www.w3.org/2000/svg">
<path d="M4.74414 91.8377V122.961L124.744 51.9609H74.5802L4.74414 91.8377Z" fill="#F2F2F3"/>
<path d="M24.4869 92.8952C24.8326 93.4939 25.0125 94.1229 25.0267 94.7821C25.0352 95.4315 24.8427 96.0727 24.4491 96.7056C24.0555 97.3386 23.4366 97.8987 22.5926 98.386L21.032 99.287L23.174 102.997L20.6564 104.451L14.6894 94.1155L18.7676 91.761C19.592 91.285 20.371 91.0249 21.1046 90.9809C21.8382 90.9369 22.4919 91.083 23.0655 91.4192C23.6391 91.7554 24.1129 92.2474 24.4869 92.8952ZM21.2452 96.4943C21.7261 96.2166 22.0192 95.8969 22.1244 95.5352C22.2296 95.1734 22.1632 94.7864 21.9252 94.3742C21.6872 93.962 21.3853 93.711 21.0194 93.6213C20.6535 93.5315 20.2301 93.6255 19.7492 93.9031L18.38 94.6936L19.876 97.2848L21.2452 96.4943ZM33.0622 97.4452C32.2574 97.9098 31.4319 98.1574 30.5858 98.1879C29.7495 98.2127 28.9607 98.0138 28.2194 97.5911C27.4879 97.1628 26.8756 96.5217 26.3826 95.6678C25.8953 94.8238 25.6539 93.9751 25.6586 93.1218C25.6575 92.2586 25.8818 91.4683 26.3312 90.7508C26.7807 90.0333 27.4078 89.4422 28.2126 88.9775C29.0175 88.5128 29.8429 88.2653 30.6891 88.2348C31.5352 88.2043 32.3317 88.4053 33.0787 88.8378C33.82 89.2604 34.4343 89.8938 34.9216 90.7378C35.409 91.5819 35.6482 92.4384 35.6395 93.3071C35.6348 94.1605 35.4029 94.9487 34.9436 95.6719C34.4942 96.3894 33.867 96.9805 33.0622 97.4452ZM31.8042 95.2663C32.2851 94.9886 32.5904 94.5768 32.7201 94.0308C32.8597 93.4791 32.7396 92.8744 32.3599 92.2168C31.9803 91.5592 31.5216 91.1501 30.9839 90.9894C30.456 90.8231 29.9516 90.8788 29.4706 91.1564C28.9799 91.4398 28.6746 91.8516 28.5547 92.3919C28.4291 92.9225 28.559 93.5214 28.9443 94.1888C29.324 94.8464 29.7729 95.2612 30.2909 95.4333C30.8188 95.5996 31.3233 95.5439 31.8042 95.2663ZM36.4859 85.9087C36.5102 85.3843 36.6704 84.8796 36.9662 84.3947C37.2621 83.9098 37.6996 83.5002 38.2786 83.1659C38.9559 82.7749 39.6685 82.5925 40.4164 82.6187C41.1644 82.6449 41.8796 82.8863 42.562 83.3429C43.2542 83.7939 43.844 84.4414 44.3314 85.2855C44.8187 86.1296 45.0874 86.969 45.1375 87.8038C45.1918 88.6231 45.0461 89.3681 44.7004 90.0388C44.3491 90.6996 43.8349 91.2256 43.1576 91.6166C42.5884 91.9452 42.0149 92.1193 41.4372 92.1387C40.8694 92.1525 40.3551 92.0437 39.8944 91.8124L42.8184 96.877L40.3008 98.3305L33.2968 86.1992L35.8144 84.7457L36.4859 85.9087ZM41.7696 86.7645C41.407 86.1364 40.947 85.7476 40.3896 85.5983C39.8365 85.4334 39.3047 85.4984 38.7943 85.793C38.2937 86.082 37.9716 86.5101 37.8279 87.0773C37.6941 87.6388 37.8085 88.2336 38.1712 88.8617C38.5338 89.4899 38.9917 89.8864 39.5449 90.0512C40.1079 90.2103 40.6397 90.1454 41.1403 89.8564C41.6409 89.5674 41.963 89.1393 42.1066 88.5722C42.2446 87.9952 42.1323 87.3927 41.7696 86.7645ZM50.8123 76.0866L55.5553 84.3017L53.0377 85.7552L52.3917 84.6363C52.3462 85.1468 52.1678 85.6424 51.8564 86.1232C51.5493 86.5884 51.1307 86.9741 50.6006 87.2801C49.9725 87.6427 49.3386 87.8255 48.699 87.8284C48.0537 87.8214 47.4456 87.6294 46.8746 87.2524C46.3036 86.8754 45.8113 86.3286 45.3976 85.6121L42.6266 80.8126L45.1294 79.3676L47.7049 83.8285C48.0223 84.3782 48.4111 84.7229 48.8714 84.8629C49.3317 85.0028 49.8023 84.9339 50.2832 84.6563C50.774 84.3729 51.0738 83.997 51.1828 83.5284C51.2918 83.0598 51.1876 82.5507 50.8702 82.001L48.2947 77.5401L50.8123 76.0866ZM53.0022 71.2496L59.2922 82.1442L56.7747 83.5977L50.4847 72.7031L53.0022 71.2496ZM57.6472 77.5976C57.1599 76.7535 56.8891 75.9218 56.8348 75.1025C56.7904 74.2775 56.9438 73.5346 57.2951 72.8738C57.6464 72.2129 58.1607 71.687 58.8379 71.296C59.417 70.9616 59.9905 70.7876 60.5583 70.7738C61.136 70.7544 61.6531 70.868 62.1097 71.1148L61.4382 69.9518L63.9557 68.4983L68.6987 76.7134L66.1812 78.1669L65.5097 77.0038C65.4853 77.5282 65.3203 78.0358 65.0146 78.5263C64.7188 79.0112 64.2813 79.4208 63.7022 79.7552C63.0348 80.1405 62.3271 80.3201 61.5791 80.2939C60.8255 80.2579 60.1026 80.0144 59.4103 79.5634C58.7223 79.0969 58.1345 78.4417 57.6472 77.5976ZM63.8097 74.0593C63.447 73.4312 62.9842 73.0375 62.4212 72.8783C61.868 72.7135 61.3411 72.7756 60.8406 73.0646C60.34 73.3536 60.0179 73.7817 59.8742 74.3488C59.7347 74.9005 59.8463 75.4904 60.2089 76.1186C60.5716 76.7467 61.0323 77.1481 61.5912 77.3228C62.1542 77.4819 62.686 77.417 63.1866 77.128C63.6871 76.839 64.0043 76.4138 64.1382 75.8523C64.2819 75.2851 64.1724 74.6875 63.8097 74.0593ZM65.9613 66.2018C65.5196 66.4568 65.0828 66.5389 64.6508 66.448C64.223 66.3417 63.8986 66.0971 63.6776 65.7143C63.4509 65.3217 63.4013 64.9185 63.5288 64.5047C63.6605 64.0753 63.9471 63.7332 64.3888 63.4782C64.8206 63.2288 65.2505 63.1573 65.6783 63.2637C66.1103 63.3545 66.4396 63.5962 66.6662 63.9888C66.8872 64.3716 66.9319 64.7777 66.8003 65.207C66.6728 65.6209 66.3931 65.9525 65.9613 66.2018ZM67.7057 66.3332L72.4487 74.5483L69.9312 76.0018L65.1882 67.7867L67.7057 66.3332ZM72.2493 65.5356C72.283 64.9141 72.4471 64.3482 72.7414 63.838C73.0301 63.318 73.4444 62.9022 73.9842 62.5905L75.5227 65.2553L74.8307 65.6548C74.2026 66.0175 73.8108 66.4269 73.6554 66.883C73.4943 67.3294 73.6093 67.8911 74.0003 68.5684L76.2018 72.3815L73.6842 73.835L68.9412 65.6199L71.4588 64.1664L72.2493 65.5356ZM84.6886 61.8282C84.8246 62.0637 84.9516 62.3176 85.0694 62.5898L79.3719 65.8793C79.7058 66.367 80.0944 66.6661 80.5377 66.7766C80.9852 66.8716 81.4199 66.7973 81.8419 66.5536C82.4701 66.1909 82.7539 65.6738 82.6932 65.0021L85.3727 63.4551C85.547 64.0743 85.5772 64.7046 85.4634 65.3461C85.3594 65.982 85.1083 66.5784 84.7101 67.1355C84.312 67.6925 83.7792 68.1637 83.1118 68.549C82.307 69.0137 81.4913 69.2556 80.6648 69.2747C79.8383 69.2939 79.0642 69.0865 78.3426 68.6525C77.6209 68.2185 77.0136 67.5746 76.5206 66.7207C76.0276 65.8668 75.7686 65.0217 75.7438 64.1854C75.7288 63.3434 75.9363 62.5693 76.3661 61.8631C76.7959 61.1569 77.4181 60.5687 78.2328 60.0984C79.0278 59.6394 79.8308 59.3982 80.6418 59.3749C81.4528 59.3516 82.2086 59.55 82.9091 59.97C83.6194 60.3843 84.2126 61.0037 84.6886 61.8282ZM81.7297 62.6532C81.4804 62.2213 81.1348 61.9628 80.693 61.8776C80.2512 61.7924 79.8095 61.8773 79.3678 62.1323C78.9458 62.376 78.6584 62.7055 78.5056 63.1209C78.3626 63.5306 78.3871 63.981 78.5791 64.4722L81.7297 62.6532Z" fill="#8669FB"/>
</svg>
