<svg width="10" height="16" viewBox="0 0 10 16" fill="none" xmlns="http://www.w3.org/2000/svg">
<path fill-rule="evenodd" clip-rule="evenodd" d="M5 0.5C4.58579 0.5 4.25 0.835787 4.25 1.25V2.04279C3.71329 2.10629 3.22036 2.24043 2.77123 2.44523C2.12028 2.72792 1.61792 3.11661 1.26415 3.61131C0.910377 4.10601 0.733491 4.65018 0.733491 5.24382C0.733491 5.99293 0.924528 6.60071 1.3066 7.06714C1.70283 7.51944 2.16981 7.86572 2.70755 8.10601C3.13034 8.27926 3.64449 8.45251 4.25 8.62576V12.2549C3.88934 12.1638 3.5733 12.0176 3.30189 11.8163C2.82075 11.4488 2.55189 10.9753 2.49528 10.3958H0.5C0.542453 11.1025 0.768868 11.7314 1.17925 12.2827C1.58962 12.8198 2.14858 13.2438 2.85613 13.5548C3.28669 13.7354 3.75132 13.8611 4.25 13.9318V14.75C4.25 15.1642 4.58579 15.5 5 15.5C5.41421 15.5 5.75 15.1642 5.75 14.75V13.9826C6.38374 13.9369 6.95449 13.8014 7.46227 13.576C8.11321 13.2792 8.61557 12.8763 8.96934 12.3675C9.32311 11.8587 9.5 11.2862 9.5 10.6502C9.48585 9.94346 9.28774 9.37103 8.90566 8.93286C8.53774 8.4947 8.09198 8.16961 7.5684 7.9576C7.09144 7.75159 6.4853 7.54558 5.75 7.33957V3.71801C6.13031 3.80574 6.45342 3.96098 6.71934 4.18375C7.17217 4.55124 7.41981 5.03887 7.46227 5.64664H9.39387C9.33726 4.5159 8.91274 3.62544 8.12028 2.97527C7.48789 2.45641 6.6978 2.14459 5.75 2.03979V1.25C5.75 0.835786 5.41421 0.5 5 0.5ZM4.25 3.68886C3.86815 3.75689 3.54504 3.88652 3.28066 4.07774C2.87028 4.37456 2.66509 4.76325 2.66509 5.24382C2.66509 5.62544 2.78538 5.94346 3.02594 6.19788C3.28066 6.43816 3.59198 6.63604 3.95991 6.79152C4.04892 6.82445 4.14562 6.85853 4.25 6.89376V3.68886ZM5.75 9.0442V12.3378C6.24631 12.2773 6.65433 12.1247 6.97406 11.8799C7.39859 11.5548 7.61085 11.1449 7.61085 10.6502C7.61085 10.1413 7.38443 9.76678 6.9316 9.5265C6.64025 9.36281 6.24638 9.20204 5.75 9.0442Z" fill="#0D070B"/>
</svg>
