<svg width="401" height="400" viewBox="0 0 401 400" fill="none" xmlns="http://www.w3.org/2000/svg">
<path fill-rule="evenodd" clip-rule="evenodd" d="M221.084 349.977L221.07 350.001V349.971L221.084 349.977ZM221.084 349.977C221.185 349.803 221.287 349.631 221.389 349.459L221.393 349.453C221.608 349.088 221.824 348.724 222.03 348.351C224.46 343.951 223.34 339.181 219.17 336.351C216.81 334.751 214.17 333.951 211.34 333.581C210.285 333.445 209.227 333.32 208.169 333.194C204.544 332.765 200.913 332.334 197.36 331.491C187.39 329.141 179.22 323.751 172.31 316.331C170.24 314.111 168.37 311.711 166.65 309.201C161.93 302.291 160.3 294.581 161.3 286.391C163.02 272.271 170.87 262.191 182.73 254.891C183.213 254.591 183.707 254.307 184.201 254.023L184.201 254.023L184.202 254.023C185.027 253.548 185.851 253.075 186.62 252.531C192.27 248.561 198.57 246.181 205.26 244.671C215.05 242.461 224.92 241.171 234.98 241.611C237.7 241.731 240.39 242.111 243.07 242.551C245.65 242.971 247.95 243.971 250.01 245.581C252.67 247.651 255.1 249.941 257.18 252.611C265.24 262.991 269.98 274.821 272.43 287.631C273.59 293.691 274.17 299.811 273.88 305.981C273.53 313.221 272.28 320.261 268.69 326.691C267.98 327.961 267.7 329.241 268.64 330.501C269.61 331.811 270.97 331.681 272.34 331.381C272.046 332.295 271.33 332.781 270.611 333.268L270.61 333.268C270.473 333.361 270.335 333.454 270.2 333.551C269.543 334.02 268.881 334.482 268.219 334.945L268.218 334.946C266.524 336.13 264.831 337.314 263.22 338.601C260.42 340.851 260.53 344.651 263.37 346.821C265.1 348.141 267.09 348.591 269.25 348.221C271.597 347.823 273.693 346.763 275.776 345.71L276.13 345.531C276.416 345.386 276.701 345.241 276.985 345.096C279.406 343.863 281.823 342.632 284.48 341.961C291.43 340.211 297.78 341.111 303.21 346.171C304.26 347.151 305.4 348.031 306.79 348.511C307.82 348.871 308.8 348.991 309.77 348.361C312.23 346.751 314.61 347.191 316.95 348.641C318.44 349.56 318.46 349.541 319.868 348.202L319.87 348.201C319.88 348.281 319.894 348.361 319.907 348.44L319.908 348.442C319.934 348.598 319.96 348.752 319.96 348.911C320.04 351.284 319.017 351.951 316.89 350.911C316.07 350.501 315.22 350.111 314.54 351.041C313.88 351.951 314.45 352.711 315.06 353.381C316.32 354.771 317.93 355.661 319.61 356.441C320.57 356.881 321.45 357.391 322.04 358.311C322.92 359.661 322.72 360.661 321.34 361.511C320.28 362.161 319.12 362.311 317.88 362.181C315.861 361.973 313.866 361.631 311.872 361.288C311.268 361.184 310.664 361.081 310.06 360.981C303.56 359.901 296.99 359.681 290.45 360.181C289.345 360.265 288.24 360.345 287.134 360.425L287.133 360.425L287.132 360.425H287.132C281.143 360.86 275.147 361.295 269.23 362.351L268.849 362.418C265.905 362.935 262.955 363.453 260.07 364.211C257.13 364.981 254.22 364.811 251.27 364.581C240.03 363.711 228.78 362.931 217.5 363.771C214.87 363.961 212.25 364.271 209.63 364.611C199.72 365.901 189.84 365.701 180.03 363.781C177.569 363.302 175.153 362.611 172.74 361.92L172.74 361.92L172.74 361.92L172.739 361.92L172.738 361.92C171.926 361.687 171.114 361.455 170.3 361.231C169.22 360.931 168.19 360.491 167.25 359.851C164.59 358.051 164.19 356.451 165.67 353.341C166 354.781 166.99 355.661 168.23 356.311C169.75 357.111 171.39 357.371 173.07 357.461C174.302 357.523 175.515 357.397 176.729 357.27C177.258 357.215 177.788 357.16 178.32 357.121C183.533 356.738 188.602 357.729 193.668 358.72L193.98 358.781C194.439 358.871 194.898 358.962 195.357 359.054C200.844 360.146 206.315 361.235 211.99 360.451L212.289 360.409L212.515 360.378C216.06 359.885 219.589 359.395 222.81 357.661C224.02 357.011 225.14 356.261 225.97 355.151C227.39 353.241 226.94 351.781 224.79 350.781C224.172 350.492 223.519 350.421 222.869 350.351C222.262 350.285 221.657 350.219 221.084 349.977ZM260.1 267.371C261.24 269.791 261.61 272.401 261.77 274.941L261.78 274.931C261.62 278.461 260.85 281.651 257.6 283.421C254.3 285.221 251.02 284.431 248.07 282.501C245.397 280.757 243.124 278.504 240.861 276.262L240.86 276.26L240.859 276.26C240.397 275.801 239.935 275.344 239.47 274.891C236.77 272.261 233.88 269.901 230.85 267.661C225.82 263.951 220.07 262.581 213.99 262.231C213.087 262.18 212.184 262.142 211.28 262.103C209.15 262.013 207.02 261.923 204.9 261.671C203.22 261.461 201.58 261.141 200.03 260.491C197.35 259.361 196.93 257.331 198.93 255.231C201.48 252.531 204.76 250.991 208.23 250.001C221.02 246.341 233.65 246.291 245.79 252.411C252.28 255.681 257 260.811 260.1 267.371ZM262.7 301.571C259.93 300.491 258.33 297.951 258.41 294.201C258.34 292.281 259.08 290.311 260.65 288.691C262.35 286.931 264.03 287.021 265.41 289.001C267.32 291.731 267.86 294.831 267.53 298.091C267.43 299.131 266.94 300.061 266.18 300.821C265.18 301.811 264.07 302.101 262.7 301.571ZM238.836 352.887C238.59 352.911 238.362 352.934 238.16 352.971V352.951C236.25 352.841 234.66 352.671 233.43 351.471C232.73 350.791 232.65 350.121 233.54 349.511C235.88 347.911 238.37 347.541 240.99 348.721C241.79 349.081 242.64 349.591 242.59 350.601C242.54 351.591 241.69 352.011 240.88 352.411C240.192 352.754 239.458 352.826 238.836 352.887ZM357.98 358.801C358.82 358.791 359.06 358.261 358.73 357.491C355.99 357.591 353.39 356.931 350.83 356.101L350.747 356.073C349.688 355.721 348.518 355.332 348.43 353.871C344.93 353.461 343.03 353.531 341.55 354.131C341.703 354.216 341.851 354.303 341.997 354.39C342.349 354.598 342.69 354.799 343.05 354.941C347.06 356.481 351.13 357.821 355.37 358.571C356.23 358.721 357.11 358.821 357.98 358.801ZM360.97 376.061C358.833 375.715 357.332 374.864 355.71 373.944L355.709 373.944C355.358 373.744 355.001 373.542 354.63 373.341C357.54 373.281 358.73 373.781 360.97 376.061ZM69.0002 366.501H60.0002L54.0002 369.001V373.501H58.0002C61.6669 372.834 69.0002 370.501 69.0002 366.501Z" fill="#FFA826"/>
<path fill-rule="evenodd" clip-rule="evenodd" d="M323.619 354.431L323.63 354.438L323.633 354.439C325.096 355.344 326.551 356.244 327.99 357.171C329.14 357.911 330.16 358.811 330.92 359.971C333.06 363.231 332.09 367.141 328.65 368.971C327.37 369.651 325.97 369.961 324.51 370.031C320.49 370.231 316.54 369.781 312.62 368.881C308.18 367.861 303.7 367.161 299.16 366.661C293.47 366.031 288.06 367.051 282.6 368.341C279.002 369.189 275.465 370.247 271.926 371.304L271.925 371.305L271.924 371.305L271.922 371.305L271.921 371.306L271.92 371.306L271.918 371.307L271.917 371.307L271.916 371.307L271.915 371.308L271.913 371.308L271.912 371.308L271.911 371.309L271.909 371.309L271.908 371.309L271.907 371.31L271.905 371.31L271.904 371.311L271.903 371.311L271.901 371.311L271.9 371.312L271.899 371.312L271.897 371.312L271.896 371.313C269.858 371.922 267.82 372.531 265.77 373.101C256.91 375.561 247.95 375.76 238.89 374.651C238.2 374.565 237.51 374.477 236.821 374.389L236.816 374.389C233.622 373.981 230.431 373.574 227.2 373.451C221.246 373.221 215.511 374.46 209.764 375.702L209.753 375.705C209.249 375.814 208.745 375.923 208.24 376.031C203.94 376.951 199.64 377.871 195.25 378.261C187.42 378.961 179.77 377.741 172.18 376.071C168.12 375.181 164.06 374.281 160.06 373.151C153.24 371.221 146.52 371.381 139.72 373.251C137.95 373.74 136.205 374.307 134.459 374.875L134.459 374.875C132.104 375.64 129.748 376.406 127.33 376.981C123.23 377.951 119.1 378.141 114.94 377.741C112.1 377.461 109.54 376.341 107.23 374.671C105.56 373.451 104.45 371.841 103.94 369.811C103.47 367.961 103.44 367.951 101.58 368.281C96.6202 369.161 91.7002 368.851 86.8402 367.661C85.1302 367.241 83.4902 366.641 82.0602 365.541C77.8702 362.321 77.0902 357.861 80.1602 353.571C82.1702 350.761 84.6102 348.331 87.6602 346.601C87.9424 346.442 88.2246 346.28 88.4987 346.122C88.6908 346.012 88.8789 345.904 89.0602 345.801C88.9998 345.137 88.6209 345.15 88.2709 345.162H88.2707H88.2704H88.2701H88.2699H88.2696H88.2694H88.2691H88.2689H88.2686H88.2684H88.2681H88.2679H88.2676H88.2674H88.2671H88.2669C88.1543 345.166 88.0449 345.17 87.9502 345.151C86.9302 344.931 85.9202 344.711 84.9802 344.261C82.2702 342.961 81.0802 340.471 81.7602 337.541C82.4302 334.651 84.2202 332.561 86.5402 330.871C89.3502 328.831 92.5102 327.521 95.7802 326.391C98.022 325.615 100.255 324.816 102.487 324.017L102.489 324.016L102.491 324.015L102.493 324.015L102.494 324.014L102.496 324.013L102.498 324.013L102.5 324.012L102.502 324.012L102.504 324.011L102.505 324.01L102.507 324.01L102.509 324.009L102.511 324.008L102.513 324.008L102.515 324.007L102.516 324.006L102.518 324.006L102.52 324.005L102.522 324.004L102.524 324.004L102.526 324.003L102.527 324.003L102.529 324.002C104.943 323.138 107.356 322.274 109.78 321.441C110.86 321.071 111.38 320.561 111.15 319.381C111.03 318.761 111.04 318.101 111.1 317.471C111.17 316.611 110.88 316.021 110.24 315.401C105.87 311.221 104.27 306.101 105.31 300.161C105.43 299.451 105.27 298.971 104.87 298.411C100.03 291.551 100.21 284.061 102.33 276.411C102.6 275.421 102.69 274.671 102.23 273.731C101.15 271.531 100.84 269.171 100.95 266.731C101.15 262.641 101.63 258.581 103.17 254.771C104.83 250.641 104.64 246.671 102.74 242.721C101.05 239.201 100.49 235.421 100.2 231.581C99.9702 228.561 100.51 225.701 101.96 223.021C102.51 222.021 102.75 221.081 102.31 219.861C95.9761 202.269 90.2997 184.458 84.6251 166.653L84.6249 166.652C83.661 163.628 82.6972 160.604 81.7302 157.581C72.5413 128.844 63.3624 100.108 54.1835 71.371L54.1802 71.3605C54.1423 71.241 54.0985 71.1168 54.0539 70.9902C53.8746 70.4813 53.682 69.935 53.8102 69.5105C54.2562 68.1038 53.7678 66.9399 53.2728 65.76C53.1907 65.5643 53.1084 65.3682 53.0302 65.1705C48.9102 54.8605 45.5002 44.3005 42.1802 33.7105C41.1202 30.3105 40.7102 26.8105 40.5202 23.2805C40.2702 18.4805 42.3502 14.9705 46.4502 12.6005C48.5302 11.4005 50.7302 10.4305 53.1402 10.0905C55.3802 9.78053 57.3802 10.2505 59.1802 11.7505C61.5202 13.7105 63.6902 15.8005 65.5602 18.2205C69.7602 23.6605 73.8902 29.1405 77.6102 34.9405C79.5242 37.9209 81.6017 40.8031 83.6799 43.6862L83.6799 43.6863C84.6419 45.0209 85.6041 46.3557 86.5502 47.7005C86.9802 48.3105 87.3902 48.8105 88.2502 48.7805C89.3102 48.7505 89.9502 49.4805 90.5602 50.2705C112.23 78.5159 133.577 107.004 154.926 135.493L154.926 135.494L154.93 135.499L154.933 135.503L154.937 135.508L154.941 135.513L154.944 135.518L154.948 135.522L154.951 135.527L154.955 135.532L154.958 135.537L154.962 135.541L154.966 135.546L154.969 135.551L154.973 135.556L154.976 135.56L154.98 135.565L154.983 135.57L154.987 135.575L154.991 135.579L154.994 135.584L154.998 135.589L155.001 135.594L155.005 135.598L155.008 135.603C162.724 145.899 170.439 156.196 178.17 166.481L178.17 166.481C181.15 170.441 184.13 174.401 186.69 178.651C187.09 179.311 187.45 179.781 188.32 179.771C188.934 179.766 189.55 179.805 190.167 179.844H190.167H190.167H190.168H190.168H190.168H190.168H190.168H190.168H190.168H190.169H190.169H190.169H190.169H190.169H190.169H190.169H190.169H190.17H190.17H190.17H190.17H190.17H190.17C191.071 179.901 191.971 179.958 192.86 179.881C195.28 179.661 197.01 180.601 198.39 182.511C200.4 185.301 202.35 188.121 204.14 191.061C205.79 193.761 208.08 195.641 211.1 196.611C211.401 196.707 211.702 196.804 212.002 196.901L212.006 196.902C213.605 197.416 215.204 197.931 216.81 198.411C221.32 199.741 224.98 202.361 228.1 205.791C228.142 205.836 228.184 205.882 228.227 205.928C228.624 206.358 229.048 206.817 229.21 207.341C229.85 209.421 231.33 210.311 233.26 211.171C236.86 212.781 239.84 215.401 242.43 218.381C243.92 220.101 244.9 222.111 245.07 224.421C245.12 225.121 245.19 225.601 246.07 225.721C247.88 225.971 249.28 227.081 250.61 228.241C252.87 230.221 254.63 232.571 255.81 235.331C256.94 237.971 257.4 240.701 256.42 243.491C256.17 244.201 256.18 244.631 256.78 245.131C267.49 254.111 272.74 266.251 276.44 279.261C279.2 288.951 280.21 298.851 279.56 308.911C279.37 311.781 279.09 314.651 278.42 317.451C278.15 318.601 278.33 319.181 279.43 319.671C287.88 323.381 296.53 326.331 305.77 327.351C306.235 327.402 306.7 327.452 307.165 327.503C311.782 328.004 316.404 328.506 320.91 329.751C323.23 330.391 325.47 331.201 327.46 332.621C329.38 334.001 330.52 335.841 330.91 338.161C331.21 339.961 330.74 341.491 329.32 342.671C328.77 343.131 328.21 343.581 327.62 343.991C325.64 345.371 324.21 347.071 323.95 349.601C323.834 350.742 323.225 351.681 322.613 352.625C322.431 352.905 322.249 353.185 322.08 353.471L322.1 353.491C322.607 353.805 323.113 354.118 323.619 354.431ZM174.96 169.561L174.972 169.563L174.988 169.567C175.001 169.57 175.014 169.573 175.026 169.577L175.03 169.571L174.96 169.561ZM172.047 165.259C173.276 166.642 174.396 167.904 174.93 169.591C174.951 169.604 174.971 169.618 174.992 169.632C173.555 171.939 173.83 173.019 176.09 173.951C176.244 174.014 176.403 174.067 176.564 174.12C176.632 174.143 176.701 174.167 176.77 174.191C180.44 175.511 181.02 175.991 183.38 179.731L183.338 179.743C181.484 180.298 179.777 180.81 178.01 179.421C177.15 178.741 176.07 178.301 175.03 177.911C173.66 177.391 173.21 177.661 172.67 179.021C172.64 179.091 172.61 179.171 172.61 179.251C172.38 181.841 170.78 182.781 168.38 183.171C166.454 183.477 164.575 184.074 162.707 184.668L162.704 184.669C162.439 184.753 162.175 184.837 161.91 184.921C160.77 185.281 159.76 185.231 158.69 184.731C158.081 184.447 157.45 184.213 156.82 183.98C156.25 183.768 155.681 183.558 155.13 183.311C154.13 182.861 153.49 183.171 152.91 184.021C152.18 185.081 151.58 186.211 151.15 187.411C150.74 188.541 150.08 189.241 148.95 189.711C147.628 190.256 146.346 190.885 144.901 191.593L144.9 191.593L144.893 191.597L144.885 191.601L144.884 191.601L144.879 191.604C144.264 191.905 143.62 192.221 142.93 192.551C143.231 191.799 143.516 191.102 143.786 190.439C144.297 189.186 144.759 188.055 145.19 186.911L145.27 186.698C145.884 185.058 146.502 183.408 147 181.721C147.47 180.141 147.27 179.811 145.81 179.121C143.43 177.991 140.97 177.071 138.48 176.201C137.43 175.831 136.83 176.071 136.39 177.061C135.71 178.591 135 180.111 134.28 181.621C134.189 181.809 134.118 182.01 134.046 182.213C133.852 182.764 133.65 183.337 133 183.761C132.695 183.174 132.391 182.591 132.089 182.009L132.084 182C131.398 180.68 130.716 179.37 130.03 178.061C129.66 177.341 129.79 176.671 130.16 176.011C130.7 175.031 130.44 174.261 129.42 173.911C127.301 173.181 126.537 171.472 125.727 169.658C125.504 169.161 125.278 168.656 125.02 168.161C126.347 168.218 127.518 168.551 128.657 168.875L128.657 168.875C129.294 169.057 129.922 169.235 130.56 169.361C132.99 169.841 133.22 169.811 134.2 167.531C135.05 165.561 135.81 163.541 136.5 161.501C137.1 159.711 136.93 159.401 135.24 158.841C134.341 158.544 133.432 158.281 132.523 158.017L132.523 158.017L132.523 158.017L132.523 158.017L132.522 158.017L132.522 158.017L132.522 158.017L132.522 158.017L132.522 158.017L132.522 158.017L132.521 158.017L132.521 158.017L132.521 158.017L132.521 158.017L132.521 158.017L132.52 158.017L132.52 158.017L132.52 158.017L132.52 158.017L132.52 158.017L132.52 158.017L132.519 158.016L132.519 158.016L132.519 158.016L132.519 158.016L132.518 158.016L132.518 158.016L132.518 158.016L132.517 158.016L132.517 158.016L132.517 158.016L132.516 158.016L132.516 158.016L132.516 158.015L132.515 158.015L132.515 158.015L132.515 158.015L132.514 158.015L132.514 158.015L132.514 158.015L132.513 158.015L132.513 158.015L132.513 158.015L132.512 158.015L132.512 158.014L132.512 158.014L132.512 158.014C131.432 157.702 130.352 157.389 129.29 157.021C128.16 156.631 127.44 156.931 126.89 157.901C126.358 158.836 125.822 159.769 125.287 160.699C124.947 161.29 124.608 161.88 124.27 162.471C124.172 162.639 124.094 162.82 124.013 163.006L124.013 163.006C123.805 163.484 123.582 163.999 122.97 164.431C122.23 163.011 121.51 161.641 120.79 160.271C120.409 159.537 120.685 158.907 120.959 158.28C121.066 158.035 121.173 157.791 121.24 157.541C121.52 156.511 121.54 155.461 120.32 155.231C117.838 154.772 117.005 152.891 116.162 150.986C116.105 150.858 116.048 150.729 115.99 150.601C115.946 150.5 115.887 150.402 115.826 150.302C115.64 149.997 115.444 149.673 115.64 149.191C116.759 149.38 117.833 149.749 118.91 150.119C119.536 150.335 120.164 150.55 120.8 150.731C122.63 151.251 122.82 151.221 123.55 149.581C124.39 147.691 125.09 145.731 125.58 143.711C125.79 142.851 125.75 142.191 124.73 141.821C124.252 141.645 123.778 141.461 123.303 141.276C121.772 140.681 120.242 140.085 118.6 139.811C117.08 139.561 116.59 139.771 116.05 141.201C115.637 142.287 115.268 143.392 114.899 144.496L114.898 144.498C114.714 145.05 114.53 145.601 114.34 146.151C113.761 146.289 113.608 145.916 113.462 145.562L113.462 145.561C113.429 145.481 113.397 145.402 113.36 145.331C112.894 144.437 112.436 143.535 111.978 142.633C111.749 142.182 111.52 141.731 111.29 141.281C110.99 140.701 110.74 140.131 111.17 139.491C111.8 138.531 111.47 137.831 110.52 137.361C108.554 136.394 107.776 134.63 106.933 132.721C106.756 132.318 106.575 131.91 106.38 131.501C107.73 131.493 108.846 131.872 109.922 132.237L109.923 132.237C110.337 132.378 110.746 132.517 111.16 132.631C113.42 133.251 113.52 133.231 114.38 131.141C114.855 129.985 115.295 128.825 115.735 127.663L115.735 127.662L115.735 127.662L115.735 127.661L115.736 127.661L115.736 127.66L115.736 127.66L115.736 127.66L115.736 127.659L115.736 127.659L115.737 127.658L115.737 127.658L115.737 127.657L115.737 127.657L115.737 127.656L115.738 127.656L115.738 127.655L115.738 127.655L115.738 127.655L115.738 127.654L115.738 127.654L115.739 127.653L115.739 127.653L115.739 127.652C115.919 127.178 116.098 126.705 116.28 126.231C116.58 125.471 116.44 124.951 115.64 124.471C113.69 123.301 111.54 122.721 109.37 122.201C108.45 121.981 107.86 122.361 107.51 123.241C106.961 124.652 106.388 126.046 105.779 127.529C105.59 127.99 105.397 128.459 105.2 128.941C104.412 127.995 103.937 126.993 103.474 126.015C103.29 125.628 103.109 125.245 102.91 124.871C102.68 124.444 102.828 124.068 102.976 123.693C103.001 123.629 103.027 123.565 103.05 123.501C103.16 123.201 103.285 122.908 103.41 122.616L103.41 122.615C103.535 122.323 103.66 122.03 103.77 121.731C104.14 120.751 103.97 119.811 102.8 119.791C100.13 119.741 99.2202 117.911 98.2702 115.901C97.3496 113.949 96.3621 112.035 95.3737 110.12C94.9341 109.269 94.4943 108.416 94.0602 107.561C94.0447 107.529 94.0291 107.499 94.0137 107.468L94.0133 107.468C93.7406 106.929 93.5152 106.484 94.4802 106.201C95.0602 106.031 94.6002 105.491 94.2602 105.431C92.8115 105.185 92.2676 104.117 91.7059 103.014C91.6511 102.906 91.5961 102.798 91.5402 102.691C87.1202 94.1905 82.5502 85.7705 77.8402 77.4205C77.4552 76.7407 77.0837 76.061 76.6762 75.3153L76.4002 74.8105C77.2588 74.5495 77.9428 74.8122 78.5982 75.0639C78.8969 75.1786 79.1896 75.291 79.4902 75.3505L79.5426 75.3609C81.4613 75.7409 81.5282 75.7542 82.4202 73.9405C82.6735 73.4139 82.7768 72.6805 82.7302 71.7405C82.025 71.6667 81.7972 72.1375 81.5726 72.6016C81.5233 72.7035 81.4742 72.8051 81.4202 72.9005L81.4147 72.9101C80.9691 73.6886 80.7446 74.081 80.4167 74.2094C80.0836 74.3399 79.6439 74.1982 78.7575 73.9126L78.7202 73.9005C78.523 73.8383 78.3258 73.77 78.1283 73.7015C77.5645 73.5061 76.9978 73.3098 76.4202 73.2505C75.5502 73.1605 75.1802 72.6605 74.8302 72.0005C73.1419 68.848 71.4472 65.7019 69.7615 62.5724L68.5002 60.2305C68.6642 59.6482 69.0973 59.4897 69.5181 59.3356C69.6104 59.3019 69.702 59.2683 69.7902 59.2305C75.0302 57.0205 80.4002 55.2705 86.0602 54.4705C87.3602 54.2905 88.1002 54.6205 88.8602 55.6605C92.1402 60.1805 95.4702 64.6805 98.8902 69.1005C99.7002 70.1405 99.7602 71.0705 99.2802 72.1205C98.8307 73.0974 98.5429 74.1209 98.2552 75.1438L98.2552 75.1439C98.0628 75.8278 97.8706 76.5114 97.6302 77.1805C97.3202 78.0305 97.6102 78.5805 98.4302 78.8605C98.8076 78.9926 99.193 79.1049 99.5788 79.2174C99.8063 79.2837 100.034 79.35 100.26 79.4205C102.4 80.0939 104.014 79.4239 105.1 77.4105C105.95 78.5375 106.788 79.6475 107.624 80.7545C108.717 82.2014 109.805 83.6431 110.91 85.1105C110.532 85.4588 110.193 85.3403 109.892 85.2353L109.892 85.2352C109.786 85.1985 109.686 85.1635 109.59 85.1505C108.71 85.0305 108.21 85.4005 107.97 86.1905C107.58 87.4905 107.21 88.8005 106.87 90.1105C106.62 91.0705 106.9 91.8205 107.8 92.3405C108.98 93.0205 110.2 93.5905 111.47 94.0905C112.61 94.5305 113.28 94.2505 113.71 93.1205C113.912 92.6121 114.165 92.1206 114.464 91.5409C114.623 91.2313 114.796 90.8965 114.98 90.5205C116.22 92.1405 117.27 93.5205 118.31 94.8905C118.63 95.3105 118.61 95.7305 118.43 96.2305C118.38 96.373 118.31 96.5137 118.24 96.6553C118.028 97.0799 117.813 97.513 118.12 98.0305C118.703 98.1806 118.893 97.8341 119.096 97.4643C119.244 97.1936 119.399 96.9104 119.72 96.8005L120.582 97.9363L120.605 97.967L120.629 97.9982L120.669 98.0509C124.478 103.072 128.327 108.144 132.38 113.481C131.857 113.298 131.374 113.124 130.915 112.959L130.915 112.959C129.989 112.625 129.166 112.328 128.33 112.081C128.264 112.061 128.193 112.037 128.118 112.011C127.682 111.859 127.135 111.669 126.93 112.361C126.758 112.915 127.278 113.114 127.675 113.266C127.715 113.281 127.754 113.296 127.79 113.311C129.35 113.931 130.91 114.541 132.51 115.031C133.55 115.351 134.33 115.871 134.98 116.761C136.63 119.011 138.34 121.231 140.09 123.411C140.67 124.131 140.87 124.761 140.36 125.551C140 126.105 139.895 126.74 139.791 127.37L139.791 127.37C139.712 127.843 139.634 128.312 139.45 128.741C138.91 129.991 139.25 130.641 140.42 131.131C141.226 131.464 142.021 131.824 142.817 132.185L142.817 132.185L142.817 132.185L142.817 132.185L142.817 132.185L142.817 132.185L142.817 132.185L142.818 132.185L142.818 132.185L142.818 132.185L142.818 132.185L142.818 132.185L142.818 132.185L142.818 132.185L142.818 132.185L142.819 132.186L142.819 132.186L142.819 132.186L142.819 132.186L142.819 132.186L142.819 132.186L142.819 132.186L142.82 132.186C143.405 132.451 143.991 132.716 144.58 132.971L144.608 132.983L144.652 133.002L144.679 133.014C144.714 133.03 144.75 133.046 144.787 133.063C145.202 133.25 145.7 133.475 145.93 133.331C147.25 132.485 147.804 133.285 148.349 134.072C148.448 134.215 148.547 134.358 148.65 134.491C149.721 135.848 150.772 137.225 151.872 138.666C152.344 139.285 152.825 139.915 153.32 140.561C152.444 140.539 151.791 140.234 151.176 139.947L151.176 139.946C150.949 139.84 150.727 139.737 150.5 139.651C149.53 139.281 148.97 139.571 148.58 140.441C148.55 140.511 148.51 140.581 148.47 140.651C146.31 144.661 146.56 145.381 150.74 147.011C151.79 147.421 152.851 147.812 153.916 148.205C154.2 148.31 154.485 148.415 154.77 148.521C156.224 149.061 157.474 148.694 158.52 147.421C160.527 150.063 162.522 152.7 164.578 155.416L165.432 156.546L166.48 157.931C165.682 157.938 165.069 157.699 164.489 157.474C164.284 157.394 164.084 157.316 163.88 157.251C161.96 156.631 161.86 156.671 161.11 158.631C160.59 159.971 160.09 161.321 159.71 162.701C159.23 164.461 159.49 164.921 161.06 165.761C161.915 166.216 162.766 166.679 163.617 167.142L163.619 167.143C164.729 167.747 165.84 168.352 166.96 168.941C168.95 169.991 169.23 169.881 170.08 167.731C170.351 167.047 170.603 166.354 170.884 165.583C171.018 165.216 171.158 164.831 171.31 164.421C171.558 164.708 171.805 164.986 172.047 165.259ZM177.81 172.711C177.101 171.678 176.362 170.675 175.37 169.905C175.392 170.021 175.376 170.155 175.359 170.291L175.359 170.292C175.352 170.348 175.345 170.404 175.34 170.461C175.21 172.001 176.03 172.741 177.81 172.711ZM272.32 331.391C270.94 331.691 269.59 331.821 268.62 330.511C267.68 329.241 267.96 327.961 268.67 326.701C272.26 320.261 273.51 313.221 273.86 305.991C274.16 299.82 273.57 293.701 272.41 287.641C269.96 274.831 265.22 263.001 257.16 252.621C255.09 249.951 252.66 247.661 249.99 245.591C247.92 243.991 245.62 242.981 243.05 242.561C240.37 242.121 237.68 241.741 234.96 241.621C224.9 241.181 215.03 242.461 205.24 244.681C198.55 246.191 192.25 248.571 186.6 252.541C185.827 253.083 185.007 253.556 184.186 254.029C183.691 254.314 183.196 254.599 182.71 254.901C170.85 262.201 163 272.281 161.28 286.401C160.28 294.591 161.91 302.301 166.63 309.211C168.35 311.721 170.22 314.121 172.29 316.341C179.2 323.761 187.37 329.151 197.34 331.501C200.907 332.34 204.552 332.774 208.191 333.207L208.191 333.207L208.191 333.207L208.192 333.207L208.192 333.207L208.193 333.207L208.193 333.208L208.193 333.208L208.194 333.208L208.194 333.208L208.195 333.208L208.195 333.208L208.196 333.208L208.196 333.208L208.196 333.208L208.197 333.208L208.197 333.208L208.198 333.209L208.198 333.209L208.198 333.209L208.199 333.209L208.199 333.209L208.2 333.209L208.2 333.209L208.201 333.209L208.202 333.209L208.203 333.209L208.204 333.209L208.205 333.21L208.206 333.21L208.206 333.21L208.207 333.21L208.208 333.21L208.209 333.21L208.21 333.21L208.211 333.21L208.212 333.21L208.213 333.21L208.214 333.21L208.215 333.211L208.216 333.211L208.217 333.211L208.217 333.211L208.218 333.211L208.219 333.211L208.22 333.211C209.255 333.334 210.289 333.458 211.32 333.591C214.15 333.951 216.79 334.76 219.15 336.361C223.32 339.19 224.45 343.961 222.01 348.361C221.803 348.734 221.588 349.098 221.372 349.463C221.265 349.645 221.157 349.827 221.05 350.011C220.898 350.121 220.747 350.232 220.595 350.343L220.583 350.352C219.323 351.277 218.06 352.203 216.52 352.631C213.57 353.441 210.59 353.98 207.52 353.521C205.572 353.23 203.629 352.911 201.684 352.592L201.682 352.591L201.679 352.591L201.677 352.591L201.675 352.59L201.673 352.59L201.671 352.589L201.669 352.589L201.667 352.589L201.665 352.588L201.663 352.588L201.66 352.588C200.538 352.403 199.415 352.219 198.29 352.041C189.74 350.681 181.17 349.741 172.5 350.901L172.454 350.907C170.009 351.235 167.568 351.562 165.66 353.371C164.19 356.471 164.59 358.071 167.24 359.881C168.18 360.521 169.21 360.961 170.29 361.261C171.1 361.484 171.908 361.715 172.718 361.946L172.718 361.946L172.718 361.946L172.719 361.946L172.719 361.947L172.719 361.947L172.719 361.947L172.72 361.947L172.72 361.947L172.72 361.947L172.721 361.947L172.721 361.947L172.721 361.947L172.721 361.947L172.722 361.947L172.722 361.948L172.722 361.948L172.722 361.948L172.723 361.948L172.723 361.948L172.723 361.948L172.724 361.948L172.724 361.948L172.724 361.948C175.142 362.639 177.564 363.332 180.02 363.811C189.83 365.731 199.7 365.931 209.62 364.641C212.23 364.301 214.86 363.991 217.49 363.801C228.77 362.961 240.02 363.751 251.26 364.611C254.21 364.841 257.12 365.01 260.06 364.241C262.766 363.53 265.528 363.038 268.289 362.547C268.599 362.491 268.91 362.436 269.22 362.381C275.141 361.326 281.132 360.891 287.111 360.456H287.111C288.221 360.376 289.331 360.295 290.44 360.211C296.98 359.711 303.55 359.931 310.05 361.011C310.292 361.051 310.534 361.091 310.776 361.132C311.128 361.192 311.481 361.252 311.833 361.313L311.838 361.314L311.843 361.315L311.847 361.315L311.852 361.316L311.857 361.317L311.862 361.318C313.856 361.661 315.851 362.003 317.87 362.211C319.11 362.341 320.27 362.191 321.33 361.541C322.71 360.691 322.91 359.691 322.03 358.341C321.44 357.431 320.55 356.921 319.6 356.471C317.92 355.701 316.31 354.801 315.05 353.411C314.44 352.741 313.87 351.991 314.53 351.071C315.21 350.131 316.06 350.531 316.88 350.941C319 351.987 320.023 351.321 319.95 348.941C319.95 348.782 319.924 348.628 319.898 348.472C319.884 348.392 319.87 348.312 319.86 348.231C320.25 346.501 320.91 344.901 322.09 343.531C322.848 342.651 323.761 341.962 324.677 341.27L324.677 341.27C324.97 341.049 325.262 340.828 325.55 340.601C327.47 339.071 327.54 337.811 325.68 336.221C324.7 335.381 323.56 334.851 322.32 334.451C318.51 333.221 314.55 332.621 310.61 332.201C303.52 331.431 296.63 329.881 289.91 327.571C285.58 326.091 281.4 324.23 277.26 322.081C277.111 322.439 276.969 322.789 276.829 323.133C276.501 323.94 276.188 324.713 275.83 325.471C275.657 325.835 275.489 326.204 275.322 326.572C274.534 328.302 273.748 330.03 272.33 331.391H272.32ZM225.06 211.131C222.52 207.211 219.18 204.921 215.07 203.761C212.92 203.151 210.72 202.751 208.52 202.361C206.65 202.031 205.04 201.211 203.58 200.061C201.68 198.561 200.05 196.831 198.82 194.731C198.416 194.035 198.008 193.34 197.599 192.645L197.599 192.645C196.51 190.794 195.421 188.941 194.41 187.051C193.6 185.531 192.51 184.871 190.78 184.891C186.21 184.931 181.68 185.261 177.22 186.271C166.48 188.701 156.49 193.101 146.66 197.931C146.641 197.94 146.621 197.949 146.602 197.958L146.599 197.959L146.598 197.959C146.291 198.1 145.942 198.261 145.97 198.851C150.53 201.361 153.39 205.441 155.56 210.081C156.61 212.321 157.6 214.581 158.58 216.851C159.82 219.731 160.57 222.731 160.74 225.881C160.748 226.024 160.749 226.171 160.749 226.319C160.752 226.935 160.754 227.58 161.27 228.161C166.16 225.081 171.26 222.671 176.61 220.731C185.4 217.551 194.37 214.971 203.49 212.961C210.44 211.431 217.5 210.601 225.06 211.141V211.131ZM167.09 241.431C169.52 239.911 171.61 238.751 173.79 237.781C186.33 232.221 199.31 228.111 212.87 225.931C220.95 224.631 229.08 224.261 237.24 225.171C237.806 225.232 238.361 225.363 238.916 225.494C239.805 225.704 240.695 225.914 241.63 225.841C241.633 225.774 241.638 225.713 241.645 225.657C241.648 225.633 241.65 225.61 241.653 225.587V225.587L241.653 225.586C241.669 225.456 241.682 225.353 241.65 225.271C240.25 221.961 238.15 219.161 235.2 217.121C232.26 215.091 228.7 214.761 225.35 214.921C217.69 215.281 210.12 216.591 202.58 218.041C188.86 220.681 176.15 225.891 164.12 232.891L164.072 232.918L164.04 232.937C164.019 232.949 163.997 232.961 163.975 232.973C163.932 232.997 163.888 233.021 163.845 233.044L163.79 233.074L163.79 233.074C163.298 233.339 162.79 233.614 162.48 234.201C164.65 236.131 166.61 238.121 167.09 241.441V241.431ZM173.4 251.391C175.53 250.001 177.57 248.781 179.72 247.751C195.19 240.361 211.53 236.911 228.65 237.101C235.31 237.171 241.87 238.041 248.23 240.061C249.273 240.389 250.296 240.787 251.417 241.222L251.418 241.223L251.419 241.223C251.898 241.409 252.396 241.603 252.92 241.801C252.44 237.211 250.91 233.421 247.42 230.601C246.55 229.901 245.51 229.511 244.35 229.361C242.36 229.101 240.37 229.041 238.37 229.001C225.09 228.761 212.11 230.711 199.3 234.101C190.17 236.521 181.27 239.511 172.89 243.931C172.702 244.029 172.512 244.125 172.32 244.221C171.523 244.62 170.71 245.027 170 245.721C171.39 247.421 172.42 249.291 173.38 251.401L173.4 251.391ZM82.8078 49.0602L82.8075 49.0597L82.8073 49.0594L82.8071 49.0591L82.8065 49.0583C82.6294 48.7998 82.4732 48.5718 82.3102 48.3505C78.2848 42.8671 74.0828 37.5209 69.88 32.1737L69.88 32.1737L69.8799 32.1736L69.8799 32.1736L69.8799 32.1735L69.8798 32.1735L69.8798 32.1735L69.8798 32.1734L69.8797 32.1734L69.8797 32.1733L69.8797 32.1733L69.8796 32.1732L69.8796 32.1732L69.8795 32.1731L69.8795 32.1731L69.8795 32.173L69.8794 32.173L69.8794 32.173L69.8794 32.1729L69.8793 32.1729L69.8793 32.1728L69.8793 32.1728L69.8792 32.1727L69.8791 32.1726L69.8791 32.1726L69.8791 32.1726L69.8791 32.1726L69.8791 32.1725L69.8791 32.1725L69.8791 32.1725L69.8791 32.1725L69.879 32.1725L69.879 32.1725L69.879 32.1725L69.879 32.1725L69.879 32.1725L69.879 32.1724L69.879 32.1724L69.879 32.1724L69.879 32.1724L69.8789 32.1724L69.8789 32.1724L69.8789 32.1724L69.8789 32.1724L69.8789 32.1724L69.8789 32.1723L69.8789 32.1723C66.7318 28.1683 63.5843 24.1638 60.5102 20.1005C59.5402 18.8205 58.3902 17.7205 57.1702 16.6805C55.8502 15.5605 54.7302 15.3805 53.5102 16.1205C52.4502 16.7605 52.0502 18.1405 52.5702 19.7405C52.9102 20.8005 53.3702 21.8205 53.8302 22.8405C56.0472 27.7298 58.5564 32.472 61.0692 37.2208C64.0761 42.9034 67.0879 48.5954 69.6102 54.5605C73.9202 52.3005 78.5002 50.9105 83.2302 49.6705C83.0725 49.4465 82.9356 49.2466 82.8092 49.0622L82.8078 49.0602ZM148.904 220.331L148.904 220.331C148.841 220.143 148.767 219.921 148.65 219.731C147.942 218.582 147.28 217.406 146.618 216.229C145.326 213.931 144.034 211.634 142.4 209.551C140.98 207.731 140.48 207.701 138.34 208.841C134.72 210.761 131.47 213.181 128.39 215.861C127.03 217.041 126.94 217.271 127.69 218.871C127.96 219.451 128.26 220.021 128.64 220.531C130.16 222.591 131.51 224.741 132.68 227.021C132.963 227.572 133.316 228.084 133.669 228.595C133.814 228.806 133.96 229.017 134.1 229.231C134.54 229.911 134.95 230.121 135.86 229.731C139.313 228.222 142.401 226.141 145.493 224.056L145.494 224.056L145.494 224.055L145.494 224.055L145.495 224.055L145.495 224.054L145.496 224.054L145.496 224.054L145.497 224.053L145.497 224.053L145.498 224.053L145.498 224.052L145.499 224.052L145.499 224.052L145.499 224.051L145.5 224.051L145.5 224.051L145.501 224.05L145.501 224.05L145.502 224.05L145.502 224.049L145.503 224.049L145.503 224.049L145.504 224.048L145.504 224.048C146.304 223.509 147.104 222.97 147.91 222.441C148.59 221.991 148.79 221.351 148.97 220.541V220.521C148.962 220.5 148.954 220.478 148.946 220.455L148.93 220.408L148.904 220.331ZM117.59 225.591C117.193 225.816 116.76 226.019 116.316 226.227C114.97 226.856 113.52 227.534 112.64 229.061C112.289 229.673 112.392 230.301 112.496 230.939C112.508 231.009 112.519 231.08 112.53 231.151C112.592 231.548 112.656 231.944 112.719 232.341C112.983 233.992 113.247 235.64 113.4 237.301C113.59 239.301 114.03 241.231 114.72 243.101C115.36 244.851 116.03 245.101 117.51 243.941C118.536 243.14 119.515 242.276 120.492 241.413L120.493 241.412L120.493 241.412L120.493 241.412L120.494 241.411L120.494 241.411L120.494 241.411L120.495 241.41L120.495 241.41L120.496 241.41L120.496 241.409L120.496 241.409L120.497 241.409L120.497 241.408L120.498 241.408L120.498 241.408L120.498 241.407L120.499 241.407L120.499 241.407L120.5 241.406L120.5 241.406L120.5 241.406L120.501 241.405L120.501 241.405L120.501 241.405C121.254 240.74 122.007 240.075 122.78 239.441C123.58 238.781 123.8 238.101 123.37 237.161C122.775 235.846 122.292 234.485 121.809 233.124C121.018 230.893 120.226 228.661 118.94 226.631C118.866 226.507 118.814 226.371 118.762 226.234C118.73 226.149 118.698 226.064 118.66 225.981C118.51 225.651 118.23 225.541 117.58 225.591H117.59ZM141.89 191.651C142.235 189.372 143.169 187.382 144.104 185.388C144.852 183.793 145.601 182.197 146.05 180.451L145.287 180.141L144.138 179.676C142.197 178.891 140.271 178.111 138.35 177.321C137.57 177.001 137.21 177.321 136.92 178.041C136.519 179.047 136.073 180.035 135.628 181.02L135.628 181.02L135.628 181.02L135.628 181.02L135.628 181.021L135.628 181.021L135.628 181.021L135.627 181.021L135.627 181.021L135.627 181.021L135.627 181.021L135.627 181.022L135.627 181.022L135.627 181.022L135.627 181.022L135.627 181.022L135.627 181.022L135.627 181.022L135.627 181.022L135.627 181.023L135.627 181.023L135.627 181.023L135.626 181.023L135.626 181.023C135.484 181.339 135.341 181.655 135.2 181.971C133.741 185.252 133.759 185.29 135.188 188.354L135.28 188.551C135.85 189.771 136.69 190.411 137.91 190.701C138.59 190.865 139.269 191.026 139.992 191.198C140.587 191.339 141.212 191.488 141.89 191.651ZM133.549 159.49L133.548 159.49L133.548 159.49C131.933 159.101 130.357 158.722 128.83 158.171C128.44 158.031 128 158.051 127.83 158.521C127.159 160.426 126.123 162.128 125.083 163.835L125.083 163.835L125.083 163.835L125.083 163.836L125.082 163.836L125.082 163.836L125.082 163.837L125.082 163.837L125.082 163.838L125.081 163.838L125.081 163.838L125.081 163.839L125.081 163.839L125.08 163.839L125.08 163.84L125.08 163.84L125.08 163.84L125.079 163.841L125.079 163.841L125.079 163.842L125.079 163.842L125.079 163.842L125.078 163.843L125.078 163.843L125.078 163.843C124.755 164.373 124.432 164.903 124.12 165.441C123.7 166.171 123.94 166.581 124.81 166.761C126.99 167.201 129.16 167.681 131.32 168.191C132.07 168.371 132.47 168.251 132.74 167.441C133.56 164.951 134.62 162.551 136.03 160.121V160.111C135.194 159.885 134.366 159.686 133.549 159.49ZM168.956 167.041L168.963 167.027L168.967 167.016L168.971 167.007C169.253 166.348 169.514 165.736 169.78 165.121C170.58 163.261 170.18 161.581 168.36 160.811C167.353 160.384 166.362 159.918 165.351 159.443C164.393 158.992 163.416 158.533 162.39 158.091L160.26 164.191L160.636 164.356C163.308 165.529 165.949 166.688 168.49 168.131C168.653 167.75 168.807 167.389 168.956 167.042L168.956 167.041ZM114.93 147.421L122.52 149.951C122.711 149.326 122.891 148.71 123.07 148.101L123.071 148.099L123.071 148.099L123.071 148.099L123.071 148.098C123.464 146.759 123.847 145.455 124.3 144.171C124.64 143.201 124.28 142.901 123.45 142.651C121.78 142.141 120.11 141.591 118.47 140.991C117.56 140.651 117.17 140.991 116.89 141.821C116.468 143.074 116.021 144.318 115.551 145.629L115.551 145.629C115.342 146.211 115.128 146.806 114.91 147.421H114.93ZM106.04 130.081C107.333 130.423 108.574 130.753 109.798 131.079L109.807 131.081L109.843 131.091L109.863 131.096C110.548 131.278 111.228 131.459 111.91 131.641C112.49 131.791 112.97 131.861 113.21 131.091C113.542 130.065 113.9 129.05 114.259 128.033L114.26 128.031C114.485 127.393 114.71 126.754 114.93 126.111C115.11 125.591 114.99 125.231 114.38 125.041C112.78 124.551 111.18 124.041 109.61 123.461C108.93 123.211 108.57 123.371 108.33 124.011C107.704 125.688 107.071 127.358 106.426 129.063L106.04 130.081ZM149.34 140.851C149.233 141.162 149.137 141.469 149.042 141.771C148.844 142.4 148.654 143.006 148.39 143.581C147.99 144.461 148.25 144.811 149.11 145.141C150.537 145.687 151.946 146.287 153.355 146.887C154.059 147.187 154.764 147.487 155.47 147.781C155.573 147.822 155.678 147.881 155.785 147.941C156.164 148.155 156.559 148.377 156.91 147.831C156.964 147.748 157.024 147.663 157.086 147.575C157.405 147.121 157.767 146.608 157.44 146.131C157.234 145.834 157.042 145.521 156.851 145.207C156.216 144.168 155.576 143.122 154.37 142.631C153.282 142.186 152.16 141.811 150.99 141.42L150.99 141.42L150.99 141.42C150.451 141.24 149.901 141.056 149.34 140.861V140.851ZM108.587 87.5563C108.693 87.2078 108.805 86.8421 108.926 86.4532C109.478 86.6963 110.058 86.7947 110.623 86.8905L110.623 86.8906C111.652 87.0653 112.633 87.2317 113.31 88.2505C113.99 89.2705 113.7 91.7605 112.74 92.5005C112.403 92.759 112.14 92.6126 111.883 92.4697L111.883 92.4696C111.812 92.4301 111.742 92.3909 111.67 92.3605C111.42 92.261 111.173 92.1406 110.926 92.02L110.926 92.0199C110.304 91.7162 109.68 91.4119 109 91.4405C107.72 91.4905 107.45 91.0305 107.84 89.9005C108.095 89.1638 108.325 88.412 108.587 87.5563ZM100.01 72.8665L100.012 72.8578L100.013 72.8536L100.014 72.8513C100.144 72.3371 100.281 71.7972 100.43 71.2229C100.886 71.8249 101.296 72.3695 101.678 72.8773L101.683 72.8841L101.684 72.8849C102.317 73.7268 102.875 74.4675 103.44 75.2005C103.8 75.6605 103.91 76.1005 103.74 76.7205C103.1 79.0605 103.04 79.1205 100.7 78.3105C100.33 78.1805 99.9502 78.0605 99.5702 77.9605C98.8802 77.7805 98.7802 77.4005 98.9802 76.7205C99.3389 75.5124 99.6495 74.2882 100.01 72.8674L100.01 72.8665ZM141.131 126.088C141.252 125.818 141.377 125.539 141.506 125.249C141.998 125.888 142.474 126.506 142.94 127.111C143.951 128.424 144.913 129.673 145.87 130.931C146.12 131.251 146.33 131.621 145.92 131.971C145.648 132.197 145.392 132.07 145.131 131.94C145.104 131.927 145.077 131.914 145.05 131.901L144.79 131.779L144.296 131.548L144.296 131.547L144.296 131.547L144.296 131.547L144.295 131.547L144.295 131.547L144.295 131.547L144.295 131.547L144.295 131.547L144.294 131.547L144.294 131.547L144.294 131.547L144.294 131.546L144.293 131.546L144.293 131.546L144.293 131.546L144.293 131.546L144.293 131.546L144.292 131.546L144.292 131.546L144.292 131.546L144.292 131.546L144.292 131.546L144.291 131.545C143.026 130.952 141.764 130.361 140.48 129.811C139.9 129.561 139.78 129.191 139.99 128.691C140.337 127.857 140.709 127.029 141.127 126.097L141.127 126.097L141.127 126.097L141.127 126.097L141.131 126.088ZM154.08 184.071L154.023 184.18C153.374 185.43 152.745 186.639 152.24 188.311C152.967 188.013 153.67 187.757 154.356 187.507L154.357 187.507L154.357 187.507L154.357 187.507L154.357 187.507L154.358 187.507L154.358 187.507L154.358 187.507L154.358 187.507L154.358 187.507L154.358 187.507L154.358 187.507L154.358 187.507L154.359 187.507L154.359 187.506C155.748 187.001 157.069 186.52 158.38 185.771L157.709 185.505C156.411 184.99 155.278 184.541 154.08 184.071ZM138.52 195.501L142.63 192.761C141.662 192.623 140.799 192.355 139.957 192.094C138.895 191.764 137.866 191.444 136.7 191.411L138.52 195.511V195.501ZM173.978 181.612C173.649 181.674 173.318 181.736 172.981 181.808C173.103 180.599 173.518 179.751 173.979 178.808C174.019 178.726 174.06 178.644 174.1 178.561C174.337 178.695 174.569 178.833 174.8 178.97C175.698 179.504 176.591 180.035 177.8 180.401C176.463 181.144 175.239 181.375 173.978 181.612L173.978 181.612ZM100.81 120.451C100.979 121.294 101.321 121.862 101.683 122.462L101.683 122.462C101.729 122.538 101.774 122.613 101.82 122.691C102.454 121.517 102.117 120.771 100.81 120.451ZM119.59 157.711C120.137 156.717 119.83 156.091 118.67 155.831C118.78 156.561 119.12 157.161 119.59 157.711ZM344.14 349.99C348.31 349.45 352.45 349.581 356.45 350.951C357.58 351.331 358.71 351.77 359.75 352.34C362 353.59 363.41 355.43 363.22 358.15C363.02 360.94 361.33 362.66 358.87 363.65C356.42 364.641 353.83 364.52 351.3 364.12C345.33 363.201 340.13 360.44 335.26 357.01C334.13 356.22 333.23 355.211 332.81 353.85C332.36 352.41 332.66 351.62 333.98 350.87C335.2 350.171 336.55 350.021 337.91 350C339.297 349.98 340.678 349.987 342.062 349.994C342.754 349.997 343.447 350 344.14 350V349.99ZM358.73 357.49C358.55 356.71 357.92 356.35 357.27 356.07C354.44 354.871 351.54 353.94 348.43 353.88C344.93 353.47 343.03 353.54 341.55 354.141C341.702 354.225 341.849 354.313 341.994 354.399L341.999 354.402L342 354.402L342 354.403C342.348 354.61 342.685 354.81 343.05 354.951C347.06 356.491 351.13 357.83 355.37 358.58C356.23 358.73 357.11 358.831 357.98 358.81C358.82 358.79 359.06 358.271 358.73 357.5V357.49ZM70.6903 366.021C68.4403 365.131 66.0903 364.751 63.3603 364.801L63.3503 364.791C61.9803 364.721 60.3103 364.971 58.6703 365.291C56.7003 365.681 54.8203 366.361 53.3503 367.821C50.5903 370.571 51.2603 374.431 54.7803 376.091C56.6003 376.941 58.5103 376.951 60.4103 376.551C65.2603 375.531 68.9403 372.761 71.7003 368.721C72.5803 367.441 72.2403 366.641 70.6903 366.021ZM57.0503 368.751C60.5603 367.411 64.2203 367.051 67.9703 367.411C64.8903 369.581 61.7003 371.471 57.9003 371.871C57.7651 371.885 57.6208 371.906 57.4714 371.927C56.5042 372.066 55.3221 372.235 55.0103 371.031C54.6803 369.751 56.0503 369.131 57.0503 368.751ZM364.06 376.771C364.04 377.791 363.62 378.531 362.96 379.161C362.17 379.911 361.19 380.241 360.15 380.371C356.77 380.781 352.23 377.421 351.55 374.091C351.3 372.871 351.55 371.951 352.52 371.121C352.98 370.731 353.36 370.461 353.97 370.471C357.29 370.541 360.22 371.571 362.63 373.921C363.45 374.721 363.97 375.691 364.07 376.771H364.06ZM360.97 376.061C358.73 373.781 357.54 373.281 354.63 373.341C355.019 373.55 355.393 373.761 355.761 373.969L355.763 373.97C357.365 374.876 358.857 375.719 360.97 376.061ZM73.3416 350.264C72.117 349.505 70.9157 348.76 69.4701 348.941C67.6101 348.951 66.2101 349.351 65.0501 350.191C63.9801 350.961 63.0801 351.861 63.3201 353.341C63.5401 354.671 64.7501 355.841 66.3801 355.951C68.7901 356.101 71.1501 355.701 73.1801 354.251C73.6801 353.891 74.1301 353.381 74.4501 352.851C74.9701 352.001 74.9201 351.221 73.9401 350.631C73.7392 350.511 73.5401 350.387 73.3416 350.264ZM70.1469 351.306L70.3501 351.311C69.0501 352.321 68.0101 352.471 66.6901 352.201C67.6742 351.255 68.7131 351.276 70.1469 351.306ZM169.38 174.571C169.208 175.121 169.036 175.671 168.864 176.221L168.863 176.223L168.861 176.23C168.347 177.877 167.832 179.524 167.3 181.171C167.03 182.011 166.41 182.251 165.6 181.921C162.36 180.601 159.12 179.271 155.88 177.931C155.01 177.571 154.7 176.911 155 176.001C155.26 175.22 155.519 174.44 155.778 173.66L155.779 173.658L155.78 173.655L155.781 173.652L155.782 173.65L155.783 173.647C156.299 172.091 156.815 170.536 157.34 168.981C157.63 168.101 158.16 168.021 159.01 168.351C162.21 169.591 165.3 171.051 168.3 172.711C169.04 173.121 169.68 173.571 169.38 174.581V174.571ZM166.06 180.801C166.282 180.144 166.494 179.504 166.701 178.878C167.166 177.472 167.609 176.132 168.1 174.811C168.389 174.044 167.925 173.793 167.447 173.534L167.44 173.531C165.48 172.471 163.52 171.431 161.54 170.411C161.347 170.311 161.156 170.207 160.963 170.102L160.963 170.101C160.189 169.679 159.397 169.247 158.38 169.071C157.68 171.741 156.88 174.281 155.85 176.901L156.501 177.129C159.766 178.275 162.9 179.375 166.06 180.801ZM148.168 174.845C148.316 174.872 148.464 174.899 148.61 174.931V174.921C149.48 174.981 149.94 174.561 150.23 173.781C151.04 171.622 151.879 169.473 152.719 167.324L152.72 167.321C153.13 166.271 152.73 165.691 151.72 165.321C151.341 165.181 150.963 165.042 150.584 164.902L150.567 164.896L150.549 164.889C147.89 163.909 145.231 162.929 142.51 162.101C141.42 161.771 141.11 162.081 140.78 162.971C140.418 163.964 140.033 164.947 139.649 165.929C139.278 166.874 138.908 167.819 138.56 168.771C137.86 170.661 138.03 171.171 139.83 171.891C141.755 172.667 143.717 173.368 145.677 174.068C146.192 174.252 146.706 174.435 147.22 174.621C147.527 174.73 147.849 174.788 148.168 174.845ZM149.804 171.652C149.538 172.363 149.271 173.076 149 173.791H148.99C148.18 173.527 147.387 173.265 146.607 173.008L146.607 173.008C144.549 172.329 142.577 171.678 140.59 171.091C139.59 170.801 139.29 170.461 139.66 169.431C140.209 167.901 140.699 166.345 141.165 164.865L141.165 164.864C141.336 164.321 141.504 163.788 141.67 163.271C142.19 162.783 142.552 162.962 142.895 163.133C142.974 163.172 143.052 163.211 143.13 163.241C143.517 163.384 143.903 163.529 144.289 163.674L144.294 163.675L144.3 163.678C146.445 164.483 148.587 165.288 150.83 165.771C151.63 165.941 151.86 166.301 151.54 167.111C150.942 168.613 150.376 170.124 149.808 171.642L149.808 171.642L149.808 171.643L149.808 171.644L149.807 171.644L149.807 171.645L149.807 171.645L149.807 171.646L149.806 171.646L149.806 171.647L149.806 171.647L149.806 171.648L149.806 171.648L149.805 171.649L149.805 171.65L149.805 171.65L149.805 171.651L149.805 171.651L149.804 171.652ZM157.3 155.411C157.042 156.067 156.827 156.774 156.606 157.501C156.212 158.8 155.798 160.164 155.08 161.421C154.8 161.911 154.28 161.951 153.81 161.721C152.381 161.052 150.897 160.52 149.413 159.987C147.677 159.365 145.94 158.741 144.29 157.901C143.57 157.531 143.27 157.121 143.54 156.201C144.05 154.441 144.72 152.741 145.39 151.041C145.63 150.431 145.99 149.841 146.81 150.121C147.345 150.302 147.883 150.478 148.42 150.654C151.206 151.567 153.994 152.481 156.5 154.091L156.57 154.135C156.964 154.386 157.328 154.617 157.3 155.411ZM146.5 151.071C146.154 151.921 145.835 152.714 145.527 153.477C145.249 154.168 144.981 154.836 144.71 155.501C144.51 155.981 144.41 156.371 145.04 156.641C147.292 157.623 149.539 158.616 151.829 159.628L151.834 159.63C152.643 159.988 153.458 160.348 154.28 160.711C155.1 158.771 155.71 156.911 156.04 154.871C153.676 154.162 151.454 153.198 149.172 152.208L149.17 152.207L149.168 152.206L149.167 152.206C148.294 151.827 147.412 151.444 146.51 151.071H146.5ZM139.313 146.02C137.59 145.266 135.868 144.513 134.04 144.041L134.06 144.031C133.07 143.771 132.59 144.271 132.27 145.141C131.965 145.961 131.64 146.773 131.315 147.586L131.315 147.586C130.99 148.399 130.665 149.211 130.36 150.031C129.82 151.501 130.08 152.131 131.54 152.891C133.38 153.861 135.34 154.501 137.38 154.941C138.29 155.141 138.94 154.951 139.46 154.231C140.68 152.541 141.58 150.671 142.28 148.721C142.48 148.141 142.61 147.391 141.82 147.081C140.977 146.748 140.145 146.384 139.313 146.02L139.313 146.02L139.313 146.02ZM135.379 153.044C133.884 152.373 132.371 151.693 130.65 151.431H130.66C130.952 150.741 131.234 150.083 131.508 149.445L131.508 149.444C132.032 148.223 132.524 147.076 132.99 145.921C133.28 145.201 133.67 144.941 134.44 145.231C135.859 145.774 137.281 146.295 138.732 146.827L138.733 146.828L138.741 146.83L138.745 146.832L138.747 146.833L138.752 146.834C139.483 147.103 140.222 147.373 140.97 147.651C140.843 147.988 140.718 148.324 140.594 148.657C139.888 150.556 139.206 152.39 138.27 154.211C137.28 153.899 136.333 153.473 135.379 153.044ZM119.778 131.745L119.779 131.743L119.779 131.743C120.171 130.574 120.59 129.327 121.05 128.091C121.38 127.211 122.25 127.261 122.89 127.491L123.09 127.562L123.09 127.563C125.494 128.428 127.903 129.296 130.15 130.571C130.83 130.951 130.96 131.441 130.87 132.151C130.658 133.686 130.203 135.156 129.749 136.624L129.7 136.781C129.41 137.721 128.78 138.071 127.88 137.861C125.23 137.251 122.7 136.301 120.25 135.111C119.484 134.742 119.425 134.096 119.344 133.223L119.33 133.071C119.476 132.644 119.625 132.201 119.778 131.745ZM120 133.901L121.181 134.363C123.525 135.28 125.821 136.178 128.22 137.121C128.78 135.491 129.3 134.002 129.819 132.513L129.82 132.511C129.96 132.101 129.99 131.661 129.56 131.471C127.702 130.641 125.832 129.834 123.948 129.02C123.287 128.735 122.625 128.449 121.96 128.161C121.729 128.838 121.508 129.487 121.293 130.117C120.85 131.42 120.432 132.647 120 133.901ZM133.011 122.498C133.031 122.366 133.051 122.233 133.07 122.101V122.111C133.19 121.141 132.56 120.651 131.84 120.251C129.82 119.131 127.75 118.101 125.58 117.291C124.52 116.891 123.78 117.181 123.7 118.221C123.605 119.463 123.281 120.623 122.956 121.788L122.956 121.788L122.91 121.951C122.64 122.891 122.95 123.451 123.78 123.891C125.41 124.761 127.11 125.421 128.83 126.061C131.97 127.231 132.46 126.971 132.84 123.761C132.886 123.336 132.949 122.916 133.011 122.499L133.011 122.498ZM131.242 124.839C131.163 125.19 131.081 125.553 130.99 125.931H130.98C129.595 125.308 128.28 124.721 126.992 124.147L126.981 124.142C126.143 123.769 125.317 123.4 124.49 123.031C124.454 123.015 124.417 123.001 124.38 122.986L124.379 122.986C124.27 122.942 124.157 122.897 124.06 122.831C123.48 122.451 123.68 120.661 124.38 119.191C124.78 118.361 125.22 118.271 126.04 118.671C127.61 119.441 129.23 120.151 130.87 120.751C131.99 121.161 132.07 121.801 131.76 122.781C131.558 123.435 131.406 124.112 131.242 124.839ZM120.08 115.201C119.979 115.5 119.873 115.82 119.762 116.155L119.761 116.156L119.761 116.157L119.761 116.157C119.412 117.208 119.015 118.406 118.56 119.581C118.23 120.441 117.53 120.761 116.62 120.431C114.69 119.721 112.75 119.001 110.83 118.271C109.9 117.921 109.71 117.311 110.13 116.381C110.62 115.301 111.01 114.181 111.39 113.051C111.91 111.511 112.13 111.301 113.69 111.621C115.227 111.928 116.677 112.515 118.128 113.102C118.518 113.26 118.908 113.418 119.3 113.571C119.88 113.791 120.2 114.191 120.07 115.201H120.08ZM117.207 119.238C114.984 118.597 112.865 117.987 110.821 117.111C110.929 116.248 111.254 115.477 111.579 114.705C111.682 114.461 111.784 114.217 111.88 113.971L111.896 113.93C112.5 112.38 112.503 112.374 113.94 112.801C114.468 112.955 114.992 113.121 115.515 113.287L115.515 113.287L115.516 113.287C116.35 113.551 117.182 113.815 118.03 114.031C119.02 114.281 119.04 114.851 118.75 115.621C118.477 116.346 118.208 117.076 117.926 117.84L117.926 117.842L117.924 117.848L117.92 117.857C117.75 118.319 117.574 118.795 117.39 119.291L117.207 119.238ZM137.962 134.291L137.96 134.291H137.98L137.962 134.291ZM136.61 135.111C136.838 134.506 137.311 134.304 137.962 134.291C140.121 134.751 142.161 135.641 144.13 136.691C144.6 136.941 144.69 137.371 144.63 137.911C144.11 142.461 143.06 143.161 138.71 141.791C137.95 141.551 137.2 141.291 136.47 140.981C135.11 140.401 134.69 139.661 135.25 138.421C135.74 137.331 136.2 136.231 136.61 135.111ZM142.428 141.547L142.428 141.548L142.428 141.548L142.428 141.548L142.428 141.548L142.427 141.55C142.373 141.655 142.317 141.767 142.26 141.891C141.419 141.569 140.592 141.254 139.773 140.941L139.664 140.9L139.636 140.889L139.615 140.881C138.628 140.505 137.653 140.133 136.68 139.761C136.17 139.571 135.86 139.281 136.17 138.691C136.186 138.66 136.201 138.629 136.217 138.599L136.217 138.598L136.217 138.598L136.218 138.598L136.218 138.597C136.274 138.488 136.331 138.377 136.37 138.261C137.05 136.254 138.39 135.631 140.39 136.391C142.584 137.217 143.347 138.741 142.68 140.961C142.627 141.153 142.534 141.337 142.428 141.547ZM98.5603 112.701C98.5885 112.584 98.6069 112.488 98.6228 112.406L98.6228 112.406C98.6465 112.284 98.6645 112.19 98.7003 112.101C98.9079 111.614 99.0271 111.029 99.1456 110.447C99.3925 109.235 99.6364 108.037 100.67 107.781C102.265 107.38 103.97 108.178 105.59 108.935L105.59 108.935C105.911 109.085 106.228 109.233 106.54 109.371C107.02 109.581 107.21 110.001 107.02 110.551C106.833 111.117 106.65 111.683 106.466 112.249C106.161 113.193 105.855 114.137 105.53 115.081C105.28 115.811 104.7 116.031 104 115.801L103.775 115.729L103.356 115.597C102.057 115.187 100.752 114.775 99.4903 114.261C98.8503 114.001 98.2103 113.491 98.5603 112.701ZM100.624 109.357L100.624 109.358C100.471 109.952 100.334 110.484 100.25 111.021C100.214 111.265 100.145 111.507 100.074 111.749L100.074 111.749C99.929 112.251 99.7821 112.758 99.9303 113.311C100.429 113.45 100.879 113.58 101.328 113.71L101.33 113.711C104.958 114.73 104.96 114.721 105.839 111.127L105.84 111.121C106.02 110.381 105.97 109.921 105.14 109.711C104.126 109.459 103.118 109.174 102.022 108.865C101.637 108.757 101.241 108.645 100.83 108.531V108.541C100.761 108.828 100.691 109.099 100.624 109.357ZM95.3503 89.3105C96.8903 89.9505 98.4803 90.4405 100.15 90.5805V90.5905C101.28 90.7105 101.66 89.9905 101.96 89.0905C103.14 85.6005 102.97 85.2205 99.6203 84.1705C95.9403 83.0205 95.2603 83.4305 94.3703 87.1705C94.1303 88.1805 94.4203 88.9205 95.3503 89.3105ZM98.0803 84.6705C100.82 85.2305 101.554 86.8572 100.28 89.5505V89.5405C100.189 89.5248 100.095 89.512 99.9992 89.4991C99.7917 89.471 99.579 89.4422 99.3803 89.3805C99.029 89.2693 98.6426 89.1846 98.2549 89.0997C97.3182 88.8944 96.3742 88.6876 95.9003 88.1005C95.4661 87.5679 95.7391 86.8846 96.0227 86.1745C96.2289 85.658 96.4408 85.1274 96.3903 84.6305C96.9018 84.2695 97.3172 84.4177 97.7044 84.5558L97.7045 84.5558L97.7045 84.5559L97.7046 84.5559L97.7047 84.5559L97.7048 84.5559L97.7049 84.556L97.705 84.556C97.8323 84.6014 97.9566 84.6458 98.0803 84.6705ZM98.9104 97.9205C98.9104 97.9205 98.8204 98.3205 98.7504 98.7105C98.2004 101.711 97.9104 101.891 94.9904 101.061C94.5884 100.947 94.1897 100.815 93.791 100.683L93.7907 100.683L93.7904 100.683L93.7901 100.683L93.7898 100.683L93.7895 100.683L93.7892 100.682L93.7888 100.682L93.7885 100.682L93.7882 100.682C93.2059 100.49 92.6234 100.297 92.0304 100.161C90.9704 99.9205 90.8404 99.2505 91.0204 98.3805C91.1004 97.9905 91.2404 97.6205 91.3804 97.2505C91.466 97.0289 91.5452 96.8194 91.6198 96.6221L91.6216 96.6174L91.6216 96.6173C92.5381 94.1923 92.7544 93.62 95.6104 95.2005C96.0444 95.4431 96.5395 95.5715 97.0359 95.7004C97.3173 95.7734 97.5991 95.8465 97.8704 95.9405C98.6204 96.2005 99.0904 96.6805 98.9104 97.9305V97.9205ZM98.1204 97.0905C97.8696 96.707 97.4611 96.6118 97.0673 96.52C96.9272 96.4874 96.789 96.4552 96.6604 96.4105C93.1304 95.1705 93.1204 95.1905 92.1904 98.9705C92.3651 99.0268 92.5407 99.0857 92.7171 99.1449L92.7172 99.1449L92.7173 99.1449L92.7174 99.1449L92.7177 99.145C93.137 99.2857 93.5612 99.428 93.9904 99.5405C96.157 100.121 97.5337 99.3039 98.1204 97.0905ZM118.9 104.071C118.09 103.858 117.28 103.646 116.47 103.431C115.67 103.281 115.25 103.661 114.99 104.351L114.901 104.591L114.9 104.591C114.68 105.183 114.458 105.779 114.22 106.361C113.86 107.231 114.3 107.771 115.04 108.061C116.53 108.641 118.04 109.161 119.55 109.671C120.55 110.011 121.1 109.411 121.35 108.591C121.449 108.271 121.6 107.958 121.752 107.646C122.155 106.815 122.559 105.981 121.97 105.001C121.881 104.849 121.626 104.785 121.409 104.73C121.382 104.724 121.355 104.717 121.33 104.711C120.521 104.496 119.712 104.283 118.902 104.071L118.9 104.071ZM117.67 107.971C115.797 107.324 115.31 105.967 116.21 103.901H116.22C116.545 104.049 116.87 104.199 117.196 104.349L117.198 104.35L117.198 104.351C118.163 104.796 119.131 105.242 120.11 105.661C120.95 106.021 121.44 106.381 120.92 107.441L120.88 107.523C120.471 108.374 120.154 109.032 119.03 108.441C118.758 108.298 118.456 108.21 118.155 108.122L118.155 108.122C117.992 108.074 117.828 108.027 117.67 107.971ZM105.5 98.1906C105.695 98.2682 105.904 98.351 106.123 98.438C107.006 98.7883 108.063 99.208 109.12 99.6406C109.63 99.8506 109.82 100.241 109.64 100.791C109.615 100.865 109.595 100.943 109.575 101.02L109.575 101.02L109.575 101.02L109.575 101.021C109.555 101.098 109.535 101.176 109.51 101.251C109.388 101.618 109.317 102.038 109.245 102.46C109.059 103.555 108.87 104.665 107.78 104.911C106.443 105.221 105.156 104.473 103.914 103.751C103.597 103.567 103.282 103.384 102.97 103.221C102.5 102.971 102.33 102.471 102.48 101.991C102.83 100.861 103.21 99.7306 103.66 98.6406C103.92 98.0306 104.54 98.0706 105.5 98.2006V98.1906ZM103.673 102.314L103.92 102.411C104.361 102.584 104.778 102.747 105.2 102.891C106.887 103.471 108.104 102.901 108.85 101.181C108.882 101.105 108.873 101.008 108.863 100.89C108.857 100.821 108.85 100.745 108.85 100.661C108.38 100.451 107.88 100.231 107.37 100.011C105.337 99.1439 104.004 99.8739 103.37 102.201H103.38C103.479 102.239 103.577 102.277 103.673 102.314ZM87.0393 81.4242C86.9107 81.4024 86.7869 81.3815 86.6702 81.3605L86.6602 81.3505C86.5015 81.364 86.3349 81.3582 86.1753 81.3526C85.8621 81.3415 85.5759 81.3314 85.4302 81.4705C84.5102 82.3205 84.3202 83.5105 84.2102 84.7005C84.1333 85.5546 84.7422 85.7449 85.3203 85.9256C85.419 85.9564 85.5168 85.987 85.6102 86.0205C86.174 86.2296 86.7498 86.3985 87.3274 86.5679L87.3277 86.568C87.6619 86.6661 87.9967 86.7643 88.3302 86.8705C88.9402 87.0705 89.3802 86.9405 89.7502 86.3805C91.4902 83.7905 90.9302 82.2505 87.9902 81.6005C87.668 81.5305 87.3408 81.4752 87.0397 81.4242L87.0393 81.4242ZM88.8578 83.1749C89.0704 83.2628 89.2905 83.354 89.5202 83.4505C88.7802 86.4005 88.6802 86.4005 86.1202 85.2505C85.1052 84.7963 85.3598 84.2463 85.6073 83.7115C85.7085 83.4928 85.8086 83.2766 85.8202 83.0705C85.8702 82.2405 86.4502 82.0905 87.1902 82.4505C87.7149 82.7018 88.256 82.9258 88.8578 83.1749ZM82.9802 63.5005C82.1402 63.3005 80.7702 62.9105 79.4902 62.2605C79.1902 62.1105 78.9802 61.8805 79.0902 61.5105C79.2002 61.1205 79.5702 61.0505 79.8502 61.1105C80.0157 61.1471 80.185 61.1799 80.3551 61.213C80.9764 61.3336 81.6099 61.4565 82.1202 61.7705C83.3002 62.5005 83.9402 62.0605 84.6202 61.0805C84.6995 60.9671 84.7794 60.8306 84.8628 60.6879L84.8631 60.6875L84.8632 60.6873L84.8633 60.6871L84.8633 60.687C85.2432 60.0379 85.6971 59.2621 86.5002 59.9505C87.1221 60.4836 86.5764 61.1797 86.1011 61.786L86.1011 61.786C85.9879 61.9304 85.8787 62.0697 85.7902 62.2005L85.7518 62.2569L85.7125 62.3149L85.712 62.3156C85.216 63.0484 84.6721 63.852 83.0002 63.5005H82.9802ZM88.6099 75.3341C88.0198 75.075 87.486 74.8405 87.1103 75.1306H87.1003C88.3503 76.3306 89.7503 76.8606 91.1103 76.4406C92.2003 76.1106 92.4103 74.8306 92.3403 73.5806C91.7798 73.8881 91.6179 74.2916 91.4665 74.6691C91.3126 75.0525 91.1696 75.409 90.6303 75.6106C89.9799 75.9358 89.2607 75.6199 88.6099 75.3341ZM180.46 206.471C180.451 206.809 180.22 207.053 179.971 207.314C179.941 207.346 179.911 207.378 179.88 207.411C179.2 208.131 178.33 208.511 177.44 208.871C173.02 210.691 168.6 212.511 164.18 214.311C162.4 215.041 162.04 214.951 161.28 213.101C160.441 211.036 159.646 208.956 158.85 206.876L158.85 206.876L158.85 206.876L158.85 206.875C158.224 205.238 157.598 203.6 156.95 201.971C156.46 200.741 156.77 199.801 157.75 199.011C157.784 198.983 157.818 198.955 157.852 198.927L157.928 198.862L158.02 198.785C158.36 198.497 158.705 198.204 159.1 198.031C162.22 196.621 165.43 195.411 168.69 194.361C169.49 194.101 170.01 194.351 170.64 194.801C172.42 196.071 173.86 197.651 175.2 199.351C175.99 200.351 176.77 201.361 177.55 202.371C178.33 203.381 179.11 204.391 179.9 205.391L179.949 205.452C180.182 205.749 180.403 206.031 180.45 206.471H180.46ZM191.51 194.05C189.86 192.59 188.03 191.86 185.78 192.12C185.617 192.12 185.448 192.115 185.277 192.11L185.276 192.11C184.915 192.098 184.54 192.087 184.17 192.12C182.43 192.29 181.57 193.5 182.3 195.11C183.61 198.01 185.18 200.78 187.08 203.35C187.55 203.98 188.15 204.27 188.95 204.04C189.792 203.803 190.634 203.57 191.477 203.337L191.478 203.337L191.478 203.337C193.468 202.788 195.456 202.239 197.43 201.62C198.6 201.25 198.75 200.33 197.94 199.37C197.715 199.107 197.427 198.883 197.14 198.661L197.14 198.661C197.046 198.588 196.952 198.515 196.86 198.44C196.271 197.957 195.673 197.48 195.075 197.002L195.075 197.002L195.074 197.002L195.074 197.001C193.868 196.038 192.66 195.073 191.51 194.05ZM146.09 220.051L146.08 220.06C145.42 219.972 144.811 219.882 144.237 219.797L144.234 219.796C143 219.614 141.925 219.456 140.84 219.381C137.54 219.151 134.36 218.531 131.5 216.751C131.469 216.731 131.438 216.711 131.406 216.691C130.956 216.406 130.496 216.114 130 216.601C129.502 217.089 129.82 217.578 130.092 217.996C130.115 218.031 130.138 218.066 130.16 218.101C130.504 218.636 130.845 219.173 131.186 219.71L131.187 219.713L131.188 219.713C132.342 221.534 133.497 223.354 134.77 225.091C136.152 226.98 136.259 226.911 138.296 225.603L138.33 225.581C138.531 225.454 138.737 225.336 138.943 225.218C139.292 225.019 139.64 224.819 139.96 224.581C140.564 224.138 141.187 223.721 141.824 223.295L141.824 223.295C143.197 222.377 144.634 221.416 146.08 220.06L146.08 220.061L146.09 220.051ZM115.663 238.521C115.92 239.521 116.181 240.539 116.45 241.581V241.59C116.785 241.33 117.115 241.078 117.439 240.829C118.897 239.712 120.259 238.668 121.6 237.311C118.35 235.88 115.84 233.91 114.89 230.48C114.8 230.16 114.48 229.99 114.13 230.171C113.72 230.37 113.63 230.69 113.75 231.15C114.388 233.567 115.011 235.988 115.663 238.521Z" fill="#0D070B"/>
</svg>
