<svg width="105" height="58" viewBox="0 0 105 58" fill="none" xmlns="http://www.w3.org/2000/svg">
<path fill-rule="evenodd" clip-rule="evenodd" d="M30.5711 44.1044C30.4538 44.0908 30.3389 44.0715 30.2259 44.0525C29.9805 44.0112 29.744 43.9714 29.5112 43.9952C28.5357 44.0912 27.8607 43.6278 27.5773 42.5952C27.3097 41.6222 27.6432 40.5829 28.421 39.9723C28.8626 39.6248 29.3451 39.4725 29.8618 39.5801C30.1141 39.6322 30.3646 39.699 30.6151 39.7658L30.6154 39.7658C30.7862 39.8114 30.9571 39.8569 31.1287 39.8978C31.2902 39.9361 31.453 39.9646 31.6122 39.9924L31.6122 39.9924C31.6804 40.0044 31.7478 40.0162 31.8142 40.0286C31.9444 39.7825 32.0702 39.541 32.194 39.3033C32.4623 38.7879 32.7211 38.2908 32.9953 37.8061C34.1897 35.6946 35.6503 33.9421 37.4603 32.6712C38.5149 31.9299 39.638 31.4384 40.8416 31.2448C41.7143 31.1057 42.5672 31.2266 43.3924 31.5724C45.0297 32.2592 45.8774 34.2085 45.5043 36.378C45.3079 37.5215 44.8504 38.5012 44.2572 39.3865C43.5875 40.3877 42.761 41.1539 41.8883 41.8489C39.9887 43.3614 37.8716 44.0647 35.6793 44.485C35.3218 44.5534 34.9624 44.6045 34.6029 44.6556C34.4401 44.6787 34.2772 44.7019 34.1145 44.7266C33.5029 46.312 33.9194 48.0032 35.127 48.7909C35.7096 49.1715 36.3371 49.337 36.9936 49.3701C40.2036 49.5339 42.9284 48.0561 45.3435 45.5094C45.5834 45.2562 45.6862 44.9616 45.7231 44.5843C46.0909 40.8775 47.4685 37.8078 49.5843 35.2594C51.3402 33.1428 53.46 31.8306 55.8777 31.4218C57.4886 31.1488 59.0257 31.5459 60.3848 32.7573C60.4675 32.8312 60.555 32.8962 60.6426 32.9612L60.6427 32.9613L60.6427 32.9613C60.7199 33.0186 60.7972 33.076 60.8712 33.1395C61.5976 33.7584 61.9271 34.7166 61.7162 35.8005C61.5585 36.61 61.3854 37.4147 61.2123 38.2195C61.0051 39.1832 60.7978 40.147 60.6168 41.1191C60.2253 43.2274 59.9379 45.3604 59.9036 47.5332C59.8975 47.9061 59.8989 48.279 59.9006 48.7202V48.7206C59.9014 48.9469 59.9023 49.1912 59.9023 49.4627C60.02 49.3549 60.1204 49.2675 60.2082 49.191L60.2083 49.1909C60.3645 49.0549 60.4809 48.9536 60.5838 48.8339C61.5093 47.7517 62.117 46.3881 62.7234 45.0195C63.0121 44.3692 63.107 43.6924 63.1254 42.956C63.2454 38.4466 63.5987 33.9587 64.1761 29.5088C64.6143 26.1256 65.0972 22.7516 65.5802 19.3779C65.77 18.052 65.9598 16.7262 66.1469 15.3998C66.2 15.0257 66.2631 14.653 66.3324 14.2444L66.3325 14.2436C66.3664 14.0434 66.4018 13.8345 66.4382 13.6126C64.6704 13.5414 62.9633 13.5712 61.1771 13.6308C61.2228 13.7494 61.2659 13.8563 61.306 13.9559C61.3897 14.1635 61.4606 14.3393 61.5159 14.5227C61.769 15.3568 61.5963 16.3017 61.0821 16.8263C60.5403 17.379 59.9564 17.3922 59.3368 17.0033C59.0876 16.8478 58.8042 16.7253 58.5287 16.6906C57.7813 16.5956 57.0329 16.5118 56.2847 16.428L56.2843 16.4279L56.2841 16.4279C55.507 16.3409 54.73 16.2539 53.9543 16.1544C53.4336 16.0882 52.8984 16.0071 52.4067 15.797C50.8749 15.1466 50.4873 12.992 51.6105 11.5258C52.0547 10.945 52.615 10.619 53.2161 10.3824C54.6214 9.82799 56.0741 9.60459 57.5334 9.54336C59.6917 9.45429 61.8507 9.40725 64.0099 9.3602C64.8193 9.34256 65.6288 9.32492 66.4382 9.30507C66.6131 9.30065 66.788 9.30212 66.9629 9.3036C67.0503 9.30433 67.1378 9.30507 67.2252 9.30507C67.2469 9.26401 67.2688 9.22674 67.2896 9.19147C67.3332 9.11728 67.3717 9.05197 67.3913 8.97907C67.6934 7.85594 67.9941 6.73212 68.2948 5.60825C68.6489 4.28465 69.003 2.96097 69.3595 1.63826C69.4201 1.4132 69.5045 1.19145 69.6047 0.987911C70.0292 0.132366 70.7727 -0.203564 71.4595 0.132366C72.1911 0.489808 72.5615 1.3801 72.3506 2.40444C72.0663 3.78362 71.7672 5.15876 71.4681 6.53381L71.467 6.53904C71.338 7.1322 71.209 7.72535 71.0811 8.31879C71.0309 8.55022 70.9815 8.78075 70.9249 9.04418L70.9235 9.05094L70.8597 9.34809C70.9316 9.36549 70.999 9.3844 71.0636 9.40251C71.1895 9.43783 71.3045 9.4701 71.4212 9.48213C72.4018 9.58229 73.383 9.67389 74.3642 9.76548C76.4631 9.9614 78.5617 10.1573 80.653 10.437C84.7726 10.9864 88.8579 11.8386 92.8746 13.1509C93.0367 13.2038 93.2002 13.2584 93.3558 13.3313C94.1718 13.7185 94.5883 14.6253 94.4038 15.6017C94.2311 16.5135 93.5443 17.1241 92.7098 17.0265C92.0596 16.9502 91.4132 16.8246 90.7666 16.6989L90.7661 16.6988C90.6551 16.6772 90.5442 16.6556 90.4332 16.6343C89.3333 16.4238 88.2346 16.2008 87.1359 15.9779L87.1354 15.9778C84.7367 15.491 82.3382 15.0043 79.928 14.6468C77.7192 14.3194 75.4962 14.1367 73.2731 13.9541L73.273 13.9541C72.3171 13.8755 71.3611 13.797 70.4062 13.7069C70.3158 13.6982 70.2237 13.711 70.1129 13.7265L70.1128 13.7265C70.0556 13.7345 69.9933 13.7432 69.9237 13.7499C69.857 14.1363 69.7889 14.5204 69.721 14.9033L69.7209 14.9037C69.5702 15.7539 69.4205 16.598 69.2896 17.4468C68.4011 23.2288 67.5812 29.0273 67.042 34.8771C66.6518 39.1151 66.3183 43.373 66.5569 47.6474C66.6199 48.7797 66.8156 49.9034 67.0103 51.0218C67.0557 51.2829 67.1012 51.5437 67.1448 51.8043C67.2017 52.1477 67.3286 52.4728 67.4549 52.7966C67.4985 52.9081 67.5419 53.0195 67.5825 53.1315C67.7354 53.5535 67.9832 53.7901 68.3774 53.7239C68.4947 53.7041 68.6173 53.7123 68.736 53.7322C69.4109 53.848 69.896 54.2832 70.1109 55.1107C70.3152 55.8967 70.0911 56.7456 69.5322 57.2752C68.8678 57.904 68.1137 58.1307 67.2938 57.9272C66.2168 57.6624 65.4416 56.8515 64.8511 55.7312C64.3027 54.692 63.9718 53.5353 63.7055 52.3438C63.6606 52.1438 63.6189 51.9422 63.5703 51.7069L63.5702 51.7064C63.5488 51.6031 63.5261 51.4932 63.5011 51.3741C63.4465 51.4261 63.3959 51.475 63.3479 51.5213L63.3478 51.5214C63.2371 51.6282 63.1404 51.7216 63.0411 51.8093C62.8274 51.9997 62.6177 52.2002 62.4081 52.4007C61.931 52.8569 61.454 53.3131 60.9292 53.6511C59.0942 54.831 57.3831 53.8729 56.8255 51.3972C56.6651 50.6859 56.6003 49.9366 56.5362 49.1936L56.5358 49.1896C56.5278 49.0974 56.5199 49.0053 56.5117 48.9133C56.4817 48.5721 56.4894 48.2254 56.497 47.8786C56.5004 47.7225 56.5038 47.5664 56.5038 47.4108L56.3641 47.3545C56.3245 47.4118 56.2841 47.4685 56.2437 47.5252L56.2436 47.5253C56.1511 47.6553 56.0583 47.7855 55.9739 47.9238C55.0182 49.4876 53.9187 50.8561 52.5794 51.902C51.8609 52.4629 51.1082 52.9313 50.2447 52.971C48.6391 53.0454 47.3327 52.3819 46.5444 50.5086C46.5069 50.4202 46.4641 50.3348 46.4088 50.2247L46.4086 50.2244C46.3823 50.1718 46.3531 50.1137 46.3203 50.0469L46.183 50.1512C46.0235 50.2725 45.8716 50.3879 45.7205 50.5053C43.0589 52.5821 40.2049 53.8149 37.0279 53.661C35.9153 53.6064 34.8396 53.3549 33.8285 52.7542C31.565 51.4072 30.4313 49.1632 30.4616 46.0108C30.4641 45.7329 30.4801 45.4536 30.4961 45.1755V45.1755L30.4999 45.1105C30.511 44.92 30.5254 44.7301 30.5423 44.506C30.5516 44.3837 30.5617 44.2512 30.5724 44.1028L30.5711 44.1044ZM57.6454 35.8187L57.5703 35.5754C57.4091 35.5889 57.2466 35.5952 57.0842 35.6015H57.0842C56.7262 35.6155 56.3682 35.6295 56.0227 35.7194C54.0334 36.2324 52.3777 37.4768 51.1003 39.4676C49.7174 41.6205 48.9819 44.073 49.0109 46.8564C49.0174 47.5249 49.082 48.2282 49.608 48.5857C50.0487 48.8848 50.4214 48.5724 50.7742 48.2767C50.8235 48.2354 50.8724 48.1944 50.921 48.1554C52.1971 47.1311 53.1436 45.7013 53.9385 44.116C54.74 42.5174 55.5046 40.8891 56.2455 39.2442C56.5941 38.4709 56.9092 37.6746 57.2245 36.8779C57.3647 36.5237 57.5049 36.1694 57.6481 35.817L57.6454 35.8187ZM35.8995 40.2371C38.5571 40.0733 41.6326 37.7366 42.0241 35.6284C40.3328 35.031 37.0397 37.4801 35.8995 40.2371ZM29.9884 32.1913C28.8389 33.161 27.9134 34.3508 27.1225 35.7045C24.801 39.6761 22.9897 44.0051 21.4461 48.5162C21.0837 49.5761 20.7736 50.6642 20.4636 51.752L20.4636 51.7521L20.4635 51.7522C20.3225 52.2471 20.1815 52.742 20.0355 53.2341C20.0144 53.3049 19.9949 53.3767 19.9755 53.4484C19.9331 53.6047 19.8908 53.7608 19.8312 53.9059C19.5056 54.7019 18.8531 55.1636 18.1873 55.0908C17.4742 55.013 16.902 54.404 16.7017 53.5022C16.6685 53.3521 16.6429 53.1999 16.6098 53.0037L16.6097 53.0034C16.5929 52.9033 16.5741 52.7917 16.5514 52.6632L16.3453 52.8723L16.3452 52.8724C16.1415 53.0789 15.9674 53.2556 15.7947 53.436C14.2247 55.0742 12.4845 56.2955 10.4663 56.8135C8.76047 57.252 7.08496 57.108 5.45692 56.3054C3.78141 55.478 2.53961 54.035 1.69197 52.0591C0.436989 49.1351 0.0744683 45.9826 0.259024 42.716C0.545086 37.6473 1.90948 32.9856 3.77877 28.5358C5.85767 23.5862 8.53241 19.2373 12.1049 15.8251C13.29 14.6932 14.5463 13.7069 15.9489 13.0433C16.8071 12.6379 17.6864 12.3764 18.6118 12.4128C20.3875 12.4823 21.7269 13.7565 22.1711 15.926C22.6615 18.3255 22.2608 20.581 21.2589 22.6678C20.7869 23.6491 19.9208 23.9172 19.2103 23.4191C18.5182 22.9342 18.3086 21.9711 18.5973 20.912L18.6271 20.8028C18.833 20.0494 19.0445 19.2756 19.1048 18.4927C19.2353 16.808 18.7871 16.3596 17.5243 16.9139C16.7636 17.2466 16.0214 17.705 15.3333 18.2362C13.3546 19.7619 11.6936 21.7543 10.2369 24.0065C7.15615 28.7708 4.99157 34.1109 3.96465 40.1328C3.51908 42.7474 3.43866 45.377 4.03583 47.985C4.0622 48.1008 4.09091 48.2152 4.11961 48.3295C4.13397 48.3867 4.14832 48.4439 4.16239 48.5013C5.16426 52.6268 7.88119 53.2705 10.2106 52.4844C11.8531 51.9301 13.1872 50.727 14.3973 49.2807C15.5126 47.9469 16.4314 46.4063 17.3015 44.8209C17.432 44.5826 17.5124 44.2815 17.5625 43.9935C18.1979 40.3182 18.5815 36.5965 18.8662 32.8565C18.8926 32.5008 18.9401 32.1367 19.0363 31.8024C19.2841 30.9436 19.938 30.414 20.6551 30.4422C21.3446 30.4703 21.9813 31.0015 22.1566 31.862C22.2713 32.4263 22.2766 33.0502 22.2331 33.6376C22.1784 34.3887 22.0903 35.136 22.0022 35.883L22.0022 35.8831C21.9607 36.2355 21.9191 36.5879 21.8811 36.9407C21.856 37.1756 21.8468 37.4123 21.9246 37.7184C21.9622 37.6562 22.0005 37.5943 22.0389 37.5323C22.1188 37.4031 22.1991 37.2734 22.2739 37.1392C22.575 36.5984 22.8706 36.0521 23.1661 35.5059L23.1664 35.5055C23.8257 34.287 24.4849 33.0685 25.2057 31.91C26.2379 30.2485 27.5087 28.8568 28.8428 27.576C29.4347 27.0067 30.0925 26.5748 30.8347 26.3779C32.5616 25.9212 34.0262 27.3509 34.0671 29.5667C34.0961 31.114 33.6399 32.519 33.0955 33.8577C32.7963 34.5941 32.385 35.2842 31.9368 35.8948C31.4925 36.4988 30.8677 36.5534 30.2678 36.2638C29.6852 35.9825 29.3583 35.4 29.2739 34.6256C29.2119 34.0613 29.3662 33.5681 29.6127 33.0998C29.7155 32.9033 29.7976 32.6902 29.8798 32.4769L29.8799 32.4769C29.9167 32.3812 29.9536 32.2855 29.9923 32.1913H29.9884ZM87.0268 35.7177C86.3505 36.6957 85.5609 37.5099 84.5089 38.2595L84.5102 38.2562C84.5194 38.0878 84.5292 37.9395 84.5382 37.8047C84.5564 37.5313 84.5709 37.3134 84.5682 37.0962C84.5659 36.8971 84.5665 36.6972 84.5672 36.4972C84.5691 35.9144 84.571 35.3309 84.4984 34.7629C84.2321 32.6712 83.2197 30.8343 81.0248 30.7863C80.8811 30.783 80.7347 30.7781 80.5963 30.7383C79.2016 30.3395 77.8768 30.6672 76.6165 31.4168C73.2286 33.4324 70.9928 36.7255 69.8842 41.2068C69.4175 43.0949 69.3107 45.0327 69.5941 46.9954C70.3482 52.2312 74.361 54.8094 78.1628 52.4993C79.4587 51.7133 80.3564 50.3927 81.1843 48.9828C82.1426 47.3495 82.8242 45.5308 83.3752 43.6327C83.5136 43.1562 83.7061 42.9096 84.1332 42.8616C84.9558 42.7706 85.7046 42.3635 86.4098 41.834C86.566 41.7168 86.7227 41.6009 86.9056 41.4657C87.0068 41.3909 87.1161 41.3102 87.2377 41.22C87.216 41.3499 87.1966 41.4668 87.1787 41.5746C87.138 41.8199 87.1051 42.018 87.0703 42.2146C86.964 42.8162 86.8553 43.4172 86.7466 44.0183C86.5061 45.348 86.2655 46.6778 86.0513 48.0147C85.8825 49.0722 85.7613 50.1478 85.6967 51.2234C85.6413 52.1452 86.0091 52.8468 86.6814 53.244C87.3287 53.6262 88.0722 53.4508 88.5929 52.7641C88.8354 52.4447 89.0424 52.0558 89.1927 51.6553C90.9526 46.9589 93.2121 42.6448 95.6073 38.4382C96.8953 36.1778 98.4139 34.182 100.209 32.5371C100.299 32.4557 100.396 32.3884 100.527 32.2977C100.602 32.2466 100.686 32.188 100.787 32.1152C100.728 32.3262 100.672 32.5157 100.621 32.6914C100.519 33.042 100.433 33.3378 100.365 33.6409C100.31 33.8885 100.251 34.1358 100.193 34.3833C100.013 35.1447 99.8329 35.9077 99.7414 36.6858C99.5344 38.4349 100.478 40.2139 101.802 40.7699C102.548 41.0827 103.293 40.7798 103.697 39.9971C104.084 39.2491 104.052 38.2628 103.505 37.5993C103.14 37.1558 103.133 36.747 103.284 36.2307C103.711 34.7662 104.134 33.2984 104.556 31.8305C104.591 31.7076 104.629 31.5853 104.666 31.463C104.767 31.1358 104.868 30.8087 104.927 30.4703C105.331 28.1717 103.993 26.3928 102.145 26.737C101.253 26.9025 100.437 27.3195 99.6676 27.8805C98 29.0968 96.5064 30.606 95.2184 32.3981C94.5089 33.3839 93.8494 34.4269 93.1898 35.4699C92.8973 35.9326 92.6047 36.3952 92.3077 36.8529C92.2265 36.9783 92.1427 37.1028 92.059 37.2271C92.0245 37.2783 91.99 37.3296 91.9557 37.3808C92.2243 35.9272 92.5851 34.5454 92.945 33.1675C92.9861 33.0098 93.0273 32.8521 93.0684 32.6943C93.1949 32.2111 93.3202 31.718 93.3755 31.2166C93.4889 30.1956 93.0354 29.2457 92.317 28.8932C91.5524 28.5192 90.7377 28.8618 90.2486 29.7752C90.1286 29.9986 90.0298 30.2402 89.9335 30.4818C89.165 32.4031 88.142 34.1026 87.0268 35.7177ZM77.0477 35.9802C77.0821 35.9727 77.1266 35.9629 77.186 35.9461L77.1873 35.9477C77.2479 38.7014 78.4845 40.4704 80.2892 41.8522C80.2145 42.0785 80.1427 42.3017 80.0718 42.5222C79.9251 42.9786 79.7821 43.4232 79.6248 43.8595C79.0896 45.3471 78.412 46.7207 77.4839 47.8774C77.2822 48.1289 77.0634 48.3804 76.8169 48.5509C74.9871 49.8135 73.6847 48.9216 73.0308 46.5552C72.6775 45.276 72.8265 43.9339 73.1007 42.6448C73.7005 39.82 75.0702 37.6836 76.9447 36.0172C76.9656 35.9981 76.9943 35.9918 77.0477 35.9802ZM81.001 35.1468C80.4619 35.8269 80.4988 36.4822 81.1183 37.0565C81.2264 36.3896 81.2779 35.769 81.001 35.1468Z" fill="white"/>
</svg>
