<svg width="393" height="261" viewBox="0 0 393 261" fill="none" xmlns="http://www.w3.org/2000/svg">
<g opacity="0.1">
<path fill-rule="evenodd" clip-rule="evenodd" d="M146.562 246.377C146 246.301 145.449 246.193 144.907 246.086C143.731 245.856 142.597 245.633 141.481 245.766C136.804 246.303 133.569 243.714 132.21 237.946C130.927 232.51 132.526 226.705 136.254 223.294C138.372 221.352 140.685 220.502 143.162 221.103C144.372 221.394 145.572 221.767 146.773 222.14L146.774 222.14L146.774 222.14C147.594 222.395 148.413 222.649 149.236 222.878C150.01 223.091 150.791 223.251 151.554 223.406C151.881 223.473 152.204 223.539 152.522 223.608C153.146 222.234 153.749 220.884 154.343 219.556L154.343 219.556C155.629 216.677 156.87 213.901 158.185 211.193C163.911 199.397 170.913 189.608 179.59 182.508C184.646 178.367 190.031 175.621 195.801 174.54C199.985 173.763 204.074 174.438 208.03 176.37C215.879 180.206 219.943 191.096 218.155 203.215C217.213 209.603 215.02 215.076 212.176 220.021C208.965 225.614 205.003 229.894 200.819 233.777C191.712 242.226 181.562 246.155 171.052 248.503C169.338 248.884 167.615 249.17 165.891 249.455L165.891 249.455C165.111 249.585 164.33 249.714 163.55 249.852C160.618 258.708 162.615 268.156 168.404 272.556C171.197 274.682 174.206 275.607 177.353 275.792C192.742 276.707 205.805 268.452 217.384 254.225C218.534 252.81 219.027 251.165 219.204 249.057C220.967 228.35 227.571 211.202 237.715 196.966C246.133 185.143 256.295 177.812 267.886 175.529C275.609 174.004 282.978 176.222 289.494 182.989C289.891 183.402 290.31 183.765 290.731 184.129C291.101 184.449 291.471 184.769 291.826 185.124C295.308 188.582 296.888 193.934 295.877 199.989C295.121 204.511 294.291 209.006 293.462 213.501L293.462 213.502L293.461 213.503C292.468 218.886 291.474 224.27 290.606 229.7C288.729 241.477 287.352 253.393 287.187 265.53C287.158 267.614 287.165 269.698 287.173 272.163V272.175C287.177 273.436 287.181 274.797 287.181 276.309C287.745 275.707 288.227 275.218 288.648 274.791C289.397 274.031 289.955 273.465 290.448 272.796C294.885 266.751 297.798 259.134 300.706 251.489C302.09 247.856 302.545 244.075 302.633 239.961C303.208 214.771 304.902 189.7 307.67 164.843C309.771 145.945 312.086 127.099 314.401 108.254L314.402 108.25C315.312 100.843 316.222 93.4363 317.119 86.0266C317.373 83.9355 317.676 81.8528 318.008 79.5687C318.171 78.4499 318.341 77.2829 318.515 76.0428C310.04 75.6453 301.856 75.8117 293.292 76.1445C293.512 76.8068 293.718 77.4039 293.911 77.9602L293.911 77.9605C294.312 79.1203 294.652 80.1026 294.917 81.1272C296.13 85.7862 295.302 91.0647 292.837 93.9951C290.24 97.0826 287.44 97.1566 284.47 94.9842C283.275 94.1153 281.916 93.4312 280.596 93.2371C277.012 92.7065 273.423 92.2382 269.835 91.77L269.834 91.7699C266.109 91.2837 262.384 90.7976 258.665 90.2419C256.169 89.8722 253.603 89.4192 251.246 88.2452C243.902 84.6122 242.044 72.5763 247.429 64.3859C249.558 61.1412 252.244 59.3201 255.126 57.9982C261.863 54.9014 268.828 53.6534 275.824 53.3113C286.171 52.8138 296.522 52.551 306.874 52.2881C310.754 52.1896 314.635 52.0911 318.515 51.9802C319.354 51.9555 320.192 51.9638 321.03 51.972H321.031C321.45 51.9761 321.869 51.9802 322.288 51.9802C322.392 51.751 322.497 51.5429 322.597 51.346L322.597 51.3455C322.806 50.9311 322.99 50.5663 323.085 50.1591C324.53 43.897 325.969 37.631 327.408 31.3646L327.419 31.3168L327.422 31.3011C329.118 23.9165 330.813 16.5314 332.52 9.1518C332.811 7.89459 333.215 6.65586 333.696 5.51883C335.731 0.739575 339.295 -1.137 342.588 0.739575C346.095 2.73632 347.871 7.7097 346.86 13.4319C345.497 21.1355 344.063 28.8166 342.63 36.4972C342.009 39.8212 341.389 43.1451 340.774 46.4706C340.532 47.7734 340.293 49.0711 340.019 50.5569L339.712 52.2205C340.057 52.3177 340.38 52.4234 340.69 52.5245C341.293 52.7218 341.845 52.9021 342.405 52.9693C347.106 53.5288 351.81 54.0405 356.514 54.5521L356.514 54.5522C366.576 55.6467 376.637 56.741 386.663 58.3032C406.413 61.3723 425.998 66.1331 445.255 73.4637C446.033 73.7595 446.816 74.0646 447.562 74.4713C451.474 76.6345 453.471 81.7003 452.586 87.1544C451.759 92.2479 448.466 95.659 444.465 95.1136C441.348 94.6877 438.25 93.9857 435.15 93.2835C434.617 93.1628 434.084 93.0421 433.551 92.9228C428.277 91.7465 423.009 90.5009 417.741 89.2554L417.741 89.2553C406.241 86.5363 394.742 83.8175 383.187 81.8205C372.598 79.991 361.941 78.9708 351.283 77.9504C346.7 77.5117 342.116 77.0729 337.538 76.5698C337.105 76.521 336.663 76.5928 336.132 76.6791C335.857 76.7238 335.559 76.7723 335.225 76.8101C334.905 78.969 334.579 81.1155 334.253 83.255C333.53 88.0046 332.813 92.7199 332.185 97.4617C327.926 129.761 323.995 162.153 321.41 194.831C319.539 218.505 317.94 242.291 319.084 266.168C319.386 272.494 320.324 278.771 321.258 285.018L321.258 285.019C321.476 286.477 321.693 287.934 321.903 289.39C322.175 291.308 322.783 293.124 323.389 294.932L323.389 294.933C323.598 295.556 323.807 296.178 324.001 296.804C324.734 299.161 325.922 300.483 327.812 300.113C328.374 300.002 328.962 300.048 329.531 300.159C332.767 300.806 335.092 303.238 336.123 307.86C337.102 312.251 336.028 316.993 333.348 319.951C330.163 323.464 326.548 324.73 322.617 323.593C317.453 322.114 313.737 317.585 310.906 311.326C308.277 305.521 306.691 299.059 305.414 292.403C305.199 291.286 304.999 290.16 304.766 288.845C304.663 288.267 304.554 287.652 304.434 286.986C304.353 287.076 304.274 287.165 304.196 287.252C304.023 287.445 303.858 287.631 303.699 287.809C303.168 288.406 302.705 288.928 302.229 289.418C301.204 290.481 300.199 291.601 299.194 292.721C296.907 295.27 294.62 297.818 292.104 299.706C283.307 306.297 275.104 300.945 272.43 287.116C271.661 283.142 271.351 278.957 271.043 274.806L271.043 274.805C271.004 274.283 270.966 273.761 270.926 273.24C270.782 271.334 270.819 269.397 270.855 267.46V267.46C270.872 266.588 270.888 265.716 270.888 264.846L270.218 264.532C270.028 264.852 269.835 265.169 269.641 265.486C269.197 266.212 268.752 266.94 268.348 267.712C263.766 276.448 258.495 284.093 252.074 289.935C248.629 293.069 245.021 295.685 240.881 295.907C233.183 296.323 226.92 292.616 223.141 282.152C222.961 281.658 222.756 281.181 222.491 280.566C222.364 280.272 222.224 279.946 222.067 279.572C221.863 279.753 221.662 279.931 221.463 280.107L221.411 280.153C220.645 280.831 219.916 281.477 219.191 282.133C206.431 293.735 192.748 300.621 177.517 299.762C172.183 299.457 167.026 298.052 162.179 294.696C151.328 287.171 145.892 274.636 146.038 257.026C146.049 255.474 146.126 253.914 146.203 252.361L146.203 252.36L146.221 251.997C146.274 250.933 146.343 249.873 146.425 248.621L146.425 248.612C146.469 247.931 146.517 247.193 146.569 246.367L146.562 246.377ZM276.361 200.091L276.001 198.732C275.228 198.807 274.449 198.842 273.671 198.878C271.954 198.956 270.238 199.034 268.581 199.536C259.045 202.402 251.107 209.353 244.983 220.474C238.353 232.501 234.827 246.201 234.966 261.75C234.997 265.484 235.307 269.413 237.829 271.41C239.941 273.081 241.728 271.336 243.419 269.684C243.656 269.453 243.89 269.224 244.123 269.006C250.241 263.284 254.779 255.297 258.59 246.441C262.432 237.511 266.098 228.415 269.649 219.226C271.32 214.908 272.831 210.461 274.342 206.011L274.343 206.008C275.015 204.029 275.687 202.05 276.374 200.082L276.361 200.091ZM172.108 224.773C184.849 223.858 199.593 210.805 201.47 199.028C193.361 195.691 177.574 209.372 172.108 224.773ZM143.769 179.827C138.258 185.245 133.821 191.891 130.029 199.453C118.9 221.639 110.216 245.822 102.816 271.021C101.078 276.943 99.5916 283.021 98.1054 289.098L98.1053 289.098C97.4291 291.863 96.753 294.628 96.0534 297.377C95.952 297.772 95.8587 298.173 95.7655 298.574L95.7654 298.574C95.5624 299.447 95.3596 300.319 95.0738 301.13C93.5127 305.576 90.3844 308.155 87.1928 307.749C83.7737 307.314 81.0309 303.912 80.0702 298.874C79.9113 298.036 79.7883 297.186 79.6299 296.09C79.5489 295.53 79.4587 294.906 79.3498 294.187C79.0023 294.599 78.674 294.987 78.3603 295.358C77.3842 296.511 76.5495 297.497 75.7221 298.504C68.1951 307.656 59.8527 314.478 50.1769 317.372C41.9989 319.822 33.9663 319.017 26.1612 314.534C18.1285 309.912 12.1751 301.851 8.11141 290.813C2.09483 274.479 0.356846 256.869 1.24164 238.621C2.61306 210.306 9.1542 184.265 18.1159 159.407C28.0824 131.758 40.9056 107.464 58.0326 88.4023C63.7142 82.0792 69.7371 76.5697 76.4615 72.8628C80.5758 70.598 84.7912 69.1374 89.2278 69.3407C97.7408 69.729 104.162 76.847 106.292 88.9662C108.643 102.37 106.721 114.97 101.918 126.627C99.6557 132.109 95.5035 133.606 92.0971 130.824C88.7791 128.115 87.7742 122.735 89.1583 116.819L89.3013 116.209C90.2883 112 91.3021 107.677 91.5915 103.304C92.2171 93.8933 90.0684 91.3882 84.0139 94.485C80.3673 96.3431 76.8091 98.9037 73.5101 101.871C64.0239 110.394 56.0608 121.524 49.0773 134.106C34.3076 160.72 23.9302 190.551 19.007 224.19C16.8708 238.796 16.4853 253.485 19.3483 268.054C19.4747 268.701 19.6123 269.34 19.7499 269.979C19.8187 270.298 19.8876 270.618 19.955 270.938C24.7581 293.984 37.7835 297.58 48.9509 293.189C56.8255 290.092 63.2213 283.372 69.023 275.292C74.3696 267.841 78.7746 259.235 82.9458 250.379C83.5715 249.048 83.957 247.366 84.1971 245.757C87.2434 225.226 89.0825 204.436 90.4476 183.544C90.574 181.556 90.8015 179.522 91.2628 177.655C92.451 172.857 95.5857 169.899 99.0237 170.056C102.329 170.213 105.382 173.181 106.222 177.988C106.772 181.14 106.797 184.625 106.589 187.907C106.327 192.103 105.904 196.277 105.482 200.45L105.482 200.45C105.283 202.419 105.084 204.388 104.901 206.358C104.781 207.671 104.737 208.993 105.11 210.703C105.29 210.356 105.474 210.01 105.657 209.664L105.658 209.663L105.658 209.663C106.041 208.941 106.426 208.217 106.785 207.468C108.229 204.445 109.646 201.393 111.063 198.341C114.224 191.534 117.384 184.728 120.84 178.256C125.789 168.975 131.881 161.2 138.277 154.045C141.115 150.865 144.268 148.453 147.826 147.353C156.105 144.801 163.127 152.788 163.323 165.166C163.462 173.809 161.275 181.658 158.665 189.136C157.23 193.25 155.259 197.105 153.11 200.516C150.98 203.89 147.984 204.195 145.109 202.577C142.315 201.006 140.748 197.752 140.343 193.426C140.046 190.273 140.786 187.519 141.968 184.903C142.461 183.805 142.854 182.615 143.248 181.423C143.425 180.889 143.602 180.354 143.788 179.827H143.769ZM417.22 199.527C413.978 204.99 410.192 209.538 405.149 213.726L405.155 213.707C405.199 212.767 405.246 211.938 405.289 211.185C405.377 209.658 405.446 208.44 405.433 207.227C405.422 206.115 405.425 204.998 405.428 203.881C405.437 200.626 405.447 197.366 405.098 194.193C403.822 182.508 398.968 172.247 388.445 171.979C387.756 171.96 387.055 171.933 386.391 171.711C379.705 169.483 373.353 171.313 367.311 175.501C351.069 186.76 340.351 205.156 335.036 230.19C332.798 240.737 332.286 251.562 333.645 262.526C337.26 291.775 356.498 306.177 374.725 293.272C380.937 288.881 385.241 281.504 389.21 273.628C393.805 264.504 397.072 254.345 399.714 243.742C400.377 241.079 401.3 239.702 403.348 239.434C407.291 238.925 410.881 236.651 414.262 233.693C415.011 233.039 415.762 232.392 416.639 231.637C417.124 231.219 417.648 230.768 418.231 230.264C418.127 230.988 418.034 231.64 417.949 232.241C417.753 233.613 417.596 234.721 417.429 235.819C416.919 239.18 416.398 242.538 415.877 245.895C414.724 253.324 413.571 260.752 412.543 268.22C411.734 274.127 411.153 280.136 410.843 286.145C410.578 291.294 412.341 295.213 415.564 297.432C418.667 299.567 422.232 298.588 424.728 294.751C425.891 292.967 426.883 290.795 427.604 288.558C436.041 262.323 446.873 238.223 458.357 214.724C464.531 202.097 471.812 190.948 480.419 181.759C480.848 181.304 481.315 180.928 481.944 180.422C482.3 180.136 482.707 179.809 483.188 179.402C482.905 180.581 482.64 181.639 482.394 182.62C481.903 184.579 481.489 186.232 481.165 187.925C480.9 189.308 480.62 190.69 480.34 192.072C479.478 196.325 478.615 200.588 478.176 204.935C477.184 214.706 481.709 224.643 488.054 227.749C491.631 229.496 495.202 227.805 497.142 223.432C498.994 219.254 498.842 213.744 496.219 210.037C494.469 207.56 494.437 205.277 495.157 202.392C497.205 194.211 499.234 186.012 501.256 177.812C501.426 177.126 501.607 176.442 501.787 175.759C502.27 173.932 502.753 172.104 503.038 170.213C504.972 157.373 498.558 147.436 489.697 149.358C485.425 150.283 481.513 152.612 477.822 155.746C469.827 162.541 462.667 170.971 456.492 180.983C453.091 186.49 449.929 192.316 446.767 198.142C445.364 200.727 443.961 203.312 442.538 205.868C442.148 206.569 441.746 207.265 441.344 207.96C441.179 208.246 441.014 208.531 440.85 208.817C442.138 200.696 443.868 192.978 445.593 185.28C445.79 184.399 445.988 183.519 446.184 182.638C446.791 179.938 447.391 177.183 447.657 174.382C448.2 168.679 446.026 163.373 442.582 161.404C438.916 159.314 435.011 161.228 432.666 166.331C432.091 167.579 431.617 168.928 431.155 170.278C427.471 181.011 422.567 190.504 417.22 199.527ZM369.379 200.993C369.543 200.951 369.757 200.896 370.042 200.802L370.048 200.812C370.339 216.194 376.267 226.076 384.919 233.795C384.561 235.059 384.217 236.306 383.877 237.538C383.173 240.087 382.488 242.571 381.734 245.008C379.168 253.319 375.919 260.991 371.47 267.453C370.503 268.858 369.454 270.263 368.272 271.215C359.5 278.269 353.256 273.286 350.121 260.067C348.427 252.921 349.142 245.424 350.456 238.223C353.332 222.443 359.898 210.509 368.885 201.2C368.985 201.093 369.123 201.058 369.379 200.993ZM388.332 196.337C385.747 200.137 385.924 203.797 388.894 207.005C389.412 203.28 389.659 199.813 388.332 196.337Z" fill="white"/>
</g>
</svg>
