<svg width="230" height="215" viewBox="0 0 230 215" fill="none" xmlns="http://www.w3.org/2000/svg">
<g clip-path="url(#clip0_6_1338)">
<path d="M15.5194 210.241C14.9032 210.231 14.3143 210.409 13.7199 210.527C12.0404 210.872 11.3205 210.473 10.9661 208.84C10.5462 206.904 10.2572 204.942 9.87003 203.001C8.20138 194.548 7.14349 185.993 5.67661 177.507C4.19337 168.936 2.76466 160.359 1.34141 151.776C0.877897 148.973 0.490728 146.159 0.0762942 143.345C0.0217634 142.962 -0.0164081 142.569 0.0108573 142.186C0.0981065 141.118 0.736117 140.45 1.79401 140.267C6.7236 139.399 11.6532 138.52 16.5937 137.69C17.2699 137.577 17.6734 137.307 18.0224 136.741C20.22 133.172 22.4721 129.636 24.6642 126.067C30.1664 117.118 36.2139 108.525 42.0923 99.8182C51.2371 86.2761 60.1311 72.5668 69.5158 59.181C75.6942 50.3614 81.8125 41.4987 88.6016 33.1157C88.7052 32.9863 88.7815 32.8354 88.8797 32.679C88.6561 32.334 88.2799 32.3178 87.9799 32.1992C81.6107 29.7032 77.2646 23.6438 77.1992 16.8835C77.1229 8.89406 81.8998 3.74568 87.8382 1.98284C88.1272 1.89658 88.4544 1.88041 88.667 1.63781C89.5832 0.586574 90.8592 0.414062 92.1243 0.414062C100.849 0.419453 108.118 6.84549 108.882 14.808C109.361 19.8108 108.162 24.2853 104.912 28.183C103.881 29.4175 102.589 30.3663 101.258 31.2612C101.509 31.6979 101.923 31.8704 102.278 32.113C106.471 34.9864 110.507 38.0646 114.542 41.1536C139.255 60.0759 163.794 79.2085 188.235 98.4758C190.312 100.115 192.379 101.77 194.43 103.446C195.231 104.104 196.082 104.735 196.534 105.711C196.774 106.223 197.172 106.018 197.543 105.953C200.679 105.436 203.814 104.913 206.961 104.417C208.678 104.147 210.391 103.829 212.157 104.007C213.063 104.099 213.608 104.498 213.87 105.333C214.088 106.029 214.333 106.719 214.562 107.409C214.568 107.538 214.551 107.673 214.584 107.791C215.713 111.867 216.465 116.018 217.169 120.18C218.69 129.14 220.408 138.056 222.028 147C223.604 155.685 224.869 164.424 226.265 173.135C226.417 174.1 226.15 174.569 225.234 174.984C224.803 175.179 224.334 175.319 223.871 175.421C222.3 175.772 220.73 176.127 219.148 176.429C211.11 177.976 203.051 179.427 194.953 180.65C187.073 181.842 179.215 183.195 171.352 184.483C163.958 185.696 156.569 186.909 149.174 188.128C140.493 189.562 131.812 190.996 123.136 192.435C114.586 193.848 106.03 195.249 97.4847 196.689C89.1524 198.09 80.831 199.551 72.4986 200.947C63.3484 202.478 54.1872 203.956 45.0369 205.47C37.0427 206.797 29.0485 208.08 21.0379 209.293C19.1948 209.573 17.3298 209.735 15.5249 210.241H15.5194ZM82.3905 22.5925C82.5923 22.1235 82.3687 21.6868 82.3578 21.2178C82.2542 16.0641 84.31 12.0478 88.7434 9.26604C89.4904 8.79702 90.063 8.79702 90.5374 9.2283C91.0173 9.66497 91.0282 10.1663 90.5647 10.9588C90.5429 10.9965 90.5102 11.0235 90.4829 11.0612C90.0685 11.6435 90.2157 12.2311 90.5702 12.7432C90.99 13.3578 91.4917 12.9373 91.9607 12.7486C92.0807 12.7001 92.1952 12.6408 92.3151 12.5869C93.5912 12.0154 93.6784 11.7621 93.0186 10.576C92.3915 9.44933 92.795 8.46278 94.0547 8.05307C94.8672 7.78891 95.6906 7.8536 96.514 7.96681C98.259 8.2148 99.884 8.80781 101.416 9.66497C101.678 10.01 102.033 10.2148 102.589 10.4413C102.212 10.0423 102.12 9.62723 101.727 9.45472C99.366 6.59751 96.3668 5.00717 92.5932 4.94248C91.6771 4.92631 90.7228 5.07725 89.8722 4.73762C89.1796 4.45729 88.618 4.59206 88.0072 4.85083C81.5289 7.60562 78.4152 15.622 82.1015 22.4038C82.167 22.5224 82.2433 22.6033 82.396 22.5925H82.3905ZM223.565 172.774C223.451 172.192 223.374 171.766 223.287 171.346C221.739 163.928 220.141 156.52 218.728 149.07C216.989 139.889 215.446 130.671 213.619 121.506C212.719 116.988 211.912 112.449 211.465 107.856C211.263 105.808 211.285 105.824 209.311 106.206C204.011 107.236 198.716 108.287 193.404 109.252C183.851 110.983 174.28 112.649 164.721 114.352C154.775 116.126 144.828 117.91 134.887 119.695C127.989 120.935 121.091 122.196 114.187 123.436C105.741 124.956 97.2938 126.46 88.8524 127.97C79.5495 129.636 70.2465 131.312 60.9436 132.967C50.9535 134.746 40.958 136.509 30.968 138.272C23.2901 139.631 15.6121 140.984 7.93418 142.326C6.39096 142.596 4.83683 142.822 3.29361 143.097C2.4811 143.242 2.44293 143.323 2.5738 144.121C2.60107 144.294 2.65015 144.455 2.68287 144.628C3.24999 147.631 3.84437 150.633 4.38423 153.642C6.10195 163.221 7.77604 172.807 9.51012 182.381C10.4208 187.421 11.5659 192.424 12.3566 197.486C12.8147 200.424 13.3382 203.346 13.8017 206.279C13.9053 206.921 14.0907 207.169 14.8105 207.018C16.261 206.716 17.7279 206.522 19.1893 206.268C24.8987 205.276 30.5972 204.252 36.312 203.282C43.8264 202.009 51.3516 200.764 58.8714 199.53C66.5221 198.273 74.1782 197.034 81.8343 195.794C88.9724 194.635 96.1159 193.502 103.254 192.338C111.466 191.001 119.673 189.643 127.886 188.284C135.362 187.044 142.838 185.788 150.314 184.543C157.278 183.384 164.23 182.187 171.199 181.087C178.73 179.901 186.25 178.634 193.753 177.292C201.644 175.879 209.562 174.634 217.507 173.556C219.486 173.286 221.471 173.038 223.576 172.763L223.565 172.774ZM25.8148 135.916C29.0158 135.657 189.118 107.463 190.438 106.929C188.758 105.64 187.111 104.379 185.47 103.107C161.253 84.3892 137.118 65.5693 113.184 46.4961C108.293 42.5984 103.309 38.8193 98.7552 34.5389C97.4574 33.3206 96.2523 32.7329 94.5236 33.1966C94.1147 33.3044 93.8311 33.3799 93.6293 33.7896C91.5463 37.973 88.9888 41.8814 86.4531 45.7953C78.1371 58.6473 69.4122 71.2299 60.5455 83.71C52.0278 95.6941 43.3683 107.587 35.3086 119.883C31.9223 125.048 29.1521 130.568 25.8094 135.922L25.8148 135.916ZM103.118 24.7435C99.8404 27.4929 96.0396 28.5819 91.9334 28.5819C89.0051 28.5819 86.7803 26.819 86.0005 24.0157C85.1389 20.9213 85.8423 18.145 88.1108 15.7945C88.438 15.4549 88.8852 15.2338 89.136 14.7271C88.667 14.2527 88.4162 13.6166 88.0617 13.0128C87.9254 13.126 87.8109 13.1907 87.7346 13.2823C84.4791 17.2501 84.201 22.4362 86.9384 26.7543C87.6528 27.8811 88.558 28.5765 89.834 28.9754C94.8236 30.5442 100.326 28.846 103.123 24.7489L103.118 24.7435Z" fill="white"/>
<path d="M15.5195 210.242C17.3245 209.735 19.1894 209.573 21.0326 209.293C29.0431 208.08 37.0428 206.797 45.0316 205.471C54.1818 203.95 63.343 202.479 72.4933 200.948C80.8256 199.551 89.147 198.09 97.4793 196.689C106.024 195.249 114.58 193.853 123.131 192.435C131.812 191.001 140.488 189.562 149.169 188.128C156.558 186.909 163.952 185.697 171.347 184.484C179.21 183.195 187.068 181.842 194.948 180.651C203.045 179.427 211.105 177.977 219.143 176.429C220.724 176.128 222.295 175.772 223.865 175.421C224.329 175.319 224.798 175.179 225.229 174.985C226.145 174.57 226.412 174.095 226.259 173.136C224.863 164.418 223.593 155.685 222.022 147C220.403 138.062 218.679 129.14 217.163 120.18C216.46 116.024 215.702 111.867 214.579 107.792C214.546 107.673 214.562 107.538 214.557 107.409C214.906 107.398 215.244 107.371 215.588 107.29C217.131 106.918 218.658 107.813 218.968 109.306C219.492 111.824 220.141 114.315 220.692 116.821C221.226 119.237 221.58 121.7 221.913 124.159C222.273 126.87 222.764 129.566 223.255 132.261C223.903 135.841 224.623 139.404 225.289 142.978C226.074 147.227 226.859 151.475 227.584 155.733C228.01 158.219 228.326 160.726 228.691 163.222C229.035 165.594 229.487 167.955 229.667 170.332C229.787 171.869 230.038 173.4 230 174.947C229.962 176.386 229.471 177.454 227.993 178.079C226.096 178.877 224.094 179.265 222.126 179.772C217.801 180.882 213.406 181.664 209.033 182.537C204.409 183.465 199.757 184.284 195.117 185.141C190.776 185.939 186.43 186.71 182.078 187.465C177.601 188.246 173.13 189.066 168.647 189.799C164.034 190.548 159.443 191.422 154.818 192.123C151.007 192.699 147.206 193.314 143.411 193.982C139.533 194.662 135.656 195.373 131.774 196.02C127.335 196.759 122.88 197.422 118.441 198.155C115.665 198.613 112.917 199.239 110.13 199.611C106.695 200.069 103.303 200.764 99.8732 201.271C95.9361 201.848 92.0262 202.613 88.0945 203.26C84.1629 203.907 80.2257 204.489 76.2941 205.136C72.3679 205.783 68.4471 206.495 64.5209 207.142C60.5892 207.789 56.6521 208.371 52.7204 209.012C48.7942 209.659 44.8734 210.36 40.9472 211.023C37.2773 211.638 33.6128 212.285 29.9265 212.824C26.7147 213.293 23.5301 213.94 20.2855 214.188C20.0292 214.209 19.7838 214.333 19.5275 214.376C17.788 214.678 15.9885 213.261 15.8848 211.525C15.8576 211.072 16.0484 210.554 15.514 210.242H15.5195Z" fill="#0274D7"/>
<path d="M101.411 9.67021C101.514 9.60013 101.618 9.53004 101.722 9.45996C102.114 9.63247 102.207 10.0422 102.583 10.4465C102.033 10.2201 101.673 10.0206 101.411 9.67021Z" fill="#0274D7"/>
<path d="M171.652 147.307C172.399 151.178 173.119 154.941 173.85 158.698C174.613 162.628 175.404 166.553 176.151 170.488C176.396 171.782 176.113 172.062 174.82 172.278C172.628 172.639 170.447 173.049 168.26 173.432C168.004 173.475 167.742 173.512 167.486 173.539C166.085 173.69 166.128 173.674 165.812 172.299C165.163 169.448 164.427 166.612 163.925 163.722C162.016 152.693 159.595 141.754 157.73 130.714C157.436 128.972 157 127.258 156.623 125.533C156.373 124.39 156.487 124.201 157.638 123.921C160.561 123.209 163.538 122.8 166.51 122.341C167.072 122.255 167.437 122.417 167.726 122.859C167.889 123.112 168.069 123.355 168.238 123.608C172.448 129.943 176.653 136.282 180.868 142.617C181.102 142.973 181.369 143.307 181.811 143.593C181.62 142.541 181.44 141.485 181.239 140.433C179.995 134.094 178.747 127.759 177.509 121.419C177.307 120.395 177.563 120.023 178.621 119.77C180.41 119.349 182.253 119.349 184.069 119.096C184.93 118.972 185.797 118.853 186.654 118.713C187.733 118.535 187.94 118.627 188.164 119.711C188.415 120.934 188.595 122.169 188.791 123.403C189.576 128.385 190.694 133.296 191.67 138.239C193.355 146.773 195.079 155.296 196.791 163.825C196.976 164.752 197.2 165.669 197.516 166.569C197.854 167.539 197.609 167.949 196.611 168.154C194.097 168.671 191.572 169.157 189.047 169.636C188.709 169.701 188.355 169.696 188.006 169.706C187.297 169.733 186.801 169.469 186.375 168.86C181.664 162.078 176.969 155.286 172.535 148.32C172.328 147.997 172.186 147.625 171.663 147.296L171.652 147.307Z" fill="white"/>
<path d="M73.224 184.284C73.2894 184.677 73.0768 185.033 72.7932 185.384C71.4572 187.028 70.1321 188.683 68.807 190.338C68.0163 191.33 67.0457 191.826 65.7097 191.977C61.08 192.505 56.4612 193.104 51.9079 194.128C51.8643 194.139 51.8261 194.149 51.7825 194.16C50.2338 194.57 48.8433 194.392 47.4691 193.443C46.084 192.484 44.5681 191.697 43.0576 190.931C41.9615 190.376 41.498 189.524 41.3453 188.381C40.9091 185.012 40.4674 181.637 39.9875 178.273C39.2568 173.162 38.5206 168.046 37.7299 162.941C37.2064 159.534 36.8192 156.116 36.5575 152.682C36.4703 151.55 36.7047 150.644 37.5445 149.766C38.8314 148.423 39.9493 146.93 41.0945 145.464C41.8633 144.477 42.8394 143.992 44.0773 143.857C49.3613 143.264 54.5745 142.277 59.804 141.345C60.3111 141.253 60.7583 141.377 61.1836 141.604C63.0595 142.606 64.919 143.641 66.8003 144.633C67.5201 145.016 67.8745 145.566 67.9672 146.364C68.2835 149.054 68.6107 151.749 68.9924 154.434C69.8158 160.186 70.6938 165.928 71.5172 171.68C72.1007 175.728 72.6296 179.782 73.1858 183.831C73.2022 183.96 73.2076 184.09 73.224 184.289V184.284ZM62.247 182.16C62.2197 181.885 62.2033 181.669 62.1706 181.459C61.7889 178.688 61.3908 175.923 61.02 173.152C60.3493 168.165 59.6895 163.178 59.0351 158.186C58.7843 156.267 58.5716 154.342 58.3316 152.423C58.2226 151.55 58.2117 151.555 57.301 151.62C57.2574 151.62 57.2138 151.62 57.1701 151.631C54.111 152.046 51.0518 152.472 47.9872 152.876C47.5673 152.93 47.48 153.119 47.54 153.475C47.5727 153.685 47.5836 153.9 47.6163 154.116C48.6088 160.839 49.285 167.604 50.1738 174.338C50.5665 177.324 50.9318 180.311 51.3299 183.297C51.4608 184.268 51.488 184.257 52.475 184.111C54.2418 183.853 56.0086 183.621 57.7754 183.362C59.0678 183.173 60.3547 182.958 61.6417 182.753C62.0125 182.694 62.3397 182.602 62.236 182.171L62.247 182.16Z" fill="white"/>
<path d="M78.2517 139.318C78.2244 138.31 78.5516 137.878 79.6313 137.663C81.1691 137.355 82.7232 137.14 84.2664 136.87C89.3269 135.981 94.4037 135.183 99.4314 134.132C100.773 133.851 101.814 134.035 102.872 134.628C104.541 135.56 106.368 136.18 107.976 137.231C108.554 137.609 108.958 138.013 109.029 138.746C109.536 144.024 110.703 149.194 111.581 154.412C111.859 156.067 112.028 157.739 112.404 159.378C112.573 160.111 112.361 160.704 111.843 161.259C110.316 162.909 108.816 164.591 107.311 166.256C107.011 166.591 106.646 166.763 106.188 166.849C102.507 167.523 98.8316 168.213 95.1508 168.898C94.9817 168.93 94.8018 168.93 94.6327 168.979C93.902 169.184 93.6294 169.017 93.8093 170.154C94.5782 175.087 95.2544 180.03 95.9687 184.974C96.1487 186.208 96.056 186.3 94.7472 186.526C92.217 186.963 89.6977 187.438 87.1675 187.869C86.0987 188.052 85.9732 187.933 85.8042 186.904C84.2337 177.265 82.7177 167.615 81.2781 157.954C80.3784 151.911 79.3314 145.889 78.3553 139.857C78.3226 139.647 78.2789 139.431 78.2626 139.312L78.2517 139.318ZM98.957 143.992C96.116 144.391 93.3622 144.784 90.6029 145.156C90.0358 145.232 90.0576 145.533 90.1285 145.976C90.8047 150.305 91.4645 154.639 92.108 158.973C92.1952 159.539 92.4351 159.669 92.9804 159.566C95.6688 159.059 98.3681 158.585 101.062 158.094C101.962 157.927 101.951 157.922 101.831 157.043C101.253 152.827 100.14 148.703 99.5896 144.482C99.5296 144.024 99.2897 143.9 98.957 143.997V143.992Z" fill="white"/>
<path d="M131.299 138.251C131.452 139.911 131.845 141.496 132.123 143.097C132.39 144.623 132.663 146.149 132.93 147.674C133.104 148.655 133.099 148.628 134.178 148.537C137.794 148.224 141.295 147.286 144.834 146.58C145.09 146.531 145.341 146.445 145.597 146.418C146.377 146.343 146.639 146.472 146.819 147.238C147.075 148.327 147.25 149.432 147.435 150.537C147.653 151.852 147.888 153.168 148.029 154.494C148.144 155.55 147.92 155.815 146.884 155.993C143.192 156.623 139.522 157.346 135.858 158.133C135.645 158.176 135.433 158.219 135.215 158.257C134.92 158.305 134.74 158.418 134.795 158.764C135.362 162.198 135.918 165.637 136.491 169.147C139.092 168.672 141.6 168.225 144.109 167.761C146.552 167.314 148.989 166.845 151.432 166.397C152.359 166.23 152.561 166.354 152.79 167.308C153.253 169.238 153.499 171.206 153.782 173.163C153.87 173.756 153.973 174.349 154.066 174.947C154.219 175.939 154.093 176.155 153.122 176.451C150.952 177.109 148.722 177.503 146.508 177.972C141.431 179.044 136.289 179.707 131.179 180.554C130.661 180.64 130.154 180.78 129.636 180.84C128.605 180.958 128.349 180.764 128.126 179.74C127.139 175.195 126.391 170.602 125.574 166.025C124.199 158.311 122.858 150.591 121.506 142.871C120.977 139.863 120.442 136.855 119.935 133.841C119.826 133.205 119.788 132.558 119.766 131.911C119.728 130.784 119.837 130.644 120.911 130.412C121.636 130.256 122.367 130.127 123.103 130.04C126.702 129.625 130.187 128.623 133.748 127.986C136.921 127.42 140.079 126.79 143.247 126.202C144.447 125.981 144.823 126.202 145.09 127.393C145.505 129.243 145.848 131.108 146.224 132.962C146.241 133.049 146.246 133.135 146.262 133.216C146.633 135.243 146.639 135.248 144.648 135.636C140.21 136.499 135.814 137.539 131.277 138.24L131.299 138.251Z" fill="white"/>
<path d="M12.5366 147.318C13.0765 146.962 13.4855 146.633 13.9435 146.401C15.9066 145.409 17.9406 146.59 18.0443 148.763C18.0988 149.895 17.6843 150.871 17.0518 151.771C16.7464 152.202 16.5719 152.612 16.5937 153.183C16.6592 155.275 14.9305 156.817 12.8529 156.439C10.4481 156.003 8.79583 154.569 7.93424 152.288C7.71612 151.712 7.65068 151.081 7.89062 150.52C8.15782 149.895 8.06512 149.372 7.7761 148.806C7.51981 148.299 7.44346 147.744 7.45437 147.172C7.47073 146.331 7.80882 145.652 8.5777 145.275C9.34114 144.897 10.1046 145.005 10.808 145.463C11.5115 145.916 11.9968 146.585 12.5366 147.323V147.318Z" fill="white"/>
<path d="M189.953 119.598C189.92 119.053 190.034 118.719 190.422 118.617C190.89 118.493 191.174 118.784 191.289 119.194C191.436 119.733 191.529 120.288 191.648 120.832C193.312 128.31 194.958 135.792 196.643 143.264C198.045 149.48 199.523 155.674 200.771 161.922C200.99 163.017 201.093 164.133 201.262 165.238C201.333 165.707 201.29 166.144 200.761 166.273C200.15 166.424 199.948 166.009 199.784 165.502C198.939 162.871 198.372 160.181 197.816 157.48C195.853 147.954 193.884 138.429 191.948 128.897C191.359 125.986 190.814 123.07 190.067 120.191C190.002 119.943 189.974 119.684 189.958 119.598H189.953Z" fill="white"/>
<path d="M202.113 112.078C202.533 111.544 202.833 111.059 203.231 110.671C204.065 109.851 205.063 109.517 206.219 109.964C207.359 110.406 207.877 111.301 207.991 112.46C208.019 112.714 208.041 112.994 207.97 113.231C207.648 114.304 207.506 115.323 208.024 116.428C208.335 117.097 208.013 117.862 207.539 118.482C206.17 120.283 203.1 120.326 201.731 118.52C201.36 118.029 200.951 117.614 200.483 117.226C199.845 116.698 199.283 116.099 198.841 115.393C198.585 114.989 198.372 114.574 198.285 114.094C197.947 112.277 199.359 111.032 201.126 111.614C201.453 111.722 201.753 111.9 202.118 112.072L202.113 112.078Z" fill="white"/>
<path d="M76.7411 182.683C76.8011 183.34 76.4358 183.831 75.8741 183.907C75.2743 183.987 74.7889 183.588 74.6799 182.823C74.4345 181.119 74.2382 179.41 74.0146 177.702C73.1639 171.216 72.2914 164.736 71.4735 158.246C70.9827 154.359 70.5737 150.466 70.1484 146.574C70.0993 146.127 69.9248 145.447 70.5028 145.34C71.2499 145.199 71.2063 145.997 71.2772 146.439C72.0351 150.978 72.7822 155.523 73.4693 160.073C74.3363 165.814 75.1434 171.567 75.9723 177.319C76.2286 179.109 76.4848 180.898 76.7411 182.683Z" fill="white"/>
<path d="M111.439 139.253C111.439 139.026 111.439 138.983 111.439 138.94C111.439 138.509 111.39 138.002 111.984 137.953C112.475 137.916 112.622 138.358 112.693 138.741C112.982 140.347 113.211 141.964 113.522 143.565C114.389 147.997 114.885 152.477 115.589 156.93C115.671 157.436 115.834 157.927 115.911 158.434C115.982 158.914 115.823 159.302 115.262 159.35C114.787 159.388 114.531 159.102 114.482 158.666C113.958 153.841 112.759 149.118 112.203 144.293C112.001 142.547 111.674 140.816 111.428 139.253H111.439Z" fill="white"/>
<path d="M96.056 171.95C96.056 171.95 96.0451 171.793 96.056 171.669C96.0833 171.276 96.1214 170.834 96.6177 170.791C97.0266 170.753 97.1848 171.125 97.2993 171.459C97.681 172.607 97.8282 173.804 98.0246 174.99C98.5317 178.036 99.0007 181.093 99.486 184.144C99.595 184.834 99.3715 185.249 98.8534 185.341C98.379 185.422 97.9482 185.109 97.8664 184.543C97.2557 180.424 96.6667 176.306 96.0669 172.187C96.0614 172.144 96.0614 172.101 96.0505 171.955L96.056 171.95Z" fill="white"/>
<path d="M179.145 170.035C179.161 170.396 179.112 170.731 178.774 170.822C178.408 170.919 178.228 170.628 178.147 170.315C178.01 169.82 177.907 169.313 177.781 168.811C177.007 165.717 176.456 162.585 175.955 159.437C175.933 159.307 175.9 159.183 175.889 159.054C175.856 158.639 175.922 158.24 176.391 158.126C176.882 158.008 177.105 158.348 177.209 158.752C177.323 159.21 177.394 159.679 177.503 160.137C178.239 163.286 178.632 166.493 179.09 169.685C179.106 169.814 179.128 169.938 179.145 170.024V170.035Z" fill="white"/>
<path d="M169.967 122.115C170.267 122.093 170.441 122.293 170.6 122.498C171.27 123.344 171.979 124.158 172.59 125.042C174.357 127.592 176.085 130.169 177.825 132.735C177.945 132.913 178.059 133.102 178.13 133.296C178.212 133.511 178.147 133.727 177.967 133.878C177.738 134.067 177.476 134.045 177.252 133.878C177.116 133.776 177.012 133.635 176.914 133.495C174.591 130.18 172.148 126.94 170.136 123.425C169.967 123.128 169.825 122.816 169.711 122.492C169.651 122.314 169.765 122.163 169.967 122.12V122.115Z" fill="white"/>
<path d="M154.791 165.831C155.075 165.831 155.255 165.939 155.342 166.155C155.451 166.435 155.544 166.721 155.625 167.006C156.334 169.54 156.258 172.198 156.885 174.748C156.983 175.136 156.771 175.443 156.362 175.492C155.953 175.546 155.713 175.292 155.675 174.893C155.451 172.413 154.628 170.025 154.442 167.54C154.409 167.114 154.404 166.683 154.42 166.257C154.426 166.025 154.595 165.88 154.791 165.831Z" fill="white"/>
<path d="M151.192 154.089C151.258 154.478 151.11 154.779 150.712 154.866C150.309 154.957 149.987 154.736 149.943 154.354C149.692 152.041 148.973 149.804 148.864 147.475C148.842 146.99 148.645 146.246 149.278 146.138C150.02 146.014 150.031 146.822 150.172 147.329C150.641 148.995 150.679 150.731 150.952 152.429C151.039 152.979 151.11 153.534 151.187 154.084L151.192 154.089Z" fill="white"/>
<path d="M136.949 159.265C137.369 159.313 137.461 159.669 137.554 159.992C137.947 161.394 138.377 162.796 138.595 164.241C138.726 165.087 138.786 165.944 139.07 166.763C139.228 167.233 139.048 167.653 138.536 167.766C138.017 167.879 137.707 167.551 137.641 167.071C137.347 164.904 136.676 162.801 136.578 160.607C136.562 160.267 136.556 159.922 136.578 159.583C136.589 159.405 136.741 159.292 136.949 159.265Z" fill="white"/>
<path d="M147.293 126.778C147.299 126.38 147.326 125.938 147.838 125.905C148.307 125.873 148.498 126.272 148.58 126.66C148.864 128.045 149.114 129.436 149.387 130.822C149.534 131.576 149.709 132.331 149.851 133.086C149.932 133.506 149.823 133.878 149.36 134.002C148.82 134.143 148.525 133.835 148.438 133.355C148.051 131.204 147.68 129.053 147.304 126.902C147.299 126.859 147.304 126.816 147.299 126.773L147.293 126.778Z" fill="white"/>
<path d="M135.885 146.068C135.847 146.553 135.694 146.887 135.225 146.968C134.773 147.043 134.478 146.822 134.293 146.434C134.255 146.359 134.233 146.272 134.228 146.186C134.097 144.299 133.617 142.461 133.388 140.59C133.371 140.461 133.36 140.332 133.366 140.208C133.377 139.917 133.311 139.561 133.699 139.458C134.146 139.34 134.331 139.669 134.429 140.008C134.609 140.628 134.784 141.248 134.898 141.879C135.105 143.022 135.367 144.143 135.694 145.259C135.782 145.545 135.831 145.841 135.885 146.073V146.068Z" fill="white"/>
<path d="M63.4793 139.813C63.6811 139.889 63.9374 139.954 64.1718 140.067C65.6442 140.795 67.111 141.528 68.5834 142.266C68.7361 142.342 68.8833 142.434 69.0251 142.536C69.3359 142.757 69.5104 143.048 69.3305 143.415C69.1178 143.846 68.747 143.889 68.3434 143.695C66.5766 142.87 64.8971 141.889 63.2339 140.892C62.9776 140.735 62.7649 140.487 62.9176 140.137C63.0158 139.916 63.2121 139.84 63.4847 139.813H63.4793Z" fill="white"/>
<path d="M104.187 132.164C104.236 131.868 104.394 131.7 104.699 131.673C105.075 131.641 105.37 131.835 105.664 132.002C107.088 132.822 108.505 133.657 109.929 134.488C110.076 134.574 110.234 134.655 110.354 134.773C110.594 135.005 110.659 135.291 110.479 135.593C110.299 135.889 110.01 135.954 109.689 135.884C109.607 135.868 109.514 135.846 109.443 135.803C107.824 134.8 106.204 133.803 104.59 132.795C104.361 132.655 104.214 132.439 104.187 132.175V132.164Z" fill="white"/>
<path d="M49.863 155.76C49.863 155.404 49.8466 155.016 49.863 154.634C49.8848 154.262 50.0429 153.954 50.4737 153.922C50.8827 153.89 51.1336 154.121 51.2426 154.488C51.3517 154.86 51.4389 155.237 51.5098 155.615C52.0442 158.623 52.3114 161.669 52.7695 164.693C53.4129 168.947 54.0291 173.205 54.509 177.481C54.6453 178.72 54.7817 179.96 54.9125 181.2C54.9725 181.761 54.8744 182.252 54.22 182.397C53.6529 182.521 53.2275 182.165 53.1185 181.405C52.4477 176.677 51.7279 171.955 51.2263 167.205C50.8936 164.041 50.4574 160.887 50.0757 157.723C49.9993 157.081 49.9339 156.44 49.863 155.766V155.76Z" fill="white"/>
<path d="M95.4889 156.208C95.4889 156.661 95.4998 156.92 95.4889 157.178C95.4671 157.561 95.2871 157.858 94.8891 157.917C94.4964 157.971 94.2401 157.734 94.082 157.394C93.6948 156.564 93.5585 155.664 93.4113 154.774C93.0459 152.612 92.7187 150.44 92.4024 148.267C92.3261 147.76 92.337 147.238 92.3479 146.725C92.3534 146.397 92.5551 146.149 92.8769 146.062C93.2804 145.96 93.5476 146.181 93.7057 146.521C93.8312 146.79 93.9566 147.076 94.0057 147.367C94.4964 150.122 94.9763 152.877 95.4562 155.631C95.4998 155.885 95.4889 156.149 95.4943 156.208H95.4889Z" fill="white"/>
</g>
<defs>
<clipPath id="clip0_6_1338">
<rect width="230" height="214" fill="white" transform="translate(0 0.414062)"/>
</clipPath>
</defs>
</svg>
