<svg width="347" height="555" viewBox="0 0 347 555" fill="none" xmlns="http://www.w3.org/2000/svg">
<g clip-path="url(#clip0_6_1343)">
<path d="M189.333 200.15C185.218 198.811 181.836 200.413 178.664 202.843C178.389 202.698 178.061 202.606 177.852 202.396C173.736 198.102 168.506 199.349 164.692 201.91C162.516 203.368 160.694 205.246 158.885 206.953C157.68 206.717 157.693 205.81 157.64 205.193C156.893 197.642 154.626 190.406 153.197 183C152.528 179.493 152.135 175.947 152.24 172.362C152.345 168.672 154.01 166.019 157.208 164.181C161.166 161.896 165.57 161.607 169.935 161.174C171.599 161.003 173.29 161.042 174.955 161.068C178.887 161.134 181.718 162.881 183.409 166.505C184.707 169.302 185.414 172.244 185.86 175.265C187.066 183.564 188.18 191.864 189.333 200.177V200.15ZM164.587 168.895C163.827 168.856 163.185 169.224 162.529 169.526C159.03 171.128 158.322 172.047 158.689 175.79C159.082 179.874 160.852 183.63 161.992 187.53C162.044 187.727 162.202 187.898 162.333 188.055C163.08 188.988 164.023 188.922 164.561 187.858C164.784 187.399 164.875 186.86 164.954 186.348C165.675 181.45 165.649 176.538 165.321 171.614C165.256 170.694 165.138 169.736 164.6 168.882L164.587 168.895Z" fill="#FF9DBF"/>
<path d="M313.59 521.867C312.279 518.715 312.567 515.498 312.607 512.267C312.62 511.007 312.856 509.562 311.938 508.643C310.667 507.369 310.89 506.134 311.296 504.651C311.65 503.35 311.768 501.958 311.794 500.593C311.82 499.332 311.742 497.861 310.614 497.152C309.028 496.154 309.133 494.919 309.395 493.396C309.658 491.912 309.684 490.192 308.242 489.404C306.695 488.563 306.944 487.434 307.062 486.2C307.18 484.834 307.416 483.481 307.482 482.129C307.652 478.596 308.373 474.998 306.433 471.649C306.066 471.019 306.119 470.244 306.184 469.482C306.748 463.087 306.617 456.678 306.577 450.269C306.512 438.28 305.568 426.355 304.388 414.444C304.074 411.24 303.746 407.983 301.597 405.239C300.941 404.411 300.745 403.059 301.02 401.903C302.252 396.939 301.112 392.093 300.417 387.221C300.168 385.461 299.696 383.701 298.739 382.178C297.455 380.129 295.79 379.788 293.68 381.075C293.274 381.324 293.024 381.915 292.159 381.561C292.159 378.12 292.408 374.535 291.95 371.002C291.203 365.237 291.465 359.472 291.596 353.694C291.727 348.021 291.74 342.348 291.294 336.688C290.888 331.553 290.246 326.431 288.332 321.599C287.546 319.602 287.257 317.567 287.061 315.466C286.445 309.188 286.366 302.885 285.933 296.608C285.055 283.83 284.033 271.052 282.984 258.287C282.381 250.96 281.765 243.632 280.9 236.33C279.236 222.239 276.365 208.371 273.023 194.582C268.147 174.411 258.985 156.709 244.135 142.079C236.729 134.791 228.065 129.695 218.078 126.898C208.037 124.075 197.735 123.05 187.354 122.551C175.912 122.013 164.849 124.206 153.918 127.213C146.355 129.288 138.779 131.337 131.347 133.911C119.275 138.1 107.282 142.434 96.4165 149.394C92.4319 151.955 89.2076 155.08 86.8089 159.138C85.3016 161.673 84.0826 164.338 83.0472 167.096C79.4951 176.499 77.3324 186.23 76.9916 196.263C76.5067 210.433 76.6902 224.603 76.8737 238.786C77.0703 254.243 78.0402 269.607 79.8883 284.972C82.4705 306.457 85.2623 327.876 90.1382 348.993C94.0703 366.078 98.1729 383.097 104.451 399.526C106.706 405.436 109.34 411.161 112.84 416.401C118.017 424.149 124.099 431.07 132.488 435.495C137.796 438.293 143.471 440.184 149.356 441.339C151.939 441.838 154.56 442.587 157.522 442.14C157.077 441.142 156.723 440.394 156.408 439.632C156.054 438.752 155.727 437.872 155.399 436.993C154.049 433.434 154.036 433.394 151.152 432.107C151.178 432.029 151.178 431.976 151.178 431.91C151.139 431.963 151.1 432.002 151.06 432.068C151.06 432.068 151.06 432.068 151.074 432.068C151.074 432.068 151.074 432.068 151.06 432.068L151.1 432.094L151.139 432.12C146.499 431.845 142.187 430.453 138.111 428.273C136.276 427.288 134.585 426.027 132.763 424.976C126.694 421.47 122.08 416.506 118.882 410.36C115.409 403.689 112.08 396.952 110.677 389.401C109.235 381.561 106.208 374.115 104.464 366.34C99.3263 343.319 94.149 320.298 91.2654 296.844C90.4396 290.186 89.4042 283.554 88.3163 276.922C87.9886 274.913 88.3425 273.652 90.2168 272.562C94.4111 270.133 98.8282 268.268 103.39 266.718C107.78 265.221 112.289 264.092 116.851 263.159C116.942 263.606 117.087 264.052 116.798 264.486C116.89 264.604 116.982 264.683 117.087 264.735C116.995 264.683 116.89 264.604 116.798 264.486C116.235 265.116 115.448 264.959 114.753 265.09C111.07 265.825 107.571 267.06 104.176 268.688C100.113 270.619 97.8452 273.744 97.1505 278.078C96.6918 280.901 96.6656 283.725 97.2947 286.535C99.0117 294.112 100.978 301.637 102.393 309.267C104.176 318.88 107.479 328.152 108.803 337.83C110.507 350.227 112.761 362.506 115.907 374.601C118.043 382.822 120.193 391.069 123.522 398.909C126.812 406.657 130.43 414.195 136.118 420.577C140.09 425.029 144.454 428.824 150.064 431.057C150.457 431.214 151.27 431.175 151.178 431.937C151.65 431.385 152.502 432.37 152.948 431.556C152.909 431.319 152.922 430.991 152.804 430.715C149.959 424.491 147.784 418.043 146.171 411.398C145.87 410.176 145.437 408.981 144.9 407.852C141.898 401.391 139.015 394.851 135.607 388.587C133.851 385.356 132.356 381.994 131.164 378.527C129.787 374.535 128.804 370.464 129.237 366.183C129.394 364.646 128.962 363.281 128.293 361.941C126.327 358.001 124.387 354.035 122.356 350.135C118.961 343.635 116.562 336.766 116.208 329.465C115.986 324.895 115.199 320.548 114.111 316.162C112.184 308.44 110.179 300.757 110.808 292.602C111.346 285.629 114.832 280.98 121.674 279.444C122.382 279.286 123.129 279.05 123.837 279.089C125.554 279.194 126.209 278.38 126.432 276.751C127.009 272.68 128.201 268.767 129.512 264.88C129.709 264.315 130.128 263.75 129.63 262.949C125.737 262.989 121.897 264.131 117.978 264.499C117.755 264.026 117.519 263.54 117.296 263.068C121.242 261.964 125.279 261.373 129.316 260.756C130.521 260.572 131.137 260.06 131.531 258.931C132.291 256.751 133.169 254.61 134.073 252.496C136.656 246.403 140.666 241.307 145.188 236.58C146.303 235.398 147.089 234.189 147.05 232.43C146.905 225.207 149.527 218.851 153.551 213.046C154.77 211.3 155.084 209.776 154.586 207.793C153.944 205.246 153.472 202.659 153.013 200.085C151.611 192.232 150.562 184.313 148.767 176.538C147.521 171.102 149.121 166.65 152.856 162.776C154.324 161.252 155.976 159.978 157.955 159.177C159.003 158.757 159.344 158.153 159.043 156.984C157.378 150.655 157.181 144.128 156.408 137.667C156.225 136.13 156.736 135.224 158.033 134.686C159.868 133.924 161.69 133.175 163.643 132.729C171.626 130.877 179.673 131.376 187.734 131.796C194.458 132.138 200.986 133.766 207.592 134.843C216.518 136.301 224.841 139.479 231.906 145.218C242.247 153.636 250.059 164.115 255.236 176.407C258.526 184.234 261.004 192.376 262.865 200.702C264.949 210.026 267.295 219.284 268.108 228.845C267.741 229.134 267.832 229.37 268.186 229.593C268.357 230.814 268.54 232.049 268.711 233.283C268.265 233.704 267.714 233.809 267.138 233.822C267.02 233.218 266.889 232.614 266.771 231.996C267.19 231.629 267.098 231.392 266.587 231.248C266.43 230.644 266.286 230.04 266.129 229.436C266.43 228.398 266.115 227.571 265.277 226.901C264.7 225.693 264.202 224.432 263.52 223.29C262.432 221.464 261.79 219.547 261.803 217.419C262.17 216.737 262.183 216.08 261.58 215.502C261.449 214.675 261.318 213.847 261.187 213.02C261.58 212.508 261.541 212.075 260.99 211.707C260.82 210.696 260.663 209.671 260.492 208.647C260.912 208.332 260.794 208.082 260.374 207.885C260.217 207.084 260.06 206.283 259.916 205.482C260.322 205.141 260.178 204.904 259.758 204.734C259.601 204.143 259.444 203.565 259.287 202.974C259.667 202.606 259.536 202.37 259.077 202.238C257.006 196.066 254.489 190.091 251.226 184.431C248.067 178.981 243.781 175.251 237.293 174.306C233.295 173.728 230.11 171.548 227.79 168.186C225.024 164.181 222.875 159.913 222.023 155.054C221.472 151.955 220.765 148.882 219.218 146.084C218.602 144.981 217.999 143.891 216.728 143.379C212.258 141.606 207.88 139.623 203.057 138.862C194.104 137.456 185.113 137.575 176.121 138.021C172.36 138.205 168.598 138.363 164.862 138.98C163.827 139.151 163.08 139.374 163.211 140.713C163.683 145.415 164.023 150.116 164.561 154.804C164.81 156.971 164.954 157.024 167.143 156.774C171.259 156.315 175.269 156.735 179.254 157.838C182.347 158.692 184.405 160.635 185.454 163.564C186.476 166.413 187.433 169.289 187.944 172.323C189.504 181.542 190.041 190.866 191.326 200.111C191.378 200.452 191.562 200.965 190.946 201.135C190.343 200.965 189.792 200.689 189.373 200.216C185.257 198.877 181.875 200.479 178.704 202.908C177.393 205.259 176.226 207.688 175.414 210.446C174.902 210.105 174.535 209.908 174.234 209.645C171.049 207.058 167.693 207.163 164.286 209.12C160.799 211.116 158.335 214.031 156.723 217.708C155.451 220.624 154.416 223.723 154.521 226.835C154.678 231.629 152.869 235.739 151.454 240.099C148.531 249.134 144.743 257.736 140.326 266.088C138.897 268.793 137.953 271.682 137.206 274.637C136.236 278.485 135.961 282.425 135.974 286.43C134.834 286.377 134.611 285.563 134.152 285.077C131.387 282.175 128.11 281.44 124.4 282.832C119.944 284.513 117.493 287.756 117.191 292.563C116.995 295.741 117.598 298.84 117.991 301.966C118.135 303.134 118.358 304.172 117.572 305.249C116.864 306.207 117.087 307.402 117.847 308.164C120.219 310.554 120.573 313.456 120.337 316.595C120.285 317.317 120.403 318.066 120.56 318.788C121.713 324.343 122.867 329.885 124.073 335.427C124.479 337.279 125.043 339.17 126.432 340.509C128.424 342.426 129.46 344.711 129.958 347.364C130.194 348.586 130.626 349.807 131.137 350.949C133.877 357.095 134.506 363.924 137.573 369.899C132.907 372.631 132.409 374.876 135.227 379.223C136.708 381.508 138.268 383.767 139.526 386.183C141.964 390.832 144.284 395.534 146.512 400.274C150.379 408.508 155.124 416.309 157.771 425.16C160.498 434.3 164.312 443.139 163.08 453.014C162.988 453.723 163.316 454.498 162.778 455.128C160.642 457.624 161.625 459.935 163.08 462.325C165.885 466.908 168.205 471.767 169.555 476.954C170.446 480.408 171.377 483.836 172.517 487.211C176.593 499.332 181.233 511.282 184.13 523.784C186.188 532.688 188.888 541.408 192.06 549.97C192.676 551.625 193.344 553.49 195.586 553.45C197.001 553.424 197.761 551.31 197.434 548.644C196.988 545.098 196.228 541.605 195.415 538.138C193.751 531.086 191.077 524.323 189.582 517.218C188.757 513.305 187.564 509.496 185.637 505.964C185.126 505.018 184.798 504.033 184.667 502.983C183.75 495.629 181.482 488.655 178.808 481.8C177.812 479.239 177.052 476.665 176.908 473.895C176.764 471.373 176.121 468.891 175.033 466.606C172.818 461.957 171.232 457.072 169.24 452.357C167.641 448.588 166.828 444.806 166.75 440.775C166.632 435.167 165.688 429.665 163.578 424.477C161.153 418.515 159.646 412.304 158.06 406.118C155.674 396.808 152.188 387.969 147.168 379.762C146.683 378.961 146.001 378.252 146.132 377.201C146.303 375.875 145.66 374.745 145.215 373.576C143.917 370.136 142.541 366.734 141.322 363.267C139.067 356.833 136.8 350.398 134.191 344.094C133.405 342.203 132.776 340.457 133.51 338.369C133.969 337.095 133.733 335.663 133.654 334.298C133.313 328.506 132.422 322.82 130.797 317.252C130.6 316.582 129.984 315.715 130.862 315.282C132.396 314.533 132.081 312.774 133.012 311.526C135.292 313.955 137.167 316.516 139.723 318.368C140.378 318.841 140.326 319.668 140.496 320.377C141.466 324.58 142.868 328.637 144.454 332.643C145.582 335.519 147.993 337.541 149.186 340.378C149.697 341.573 151.021 342.111 152.41 341.638C154.075 341.087 154.141 341.901 153.931 343.201C153.485 345.907 153.262 348.625 153.643 351.356C153.813 352.578 153.918 354.246 155.438 354.206C156.539 354.18 156.316 352.525 156.644 351.58C156.683 351.488 156.67 351.37 156.697 351.265C157.548 346.077 157.404 340.785 158.479 335.624C158.741 334.376 158.047 333.969 156.801 334.35C156.29 334.508 156.107 335.532 155.163 334.81C155.464 331.448 155.818 328.033 156.605 324.645C156.841 323.634 157.064 322.57 157.037 321.546C156.998 319.655 155.713 319.011 154.01 319.891C152.895 320.469 152.332 321.638 151.165 322.872C150.956 321.283 150.824 320.18 150.654 319.09C150.444 317.672 150.615 315.807 149.068 315.269C147.653 314.783 147.508 316.963 146.211 317.541C145.516 315.558 144.533 313.732 144.966 311.552C145.765 307.586 145.542 303.594 145.28 299.615C144.939 294.467 144.992 289.319 144.913 284.184C144.887 282.267 145.293 280.442 145.922 278.643C147.823 273.193 149.671 267.73 151.532 262.266C153.354 256.895 155.176 251.524 157.811 246.495C158.636 244.919 159.554 243.369 160.589 241.938C161.389 240.834 162.346 239.941 164.037 240.454C165.636 240.926 165.295 242.226 165.478 243.251C166.134 247.23 167.3 251.038 169.542 254.4C170.721 256.16 171.626 258.025 172.451 259.968C173.893 263.343 175.256 266.758 177.222 269.883C180.512 275.097 184.418 279.956 186.345 285.931C186.411 286.128 186.502 286.325 186.62 286.496C187.158 287.297 187.747 288.058 188.862 287.927C189.884 287.809 190.081 286.929 190.421 286.154C190.605 285.747 190.408 285.051 191.221 284.985C191.326 286.548 191.313 288.111 191.562 289.621C191.771 290.895 192.348 292.064 193.895 292.221C195.219 292.353 196.215 291.617 196.556 289.7C197.263 285.773 197.788 281.821 198.312 277.868C198.456 276.83 198.43 275.281 197.46 275.031C195.035 274.388 196.136 272.956 196.398 271.682C196.857 269.489 197.997 267.441 197.958 264.906C195.022 266.009 195.153 269.279 193.279 270.908C192.532 270.303 192.689 269.621 192.663 269.03C192.492 265.142 192.112 261.282 192.23 257.381C192.269 256.239 192.217 255.044 191.929 253.954C191.417 252.023 189.936 251.577 188.324 252.772C186.699 253.98 186.227 255.832 185.742 257.67C185.519 258.511 185.899 259.627 184.602 260.152C184.326 258.865 184.104 257.631 183.802 256.423C182.439 250.973 182.714 245.588 184.497 240.283C184.746 239.534 184.825 238.786 186.03 238.681C188.613 238.444 188.822 238.208 188.94 235.673C189.006 234.242 189.189 233.31 190.906 233.191C192.178 233.1 193.344 232.403 194.131 231.379C195.074 230.145 195.953 230.447 197.093 231.038C202.061 233.625 206.399 237.065 210.646 240.651C211.852 241.675 213.071 242.62 214.447 243.408C217.776 245.326 220.371 247.847 221.42 251.734C223.281 258.629 225.404 265.445 228.301 271.984C229.468 274.624 230.071 277.684 233.295 278.853C233.531 278.931 233.61 279.378 233.819 279.614C235.078 281.111 235.576 281.111 236.428 279.365C237.974 276.187 239.953 273.166 239.796 269.371C239.731 267.953 240.648 267.007 242.169 267.007C243.807 267.007 245.406 266.364 247.11 266.968C248.237 267.375 249.351 266.758 250.361 266.141C251.226 265.615 252.104 265.116 253.27 264.433C253.677 266.443 254.725 267.992 254.319 269.831C253.926 271.617 254.122 273.39 254.162 275.162C254.293 281.886 255.079 288.571 254.883 295.308C254.791 298.236 255.984 299.707 258.788 300.626C259.47 300.849 260.519 300.626 260.781 301.348C261.528 303.358 263.651 304.71 264.058 306.549C265.106 311.29 267.308 315.899 266.246 320.981C266.076 321.782 266.194 322.675 266.351 323.49C266.902 326.51 266.902 329.557 266.876 332.603C266.823 339.235 267.125 345.854 267.937 352.42C269.314 363.583 270.467 374.745 270.926 385.987C271.188 392.277 271.909 398.554 272.459 404.831C272.643 406.972 273.075 409.218 274.989 410.36C276.955 411.529 278.882 412.566 280.219 414.51C280.533 414.97 281.307 415.403 281.844 415.364C284.465 415.153 286.235 417.084 288.476 417.78C289.63 418.135 289.866 418.804 289.853 419.881C289.708 426.487 290.062 433.119 289.027 439.698C288.489 443.125 288.188 446.579 288.175 450.059C288.149 454.091 289.237 457.729 291.556 460.999C292.107 461.773 292.618 462.561 293.169 463.323C294.217 464.754 294.466 466.238 294.191 468.051C293.68 471.465 292.92 474.958 293.405 478.373C293.693 480.369 293.444 482.01 292.775 483.796C291.95 486.055 290.967 488.393 291.806 490.835C292.369 492.516 292.277 494.026 291.858 495.707C290.94 499.398 292.238 501.827 295.659 503.258C296.223 503.495 297.088 503.455 297.166 504.178C297.468 506.936 299.159 509.221 299.617 511.939C300.26 515.708 299.762 519.516 300.207 523.246C300.823 528.499 300.745 533.726 300.469 538.965C300.181 544.323 300.168 549.681 300.81 555.013H312.135C312.528 554.028 311.23 552.111 313.747 552.282C314.402 552.321 314.547 551.389 314.599 550.771C314.717 549.419 314.874 548.053 314.835 546.687C314.638 539.858 314.415 533.043 314.153 526.214C314.101 524.743 314.206 523.154 313.668 521.854L313.59 521.867ZM147.823 142.381C142.226 149.131 135.292 154.069 127.127 157.247C124.885 158.114 122.578 158.823 120.298 159.598C114.858 161.436 110.585 164.811 107.191 169.421C100.021 179.152 96.2592 190.13 95.25 202.107C94.6077 209.737 93.8737 217.38 93.8475 225.049C93.8213 233.979 94.5291 242.883 95.1844 251.774C95.3286 253.744 95.8005 255.7 96.2461 257.644C96.5738 259.102 96.2723 260.034 94.7257 260.494C92.0125 261.282 89.6663 262.91 87.1235 264.039C86.324 263.173 86.4813 262.175 86.4157 261.255C85.6293 251.839 84.4365 242.437 84.2137 233.008C83.8336 216.75 83.7025 200.439 88.159 184.549C89.4959 179.795 91.2785 175.212 93.0611 170.603C96.7311 161.121 103.783 154.804 112.512 150.51C122.644 145.533 132.972 140.897 143.773 137.443C145.804 136.8 147.771 136.156 150.064 137.181C150.13 139.374 149.016 140.937 147.823 142.381V142.381ZM124.151 292.064C124.125 291.722 124.453 291.289 124.728 291.013C124.912 290.829 125.305 290.724 125.58 290.777C125.881 290.829 125.999 291.131 125.934 291.486C125.2 295.308 126.38 298.84 128.005 302.609C123.221 300.035 124.4 295.793 124.151 292.064V292.064ZM165.059 232.522C162.333 231.077 162.306 231.077 163.106 228.464C163.919 225.772 164.771 223.079 166.291 220.676C166.855 219.77 167.431 218.825 168.637 218.457C165.74 222.751 164.194 227.308 165.072 232.522H165.059ZM185.808 220.098C184.405 219.993 183.343 220.9 181.797 221.648C183.042 216.842 183.619 212.245 186.017 208.161C187.171 211.773 186.935 215.41 186.974 219.022C186.974 219.77 186.568 220.151 185.795 220.085L185.808 220.098ZM243.781 253.783C243.374 254.86 242.326 254.177 241.566 254.019C240.687 253.835 240.766 253.192 241.041 252.562C242.339 249.502 243.125 246.219 245.078 242.936C246.926 247.072 245.078 250.421 243.781 253.783V253.783ZM237.345 241.53C236.27 239.955 235.3 238.326 233.243 237.88C232.482 237.722 232.509 236.921 232.889 236.343C235.025 233.021 237.502 230.066 241.684 229.344C246.075 228.569 249.299 231.261 249.627 236.186C243.61 234.006 241.631 234.885 237.358 241.53H237.345ZM267.714 236.829C267.61 236.278 267.505 235.726 267.387 235.161C267.23 234.951 267.072 234.728 267.007 234.492C267.085 234.728 267.23 234.938 267.387 235.161C267.793 234.767 268.213 234.4 268.842 234.57C268.96 235.358 269.078 236.146 269.209 236.934C268.711 236.895 268.213 236.855 267.714 236.829V236.829ZM292.068 399.67C290.94 397.031 291.111 395.731 293.26 393.144C292.972 395.731 293.837 397.898 292.068 399.67Z" fill="#100A0E"/>
<path d="M132.081 79.5952C132.92 82.4186 133.877 85.1764 135.161 87.8291C135.764 89.0636 136.446 90.2455 137.494 91.1516C140.155 93.4761 143.642 92.5831 144.808 89.2474C145.346 87.7372 145.372 86.1613 145.201 84.5855C144.913 81.8671 144.507 79.1749 143.904 76.509C139.041 55.3397 132.776 34.5643 126.288 13.8677C125.436 11.1624 124.296 8.57532 122.854 6.11956C121.674 4.12344 120.258 2.29805 118.463 0.814088C116.798 -0.551678 115.553 -0.210236 114.924 1.83841C114.282 3.95272 113.993 6.1327 114.019 8.3652C114.072 11.2018 114.386 14.0121 115.016 16.783C119.826 37.9524 125.908 58.7804 132.068 79.5952H132.081Z" fill="#100A0E"/>
<path d="M343.487 81.3547C339.804 81.4204 336.54 82.7861 333.46 84.6509C317.417 94.3951 302.082 105.151 287.664 117.206C285.173 119.294 282.775 121.487 280.612 123.917C278.056 126.793 277.532 128.881 278.869 130.588C280.153 132.229 282.159 132.374 285.488 130.746C288.214 129.406 290.875 127.935 293.457 126.346C307.469 117.731 320.943 108.302 334.247 98.6369C336.449 97.0348 338.598 95.3538 340.682 93.5941C343.278 91.401 345.388 88.8008 346.528 85.5439C347.655 82.2871 346.895 81.2628 343.5 81.3416L343.487 81.3547Z" fill="#100A0E"/>
<path d="M49.5976 132.427C48.3262 130.89 47.0548 129.354 45.6786 127.909C36.2545 118.021 26.2144 108.802 15.5713 100.253C13.697 98.7423 11.7309 97.3372 9.72553 96.0108C7.87742 94.7764 5.81959 93.9884 2.72629 93.8046C0.550493 93.7126 -0.484976 94.9471 0.222813 97.8625C0.524279 99.0969 1.1141 100.213 1.82189 101.264C2.76561 102.669 3.87972 103.916 5.09869 105.072C15.5713 115.066 26.0964 125.007 37.0278 134.489C38.8497 136.065 40.8027 137.483 42.7557 138.901C43.9484 139.768 45.3116 140.385 46.7665 140.621C50.0564 141.173 52.2715 138.586 51.2885 135.408C50.9346 134.279 50.3316 133.294 49.5976 132.414V132.427Z" fill="#100A0E"/>
<path d="M210.069 83.7057C211.524 83.8502 212.428 82.9572 212.953 81.7096C213.398 80.659 213.765 79.5428 214.001 78.4265C215.587 71.1512 217.213 63.889 218.681 56.6005C221.066 44.6632 222.94 32.6471 223.452 20.4734C223.452 18.3722 223.53 16.2842 223.425 14.183C223.347 12.4758 222.744 10.8999 221.656 9.56038C220.45 8.07643 219.506 8.11582 218.418 9.65231C217.304 11.2413 216.898 13.1061 216.57 14.9578C214.303 27.8669 212.022 40.7629 209.833 53.6851C208.64 60.711 207.723 67.7893 207.277 74.9202C207.146 77.0213 207.159 79.1225 207.631 81.1843C207.933 82.5107 208.614 83.5481 210.069 83.6926V83.7057Z" fill="#100A0E"/>
<path d="M33.8296 175.054C28.9669 172.835 24.0124 170.878 18.835 169.565C17.9306 169.328 16.9869 169.223 16.5413 169.145C13.3169 169.066 11.4294 170.156 10.7348 172.152C10.0663 174.096 10.7479 176 12.7271 177.681C12.8843 177.812 13.0416 177.956 13.2251 178.061C18.586 181.384 24.209 184.116 30.2645 185.915C31.9946 186.427 33.7903 186.348 35.4943 185.626C38.9021 184.168 39.7803 180.425 37.3686 177.615C36.3987 176.486 35.1666 175.671 33.8296 175.054Z" fill="#100A0E"/>
<path d="M180.657 423.847C182.072 423.177 182.452 421.877 182.269 420.42C182.138 419.369 181.679 418.41 181.142 417.504C177.904 412.133 174.68 406.749 171.429 401.378C170.616 400.025 169.633 398.804 168.323 397.885C167.798 397.517 167.261 397.136 166.606 397.451C165.898 397.793 166.108 398.515 166.055 399.04C166.068 400.839 166.671 402.402 167.327 403.939C169.817 409.704 172.727 415.272 175.571 420.853C175.99 421.68 176.567 422.468 177.209 423.125C178.153 424.11 179.398 424.425 180.657 423.821V423.847Z" fill="#100A0E"/>
<path d="M244.711 100.975C246.062 101.408 247.163 100.646 248.146 98.5058C249.155 96.3258 250.059 94.1064 251.082 91.9265C251.92 90.1273 252.943 88.4201 253.755 86.6078C254.974 83.85 254.489 81.3812 252.654 80.4619C250.741 79.5032 248.604 80.5801 247.294 83.4561C246.166 85.925 245.223 88.4726 244.331 91.0466C243.65 93.0164 242.85 94.96 242.745 97.0875C242.68 99.1099 243.414 100.568 244.711 100.988V100.975Z" fill="#100A0E"/>
<path d="M80.8976 119.268C83.0079 118.27 83.9647 115.762 83.0472 113.043C82.1428 110.351 80.7272 107.909 78.9053 105.729C77.7388 104.337 76.2446 103.706 74.4489 104.284C72.9547 104.757 72.1813 106.267 72.2207 108.513C72.4697 111.323 73.2299 114.147 74.6193 116.747C76.0086 119.347 78.6432 120.332 80.9107 119.268H80.8976Z" fill="#100A0E"/>
<path d="M171.298 418.463C170.669 417.675 169.922 416.887 168.637 416.769C168.034 417.74 168.467 418.45 168.703 419.093C169.83 422.061 171.613 424.648 173.395 427.235C173.631 427.563 173.972 427.839 174.313 428.076C174.876 428.456 175.519 428.456 176.082 428.089C176.672 427.721 176.908 427.117 176.751 426.46C176.633 425.961 176.449 425.436 176.161 425.029C174.562 422.823 172.976 420.616 171.285 418.476L171.298 418.463Z" fill="#100A0E"/>
</g>
<defs>
<clipPath id="clip0_6_1343">
<rect width="347" height="555" fill="white"/>
</clipPath>
</defs>
</svg>
