<svg width="159" height="100" viewBox="0 0 159 100" fill="none" xmlns="http://www.w3.org/2000/svg">
<g clip-path="url(#clip0_6_1273)">
<path d="M0.608765 25.8046C0.784882 25.6787 0.955399 25.799 1.11473 25.8353C6.19963 26.9955 11.3544 27.454 16.5595 27.4512C21.9603 27.4512 27.3192 26.934 32.6585 26.1596C34.3162 25.9192 35.9822 25.7151 37.6343 25.4383C37.7853 25.4132 37.9418 25.3796 38.104 25.4551C38.1319 25.7067 38.0201 25.9304 37.9502 26.1624C37.3632 28.111 36.6671 30.0233 35.9291 31.9188C34.8808 34.6055 33.8801 37.3089 33.0051 40.0599C32.7535 40.8483 32.5271 41.6451 32.3789 42.4586C32.0351 44.329 31.476 46.1518 31.1377 48.0221C30.5032 51.5447 30.2767 55.0729 31.0371 58.6179C31.6605 61.5226 33.1001 63.9381 35.275 65.9175C37.1926 67.662 39.5129 68.4392 42.0679 68.5818C42.4006 68.6014 42.736 68.5818 43.0798 68.5818C43.2029 68.9117 43.0155 69.1466 42.954 69.387C42.4313 71.4502 42.8506 73.2842 44.2735 74.8722C44.6816 75.3251 45.1597 75.6913 45.7355 75.915C46.2387 76.1107 46.6524 76.4602 47.1556 76.6642C48.3856 77.1591 49.6883 77.3855 50.9602 77.7266C55.1002 78.8365 59.3102 79.6892 63.3775 81.0703C64.8367 81.5651 66.2764 82.1159 67.7188 82.6583C69.178 83.2062 70.285 84.1763 71.2271 85.3645C72.1021 86.466 72.9463 87.5955 73.8073 88.711C75.9095 91.434 78.28 93.9138 81.0391 95.9547C84.0106 98.1521 87.3875 99.4829 91.0999 99.8827C94.0966 100.204 96.9843 99.8631 99.7629 98.6749C100.465 98.3758 101.166 98.0738 101.655 97.4532C101.79 97.2826 101.952 97.2882 102.133 97.2994C105.639 97.4867 108.817 96.43 111.716 94.5764C115.479 92.1693 118.576 89.0716 120.815 85.1688C121.148 84.5873 121.453 83.989 121.749 83.3879C121.864 83.1531 121.973 83.0525 122.258 83.1223C124.522 83.6787 126.823 83.6619 129.126 83.483C132.702 83.2062 136.126 82.3284 139.397 80.8522C140.993 80.1337 142.472 79.2391 143.872 78.1767C145.868 76.6586 147.836 75.1154 149.592 73.3206C152.943 69.893 155.663 66.0517 157.262 61.4919C158.132 59.0289 158.601 56.4875 158.534 53.8652C158.489 52.1318 158.196 50.4404 157.492 48.8413C156.661 46.9541 155.378 45.5199 153.494 44.5918C152.373 44.041 151.319 43.3616 150.095 43.0345C149.362 42.8389 148.633 42.632 147.903 42.4223C147.45 42.2937 147.014 42.1315 146.631 41.838C144.227 39.9928 141.443 39.0954 138.513 38.5474C136.724 38.2119 134.91 38.2036 133.101 38.142C131.835 38.0973 130.571 38.0051 129.355 37.8625C129.277 37.7786 129.28 37.7423 129.322 37.7031C130.801 36.2186 131.343 34.379 131.363 32.3381C131.382 30.1575 130.513 28.3459 129.084 26.7635C127.225 24.703 124.905 23.3611 122.322 22.4329C120.069 21.625 117.738 21.0742 115.448 20.3809C112.432 19.4667 109.446 18.4434 106.383 17.6998C102.447 16.7436 98.4882 15.9189 94.432 15.6589C93.4732 15.5974 92.5088 15.5415 91.5499 15.5862C89.3611 15.6869 87.1695 15.6617 84.9779 15.7064C81.8917 15.7651 78.8139 15.9273 75.7417 16.26C72.4291 16.6178 69.097 16.766 65.7872 17.1602C61.6332 17.6578 57.5071 18.3036 53.4062 19.1368C50.1635 19.7966 46.9096 20.4004 43.6389 20.9065C43.091 20.9903 43.0854 20.9903 43.1022 20.4256C43.1357 19.1675 43.0267 17.9262 42.764 16.6933C42.4089 15.0327 41.6374 13.5957 40.4661 12.3655C39.443 11.292 38.3108 10.3498 37.0529 9.56423C34.2491 7.81132 31.2859 6.42743 28.0683 5.60829C22.3293 4.14613 16.5931 2.6644 10.8568 1.18267C9.13486 0.738151 7.36813 0.648688 5.6098 0.48374C4.09747 0.341159 2.58235 0.187394 1.07002 0.0420172C0.919067 0.0280386 0.762512 -0.0362629 0.608765 0.0420172V2.58892C1.76048 2.94956 2.9234 3.26548 4.09468 3.54785C6.24437 4.06785 8.44159 4.3642 10.5605 5.01839C11.9275 5.44055 13.3 5.83195 14.6782 6.22055C18.7428 7.364 22.8493 8.3453 26.9418 9.3881C29.8127 10.1206 32.4488 11.3451 34.9423 12.9079C35.8928 13.5034 36.7566 14.2107 37.5337 15.0215C38.0816 15.5946 38.5233 16.2292 38.7525 16.998C39.1578 18.3484 39.2194 19.7211 39.0824 21.1133C39.0488 21.446 38.9258 21.6082 38.5568 21.6585C36.0549 21.9996 33.5614 22.3854 31.0595 22.7209C26.6455 23.3108 22.2091 23.5456 17.756 23.5456C12.1931 23.5456 6.68605 23.0983 1.2601 21.829C1.05045 21.7787 0.83519 21.6809 0.608765 21.7731V25.799V25.8046ZM103.937 67.1308L103.925 67.1476L104.048 67.0442C104.224 66.7199 104.554 66.5549 104.823 66.3341C106.24 65.1655 107.78 64.2009 109.499 63.5411C109.698 63.4657 109.894 63.3119 110.131 63.4181H110.126C110.12 63.3175 110.173 63.2895 110.26 63.3035C110.405 63.2252 110.545 63.1973 110.69 63.3091C111.124 63.6446 111.604 63.9269 111.92 64.3966C112.34 64.7153 112.588 65.171 112.879 65.5932C113.528 66.7394 113.925 67.9584 113.969 69.2807C114.154 70.7625 113.997 72.2163 113.631 73.6533C112.784 76.9941 111.084 79.8597 108.753 82.3759C107.079 84.1819 105.161 85.6441 102.905 86.645C102.704 86.7344 102.516 86.8714 102.279 86.8546C100.959 87.5256 99.5589 87.78 98.0885 87.685C97.4176 87.671 96.755 87.5955 96.14 87.2991C95.5008 87.1389 95.1635 86.7531 95.1281 86.1417C95.1113 85.8538 95.0778 85.563 95.1616 85.2806C95.1449 85.1716 95.1113 85.0626 95.1169 84.9535C95.2567 82.7421 95.648 80.5726 96.3469 78.4703C96.7886 77.1423 97.3477 75.8619 98.1108 74.6793C98.3261 74.2431 98.6392 73.8657 98.874 73.4436C99.7909 71.8053 100.906 70.3124 102.145 68.9061C102.659 68.3218 103.173 67.7375 103.794 67.2622L103.786 67.279L103.934 67.1308H103.937ZM111.532 46.3782C111.462 46.4314 111.417 46.3894 111.375 46.3363C110.967 46.1713 110.564 45.9812 110.145 45.847C109.896 45.7688 109.726 45.643 109.564 45.4473C108.845 44.5582 107.956 43.8705 106.942 43.3505C106.749 43.3169 106.592 43.2303 106.466 43.0597C106.651 42.987 106.799 43.0709 106.947 43.1352C107.819 43.3505 108.599 43.7531 109.34 44.2535C110.117 44.7791 110.777 45.4305 111.409 46.1154C111.512 46.1546 111.576 46.2217 111.588 46.3335L111.669 46.4146C111.604 46.4733 111.56 46.4537 111.532 46.381V46.3782ZM67.4002 39.2547C67.3219 39.2855 67.2604 39.2687 67.2129 39.1988C65.421 38.3377 63.5341 38.1001 61.594 38.4692C56.0255 39.5231 51.5221 44.4492 50.9015 50.1049C50.7785 51.2176 50.7701 52.3331 50.7785 53.4514C50.7813 53.7841 50.8148 54.1196 50.6834 54.4439C50.4766 54.9583 50.0852 55.1624 49.5625 54.9918C48.8245 54.7514 48.4611 54.1839 48.2961 53.4738C48.2151 53.1271 48.162 52.7692 48.1312 52.4142C47.7734 48.1535 49.0006 44.3989 51.9218 41.2872C54.8822 38.1365 58.5274 36.6212 62.8967 37.2251C64.4789 37.4431 65.9912 37.9156 67.2296 39.0115C67.347 39.0339 67.4197 39.101 67.4421 39.2184C67.4896 39.2352 67.5679 39.2519 67.5176 39.3135C67.4728 39.3666 67.4253 39.3107 67.403 39.2547H67.4002ZM118.249 60.2226C118.696 60.1052 119.049 59.8228 119.379 59.5293C119.862 59.0987 120.329 58.6486 120.787 58.1957C121.271 57.7177 121.819 57.3402 122.465 57.125C123.692 56.7196 124.919 56.289 126.199 56.085C127.592 55.8641 128.774 55.2518 129.819 54.3348C129.94 54.2286 130.051 54.0553 130.27 54.1419C129.738 55.5007 129.361 55.9088 128.128 56.194C127.259 56.3953 126.409 56.6665 125.534 56.8426C123.686 57.2144 122.006 57.9385 120.544 59.1463C120.094 59.5181 119.591 59.8061 119.091 60.0996C118.833 60.2506 118.568 60.3484 118.263 60.2953C118.232 60.4491 118.118 60.4043 118.023 60.3904C117.97 60.3848 117.95 60.34 117.978 60.3009C118.048 60.2114 118.14 60.1835 118.249 60.2226ZM91.6785 39.47L91.7177 39.5511L91.6338 39.5679L91.6953 39.4812C92.9169 38.1085 93.9764 36.6268 94.843 35.0025C95.5558 33.6661 96.6768 32.7799 98.0549 32.19C100.235 31.2534 102.497 31.2394 104.764 31.6784C106.796 32.0725 108.717 32.833 110.59 33.8366C109.958 34.2672 109.326 34.6446 108.778 35.1339C108.599 35.2932 108.448 35.173 108.295 35.0835C107.408 34.5775 106.438 34.3259 105.44 34.1693C104.688 34.0519 103.942 34.0994 103.358 34.6446C102.863 35.1031 102.301 35.4638 101.778 35.8831C101.102 36.4255 100.33 36.5485 99.5058 36.336C99.2038 36.2577 98.9075 36.1543 98.6168 36.0397C97.4846 35.5951 96.4727 35.7713 95.5865 36.6156C95.458 36.7386 95.321 36.856 95.1952 36.9818C94.3202 37.8513 93.3167 38.5614 92.3103 39.2659C92.1286 39.3917 91.9637 39.6406 91.6785 39.4728V39.47ZM114.338 59.3532C113.463 59.1519 112.574 59.0233 111.677 59.1155C109.483 59.3392 107.375 59.8871 105.401 60.902C102.405 62.4396 99.9083 64.5839 97.9012 67.2706C93.4257 73.2674 91.4046 80.0191 91.8239 87.4948C91.8407 87.7884 91.8518 88.0792 91.8658 88.3727C90.633 86.7037 90.1103 84.8361 90.0684 82.8428C90.046 81.7944 90.1914 80.7488 90.3563 79.7088C91.3403 73.4883 94.0351 68.1317 98.4686 63.6558C99.9474 62.1628 101.641 60.9719 103.54 60.0856C107.02 58.4613 110.609 57.9581 114.344 59.1127C114.842 59.219 115.306 59.3979 115.714 59.7138C115.227 59.6803 114.774 59.5433 114.338 59.3587V59.3532ZM50.6918 60.8852C49.1487 61.928 47.6308 62.9904 46.2918 64.282C46.1045 64.4609 45.9088 64.5672 45.6433 64.5784C44.3685 64.6315 43.0966 64.707 41.8219 64.6035C41.1258 64.5476 40.4521 64.391 39.8064 64.1282C37.7266 63.2923 36.4183 61.6764 35.5266 59.7138C34.6209 57.7205 34.4503 55.565 34.523 53.4067C34.5985 51.212 34.8697 49.0398 35.4539 46.915C35.9291 45.1901 36.1388 43.4036 36.6615 41.6898C37.4806 38.9947 38.4562 36.3528 39.4681 33.722C40.4997 31.0297 41.5396 28.3375 42.23 25.5306C42.395 24.8624 42.395 24.8652 43.0994 24.7617C44.8242 24.5073 46.5546 24.2753 48.271 23.9845C51.578 23.4254 54.8738 22.8131 58.1808 22.2568C61.7981 21.6501 65.4238 21.1105 69.0802 20.7974C71.3082 20.6073 73.5417 20.4619 75.7613 20.2159C79.1214 19.8441 82.4927 19.6791 85.8696 19.6372C87.6363 19.6148 89.4002 19.6428 91.167 19.5393C91.9022 19.4946 92.643 19.5394 93.3782 19.5645C97.2191 19.7071 100.971 20.4731 104.688 21.3482C109.801 22.5531 114.788 24.2334 119.887 25.497C121.327 25.8549 122.691 26.4084 123.98 27.1465C125.215 27.8538 126.303 28.7261 127.15 29.8891C128.025 31.0885 128.232 32.4136 127.949 33.8366C127.712 35.0444 127.452 36.2382 126.666 37.253C126.479 37.4962 126.381 37.5605 126.099 37.4879C124.732 37.1356 123.435 36.5904 122.101 36.1403C121.852 36.0564 121.766 35.8747 121.679 35.665C121.333 34.8319 120.74 34.2057 120.007 33.6997C118.931 32.956 117.724 32.5926 116.427 32.5087C114.886 32.408 113.399 32.6569 111.959 33.2132C111.758 33.2915 111.574 33.4257 111.33 33.2971C109.829 32.5059 108.225 31.93 106.752 31.0773C106.587 30.9822 106.469 30.876 106.394 30.7054C105.74 29.2601 104.638 28.2452 103.26 27.5127C103.022 27.3869 102.902 27.2416 102.843 26.9704C102.419 25.0245 101.219 23.7357 99.4023 22.9893C98.7789 22.7321 98.1164 22.623 97.4595 22.4888C94.6221 21.9129 92.0112 22.486 89.5736 24.0013C87.6335 25.2063 86.1491 26.8557 84.8856 28.7261C83.7227 30.4482 82.9624 32.3046 82.9791 34.4182C82.9791 34.6698 82.9176 34.776 82.6549 34.7956C81.71 34.8599 80.9021 35.2736 80.139 35.8076C78.9257 36.6547 77.8104 37.622 76.7341 38.6285C74.7549 40.4821 72.3984 40.6386 69.8993 40.2556C69.7595 40.2332 69.6561 40.1745 69.5778 40.0487C68.6861 38.6481 67.3526 37.7506 65.9857 36.8868C64.8815 36.1878 63.6738 35.8496 62.3851 35.7293C59.3018 35.4442 56.4951 36.2577 54.0687 38.1113C49.2382 41.8016 46.6999 46.6774 47.0633 52.8335C47.2423 55.8585 48.2878 58.5927 50.5912 60.7147C50.6387 60.7566 50.6611 60.8265 50.689 60.8712L50.6918 60.8852ZM97.8704 42.9004C97.8592 42.9898 97.8704 43.0485 97.8453 43.0709C97.6803 43.2191 97.5182 43.3784 97.3365 43.5042C96.0059 44.4184 94.8206 45.5116 93.6717 46.6354C92.2544 48.0165 90.5715 48.6931 88.6203 48.7993C87.9969 48.8329 87.3764 48.9251 86.7586 49.023C86.3141 49.0929 86.1464 49.4451 86.3169 49.8673C86.4119 50.1077 86.5964 50.2643 86.8033 50.4041C87.122 50.6193 87.4798 50.7423 87.8348 50.8793C89.5903 51.5615 91.4241 51.9557 93.2551 52.3639C95.4328 52.8503 97.5993 53.3927 99.8021 53.7785C101.695 54.1112 103.548 54.6088 105.334 55.3357C106.17 55.674 106.902 56.1604 107.654 56.7475C107.369 56.8258 107.157 56.8789 106.95 56.946C105.569 57.3794 104.121 57.5863 102.827 58.302C100.618 59.5237 98.3652 60.6755 96.428 62.325C94.2447 64.1814 92.4305 66.3452 91.044 68.8614C91.002 68.9397 90.9629 69.0207 90.9126 69.0962C90.6861 69.4317 90.3535 69.4429 90.0935 69.1326C89.9454 68.9536 89.8699 68.744 89.8615 68.5175C89.8503 68.182 89.8503 67.8493 89.9062 67.5166C90.1494 66.0237 90.8371 64.7265 91.6841 63.5076C93.0539 61.5394 94.7731 59.9235 96.769 58.5983C96.9535 58.4753 97.1548 58.3635 97.3169 58.2125C98.0549 57.5248 97.9012 56.5714 96.9954 56.1381C96.6628 55.9787 96.3162 55.9452 95.95 55.9619C95.1672 55.9955 94.3873 56.0262 93.6046 56.0262C92.0112 56.0262 90.51 55.6488 89.1039 54.8912C88.1227 54.3628 87.2086 53.7086 86.1855 53.2529C82.4955 51.6146 78.8642 52.9034 76.9018 55.2295C76.3819 55.8445 75.8731 56.468 75.3643 57.0914C74.7689 57.8239 74.1092 58.4865 73.3349 59.0316C72.0182 59.9626 70.6121 60.2031 69.083 59.6355C68.6609 59.479 68.5407 59.5125 68.3282 59.9067C68.1493 60.2394 68.0096 60.5972 67.8949 60.9551C67.6769 61.6317 67.1989 61.914 66.4273 61.9895C67.6685 60.3261 68.5155 58.5564 69.2535 56.7308C69.3206 56.5658 69.3905 56.4009 69.4688 56.2387C70.3214 54.4131 71.406 52.7664 73.0833 51.5811C73.5753 51.2316 74.0617 50.8737 74.5621 50.5383C76.695 49.1041 79.1019 48.489 81.6177 48.215C83.0183 48.064 84.4272 48.3045 85.8333 48.1088C86.725 47.9858 87.5944 47.8376 88.419 47.4658C89.2549 47.0883 90.0488 46.6354 90.8287 46.1518C92.0615 45.3858 93.2999 44.6281 94.5355 43.8649C95.5586 43.233 96.6852 42.9814 97.8788 42.9004H97.8704ZM58.4967 60.9076C58.7287 60.2981 58.7678 59.7669 58.6784 59.2329C58.5358 58.3747 58.3849 57.5164 58.1277 56.6805C57.6664 55.1764 57.3953 53.6415 57.5099 52.0563C57.549 51.5 57.5602 50.9352 57.6525 50.3873C57.9124 48.8357 58.3681 47.3428 59.2738 46.0316C60.4395 44.3485 61.9602 43.0681 63.7409 42.0588C65.1358 41.2677 66.6314 41.0132 68.1829 41.0356C69.234 41.0524 70.2822 41.1167 71.3305 41.044C73.6396 40.8846 75.82 40.3227 77.7545 38.9808C78.2353 38.6481 78.6574 38.2539 79.1046 37.8848C80.1949 36.9818 81.3326 36.1431 82.789 35.9502C83.6081 35.8412 84.4328 35.7657 85.2574 35.7349C87.6475 35.6455 89.8251 34.9745 91.7205 33.4788C92.369 32.9672 93.0203 32.4556 93.6884 31.9691C95.0638 30.9626 96.4979 30.0568 98.1779 29.6403C99.2234 29.3803 100.277 29.1706 101.356 29.4194C102.033 29.576 102.684 29.808 103.282 30.1715C103.042 30.2106 102.821 30.1994 102.6 30.1882C100.973 30.1016 99.3883 30.2861 97.8676 30.9039C95.8801 31.7119 94.323 32.9308 93.6661 35.1003C93.2468 36.487 92.4081 37.6556 91.4912 38.7655C91.1278 39.2044 90.6861 39.5343 90.2165 39.8391C89.8419 40.0823 89.5037 40.0823 89.0983 39.8558C88.0053 39.2492 86.8899 38.6844 85.7774 38.1085C85.3608 37.8932 84.9443 37.6752 84.4915 37.5466C83.8765 37.3704 83.295 37.4375 82.7667 37.8149C81.6066 38.6425 81.109 39.7608 81.2935 41.1838C81.3634 41.7178 81.6205 42.1847 81.8162 42.6879C81.1928 42.8948 80.5862 42.8165 79.988 42.7885C78.1318 42.6991 76.709 43.4287 75.683 44.9916C75.6383 44.972 75.5768 44.9552 75.5237 44.9245C74.1651 44.0746 72.7171 43.4539 71.1376 43.1604C70.8917 43.1156 70.668 43.0178 70.4444 42.9171C69.3737 42.4251 68.2444 42.3412 67.0983 42.4754C66.4553 42.5509 65.8067 42.6627 65.2477 43.0178C64.4342 43.5322 63.6487 44.0885 63.0029 44.8126C61.0936 46.9569 60.2187 49.515 60.0509 52.3359C59.9196 54.5222 59.9447 56.7168 59.7854 58.9002C59.7546 59.3028 59.6931 59.6998 59.5757 60.0856C59.436 60.5525 59.1396 60.8489 58.4939 60.9132L58.4967 60.9076ZM157.427 54.7123C157.396 55.1372 157.366 55.6936 157.313 56.2499C157.276 56.6273 157.223 57.0047 157.148 57.3766C155.965 63.3063 153.156 68.3246 148.697 72.4147C147.067 73.9105 145.234 75.0819 143.19 75.9318C141.342 76.6978 139.433 77.1032 137.431 76.7928C135.41 76.4769 133.775 75.4956 132.688 73.7371C131.855 72.3924 131.388 70.9023 131.158 69.3367C130.868 67.3601 131.044 65.4003 131.522 63.4852C132.825 58.2628 135.441 53.7841 139.302 50.0378C140.82 48.5645 142.522 47.34 144.431 46.423C146.301 45.5227 148.247 44.9217 150.36 44.9832C152.409 45.0447 154.067 45.861 155.345 47.4574C155.837 48.0724 156.228 48.7434 156.538 49.4675C157.24 51.1002 157.444 52.8196 157.427 54.7123ZM94.5466 88.2301C94.2391 87.9533 94.1273 87.7101 93.9931 87.4837C93.476 86.6142 93.1405 85.6665 92.8191 84.7131C92.6765 84.2826 92.6206 83.8492 92.643 83.3963C92.7855 80.486 93.476 77.7014 94.5411 75.0036C96.3273 70.4857 99.011 66.6192 102.88 63.6306C106.064 61.1704 109.625 59.9403 113.69 60.3009C115.275 60.4407 116.734 60.751 117.981 61.8889C121.224 64.8495 122.945 68.4952 123.105 72.8677C123.2 75.4593 122.8 77.981 121.858 80.4189C121.358 81.7133 120.835 82.9882 120.125 84.1847C118.97 86.1361 117.595 87.9198 116.027 89.5553C115.205 90.4108 114.324 91.2048 113.352 91.8897C112.963 92.1637 112.546 92.3762 112.054 92.3678C111.66 92.3594 111.518 92.1805 111.627 91.803C111.736 91.4172 111.904 91.0762 112.228 90.7882C113.145 89.9691 114.025 89.1108 114.819 88.1686C117.83 84.6013 119.82 80.5195 120.91 75.9961C121.542 73.3737 121.634 70.7345 120.975 68.0954C120.69 66.9547 120.144 65.9315 119.583 64.9138C118.666 63.2588 117.355 62.0846 115.484 61.6065C113.838 61.1871 112.205 61.2766 110.581 61.7183C108.096 62.3977 105.96 63.7257 104.015 65.3695C100.118 68.6657 97.3589 72.7391 95.7431 77.5896C95.0918 79.5438 94.4935 81.5008 94.3342 83.5697C94.2168 85.0933 94.323 86.6058 94.5438 88.2301H94.5466ZM145.091 42.6543C143.942 42.8724 142.86 43.029 141.848 43.4651C141.655 43.549 141.502 43.4763 141.345 43.3812C140.87 43.0961 140.344 43.0038 139.805 42.9842C138.888 42.9507 137.971 42.9311 137.057 43.0038C135.092 43.1548 133.132 43.1687 131.175 42.8472C129.322 42.5453 127.48 42.221 125.735 41.4801C124.539 40.9713 123.435 40.292 122.283 39.6993C122.045 39.5763 121.808 39.4169 121.553 39.3722C119.309 38.9724 117.234 39.3218 115.468 40.8651C115.082 41.2034 114.755 41.6087 114.377 41.9526C113.606 42.6571 112.966 42.7298 112.063 42.2014C111.621 41.9414 111.21 41.6311 110.791 41.332C110.442 41.0831 110.075 40.8874 109.634 40.8455C109.256 40.8092 109.203 40.6834 109.441 40.3954C109.768 40.0012 110.109 39.6098 110.472 39.2492C111.669 38.0638 112.943 36.9706 114.548 36.3724C115.935 35.8552 117.346 35.6371 118.78 36.2717C120.639 37.0937 122.588 37.6891 124.505 38.3545C125.475 38.69 126.465 39.0059 127.499 39.0479C129.263 39.1205 131.022 39.3023 132.788 39.3162C134.709 39.333 136.635 39.2911 138.541 39.6098C140.901 40.0068 143.201 40.524 144.887 42.4307C144.929 42.4782 144.976 42.5257 145.091 42.6459V42.6543ZM114.548 62.8674C115.839 63.1078 116.435 63.3678 117.346 64.0136C118.031 64.5001 118.523 65.171 119.088 65.7693C119.529 66.2362 119.812 66.7842 119.982 67.3964C120.186 68.1289 120.354 68.867 120.441 69.6246C120.779 72.5461 120.337 75.3922 119.423 78.146C117.992 82.4598 115.571 86.1865 112.382 89.4127C111.783 90.0166 111.138 90.5617 110.405 91.0091C108.7 92.0463 106.855 92.6753 104.898 93.0052C103.224 93.2876 101.602 93.1338 100.037 92.4712C99.7601 92.3538 99.461 92.256 99.229 92.0043C99.3073 91.9764 99.3464 91.9512 99.38 91.9568C99.4918 91.968 99.6008 91.9848 99.7098 92.0099C101.376 92.365 103.045 92.323 104.702 91.9931C108.222 91.2886 111.14 89.5441 113.514 86.8602C115.101 85.0626 116.284 83.0161 117.198 80.8215C118.755 77.0892 119.211 73.2423 118.162 69.2807C117.522 66.8652 116.46 64.6818 114.548 62.8674ZM146.774 43.8565C146.74 43.8984 146.718 43.9404 146.682 43.9627C146.626 43.9963 146.564 44.0242 146.503 44.041C144.093 44.712 141.985 45.9421 140.07 47.5189C136.123 50.7731 133.208 54.7738 131.469 59.5936C130.216 63.0631 129.615 66.6248 130.186 70.3208C130.247 70.7205 130.191 70.7765 129.789 70.8156C129.313 70.8631 129.048 70.659 128.95 70.1782C128.928 70.0691 128.911 69.9573 128.897 69.8483C128.461 66.3676 128.735 62.9429 129.699 59.5656C131.1 54.6591 133.655 50.5047 137.672 47.3064C140.33 45.1901 143.31 43.904 146.771 43.8565H146.774ZM84.6228 30.8536C84.7542 30.574 84.8577 30.3029 85.003 30.054C87.6363 25.5641 91.4661 23.1151 96.7662 23.2716C98.7118 23.3303 100.342 24.1467 101.6 25.6592C101.731 25.8157 101.84 25.9807 101.882 26.1848C101.915 26.3357 101.994 26.5063 101.832 26.6153C101.658 26.7299 101.465 26.6628 101.342 26.5314C100.848 26.0003 100.193 25.771 99.5365 25.5613C98.1891 25.1364 96.8082 25.0693 95.4272 25.3461C92.3997 25.9527 90.0348 27.5267 88.4694 30.2246C88.3212 30.479 88.2094 30.5712 87.8991 30.4454C86.8648 30.0205 85.8948 30.2162 84.9974 30.8452C84.8968 30.9151 84.7934 30.9151 84.62 30.8564L84.6228 30.8536ZM104.786 41.3487C104.775 41.1978 104.823 41.1558 104.879 41.1195C106.1 40.3311 107.059 39.2855 107.847 38.0694C108.468 37.1076 109.231 36.2605 110.053 35.4693C112.225 33.3782 114.769 32.668 117.693 33.4704C118.766 33.764 119.686 34.3539 120.516 35.0863C120.634 35.1898 120.759 35.324 120.653 35.4889C120.544 35.6595 120.376 35.6119 120.245 35.5085C119.77 35.1367 119.2 35.0304 118.629 34.913C117.159 34.6139 115.691 34.6362 114.277 35.1395C112.253 35.858 110.62 37.1636 109.189 38.7403C108.619 39.3694 108.06 40.0068 107.473 40.6218C106.721 41.4102 105.762 41.4158 104.786 41.3487ZM77.5616 47.4825C77.0193 47.7733 76.4881 47.8795 76.0045 48.1032C75.7585 48.2178 75.6048 48.1479 75.4063 48.0053C75.0457 47.7453 74.6767 47.4742 74.2741 47.2924C72.7087 46.5851 71.1349 45.8946 69.4213 45.6038C68.0012 45.3634 66.7125 45.6178 65.5775 46.5236C65.1414 46.8731 64.7389 47.2589 64.3755 47.6866C64.0876 48.0277 63.7829 48.3548 63.4809 48.6847C63.358 48.8189 63.2238 48.9279 63.0141 48.8329C62.7961 48.735 62.6227 48.6148 62.6172 48.352C62.6172 48.2402 62.6116 48.1256 62.6367 48.0193C63.0756 46.0931 64.5292 44.4715 66.4162 44.0885C67.6825 43.8313 68.9432 43.8593 70.204 44.1417C72.2363 44.5918 74.0784 45.4696 75.8172 46.5879C76.3428 46.9262 76.8515 47.2924 77.5644 47.4825H77.5616ZM100.143 52.4338C100.224 52.0228 100.367 51.6537 100.546 51.2959C102.1 48.2318 105.932 46.2944 109.309 46.8926C110.668 47.1331 111.769 47.818 112.524 48.9894C112.935 49.6297 113.181 50.337 113.156 51.1925C112.594 50.9325 112.094 50.7004 111.59 50.4684C111.425 50.3929 111.4 50.2307 111.35 50.0854C110.992 49.0593 110.263 48.4275 109.265 48.064C106.218 46.9458 102.539 48.7658 101.527 51.8914C101.446 52.1402 101.485 52.4953 101.275 52.6211C101.032 52.7692 100.719 52.568 100.437 52.5176C100.353 52.5037 100.272 52.4673 100.14 52.4282L100.143 52.4338ZM92.833 43.2526C92.4137 43.549 92.0084 43.8146 91.6282 44.1081C91.3375 44.3346 91.125 44.2842 90.879 44.0326C89.772 42.8976 88.4107 42.1343 87.0325 41.3907C86.1743 40.9294 85.3217 40.7868 84.4048 41.1894C84.0721 41.3348 83.7199 41.3487 83.3565 41.2621C83.0658 41.1922 82.9512 41.0272 82.9428 40.7449C82.926 40.018 83.2894 39.5231 83.8876 39.1653C84.1951 38.9808 84.4775 38.9137 84.8101 39.1569C85.0953 39.3638 85.4363 39.4924 85.755 39.6545C88.0948 40.8427 90.4318 42.0309 92.833 43.2526ZM120.609 56.549C120.421 56.7084 120.321 56.7951 120.217 56.8817C119.694 57.3346 119.803 57.2731 119.348 56.9181C118.375 56.1632 117.346 55.5035 116.239 54.9611C114.897 54.3041 113.57 53.6219 112.233 52.9538C111.794 52.7357 111.344 52.54 110.855 52.4505C109.866 52.2632 108.993 52.4561 108.306 53.2417C108.247 53.3088 108.194 53.3815 108.124 53.4374C108.009 53.5325 107.878 53.5437 107.755 53.4514C107.621 53.348 107.649 53.2166 107.722 53.0963C107.9 52.8112 108.132 52.5735 108.381 52.3471C108.775 51.9892 109.304 51.9054 109.737 51.637C110.414 51.2176 111.034 51.3071 111.674 51.7125C113.788 53.046 115.957 54.2761 118.23 55.3217C119.015 55.6824 119.767 56.1129 120.603 56.549H120.609ZM109.947 50.1748C109.768 50.2447 109.659 50.2783 109.558 50.3258C109.156 50.5131 108.775 50.6026 108.384 50.2643C108.222 50.1245 107.973 50.1049 107.747 50.0937C106.777 50.0462 106 50.3957 105.449 51.2092C105.133 51.6789 104.775 52.0983 104.266 52.3722C103.998 52.5176 103.735 52.5875 103.425 52.4282C103.456 52.3219 103.475 52.2101 103.523 52.115C104.314 50.5438 105.569 49.5234 107.288 49.1684C108.32 48.9559 109.22 49.3109 109.947 50.1776V50.1748ZM100.52 43.9264C100.901 43.5853 101.194 43.6133 101.56 43.8761C102.553 44.5834 103.514 45.341 104.61 45.8946C104.644 45.9113 104.655 45.9701 104.683 46.0176C104.54 46.0791 104.389 46.1266 104.258 46.2077C104.006 46.3587 103.819 46.2944 103.604 46.1154C102.648 45.3187 101.625 44.6169 100.52 43.9292V43.9264ZM98.0996 45.2488C98.2366 45.0419 98.4099 44.9776 98.5497 44.8685C98.6979 44.7539 98.8209 44.7847 98.9634 44.8909C100.048 45.7017 101.158 46.4789 102.312 47.203C101.854 47.6195 101.857 47.6139 101.437 47.2924C100.926 46.8982 100.397 46.532 99.844 46.1965C99.2793 45.8526 98.6951 45.5479 98.0996 45.2488ZM102.994 43.0485C103.229 42.9814 103.4 42.9227 103.584 43.0625C103.707 43.1576 103.844 43.2358 103.973 43.3253C104.803 43.8984 105.762 44.2311 106.62 44.7511C106.953 44.9524 107.299 45.1341 107.657 45.4892C107.266 45.5116 106.986 45.5255 106.704 45.5479C106.536 45.5619 106.41 45.5032 106.287 45.3885C105.468 44.6197 104.507 44.0522 103.556 43.4707C103.375 43.3617 103.154 43.2946 102.994 43.0485ZM89.1682 72.1799C89.1654 71.8304 89.1766 71.5397 89.3304 71.2825C89.4282 71.1203 89.5736 71.0225 89.7748 71.0448C89.9733 71.0672 90.0823 71.193 90.1494 71.3775C90.2556 71.6683 90.1774 71.9507 90.1187 72.233C90.0292 72.6692 89.7581 72.9767 89.5093 72.904C89.1095 72.7866 89.2018 72.4203 89.171 72.1827L89.1682 72.1799ZM62.6591 50.2615C62.6675 50.6669 62.4355 51.0079 62.1503 51.0107C61.8931 51.0135 61.6667 50.7256 61.6695 50.3957C61.6723 50.0043 61.9295 49.6856 62.2342 49.6912C62.4997 49.6968 62.6507 49.898 62.6591 50.2615Z" fill="#0D070B"/>
<path d="M110.134 63.4182C109.896 63.3091 109.701 63.4629 109.502 63.5412C107.783 64.201 106.24 65.1683 104.825 66.3341C104.557 66.555 104.227 66.7199 104.051 67.0442C103.97 67.0274 103.925 67.061 103.928 67.1476L103.939 67.1309C103.889 67.1812 103.841 67.2287 103.791 67.279L103.8 67.2623C103.805 67.458 103.682 67.5922 103.582 67.7375C101.955 70.0748 100.188 72.3057 98.4211 74.5367C98.3484 74.629 98.2925 74.7939 98.1164 74.6765C97.3533 75.8591 96.7942 77.1423 96.3525 78.4675C95.6536 80.5699 95.2623 82.7394 95.1225 84.9508C95.1169 85.0598 95.1505 85.1688 95.1672 85.2779C95.2259 85.2108 95.2902 85.1493 95.3378 85.0766C100.196 78.0146 105.055 70.9498 109.91 63.885C110.008 63.7425 110.159 63.6195 110.137 63.4182H110.134Z" fill="#8669FB"/>
<path d="M113.969 69.2778C112.86 70.9245 111.744 72.5684 110.64 74.2207C107.984 78.199 105.334 82.1801 102.687 86.164C102.542 86.3848 102.349 86.5833 102.282 86.8517C102.519 86.8685 102.707 86.7315 102.908 86.642C105.164 85.6412 107.081 84.179 108.756 82.373C111.087 79.8568 112.787 76.9912 113.634 73.6503C113.997 72.2133 114.157 70.7568 113.972 69.2778H113.969Z" fill="#8669FB"/>
<path d="M111.923 64.3936C110.936 65.6936 110.05 67.0607 109.125 68.4026C104.828 74.6399 100.537 80.8827 96.2435 87.1227C96.2072 87.1787 96.1764 87.2374 96.1429 87.2961C96.7579 87.5924 97.4204 87.6679 98.0913 87.6819C98.3009 87.1563 98.6644 86.7257 98.9719 86.2645C103.442 79.5463 107.917 72.831 112.393 66.1157C112.524 65.9172 112.605 65.66 112.879 65.5929C112.591 65.168 112.34 64.7151 111.92 64.3963L111.923 64.3936Z" fill="#8669FB"/>
<path d="M106.942 43.3473C106.944 43.2747 106.947 43.202 106.95 43.1293C106.799 43.0678 106.651 42.9839 106.466 43.0538C106.592 43.2243 106.749 43.3138 106.942 43.3445V43.3473Z" fill="#8669FB"/>
<path d="M67.2297 39.0088C67.185 39.0675 67.1794 39.129 67.2129 39.1961C67.2604 39.2632 67.3247 39.2828 67.403 39.252L67.4421 39.2185C67.4198 39.101 67.3471 39.0339 67.2297 39.0116V39.0088Z" fill="#8669FB"/>
<path d="M111.409 46.1099C111.398 46.1853 111.384 46.258 111.372 46.3335C111.414 46.3866 111.459 46.4286 111.532 46.3755C111.551 46.3587 111.568 46.3447 111.588 46.3279C111.576 46.2161 111.512 46.1462 111.409 46.1099Z" fill="#8669FB"/>
<path d="M111.532 46.3752C111.562 46.4479 111.607 46.4674 111.669 46.4087C111.641 46.3808 111.613 46.3556 111.588 46.3276C111.568 46.3444 111.551 46.3584 111.532 46.3752Z" fill="#8669FB"/>
<path d="M110.128 63.4126C110.221 63.4349 110.257 63.3846 110.263 63.3007C110.176 63.2868 110.123 63.3147 110.128 63.4126Z" fill="#8669FB"/>
<path d="M67.4029 39.2517C67.4225 39.3076 67.4728 39.3635 67.5175 39.3104C67.5706 39.2489 67.4896 39.2321 67.442 39.2153L67.4029 39.2489V39.2517Z" fill="#8669FB"/>
<path d="M133.728 66.8902C133.714 67.9722 133.823 68.9227 134.041 69.8649C134.429 71.5339 135.477 72.7696 136.713 73.8711C138.578 75.5346 140.741 75.7498 143.056 75.1124C144.744 74.6455 146.24 73.7956 147.554 72.6606C152.312 68.5565 155.261 63.4487 156.027 57.1583C156.276 55.1147 156.158 53.0962 155.468 51.1364C155.076 50.0265 154.512 49.0172 153.659 48.1925C152.51 47.0826 151.14 46.5709 149.533 46.5737C147.266 46.5765 145.298 47.351 143.512 48.6873C141.996 49.8224 140.697 51.1671 139.539 52.6572C137.188 55.685 135.301 58.956 134.334 62.7022C133.971 64.1141 133.775 65.5511 133.73 66.893L133.728 66.8902ZM143.785 49.9649C143.769 49.8587 143.833 49.8252 143.922 49.8196C144.82 49.02 145.882 48.5224 147.006 48.1393C147.749 47.7871 148.406 47.829 148.915 48.5559C149.22 48.6454 149.368 48.9082 149.541 49.1374C150.081 49.8503 150.346 50.6779 150.467 51.5473C150.497 51.7626 150.707 51.9946 150.492 52.2239C150.634 52.4699 150.604 52.7439 150.612 53.0095C150.648 54.1557 150.517 55.288 150.293 56.4063C149.455 60.5943 147.607 64.3014 144.865 67.5584C143.78 68.8472 142.536 69.9739 141.046 70.793C140.82 70.9161 140.607 71.1173 140.311 71.0502L140.316 71.0391C140.339 71.1509 140.269 71.1649 140.185 71.1621C139.033 71.6821 137.882 71.7827 136.73 71.1621C136.048 70.7874 135.508 70.2758 135.181 69.5573C134.966 69.3756 134.862 69.1156 134.821 68.864C134.67 67.9861 134.611 67.0999 134.807 66.2165C134.731 65.6042 134.893 65.0171 135.011 64.43C135.567 61.6706 136.579 59.0734 137.932 56.6132C139.282 54.1585 141.043 52.0338 143.229 50.2753C143.394 50.1411 143.526 49.9258 143.788 49.9622H143.783L143.785 49.9649ZM140.685 74.4275C140.722 74.3212 140.806 74.2989 140.887 74.2737C146.016 72.7109 149.675 69.4651 151.948 64.6257C152.974 62.4422 153.614 60.1442 153.947 57.765C154.31 55.1566 154.352 52.5538 153.623 49.9845C153.589 49.8643 153.539 49.7357 153.631 49.6155C154.062 50.032 154.349 50.4961 154.64 51.3097C155.21 52.9144 155.364 54.5807 155.286 56.2637C155.099 60.3678 153.765 64.0917 151.383 67.4242C149.55 69.9879 147.246 72.0483 144.431 73.4965C143.263 74.0976 142.022 74.4554 140.685 74.4275Z" fill="#0D070B"/>
<path d="M136.73 71.1647C137.87 69.0428 139.005 66.918 140.151 64.8017C143.031 59.487 145.916 54.178 148.798 48.8633C148.851 48.7682 148.876 48.6564 148.915 48.553C148.406 47.8261 147.749 47.7842 147.006 48.1364C147.006 48.4216 146.827 48.6368 146.698 48.8661C144.286 53.2162 141.873 57.5636 139.455 61.9081C138.035 64.4606 136.604 67.0075 135.181 69.5572C135.505 70.2757 136.048 70.7873 136.73 71.1619V71.1647Z" fill="#8669FB"/>
<path d="M150.492 52.2241C149.896 53.0908 149.452 54.0385 148.951 54.9583C146.134 60.136 143.324 65.3221 140.515 70.5053C140.423 70.6758 140.263 70.8296 140.311 71.0533C140.607 71.1176 140.819 70.9191 141.046 70.7961C142.536 69.9769 143.78 68.8475 144.864 67.5614C147.607 64.3044 149.455 60.5945 150.293 56.4093C150.517 55.291 150.648 54.156 150.612 53.0125C150.604 52.7469 150.631 52.4729 150.492 52.2269V52.2241Z" fill="#8669FB"/>
<path d="M134.807 66.222C135.422 65.3442 135.886 64.3796 136.406 63.4459C138.782 59.174 141.155 54.9022 143.526 50.6275C143.64 50.4206 143.839 50.2389 143.791 49.9649C143.528 49.9314 143.397 50.1466 143.232 50.278C141.046 52.0393 139.285 54.1613 137.935 56.6159C136.582 59.0762 135.57 61.6734 135.013 64.4328C134.896 65.0199 134.734 65.6098 134.809 66.2192L134.807 66.222Z" fill="#8669FB"/>
<path d="M143.786 49.9676C143.897 49.9788 143.917 49.9089 143.922 49.8223C143.833 49.8307 143.769 49.8614 143.786 49.9676Z" fill="#8669FB"/>
<path d="M140.316 71.0419C140.227 71.0335 140.191 71.0866 140.185 71.1649C140.269 71.1649 140.339 71.1509 140.316 71.0419Z" fill="#8669FB"/>
</g>
<defs>
<clipPath id="clip0_6_1273">
<rect width="157.931" height="100" fill="white" transform="matrix(-1 0 0 1 158.54 0)"/>
</clipPath>
</defs>
</svg>
