<svg width="173" height="109" viewBox="0 0 173 109" fill="none" xmlns="http://www.w3.org/2000/svg">
<g clip-path="url(#clip0_1_1666)">
<path d="M173 28.1269C172.807 27.9897 172.62 28.1208 172.446 28.1604C166.876 29.425 161.229 29.9248 155.527 29.9217C149.611 29.9217 143.741 29.358 137.892 28.5139C136.076 28.2518 134.251 28.0293 132.442 27.7277C132.276 27.7002 132.105 27.6637 131.927 27.7459C131.897 28.0202 132.019 28.264 132.096 28.5169C132.739 30.6409 133.501 32.7253 134.31 34.7914C135.458 37.7199 136.554 40.6666 137.513 43.6652C137.788 44.5245 138.036 45.393 138.198 46.2798C138.575 48.3185 139.188 50.3053 139.558 52.344C140.253 56.1836 140.501 60.0294 139.668 63.8934C138.985 67.0596 137.408 69.6925 135.026 71.85C132.925 73.7515 130.384 74.5987 127.585 74.7541C127.221 74.7754 126.853 74.7541 126.476 74.7541C126.342 75.1137 126.547 75.3696 126.614 75.6317C127.187 77.8806 126.728 79.8797 125.169 81.6106C124.722 82.1042 124.198 82.5034 123.567 82.7472C123.016 82.9605 122.563 83.3415 122.012 83.5639C120.665 84.1033 119.238 84.3501 117.844 84.7219C113.309 85.9317 108.698 86.8611 104.242 88.3665C102.644 88.9059 101.067 89.5062 99.4866 90.0974C97.8881 90.6947 96.6755 91.7521 95.6436 93.0472C94.6851 94.2479 93.7603 95.479 92.8172 96.6949C90.5144 99.663 87.9177 102.366 84.8954 104.59C81.6403 106.986 77.9412 108.436 73.8746 108.872C70.592 109.222 67.4288 108.851 64.385 107.556C63.6164 107.229 62.8478 106.9 62.3119 106.224C62.1649 106.038 61.9873 106.044 61.7883 106.056C57.9483 106.26 54.4667 105.109 51.2912 103.088C47.1695 100.464 43.7766 97.088 41.3238 92.8339C40.9594 92.2001 40.6257 91.5479 40.3011 90.8927C40.1755 90.6368 40.0561 90.5271 39.7438 90.6032C37.2634 91.2097 34.7433 91.1914 32.22 90.9963C28.3035 90.6947 24.5524 89.7378 20.9696 88.1288C19.2212 87.3457 17.6013 86.3705 16.0671 85.2125C13.8807 83.5578 11.725 81.8757 9.80193 79.9193C6.1304 76.1833 3.15091 71.9962 1.39936 67.026C0.447024 64.3413 -0.0674195 61.5713 0.00607245 58.7129C0.0550671 56.8236 0.376594 54.9799 1.14826 53.2369C2.05772 51.1799 3.46325 49.6166 5.52715 48.6049C6.75508 48.0046 7.90952 47.2641 9.25074 46.9076C10.053 46.6942 10.8523 46.4687 11.6515 46.2402C12.1476 46.1 12.6252 45.9233 13.0448 45.6033C15.6782 43.5921 18.7281 42.6139 21.9373 42.0166C23.8971 41.6509 25.8844 41.6418 27.8656 41.5747C29.2528 41.526 30.6369 41.4254 31.9689 41.27C32.0547 41.1786 32.0516 41.139 32.0057 41.0963C30.3858 39.4782 29.7917 37.473 29.7703 35.2485C29.7489 32.8715 30.7012 30.8969 32.266 29.1721C34.3023 26.9262 36.8439 25.4635 39.6733 24.4518C42.1414 23.5711 44.6953 22.9708 47.2032 22.215C50.5073 21.2186 53.7777 20.1032 57.1338 19.2926C61.4453 18.2505 65.7813 17.3515 70.2245 17.0681C71.2749 17.001 72.3313 16.9401 73.3816 16.9889C75.7793 17.0986 78.18 17.0711 80.5808 17.1199C83.9614 17.1839 87.3329 17.3606 90.6982 17.7233C94.3268 18.1133 97.9769 18.2748 101.603 18.7045C106.153 19.2469 110.673 19.9509 115.165 20.859C118.717 21.5781 122.281 22.2364 125.864 22.7879C126.464 22.8793 126.47 22.8793 126.452 22.2638C126.415 20.8925 126.535 19.5395 126.823 18.1956C127.211 16.3855 128.057 14.8192 129.34 13.4783C130.46 12.3082 131.701 11.2812 133.079 10.4249C136.15 8.51423 139.396 7.0058 142.92 6.11293C149.207 4.51917 155.49 2.90409 161.774 1.289C163.66 0.804477 165.596 0.706962 167.522 0.52717C169.178 0.371756 170.838 0.204153 172.495 0.0456913C172.66 0.0304546 172.832 -0.039634 173 0.0456913V2.82181C171.738 3.21492 170.464 3.55926 169.181 3.86704C166.827 4.43385 164.42 4.75687 162.099 5.46994C160.601 5.93009 159.098 6.35671 157.588 6.78029C153.136 8.02665 148.637 9.09627 144.154 10.2329C141.01 11.0313 138.122 12.3661 135.39 14.0695C134.349 14.7186 133.403 15.4896 132.552 16.3733C131.952 16.998 131.468 17.6897 131.217 18.5278C130.773 19.9996 130.705 21.4959 130.855 23.0134C130.892 23.3761 131.027 23.5528 131.431 23.6077C134.172 23.9794 136.903 24.4 139.644 24.7656C144.479 25.4086 149.339 25.6646 154.217 25.6646C160.31 25.6646 166.343 25.177 172.286 23.7935C172.516 23.7387 172.752 23.632 173 23.7326V28.1208V28.1269ZM59.8132 73.1725L59.8254 73.1908L59.6907 73.078C59.4978 72.7245 59.1365 72.5448 58.8425 72.304C57.29 71.0302 55.6027 69.9789 53.7195 69.2597C53.5021 69.1775 53.2877 69.0098 53.0274 69.1256H53.0336C53.0397 69.0159 52.9815 68.9855 52.8866 69.0007C52.7273 68.9154 52.5742 68.8849 52.415 69.0068C51.9404 69.3725 51.4137 69.6803 51.0677 70.1922C50.6083 70.5396 50.3358 71.0363 50.0173 71.4965C49.3069 72.7459 48.8721 74.0745 48.8231 75.5159C48.621 77.131 48.7925 78.7156 49.1936 80.2819C50.1214 83.9235 51.9832 87.047 54.5371 89.7896C56.3713 91.7582 58.472 93.3519 60.9431 94.4429C61.1636 94.5404 61.3688 94.6897 61.6291 94.6714C63.0744 95.4028 64.6085 95.6801 66.2192 95.5765C66.9542 95.5613 67.6799 95.479 68.3536 95.156C69.0538 94.9812 69.4233 94.5607 69.4621 93.8944C69.4804 93.5805 69.5172 93.2636 69.4253 92.9558C69.4437 92.8369 69.4804 92.7181 69.4743 92.5992C69.3212 90.1888 68.8925 87.8241 68.127 85.5325C67.6431 84.085 67.0307 82.6893 66.1947 81.4003C65.959 80.9249 65.616 80.5135 65.3588 80.0534C64.3544 78.2677 63.1326 76.6404 61.776 75.1076C61.2126 74.4707 60.6492 73.8338 59.9694 73.3157L59.9785 73.334L59.8163 73.1725H59.8132ZM51.4933 50.5522C51.5698 50.6101 51.6188 50.5644 51.6648 50.5065C52.1118 50.3267 52.5528 50.1194 53.0121 49.9732C53.2847 49.8878 53.4714 49.7507 53.6491 49.5374C54.436 48.5683 55.4098 47.8187 56.5214 47.2519C56.7327 47.2153 56.9041 47.1209 57.0419 46.935C56.8398 46.8558 56.6775 46.9472 56.5152 47.0173C55.5598 47.2519 54.7055 47.6907 53.894 48.2362C53.0427 48.8091 52.3201 49.5191 51.628 50.2657C51.5147 50.3084 51.4443 50.3815 51.4321 50.5034L51.3432 50.5918C51.4137 50.6558 51.4627 50.6344 51.4933 50.5552V50.5522ZM99.8357 42.7876C99.9214 42.8211 99.9888 42.8028 100.041 42.7266C102.004 41.788 104.071 41.529 106.196 41.9313C112.296 43.0801 117.229 48.4495 117.909 54.6143C118.043 55.8271 118.052 57.043 118.043 58.2619C118.04 58.6245 118.003 58.9902 118.147 59.3437C118.374 59.9044 118.803 60.1269 119.375 59.941C120.184 59.6789 120.582 59.0603 120.762 58.2863C120.851 57.9084 120.909 57.5184 120.943 57.1314C121.335 52.4872 119.991 48.3946 116.791 45.003C113.548 41.5686 109.555 39.917 104.769 40.5752C103.036 40.8129 101.379 41.3279 100.022 42.5224C99.8939 42.5468 99.8142 42.62 99.7897 42.7479C99.7377 42.7662 99.6519 42.7845 99.7071 42.8516C99.756 42.9095 99.8081 42.8485 99.8326 42.7876H99.8357ZM44.1349 65.6425C43.645 65.5146 43.2591 65.2068 42.8978 64.8868C42.368 64.4175 41.8567 63.9269 41.3545 63.4332C40.8247 62.9121 40.2245 62.5008 39.5172 62.2661C38.1729 61.8242 36.8286 61.355 35.4261 61.1325C33.9012 60.8918 32.6059 60.2244 31.4606 59.2249C31.3289 59.1091 31.2065 58.9201 30.9676 59.0146C31.5494 60.4956 31.9628 60.9405 33.3132 61.2513C34.2656 61.4708 35.1965 61.7663 36.1549 61.9583C38.179 62.3636 40.0194 63.1529 41.6209 64.4693C42.1139 64.8746 42.6651 65.1885 43.2132 65.5085C43.4949 65.673 43.7858 65.7797 44.1196 65.7218C44.1533 65.8894 44.2788 65.8406 44.3829 65.8254C44.4411 65.8193 44.4626 65.7705 44.4319 65.7279C44.3554 65.6304 44.2543 65.5999 44.1349 65.6425V65.6425ZM73.2408 43.0222L73.1979 43.1106L73.2898 43.1289L73.2224 43.0344C71.8842 41.5382 70.7237 39.9231 69.7744 38.1526C68.9936 36.6959 67.7656 35.7299 66.256 35.087C63.8675 34.0661 61.3902 34.0509 58.9068 34.5293C56.6806 34.959 54.5769 35.7878 52.5252 36.8818C53.2173 37.3511 53.9093 37.7625 54.5095 38.2958C54.7055 38.4695 54.8709 38.3385 55.0393 38.2409C56.01 37.6894 57.0726 37.4151 58.1657 37.2445C58.9895 37.1165 59.8071 37.1683 60.4471 37.7625C60.9891 38.2623 61.6046 38.6554 62.1772 39.1125C62.9182 39.7037 63.7634 39.8377 64.6667 39.6061C64.9974 39.5208 65.322 39.4081 65.6405 39.2831C66.8807 38.7986 67.9892 38.9906 68.9599 39.9109C69.1007 40.045 69.2508 40.173 69.3886 40.3101C70.347 41.2578 71.4463 42.0318 72.5487 42.7998C72.7478 42.9369 72.9284 43.2081 73.2408 43.0253V43.0222ZM48.4189 64.6948C49.3773 64.4754 50.3511 64.3352 51.3341 64.4358C53.7379 64.6796 56.0467 65.2769 58.2086 66.383C61.4913 68.0591 64.2258 70.3964 66.4244 73.3249C71.3269 79.8614 73.5409 87.2207 73.0815 95.3693C73.0632 95.6892 73.0509 96.0062 73.0356 96.3261C74.386 94.5069 74.9587 92.4713 75.0046 90.2985C75.0291 89.1558 74.8699 88.0161 74.6892 86.8825C73.6113 80.1021 70.6594 74.2635 65.8028 69.3847C64.1829 67.7574 62.3272 66.4592 60.248 65.4932C56.4356 63.7227 52.5038 63.1742 48.4128 64.4328C47.8677 64.5486 47.3594 64.7436 46.9123 65.0879C47.4451 65.0514 47.9412 64.902 48.4189 64.7009V64.6948ZM118.138 66.3648C119.829 67.5014 121.491 68.6594 122.958 70.0673C123.163 70.2623 123.378 70.3781 123.668 70.3903C125.065 70.4482 126.458 70.5305 127.854 70.4177C128.617 70.3568 129.355 70.1861 130.062 69.8997C132.341 68.9885 133.774 67.2272 134.75 65.0879C135.743 62.9152 135.929 60.5657 135.85 58.2132C135.767 55.821 135.47 53.4532 134.83 51.1372C134.31 49.257 134.08 47.3098 133.507 45.4418C132.61 42.5042 131.541 39.6244 130.433 36.7569C129.303 33.8223 128.164 30.8877 127.407 27.8282C127.227 27.0999 127.227 27.1029 126.455 26.9902C124.566 26.7129 122.67 26.46 120.79 26.143C117.168 25.5336 113.557 24.8662 109.935 24.2598C105.972 23.5985 102.001 23.0104 97.9953 22.6691C95.5548 22.4619 93.1081 22.3034 90.6767 22.0352C86.996 21.6299 83.303 21.4501 79.604 21.4044C77.6687 21.3801 75.7364 21.4105 73.8012 21.2978C72.9958 21.249 72.1843 21.2978 71.379 21.3252C67.1716 21.4806 63.0621 22.3156 58.9895 23.2694C53.3888 24.5828 47.9259 26.4143 42.3405 27.7916C40.7635 28.1817 39.2691 28.7851 37.8575 29.5896C36.504 30.3605 35.3128 31.3113 34.385 32.579C33.4265 33.8863 33.1999 35.3307 33.5092 36.8818C33.7695 38.1983 34.0543 39.4995 34.9147 40.6057C35.1199 40.8708 35.2271 40.9409 35.5364 40.8616C37.0338 40.4777 38.4546 39.8835 39.9153 39.3928C40.1878 39.3014 40.2827 39.1033 40.3776 38.8748C40.7573 37.9667 41.4065 37.2841 42.2088 36.7325C43.3877 35.9219 44.7106 35.5258 46.1314 35.4344C47.8187 35.3246 49.4478 35.5959 51.0248 36.2023C51.2453 36.2876 51.4474 36.4339 51.7138 36.2937C53.3582 35.4313 55.1158 34.8036 56.7296 33.8741C56.9103 33.7705 57.0389 33.6547 57.1215 33.4688C57.8381 31.8934 59.0446 30.7872 60.5542 29.9888C60.8145 29.8516 60.9462 29.6932 61.0105 29.3976C61.4759 27.2766 62.7896 25.8718 64.78 25.0582C65.4629 24.7778 66.1886 24.659 66.9082 24.5127C70.0163 23.885 72.8764 24.5097 75.5466 26.1613C77.6717 27.4747 79.2977 29.2726 80.6818 31.3113C81.9557 33.1885 82.7886 35.2119 82.7702 37.5157C82.7702 37.7899 82.8376 37.9057 83.1254 37.9271C84.1605 37.9972 85.0454 38.4482 85.8814 39.0302C87.2104 39.9535 88.4322 41.0079 89.6111 42.105C91.7791 44.1253 94.3605 44.296 97.0981 43.8785C97.2512 43.8541 97.3645 43.7901 97.4502 43.653C98.4271 42.1263 99.8877 41.1481 101.385 40.2065C102.595 39.4446 103.918 39.0759 105.329 38.9449C108.707 38.6341 111.781 39.5208 114.439 41.5412C119.731 45.5637 122.511 50.8782 122.113 57.5885C121.917 60.8857 120.772 63.866 118.248 66.1789C118.196 66.2246 118.172 66.3008 118.141 66.3495L118.138 66.3648ZM66.4581 46.7613C66.4703 46.8588 66.4581 46.9228 66.4856 46.9472C66.6663 47.1087 66.8439 47.2824 67.043 47.4195C68.5005 48.416 69.7989 49.6075 71.0575 50.8325C72.61 52.3379 74.4534 53.0754 76.5908 53.1912C77.2736 53.2277 77.9534 53.3283 78.6302 53.4349C79.1171 53.5111 79.3008 53.8951 79.114 54.3552C79.0099 54.6173 78.8078 54.788 78.5812 54.9403C78.2321 55.175 77.8401 55.309 77.4513 55.4584C75.5282 56.2019 73.5194 56.6316 71.5137 57.0765C69.1283 57.6067 66.7551 58.1979 64.3421 58.6184C62.269 58.9811 60.2388 59.5235 58.2821 60.3158C57.3665 60.6845 56.5642 61.2148 55.7405 61.8547C56.0529 61.94 56.2856 61.9979 56.5122 62.0711C58.0249 62.5434 59.6111 62.7689 61.0289 63.549C63.448 64.8807 65.9161 66.1362 68.0382 67.9341C70.4297 69.9576 72.4171 72.3162 73.9359 75.0588C73.9818 75.1441 74.0247 75.2325 74.0798 75.3148C74.3278 75.6805 74.6922 75.6926 74.977 75.3544C75.1393 75.1594 75.222 74.9308 75.2312 74.684C75.2434 74.3183 75.2434 73.9557 75.1822 73.593C74.9158 71.9658 74.1625 70.5518 73.2347 69.2232C71.7342 67.0778 69.851 65.3165 67.6646 63.8721C67.4625 63.738 67.242 63.6161 67.0644 63.4515C66.256 62.7019 66.4244 61.6627 67.4165 61.1904C67.7809 61.0167 68.1606 60.9801 68.5618 60.9984C69.4192 61.035 70.2735 61.0685 71.1309 61.0685C72.8764 61.0685 74.5208 60.6571 76.061 59.8313C77.1358 59.2553 78.1372 58.5423 79.2579 58.0455C83.3 56.2598 87.2777 57.6646 89.4274 60.2C89.9969 60.8704 90.5543 61.55 91.1116 62.2295C91.7638 63.0279 92.4865 63.7502 93.3347 64.3444C94.777 65.3591 96.3172 65.6212 97.9922 65.0026C98.4546 64.832 98.5863 64.8685 98.819 65.2982C99.015 65.6608 99.1681 66.0509 99.2937 66.4409C99.5325 67.1784 100.056 67.4862 100.901 67.5685C99.5417 65.7553 98.6139 63.8263 97.8055 61.8364C97.732 61.6566 97.6554 61.4768 97.5697 61.3001C96.6357 59.3102 95.4476 57.5153 93.6103 56.2232C93.0714 55.8423 92.5385 55.4523 91.9904 55.0866C89.654 53.5233 87.0175 52.8529 84.2615 52.5543C82.7274 52.3897 81.184 52.6518 79.6438 52.4385C78.6669 52.3044 77.7146 52.1429 76.8113 51.7376C75.8957 51.3262 75.026 50.8325 74.1717 50.3053C72.8213 49.4704 71.4647 48.6445 70.1112 47.8126C68.9905 47.1239 67.7564 46.8497 66.4489 46.7613H66.4581ZM109.589 66.3891C109.335 65.7248 109.292 65.1458 109.39 64.5638C109.546 63.6283 109.711 62.6927 109.993 61.7816C110.498 60.1421 110.795 58.4691 110.67 56.7413C110.627 56.1349 110.614 55.5193 110.513 54.922C110.229 53.2308 109.73 51.6035 108.737 50.1743C107.46 48.3398 105.795 46.9441 103.844 45.844C102.316 44.9816 100.678 44.7043 98.9783 44.7287C97.8269 44.747 96.6786 44.8171 95.5303 44.7379C93.0009 44.5642 90.6124 43.9516 88.4934 42.4889C87.9667 42.1263 87.5043 41.6966 87.0144 41.2944C85.8201 40.3101 84.5738 39.3959 82.9785 39.1856C82.0812 39.0668 81.1779 38.9845 80.2746 38.951C77.6564 38.8535 75.271 38.1221 73.1948 36.4918C72.4844 35.9341 71.7709 35.3765 71.0391 34.8462C69.5325 33.7492 67.9616 32.7618 66.1212 32.3078C64.976 32.0244 63.8216 31.7958 62.6396 32.0671C61.8985 32.2377 61.185 32.4906 60.5297 32.8868C60.7931 32.9294 61.035 32.9173 61.2769 32.9051C63.0591 32.8106 64.7953 33.0117 66.4611 33.6852C68.6383 34.5659 70.344 35.8945 71.0636 38.2592C71.5229 39.7707 72.4416 41.0445 73.4459 42.2543C73.844 42.7327 74.3278 43.0923 74.8423 43.4245C75.2526 43.6896 75.6231 43.6896 76.0672 43.4427C77.2645 42.7815 78.4863 42.1659 79.705 41.5382C80.1613 41.3035 80.6175 41.0658 81.1136 40.9256C81.7873 40.7337 82.4242 40.8068 83.003 41.2182C84.2738 42.1202 84.8188 43.3391 84.6167 44.8902C84.5402 45.4723 84.2584 45.9812 84.0441 46.5297C84.727 46.7552 85.3914 46.6699 86.0467 46.6394C88.08 46.5419 89.6387 47.3372 90.7625 49.0407C90.8115 49.0194 90.8788 49.0011 90.937 48.9676C92.4252 48.0412 94.0114 47.3647 95.7416 47.0447C96.011 46.9959 96.256 46.8893 96.501 46.7796C97.6738 46.2432 98.9109 46.1518 100.166 46.2981C100.871 46.3804 101.581 46.5023 102.194 46.8893C103.085 47.45 103.945 48.0564 104.652 48.8457C106.744 51.183 107.702 53.9713 107.886 57.046C108.03 59.429 108.002 61.8212 108.177 64.2012C108.211 64.64 108.278 65.0727 108.407 65.4932C108.56 66.0021 108.884 66.3252 109.592 66.3952L109.589 66.3891ZM1.21869 59.6363C1.25237 60.0995 1.28606 60.7059 1.34424 61.3123C1.38405 61.7237 1.44223 62.1351 1.52491 62.5404C2.8202 69.0038 5.89767 74.4737 10.7818 78.932C12.5671 80.5623 14.5758 81.8391 16.8143 82.7655C18.8384 83.6005 20.9298 84.0423 23.1223 83.7041C25.3363 83.3597 27.1277 82.2901 28.3188 80.3734C29.2314 78.9076 29.7427 77.2834 29.9938 75.5768C30.3123 73.4224 30.1194 71.2862 29.5958 69.1988C28.1688 63.5064 25.3026 58.6245 21.0738 54.5411C19.411 52.9352 17.5461 51.6004 15.4547 50.6009C13.4061 49.6197 11.2748 48.9645 8.95984 49.0315C6.71527 49.0986 4.89941 49.9884 3.5 51.7284C2.96106 52.3988 2.53236 53.1302 2.19246 53.9195C1.42385 55.6991 1.20032 57.5732 1.21869 59.6363V59.6363ZM70.099 96.1707C70.4358 95.869 70.5583 95.6039 70.7053 95.3571C71.2718 94.4094 71.6393 93.3763 71.9914 92.3372C72.1476 91.8679 72.2088 91.3955 72.1843 90.9019C72.0282 87.7296 71.2718 84.6945 70.1051 81.7538C68.1484 76.8293 65.2087 72.6148 60.9707 69.3572C57.4829 66.6756 53.5817 65.3348 49.1293 65.7279C47.3931 65.8802 45.7946 66.2185 44.4289 67.4588C40.8768 70.6859 38.9905 74.6596 38.8159 79.4256C38.7118 82.2505 39.1497 84.9992 40.1817 87.6565C40.7298 89.0674 41.3024 90.457 42.0802 91.7612C43.3449 93.8883 44.8515 95.8325 46.5693 97.6152C47.4696 98.5476 48.4342 99.4131 49.4998 100.16C49.9255 100.458 50.3817 100.69 50.9207 100.681C51.3524 100.672 51.5086 100.477 51.3892 100.065C51.2698 99.6447 51.086 99.2729 50.7308 98.959C49.7264 98.0662 48.7618 97.1306 47.8922 96.1037C44.5942 92.2153 42.414 87.7662 41.2197 82.8356C40.5277 79.9772 40.4266 77.1005 41.1493 74.2238C41.4616 72.9805 42.0588 71.8652 42.6743 70.756C43.6787 68.952 45.1148 67.6721 47.1634 67.151C48.967 66.6939 50.7553 66.7914 52.5344 67.2729C55.2567 68.0134 57.5962 69.4609 59.7275 71.2527C63.9961 74.8455 67.0185 79.2855 68.7884 84.5726C69.5019 86.7027 70.1572 88.8358 70.3317 91.0908C70.4603 92.7516 70.344 94.4002 70.1021 96.1707H70.099ZM14.732 46.4931C15.9906 46.7308 17.1756 46.9015 18.2841 47.3768C18.4954 47.4683 18.6638 47.389 18.8353 47.2854C19.3559 46.9746 19.9316 46.874 20.5226 46.8527C21.527 46.8161 22.5313 46.7948 23.5327 46.874C25.6854 47.0386 27.832 47.0538 29.9755 46.7034C32.0057 46.3743 34.0236 46.0208 35.9344 45.2132C37.245 44.6586 38.4546 43.9181 39.7162 43.2721C39.9765 43.138 40.2368 42.9643 40.5154 42.9156C42.9744 42.4798 45.2465 42.8607 47.1818 44.5428C47.6043 44.9116 47.9626 45.3534 48.376 45.7282C49.2212 46.4962 49.9224 46.5754 50.9115 45.9994C51.3953 45.716 51.8454 45.3778 52.3048 45.0517C52.6875 44.7805 53.0887 44.5672 53.5725 44.5215C53.9859 44.4819 54.0441 44.3448 53.7838 44.0309C53.4255 43.6012 53.0519 43.1746 52.6539 42.7815C51.3432 41.4894 49.9469 40.2979 48.1892 39.6458C46.6704 39.082 45.124 38.8443 43.5531 39.5361C41.5168 40.432 39.3824 41.0811 37.2818 41.8063C36.2192 42.172 35.1352 42.5163 34.0022 42.5621C32.07 42.6413 30.1439 42.8394 28.2086 42.8546C26.1049 42.8729 23.9951 42.8272 21.9067 43.1746C19.3222 43.6073 16.802 44.1711 14.9556 46.2493C14.9096 46.3011 14.8576 46.3529 14.732 46.484V46.4931ZM48.1892 68.5253C46.7745 68.7874 46.1223 69.0708 45.124 69.7747C44.3738 70.305 43.8348 71.0363 43.2163 71.6885C42.7324 72.1974 42.4232 72.7946 42.2364 73.462C42.0128 74.2604 41.8291 75.0649 41.7342 75.8907C41.3637 79.0752 41.8475 82.1774 42.8488 85.179C44.4166 89.881 47.0685 93.9431 50.5624 97.4597C51.2177 98.118 51.9251 98.7122 52.7273 99.1998C54.5953 100.33 56.6163 101.016 58.7598 101.376C60.594 101.683 62.3701 101.516 64.0849 100.794C64.3881 100.666 64.7157 100.559 64.9699 100.285C64.8841 100.254 64.8413 100.227 64.8045 100.233C64.682 100.245 64.5626 100.263 64.4432 100.291C62.6181 100.678 60.79 100.632 58.9742 100.272C55.1189 99.5045 51.922 97.603 49.3222 94.6775C47.5829 92.7181 46.2876 90.4874 45.2863 88.0953C43.5807 84.0271 43.0815 79.834 44.2298 75.5159C44.9311 72.883 46.0947 70.503 48.1892 68.5253V68.5253ZM12.8886 47.8035C12.9253 47.8492 12.9498 47.8949 12.9896 47.9193C13.0509 47.9558 13.1183 47.9863 13.1856 48.0046C15.8252 48.736 18.1341 50.0768 20.2317 51.7955C24.5554 55.3426 27.7493 59.7033 29.6539 64.9569C31.0258 68.7386 31.6842 72.6209 31.0595 76.6495C30.9921 77.0853 31.0533 77.1462 31.4943 77.1889C32.0149 77.2407 32.3058 77.0182 32.413 76.4941C32.4374 76.3753 32.4558 76.2534 32.4711 76.1345C32.9488 72.3406 32.6487 68.6076 31.5923 64.9264C30.0581 59.5784 27.2593 55.05 22.859 51.5639C19.9469 49.257 16.6826 47.8553 12.8917 47.8035H12.8886ZM80.9697 33.6303C80.8258 33.3256 80.7125 33.03 80.5532 32.7588C77.6687 27.8648 73.4735 25.1953 67.6676 25.366C65.5364 25.43 63.7511 26.3198 62.3732 27.9684C62.2292 28.139 62.1098 28.3188 62.0639 28.5413C62.0271 28.7058 61.9414 28.8917 62.119 29.0106C62.3089 29.1355 62.5201 29.0624 62.6549 28.9192C63.1969 28.3402 63.9134 28.0903 64.633 27.8617C66.109 27.3985 67.6217 27.3254 69.1344 27.6271C72.4507 28.2884 75.0413 30.004 76.7561 32.9447C76.9184 33.222 77.0409 33.3226 77.3808 33.1854C78.5138 32.7222 79.5764 32.9355 80.5593 33.6212C80.6696 33.6974 80.7829 33.6974 80.9727 33.6334L80.9697 33.6303ZM58.8823 45.07C58.8945 44.9055 58.8425 44.8597 58.7812 44.8201C57.4431 43.9608 56.3928 42.8211 55.5292 41.4955C54.8494 40.4472 54.0135 39.5239 53.1132 38.6615C50.7339 36.3821 47.9473 35.6081 44.7443 36.4826C43.5684 36.8026 42.561 37.4456 41.6515 38.244C41.5229 38.3567 41.3851 38.503 41.5015 38.6828C41.6209 38.8687 41.8046 38.8169 41.9485 38.7041C42.4691 38.2988 43.0938 38.183 43.7185 38.0551C45.3292 37.729 46.9368 37.7534 48.4862 38.3019C50.7033 39.0851 52.4916 40.5082 54.0594 42.2269C54.6841 42.9125 55.2965 43.6073 55.9396 44.2777C56.7633 45.1371 57.8136 45.1431 58.8823 45.07V45.07ZM88.7047 51.7559C89.2988 52.0728 89.8806 52.1886 90.4103 52.4324C90.6798 52.5573 90.8482 52.4811 91.0656 52.3257C91.4607 52.0423 91.8649 51.7467 92.3058 51.5486C94.0206 50.7777 95.7446 50.025 97.6217 49.7081C99.1773 49.446 100.589 49.7233 101.832 50.7106C102.31 51.0915 102.751 51.5121 103.149 51.9783C103.464 52.3501 103.798 52.7066 104.129 53.0662C104.264 53.2125 104.411 53.3313 104.64 53.2277C104.879 53.1211 105.069 52.99 105.075 52.7036C105.075 52.5817 105.081 52.4567 105.054 52.3409C104.573 50.2413 102.981 48.4739 100.914 48.0564C99.5264 47.776 98.1454 47.8065 96.7643 48.1143C94.5381 48.6049 92.5202 49.5618 90.6155 50.7807C90.0398 51.1494 89.4825 51.5486 88.7016 51.7559H88.7047ZM63.9685 57.1527C63.8797 56.7047 63.7236 56.3025 63.5276 55.9124C61.825 52.5725 57.6268 50.4607 53.9277 51.1129C52.4395 51.3749 51.233 52.1215 50.4062 53.3984C49.9561 54.0962 49.6866 54.8672 49.7142 55.7997C50.3297 55.5163 50.8778 55.2633 51.429 55.0104C51.6097 54.9281 51.6372 54.7514 51.6923 54.5929C52.0843 53.4746 52.8835 52.7859 53.9767 52.3897C57.3145 51.1708 61.3443 53.1546 62.4528 56.5615C62.5416 56.8327 62.4987 57.2197 62.7284 57.3569C62.9948 57.5184 63.3377 57.299 63.647 57.2441C63.7389 57.2289 63.8277 57.1893 63.9716 57.1466L63.9685 57.1527ZM71.9761 47.1452C72.4354 47.4683 72.8794 47.7578 73.2959 48.0777C73.6144 48.3246 73.8471 48.2697 74.1166 47.9955C75.3292 46.7582 76.8204 45.9263 78.3301 45.1157C79.2702 44.6129 80.2041 44.4575 81.2085 44.8963C81.5729 45.0548 81.9588 45.07 82.3568 44.9755C82.6753 44.8994 82.8009 44.7196 82.81 44.4118C82.8284 43.6195 82.4303 43.0801 81.775 42.69C81.4382 42.4889 81.1289 42.4158 80.7645 42.6809C80.4522 42.9064 80.0786 43.0466 79.7295 43.2233C77.1665 44.5184 74.6065 45.8136 71.9761 47.1452ZM41.5504 61.6384C41.7556 61.8121 41.8658 61.9065 41.9791 62.001C42.5518 62.4947 42.4323 62.4276 42.9315 62.0406C43.9971 61.2178 45.124 60.4987 46.3366 59.9075C47.8064 59.1913 49.261 58.4478 50.7247 57.7195C51.2054 57.4818 51.6985 57.2685 52.2343 57.171C53.3183 56.9668 54.2737 57.1771 55.027 58.0334C55.0913 58.1065 55.1495 58.1857 55.2261 58.2467C55.3516 58.3503 55.4955 58.3625 55.6303 58.2619C55.7773 58.1492 55.7466 58.0059 55.667 57.8749C55.471 57.5641 55.2169 57.3051 54.9443 57.0582C54.5126 56.6682 53.9338 56.5767 53.4592 56.2842C52.7182 55.8271 52.0384 55.9246 51.3371 56.3665C49.0221 57.82 46.6459 59.1609 44.1563 60.3006C43.2959 60.6937 42.4722 61.163 41.5566 61.6384H41.5504ZM53.2295 54.6904C53.4255 54.7666 53.5449 54.8032 53.6552 54.855C54.0961 55.0592 54.5126 55.1567 54.9413 54.788C55.1189 54.6356 55.3914 54.6143 55.6395 54.6021C56.702 54.5503 57.5533 54.9312 58.1566 55.818C58.5026 56.3299 58.8945 56.787 59.4519 57.0856C59.7458 57.2441 60.0337 57.3203 60.3736 57.1466C60.3399 57.0308 60.3184 56.9089 60.2664 56.8053C59.3998 55.0927 58.0249 53.9804 56.1417 53.5934C55.0117 53.3618 54.0257 53.7488 53.2295 54.6935V54.6904ZM63.5552 47.8797C63.1387 47.5079 62.8172 47.5384 62.416 47.8248C61.329 48.5958 60.2756 49.4216 59.0752 50.025C59.0385 50.0433 59.0262 50.1073 58.9956 50.1591C59.1518 50.2261 59.3171 50.2779 59.461 50.3663C59.7366 50.5308 59.9418 50.4607 60.1776 50.2657C61.2248 49.3972 62.3456 48.6323 63.5552 47.8827V47.8797ZM66.207 49.321C66.0569 49.0955 65.8671 49.0255 65.714 48.9066C65.5517 48.7817 65.4169 48.8152 65.2608 48.931C64.0727 49.8147 62.857 50.6619 61.5923 51.4511C62.0945 51.9052 62.0914 51.8991 62.5508 51.5486C63.1111 51.119 63.6899 50.7198 64.2962 50.3541C64.9148 49.9793 65.5547 49.6471 66.207 49.321V49.321ZM60.8451 46.9228C60.5879 46.8497 60.4011 46.7857 60.199 46.938C60.0643 47.0416 59.9142 47.127 59.7734 47.2245C58.8639 47.8492 57.8136 48.2118 56.8735 48.7786C56.5091 48.998 56.1294 49.1961 55.7375 49.5831C56.1662 49.6075 56.4724 49.6227 56.7816 49.6471C56.9654 49.6623 57.1032 49.5983 57.2379 49.4734C58.1351 48.6354 59.1885 48.0168 60.2296 47.3829C60.4287 47.2641 60.6706 47.191 60.8451 46.9228ZM75.9906 78.676C75.9937 78.2951 75.9814 77.9781 75.813 77.6978C75.7058 77.521 75.5466 77.4144 75.3261 77.4388C75.1087 77.4631 74.9893 77.6003 74.9158 77.8014C74.7994 78.1183 74.8852 78.4261 74.9495 78.7339C75.0475 79.2093 75.3445 79.5445 75.617 79.4652C76.0549 79.3373 75.9539 78.9381 75.9875 78.679L75.9906 78.676ZM105.029 54.7849C105.02 55.2268 105.274 55.5985 105.586 55.6016C105.868 55.6046 106.116 55.2908 106.113 54.9312C106.11 54.5046 105.828 54.1572 105.495 54.1633C105.204 54.1693 105.038 54.3888 105.029 54.7849V54.7849Z" fill="#0D070B"/>
<path d="M53.0244 69.1257C53.2847 69.0068 53.4991 69.1744 53.7165 69.2597C55.5997 69.9789 57.29 71.0333 58.8395 72.304C59.1334 72.5448 59.4948 72.7246 59.6877 73.0781C59.7765 73.0598 59.8255 73.0963 59.8224 73.1908L59.8102 73.1725C59.8653 73.2274 59.9174 73.2792 59.9725 73.334L59.9633 73.3157C59.9572 73.5291 60.0919 73.6753 60.2021 73.8338C61.9843 76.3814 63.9196 78.8131 65.8549 81.2449C65.9345 81.3455 65.9958 81.5253 66.1887 81.3973C67.0246 82.6863 67.6371 84.085 68.1209 85.5295C68.8864 87.8211 69.3151 90.1858 69.4682 92.5962C69.4744 92.7151 69.4376 92.8339 69.4193 92.9528C69.3549 92.8796 69.2845 92.8126 69.2325 92.7333C63.9104 85.0358 58.5884 77.3352 53.2694 69.6346C53.1622 69.4792 52.9969 69.3451 53.0214 69.1257H53.0244Z" fill="#8669FB"/>
<path d="M48.8231 75.5129C50.0388 77.3078 51.2606 79.0996 52.4701 80.9006C55.3792 85.2369 58.2821 89.5763 61.182 93.9188C61.3412 94.1595 61.5525 94.3759 61.626 94.6684C61.3657 94.6867 61.1606 94.5374 60.9401 94.4399C58.4689 93.3489 56.3683 91.7552 54.534 89.7866C51.9802 87.044 50.1184 83.9205 49.1906 80.2789C48.7925 78.7126 48.6179 77.1249 48.82 75.5129H48.8231Z" fill="#8669FB"/>
<path d="M51.0646 70.1892C52.1455 71.6062 53.1162 73.0964 54.1298 74.5591C58.8364 81.3577 63.5368 88.1624 68.2403 94.964C68.2801 95.025 68.3138 95.089 68.3505 95.1529C67.6768 95.476 66.9511 95.5582 66.2162 95.5735C65.9865 95.0006 65.5884 94.5313 65.2516 94.0285C60.3552 86.7057 55.4527 79.3861 50.5502 72.0664C50.4062 71.85 50.3174 71.5696 50.0173 71.4965C50.3327 71.0333 50.6083 70.5397 51.0677 70.1923L51.0646 70.1892Z" fill="#8669FB"/>
<path d="M56.5214 47.2489C56.5183 47.1697 56.5153 47.0904 56.5122 47.0112C56.6776 46.9442 56.8399 46.8527 57.042 46.9289C56.9042 47.1148 56.7327 47.2123 56.5214 47.2458V47.2489Z" fill="#8669FB"/>
<path d="M100.023 42.5194C100.072 42.5834 100.078 42.6504 100.041 42.7236C99.9888 42.7967 99.9184 42.818 99.8327 42.7845L99.7898 42.748C99.8143 42.62 99.8939 42.5468 100.023 42.5225V42.5194Z" fill="#8669FB"/>
<path d="M51.6281 50.2596C51.6404 50.3419 51.6557 50.4212 51.6679 50.5034C51.622 50.5613 51.573 50.607 51.4934 50.5491C51.4719 50.5309 51.4536 50.5156 51.4321 50.4973C51.4444 50.3754 51.5148 50.2993 51.6281 50.2596V50.2596Z" fill="#8669FB"/>
<path d="M51.4933 50.5491C51.4596 50.6283 51.4106 50.6497 51.3433 50.5857C51.3739 50.5552 51.4045 50.5278 51.4321 50.4973C51.4535 50.5156 51.4719 50.5308 51.4933 50.5491V50.5491Z" fill="#8669FB"/>
<path d="M53.0305 69.1196C52.9295 69.144 52.8897 69.0891 52.8835 68.9977C52.9785 68.9825 53.0367 69.0129 53.0305 69.1196Z" fill="#8669FB"/>
<path d="M99.8326 42.7845C99.8112 42.8455 99.756 42.9064 99.707 42.8485C99.6489 42.7815 99.7377 42.7632 99.7897 42.7449L99.8326 42.7815V42.7845Z" fill="#8669FB"/>
<path d="M27.1798 72.9105C27.1951 74.0898 27.0757 75.1259 26.8368 76.1528C26.4112 77.9721 25.2629 79.319 23.9094 80.5197C21.8669 82.3328 19.4968 82.5675 16.9613 81.8727C15.1118 81.3638 13.4735 80.4374 12.0343 79.2002C6.8225 74.7267 3.59192 69.1592 2.75289 62.3027C2.48036 60.0751 2.60897 57.8749 3.36532 55.7388C3.79402 54.529 4.41258 53.4289 5.34654 52.5299C6.60509 51.3201 8.10555 50.7625 9.86629 50.7655C12.3497 50.7686 14.5055 51.6127 16.4622 53.0693C18.1219 54.3065 19.5458 55.7723 20.8135 57.3965C23.3888 60.6968 25.4558 64.2621 26.5153 68.3456C26.9134 69.8845 27.1277 71.4508 27.1767 72.9135L27.1798 72.9105ZM16.1621 54.4619C16.1805 54.3461 16.11 54.3096 16.0121 54.3035C15.0291 53.4319 13.8655 52.8895 12.6345 52.472C11.82 52.0881 11.1003 52.1338 10.543 52.9261C10.2093 53.0236 10.047 53.31 9.85711 53.5599C9.26611 54.337 8.9752 55.239 8.84353 56.1867C8.80985 56.4214 8.58019 56.6743 8.81597 56.9242C8.6598 57.1923 8.69349 57.491 8.6843 57.7805C8.64449 59.0299 8.78841 60.264 9.03339 61.483C9.95203 66.0479 11.9761 70.0886 14.9801 73.6388C16.1682 75.0436 17.5309 76.2717 19.163 77.1646C19.4111 77.2986 19.6438 77.518 19.9684 77.4449L19.9622 77.4327C19.9378 77.5546 20.0143 77.5698 20.1062 77.5668C21.3678 78.1336 22.6294 78.2433 23.891 77.5668C24.6382 77.1585 25.2292 76.6008 25.5874 75.8176C25.8232 75.6196 25.9365 75.3362 25.9825 75.0619C26.1478 74.105 26.2121 73.139 25.9978 72.1761C26.0805 71.5087 25.9028 70.8688 25.7742 70.2288C25.1649 67.2211 24.0564 64.3901 22.5743 61.7085C21.0952 59.0329 19.1661 56.717 16.7715 54.8002C16.5908 54.6539 16.4469 54.4193 16.159 54.4589H16.1652L16.1621 54.4619ZM19.558 81.1261C19.5182 81.0103 19.4264 80.9859 19.3376 80.9585C13.7185 79.255 9.71012 75.7171 7.22058 70.4421C6.09677 68.0622 5.39554 65.5573 5.03114 62.964C4.63306 60.1208 4.58712 57.2838 5.38635 54.4833C5.42309 54.3522 5.47821 54.212 5.37716 54.081C4.90559 54.5351 4.59019 55.0409 4.27172 55.9277C3.64704 57.6769 3.47862 59.4931 3.56436 61.3276C3.76953 65.8011 5.23018 69.8601 7.83914 73.4925C9.84792 76.2869 12.3711 78.5328 15.4547 80.1113C16.7347 80.7665 18.0943 81.1566 19.558 81.1261V81.1261Z" fill="#0D070B"/>
<path d="M23.8909 77.5698C22.6416 75.2569 21.3983 72.9409 20.1429 70.6341C16.9888 64.8411 13.8287 59.0542 10.6716 53.2612C10.6134 53.1576 10.5858 53.0357 10.543 52.923C11.1003 52.1307 11.8199 52.085 12.6344 52.4689C12.6344 52.7798 12.8304 53.0144 12.9713 53.2643C15.6139 58.0059 18.2566 62.7445 20.9053 67.4801C22.4609 70.2623 24.0287 73.0384 25.5874 75.8176C25.2322 76.6008 24.6381 77.1584 23.8909 77.5668V77.5698Z" fill="#8669FB"/>
<path d="M8.81599 56.9241C9.46823 57.8688 9.95511 58.9019 10.5032 59.9044C13.5899 65.5481 16.6674 71.2009 19.7448 76.8506C19.8459 77.0365 20.0204 77.2041 19.9684 77.4479C19.6438 77.518 19.4111 77.3016 19.163 77.1676C17.5309 76.2747 16.1682 75.0436 14.9801 73.6418C11.9761 70.0917 9.95205 66.0478 9.0334 61.486C8.78843 60.2671 8.6445 59.0298 8.68431 57.7835C8.6935 57.494 8.66288 57.1953 8.81599 56.9272V56.9241Z" fill="#8669FB"/>
<path d="M25.9978 72.1821C25.3241 71.2253 24.8158 70.1739 24.2462 69.1561C21.6434 64.4998 19.0436 59.8435 16.4469 55.1841C16.3213 54.9586 16.1039 54.7605 16.156 54.4619C16.4438 54.4253 16.5877 54.66 16.7684 54.8032C19.163 56.723 21.0922 59.0359 22.5712 61.7115C24.0533 64.3931 25.1618 67.2241 25.7712 70.2318C25.8998 70.8718 26.0774 71.5148 25.9947 72.1791L25.9978 72.1821Z" fill="#8669FB"/>
<path d="M16.1621 54.465C16.0396 54.4772 16.0182 54.401 16.0121 54.3065C16.1101 54.3157 16.1805 54.3492 16.1621 54.465Z" fill="#8669FB"/>
<path d="M19.9623 77.4358C20.0603 77.4266 20.1001 77.4845 20.1062 77.5698C20.0143 77.5698 19.9378 77.5546 19.9623 77.4358Z" fill="#8669FB"/>
</g>
<defs>
<clipPath id="clip0_1_1666">
<rect width="173" height="109" fill="white"/>
</clipPath>
</defs>
</svg>
