<svg width="152" height="40" viewBox="0 0 152 40" fill="none" xmlns="http://www.w3.org/2000/svg">
<path fill-rule="evenodd" clip-rule="evenodd" d="M38.4564 28.1683C35.8783 29.3354 34.267 29.0701 33.8374 28.964C35.9858 25.9934 37.2211 22.3331 37.2211 18.3545C37.2211 8.22239 28.896 0 18.6374 0C8.37877 0 0 8.22239 0 18.4075C0 28.5396 8.32506 36.8151 18.6374 36.8151C21.2155 36.8151 23.6324 36.2846 25.8883 35.3828C31.9038 38.5657 40.6585 36.709 43.1292 34.3218C41.7327 33.42 39.2621 30.3963 38.4564 28.1683ZM18.6374 27.9031C13.3201 27.9031 9.02329 23.6593 9.02329 18.4075C9.02329 13.1558 13.3201 8.91201 18.6374 8.91201C23.9547 8.91201 28.2515 13.1558 28.2515 18.4075C28.2515 23.6593 23.9547 27.9031 18.6374 27.9031ZM138.626 6.79005C134.221 6.79005 131.536 9.38939 131.536 9.38939V1.06091H123.104V33.42H131.267V31.3511C131.273 31.3563 131.283 31.368 131.298 31.3856L131.298 31.3858C131.594 31.7306 133.823 34.3218 139.646 34.3218C143.298 34.3218 152 30.8206 152 21.1129C152.053 13.7923 147.542 6.79005 138.626 6.79005ZM137.283 26.6299C133.846 26.6299 131.267 24.0305 131.214 20.5294C131.16 17.1343 133.792 14.4289 137.176 14.4289C140.613 14.3759 143.298 16.9752 143.352 20.4763C143.352 23.9244 140.774 26.5768 137.283 26.6299ZM120.203 7.42667H111.18C110.965 8.06324 107.85 16.9222 107.581 17.6648C107.474 17.4526 104.305 9.49553 103.499 7.42667H93.9927C94.5322 8.64719 95.7148 11.2269 97.0669 14.1767C99.8873 20.3295 103.446 28.0921 103.446 28.4865C103.446 29.0701 100.868 34.3748 95.7651 32.0938V39.6796C96.7319 39.9448 106.292 41.9607 110.697 31.245C111.932 28.2744 119.881 8.32848 120.203 7.42667ZM81.6394 10.2913C84.862 6.36576 88.1383 6.15357 90.9849 6.89623V15.1186C90.8775 15.0656 81.9616 11.6705 81.9616 22.3862V33.4201H73.4754V7.26761H81.6394V10.2913ZM50.1653 7.26752C57.6847 5.30476 61.713 9.76076 61.713 9.76076V7.42667H69.7158L69.7157 33.42H61.7666L61.7667 31.4042C55.6437 36.2846 49.1448 34.2157 45.8148 31.5634C43.2904 29.5475 41.8402 26.8952 41.1957 23.7653C40.4975 20.1581 40.8197 16.6039 42.5922 13.315C44.2572 10.2912 46.889 8.11629 50.1653 7.26752ZM49.3596 20.4233C49.2522 23.8714 51.884 26.6299 55.3752 26.683C58.8126 26.736 61.5518 24.0306 61.6593 20.5825C61.713 17.3466 59.0275 14.5351 55.6974 14.482C52.1526 14.3759 49.4133 16.9222 49.3596 20.4233Z" fill="#0D070B"/>
</svg>
