<svg width="286" height="95" viewBox="0 0 286 95" fill="none" xmlns="http://www.w3.org/2000/svg">
<g clip-path="url(#clip0_6_1295)">
<path d="M87.593 64.0284C88.8669 64.0284 90.0486 64.0284 91.2304 64.0284C93.8497 64.0284 96.4639 64.0437 99.0832 64.0386C99.6203 64.0386 99.9938 64.0692 100.071 64.7628C100.132 65.2983 100.296 66.053 101.007 65.9867C101.646 65.9255 101.738 65.2065 101.851 64.6404C101.882 64.4823 101.902 64.3191 101.938 64.1304C102.102 64.1049 102.255 64.0539 102.414 64.0539C105.928 64.0539 109.448 64.0539 112.962 64.0539C113.832 64.0539 113.827 64.0743 113.832 64.9158C113.832 65.6501 113.842 66.3845 113.883 67.1189C113.904 67.4402 113.991 67.7615 114.083 68.0675C114.154 68.3021 114.277 68.5418 114.564 68.552C114.835 68.5622 114.998 68.3531 115.137 68.1491C115.582 67.4759 115.648 66.7007 115.756 65.9306C115.832 65.3595 115.766 64.7934 115.761 64.2273C116.037 63.9468 116.385 64.0539 116.692 64.0539C120.125 64.0488 123.562 64.0641 126.995 64.0437C127.624 64.0437 128.151 64.0539 128.156 64.8699C128.156 64.9464 128.197 65.0331 128.238 65.0994C128.448 65.4258 128.514 65.9816 129.006 65.9306C129.384 65.8898 129.497 65.4258 129.635 65.0841C129.904 64.4041 130.407 64.0641 131.144 64.0641C134.495 64.0641 137.851 64.0692 141.202 64.0845C142.117 64.0845 142.097 64.0998 142.097 65.0076C142.097 65.9051 142.082 66.8078 142.204 67.6952C142.291 68.3174 142.455 69.0364 143.222 69.22C143.678 69.3271 144.23 68.5877 144.368 67.6799C144.547 66.5069 144.466 65.3391 144.133 64.1967C144.721 64.0131 145.253 64.0998 145.78 64.0998C148.973 64.0947 152.16 64.1151 155.352 64.0896C156.038 64.0845 156.508 64.1712 156.672 64.9617C156.754 65.3595 156.933 65.9612 157.455 65.9255C157.93 65.8949 158.145 65.3391 158.232 64.9158C158.36 64.2834 158.626 64.0743 159.286 64.0794C162.883 64.11 166.484 64.0845 170.081 64.0794C170.239 64.0794 170.398 64.11 170.613 64.1304C170.613 65.0025 170.618 65.8388 170.613 66.6803C170.607 67.3382 170.74 67.9757 170.899 68.6132C170.94 68.7764 171.032 68.9345 171.201 68.9549C171.37 68.9753 171.513 68.8631 171.59 68.705C171.748 68.3735 171.943 68.0573 172.05 67.7105C172.393 66.5732 172.638 65.4207 172.357 64.1406H184.865C184.835 64.9974 184.768 65.9051 185.464 66.6548C186.134 66.1397 186.18 65.4003 186.154 64.6965C186.134 64.1814 186.318 64.0692 186.773 64.0743C190.575 64.0896 194.381 64.1049 198.182 64.0947C198.78 64.0947 198.816 64.3752 198.785 64.8546C198.709 66.155 198.872 67.43 199.338 68.8325C199.896 68.1644 199.947 67.4861 200.039 66.8333C200.136 66.1499 200.223 65.4564 200.249 64.7679C200.269 64.2324 200.489 64.0488 200.995 64.0947C201.282 64.1202 201.568 64.0947 201.855 64.0947C202.167 64.0947 202.28 64.2834 202.264 64.569C202.244 64.9362 202.223 65.3034 202.187 65.6654C201.916 68.5622 202.039 71.4538 202.356 74.3403C202.392 74.6514 202.714 75.1512 202.136 75.243C201.64 75.3195 201.65 74.8095 201.558 74.4627C201.318 73.5651 201.149 72.642 200.443 71.8975C199.896 72.2035 200.013 72.7644 199.85 73.1826C199.614 73.7844 199.773 74.6259 199.251 74.988C198.744 75.3399 197.982 75.0747 197.333 75.0747C195.491 75.0747 193.654 75.0237 191.813 75.0339C191.188 75.0339 190.938 74.8503 190.958 74.1975C190.994 73.2132 190.795 72.2494 190.457 71.3212C190.349 71.0254 190.227 70.6531 189.833 70.6582C189.469 70.6582 189.449 71.0458 189.352 71.2906C188.963 72.2748 188.549 73.2693 188.544 74.3454C188.544 74.9217 188.252 75.0084 187.776 75.0033C185.484 74.9829 183.197 74.9727 180.906 74.9778C180.409 74.9778 180.164 74.8248 180.138 74.2893C180.113 73.7232 179.99 73.1571 179.888 72.5961C179.852 72.4024 179.79 72.178 179.545 72.1576C179.294 72.1372 179.212 72.3565 179.13 72.5451C178.895 73.1061 178.644 73.6671 178.44 74.2434C178.271 74.7177 178.036 74.9676 177.473 74.9625C175.14 74.937 172.812 74.9472 170.48 74.9676C169.907 74.9727 169.666 74.7585 169.661 74.1873C169.661 73.5753 169.656 72.9582 169.559 72.3565C169.492 71.9536 169.615 71.311 169.103 71.2243C168.674 71.1478 168.546 71.7445 168.377 72.0913C168.019 72.8205 167.656 73.56 167.395 74.3301C167.216 74.8605 166.934 75.0033 166.407 74.9982C164.034 74.9625 161.665 74.9472 159.291 74.9574C158.688 74.9574 158.396 74.7993 158.34 74.1567C158.294 73.5957 158.125 73.0347 157.956 72.4941C157.823 72.0607 157.531 72.0148 157.245 72.3769C156.785 72.9582 156.457 73.6212 156.247 74.325C156.104 74.8044 155.833 74.9421 155.362 74.937C152.989 74.9166 150.62 74.9013 148.246 74.9217C147.632 74.9268 147.469 74.682 147.504 74.121C147.545 73.4682 147.535 72.8154 147.52 72.1627C147.515 71.9026 147.622 71.5813 147.233 71.3722C146.63 71.8822 146.466 72.6624 146.169 73.3407C145.484 74.8962 145.504 74.9013 143.821 74.8962C141.447 74.8809 139.079 74.8503 136.705 74.8656C136.101 74.8656 135.851 74.6718 135.738 74.0649C135.625 73.4631 135.656 72.5043 134.94 72.4584C134.347 72.4228 134.239 73.3611 134.024 73.9017C133.743 74.6208 133.328 74.8605 132.556 74.8299C130.146 74.7432 127.732 74.7381 125.322 74.682C124.504 74.6616 124.493 74.6361 124.601 73.8558C124.724 72.9735 124.749 72.0964 124.698 71.2447C124.212 71.0866 124.1 71.4028 123.951 71.617C123.486 72.2901 123.056 73.0041 122.821 73.7793C122.595 74.529 122.166 74.6616 121.475 74.6463C118.861 74.5953 116.242 74.5698 113.622 74.5902C112.927 74.5953 112.528 74.4423 112.492 73.6977C112.487 73.5447 112.405 73.3968 112.354 73.2336C111.811 73.2489 111.658 73.6875 111.489 74.0241C111.269 74.4678 110.947 74.5596 110.497 74.5494C108.046 74.4984 105.591 74.4525 103.135 74.4219C102.639 74.4168 102.383 74.274 102.378 73.7334C102.378 73.3713 102.265 73.0143 102.194 72.6522C102.142 72.4075 102.061 72.1474 101.789 72.0862C101.467 72.0148 101.242 72.229 101.094 72.4839C100.869 72.8664 100.603 73.254 100.48 73.6722C100.326 74.1873 100.086 74.3913 99.5334 74.3811C96.7964 74.3352 94.0543 74.3046 91.3122 74.3148C90.6063 74.3148 90.4937 74.0241 90.5449 73.4223C90.6114 72.6114 90.6216 71.7904 90.3095 71.0203C89.8696 70.9234 89.8287 71.2906 89.7263 71.515C89.4245 72.1831 89.1943 72.8817 89.1073 73.6212C89.0613 74.0445 88.918 74.2893 88.4269 74.2791C85.8127 74.223 83.1934 74.1822 80.5741 74.1516C80.1598 74.1465 79.996 73.9935 80.0114 73.5702C80.0319 73.0041 80.0779 72.4227 79.8988 71.8669C79.7556 71.4283 79.4896 71.3569 79.2082 71.6986C78.7938 72.2086 78.4767 72.795 78.3385 73.4376C78.2157 73.9935 77.919 74.1312 77.387 74.1261C74.9723 74.0853 72.5628 74.0904 70.1481 74.0649C69.2784 74.0547 69.2784 74.0394 69.2579 73.1928C69.2307 72.0947 69.0635 71.2651 68.7566 70.7041C68.1887 71.1529 68.1171 71.821 67.9022 72.4074C67.7948 72.7134 67.713 73.0347 67.6771 73.356C67.6106 73.9221 67.3088 74.0649 66.7614 74.0547C64.7969 74.0088 62.8376 74.0139 60.8731 73.9986C60.0955 73.9935 59.3179 73.968 58.5403 73.9833C58.0338 73.9935 57.7831 73.815 57.8036 73.2744C57.8292 72.6267 57.8087 71.9791 57.8087 71.0764C57.1079 71.7547 57.0721 72.4227 56.9288 73.0143C56.7702 73.6467 56.5349 73.968 55.7829 73.9527C52.9231 73.8864 50.0583 73.8762 47.1934 73.8915C46.559 73.8915 46.3442 73.6977 46.3237 73.0653C46.3084 72.5298 46.2879 71.9689 45.9963 71.2447C45.6075 71.9332 45.7303 72.5196 45.6024 73.0449C45.4745 73.5651 45.3415 73.8966 44.6662 73.8813C41.9701 73.8201 39.269 73.8354 36.5678 73.7997C35.7186 73.7895 35.7186 73.764 35.6572 72.8868C35.6265 72.438 35.6163 71.9893 35.5651 71.5456C35.5396 71.311 35.4782 71.0305 35.2173 70.9489C34.8694 70.8367 34.6903 71.1325 34.5522 71.3671C34.2248 71.9281 33.8923 72.4992 33.6416 73.0959C33.437 73.5906 33.1505 73.7538 32.6235 73.7436C28.6588 73.6722 24.694 73.6161 20.7241 73.5804C20.1256 73.5804 19.9517 73.3866 19.9823 72.8001C20.0284 71.8261 19.9823 70.8418 19.9721 69.8626C19.9363 67.8125 19.0257 66.7772 17.0101 66.5069C16.2785 66.41 15.5572 66.2417 14.8716 65.9816C13.3676 65.4054 11.8073 65.1147 10.2009 65.0688C9.46422 65.0484 8.96287 64.7628 8.67126 64.11C8.87078 63.7581 9.19308 63.8907 9.44887 63.8907C12.3905 63.9162 15.3372 63.9774 18.2788 63.9927C18.8415 63.9927 19.0768 64.212 19.215 64.722C19.3378 65.1759 19.4861 65.6502 19.9465 65.9663C20.4172 65.6247 20.4888 65.1249 20.6525 64.6812C20.9595 63.855 22.0645 63.6765 22.6323 64.3701C22.7347 64.4925 22.7756 64.6557 22.97 64.6965C23.1849 64.4619 23.1081 63.9978 23.6299 63.9723C24.208 63.9468 24.2541 64.3854 24.5047 64.8087C24.781 64.1406 25.2363 63.9162 25.9167 63.9672C26.8938 64.0386 27.8761 63.9825 28.8583 63.9978C29.7331 64.0131 29.7382 64.0233 29.7433 64.8597C29.7484 65.7572 29.7331 66.6548 29.7638 67.5524C29.7843 68.1134 29.774 68.9549 30.347 69.011C31.0223 69.0773 31.1911 68.2358 31.3292 67.6493C31.5543 66.6854 31.5032 65.7011 31.4674 64.722C31.4469 64.1916 31.6004 63.9978 32.1478 64.0029C35.9079 64.0182 39.6731 64.0131 43.4333 64.0029C43.8681 64.0029 44.0932 64.1406 44.2058 64.5843C44.3183 65.0484 44.4564 65.6858 44.9834 65.7164C45.6126 65.7521 45.7507 65.0535 45.894 64.5792C46.0526 64.0641 46.3544 63.9927 46.7995 63.9927C50.1503 63.9774 53.5063 63.9417 56.8572 63.9315C57.7013 63.9315 57.7064 63.9519 57.7115 64.8444C57.7166 65.6603 57.7115 66.4763 57.732 67.2923C57.7422 67.6136 57.7934 67.94 57.865 68.2562C57.9315 68.552 58.1157 68.7713 58.4584 68.7713C58.8012 68.7713 58.9751 68.5418 59.0621 68.2562C59.144 67.9859 59.1951 67.7003 59.2207 67.4198C59.2872 66.6089 59.3639 65.7929 59.3691 64.977C59.3793 64.0692 59.1593 63.9366 60.469 63.9468C61.8605 63.957 63.252 63.9621 64.6383 63.9621C66.7256 63.9621 68.8077 63.9825 70.895 63.9621C71.4987 63.957 71.9489 64.0233 71.9284 64.773C71.9284 64.926 71.9847 65.0994 72.0614 65.2422C72.266 65.6297 72.3684 66.2315 72.8595 66.2162C73.3353 66.2009 73.2483 65.5839 73.4017 65.232C73.4683 65.0841 73.5041 64.9209 73.5245 64.7577C73.5859 64.1763 73.8622 63.9519 74.4863 63.957C78.0827 63.9927 81.6843 63.9774 85.2807 63.9927C86.1146 63.9927 86.1095 64.0233 86.1095 64.9158C86.1095 65.7317 86.1043 66.5477 86.1197 67.3637C86.1248 67.6442 86.1708 67.9349 86.2476 68.2052C86.3294 68.4806 86.4829 68.7611 86.8206 68.756C87.1684 68.7458 87.3168 68.4347 87.3424 68.1593C87.4447 67.1036 87.5061 66.0479 87.5726 64.9872C87.5879 64.7067 87.5726 64.4262 87.5726 64.0029L87.593 64.0284Z" fill="#F8F2DA"/>
<path fill-rule="evenodd" clip-rule="evenodd" d="M283.539 56.9654C285.048 55.7312 285.841 54.135 285.964 52.2021C286.005 51.5493 286.01 50.8965 285.995 50.2438C285.852 44.9756 285.279 39.7534 284.583 34.5362C284.24 31.9812 283.524 29.6149 282.291 27.3709C281.6 26.1164 280.726 25.0709 279.298 24.6476C278.894 24.5252 278.72 24.2549 278.551 23.9081C277.226 21.2052 275.472 18.8185 273.236 16.7888C272.842 16.4318 272.683 16.0595 272.668 15.524C272.484 10.1233 267.701 6.45136 263.762 5.56399C262.963 5.38549 262.135 5.2529 261.326 5.40079C259.648 5.71188 258.114 5.2733 256.584 4.67151L256.295 4.5575C254.15 3.71142 252.002 2.86354 249.642 2.80497C249.289 2.79477 249.018 2.66217 248.782 2.41228C247.381 0.953724 245.59 0.326443 243.641 0.0714502C241.303 -0.234541 239.262 0.377441 237.661 2.16239C237.338 2.51938 237.036 2.73867 236.54 2.77947C234.699 2.93757 232.913 3.39655 231.158 3.94734C224.405 6.05357 218.579 9.74077 213.325 14.3969C212.25 15.3455 211.34 16.4573 210.583 17.6761C210.498 17.8121 210.415 17.9502 210.333 18.0881L210.332 18.0894C209.754 19.0575 209.181 20.0157 207.861 20.1853C207.786 20.1952 207.717 20.2531 207.657 20.3031L207.651 20.3077C206.326 21.3327 205.063 22.3986 204.131 23.8419C202.704 26.0603 201.768 28.4878 200.842 30.9255C200.826 30.9677 200.81 31.0096 200.794 31.0511C200.654 31.4261 200.527 31.7664 200.08 31.9455C198.274 32.6595 197.24 34.0874 196.632 35.852C195.624 38.7538 195.742 41.6964 196.355 44.6594C196.939 47.4593 198.709 49.03 201.415 49.6879C201.516 49.7127 201.621 49.7309 201.723 49.7486C201.957 49.7893 202.178 49.8277 202.31 49.9378C201.875 52.1205 202.06 54.1452 202.888 56.1035C202.929 56.2007 202.986 56.2911 203.042 56.3814C203.176 56.5941 203.308 56.8058 203.236 57.1031C202.866 58.6382 202.708 60.2005 202.55 61.7644L202.52 62.0601C202.484 62.4273 202.295 62.5446 201.957 62.5293C201.753 62.5191 201.548 62.5191 201.343 62.5191C193.776 62.435 186.206 62.387 178.636 62.339L178.634 62.339C171.974 62.2967 165.313 62.2544 158.652 62.1876C148.477 62.0852 138.303 62.0669 128.129 62.0486H128.129C120.066 62.0341 112.004 62.0196 103.943 61.9632C84.865 61.8293 65.7896 61.7385 46.7128 61.6476H46.7117L46.7056 61.6476L46.6962 61.6476L46.6871 61.6475L46.678 61.6475C40.3325 61.6173 33.9868 61.587 27.6408 61.5552C23.8672 61.5369 20.0936 61.5241 16.3211 61.5112L16.3134 61.5112C13.7927 61.5026 11.2725 61.494 8.75314 61.4838C8.18017 61.4838 7.61232 61.4583 7.04957 61.3206C5.29485 60.8872 4.99301 61.0197 3.95962 62.4477C2.06651 65.0626 1.20078 68.0966 0.336898 71.1242C0.262312 71.3856 0.18774 71.6469 0.112521 71.9079C-0.0358374 72.4179 -0.0358374 72.9891 0.173911 73.4787C0.577189 74.4181 0.599805 75.3905 0.62251 76.3667C0.628032 76.6041 0.633559 76.8417 0.644567 77.0792C0.68421 77.9378 0.784788 78.794 0.885487 79.6511L0.885509 79.6513C0.927744 80.0108 0.97 80.3705 1.00779 80.7307C1.04872 81.103 1.1715 81.4498 1.37101 81.7608C1.89283 82.5921 2.64997 83.0154 3.63732 82.9338C4.61956 82.8522 5.15672 82.2045 5.44321 81.3325C5.66319 80.6695 5.70411 79.9759 5.64272 79.2772C5.63241 79.1662 5.61897 79.0547 5.60544 78.9424C5.55185 78.4977 5.49668 78.04 5.62738 77.5433C5.83132 77.5433 6.03118 77.5438 6.22834 77.5444C6.61474 77.5455 6.99075 77.5466 7.36676 77.5433C10.3165 77.5108 13.2661 77.5659 16.2158 77.6209C18.827 77.6697 21.4382 77.7184 24.0494 77.7065C35.3658 77.6541 46.6822 77.7299 57.9986 77.8058C64.3062 77.8481 70.6138 77.8904 76.9215 77.9105C85.9778 77.9404 95.0342 77.9563 104.091 77.9721C118.179 77.9968 132.268 78.0215 146.359 78.0992C156.319 78.1545 166.282 78.2991 176.244 78.4438L176.245 78.4438L176.249 78.4439C180.965 78.5123 185.68 78.5807 190.395 78.6397C194.156 78.6856 197.921 78.7315 201.681 78.553C203.246 78.4766 203.246 78.4816 203.451 80.1626L203.451 80.1646C203.421 80.1728 203.39 80.1825 203.359 80.1923L203.359 80.1923C203.275 80.2189 203.189 80.2462 203.103 80.2462C202.23 80.2462 201.358 80.2732 200.485 80.3002L200.484 80.3002C198.702 80.3554 196.918 80.4106 195.133 80.236C193.337 80.0626 191.541 80.0728 189.741 80.1748C188.068 80.2717 186.385 80.3482 184.712 80.1901C180.424 79.791 176.132 79.9224 171.839 80.0538L171.718 80.0575C170.109 80.1064 168.498 80.1242 166.888 80.142H166.887C162.449 80.191 158.009 80.24 153.603 80.9398C153.412 80.9697 153.22 80.9962 153.028 81.0227C152.208 81.1359 151.39 81.2489 150.635 81.6334C149.438 82.2402 148.748 83.2041 148.794 84.5607C148.84 85.9325 149.73 86.6669 150.937 87.0902C152.022 87.4727 153.152 87.6563 154.283 87.8195C160.878 88.788 167.517 89.2438 174.155 89.6996C176.57 89.8653 178.984 90.0311 181.397 90.2215C188.446 90.7774 195.511 91.1548 202.581 91.4098C203.2 91.4302 203.794 91.5322 204.367 91.7871C206.142 92.5623 208.025 92.9397 209.928 93.2151C215.975 94.0937 222.067 94.3429 228.159 94.5921C229.174 94.6336 230.189 94.6751 231.204 94.7196C236.678 94.9593 242.152 95.0001 247.631 94.9797C253.202 94.9644 258.753 94.7757 264.263 93.9342C268.841 93.2355 273.297 92.0268 277.702 90.6346C279.876 89.9461 281.79 88.768 283.197 86.9117C284.9 84.6627 285.079 81.4498 283.509 79.114C283.028 78.3949 282.951 77.7269 283.048 76.9415C283.091 76.6107 283.136 76.2801 283.182 75.9494C283.363 74.6234 283.545 73.2968 283.57 71.9538C283.589 71.0463 283.618 70.1388 283.647 69.2318L283.647 69.228L283.647 69.2241C283.682 68.1356 283.717 67.0478 283.734 65.9615C283.78 63.228 283.703 60.4945 283.074 57.817C282.972 57.3804 283.18 57.2184 283.417 57.0341C283.454 57.0053 283.492 56.976 283.529 56.945L283.539 56.9654ZM17.5217 69.4192C17.4965 69.9025 17.4653 70.3857 17.434 70.8694C17.3891 71.5647 17.3442 72.2607 17.317 72.9585C17.2966 73.494 17.0459 73.6317 16.5497 73.6215C15.5943 73.6069 14.6374 73.6057 13.6806 73.6044H13.6805H13.6805H13.6788C12.9607 73.6035 12.2429 73.6025 11.5259 73.596C10.9418 73.5909 10.3571 73.5801 9.77221 73.5694L9.77112 73.5694H9.77102H9.77092H9.77082C8.59917 73.5478 7.42676 73.5263 6.25662 73.5501C5.56342 73.5633 4.93501 73.3866 4.29573 73.2068C4.1943 73.1782 4.09259 73.1496 3.99031 73.1217C3.45315 72.9738 3.38153 72.6576 3.50943 72.2037C3.52067 72.1617 3.53037 72.1181 3.54022 72.0738L3.54024 72.0738C3.54832 72.0375 3.55649 72.0008 3.5657 71.964C3.58476 71.9039 3.60184 71.8427 3.61894 71.7815L3.61898 71.7814C3.65696 71.6455 3.69503 71.5092 3.75499 71.3827C4.23537 70.3755 4.54864 69.3121 4.86544 68.2368L4.86547 68.2367C5.07159 67.5371 5.2792 66.8324 5.53529 66.1349C5.62286 66.1848 5.69089 66.2177 5.74318 66.243C5.81919 66.2799 5.86195 66.3006 5.88317 66.3338C7.08027 68.2054 8.81453 68.7868 10.9529 68.5267C12.2085 68.3763 13.4621 68.473 14.7149 68.5696C15.458 68.6269 16.2008 68.6842 16.9436 68.6899C17.4859 68.6899 17.537 69.0163 17.5165 69.409L17.5217 69.4192ZM202.131 75.2381C201.723 75.301 201.658 74.9674 201.596 74.654C201.587 74.6073 201.578 74.561 201.568 74.5166C201.563 74.4966 201.558 74.477 201.553 74.4579C201.525 74.3518 201.497 74.2453 201.47 74.1388L201.47 74.1387C201.265 73.3445 201.06 72.5492 200.438 71.8926C200.055 72.1064 199.998 72.4446 199.942 72.7716L199.942 72.7718L199.942 72.772C199.917 72.9129 199.894 73.0518 199.844 73.1778C199.759 73.3968 199.725 73.6475 199.692 73.8954C199.634 74.3286 199.578 74.7528 199.246 74.9831C198.891 75.2293 198.412 75.1735 197.933 75.1177C197.728 75.0938 197.523 75.0698 197.327 75.0698C196.491 75.0698 195.655 75.0593 194.82 75.0488L194.818 75.0488H194.818H194.817H194.817C193.814 75.0361 192.812 75.0235 191.807 75.029C191.183 75.029 190.933 74.8454 190.953 74.1927C190.989 73.2084 190.789 72.2445 190.452 71.3164L190.442 71.2901C190.337 70.999 190.21 70.6484 189.828 70.6534C189.539 70.6534 189.467 70.8974 189.401 71.1205L189.401 71.1207C189.384 71.1787 189.367 71.2353 189.347 71.2858L189.292 71.4232L189.292 71.4234C188.92 72.3628 188.543 73.3146 188.538 74.3406C188.538 74.9168 188.247 75.0035 187.771 74.9984C185.479 74.978 183.192 74.9678 180.901 74.9729C180.404 74.9729 180.159 74.8199 180.133 74.2845C180.112 73.813 180.023 73.3416 179.935 72.8731C179.917 72.7791 179.9 72.6851 179.882 72.5913C179.847 72.3975 179.785 72.1731 179.54 72.1527C179.301 72.1333 179.215 72.3319 179.137 72.514L179.125 72.5403C179.072 72.667 179.018 72.7938 178.964 72.9207C178.779 73.3555 178.593 73.7925 178.435 74.2386C178.266 74.7129 178.031 74.9627 177.468 74.9576C175.135 74.9321 172.807 74.9423 170.474 74.9627C169.902 74.9678 169.661 74.7537 169.656 74.1825C169.656 73.5705 169.651 72.9534 169.554 72.3516C169.538 72.2577 169.533 72.1508 169.528 72.041C169.51 71.6794 169.491 71.2859 169.098 71.2195C168.754 71.1581 168.603 71.5294 168.47 71.8578C168.437 71.939 168.405 72.0176 168.372 72.0864L168.371 72.0886L168.371 72.089C168.013 72.8175 167.65 73.5561 167.39 74.3253C167.211 74.8557 166.929 74.9984 166.402 74.9933C164.029 74.9576 161.66 74.9423 159.286 74.9525C158.683 74.9525 158.391 74.7944 158.335 74.1519C158.289 73.5909 158.12 73.0299 157.951 72.4893C157.818 72.0558 157.526 72.0099 157.24 72.372C156.779 72.9534 156.452 73.6164 156.242 74.3202C156.099 74.7995 155.828 74.9372 155.357 74.9321C152.983 74.9117 150.615 74.8964 148.241 74.9168C147.627 74.9219 147.464 74.6772 147.499 74.1162C147.54 73.4634 147.53 72.8106 147.515 72.1578C147.514 72.1106 147.517 72.0613 147.519 72.0111L147.519 72.0107C147.532 71.7844 147.546 71.5384 147.228 71.3673C146.77 71.7547 146.565 72.2981 146.363 72.8343C146.299 73.0039 146.235 73.1729 146.164 73.3359L146.137 73.3971C145.479 74.8915 145.477 74.8964 143.816 74.8913C143.221 74.8875 142.627 74.8827 142.033 74.8779H142.032H142.032H142.031C140.254 74.8636 138.478 74.8493 136.7 74.8607C136.096 74.8607 135.845 74.667 135.733 74.0601C135.713 73.9519 135.697 73.8322 135.681 73.7083C135.607 73.1431 135.522 72.4913 134.935 72.4536C134.475 72.426 134.307 72.9821 134.155 73.4855C134.111 73.6324 134.068 73.7748 134.019 73.8969C133.738 74.616 133.323 74.8556 132.551 74.8251C131.069 74.7717 129.586 74.7493 128.103 74.7269L128.102 74.7268L128.101 74.7268L128.1 74.7268L128.098 74.7268C127.171 74.7127 126.244 74.6987 125.317 74.6771C124.499 74.6567 124.488 74.6312 124.596 73.851C124.719 72.9687 124.744 72.0915 124.693 71.2399C124.27 71.1022 124.13 71.3239 124.003 71.525C123.984 71.5549 123.965 71.5844 123.946 71.6121C123.481 72.2853 123.051 72.9993 122.815 73.7745C122.59 74.5242 122.166 74.6568 121.47 74.6415C118.856 74.5905 116.237 74.565 113.617 74.5854C112.921 74.5905 112.522 74.4375 112.487 73.6929C112.483 73.5884 112.444 73.4864 112.403 73.3802C112.384 73.3308 112.365 73.2806 112.349 73.2288C111.859 73.2426 111.687 73.6006 111.534 73.9177L111.534 73.9178C111.517 73.9523 111.501 73.9863 111.484 74.0193C111.264 74.463 110.942 74.5547 110.491 74.5497C108.041 74.4987 105.585 74.4528 103.13 74.4222C102.634 74.4171 102.378 74.2743 102.373 73.7337C102.373 73.4694 102.313 73.2079 102.253 72.9451L102.252 72.9451C102.23 72.8478 102.208 72.7503 102.188 72.6525C102.137 72.4077 102.055 72.1476 101.784 72.0864C101.462 72.015 101.237 72.2292 101.089 72.4791C101.046 72.5516 101.002 72.6243 100.957 72.6973L100.957 72.6974C100.768 73.0097 100.574 73.3285 100.475 73.6674C100.321 74.1825 100.081 74.3865 99.5283 74.3763C96.7913 74.3304 94.0492 74.2998 91.3071 74.31C90.6012 74.31 90.4886 74.0193 90.5398 73.4175C90.6063 72.6066 90.6165 71.7855 90.3045 71.0155C89.9379 70.9347 89.8483 71.1762 89.7695 71.3887L89.7694 71.3889C89.7598 71.4147 89.7504 71.44 89.7407 71.4643C89.7344 71.4801 89.728 71.4954 89.7212 71.5101C89.4194 72.1782 89.1892 72.8769 89.1022 73.6164C89.0562 74.0397 88.9129 74.2845 88.4218 74.2743C85.8076 74.2182 83.1883 74.1774 80.569 74.1468C80.1547 74.1417 79.991 73.9887 80.0063 73.5654C80.0084 73.5086 80.0107 73.4518 80.013 73.3947C80.0337 72.883 80.0549 72.3622 79.8938 71.862C79.7505 71.4234 79.4845 71.3521 79.2031 71.6937C78.7887 72.2037 78.4715 72.7902 78.3334 73.4328C78.2106 73.9887 77.9139 74.1264 77.3819 74.1213C75.9329 74.0968 74.4857 74.0888 73.0381 74.0809H73.0376H73.0371H73.0365C72.0724 74.0756 71.1081 74.0703 70.143 74.0601C69.2737 74.0499 69.2733 74.0346 69.2529 73.189L69.2528 73.188C69.2256 72.0898 69.0584 71.2603 68.7515 70.6993C68.3142 71.0449 68.1712 71.5206 68.0304 71.9889C67.9884 72.1287 67.9465 72.2678 67.8971 72.4026C67.7897 72.7086 67.7079 73.0299 67.6721 73.3512C67.6055 73.9173 67.3037 74.0601 66.7563 74.0499C65.3533 74.0171 63.953 74.0103 62.5515 74.0035H62.5511H62.5508H62.5504C61.9899 74.0008 61.4292 73.9981 60.868 73.9938C60.6088 73.9921 60.3495 73.9881 60.0903 73.9841H60.0897C59.5715 73.9762 59.0534 73.9683 58.5352 73.9785C58.0287 73.9887 57.7781 73.8102 57.7985 73.2696C57.8157 72.8349 57.8121 72.4002 57.8079 71.8884V71.8883V71.8881C57.8059 71.6374 57.8036 71.3683 57.8036 71.0716C57.2128 71.6434 57.0946 72.2079 56.9862 72.7255C56.966 72.8219 56.9462 72.9166 56.9237 73.0095C56.7651 73.6419 56.5298 73.9632 55.7778 73.9479C52.918 73.8816 50.0532 73.8714 47.1883 73.8867C46.5539 73.8867 46.3391 73.6929 46.3186 73.0605C46.3033 72.525 46.2828 71.964 45.9912 71.2399C45.7333 71.6965 45.7005 72.1083 45.6703 72.4872C45.655 72.6794 45.6403 72.8632 45.5973 73.0401C45.4694 73.5603 45.3364 73.8918 44.6611 73.8765C43.0434 73.8398 41.4239 73.8306 39.8037 73.8214H39.8031H39.8023H39.8016H39.8009C38.7217 73.8153 37.6422 73.8092 36.5627 73.7949C35.7153 73.7847 35.7135 73.7593 35.6525 72.8875L35.6521 72.882C35.6419 72.7331 35.634 72.5841 35.6261 72.4353C35.6101 72.1359 35.5942 71.8372 35.56 71.5407C35.5345 71.3062 35.4731 71.0257 35.2122 70.9441C34.8643 70.8319 34.6852 71.1277 34.5471 71.3622C34.2197 71.9232 33.8872 72.4944 33.6365 73.0911C33.4319 73.5858 33.1454 73.749 32.6185 73.7388C28.6537 73.6674 24.6889 73.6113 20.7191 73.5756C20.1205 73.5756 19.9466 73.3818 19.9773 72.7902C20.0104 72.0887 19.9958 71.382 19.9812 70.6756C19.9756 70.4012 19.9699 70.1267 19.967 69.8527C19.9312 67.8026 19.0206 66.7673 17.005 66.497C16.2734 66.4001 15.5521 66.2318 14.8666 65.9717C13.3625 65.3954 11.8022 65.1047 10.1958 65.0588C9.45913 65.0384 8.95778 64.7528 8.66617 64.1001C8.82371 63.8222 9.0578 63.8464 9.27525 63.8689C9.3332 63.8749 9.38996 63.8808 9.44378 63.8808C10.7294 63.8919 12.0161 63.9099 13.3028 63.9279L13.3038 63.9279L13.3048 63.9279L13.3057 63.9279H13.3061H13.3064H13.3068C14.9628 63.951 16.6191 63.9742 18.2737 63.9828C18.8364 63.9828 19.0718 64.2021 19.2099 64.712C19.3327 65.1659 19.481 65.6402 19.9414 65.9564C20.3196 65.6819 20.4401 65.3054 20.5578 64.9378C20.5866 64.8479 20.6152 64.7585 20.6474 64.6712C20.9544 63.8451 22.0594 63.6666 22.6273 64.3602C22.6553 64.3937 22.6787 64.4303 22.7019 64.4665L22.702 64.4666C22.7635 64.5628 22.8238 64.6569 22.9649 64.6865C23.036 64.6089 23.0752 64.506 23.1147 64.4023C23.1946 64.1927 23.2758 63.9794 23.6248 63.9624C24.0763 63.9424 24.2033 64.2056 24.3566 64.5234C24.3997 64.6126 24.4447 64.706 24.4996 64.7987C24.7759 64.1307 25.2312 63.9063 25.9116 63.9573C26.5379 64.003 27.1662 63.9964 27.7953 63.9898H27.7955H27.7956H27.7958C28.1481 63.9861 28.5007 63.9824 28.8532 63.9879C29.728 64.0032 29.7331 64.0134 29.7382 64.8497C29.7398 65.1259 29.7395 65.4021 29.7391 65.6783C29.7383 66.2997 29.7375 66.9211 29.7587 67.5425C29.76 67.5768 29.7611 67.6122 29.7623 67.6485C29.7801 68.2036 29.804 68.9484 30.3419 69.001C30.9911 69.0648 31.1722 68.2895 31.308 67.7084L31.3241 67.6394C31.5375 66.7258 31.5027 65.7938 31.468 64.8653L31.4623 64.712C31.4418 64.1817 31.5953 63.9879 32.1427 63.993C35.9028 64.0083 39.6681 64.0032 43.4282 63.993C43.863 63.993 44.0881 64.1307 44.2007 64.5743L44.2107 64.6159C44.3217 65.0756 44.4669 65.6768 44.9783 65.7065C45.5506 65.739 45.7167 65.1639 45.8498 64.7027C45.863 64.6568 45.8759 64.6121 45.8889 64.5692C46.0475 64.0542 46.3493 63.9828 46.7944 63.9828C48.2835 63.976 49.7737 63.9651 51.2639 63.9543C53.127 63.9408 54.9904 63.9272 56.8521 63.9216C57.6962 63.9216 57.7013 63.942 57.7064 64.8344C57.7079 65.0676 57.7085 65.3008 57.7092 65.534V65.5345C57.7107 66.1171 57.7123 66.6997 57.7269 67.2824C57.7371 67.6037 57.7883 67.9301 57.8599 68.2462C57.9264 68.542 58.1106 68.7613 58.4534 68.7613C58.7961 68.7613 58.97 68.5318 59.057 68.2462C59.1389 67.976 59.19 67.6904 59.2156 67.4099L59.2399 67.1167C59.2996 66.4025 59.3595 65.6847 59.364 64.967C59.3654 64.8384 59.3622 64.7253 59.3595 64.6259C59.3426 64.0245 59.3399 63.9281 60.4639 63.9369C61.8554 63.9471 63.2469 63.9522 64.6333 63.9522C65.3292 63.9522 66.0246 63.9544 66.7198 63.9567C68.1096 63.9612 69.4986 63.9658 70.8899 63.9522C71.4936 63.9471 71.9438 64.0134 71.9233 64.763C71.9233 64.916 71.9796 65.0894 72.0563 65.2322C72.1031 65.3209 72.1446 65.4207 72.1865 65.5218C72.3281 65.8628 72.4756 66.2181 72.8544 66.2063C73.1872 66.1956 73.2446 65.8904 73.3017 65.5875L73.3017 65.5875L73.3017 65.5874C73.3262 65.4573 73.3506 65.3277 73.3967 65.222C73.4632 65.0741 73.499 64.9109 73.5194 64.7477C73.5808 64.1664 73.8571 63.942 74.4812 63.9471C76.729 63.9694 78.9788 63.9718 81.2281 63.9742C82.5776 63.9756 83.927 63.977 85.2756 63.9828C86.1044 63.9828 86.1044 64.013 86.1044 64.8896V64.9058C86.1044 65.0689 86.1041 65.232 86.1039 65.3951C86.1031 66.048 86.1023 66.7009 86.1146 67.3538C86.1197 67.6343 86.1657 67.9249 86.2425 68.1952C86.3243 68.4706 86.4778 68.7511 86.8155 68.746C87.1633 68.7358 87.3117 68.4247 87.3373 68.1493C87.4288 67.2046 87.4876 66.2598 87.5466 65.3114V65.3112L87.5675 64.9772C87.5773 64.7987 87.5746 64.6202 87.5713 64.4049V64.4047V64.4045V64.4043C87.5695 64.2814 87.5675 64.1466 87.5675 63.993H91.2048C92.3276 63.993 93.4494 63.9958 94.5711 63.9986H94.5715H94.572H94.5724C96.0671 64.0023 97.5615 64.0061 99.0576 64.0032C99.5948 64.0032 99.9682 64.0338 100.045 64.7273C100.106 65.2628 100.27 66.0176 100.981 65.9513C101.577 65.8943 101.697 65.2671 101.802 64.724L101.802 64.7231L101.811 64.6791L101.825 64.6049C101.84 64.5272 101.853 64.4482 101.866 64.3655L101.866 64.3649L101.866 64.3647L101.866 64.3639C101.88 64.279 101.894 64.1902 101.912 64.095C101.969 64.0861 102.025 64.0742 102.079 64.0624L102.08 64.0624L102.08 64.0624C102.183 64.0402 102.285 64.0185 102.388 64.0185H112.937C113.801 64.0185 113.801 64.0386 113.806 64.8653L113.807 64.8803C113.807 65.6147 113.817 66.3491 113.858 67.0835C113.878 67.4048 113.965 67.7261 114.057 68.032C114.129 68.2666 114.252 68.5063 114.538 68.5165C114.809 68.5267 114.973 68.3176 115.111 68.1136C115.513 67.505 115.606 66.813 115.7 66.1168C115.71 66.0429 115.72 65.9691 115.73 65.8952C115.784 65.4952 115.767 65.0978 115.751 64.701V64.7009L115.751 64.7004C115.744 64.5308 115.737 64.3613 115.735 64.1919C115.952 63.9714 116.214 63.9904 116.465 64.0086H116.465H116.465C116.533 64.0136 116.601 64.0185 116.666 64.0185C117.915 64.0166 119.163 64.0175 120.413 64.0183H120.413H120.413H120.413C122.599 64.0198 124.785 64.0212 126.97 64.0083C127.599 64.0083 128.126 64.0185 128.131 64.8344C128.131 64.9109 128.172 64.9976 128.213 65.0639C128.267 65.1491 128.312 65.25 128.358 65.3516C128.486 65.6392 128.617 65.9329 128.98 65.8952C129.304 65.8603 129.433 65.5152 129.55 65.2022L129.551 65.201C129.57 65.1488 129.59 65.0975 129.609 65.0486C129.879 64.3687 130.382 64.0287 131.118 64.0287C134.469 64.0287 137.825 64.0338 141.176 64.0491C142.072 64.0491 142.072 64.0637 142.071 64.9139L142.071 64.9721C142.071 65.0618 142.071 65.1515 142.071 65.2413V65.2415C142.07 66.0501 142.068 66.8611 142.179 67.6598C142.266 68.2819 142.43 69.001 143.197 69.1846C143.652 69.2917 144.205 68.5522 144.343 67.6445C144.522 66.4715 144.44 65.3036 144.108 64.1613C144.554 64.0219 144.968 64.0383 145.372 64.0543C145.501 64.0593 145.628 64.0644 145.755 64.0644C146.892 64.0625 148.029 64.064 149.166 64.0654H149.173C151.224 64.068 153.274 64.0705 155.327 64.0542C156.012 64.0491 156.483 64.1358 156.646 64.9262C156.728 65.324 156.907 65.9258 157.429 65.8901C157.905 65.8595 158.12 65.3036 158.207 64.8803C158.335 64.248 158.601 64.0389 159.261 64.044C161.899 64.0664 164.539 64.0587 167.179 64.0509H167.18H167.181H167.181C168.14 64.0481 169.097 64.0453 170.055 64.044C170.157 64.044 170.258 64.0565 170.374 64.0709L170.375 64.0709C170.394 64.0733 170.414 64.0758 170.434 64.0782C170.454 64.0806 170.475 64.0831 170.496 64.0855C170.525 64.0888 170.556 64.092 170.587 64.095C170.587 64.2257 170.587 64.3556 170.587 64.4848L170.588 64.964C170.589 65.53 170.59 66.0863 170.587 66.6449C170.582 67.3028 170.715 67.9403 170.874 68.5777C170.914 68.7409 171.007 68.899 171.175 68.9194C171.344 68.9398 171.487 68.8276 171.564 68.6695C171.611 68.5706 171.662 68.473 171.712 68.3755L171.713 68.3754C171.831 68.1465 171.949 67.9183 172.025 67.6751C172.367 66.5378 172.613 65.3852 172.332 64.1052H184.84L184.836 64.2157C184.805 65.0396 184.772 65.9019 185.438 66.6194C186.108 66.1043 186.154 65.3648 186.129 64.661C186.108 64.146 186.293 64.0338 186.748 64.0389C190.549 64.0542 194.355 64.0695 198.156 64.0593C198.755 64.0593 198.791 64.3398 198.76 64.8191C198.683 66.1196 198.847 67.3946 199.312 68.797C199.825 68.1826 199.91 67.5596 199.992 66.9557C199.999 66.903 200.006 66.8503 200.013 66.7979C200.11 66.1145 200.197 65.4209 200.223 64.7324C200.243 64.197 200.463 64.0134 200.97 64.0593C201.149 64.0752 201.328 64.0712 201.507 64.0672H201.507C201.615 64.0648 201.722 64.0625 201.829 64.0644C202.141 64.0644 202.254 64.2531 202.239 64.5387C202.218 64.9058 202.198 65.273 202.162 65.6351C201.891 68.5318 202.014 71.4235 202.331 74.31C202.339 74.3811 202.362 74.4622 202.386 74.546C202.467 74.8284 202.557 75.1418 202.111 75.2126L202.131 75.2381ZM272.433 18.5431C274.111 20.5983 275.477 22.4955 276.638 24.6323C275.226 25.3055 274.244 26.3765 273.333 27.5341C272.955 28.0135 272.489 28.4011 271.727 28.6867C271.361 25.8017 271.769 23.0459 272.205 20.1053L272.206 20.1012C272.282 19.5864 272.359 19.0659 272.433 18.538V18.5431ZM250.358 4.84491C251.826 5.1458 253.059 5.56909 254.256 6.09437C254.635 6.26267 254.829 6.44626 254.727 6.92055C254.118 9.66937 253.387 12.3774 251.995 14.8559C251.55 15.6464 250.992 16.3349 250.046 16.8449C249.95 15.1318 250.13 13.4408 250.31 11.7504C250.553 9.46532 250.796 7.18123 250.358 4.84491ZM212.762 20.5014C212.563 20.3703 212.358 20.2475 212.073 20.0763C211.97 20.0145 211.856 19.9463 211.728 19.8691C219.121 13.5861 227.25 9.01659 236.55 6.41056C236.837 10.2813 235.85 13.6065 233.425 16.4369C233.079 16.8394 232.738 17.2471 232.398 17.655L232.398 17.6551C231.354 18.9062 230.308 20.1588 229.097 21.2664C228.524 21.7917 227.951 22.3068 227.332 22.7811C225.26 24.3773 223.203 25.9889 221.571 28.0696C221.397 28.2889 221.172 28.4827 220.947 28.651C218.855 30.2167 217.243 32.2209 215.862 34.3985C213.882 37.5145 212.347 40.8396 211.595 44.4809C211.161 46.5974 210.183 48.4639 208.997 50.2387C208.449 51.0546 207.764 51.7278 206.889 52.1766C206.595 51.9691 206.64 51.7324 206.68 51.5182C206.691 51.464 206.701 51.4112 206.705 51.3606C206.92 48.6781 207.16 46.0058 207.764 43.3692C208.592 39.7483 210.511 36.6833 212.547 33.6693C213.299 32.5524 214.01 31.41 214.593 30.1912C215.125 29.0794 215.524 27.9217 215.637 26.6927C215.883 24.0815 214.997 21.9753 212.762 20.5014ZM203.584 35.1176C203.548 35.75 203.282 36.1427 202.904 36.5915C201.712 38.0041 201.031 39.6361 201.036 41.5128C201.036 42.8847 201.067 44.2565 201.379 45.7355C200.709 45.4805 200.499 45.0419 200.325 44.5982C199.266 41.9769 199.369 39.3454 200.336 36.7292C200.596 36.0203 201.077 35.444 201.747 35.087C202.766 34.5464 203.246 33.6693 203.615 32.6289C204.474 30.1657 205.431 27.7432 206.684 25.4432C207.201 24.4946 207.871 23.694 208.756 23.0667C209.119 22.8066 209.493 22.5516 210.05 22.8933C208.628 24.1784 207.697 25.637 208.424 27.7024L208.371 27.7155C207.278 27.9863 206.185 28.2571 205.707 29.4517C205.211 30.6909 205.799 31.6599 206.464 32.6034C206.292 32.8486 206.064 32.8556 205.842 32.8624C205.741 32.8655 205.641 32.8685 205.549 32.8941C204.413 33.1899 203.661 33.9344 203.594 35.1074L203.584 35.1176ZM275.518 76.3295C274.592 78.1042 272.863 78.8284 270.888 78.7774C269.174 78.7366 267.455 78.6193 265.752 78.4204C264.334 78.2572 262.979 78.3694 261.644 78.8131C261.498 78.8622 261.351 78.9105 261.204 78.9588L261.203 78.9593C260.495 79.1925 259.782 79.4274 259.121 79.7566C256.84 80.8837 254.486 80.9143 252.067 80.3737C251.188 80.1769 250.335 79.907 249.483 79.6371C249.209 79.5503 248.935 79.4636 248.66 79.3792C246.035 78.5683 243.39 78.3082 240.684 79.012C239.605 79.2925 238.602 79.7209 237.64 80.2666C235.353 81.5772 232.995 81.6435 230.575 80.6695C228.872 79.981 227.158 79.318 225.352 78.9253C224.349 78.706 223.336 78.6295 222.308 78.604C219.842 78.5428 217.683 79.2823 216.051 81.1489C215.013 82.3371 213.826 82.5666 212.414 82.2045C211.724 82.0297 211.039 81.825 210.353 81.6201L210.353 81.62L210.346 81.618C210.23 81.5833 210.114 81.5486 209.998 81.5141C209.862 81.4736 209.726 81.4334 209.59 81.3937C209.181 81.2713 208.894 80.9908 208.654 80.644C208.066 79.7974 207.631 78.8947 207.416 77.8748C206.871 75.2623 206.643 72.6081 206.416 69.9581L206.416 69.9577L206.416 69.9574L206.416 69.9571C206.368 69.4001 206.321 68.8433 206.27 68.287C206.141 66.8541 206.071 65.4168 206.001 63.9792L206.001 63.9783C205.919 62.2798 205.836 60.5809 205.656 58.888C205.564 58.0363 205.595 58.0108 206.423 58.0108C208.459 58.0108 210.03 57.0674 211.294 55.568C212.859 53.7117 213.729 51.5493 214.066 49.1473C214.614 45.2459 215.637 41.5128 217.658 38.0602C220.441 33.3123 224.216 29.7832 229.388 27.784C230.227 27.4627 231.056 27.1109 231.869 26.7437C237.256 24.311 240.224 19.8793 241.978 14.4785C242.444 13.0404 242.72 11.5563 242.807 10.0417C242.904 8.27201 242.92 6.52786 241.856 4.83471C243.232 4.48282 244.342 4.72761 245.416 5.1203C246.122 5.38039 246.455 6.02297 246.542 6.75225C246.654 7.72632 246.695 8.6953 246.542 9.67447L246.507 9.89448C246.175 11.994 245.843 14.099 245.759 16.2278C245.703 17.6608 245.994 18.9766 246.905 20.1292C248.194 21.7611 249.99 22.2405 251.939 21.4959C254.333 20.583 256.088 18.9715 257.382 16.7888C258.554 14.81 259.413 12.7038 260.119 10.5261C260.426 9.57757 260.533 9.50617 261.485 9.53677C264.467 9.63877 268.852 12.8925 268.187 17.1202C267.929 18.7601 267.737 20.4129 267.544 22.0658C267.496 22.4794 267.448 22.893 267.399 23.3064C267.179 25.1321 267.128 26.963 267.302 28.7989C267.486 30.7929 268.376 32.481 269.681 33.9242C270.903 35.2808 272.535 35.7602 274.351 35.597C274.595 35.5764 274.837 35.5421 275.1 35.5047C275.228 35.4865 275.361 35.4675 275.502 35.4491C275.953 37.4176 276.346 39.3658 276.485 41.3598C276.526 41.9481 276.583 42.5359 276.641 43.1237V43.1241V43.1245V43.1249C276.824 45.0079 277.008 46.8913 276.669 48.7954C276.367 50.4937 275.978 52.1256 274.914 53.5536C272.714 56.5013 273.794 59.6887 275.937 61.2747C277.636 62.5293 277.861 64.299 278.04 66.1349C278.393 69.8119 277.175 73.1421 275.523 76.3091L275.518 76.3295ZM15.1633 69.2101C14.4727 68.8888 13.7462 68.848 13.0147 69.0061C12.3087 69.1591 11.8483 69.7405 11.8431 70.378C11.8329 71.5867 12.9686 72.7086 14.2783 72.7035C14.316 72.6986 14.3627 72.6947 14.4151 72.6904L14.4156 72.6904L14.4159 72.6904C14.5268 72.6812 14.6632 72.67 14.795 72.6423C15.6749 72.4536 16.3093 71.7856 16.3655 71.0002C16.4218 70.2403 15.987 69.5926 15.1531 69.2101H15.1633ZM273.732 69.6181C272.387 69.1337 271.133 69.455 270.126 70.429C269.102 71.4184 269.036 72.6373 269.537 73.9224C269.583 74.0407 269.624 74.1599 269.666 74.2793L269.667 74.2812L269.667 74.2825C269.718 74.4298 269.77 74.5772 269.829 74.7231C270.32 75.9114 271.435 76.6049 272.724 76.5386C274.546 76.4468 275.937 74.9475 275.963 72.9738C275.963 72.9025 275.958 72.7393 275.937 72.5812C275.763 71.1787 275.088 70.1128 273.732 69.6233V69.6181ZM272.535 73.9479C272.336 73.9683 272.223 74.0805 272.136 74.2233C271.885 74.6262 271.548 74.8404 271.133 74.514C270.778 74.2375 271.057 73.915 271.239 73.7042L271.266 73.6725C271.684 73.1822 271.413 72.9097 271.125 72.6194C271.074 72.5685 271.023 72.5171 270.975 72.4639C270.958 72.4447 270.939 72.4251 270.919 72.4049L270.918 72.4039L270.918 72.4031C270.799 72.2794 270.661 72.1358 270.77 71.9437C270.924 71.6734 271.21 71.7091 271.415 71.8315C271.988 72.1783 272.448 72.2038 272.827 71.5612C272.955 71.3419 273.231 71.2909 273.487 71.3368C273.809 71.3929 274.121 71.6479 273.845 71.9029C272.821 72.8476 273.434 73.3874 274.062 73.9407C274.153 74.0206 274.244 74.1008 274.331 74.1825C274.363 74.2113 274.375 74.2622 274.393 74.3401C274.404 74.3864 274.417 74.4424 274.438 74.5089C273.749 74.7877 273.285 74.4655 272.838 74.1546C272.737 74.0845 272.637 74.0149 272.535 73.953V73.9479ZM7.30028 69.098C7.82721 69.149 8.34902 69.2306 8.79922 69.5366V69.5314C9.67914 70.123 9.64333 71.296 8.73271 71.8315C8.02673 72.2497 7.20819 72.1732 6.5943 71.6326C6.5557 71.5986 6.52617 71.5506 6.49677 71.5028C6.45992 71.4429 6.42326 71.3833 6.3692 71.3521C5.83204 71.0461 5.45858 70.6636 5.70926 69.9853C5.90878 69.4397 6.54314 69.0878 7.30028 69.098ZM260.058 41.5129C260.692 42.1555 260.825 43.0224 260.912 43.8843L260.907 43.8741C261.058 45.3555 261.102 46.843 261.146 48.3175L261.146 48.3197L261.146 48.322C261.172 49.1911 261.197 50.0557 261.244 50.9119C261.245 51.1099 261.245 51.3078 261.246 51.5055C261.253 54.6132 261.26 57.6883 260.697 60.7138C260.421 62.1979 260.457 63.6003 260.59 65.1099C260.927 68.9144 259.515 72.0202 256.139 74.1264C252.635 76.3143 248.88 77.2373 244.787 76.559C241.896 76.0797 239.323 74.922 237.272 72.7546C236.443 71.8774 235.896 70.8574 235.41 69.766C234.745 68.2718 234.678 66.7367 234.652 65.1354C234.545 58.2302 235.225 51.376 235.983 44.5269C236.079 43.6352 236.004 42.7683 235.929 41.9003L235.928 41.8993C235.896 41.5215 235.863 41.1435 235.844 40.7632C235.814 40.0696 235.804 39.376 235.885 38.6876C236.059 37.1678 236.975 36.5507 238.418 37.0046C238.938 37.1675 239.469 37.183 239.99 37.1983L239.993 37.1984C241.134 37.2262 242.272 37.2734 243.411 37.3207L243.411 37.3207C245.618 37.4123 247.824 37.5039 250.041 37.4534C252.64 37.3922 255.264 37.4942 257.817 38.2439C258.835 38.5448 259.341 39.1567 259.444 40.1257C259.5 40.6765 259.659 41.1049 260.058 41.5129ZM253.637 68.1953C253.929 68.2718 254.241 68.282 254.389 67.9709H254.394C254.66 67.415 254.87 66.8081 254.686 66.2012C254.583 65.8689 254.259 65.9246 253.979 65.9727C253.948 65.9782 253.917 65.9835 253.887 65.9882C253.864 65.9917 253.842 65.9948 253.821 65.9973C250.931 66.3288 248.035 66.2931 245.135 66.1809H243.175C242.817 66.1821 242.458 66.184 242.1 66.186C241.028 66.1917 239.958 66.1974 238.888 66.186C238.326 66.1808 238.198 66.4868 238.203 66.956C238.207 67.415 238.467 67.3869 238.747 67.3567C238.773 67.3539 238.799 67.3511 238.825 67.3487C238.846 67.3467 238.867 67.3449 238.888 67.3436C241.416 67.1957 243.953 67.2161 246.475 67.3691C246.623 67.3782 246.77 67.387 246.918 67.3957C247.071 67.4047 247.225 67.4135 247.379 67.4224C249.479 67.5434 251.584 67.6646 253.637 68.1953ZM255.469 61.5808C255.73 56.1188 255.991 50.662 256.441 45.2154L256.446 45.2256C256.468 44.9564 256.461 44.6872 256.453 44.418C256.45 44.32 256.447 44.222 256.446 44.124C256.441 43.7772 256.241 43.614 255.904 43.6038C255.494 43.5885 255.085 43.5834 254.676 43.5783C253.817 43.5628 252.958 43.5539 252.099 43.5449H252.098C249.564 43.5185 247.03 43.4921 244.5 43.2978C242.995 43.1785 241.49 43.0963 239.984 43.0142L239.984 43.0142L239.482 42.9867C238.286 42.9228 238.288 42.9816 238.324 43.7572C238.326 43.8098 238.329 43.8657 238.331 43.9251C238.333 43.9675 238.335 44.0117 238.336 44.0577C238.387 45.9038 238.452 47.7521 238.517 49.5997L238.517 49.6012L238.517 49.6089L238.517 49.6199C238.549 50.5371 238.582 51.454 238.612 52.3705C238.72 55.2672 238.786 58.1588 238.52 61.0504C238.443 61.8613 238.494 61.8766 239.282 61.8613C239.732 61.8511 240.181 61.8332 240.63 61.8154C241.079 61.7975 241.528 61.7797 241.978 61.7695C246.27 61.6573 250.558 61.7338 254.824 62.3101C255.44 62.3938 255.452 62.0616 255.464 61.689L255.465 61.6866C255.466 61.6516 255.467 61.6162 255.469 61.5808ZM241.6 40.549C246.25 40.6153 250.88 41.0437 255.51 41.4823L255.515 41.4772C256.835 41.6047 257.259 41.1355 257.136 39.6973C257.014 39.5801 256.862 39.6008 256.715 39.6208L256.676 39.6259C254.149 39.9931 251.622 39.8197 249.11 39.5596C246.914 39.3321 244.711 39.2747 242.507 39.2173L242.506 39.2172C241.45 39.1897 240.394 39.1622 239.339 39.1159C239.052 39.1057 238.766 39.1261 238.484 39.1669C238.126 39.223 238.07 39.4984 238.06 39.8044C238.049 40.1512 238.193 40.3246 238.551 40.345C238.925 40.3676 239.301 40.3994 239.677 40.4311C240.317 40.4852 240.958 40.5394 241.6 40.549ZM212.281 69.5059C210.347 69.4702 208.618 71.1787 208.582 73.1574C208.546 75.1209 210.153 76.8089 212.081 76.8242C214.025 76.8446 215.749 75.0597 215.765 73.0095C215.78 71.0512 214.281 69.5416 212.281 69.5059ZM214.077 74.0652C213.954 74.2947 213.749 74.259 213.55 74.2182L213.517 74.2123C213.445 74.1996 213.372 74.1866 213.314 74.1468C212.9 73.8765 212.532 73.7541 212.194 74.2794C212.061 74.4834 211.795 74.5395 211.529 74.4681C211.217 74.3814 210.93 74.1621 211.135 73.8714C211.78 72.9636 211.181 72.4282 210.48 71.8519C210.833 71.6275 211.069 71.6071 211.227 71.7142C211.795 72.0865 212.225 72.0865 212.624 71.449C212.844 71.0971 213.258 71.0869 213.606 71.3215C213.969 71.5663 213.841 71.9182 213.657 72.1834C213.253 72.7749 213.161 73.2696 213.892 73.6725C214.005 73.7337 214.184 73.8561 214.082 74.0652H214.077ZM243.447 48.9637C243.897 46.7402 244.91 45.7967 247.017 45.6539V45.6488C249.427 45.4907 250.911 46.9799 251.361 48.6475C251.592 49.499 251.613 50.3678 251.632 51.217C251.637 51.4002 251.641 51.5825 251.647 51.7635C251.577 52.1797 251.564 52.5921 251.552 53.0006C251.535 53.5383 251.519 54.0694 251.371 54.5939C250.849 56.4605 249.258 57.6997 247.417 57.6182C245.59 57.5417 243.738 56.078 243.503 54.3134C243.268 52.5489 243.083 50.764 243.447 48.9637ZM248.179 54.7418C248.363 54.8846 248.598 55.058 248.828 54.8591L248.818 54.8642C249.089 54.6347 248.875 54.4103 248.706 54.2573C248.495 54.0672 248.263 53.9016 248.095 53.7822C248.047 53.7479 248.004 53.7174 247.969 53.6913C247.999 53.3578 248.136 53.1264 248.263 52.9116C248.397 52.6862 248.52 52.4792 248.496 52.1919C248.191 52.2094 248.034 52.4059 247.89 52.586C247.783 52.7203 247.683 52.8455 247.534 52.8804C247.338 52.9255 247.178 52.8117 247.012 52.6939C246.84 52.5721 246.663 52.4462 246.434 52.4877C246.396 52.494 246.365 52.5292 246.307 52.5923C246.272 52.6317 246.226 52.6819 246.163 52.7427C247.253 53.1037 246.933 53.6872 246.617 54.2624C246.536 54.4105 246.455 54.558 246.398 54.701C246.786 54.7983 246.959 54.5771 247.115 54.3789C247.229 54.2341 247.333 54.1016 247.503 54.1146C247.746 54.195 247.861 54.3548 247.971 54.5053C248.034 54.5932 248.096 54.6779 248.179 54.7418ZM246.69 47.8876C245.861 48.0151 245.508 48.6526 245.636 49.8358C246.617 49.4141 247.6 49.5802 248.636 49.7551C248.941 49.8065 249.25 49.8587 249.565 49.897C249.207 48.2446 248.286 47.6428 246.69 47.8876Z" fill="#0D070B"/>
</g>
<defs>
<clipPath id="clip0_6_1295">
<rect width="286" height="95" fill="white"/>
</clipPath>
</defs>
</svg>
