<svg width="166" height="76" viewBox="0 0 166 76" fill="none" xmlns="http://www.w3.org/2000/svg">
<g clip-path="url(#clip0_6_1290)">
<path fill-rule="evenodd" clip-rule="evenodd" d="M136.936 33.9292C128.066 33.8286 120.015 33.3029 112.087 31.7317C106.857 30.6973 101.723 29.1708 96.8387 26.9454C95.1271 26.1682 93.5047 25.2456 92.1611 23.898C91.6091 23.3444 91.0962 22.7853 91.4363 21.913C91.5602 21.6046 91.3894 21.4098 91.2225 21.2196C91.1866 21.1788 91.151 21.1381 91.1185 21.0966C90.4439 20.2244 90.1484 19.2626 90.0815 18.1387C89.97 16.2991 90.0425 14.4763 90.2822 12.659C90.6223 10.0254 91.8544 7.96775 94.0009 6.27352C97.5356 3.48335 101.661 2.34267 105.904 1.50954C114.451 -0.16792 123.065 -0.408356 131.717 0.592527C137.75 1.28588 143.687 2.41536 149.435 4.42831C152.48 5.49629 155.345 6.92213 157.837 9.00777C159.627 10.5063 160.982 12.29 161.333 14.6832C161.517 15.9301 161.439 17.1882 161.3 18.4239C161.199 19.2682 161.439 19.7323 162.147 20.1405C162.961 20.6046 163.636 21.2756 164.176 22.0528C165.42 23.8365 165.381 25.7935 164.037 27.5045C163.167 28.6172 162.019 29.3777 160.77 29.9984C158.523 31.1167 156.126 31.7821 153.684 32.3188C147.908 33.5881 142.043 33.918 136.941 33.9292H136.936ZM99.7936 4.47305C98.1433 4.99865 96.6101 5.74232 95.233 6.79912C94.3243 7.39741 93.7054 8.2641 93.1256 9.14756C92.1499 10.6293 92.1834 12.1558 93.0643 13.6711C93.6051 14.6049 94.3243 15.3989 95.155 16.0643C98.3161 18.5916 101.946 20.1796 105.793 21.3091C105.853 21.338 105.913 21.3688 105.973 21.3996L105.973 21.3997C106.11 21.4703 106.245 21.5403 106.389 21.5831C110.598 22.8412 114.902 23.6688 119.251 24.2279C124.999 24.9716 130.775 25.1114 136.557 24.7703L136.88 24.7508C138.986 24.6241 141.1 24.4971 143.163 23.9651L143.509 23.926C143.888 24.0042 144.223 23.8756 144.552 23.7135C147.557 23.255 150.461 22.4162 153.266 21.2476C154.793 20.6102 156.248 19.833 157.503 18.737C157.543 18.7025 157.588 18.6702 157.634 18.6374C157.826 18.5003 158.032 18.3533 157.915 17.9878C157.33 17.9934 156.834 18.1276 156.332 18.4966C155.674 18.9775 154.949 19.3856 154.202 19.7211C151.649 20.8674 149.079 21.9969 146.347 22.6791C145.807 22.8131 145.268 22.9485 144.729 23.0839L144.727 23.0844C144.188 23.22 143.648 23.3556 143.108 23.4898C142.812 23.4283 142.533 23.4451 142.305 23.6743L141.814 23.7526C135.704 24.5802 129.582 24.8653 123.427 24.3509L122.58 24.3118C121.473 24.0957 120.353 23.9938 119.235 23.892C118.675 23.841 118.115 23.79 117.556 23.7247C115.588 23.4954 113.637 23.2158 111.697 22.7629C110.632 22.5141 109.604 22.1636 108.578 21.8137L108.578 21.8137C107.852 21.566 107.126 21.3187 106.389 21.1078C105.968 20.9214 105.548 20.7329 105.129 20.5443L105.127 20.5438C104.163 20.1106 103.198 19.6772 102.219 19.2682C100.028 18.3512 98.0653 17.054 96.1864 15.6281C95.339 14.9795 94.564 14.247 93.8894 13.4083C93.1758 12.5248 93.0364 11.5911 93.3598 10.5343C93.5716 9.84091 93.9173 9.23143 94.3856 8.68346C94.6623 8.35915 94.9274 8.0209 95.1928 7.68218L95.1929 7.682C95.3393 7.4952 95.4858 7.30825 95.6345 7.12343C96.5711 6.37976 97.6137 5.83738 98.7231 5.39565C98.9028 5.32496 99.0881 5.26824 99.2733 5.21154C99.6742 5.08882 100.075 4.96619 100.418 4.7023C102.598 4.1096 104.778 3.51689 107.014 3.15345C108.073 2.982 109.116 2.73131 110.158 2.48062C111.53 2.15081 112.902 1.821 114.312 1.67169C117.685 1.34612 121.07 1.3415 124.449 1.33689L124.932 1.3362C122.607 1.05662 120.271 1.10136 117.941 1.15168C117.589 1.1591 117.237 1.15968 116.885 1.16026C115.646 1.1623 114.405 1.16435 113.185 1.4648C108.575 1.82825 104.081 2.69494 99.788 4.46745L99.7936 4.47305ZM132.175 23.4227C132.448 23.4523 132.723 23.4964 132.998 23.5404C133.607 23.6383 134.216 23.736 134.812 23.6743C138.129 23.3389 141.446 22.9866 144.724 22.2876C147.306 21.7341 149.82 21.0575 152.229 19.9616C152.658 19.7643 153.073 19.5422 153.489 19.3197C154.039 19.0251 154.59 18.7299 155.178 18.491C156.906 17.7809 157.581 15.9692 157.308 14.0513C157.057 12.2788 156.115 11.0039 154.665 10.0646C153.957 9.60606 153.215 9.18111 152.452 8.82884C148.114 6.83826 143.665 5.0993 138.971 4.19347C135.046 3.43861 131.087 2.73408 127.051 2.75645C125.795 2.76341 124.538 2.728 123.282 2.69258C121.51 2.64265 119.738 2.5927 117.963 2.66139C113.709 2.82355 109.561 3.62313 105.436 4.57928C103.178 5.10489 100.937 5.64727 98.7733 6.50836C97.0338 7.19612 95.7961 8.43744 94.7536 9.9136C93.973 11.0207 94.0344 11.9265 94.8762 12.9666C95.6345 13.9115 96.5376 14.7055 97.5468 15.3821C101.539 18.0716 105.91 19.956 110.504 21.2756C115.545 22.7193 120.758 23.0702 125.961 23.4204L126.493 23.4563C126.508 23.4571 126.524 23.4591 126.542 23.4612C126.644 23.4736 126.782 23.4902 126.778 23.2941C126.552 23.0677 126.332 22.8346 126.111 22.6015C125.222 21.6604 124.331 20.7185 123.076 20.2076C122.842 20.1125 122.619 19.9112 122.457 19.7044C121.944 19.0557 121.23 18.8544 120.467 18.7314C119.845 18.6292 119.228 18.6711 118.608 18.7131L118.456 18.7234L118.331 18.7314C117.071 18.8097 115.828 18.7818 114.791 17.8871C114.577 17.6989 114.309 17.6203 114.039 17.5414C113.964 17.5195 113.889 17.4976 113.815 17.4733C113.392 17.3378 112.969 17.198 112.547 17.0582C111.28 16.6388 110.013 16.2194 108.708 15.9133C107.961 15.74 107.281 15.3989 106.735 14.8453C105.854 13.9563 105.865 13.0337 106.791 12.1726C107.009 11.9727 107.247 11.7932 107.483 11.6151L107.483 11.6151L107.484 11.615L107.484 11.615C107.598 11.5291 107.711 11.4435 107.822 11.3562C107.092 10.1093 107.164 9.83532 108.301 9.09724C109.328 8.42584 110.461 8.00357 111.592 7.58196L111.593 7.58153C111.752 7.52224 111.912 7.46296 112.07 7.403C112.834 7.11784 113.537 6.78794 114.111 6.18405C114.702 5.55221 115.471 5.19994 116.285 4.92037C117.612 4.47305 118.978 4.3053 120.366 4.35003C121.576 4.38917 122.775 4.28293 123.957 4.04809C125.953 3.6455 127.937 3.62872 129.911 4.17669C130.232 4.2648 130.555 4.3451 130.878 4.42545C131.376 4.54907 131.874 4.67281 132.364 4.82531C133.83 5.28941 135.28 5.47393 136.83 5.19435C138.82 4.83649 140.515 5.63608 141.898 7.03956C142.706 7.86151 143.28 8.86239 142.862 10.0646C142.45 11.2444 141.368 11.4904 140.281 11.6526C139.918 11.7055 139.557 11.7579 139.195 11.8102L139.194 11.8104C138.41 11.9239 137.627 12.0372 136.841 12.1558C136.778 12.165 136.711 12.1715 136.644 12.178C136.301 12.2114 135.934 12.247 135.86 12.6534C135.791 13.0415 136.106 13.2349 136.397 13.4133L136.397 13.4135L136.397 13.4136L136.399 13.4144C136.459 13.4516 136.519 13.4882 136.573 13.5257C137.499 14.1576 138.491 14.6832 139.545 15.041C140.999 15.5339 142.461 16.0035 143.924 16.4732C144.834 16.7655 145.745 17.0578 146.653 17.3559C146.764 17.3928 146.889 17.4139 147.016 17.4352C147.39 17.4978 147.776 17.5625 147.83 18.0381C147.891 18.5626 147.492 18.7675 147.107 18.9649C147.004 19.0179 146.902 19.0704 146.81 19.1284C146.664 19.2197 146.499 19.28 146.334 19.3404C146.247 19.3725 146.159 19.4047 146.074 19.4416C145.77 19.5713 145.464 19.6974 145.158 19.8234C144.476 20.1048 143.792 20.3865 143.13 20.7108C141.775 21.3706 140.348 21.8012 138.898 22.1702C136.702 22.735 134.46 23.0872 132.175 23.4171V23.4227ZM146.138 18.3164C146.24 18.3488 146.342 18.3814 146.445 18.412C146.431 18.4378 146.421 18.4621 146.412 18.483L146.412 18.4833C146.397 18.5195 146.386 18.5456 146.369 18.5525C145.677 18.8368 144.995 19.1514 144.314 19.466L144.314 19.4661C142.423 20.3393 140.53 21.2131 138.391 21.4433C137.858 21.5 137.325 21.5604 136.793 21.6208C134.545 21.8758 132.302 22.1303 130.011 22.1031C128.027 22.0808 126.661 21.2308 125.395 19.956C124.542 19.0949 123.617 18.3456 122.507 17.8312C121.565 17.3951 120.623 17.0819 119.547 17.2329C118.971 17.3128 118.398 17.2135 117.824 17.1142C117.514 17.0605 117.204 17.0068 116.893 16.9813C116.731 16.9701 116.514 16.8974 116.425 16.7744C115.606 15.6638 114.441 15.0745 113.277 14.4854C112.823 14.2559 112.369 14.0264 111.936 13.7662C111.664 13.6012 111.376 13.4623 111.091 13.3244C110.98 13.2707 110.87 13.2172 110.76 13.1623C111.24 11.4345 111.156 11.1885 109.734 10.0813C109.726 9.7841 109.933 9.74389 110.122 9.70725C110.186 9.69495 110.247 9.68305 110.297 9.66198C112.026 8.93508 113.709 8.16904 115.047 6.75998C115.941 5.8148 117.238 5.67971 118.451 5.55326L118.515 5.54662L118.863 5.50978L118.863 5.50977C120.96 5.2875 123.058 5.06525 125.15 4.75262C126.571 4.54014 127.993 4.71348 129.387 5.08252C130.502 5.37328 131.628 5.66404 132.754 5.92125C133.708 6.13932 134.667 6.30707 135.665 6.13373C137.755 5.77587 139.289 6.78794 140.51 8.3312C141.268 9.28735 141.039 9.80177 139.857 10.1149C139.195 10.2913 138.525 10.4426 137.854 10.594L137.853 10.5941C137.525 10.6682 137.197 10.7423 136.869 10.8194C136.796 10.8362 136.723 10.8517 136.65 10.8673C136.504 10.8983 136.358 10.9294 136.217 10.9704C135.458 11.1941 134.795 11.5407 134.622 12.4074C134.438 13.3077 135.007 13.8333 135.642 14.2806C136.813 15.1081 138.107 15.712 139.439 16.2264C141.429 16.9981 143.47 17.6411 145.55 18.1443C145.747 18.192 145.942 18.2541 146.138 18.3164ZM117.925 26.1273C118.205 26.187 118.547 26.2599 118.966 26.3348C118.926 26.652 118.883 26.9692 118.84 27.2863C118.755 27.9238 118.669 28.5613 118.599 29.1988C118.565 29.5343 118.398 29.6852 118.103 29.6852C117.899 29.6885 117.696 29.6711 117.493 29.6537L117.492 29.6537C117.345 29.6411 117.197 29.6284 117.049 29.6237C116.609 29.6069 116.413 29.3945 116.452 28.9527C116.466 28.799 116.473 28.6438 116.48 28.4886L116.48 28.4881C116.487 28.3331 116.494 28.1781 116.508 28.0245C116.541 27.6812 116.562 27.391 116.579 27.1471L116.579 27.1467C116.624 26.5022 116.647 26.1805 116.816 26.0535C116.984 25.9269 117.298 25.9938 117.925 26.1273ZM97.6861 24.0881C97.7129 23.8355 97.7415 23.598 97.769 23.3701L97.7691 23.3698C97.8219 22.932 97.8704 22.53 97.8924 22.1255C97.9028 21.9179 97.983 21.7057 98.0619 21.4972C98.1955 21.144 98.3251 20.8013 98.1043 20.5095C97.8754 20.2034 97.4874 20.0192 97.1007 19.8356C96.9506 19.7643 96.8006 19.6931 96.6603 19.6149C96.5931 19.5774 96.5058 19.5751 96.4119 19.5726C96.3657 19.5714 96.3179 19.5701 96.27 19.5646C96.1754 20.1563 96.0808 20.7201 95.9862 21.2839L95.9857 21.2868C95.7887 22.4759 96.2087 23.3631 97.2457 23.9483C97.3171 23.9898 97.4038 24.0109 97.5125 24.0375L97.5126 24.0375L97.5126 24.0375C97.5356 24.0431 97.5596 24.0489 97.5846 24.0553C97.6167 24.0634 97.6505 24.0723 97.6861 24.0825V24.0881ZM104.81 23.3217L104.797 23.3322C104.769 23.3564 104.743 23.3784 104.739 23.4059C104.683 23.7361 104.629 24.0662 104.574 24.3964C104.52 24.726 104.466 25.0557 104.41 25.3853C104.224 26.5037 104.679 27.1951 105.776 27.4598C105.853 27.4782 105.937 27.4579 106.03 27.4355C106.078 27.4238 106.129 27.4115 106.183 27.4039C106.121 26.403 106.144 25.4133 106.289 24.446C106.384 23.8141 106.188 23.5122 105.575 23.4451C105.48 23.4347 105.391 23.3941 105.302 23.3539C105.153 23.2859 105.005 23.2189 104.834 23.2997C104.829 23.3045 104.824 23.3091 104.819 23.3136L104.81 23.3217ZM115.222 28.5624V28.5629C115.227 28.7804 115.231 29.0075 115.231 29.2482C114.914 29.1983 114.644 29.1646 114.416 29.136C113.847 29.0646 113.537 29.0258 113.387 28.8506C113.209 28.642 113.256 28.2398 113.36 27.3589L113.36 27.3583L113.36 27.3548L113.361 27.3499C113.372 27.2527 113.385 27.1496 113.397 27.0404C113.435 26.6914 113.492 26.3448 113.549 25.9991L113.55 25.9987L113.55 25.9982L113.55 25.9978C113.578 25.8289 113.606 25.6603 113.631 25.4916C115.377 25.6799 115.377 25.6817 115.246 27.2203L115.243 27.2641C115.205 27.678 115.213 28.0971 115.222 28.5599L115.222 28.5624ZM99.4591 21.1917C99.3308 22.0808 99.2082 22.9195 99.0855 23.7526C98.974 24.528 99.2714 25.0759 99.9776 25.3965L100.006 25.4101L100.028 25.4206L100.028 25.4208C100.212 25.5096 100.395 25.5987 100.635 25.486C100.654 25.2143 100.661 24.9386 100.669 24.6617C100.686 24.0099 100.704 23.3517 100.864 22.7238C101.07 21.8962 100.803 21.5663 100.1 21.3706C99.9914 21.3411 99.8842 21.3101 99.7744 21.2783C99.676 21.2498 99.5756 21.2208 99.4702 21.1917H99.4591ZM120.773 29.2644C121.602 29.1591 121.956 29.1142 122.123 28.9137C122.248 28.7643 122.269 28.5286 122.306 28.1173L122.306 28.1169L122.306 28.1149C122.321 27.9588 122.337 27.7775 122.362 27.566C122.479 26.6099 122.368 26.5428 121.386 26.4701C120.94 26.4366 120.595 26.4645 120.539 27.0237C120.509 27.3274 120.437 27.6246 120.363 27.9291L120.363 27.9291C120.256 28.37 120.144 28.8259 120.154 29.3386L120.16 29.3441C120.389 29.3132 120.592 29.2873 120.773 29.2644ZM111.529 28.4048C111.548 28.152 111.566 27.8942 111.584 27.633C111.618 27.1199 111.654 26.5937 111.702 26.0675L111.705 26.0384C111.797 25.0331 111.797 25.0318 110.654 24.8989C110.601 25.1727 110.555 25.4488 110.508 25.7252C110.408 26.3179 110.309 26.9119 110.141 27.4878C109.941 28.1867 110.253 28.36 110.816 28.4383C110.85 28.4435 110.883 28.4498 110.917 28.4562L110.917 28.4562C111.101 28.4905 111.289 28.5258 111.529 28.3936V28.4048ZM93.7553 18.6065C93.7983 18.3189 93.8415 18.0297 93.8828 17.7379C94.8046 18.1012 95.0766 18.5875 94.8762 19.4583C94.7491 20.0145 94.7285 20.5973 94.7076 21.1847V21.1848V21.185V21.1851V21.1852V21.1854V21.1855V21.1856V21.1858V21.1859C94.6983 21.4485 94.6889 21.7121 94.6699 21.9745C93.4099 21.4769 93.3876 21.4545 93.5214 20.2859C93.5877 19.7282 93.671 19.1706 93.7553 18.6065ZM102.185 22.3827C102.131 22.7753 102.076 23.1539 102.023 23.5246C101.945 24.0621 101.87 24.583 101.801 25.1058C101.65 26.2176 101.656 26.2185 102.991 26.4249L102.994 26.4254C103.016 26.158 103.037 25.8901 103.058 25.6221V25.622V25.6219V25.6219C103.109 24.9595 103.16 24.2959 103.239 23.6352L103.247 23.5728C103.351 22.6959 103.351 22.6942 102.185 22.3827ZM146.793 27.188C146.801 27.043 146.809 26.9137 146.817 26.7954C146.833 26.5228 146.846 26.3077 146.854 26.0899C146.865 25.7488 146.754 25.4469 146.386 25.4021C145.99 25.3518 145.834 25.6817 145.8 25.9892C145.7 26.9118 145.65 27.8456 145.89 28.757C145.979 29.0925 146.213 29.3218 146.564 29.2267C146.826 29.154 146.971 28.908 146.938 28.6005C146.882 28.0759 146.826 27.5513 146.793 27.188ZM146.793 27.188L146.793 27.1914V27.1858L146.793 27.188ZM154.537 24.6529C154.552 24.5638 154.565 24.4742 154.579 24.3845C154.612 24.17 154.646 23.9543 154.693 23.7414C154.76 23.4283 154.637 23.1935 154.353 23.1208C154.018 23.0369 153.734 23.1711 153.639 23.5346C153.388 24.4907 153.372 25.4636 153.6 26.4254C153.678 26.7441 153.862 27.0125 154.247 26.951C154.637 26.8895 154.693 26.5931 154.66 26.252C154.629 25.9287 154.604 25.6032 154.579 25.2756L154.579 25.2751L154.579 25.2746L154.579 25.274L154.579 25.2734L154.579 25.2729C154.564 25.0689 154.548 24.8641 154.531 24.6584L154.537 24.6529ZM107.46 27.1746C107.409 27.8456 107.46 27.9127 107.989 28.0134C108.563 28.1196 108.653 27.8233 108.664 27.3424C108.681 26.5428 108.753 25.7432 108.965 24.966C109.088 24.5131 108.909 24.3453 108.469 24.2503C107.95 24.1328 107.867 24.4124 107.811 24.8038C107.699 25.5922 107.577 26.3862 107.454 27.1746H107.46ZM137.895 29.0869H137.934V30.0263C137.934 30.3618 138.034 30.6693 138.43 30.6693C138.82 30.6693 138.954 30.3618 138.976 30.0375C139.043 29.154 139.088 28.265 139.132 27.3759C139.149 27.0237 139.021 26.7441 138.636 26.7273C138.33 26.7161 138.157 26.951 138.118 27.2361C138.055 27.6713 138.005 28.1093 137.956 28.5462C137.936 28.7267 137.916 28.9071 137.895 29.0869ZM91.9436 15.6729C91.9267 15.9563 91.9104 16.2357 91.8943 16.5121L91.8942 16.513C91.8413 17.4194 91.7903 18.2923 91.7262 19.162C91.676 19.8441 92.0273 20.1685 92.635 20.3865C92.6558 20.1129 92.6637 19.8437 92.6714 19.58V19.5799V19.5799V19.5798V19.5797V19.5797V19.5796V19.5796V19.5795V19.5794C92.6883 18.9972 92.7045 18.4418 92.858 17.9263C93.1646 16.8862 92.8022 16.26 91.9436 15.6729ZM135.648 29.1596H135.609L135.602 29.0231L135.593 28.8204L135.592 28.8193C135.577 28.4891 135.561 28.1574 135.536 27.8288C135.514 27.5325 135.352 27.3032 135.057 27.2921C134.767 27.2809 134.544 27.5045 134.511 27.7785C134.405 28.6228 134.538 29.456 134.672 30.2835C134.711 30.5128 134.895 30.6693 135.152 30.647C135.403 30.6246 135.548 30.4289 135.581 30.2108C135.619 29.9506 135.628 29.6871 135.638 29.4229C135.641 29.3352 135.644 29.2474 135.648 29.1596ZM157.503 22.433H157.458C157.436 22.6567 157.414 22.8748 157.386 23.0984C157.38 23.1478 157.373 23.1989 157.365 23.2506C157.318 23.5616 157.268 23.8932 157.665 23.9986C158.183 24.1384 158.395 23.6967 158.44 23.2997C158.508 22.6441 158.516 21.9843 158.525 21.3239V21.3237V21.3234V21.3232C158.526 21.229 158.527 21.1349 158.529 21.0407C158.529 20.7556 158.389 20.5207 158.06 20.5095C157.748 20.4984 157.536 20.6885 157.514 20.9736C157.486 21.3171 157.492 21.6605 157.498 22.0039C157.5 22.1469 157.503 22.29 157.503 22.433ZM149.408 26.4254H149.452C149.443 26.531 149.432 26.6366 149.42 26.7421C149.398 26.9491 149.376 27.1554 149.369 27.3592C149.357 27.6723 149.357 28.019 149.798 28.0413C150.188 28.0637 150.361 27.7785 150.417 27.4654C150.556 26.677 150.595 25.8718 150.545 25.0722C150.528 24.7982 150.45 24.5298 150.105 24.5075C149.787 24.4907 149.597 24.6752 149.553 24.966C149.505 25.2843 149.476 25.6076 149.448 25.9293C149.433 26.0935 149.419 26.2573 149.402 26.4198L149.408 26.4254ZM141.831 28.3489H141.853C141.853 28.4512 141.852 28.5541 141.851 28.6572V28.6575V28.6579V28.6582V28.6585V28.6589V28.6592V28.6595V28.6599V28.6602C141.848 28.8661 141.846 29.0728 141.853 29.2771C141.864 29.5902 141.898 29.9145 142.338 29.9089C142.74 29.9089 142.885 29.5902 142.901 29.2938C142.941 28.7053 142.942 28.1167 142.944 27.5282C142.944 27.3675 142.945 27.2067 142.946 27.046C142.946 26.7553 142.801 26.5092 142.511 26.4757C142.138 26.431 141.948 26.6994 141.909 27.0293C141.872 27.3468 141.859 27.6673 141.847 27.9887L141.847 27.99C141.842 28.1095 141.837 28.2292 141.831 28.3489ZM124.046 28.6788C125.109 28.5296 125.666 27.9407 125.718 26.9118L125.66 26.8965C124.313 26.5421 124.282 26.5341 124.046 28.6788ZM158.579 12.1614C159.046 13.3624 159.083 14.6057 159.121 15.8435C159.128 16.0983 159.136 16.3528 159.148 16.6067C160.034 14.9739 159.711 13.5034 158.579 12.1614ZM128.439 26.923C128.375 26.923 128.312 26.9237 128.251 26.9243C128.132 26.9255 128.018 26.9267 127.904 26.923C127.302 26.9007 127.296 27.3871 127.319 27.7394C127.344 28.1032 127.592 28.0509 127.827 28.0014C127.899 27.9862 127.969 27.9713 128.032 27.9686C128.16 27.9645 128.284 27.9268 128.408 27.8894C128.452 27.8761 128.496 27.8629 128.54 27.8512C128.617 27.8289 128.705 27.8154 128.793 27.8018C129.105 27.7537 129.428 27.7039 129.376 27.2641C129.328 26.8704 129.068 26.901 128.809 26.9316C128.678 26.947 128.548 26.9624 128.445 26.923H128.439ZM130.993 26.9957L131.015 27.32L132.453 27.1131C131.952 26.9174 131.467 26.8112 130.993 26.9957ZM71.0088 76.0166C63.7275 75.9998 56.4908 75.519 49.3657 73.8807C46.0596 73.1202 42.8259 72.1361 39.7707 70.632C38.165 69.8436 36.6541 68.8986 35.383 67.6126C34.2902 66.5054 33.4707 65.2362 33.3647 63.6426C33.3282 63.1445 33.0562 62.8971 32.7559 62.6239L32.6957 62.569C32.3454 62.2468 31.9903 61.9305 31.6353 61.6143C30.5609 60.6574 29.4878 59.7016 28.5533 58.5878C27.3045 57.1005 26.4905 55.4566 26.3734 53.5219C26.3344 52.8677 26.0891 52.577 25.4758 52.4372C23.8088 52.0681 22.2868 51.3244 20.8093 50.4801C17.9827 48.8698 15.1672 47.2314 12.5412 45.3024C12.2877 45.1157 12.0286 44.9332 11.769 44.7503L11.769 44.7503L11.7688 44.7501C10.3957 43.7829 9.00618 42.8042 8.32636 41.1255C8.28063 41.0155 8.13367 40.9355 8.00231 40.864C7.9735 40.8483 7.94544 40.8331 7.91936 40.818C7.78289 40.7369 7.63268 40.6695 7.48533 40.6035L7.4853 40.6035L7.43989 40.5831C3.21386 38.7379 1.21793 35.3159 0.604654 30.9098L0.589178 30.7967C0.52782 30.3473 0.466063 29.8949 0.342618 29.4616C-0.242782 27.4542 0.264564 25.6649 1.39634 24.0043C2.72324 22.0528 4.50174 20.5711 6.45308 19.285C9.89857 17.0093 13.6563 15.3877 17.5645 14.1073C23.636 12.1167 29.8691 10.8586 36.197 10.0199C42.2294 9.22027 48.2841 8.99661 54.3444 9.31533C60.6054 9.64523 66.727 10.7188 72.5308 13.2518C74.694 14.1967 76.6063 15.4325 77.9889 17.4007C78.0268 17.455 78.0654 17.5086 78.1038 17.562C78.2749 17.7998 78.4432 18.0336 78.5297 18.3121C78.7048 18.8653 78.9019 19.4117 79.099 19.958C79.5671 21.256 80.0352 22.5537 80.2079 23.9428C80.3335 24.9617 80.3735 24.9662 81.3345 25.0764L81.3954 25.0834C88.7938 25.9445 95.9245 27.7897 102.676 30.9657C105.637 32.358 108.396 34.0746 110.816 36.2888C113.336 38.5981 115.22 41.31 116.023 44.6929C116.313 45.9174 116.402 47.1476 116.335 48.4113C116.297 49.141 116.309 49.8735 116.322 50.6065C116.34 51.6597 116.359 52.7139 116.224 53.7624C116.157 54.2656 116.464 54.4893 116.798 54.7185C117.501 55.205 118.119 55.7753 118.649 56.4519C120.316 58.5767 120.422 60.8804 118.961 63.1561C118.025 64.6099 116.754 65.717 115.343 66.6844C112.823 68.4121 110.058 69.6311 107.192 70.6376C100.898 72.8406 94.4136 74.1826 87.8069 74.971C82.2261 75.6364 76.6286 76.0446 71.0032 76.0166H71.0088ZM49.2932 63.0219C48.4123 62.6808 47.5259 62.3677 46.6004 62.1608C46.4566 62.1002 46.3134 62.0387 46.1702 61.9771L46.17 61.977C45.8245 61.8285 45.4793 61.6802 45.1285 61.5458C41.9227 60.31 38.8341 58.8339 36.1133 56.6979C33.2142 54.4222 30.8503 51.7606 30.159 47.9695C30.0754 47.4943 29.8356 47.2706 29.4063 47.1867C29.3017 47.1676 29.198 47.1327 29.0931 47.0974L29.0931 47.0974L29.093 47.0974L29.093 47.0974L29.0929 47.0974L29.0929 47.0974C28.829 47.0085 28.5578 46.9173 28.2467 47.0693C28.6704 49.6246 29.8356 51.7941 31.5026 53.7064C35.4666 58.2579 40.6181 60.8412 46.2603 62.6081C46.9321 62.9762 47.6663 63.1616 48.4005 63.347L48.574 63.391C49.6615 63.8336 50.7938 64.117 51.9255 64.4003L51.9257 64.4004C52.5808 64.5643 53.2357 64.7283 53.8816 64.923C53.9993 64.9433 54.1174 64.962 54.2357 64.9807L54.2357 64.9807C54.5096 65.024 54.7837 65.0674 55.0524 65.1299C57.9237 65.7562 60.8172 66.2203 63.7386 66.539L63.8137 66.5538L63.8683 66.5648C63.9979 66.5911 64.1275 66.6173 64.2571 66.634C69.4365 67.1988 74.6271 67.0981 79.812 66.8353C79.9308 66.8293 80.0496 66.8235 80.1685 66.8176L80.1761 66.8172C81.6013 66.7471 83.0365 66.6764 84.4339 66.3209L84.4349 66.3208C84.6799 66.3041 84.9248 66.2873 85.1643 66.265C85.4653 66.3433 85.7441 66.2818 86.0061 66.114C87.517 65.9854 89.0112 65.745 90.4607 65.2809C90.7734 65.3388 91.0694 65.2635 91.3668 65.1879C91.4141 65.1758 91.4614 65.1638 91.5089 65.1523C95.1551 64.2856 98.6786 63.0666 102.085 61.5178C104.767 60.2988 107.309 58.8283 109.584 56.9327C111.557 55.2832 113.202 53.3654 114.189 50.9554C115.075 48.7915 115.304 46.5717 114.529 44.3127C114.3 43.1161 113.754 42.0705 112.985 41.1367C111.758 39.1741 110.169 37.5637 108.24 36.2888C105.999 34.2759 103.379 32.9004 100.641 31.7206C100.571 31.6815 100.503 31.6402 100.434 31.5989C100.315 31.5277 100.196 31.4564 100.072 31.3963C94.2352 28.7067 88.0132 27.4151 81.7188 26.4086C81.5432 26.3807 81.3676 26.3541 81.192 26.3276C81.0163 26.301 80.8407 26.2744 80.6651 26.2465C80.219 26.1738 80.1577 26.4701 80.1131 26.8056C80.0685 27.1635 80.2636 27.2753 80.5703 27.2977C80.6784 27.3067 80.7855 27.3176 80.8925 27.3284C81.0505 27.3444 81.208 27.3604 81.3675 27.3704C85.0695 27.5996 88.6823 28.3657 92.256 29.3162C94.9203 30.0255 97.4876 31.0159 100.053 32.0057L100.184 32.0561C102.793 33.3253 105.269 34.8127 107.566 36.5908C109.171 38.2235 110.688 39.9289 111.747 41.9922C112.182 43.1105 112.472 44.2624 112.728 45.431C112.823 48.6573 111.758 51.4475 109.656 53.8742C108.658 55.026 107.554 56.0493 106.333 56.9551C104.505 58.3083 102.548 59.4433 100.502 60.4386C97.8145 61.7415 94.9711 62.6249 92.1277 63.5028C91.0144 63.754 89.8996 64.0039 88.7849 64.2537L88.7807 64.2546C87.664 64.5049 86.5472 64.7552 85.4319 65.0069C85.321 65.0122 85.2095 65.0142 85.098 65.0161C84.8564 65.0203 84.6147 65.0246 84.3782 65.0628C80.5591 65.6667 76.7122 65.9183 72.8541 66.0525C71.0583 66.1145 69.2696 66.0338 67.4802 65.9532C66.5254 65.9101 65.5703 65.867 64.614 65.8456L64.1667 65.7895C60.7974 65.367 57.425 64.944 54.0935 64.28L53.2621 64.0591C51.9406 63.7079 50.6216 63.3574 49.2988 63.0107L49.2932 63.0219ZM42.9374 66.1084C43.2146 65.6241 43.3589 65.0984 43.5014 64.5793L43.5015 64.5791C43.5481 64.4092 43.5946 64.24 43.6455 64.0731C43.1047 63.7376 42.6364 63.5475 42.1123 63.4245C42.0172 63.7073 41.9303 63.9833 41.8455 64.2531C41.6518 64.8688 41.4684 65.4518 41.2203 66.0078C40.8857 66.7571 41.2927 66.9472 41.8558 67.1037C42.6475 67.484 42.6531 67.4839 42.8482 66.7291C42.8831 66.5893 42.8991 66.4414 42.915 66.2947L42.915 66.2946C42.922 66.2302 42.9289 66.166 42.9374 66.1028V66.1084ZM93.4491 33.1073C94.4024 33.6441 95.3893 34.1193 96.4263 34.4772C96.7004 34.6332 96.9753 34.788 97.2503 34.9427C99.3409 36.1196 101.432 37.2965 103.161 39.0063C103.19 39.3879 103.217 39.7694 103.244 40.1509C103.289 40.7871 103.334 41.4232 103.39 42.0593C103.454 42.7736 103.499 43.4898 103.543 44.206C103.632 45.6146 103.72 47.0231 103.953 48.4169C103.959 48.6478 103.968 48.8783 103.976 49.1086V49.1088V49.1089V49.1091V49.1092V49.1094V49.1096V49.1097V49.1099V49.11C103.999 49.7213 104.022 50.3313 103.997 50.9442C103.975 51.5146 103.886 52.0737 103.39 52.5043C101.126 54.4557 98.7009 56.1499 95.9189 57.285C94.6478 57.805 93.3822 58.325 92.1166 58.8506C91.6278 58.9699 91.1397 59.0929 90.6515 59.216C89.6753 59.462 88.699 59.708 87.7177 59.9242C82.0421 61.1655 76.2829 61.6855 70.4791 61.7191C70.0169 61.6873 69.5546 61.6538 69.0922 61.6202L69.0909 61.6201C67.9253 61.5355 66.7589 61.4508 65.5896 61.3948C64.407 61.3375 63.2389 61.1754 62.0708 61.0133L62.0707 61.0133L62.0706 61.0133L62.0705 61.0133L62.0704 61.0133L62.0703 61.0133L62.0702 61.0133L62.07 61.0133L62.0699 61.0132L62.0698 61.0132L62.0697 61.0132C61.1841 60.8903 60.2985 60.7674 59.4067 60.6903C58.5703 60.4973 57.7326 60.3058 56.8949 60.1143L56.8936 60.114C56.0564 59.9226 55.2192 59.7312 54.3834 59.5384C54.1688 59.4721 53.9554 59.4018 53.7422 59.3316L53.7422 59.3315L53.7421 59.3315L53.742 59.3315L53.7419 59.3315L53.7419 59.3314L53.7418 59.3314L53.7417 59.3314L53.7415 59.3313L53.7414 59.3313L53.7414 59.3313L53.7414 59.3313L53.7413 59.3313L53.7413 59.3313L53.7412 59.3312L53.7412 59.3312L53.7411 59.3312L53.7411 59.3312C53.0741 59.1115 52.4083 58.8921 51.7073 58.7947C51.5479 58.7342 51.3894 58.6713 51.231 58.6084C50.9795 58.5084 50.7284 58.4087 50.4752 58.3194C47.8938 57.4416 45.4296 56.3289 43.088 54.9142C40.7185 53.4884 38.7504 51.6767 37.3064 49.3059C37.2798 49.2626 37.2547 49.2183 37.2297 49.1741L37.2296 49.1741C37.1027 48.95 36.9782 48.7301 36.6709 48.6741C35.5502 48.4781 34.4325 48.2792 33.3216 48.0816C32.8795 48.003 32.4385 47.9245 31.9988 47.8465C31.8477 48.2539 31.9526 48.5488 32.0526 48.8301C32.0707 48.8808 32.0885 48.9311 32.1047 48.9816C32.8017 51.1232 34.0951 52.8677 35.7398 54.3495C39.3804 57.6373 43.6455 59.7844 48.2952 61.2103C48.9587 61.501 49.6389 61.7247 50.3581 61.8253C52.2091 62.4572 54.0935 62.9325 56.0448 63.1449C58.5035 63.7376 60.9956 64.0731 63.5156 64.2185C64.3854 64.4533 65.2663 64.5093 66.1639 64.4422H66.9277L66.982 64.4512L67.0279 64.4593L67.0709 64.4669C67.1979 64.4895 67.3263 64.5123 67.4517 64.5204C72.4695 64.8112 77.4704 64.6043 82.4436 63.9054C82.6678 63.8738 82.8921 63.8428 83.1166 63.8118C85.0799 63.5404 87.0475 63.2684 88.9387 62.6361C91.1131 62.2056 93.2484 61.6464 95.2945 60.7685C99.3198 59.5328 103.033 57.7044 106.294 55.0093C107.566 53.9581 108.714 52.7782 109.589 51.3636C110.415 50.0328 111.078 48.6349 111.089 47.0246C111.295 45.5931 111.089 44.2288 110.381 42.9595C109.522 40.5719 107.811 38.8889 105.837 37.4239C103.568 35.534 101.054 34.0746 98.2772 33.0737C97.5009 32.5865 96.6431 32.3114 95.784 32.036L95.7828 32.0356C95.6367 31.9887 95.4905 31.9418 95.3447 31.8939C94.4024 31.4634 93.4212 31.167 92.4009 30.9993C92.2542 30.8261 92.0539 30.7803 91.8545 30.7347C91.7964 30.7214 91.7383 30.7081 91.6817 30.6917C88.8022 29.8575 85.8591 29.3426 82.9152 28.8275L82.9126 28.827L82.9124 28.827L82.9122 28.8269L82.9119 28.8269C82.4826 28.7518 82.0532 28.6766 81.624 28.6005C81.4797 28.5743 81.3303 28.5363 81.1801 28.498C80.785 28.3974 80.3846 28.2954 80.0574 28.4048C79.7234 28.5143 79.6724 28.8408 79.6189 29.1835C79.5795 29.4358 79.5388 29.6969 79.3828 29.8865C79.3683 29.9046 79.3983 29.9579 79.4318 30.0174C79.45 30.0499 79.4693 30.0842 79.4831 30.1158C79.8708 30.1415 80.2606 30.158 80.6514 30.1747L80.6515 30.1747L80.6516 30.1747L80.6516 30.1747L80.6517 30.1747L80.6518 30.1747L80.6519 30.1747L80.6519 30.1747L80.652 30.1747L80.6521 30.1747C81.3683 30.2052 82.0883 30.2359 82.806 30.3227C85.6437 30.6694 88.3923 31.3851 91.1075 32.2462C91.4977 32.3915 91.8894 32.5383 92.2811 32.6851L92.2849 32.6865C92.6753 32.8328 93.0657 32.9791 93.4547 33.124L93.4491 33.1073ZM50.7093 11.3954C43.9075 11.3954 38.0479 11.8707 32.233 12.7821C25.7936 13.7885 19.5047 15.3654 13.4556 17.8312C10.562 19.011 7.76883 20.381 5.28785 22.3156C4.22298 23.1432 3.27519 24.0881 2.59501 25.2624C1.44094 27.2585 1.6528 29.1037 3.23617 30.7644C3.63201 31.1838 4.0836 31.5584 4.54077 31.9051C5.9067 32.9339 7.45662 33.6105 9.05114 34.192C14.4257 36.1546 20.0232 36.8704 25.6932 37.0828C30.237 37.2562 34.7753 37.0828 39.308 36.6523C44.9947 36.1211 50.6201 35.2432 56.1563 33.8565C61.6591 32.481 66.9834 30.6134 71.8116 27.5269C73.0549 26.7329 74.2312 25.8551 75.2403 24.7703C75.9763 23.9819 76.6007 23.1152 76.9743 22.092C77.6098 20.353 77.1136 18.4407 75.7477 17.2329C73.1719 14.946 70.0888 13.7438 66.7883 13.0113C61.1908 11.77 55.5096 11.4289 50.7093 11.3898V11.3954ZM38.7054 49.7608C38.5274 49.4789 38.3381 49.1791 38.1198 48.8657C41.4385 49.3337 44.4627 49.2723 47.4868 49.2053C48.4123 49.1885 48.9921 50.1726 48.6019 51.1008L48.5888 51.1319C48.281 51.865 47.9751 52.5935 47.8102 53.3709C47.5928 54.3886 47.9273 54.9142 48.9475 55.0764C50.1072 55.2553 51.2724 55.1658 52.393 54.8359C55.3981 53.9413 58.3362 53.9469 61.28 55.1435C63.6439 56.0996 66.1527 56.5525 68.6727 56.8824C69.47 56.9887 70.2728 56.9943 71.0645 56.8097C72.0752 56.5712 73.086 56.3377 74.0967 56.1041C74.6025 55.9873 75.1082 55.8704 75.6139 55.7529C76.1435 55.6299 76.6174 55.3895 77.0579 55.0764C77.4872 54.7688 77.7492 54.383 77.7046 53.835C77.6522 53.18 77.7793 52.549 77.9061 51.9189C77.9818 51.5432 78.0574 51.1678 78.0949 50.7877C78.1731 49.9679 78.6583 49.3861 79.1484 48.7984C79.2868 48.6325 79.4255 48.4662 79.5556 48.2938C80.3138 47.2818 81.2003 46.7394 82.5105 46.9295C83.8485 47.1252 84.7907 46.4095 85.5211 45.2576C86.0396 45.6938 86.0117 46.1579 85.8445 46.6164C85.6159 47.2315 85.6493 47.8409 85.7385 48.4672C86.034 50.4634 86.2403 52.4595 85.549 54.4222C85.3706 54.9198 85.549 55.3112 85.9727 55.5684C86.3128 55.7809 86.6752 55.971 87.0543 56.094C87.7958 56.34 88.0857 56.1947 88.4314 55.4901C88.4802 55.3887 88.5241 55.2839 88.5679 55.1795C88.6641 54.9501 88.7597 54.7222 88.9053 54.534C89.4907 53.7959 89.7025 52.9516 89.6802 52.0346C89.6412 50.5025 90.0872 49.1438 90.996 47.9136C91.3807 47.3936 91.7709 46.9798 92.4344 46.8177C94.3857 46.3424 95.1941 43.692 94.2463 41.735C93.6442 40.4881 92.8469 39.3977 91.704 38.4248C92.7131 37.7259 93.5885 37.0772 94.0623 36.0204C94.2129 35.6961 94.5641 35.4893 95.0715 35.7241C97.1615 36.6895 99.1349 37.8584 101.108 39.027L101.394 39.1964C101.831 39.4545 101.841 39.8229 101.851 40.1944C101.852 40.2494 101.854 40.3046 101.857 40.3595C101.96 42.3406 102.054 44.3241 102.148 46.3069L102.148 46.3115C102.195 47.3156 102.243 48.3194 102.291 49.3227C102.298 49.4683 102.297 49.6165 102.296 49.7645V49.765C102.293 50.117 102.29 50.4689 102.392 50.7877C102.671 51.6376 102.28 52.1408 101.695 52.6273C99.37 54.5619 96.7329 55.943 93.923 56.9943C88.2864 59.0967 82.4436 60.187 76.4334 60.4219C68.6839 60.7238 61.0291 60.0975 53.5192 58.0734C50.1964 57.1732 47.0798 55.7697 44.0023 54.232C42.9238 53.6953 42.0197 52.9779 41.1157 52.2607C40.7673 51.9843 40.4189 51.7079 40.0606 51.4419C39.5047 51.0267 39.1384 50.4466 38.7054 49.7608ZM93.6275 35.1538C92.8379 34.7515 92.042 34.4807 91.2542 34.2127L91.2537 34.2125C91.0014 34.1266 90.7499 34.0411 90.4998 33.9516C90.2935 33.8789 90.0259 33.8118 89.8921 34.0466C89.7279 34.3314 89.4608 34.4865 89.1929 34.6421C88.9242 34.7982 88.6546 34.9548 88.4871 35.2432C88.108 35.8974 87.5393 36.2441 86.7365 36.2777C86.2068 36.3 85.7887 36.5125 85.7162 37.2506C85.6549 37.8489 85.4486 38.5478 84.7406 38.8665C84.5207 38.9686 84.4347 39.187 84.35 39.4018L84.3499 39.4019L84.3499 39.402L84.3499 39.4021L84.3498 39.4022L84.3498 39.4022L84.3498 39.4023L84.3498 39.4024L84.3497 39.4024C84.3185 39.4816 84.2875 39.5604 84.2499 39.6326C83.6199 40.8963 83.0122 41.1479 81.6742 40.639C80.0183 40.0128 78.7639 38.9504 78.0837 37.0605C75.7365 41.5337 71.8283 43.7088 67.3904 45.129C64.0007 46.2138 60.5552 47.114 57.0762 47.8857C55.3788 48.2626 53.6578 48.5044 51.9135 48.7495L51.9134 48.7495L51.9131 48.7496C51.2513 48.8426 50.5861 48.936 49.9176 49.0375C50.4027 50.0887 50.202 51.0001 49.6444 51.8892C49.3099 52.4204 49.059 52.9963 48.9587 53.6226C48.8974 54.014 48.9866 54.3215 49.5162 54.2712C49.7457 54.2506 49.9752 54.2326 50.2046 54.2146L50.2048 54.2146L50.205 54.2146L50.2051 54.2146L50.2053 54.2146L50.2055 54.2146L50.2057 54.2146L50.2058 54.2146H50.2059C51.0351 54.1497 51.8635 54.0848 52.6885 53.8965C55.6099 53.2256 58.5035 53.1808 61.3246 54.4501C63.3938 55.3796 65.6226 55.6083 67.8441 55.8364L67.8446 55.8364L67.8452 55.8365L67.8458 55.8365L67.8463 55.8366L67.8469 55.8367L67.8475 55.8367L67.8481 55.8368C68.1511 55.8679 68.454 55.899 68.7564 55.9319C70.3901 56.1099 71.9203 55.6789 73.4509 55.2478C74.276 55.0154 75.1012 54.7829 75.9428 54.6458C76.6063 54.5396 76.8627 54.014 76.8739 53.2479C76.8906 51.0616 77.4147 49.0934 79.0315 47.4048C80.0685 46.3256 81.0776 45.7665 82.5272 45.9734C83.3913 46.0964 84.0994 45.8839 84.5844 45.0787C84.8353 44.6594 85.1922 44.2344 85.7664 44.3854C86.4076 44.5531 86.625 45.1234 86.7532 45.6994C86.809 45.9566 86.8424 46.2529 86.7699 46.4934C86.5269 47.2716 86.5934 48.0419 86.6607 48.8209C86.6737 48.971 86.6867 49.1215 86.6975 49.2724C86.7529 50.0547 86.7659 50.8403 86.779 51.6266V51.6267V51.6269V51.627V51.6272V51.6273V51.6274V51.6276V51.6277V51.6278C86.783 51.8696 86.787 52.1115 86.7922 52.3533C86.8034 53.0243 86.7309 53.6897 86.5581 54.3383C86.4469 54.7641 86.7573 54.9142 87.0489 55.0552C87.0789 55.0697 87.1087 55.0841 87.1379 55.0987L87.1527 55.1062C87.3425 55.2016 87.6254 55.3437 87.7177 55.0931C87.828 54.7842 88.0106 54.5072 88.1932 54.2302C88.4998 53.7651 88.8064 53.2999 88.7715 52.6832C88.7519 52.3184 88.7457 51.9556 88.7395 51.5924V51.5923V51.5921V51.5919V51.5917V51.5916V51.5914V51.5912V51.5911L88.7395 51.5903C88.735 51.3306 88.7306 51.0708 88.7213 50.81C88.66 49.0151 89.5241 47.5502 90.4329 46.1187C90.7005 45.6994 91.1577 45.4589 91.665 45.3807C92.3731 45.2744 92.7912 44.8103 92.9529 44.1785C93.3599 42.6073 93.3766 41.0808 92.1333 39.8059C92.0345 39.7043 91.93 39.6085 91.8255 39.5126L91.8253 39.5125L91.8252 39.5124C91.6997 39.3974 91.5742 39.2823 91.4587 39.1573C90.7116 38.3409 90.7284 37.8209 91.6204 37.1779C92.3842 36.6243 93.0198 35.9757 93.6163 35.1594L93.6275 35.1538ZM87.8627 33.1184C84.9245 32.3636 82.0923 31.7094 79.0259 31.7821C79.2409 32.5262 79.2296 33.2096 79.2185 33.8781V33.8783V33.8786V33.8788V33.879V33.8793V33.8795V33.8797V33.8799V33.8802C79.215 34.0951 79.2114 34.3085 79.2155 34.5219C79.2183 34.6645 79.2189 34.8087 79.2195 34.9537V34.9545C79.2236 35.958 79.2279 37.001 79.9681 37.8265C80.5926 38.5255 81.3508 39.0734 82.1592 39.5487C82.6108 39.8171 82.9899 39.8395 83.291 39.3642C83.5056 39.0245 83.7704 38.7217 84.0353 38.4188C84.5205 37.864 85.0063 37.3085 85.1866 36.5237C85.2981 36.026 85.7106 35.5675 86.2738 35.4389C86.8257 35.3103 87.0654 34.9525 87.2494 34.4716C87.3541 34.1942 87.4813 33.9268 87.6294 33.6156C87.7022 33.4626 87.78 33.299 87.8627 33.1184ZM49.7872 69.4129C49.6945 69.7385 49.5999 70.071 49.5 70.4122C49.2709 70.3343 49.0288 70.2755 48.7916 70.2178C48.1988 70.0736 47.6368 69.937 47.3865 69.5304C47.138 69.1265 47.3725 68.6436 47.6093 68.1556C47.7233 67.9208 47.8378 67.6849 47.8994 67.456C47.9217 67.3721 47.9496 67.2883 47.9774 67.2044L47.9791 67.1998C48.2597 66.4032 48.3977 66.0117 48.6619 65.8863C48.9171 65.7651 49.2902 65.8921 50.0237 66.1418L50.057 66.1532C50.5086 66.3041 50.7037 66.4719 50.5198 67.0031C50.251 67.7836 50.0255 68.5757 49.7873 69.4127L49.7872 69.4129ZM23.0561 40.5272V41.1982C23.0561 42.0705 23.478 42.5178 24.3217 42.5402C24.4109 42.5402 24.5001 42.5402 24.5893 42.5513C25.1468 42.6129 25.42 42.378 25.4312 41.8021C25.4368 41.4666 25.4521 41.1325 25.4674 40.7984C25.4828 40.4643 25.4981 40.1302 25.5037 39.7947C25.5204 38.8501 25.5148 38.8498 24.5848 38.7883L24.5837 38.7883C23.5505 38.7174 23.0394 39.2095 23.0506 40.2644V40.5328L23.0561 40.5272ZM19.3207 38.4807V41.1199C19.3207 41.1497 19.3213 41.1796 19.322 41.2094V41.2094C19.3232 41.2691 19.3244 41.3287 19.3207 41.3883C19.2594 41.8356 19.488 41.9922 19.9005 42.0928C21.5118 42.4898 21.6623 42.3892 21.7181 40.79C21.7738 39.2281 20.9766 38.4584 19.3263 38.4807H19.3207ZM46.2696 68.0709L46.2696 68.0709L46.2697 68.0706C46.4484 67.4017 46.6292 66.725 46.8624 66.0693C47.0798 65.4654 46.9628 65.2026 46.3495 65.0125C46.2242 64.9733 46.1131 64.937 46.0143 64.9047C45.6215 64.7763 45.422 64.7111 45.2868 64.7773C45.1474 64.8455 45.0763 65.0537 44.9319 65.4765L44.9317 65.4773C44.9099 65.541 44.8865 65.6097 44.8609 65.6835L44.5933 66.4383C44.1547 67.6759 44.5654 68.524 45.8254 68.9825C45.8491 68.9927 45.8769 68.9905 45.9188 68.9872C45.9311 68.9862 45.9446 68.9852 45.9596 68.9843C45.9776 68.9833 45.9978 68.9825 46.0205 68.9825C46.1063 68.6823 46.1877 68.3777 46.2695 68.0715L46.2695 68.0714L46.2695 68.0713L46.2696 68.0712L46.2696 68.0711L46.2696 68.071L46.2696 68.0709ZM27.4769 41.7738L27.4785 41.7734L27.4787 41.7734L27.4794 41.7732L27.4797 41.7732L27.4799 41.7731L27.4805 41.773C28.0903 41.638 28.6228 41.5201 29.1554 41.4219C29.5569 41.3492 29.7576 41.1982 29.8077 40.7453C29.9806 39.0399 29.936 38.9728 28.2077 38.9448C27.9846 38.9448 27.7616 38.9448 27.5386 38.928C27.1093 38.8945 26.8752 39.0343 26.8863 39.5207C26.9017 40.0426 26.8985 40.5646 26.895 41.1234V41.1235V41.1235V41.1236V41.1236V41.1237V41.1238V41.1238V41.1239V41.1239V41.124C26.8935 41.3733 26.8919 41.6299 26.8919 41.8971V41.9027C27.0932 41.8587 27.2852 41.8162 27.4702 41.7753L27.4726 41.7748L27.4769 41.7738ZM17.8935 41.6958C18.0236 41.2171 18.0254 40.7412 18.0272 40.27C18.0279 40.0753 18.0286 39.8814 18.0384 39.6885C18.1276 38.1465 18.1165 38.1452 16.5927 37.9667L16.5889 37.9663L16.5576 37.9622C16.3497 37.9348 16.1348 37.9064 15.9756 38.162C15.9817 38.2799 15.9892 38.4007 15.9969 38.5237C16.0104 38.7391 16.0242 38.961 16.0313 39.1853C16.0424 39.586 16.037 39.9812 16.0314 40.3818V40.3819L16.0313 40.3874C16.0202 41.4275 16.0202 41.433 17.0683 41.6287C17.242 41.6628 17.4208 41.6713 17.6081 41.6801H17.6082H17.6082H17.6082C17.6975 41.6843 17.7888 41.6886 17.8823 41.6958H17.8935ZM50.9044 70.5928C52.1384 70.7233 52.9208 70.2704 53.2516 69.2341C53.3109 69.0512 53.3668 68.8674 53.4226 68.6838L53.4227 68.6834C53.5085 68.4012 53.5942 68.1195 53.6921 67.8418C53.7055 67.8034 53.7204 67.7639 53.7355 67.724L53.7355 67.7239C53.8523 67.415 53.9788 67.0805 53.4802 67.031C53.3694 67.0207 53.2476 66.9695 53.1228 66.9169C52.7765 66.7713 52.4066 66.6157 52.1812 67.2938C51.9314 68.057 51.627 68.8011 51.3101 69.5758L51.3099 69.5763L51.3098 69.5763L51.3098 69.5764C51.174 69.9083 51.036 70.2458 50.8989 70.5928H50.9044ZM58.8889 70.3814C60.0355 70.3944 60.5616 70.4003 60.8693 70.1441C61.1301 69.9268 61.2341 69.5212 61.4263 68.7717L61.4264 68.7711L61.4266 68.7706C61.4585 68.6459 61.4929 68.5118 61.5308 68.3674C61.3738 68.3451 61.2167 68.323 61.0597 68.3008H61.0596C60.4306 68.2122 59.8015 68.1236 59.1725 68.0207C58.7823 67.9592 58.6373 68.099 58.5704 68.4904C58.4964 68.9125 58.3815 69.329 58.2581 69.7764L58.2581 69.7766C58.2049 69.9693 58.1502 70.1677 58.0965 70.3748H58.1021C58.3924 70.3758 58.6532 70.3788 58.888 70.3814H58.8889ZM12.7196 39.6605V37.4071C12.8176 37.407 12.9027 37.4041 12.9792 37.4014C13.1135 37.3968 13.2215 37.393 13.3273 37.4071L13.3297 37.4075C14.5595 37.5805 14.565 37.5813 14.5037 38.7771C14.4758 39.353 14.4368 39.9233 14.3866 40.4993C14.3588 40.8292 14.1692 40.9242 13.8403 40.8795C12.9315 40.7621 12.7196 40.5496 12.7196 39.6605ZM73.2723 71.672H73.2333C73.2333 71.4798 73.2345 71.2883 73.2357 71.0969C73.2382 70.7148 73.2407 70.3336 73.2333 69.9498C73.2277 69.6758 73.1552 69.4074 72.8318 69.3571C72.4416 69.2956 72.2911 69.5696 72.1963 69.8827C72.1572 70.0057 72.1405 70.1455 72.1405 70.2741C72.1387 70.6134 72.1387 70.952 72.1387 71.2905V71.2915C72.1387 71.9679 72.1387 72.6435 72.1238 73.3215C72.1126 73.7632 72.2799 73.9757 72.7315 73.9757C73.2388 73.9757 73.2779 73.6458 73.2723 73.26C73.2686 72.9061 73.2698 72.5546 73.2711 72.2024C73.2717 72.0259 73.2723 71.8493 73.2723 71.672ZM10.9356 39.9737C10.9732 39.9004 11.0065 39.8447 11.0336 39.7994C11.0747 39.7305 11.1017 39.6854 11.1084 39.6382C11.153 39.3306 11.1809 39.0175 11.2087 38.7044L11.2088 38.7044C11.324 37.4668 10.7033 36.7119 9.34663 36.4398C9.34663 36.6658 9.35458 36.8906 9.36248 37.1138C9.38018 37.6141 9.39758 38.1058 9.32432 38.5814C9.22397 39.2188 9.43583 39.4872 10.0045 39.6326C10.2068 39.6814 10.4015 39.7605 10.6123 39.8462L10.6123 39.8462C10.7153 39.8881 10.8221 39.9315 10.9356 39.9737ZM57.3885 67.8139C56.8644 67.702 56.4797 67.6181 56.095 67.5287C55.833 67.4728 55.6824 67.579 55.6044 67.8306C55.4134 68.4521 55.2179 69.0712 55.0206 69.6955L55.0204 69.6962L55.0202 69.6966C54.9124 70.0381 54.804 70.3812 54.6956 70.727C55.8069 70.7345 56.5169 70.2909 56.8253 69.3963C56.963 68.9955 57.1041 68.5983 57.2601 68.1595L57.3829 67.8139H57.3885ZM48.8305 38.6261C48.8491 38.776 48.8688 38.9389 48.8897 39.1121V39.1121L48.8898 39.113C48.9687 39.7663 49.0651 40.5651 49.1928 41.3604C49.243 41.6567 49.4493 41.9642 49.834 41.8971C50.202 41.83 50.3302 41.5337 50.2689 41.1926C50.057 40.0128 49.9511 38.8218 49.8786 37.6252C49.8619 37.3233 49.7392 37.0996 49.4214 37.0772C49.1148 37.0605 48.9029 37.2562 48.8472 37.5302C48.8111 37.6931 48.8171 37.8677 48.8258 38.1222V38.1224L48.8258 38.1226C48.8305 38.2612 48.836 38.4235 48.836 38.6205L48.8305 38.6261ZM44.2588 39.4648C44.2739 39.6095 44.2908 39.7766 44.3093 39.9601C44.3587 40.4503 44.4199 41.0576 44.4929 41.6679C44.5319 42.0034 44.7048 42.2606 45.0895 42.2438C45.502 42.2215 45.5857 41.9195 45.5578 41.5896C45.5021 40.8556 45.4414 40.1216 45.3807 39.3876L45.3807 39.3874L45.3807 39.3873L45.3807 39.3872L45.3807 39.387L45.3807 39.3869L45.3806 39.3867L45.3806 39.3866L45.3806 39.3865L45.3806 39.3863C45.3503 39.0192 45.3199 38.6521 45.2902 38.285C45.2679 38.0222 45.0839 37.8712 44.8665 37.8489C44.5933 37.8153 44.3145 37.9328 44.2699 38.2403C44.2405 38.4393 44.245 38.6431 44.2515 38.9366V38.9367C44.2549 39.0886 44.2588 39.2644 44.2588 39.476V39.4648ZM85.7775 69.5584H85.833C85.8229 69.7317 85.8148 69.9055 85.8067 70.0793L85.8066 70.0808V70.0808V70.0809V70.081V70.081V70.0811V70.0812V70.0812V70.0813V70.0814C85.7882 70.4772 85.7698 70.8732 85.7274 71.2638C85.6995 71.5546 85.4876 71.7335 85.181 71.7167C84.8576 71.7 84.7071 71.4595 84.7071 71.1855C84.7183 70.2629 84.7461 69.3403 84.7963 68.4177C84.8186 68.0431 84.997 67.6964 85.443 67.7412C86.0164 67.802 85.9355 68.2073 85.8528 68.6219L85.85 68.6358C85.8117 68.8434 85.8024 69.0562 85.793 69.2688C85.7888 69.3656 85.7845 69.4623 85.7775 69.5584ZM37.4124 64.4422C37.5406 64.0564 37.641 63.7656 37.7413 63.4748C37.7809 63.3556 37.8163 63.2342 37.8518 63.1127L37.8518 63.1126C37.9161 62.8923 37.9804 62.6717 38.0703 62.4628C38.4781 61.5337 38.463 61.5257 37.7254 61.1334C37.6463 61.0913 37.5588 61.0448 37.4625 60.9922C37.3882 60.9529 37.3028 60.933 37.2007 60.9091L37.1518 60.8976C37.1229 60.8907 37.0927 60.8832 37.0611 60.8748C36.8717 61.4392 36.6878 61.9812 36.504 62.5232L36.5036 62.5243C36.2323 63.3257 36.5371 63.9669 37.4179 64.4478L37.4124 64.4422ZM31.8148 40.9018C32.0022 40.8649 32.1881 40.8305 32.3726 40.7964C32.803 40.7167 33.226 40.6385 33.6435 40.5328C34.1173 40.4119 34.0861 40.0767 34.0557 39.7494C34.0453 39.6376 34.035 39.5268 34.0449 39.4257C34.0728 39.1573 34.0226 38.8554 33.6602 38.8721C33.493 38.8792 33.3186 38.8769 33.1431 38.8746H33.1431H33.143H33.1429H33.1428H33.1427H33.1427H33.1426H33.1425H33.1424C32.628 38.8678 32.1052 38.8609 31.7312 39.0902C31.427 39.2771 31.504 39.698 31.582 40.1242C31.6184 40.3229 31.6549 40.5227 31.6531 40.7006C31.6531 40.7206 31.6711 40.7407 31.7094 40.7835C31.7351 40.8123 31.77 40.8513 31.8148 40.9074V40.9018ZM76.1268 28.7179H76.1324C76.1195 28.5122 76.1084 28.3066 76.0973 28.1011V28.101V28.1009V28.1009V28.1008V28.1007V28.1006V28.1006V28.1005V28.1004C76.0749 27.6861 76.0526 27.2725 76.0153 26.8615C75.9874 26.5652 75.7979 26.3807 75.4801 26.403C75.2348 26.4198 75.0564 26.5875 75.0452 26.8224C74.9839 27.9742 74.9616 29.1205 75.2013 30.2612C75.2627 30.5463 75.4355 30.7365 75.7533 30.7197C76.0878 30.7029 76.216 30.4457 76.216 30.1773C76.216 29.8278 76.1872 29.4782 76.1586 29.1308C76.1474 28.9946 76.1362 28.8589 76.1268 28.7235V28.7179ZM54.5339 40.5496C54.9311 39.7529 54.8255 38.9398 54.72 38.127C54.6625 37.6848 54.6051 37.2426 54.6287 36.8033C54.6454 36.4734 54.5284 36.1491 54.1548 36.1267C53.6976 36.0987 53.5638 36.4454 53.575 36.8368L53.5811 37.066C53.6057 38.0023 53.6304 38.9421 53.8314 39.8674C53.9095 40.2309 54.0489 40.5384 54.5339 40.5552V40.5496ZM34.4352 59.1973C34.3716 59.4115 34.3096 59.6169 34.2495 59.8162C34.0884 60.3506 33.9407 60.8405 33.8108 61.3333C33.6602 61.8924 34.0338 62.144 34.4742 62.2894L34.4879 62.2938C34.7658 62.3831 35.151 62.5069 35.2826 62.1329C35.312 62.0487 35.3426 61.9637 35.3733 61.878L35.3736 61.8773C35.5817 61.2976 35.8002 60.689 35.7565 60.1143C35.7273 59.7284 35.1875 59.5047 34.6613 59.2866L34.661 59.2865C34.5849 59.2549 34.5091 59.2235 34.4352 59.1917V59.1973ZM73.5952 29.9248L73.5951 29.9241C73.5819 29.5776 73.5664 29.1701 73.5232 28.7682C73.5009 28.5446 73.3002 28.3768 73.0549 28.3768C72.8764 28.3768 72.6702 28.4719 72.6367 28.6508C72.4137 29.7971 72.4249 30.9378 72.8374 32.0449C72.9211 32.2685 73.1385 32.3524 73.3838 32.3133C73.6626 32.2685 73.7406 32.0449 73.735 31.8268C73.7279 31.5438 73.7002 31.2609 73.668 30.9324L73.6679 30.9322C73.6499 30.7479 73.6304 30.5493 73.6124 30.3283V30.3227C73.6058 30.2042 73.6007 30.0703 73.5952 29.9257L73.5952 29.9248ZM39.5421 62.1496C39.4345 62.4593 39.3358 62.7492 39.2409 63.0277L39.2407 63.0282C39.1095 63.4135 38.9858 63.7768 38.8564 64.1402C38.5702 64.9417 38.888 65.5213 39.8097 65.8792C39.8941 65.6005 39.9747 65.3207 40.0552 65.041C40.2299 64.434 40.4044 63.8277 40.6181 63.2344C40.7575 62.8542 40.6906 62.6585 40.3449 62.5131C40.1455 62.4293 39.946 62.3379 39.7016 62.2257L39.7015 62.2257L39.701 62.2255L39.5477 62.1552L39.5421 62.1496ZM57.1469 37.3528L57.1471 37.3548C57.1961 37.7572 57.2492 38.1932 57.3048 38.6317C57.3494 38.9728 57.5947 39.0287 57.8846 39.0119C58.1969 38.9951 58.3864 38.8498 58.3641 38.5255C58.3028 37.5134 58.2303 36.5013 58.1467 35.4893C58.13 35.2488 57.9738 35.0587 57.7341 35.0363C57.4386 35.0084 57.2045 35.1929 57.1599 35.4725C57.112 35.7486 57.1012 36.0334 57.0888 36.3637V36.3637L57.0887 36.3644C57.0838 36.4953 57.0786 36.6334 57.0707 36.7809L57.0762 36.7753C57.0986 36.9566 57.1222 37.1504 57.1469 37.3528ZM68.7675 31.838H68.7564C68.7758 32.0206 68.7913 32.2038 68.8068 32.3869C68.8402 32.7811 68.8736 33.1745 68.9459 33.5602C69.0184 33.9404 69.1466 34.4157 69.6818 34.2983C70.1279 34.1976 70.0777 33.7838 70.0331 33.4204L70.0126 33.2595C69.9353 32.6525 69.8575 32.0416 69.8268 31.4354C69.8244 31.3907 69.8228 31.3451 69.8213 31.2996L69.8212 31.2988C69.8084 30.9228 69.7953 30.5414 69.3083 30.5463C68.8065 30.5519 68.7341 31.016 68.7452 31.441C68.7452 31.5441 68.7551 31.6472 68.7647 31.7477L68.7691 31.7944L68.7731 31.838H68.7675ZM76.2449 71.2511L76.245 71.2522C76.2853 71.655 76.3201 72.0033 76.3721 72.3486C76.4223 72.6841 76.6286 72.9469 76.991 72.8965C77.3757 72.8462 77.398 72.5163 77.4147 72.1864C77.4258 71.8686 77.3906 71.5526 77.3553 71.2369L77.3553 71.2368C77.3025 70.7639 77.2497 70.2917 77.3534 69.8156C77.4314 69.4466 77.253 69.2005 76.8906 69.167C76.5338 69.1335 76.3108 69.3739 76.2662 69.715C76.2305 69.9935 76.2174 70.2748 76.2067 70.5025V70.5027C76.2024 70.595 76.1985 70.6785 76.1937 70.7494C76.2125 70.9271 76.2291 71.0933 76.2449 71.2511ZM98.8069 66.6844H98.8571V65.3424C98.8571 65.0069 98.8125 64.677 98.4166 64.6435C98.0542 64.6155 97.8145 64.8727 97.8033 65.2194C97.7755 66.2482 97.7755 67.2715 97.7866 68.3003C97.7866 68.5911 97.965 68.8091 98.2884 68.8036C98.6117 68.798 98.779 68.5743 98.7957 68.2891C98.815 67.9216 98.8103 67.5513 98.8055 67.1802C98.8034 67.015 98.8013 66.8497 98.8013 66.6844H98.8069ZM77.6098 24.2727C77.635 24.459 77.6599 24.6482 77.6851 24.8396C77.7657 25.4521 77.8493 26.0869 77.9555 26.7217C78.0001 26.9957 78.1952 27.2138 78.5186 27.1579C78.7528 27.1187 78.9367 26.9398 78.9423 26.7106C78.9535 25.6482 78.7973 24.597 78.5576 23.5625C78.5019 23.3333 78.29 23.2103 78.0447 23.2326C77.7827 23.255 77.6767 23.4507 77.6433 23.6855C77.6274 23.8088 77.6228 23.935 77.6175 24.0821L77.6175 24.0828C77.6153 24.1423 77.613 24.2051 77.6098 24.2727ZM66.3869 35.0252C66.3646 34.6925 66.3409 34.3597 66.3172 34.027C66.2935 33.6944 66.2698 33.3617 66.2475 33.029L66.2441 32.9704C66.2243 32.6226 66.2034 32.2539 65.7178 32.2909C65.2718 32.3245 65.1436 32.7047 65.1548 33.0737C65.1882 33.7838 65.2663 34.494 65.3499 35.2041C65.4001 35.6067 65.6286 35.8974 66.0635 35.8024C66.4538 35.7185 66.4148 35.3439 66.3813 35.0363L66.3869 35.0252ZM6.57016 35.3495C6.57016 35.5387 6.57537 35.718 6.58038 35.8904C6.59092 36.2531 6.60057 36.5854 6.55901 36.9151C6.44193 37.8433 6.84334 38.3409 7.80786 38.5199C7.84131 38.0222 7.87476 37.5469 7.91379 37.0661C7.97698 36.2311 7.53096 35.6589 6.57573 35.3495H6.57016ZM32.9915 60.5838L32.9918 60.5826L32.9919 60.5822L32.9919 60.5821C33.0756 60.2428 33.1487 59.9465 33.2086 59.6502C33.4019 58.7332 33.0767 58.0492 32.233 57.5981C31.5974 58.996 31.8241 60.0957 32.9132 60.8971V60.9027C32.9402 60.7918 32.9663 60.6859 32.9915 60.5838ZM94.7871 68.127H94.7875C94.7968 68.2736 94.8079 68.4197 94.819 68.5655L94.819 68.566C94.8412 68.8574 94.8634 69.1479 94.8708 69.441C94.8819 69.7094 94.8317 69.989 94.5084 70.0561C94.2017 70.1232 93.9676 69.9274 93.9007 69.6702C93.6386 68.5911 93.5829 67.4951 93.8003 66.4048C93.8561 66.1252 94.146 66.0078 94.4359 66.0637C94.6756 66.1084 94.8094 66.2985 94.8094 66.539C94.8131 66.8929 94.8119 67.2443 94.8107 67.5966C94.8101 67.773 94.8094 67.9497 94.8094 68.127H94.7875L94.7871 68.1214V68.127ZM80.403 70.8724H80.3863C80.3863 71.0192 80.3851 71.1661 80.3838 71.3131V71.3137V71.3138V71.3139V71.3139V71.314V71.3141V71.3142V71.3142V71.3143V71.3144C80.3813 71.6093 80.3789 71.905 80.3863 72.2032C80.3919 72.4884 80.5034 72.74 80.8156 72.7791C81.2059 72.8295 81.401 72.5667 81.4121 72.2256C81.4567 71.2526 81.4735 70.2797 81.479 69.3068C81.479 69.0328 81.362 68.7644 81.0386 68.7365C80.6651 68.7029 80.442 68.9322 80.4142 69.2788C80.3903 69.6583 80.3948 70.0377 80.3994 70.4171C80.4012 70.5689 80.403 70.7206 80.403 70.8724ZM62.1609 36.9598C62.1342 36.7088 62.107 36.4668 62.0805 36.2311C62.0238 35.7263 61.9703 35.2499 61.9323 34.7735C61.9044 34.4436 61.8598 34.1249 61.4639 34.1193C61.0291 34.1193 60.8785 34.4213 60.8562 34.8239C60.8246 35.4364 60.9324 36.0342 61.0397 36.6292V36.6292V36.6292C61.0647 36.7675 61.0896 36.9056 61.1127 37.0437C61.174 37.4127 61.3747 37.737 61.8208 37.6252C62.1728 37.5395 62.1665 37.2399 62.1618 37.0219L62.1611 36.9833L62.1609 36.9598ZM90.6057 68.9937H90.6387C90.6277 69.1439 90.6185 69.2946 90.6093 69.4453L90.6093 69.4457C90.586 69.826 90.5626 70.2067 90.5109 70.5817C90.4719 70.8556 90.2712 71.0737 89.9646 71.0569C89.6691 71.0402 89.4962 70.8221 89.4962 70.5201L89.4977 70.2901C89.5023 69.5225 89.5069 68.7548 89.5576 67.9872C89.5799 67.6741 89.7694 67.3889 90.1597 67.4001C90.5778 67.4169 90.6447 67.7188 90.6447 68.0543C90.6392 68.3672 90.6224 68.6801 90.6057 68.993L90.6057 68.9937ZM101.795 65.2977V65.8009C101.797 65.8469 101.797 65.8943 101.797 65.9421C101.797 66.2541 101.797 66.5814 102.208 66.6396C102.749 66.7123 102.849 66.2818 102.894 65.8736C102.943 65.3853 102.977 64.8934 103.012 64.4008L103.012 64.4005L103.012 64.4002L103.012 64.3998L103.012 64.3995L103.012 64.3992L103.012 64.3989L103.012 64.3986L103.013 64.3982L103.013 64.3979C103.021 64.2766 103.03 64.1553 103.038 64.034C103.061 63.7488 102.983 63.4804 102.687 63.4077C102.347 63.3239 102.063 63.4748 102.001 63.8383C101.926 64.2585 101.873 64.6851 101.832 65.0112C101.818 65.1189 101.806 65.2157 101.795 65.2977ZM110.086 60.2653C110.098 60.1528 110.113 60.0291 110.128 59.8992C110.147 59.7387 110.167 59.5686 110.186 59.3986C110.219 59.0575 110.147 58.75 109.762 58.6941C109.389 58.6382 109.16 58.9177 109.104 59.2197C108.959 60.0472 108.948 60.8915 109.088 61.7247C109.138 62.0098 109.4 62.1552 109.695 62.1161C109.941 62.0825 110.074 61.8924 110.08 61.6464C110.087 61.3569 110.085 61.0675 110.083 60.7623V60.7619V60.7616V60.7612V60.7608V60.7604V60.7599V60.7595V60.7591V60.7586C110.081 60.5992 110.08 60.4355 110.08 60.2653H110.086ZM63.4822 70.112C63.8221 69.9215 64.2201 69.9129 64.6126 69.9045C65.3147 69.8894 65.9993 69.8747 66.3032 68.8203C65.6038 68.7375 65.0023 68.6655 64.4019 68.5937L64.391 68.5924L64.3892 68.5922L64.3818 68.5913L64.3798 68.5911C64.0397 68.5463 63.7777 68.6134 63.6773 68.9993C63.6582 69.072 63.6329 69.1431 63.6067 69.217C63.5261 69.4442 63.4359 69.6985 63.4822 70.112ZM104.951 63.3361L104.952 63.3846C104.959 63.569 104.971 63.9301 105.001 64.2912C105.023 64.5316 105.174 64.7161 105.419 64.7385C105.72 64.7665 105.954 64.5987 105.988 64.3024C106.083 63.4636 106.083 62.6193 105.977 61.7862C105.949 61.5569 105.737 61.4171 105.492 61.4116C105.246 61.4116 105.079 61.5569 105.001 61.7806C104.899 62.0709 104.915 62.3689 104.933 62.7414C104.943 62.92 104.952 63.1158 104.951 63.3361ZM112.619 57.5527L112.619 57.5518C112.632 57.4748 112.645 57.4051 112.656 57.3353C112.712 56.9943 112.639 56.7035 112.26 56.6308C111.892 56.5581 111.691 56.7818 111.608 57.1229C111.468 57.682 111.373 58.2468 111.535 58.8115C111.608 59.0743 111.769 59.3259 112.07 59.3147C112.366 59.3036 112.528 59.0687 112.544 58.778C112.556 58.5624 112.551 58.3469 112.547 58.1699V58.1698C112.546 58.0943 112.544 58.0257 112.544 57.9672H112.55C112.576 57.7987 112.599 57.6693 112.618 57.5559L112.619 57.5527ZM36.4913 39.9106C36.3207 39.9539 36.145 39.9985 35.9625 40.045C35.7438 39.2034 36.0059 38.764 36.7489 38.7267C37.0611 38.7156 37.3678 38.7044 37.68 38.682C37.9086 38.6652 38.1427 38.6764 38.2041 38.9504C38.271 39.2412 38.1818 39.476 37.8584 39.5599C37.4184 39.6754 36.9754 39.7878 36.4913 39.9106ZM29.8412 55.3559C29.0049 57.285 29.1164 57.6037 30.2928 58.1797C30.3268 57.9393 30.4068 57.6965 30.4863 57.455C30.7324 56.708 30.9746 55.9729 29.8412 55.3559ZM4.79166 34.4548C4.55378 35.767 4.78236 36.5796 5.47741 36.8927C5.73015 35.5284 5.50157 34.7158 4.79166 34.4548ZM28.5868 55.999C28.9938 53.9413 28.8878 53.589 27.6613 52.946C27.6899 53.1172 27.7147 53.2877 27.7394 53.4577C27.864 54.3152 27.9866 55.159 28.5868 55.999ZM70.0331 69.0887C69.1187 68.8986 68.4999 68.9937 68.1765 69.3739C68.8511 69.3739 69.4477 69.3403 70.0331 69.0887ZM42.0733 38.3018C41.4695 38.2124 40.9835 38.3061 40.5276 38.3941C40.3562 38.4271 40.1891 38.4593 40.0216 38.4807C39.9101 38.4975 39.7874 38.6093 39.8599 38.7715C39.9101 38.8945 39.9881 39.0287 40.1331 38.9895C40.281 38.9511 40.4329 38.9228 40.5879 38.8939C41.0639 38.8051 41.5686 38.711 42.0733 38.3018ZM47.6908 18.6091C46.8274 18.6278 45.9386 18.6471 45.0058 18.7873C45.0907 18.6269 45.17 18.4861 45.2428 18.357C45.3754 18.1217 45.4861 17.9252 45.5689 17.7193C46.0372 16.5619 45.541 15.9077 44.2755 15.9916C44.196 15.9982 44.1185 16.0108 44.0407 16.0234L44.0406 16.0234L44.0406 16.0234C43.9873 16.032 43.9339 16.0407 43.8796 16.0475C41.6662 16.3382 39.4696 16.4333 37.2228 16.2544C31.8315 15.8294 26.5573 16.6346 21.4058 18.2226C19.6998 18.7482 18.0941 19.5422 16.6111 20.5486C15.6466 21.2029 14.7434 21.9353 14.08 22.9083C13.1043 24.3453 13.4277 25.7823 14.9107 26.6434C14.9753 26.6816 15.0405 26.7179 15.1052 26.754C15.353 26.8921 15.5947 27.0268 15.7804 27.2529C17.1185 28.8465 18.936 29.523 20.8985 29.8641C22.4874 30.1437 24.1042 30.2052 25.6988 30.0654C27.9902 29.8641 30.1366 30.4121 32.2106 31.2229C33.2253 31.6199 34.0114 31.4913 34.8143 30.8818C34.8554 30.8507 34.8964 30.8193 34.9373 30.7879L34.9376 30.7877L34.9379 30.7874C35.3236 30.4917 35.7059 30.1985 36.2248 30.1884C36.6872 30.1799 37.1527 30.1535 37.6185 30.1271L37.6186 30.1271C38.6748 30.0673 39.7322 30.0074 40.7575 30.1549C43.6231 30.5631 45.909 29.6013 47.9161 27.6778C48.3509 27.2641 48.8416 27.018 49.4437 26.9342C53.5973 26.3303 57.7564 25.8662 61.9601 26.3303C62.0006 26.3347 62.0448 26.3404 62.0908 26.3463C62.336 26.3778 62.6347 26.4162 62.7239 26.3079C63.0538 25.8975 63.468 25.8792 63.8871 25.8606C64.0276 25.8544 64.1687 25.8481 64.3073 25.827C66.2307 25.5307 67.3458 23.9203 66.8886 22.0695C66.7827 21.639 66.766 21.393 67.1339 21.0519C67.5911 20.6325 67.6636 19.9951 67.3235 19.4471C66.2475 17.6914 64.7923 16.4612 62.6403 16.3494C61.8876 16.3103 61.135 16.4445 60.3879 16.5843C59.1244 16.816 57.8593 17.0429 56.5938 17.2699L56.5927 17.2701L56.5925 17.2701C54.5303 17.64 52.4671 18.01 50.4082 18.4015C49.5161 18.5694 48.6181 18.5889 47.6908 18.6091ZM44.0788 17.205C43.9705 17.2134 43.861 17.2203 43.7514 17.2273C43.6413 17.2343 43.5312 17.2413 43.4224 17.2496C42.9486 17.2852 42.4743 17.3404 41.9996 17.3956C40.8324 17.5314 39.6632 17.6675 38.4939 17.5124C35.907 17.1714 33.348 17.2888 30.7666 17.5628C27.5553 17.9039 24.4666 18.6979 21.4672 19.8777C19.8448 20.5151 18.3339 21.3706 16.9456 22.433C16.377 22.8691 15.8417 23.3444 15.4459 23.9483C15.0278 24.5969 15.117 24.9548 15.7971 25.3574C15.8982 25.4174 16.0017 25.4735 16.1051 25.5296C16.4353 25.7087 16.7636 25.8868 17.0014 26.1849C17.4976 26.8056 18.1889 27.1019 18.8914 27.3927C20.4525 28.0413 22.0972 28.0972 23.7474 28.0972C24.0095 28.0972 24.2548 28.086 24.4388 27.812C25.1902 26.7118 26.3691 26.4692 27.5389 26.2285L27.5391 26.2285L27.5396 26.2284C27.6715 26.2012 27.8033 26.1741 27.9344 26.1458C28.3191 26.0619 28.7317 26.1066 29.1164 26.2632C29.8579 26.5651 30.0084 27.0236 29.5847 27.7114C29.5252 27.8083 29.4459 27.8953 29.3666 27.9823C29.327 28.0258 29.2873 28.0693 29.2502 28.114C29.2707 28.1308 29.2882 28.1465 29.3037 28.1604C29.3346 28.188 29.358 28.2091 29.384 28.2202C29.446 28.243 29.5087 28.2635 29.5713 28.2839C29.6778 28.3187 29.784 28.3534 29.8858 28.3991C30.7945 28.7906 31.6252 28.9639 32.2385 27.8735C32.3918 27.5996 32.7222 27.4042 33.028 27.2233L33.0281 27.2233C33.0781 27.1937 33.1274 27.1645 33.1752 27.1355C33.9278 26.677 34.0783 26.7105 34.6637 27.4486C34.6834 27.4739 34.7037 27.5049 34.7245 27.5365L34.7245 27.5366L34.7246 27.5367C34.7864 27.6308 34.8521 27.7309 34.9146 27.7058C35.3414 27.5211 35.7973 27.5547 36.2405 27.5873C36.6426 27.6169 37.0344 27.6458 37.3845 27.5101C38.3832 27.1194 39.3495 27.1565 40.3525 27.1951L40.4007 27.197C41.722 27.2529 42.8538 26.8671 43.6622 25.7376C44.1361 25.0722 44.7159 24.4851 45.5187 24.2726C46.4219 24.0266 47.3641 23.9483 48.3008 23.9986C49.3378 24.0545 50.3525 23.9315 51.3449 23.6575C53.3352 23.1096 55.3256 22.7014 57.4051 22.9698C58.1076 23.0592 58.6317 22.8524 59.1 22.2037C60.1091 20.8059 61.4583 20.4424 62.802 21.5104C63.9342 22.4069 64.748 21.9947 65.6412 21.5422L65.6417 21.542L65.6424 21.5416C65.7516 21.4863 65.862 21.4304 65.9743 21.3762C66.0802 21.3259 66.1806 21.2029 66.2196 21.091C66.4649 20.3306 66.0077 19.1452 65.3498 18.5692C64.062 17.4509 62.5845 17.3894 61.0736 17.8479C58.9829 18.4809 56.842 18.8424 54.7022 19.2037L54.7021 19.2037L54.7021 19.2037L54.7021 19.2037L54.702 19.2037L54.702 19.2037L54.702 19.2037L54.7019 19.2037L54.7019 19.2038C53.8175 19.3531 52.9333 19.5024 52.0529 19.6708C50.8264 19.9056 49.5775 20.079 48.3287 19.9671C45.8978 19.7547 43.651 20.3753 41.46 21.3259C41.4058 21.3496 41.3512 21.3747 41.2963 21.3998L41.2962 21.3999L41.2958 21.4001L41.2956 21.4002C40.8202 21.6186 40.3259 21.8456 39.9212 21.2644C39.609 20.8226 39.91 20.448 40.8969 19.9839C42.1977 19.3762 43.2657 18.4906 44.0788 17.205ZM9.1403 28.7123L9.17568 28.7202C9.86417 28.8734 10.4843 29.0114 10.5062 29.825C10.5221 30.2867 10.8543 30.3606 11.1836 30.4338L11.2366 30.4457C11.69 30.549 12.1455 30.646 12.6018 30.7431L12.6019 30.7432L12.602 30.7432L12.602 30.7432L12.6021 30.7432L12.6022 30.7432L12.6023 30.7432L12.6023 30.7433C12.8865 30.8038 13.171 30.8643 13.4555 30.9265C13.505 30.9377 13.5548 30.9483 13.6045 30.9589L13.6047 30.959C14.076 31.0592 14.542 31.1584 14.6932 31.7653C14.7713 32.0734 15.037 32.0478 15.2703 32.0254C15.3037 32.0221 15.3364 32.019 15.3678 32.0169C15.7573 31.9906 16.1442 31.9542 16.5303 31.9179L16.5303 31.9179L16.5304 31.9179L16.5304 31.9179L16.5305 31.9179L16.5305 31.9179L16.5306 31.9179L16.5306 31.9179C16.7193 31.9002 16.9077 31.8824 17.0962 31.8659C18.0886 31.7765 18.9862 31.9498 19.5214 32.8948C19.6998 33.2079 19.8503 33.3477 20.235 33.2862C20.9988 33.1632 21.7738 33.2862 22.4595 33.5937C23.986 34.2765 25.5664 34.2253 27.1457 34.174H27.1457C27.5968 34.1594 28.0479 34.1448 28.4975 34.1473C28.5884 34.1473 28.6793 34.1318 28.7685 34.1166L28.7685 34.1166C28.8106 34.1094 28.8523 34.1023 28.8934 34.0969L28.8937 34.0969C29.3062 34.0466 29.7631 33.9908 29.8189 34.5499C29.8635 35.014 29.4286 35.1258 29.0829 35.1649C27.6166 35.3215 26.1392 35.4557 24.7398 34.8294C24.2325 34.6058 23.7697 34.4436 23.2122 34.6505C22.9545 34.7435 22.6445 34.7315 22.3569 34.7203L22.2867 34.7176C22.2069 34.7141 22.1274 34.7102 22.0483 34.7063C21.1219 34.6608 20.2428 34.6177 19.3541 35.2152C18.5959 35.7241 17.5812 35.6178 16.8732 34.9189C16.4717 34.5219 16.0926 34.3989 15.5797 34.4324C14.9497 34.4772 14.3364 34.343 13.7287 34.192C12.2011 33.8174 11.8666 33.1799 12.4185 31.6255C11.9264 31.5005 11.4444 31.3461 10.9623 31.1917C10.1499 30.9315 9.33755 30.6712 8.47685 30.5519C6.89348 30.3338 6.55896 29.8753 6.64259 28.265C6.65601 27.9869 6.53673 27.8671 6.3998 27.7296L6.39977 27.7296C6.36598 27.6957 6.33113 27.6607 6.29693 27.622C5.36029 26.5596 5.47179 25.5866 6.71507 24.8877C7.34507 24.5354 7.79109 24.1496 7.95277 23.4339C7.99738 23.227 8.13676 23.0257 8.26499 22.8524C8.52145 22.5113 8.87269 22.3268 9.31313 22.3995C9.7703 22.4722 9.99331 22.8021 10.0992 23.2158C10.3446 24.2111 10.2999 25.2008 9.6588 26.0284C9.32428 26.4589 9.14587 26.7944 9.38003 27.32C9.49598 27.5858 9.39934 27.8338 9.29362 28.1052C9.22142 28.2904 9.14499 28.4866 9.12915 28.7067L9.1403 28.7123ZM67.4136 15.2865L67.4127 15.287V15.2814L67.4136 15.2865ZM68.2991 16.327C67.9155 16.1096 67.5264 15.8866 67.4136 15.2865C67.468 15.2621 67.5141 15.2376 67.5542 15.2164C67.6329 15.1747 67.6881 15.1454 67.736 15.1528C69.6706 15.4491 71.3599 16.3606 72.8764 17.5124C73.0633 17.6555 73.2459 17.8203 73.4313 17.9877C73.6662 18.1997 73.9057 18.4159 74.1643 18.5972C74.2178 18.6352 74.2724 18.6727 74.3271 18.7104C74.6426 18.9275 74.9642 19.1487 75.1399 19.4918C75.3239 19.8553 75.2682 20.2187 74.7441 20.2355C74.0305 20.2634 73.3224 20.174 72.6199 20.0342C72.3412 19.9783 72.1293 19.8385 72.0401 19.5477C71.6889 18.3903 70.9083 17.6466 69.8212 17.1546C69.4143 16.9722 69.0243 16.7461 68.6354 16.5206C68.5233 16.4557 68.4114 16.3908 68.2991 16.327ZM66.3033 29.3329C65.0377 29.3553 64.2571 30.0486 63.5379 30.7308C63.0975 31.1501 62.6849 31.3011 62.1386 31.2788C61.9939 31.2742 61.8489 31.2708 61.7037 31.2675C61.3174 31.2586 60.9306 31.2498 60.5496 31.2172C60.0925 31.1781 59.6855 30.988 59.4903 30.5351C59.4011 30.3282 59.4123 30.0878 59.5795 29.9144C59.7078 29.7802 59.875 29.7634 60.0646 29.8529C61.2019 30.4009 61.9992 29.7411 62.7686 29.0589C64.0397 27.935 64.8927 27.9518 66.3088 29.3329H66.3033ZM73.9223 22.5758L74.4431 23.0592C74.3997 23.0407 74.3564 23.0219 74.3132 23.0032L74.313 23.0032C73.8618 22.8078 73.4174 22.6153 72.9545 22.6511C72.4906 22.686 72.1708 22.4519 71.8516 22.2183C71.6605 22.0784 71.4697 21.9387 71.2484 21.8571C71.031 21.7788 70.9641 21.5272 71.0031 21.2923C71.0533 20.9848 71.2819 20.8394 71.5606 20.8226C72.5753 20.7555 73.59 20.694 74.6047 20.6717C75.0842 20.6605 75.48 20.8618 75.5414 21.4097C75.6027 21.9521 75.257 22.2149 74.8054 22.3603C74.7023 22.3934 74.5923 22.402 74.4806 22.4108C74.2914 22.4256 74.0971 22.4408 73.9223 22.5758ZM70.9196 24.0322C71.0028 24.0355 71.0816 24.0369 71.1569 24.0381C71.3339 24.0412 71.4918 24.0439 71.6443 24.0713C71.748 24.0898 71.8851 24.1042 72.0242 24.1188C72.349 24.1529 72.6841 24.1881 72.6256 24.2782C72.3613 24.6653 72.572 24.7827 72.7734 24.8949C72.8949 24.9626 73.013 25.0284 73.0214 25.1505C73.0437 25.4133 72.9545 25.5643 72.7427 25.6817C71.99 26.1178 69.8268 25.9165 69.1689 25.3574C68.9125 25.1393 68.7564 24.8933 68.8344 24.5522C68.9181 24.1943 69.1968 24.0545 69.5257 24.0378C69.8696 24.0219 70.2163 24.0257 70.54 24.0293H70.5401H70.5403H70.5405H70.5407C70.6733 24.0308 70.802 24.0322 70.9251 24.0322H70.9196ZM67.9546 27.8812C67.9589 28.0247 67.9636 28.1834 68.1765 28.388V28.3768C68.3154 28.3403 68.474 28.324 68.6322 28.3077C69.0074 28.2691 69.3808 28.2307 69.4867 27.9239C69.6818 27.3759 70.0219 27.102 70.6909 26.7441C70.4094 26.7441 70.1625 26.7478 69.9378 26.7512H69.9376H69.9375C69.5439 26.757 69.2187 26.7619 68.8957 26.7441L68.8787 26.7432C68.3303 26.7129 68.056 26.6978 67.9396 26.826C67.823 26.9543 67.8645 27.2263 67.9475 27.7704L67.9479 27.7729C67.9525 27.8084 67.9535 27.8443 67.9546 27.8812ZM109.4 43.8542C109.463 44.447 109.025 44.626 108.656 44.7765C108.601 44.7991 108.547 44.8212 108.497 44.8439C108.452 45.2166 108.64 45.3323 108.814 45.4396L108.814 45.4397C108.859 45.4676 108.903 45.4949 108.943 45.526C109.411 45.9007 109.534 46.3424 109.327 46.9183C109.303 46.984 109.275 47.0501 109.247 47.1168C109.106 47.4473 108.961 47.7901 109.244 48.1485C109.244 48.8642 108.846 49.2053 108.051 49.1717C107.404 48.7803 106.712 48.8138 106.01 48.9648C105.748 49.0207 105.458 49.0487 105.308 48.7803C105.14 48.4728 105.268 48.182 105.497 47.9416C105.999 47.3992 106.629 47.2818 107.315 47.4439C107.705 47.539 107.883 47.4104 107.961 47.0357C107.972 46.9875 107.989 46.939 108.006 46.8908L108.006 46.8907C108.062 46.7322 108.116 46.5773 107.928 46.4486C107.772 46.3424 107.588 46.3983 107.437 46.499C107.008 46.8009 106.534 46.8121 106.043 46.7282C105.324 45.6211 105.43 45.3695 107.041 44.6985C106.833 44.6985 106.653 44.7007 106.491 44.7028L106.491 44.7028C106.211 44.7063 105.985 44.7091 105.759 44.6985C104.56 44.637 104.059 43.843 104.633 42.8197C104.683 42.7292 104.736 42.6425 104.788 42.5575C105.062 42.1074 105.306 41.7075 105.001 41.0584C104.783 40.5943 105.374 40.1302 105.904 40.2588C106.531 40.4084 106.803 40.9194 107.073 41.4278L107.074 41.4298C107.097 41.4719 107.119 41.5141 107.142 41.556C107.404 42.0369 107.616 42.5178 107.041 42.9539C107.288 43.0177 107.55 43.0317 107.81 43.0457C108.441 43.0794 109.06 43.1126 109.411 43.8486L109.4 43.8542ZM98.2885 11.8036C98.379 11.9831 98.4644 12.1538 98.5469 12.3189C98.6726 12.5703 98.7917 12.8086 98.9128 13.0448C99.1024 13.4139 99.0355 13.7438 98.7511 14.0177C98.478 14.2861 98.1379 14.3756 97.7699 14.2358C96.9503 13.9339 96.4318 13.3635 96.2813 12.5024C96.1475 11.7308 96.3705 11.1157 97.1064 10.7132C97.8648 10.2961 98.241 9.50439 98.578 8.7953C98.625 8.69634 98.6713 8.599 98.7177 8.5045C99.0367 7.85702 99.5554 7.60997 100.064 7.3675C100.312 7.24982 100.556 7.13321 100.775 6.97243C100.994 6.81136 100.995 6.9482 100.997 7.13977C100.999 7.33394 101.002 7.58434 101.232 7.63782C101.606 7.72728 101.31 8.05718 101.154 8.07396C100.437 8.12657 100.128 8.61709 99.82 9.10652C99.6369 9.39728 99.454 9.68765 99.186 9.88561C99.0689 9.96948 99.0076 10.0981 99.108 10.3217C99.5298 11.2181 99.5096 11.2275 98.6398 11.6305L98.6285 11.6358L98.6281 11.636C98.5517 11.6743 98.4751 11.7127 98.2885 11.8036Z" fill="#0D070B"/>
<path fill-rule="evenodd" clip-rule="evenodd" d="M113.673 1.52961C113.899 1.52589 114.126 1.52217 114.323 1.67737V1.68296C117.796 1.34729 121.285 1.34738 124.775 1.34746L124.943 1.34747C122.619 1.06789 120.282 1.11262 117.952 1.16295C117.596 1.17047 117.239 1.17068 116.882 1.1709C115.645 1.17165 114.406 1.1724 113.191 1.47607C113.344 1.53503 113.508 1.53232 113.673 1.52961ZM105.798 21.3148C105.898 21.2813 105.997 21.2478 106.096 21.2143C106.195 21.1807 106.294 21.1471 106.395 21.1136C107.137 21.3254 107.868 21.5741 108.598 21.8229C109.622 22.1717 110.647 22.5206 111.708 22.7686C113.642 23.2216 115.599 23.5011 117.567 23.7304C118.126 23.7957 118.686 23.8467 119.247 23.8977C120.367 23.9995 121.487 24.1014 122.591 24.3175C122.864 24.4964 123.148 24.4629 123.438 24.3566C129.588 24.8655 135.715 24.5859 141.825 23.7583C142.064 23.9947 142.346 23.9701 142.627 23.9455C142.812 23.9293 142.997 23.9132 143.169 23.9708C141.083 24.5032 138.945 24.6322 136.816 24.7607L136.562 24.776C130.781 25.1227 124.999 24.9773 119.257 24.2336C114.908 23.6745 110.604 22.8469 106.395 21.5888C106.262 21.5494 106.137 21.4847 106.011 21.4198L106.011 21.4198C105.941 21.3834 105.87 21.347 105.798 21.3148ZM100.178 32.0729L100.047 32.0225L100.047 32.0225C97.4817 31.0327 94.9144 30.0423 92.2501 29.3331C88.6708 28.3825 85.0636 27.6165 81.3616 27.3872C81.2278 27.3789 81.0954 27.3649 80.963 27.3509C80.8306 27.3369 80.6982 27.3229 80.5644 27.3145C80.2578 27.2922 80.0626 27.1804 80.1072 26.8225C80.1518 26.487 80.2076 26.1907 80.6592 26.2633C80.8348 26.2913 81.0104 26.3179 81.186 26.3444C81.3616 26.371 81.5373 26.3975 81.7129 26.4255C88.0073 27.432 94.2293 28.7236 100.067 31.4131C100.21 31.4788 100.347 31.5626 100.485 31.6468L100.485 31.6468C100.535 31.6773 100.585 31.7077 100.635 31.7374C100.591 31.7625 100.544 31.7825 100.496 31.8024C100.363 31.8582 100.231 31.9138 100.178 32.0785V32.0729ZM91.0967 32.2336L91.1017 32.2351H91.0961L91.0967 32.2336ZM91.7536 31.5945C91.4879 31.7579 91.2219 31.9215 91.0967 32.2336C88.3832 31.3732 85.6362 30.6581 82.8001 30.3117C82.0813 30.2247 81.3625 30.1941 80.6452 30.1636C80.2554 30.147 79.866 30.1304 79.4773 30.1048C79.4636 30.0734 79.4444 30.0393 79.4263 30.007L79.4261 30.0067L79.426 30.0065L79.426 30.0064C79.3925 29.9469 79.3625 29.8936 79.3769 29.8755C79.5362 29.6848 79.5769 29.4218 79.6161 29.1681C79.6689 28.827 79.719 28.5028 80.0516 28.3938C80.3738 28.29 80.7669 28.3884 81.1561 28.4858C81.3124 28.5249 81.468 28.5638 81.6182 28.5895C82.0485 28.6658 82.4789 28.7411 82.9093 28.8164C85.8532 29.3315 88.7964 29.8465 91.6759 30.6807C91.7324 30.6967 91.7896 30.7097 91.8466 30.7227C92.0486 30.7686 92.2473 30.8138 92.3951 30.9882C92.2665 31.2792 92.0102 31.4367 91.7536 31.5945ZM106.032 46.7339L106.03 46.7358C105.313 45.6318 105.421 45.3744 107.03 44.7097C106.824 44.7097 106.645 44.712 106.484 44.714H106.483C106.203 44.7175 105.974 44.7204 105.748 44.7097C104.549 44.6482 104.047 43.8542 104.622 42.831C104.67 42.7455 104.721 42.6632 104.77 42.5826L104.77 42.5825C105.05 42.1255 105.298 41.7208 104.99 41.0696C104.772 40.6055 105.363 40.1414 105.893 40.2701C106.52 40.4196 106.792 40.9307 107.062 41.4391C107.085 41.4819 107.108 41.5247 107.131 41.5673C107.393 42.0537 107.604 42.529 107.03 42.9652C107.276 43.0289 107.539 43.043 107.799 43.0569C108.429 43.0907 109.049 43.1238 109.4 43.8598C109.874 43.72 110.175 43.3845 110.375 42.9484C109.517 40.5608 107.805 38.8778 105.831 37.4128C105.621 37.5589 105.417 37.7155 105.213 37.8723C104.588 38.3512 103.963 38.8308 103.161 39.012L103.182 39.3143L103.204 39.6227C103.261 40.4368 103.318 41.2509 103.39 42.0649C103.453 42.779 103.498 43.4949 103.542 44.2108V44.2109C103.629 45.6197 103.716 47.0285 103.953 48.4225L104.289 48.1499C104.872 47.678 105.451 47.2089 106.03 46.7358L106.032 46.7394V46.7339ZM114.523 44.3184L114.524 44.32C114.134 44.4433 113.818 44.6875 113.503 44.9321C113.257 45.1227 113.011 45.3135 112.728 45.4479C112.823 48.6686 111.758 51.4643 109.656 53.8911C108.658 55.0429 107.554 56.0662 106.333 56.972C104.505 58.3251 102.548 59.4602 100.502 60.4555C97.8143 61.7639 94.9709 62.6418 92.1275 63.5197C91.8487 63.8133 91.5698 64.1084 91.291 64.4034C91.0123 64.6983 90.7336 64.9931 90.455 65.2866C90.7676 65.3445 91.0636 65.2692 91.361 65.1936L91.4352 65.1748L91.4794 65.1638L91.5031 65.158C95.1437 64.2969 98.6729 63.0723 102.079 61.5235C104.767 60.299 107.303 58.834 109.578 56.9384C111.552 55.2889 113.196 53.3655 114.183 50.9611C115.069 48.8033 115.298 46.5784 114.524 44.32L114.529 44.3184H114.523ZM35.7451 54.3496C39.3802 57.6374 43.6453 59.7846 48.3006 61.2104V61.216C48.9379 60.591 49.6841 60.1198 50.4298 59.649C50.8648 59.3743 51.2997 59.0998 51.7126 58.7949C51.6222 58.7588 51.5318 58.7223 51.4413 58.6856L51.4374 58.6841L51.4352 58.6832L51.4351 58.6832L51.4348 58.683C51.1199 58.5556 50.8035 58.4276 50.4805 58.3196C47.8992 57.4361 45.4349 56.3234 43.0933 54.9143C40.7238 53.4885 38.7558 51.6769 37.3118 49.306C37.2846 49.2619 37.259 49.2164 37.2335 49.1711C37.1071 48.9468 36.9823 48.7254 36.6762 48.6742C35.5242 48.472 34.3691 48.2668 33.2222 48.063L32.0042 47.8467C31.853 48.254 31.9579 48.549 32.0579 48.8302C32.076 48.881 32.0939 48.9313 32.1101 48.9817C32.807 51.1177 34.1005 52.8623 35.7451 54.3496ZM83.0602 63.8153L83.0602 63.8153C85.0385 63.5454 87.0297 63.2738 88.9385 62.6306L88.9441 62.625L88.8917 62.6082C88.6486 62.5309 88.3999 62.4518 88.7378 62.1441C89.0377 61.8702 89.3398 61.5993 89.6417 61.3286L89.6444 61.3262L89.645 61.3256L89.6457 61.325L89.6464 61.3244C90.1624 60.8617 90.6777 60.3997 91.1798 59.9243C91.2571 59.8518 91.3386 59.782 91.4205 59.712C91.7044 59.469 91.9921 59.2228 92.122 58.8451C91.6332 58.9644 91.1451 59.0875 90.6569 59.2105C89.6806 59.4565 88.7044 59.7025 87.7231 59.9187C82.042 61.16 76.2883 61.68 70.4845 61.7136C70.2801 62.1616 69.8932 62.3879 69.5053 62.6148C69.3219 62.722 69.1383 62.8295 68.9736 62.9605C68.7087 63.1722 68.4212 63.3539 68.1336 63.5357C67.7071 63.8052 67.2805 64.0749 66.9275 64.4423C66.991 64.4505 67.0545 64.461 67.1182 64.4715L67.1183 64.4715C67.2281 64.4896 67.3387 64.5079 67.4516 64.5149C72.4693 64.8057 77.4703 64.5988 82.4434 63.8999L82.6937 63.8654L83.0592 63.8155L83.0597 63.8154L83.0602 63.8153ZM109.584 51.3581C110.409 50.0274 111.072 48.6295 111.083 47.0135L111.078 47.0191C110.712 47.0833 110.459 47.3331 110.206 47.583C109.93 47.8553 109.654 48.1277 109.232 48.1598C109.236 48.8718 108.838 49.211 108.039 49.1774C107.307 50.0791 106.424 50.8153 105.54 51.5521L105.54 51.5521C105.064 51.9484 104.589 52.3448 104.137 52.7672C103.136 53.7008 102.102 54.6009 101.068 55.501L101.067 55.5015L101.067 55.5018L101.067 55.5019L101.067 55.502L101.067 55.5021L101.067 55.5023L101.066 55.5024L101.066 55.5025L101.066 55.5026L101.066 55.5028L101.066 55.5029L101.066 55.503L101.066 55.5031L101.065 55.5033L101.065 55.5034L101.065 55.5035L101.065 55.5036L101.065 55.5038L101.065 55.5039L101.065 55.504L101.064 55.5041L101.064 55.5043L101.064 55.5044L101.064 55.5045L101.064 55.5046L101.064 55.5048L101.064 55.5049L101.063 55.505L101.063 55.5051L101.063 55.5053L101.063 55.5054L101.063 55.5055L101.063 55.5057L101.063 55.5058L101.063 55.5059L101.062 55.506L101.062 55.5062L101.062 55.5063L101.062 55.5064L101.062 55.5065L101.062 55.5067C100.029 56.4052 98.9971 57.3037 97.9982 58.2357C97.6953 58.5189 97.3747 58.7833 97.0543 59.0475C96.4195 59.5711 95.7851 60.0942 95.2887 60.7631C99.314 59.5329 103.027 57.6989 106.289 55.0038C107.56 53.947 108.708 52.7728 109.584 51.3581ZM46.2444 62.6069L46.2489 62.6083H46.2433L46.2444 62.6069ZM46.3814 62.4296C46.3362 62.4883 46.2907 62.5471 46.2444 62.6069C40.604 60.8456 35.4541 58.2625 31.4912 53.7066C29.8242 51.7943 28.659 49.6248 28.2353 47.0694C28.5464 46.9174 28.8176 47.0087 29.0815 47.0975L29.0815 47.0975L29.0816 47.0975L29.0816 47.0975L29.0817 47.0975L29.0817 47.0976C29.1866 47.1329 29.2903 47.1678 29.3949 47.1868C29.8298 47.2651 30.0639 47.4888 30.1476 47.9697C30.8333 51.7607 33.1972 54.4223 36.1019 56.698C38.8226 58.834 41.9113 60.3102 45.1171 61.5459C45.4678 61.6803 45.813 61.8286 46.1586 61.9771C46.3018 62.0387 46.4451 62.1003 46.5889 62.161C46.5302 62.2368 46.4728 62.3111 46.4154 62.3856L46.3814 62.4296ZM84.428 66.321L84.4243 66.322C84.5275 66.0669 84.722 65.8828 84.9161 65.6991C85.1238 65.5024 85.3312 65.3062 85.426 65.0238C85.3152 65.0291 85.2038 65.0311 85.0924 65.033H85.0921C84.8505 65.0372 84.6088 65.0415 84.3723 65.0797C80.5532 65.6836 76.7063 65.9352 72.8483 66.0694C71.0561 66.1314 69.2664 66.0508 67.4759 65.9701L67.4756 65.9701L67.4753 65.97L67.475 65.97L67.4747 65.97L67.4744 65.97L67.4742 65.97L67.4739 65.97L67.4736 65.97L67.4733 65.97L67.473 65.97L67.4727 65.9699L67.4724 65.9699L67.4722 65.9699L67.4719 65.9699L67.4716 65.9699L67.4713 65.9699L67.471 65.9699L67.4707 65.9699L67.4704 65.9698L67.4702 65.9698L67.4699 65.9698L67.4696 65.9698L67.4693 65.9698L67.469 65.9698L67.4687 65.9698L67.4684 65.9698L67.4682 65.9698L67.4679 65.9697L67.4676 65.9697L67.4673 65.9697L67.467 65.9697L67.4667 65.9697L67.4664 65.9697L67.4661 65.9697L67.4659 65.9697L67.4656 65.9697L67.4653 65.9696C66.5132 65.9267 65.561 65.8838 64.6081 65.8625C64.4981 66.0901 64.2948 66.1986 64.091 66.3074C63.9643 66.375 63.8375 66.4426 63.7328 66.5391C63.7821 66.5487 63.8315 66.5592 63.8809 66.5697L63.8811 66.5697C64.0045 66.596 64.1279 66.6222 64.2513 66.6342C69.4306 67.2045 74.6212 67.0983 79.8062 66.8355L80.003 66.8249L80.2417 66.8124C81.6421 66.7393 83.0514 66.6657 84.4243 66.322L84.4225 66.3266L84.428 66.321ZM58.3062 61.4249L58.3061 61.425C57.5113 61.9416 56.7155 62.4588 56.0389 63.145C54.0932 62.9381 52.2032 62.4628 50.3522 61.8254C50.4895 61.793 50.6304 61.7914 50.7712 61.7898C51.0194 61.787 51.2675 61.7842 51.4951 61.6129C51.8507 61.3427 52.2271 61.1006 52.6036 60.8582L52.6037 60.8582L52.6038 60.8581L52.6038 60.8581L52.6039 60.858L52.604 60.858L52.604 60.8579L52.6041 60.8579L52.6042 60.8579L52.6042 60.8578L52.6043 60.8578L52.6044 60.8577L52.6044 60.8577L52.6045 60.8576L52.6046 60.8576L52.6047 60.8575L52.6047 60.8575L52.6048 60.8574L52.6049 60.8574L52.6049 60.8573L52.605 60.8573L52.6051 60.8573L52.6051 60.8572L52.6052 60.8572L52.6053 60.8571L52.6053 60.8571L52.6054 60.857L52.6055 60.857L52.6055 60.8569L52.6056 60.8569L52.6057 60.8568L52.6058 60.8568L52.6058 60.8568L52.6059 60.8567L52.606 60.8567L52.606 60.8566C53.2263 60.4574 53.8472 60.0578 54.3775 59.5329C55.2137 59.7258 56.0514 59.9173 56.889 60.1088C57.7267 60.3003 58.5645 60.4918 59.4008 60.6847H59.4064C59.048 60.9427 58.6772 61.1838 58.3062 61.4249ZM49.4942 70.4123L49.4993 70.414H49.4937L49.4942 70.4123ZM49.8181 69.2894C49.7144 69.6539 49.6081 70.0273 49.4942 70.4123C49.2651 70.3344 49.023 70.2756 48.7858 70.2179L48.7858 70.2179C48.1929 70.0737 47.6311 69.937 47.3807 69.5305C47.1323 69.1266 47.3667 68.6437 47.6036 68.1557C47.7175 67.9209 47.8321 67.685 47.8936 67.4561C47.9159 67.3723 47.9438 67.2885 47.9716 67.2047L47.9717 67.2045L47.9733 67.1999C48.2542 66.3999 48.3921 66.0071 48.6566 65.8819C48.9119 65.7612 49.285 65.8896 50.018 66.1418L50.0512 66.1533C50.5028 66.3098 50.698 66.472 50.514 67.0032C50.2581 67.7425 50.044 68.4949 49.8181 69.2893L49.8181 69.2894ZM108.229 36.2945C110.158 37.5694 111.747 39.1798 112.973 41.1424C112.767 41.2878 112.559 41.4317 112.352 41.5757C112.144 41.7197 111.936 41.8637 111.73 42.0091C110.676 39.9458 109.16 38.2404 107.554 36.6077C107.721 36.3784 107.939 36.261 108.229 36.2945ZM97.4241 33.6842C97.7235 33.4993 98.0229 33.3144 98.2714 33.0626C97.5021 32.5769 96.6439 32.302 95.7863 32.0274L95.786 32.0273L95.7857 32.0272L95.7854 32.0271C95.6363 31.9794 95.4873 31.9317 95.3388 31.8828C95.0244 32.0866 94.7085 32.2917 94.3927 32.4968L94.389 32.4992C94.0733 32.7043 93.7576 32.9093 93.4432 33.113C94.4022 33.6498 95.3834 34.125 96.4204 34.4829C96.6932 34.1355 97.0586 33.9099 97.4241 33.6842ZM73.272 71.6721C73.272 71.8493 73.2714 72.026 73.2708 72.2024C73.2695 72.5547 73.2683 72.9062 73.272 73.2601C73.272 73.6459 73.2386 73.9702 72.7312 73.9758C72.2796 73.9758 72.1179 73.7633 72.1235 73.3216C72.1365 72.7312 72.1363 72.1389 72.136 71.5459V71.5449C72.1358 71.1216 72.1356 70.6979 72.1402 70.2742C72.1402 70.1456 72.157 70.0058 72.196 69.8828C72.2908 69.5697 72.4357 69.2901 72.8316 69.3572C73.1549 69.4075 73.2274 69.6815 73.233 69.9499C73.2404 70.3334 73.2379 70.7145 73.2355 71.0964V71.097C73.2342 71.2883 73.233 71.4799 73.233 71.6721H73.272ZM41.2144 66.0135C40.8799 66.7627 41.2813 66.9528 41.85 67.1094V67.115C42.1232 66.6844 42.4577 66.321 42.9316 66.1141C43.1989 65.6357 43.3418 65.1238 43.4834 64.6166C43.5338 64.4361 43.584 64.2563 43.6396 64.0788C43.0988 63.7433 42.6361 63.5532 42.1064 63.4302C42.0087 63.7189 41.9197 64.0017 41.8326 64.2784L41.8326 64.2785L41.8326 64.2786L41.8325 64.279L41.8325 64.279C41.6414 64.8862 41.4595 65.4643 41.2144 66.0135ZM36.4977 62.5188C36.2301 63.3203 36.5349 63.9615 37.4121 64.4423L37.4065 64.4367C37.5403 64.0565 37.6406 63.7658 37.7354 63.4694C37.7734 63.3532 37.8075 63.2363 37.8415 63.1198C37.9073 62.8946 37.9725 62.6711 38.0644 62.4573C38.4722 61.5282 38.4572 61.5202 37.7196 61.128L37.7189 61.1277C37.6399 61.0856 37.5526 61.0392 37.4567 60.9868C37.3905 60.9518 37.3157 60.9344 37.2281 60.9139C37.1754 60.9016 37.1181 60.8882 37.0552 60.8693C36.8657 61.4341 36.6817 61.9765 36.4977 62.5188ZM34.4294 59.1975C34.5034 59.2293 34.5793 59.2608 34.6555 59.2923C35.1817 59.5105 35.7215 59.7342 35.7507 60.1201C35.794 60.6891 35.5802 61.2872 35.3739 61.8643C35.341 61.9563 35.3083 62.0478 35.2768 62.1386C35.1452 62.5127 34.76 62.3889 34.4821 62.2996L34.4684 62.2952C34.028 62.1498 33.6544 61.8926 33.805 61.339C33.9348 60.8464 34.0825 60.3568 34.2435 59.8227L34.2435 59.8226L34.2437 59.8221L34.2437 59.822L34.2437 59.822L34.2441 59.8208C34.3041 59.6219 34.3659 59.4168 34.4294 59.2031V59.1975ZM39.6896 62.2255L39.5363 62.1553L39.5307 62.1497L39.4683 62.3335L39.4683 62.3336L39.4677 62.3351L39.4677 62.3354L39.4675 62.3359L39.4671 62.337C39.2435 62.995 39.0489 63.5677 38.845 64.1403C38.5588 64.9417 38.8766 65.5214 39.7984 65.8792C39.8678 65.6451 39.9353 65.4101 40.0028 65.175L40.003 65.1745L40.003 65.1744L40.003 65.1744L40.003 65.1744L40.003 65.1743L40.0031 65.1743L40.0031 65.1742L40.0031 65.1742L40.0031 65.1742L40.0031 65.1741L40.0031 65.1741L40.0031 65.1741L40.0031 65.174L40.0032 65.174L40.0032 65.174L40.0032 65.1739L40.0032 65.1739L40.0032 65.1739L40.0032 65.1738L40.0032 65.1738L40.0032 65.1738L40.0032 65.1737L40.0033 65.1737L40.0033 65.1737L40.0033 65.1736L40.0033 65.1736L40.0033 65.1736C40.1903 64.5224 40.3775 63.8709 40.6068 63.2344C40.7461 62.8542 40.6848 62.6585 40.3336 62.5131C40.1341 62.4294 39.9346 62.3379 39.6902 62.2258L39.6896 62.2255ZM76.1879 70.7551C76.1927 70.6836 76.1962 70.5995 76.2 70.5064C76.2093 70.279 76.2208 69.9984 76.2604 69.7206C76.305 69.3795 76.528 69.1391 76.8848 69.1727C77.2472 69.2062 77.4256 69.4522 77.3475 69.8213C77.2437 70.3014 77.2968 70.7756 77.3497 71.2485L77.3497 71.2486C77.3849 71.5631 77.42 71.8772 77.4089 72.1921C77.3977 72.5164 77.3698 72.8519 76.9851 72.9022C76.6228 72.9469 76.4165 72.6897 76.3663 72.3542C76.3133 72.0025 76.2782 71.6509 76.237 71.238L76.2369 71.2375L76.2369 71.237L76.2368 71.2368C76.2217 71.0854 76.2058 70.9259 76.1879 70.7551ZM98.8108 67.1858C98.8087 67.0207 98.8066 66.8553 98.8066 66.69H98.8122H98.8623C98.8623 66.5409 98.8617 66.3918 98.8611 66.2427C98.8598 65.9445 98.8586 65.6463 98.8623 65.3481C98.8679 65.0126 98.8177 64.6827 98.4219 64.6491C98.0539 64.6212 97.8198 64.8784 97.8086 65.225C97.7752 66.2539 97.7752 67.2771 97.7919 68.306C97.7919 68.5967 97.9647 68.8148 98.2937 68.8092C98.617 68.8036 98.7843 68.58 98.801 68.2948C98.8203 67.9272 98.8156 67.5569 98.8108 67.1858ZM32.9073 60.9084C31.8183 60.1107 31.5915 59.011 32.2271 57.6094C33.0708 58.0568 33.3961 58.7408 33.2028 59.6615C33.1566 59.8748 33.1052 60.0864 33.0497 60.3151L33.0497 60.3152L33.0495 60.316C33.0047 60.5008 32.9571 60.6968 32.9073 60.914V60.9084ZM94.8131 68.5749L94.8132 68.5767C94.8354 68.8683 94.8576 69.159 94.865 69.4523C94.8705 69.7207 94.826 70.0003 94.5026 70.0674C94.1959 70.1289 93.9618 69.9388 93.8949 69.6815C93.6273 68.6024 93.5715 67.5064 93.7945 66.4161C93.8503 66.1365 94.1402 66.0191 94.4301 66.075C94.6698 66.1197 94.7981 66.3099 94.8036 66.5503C94.8111 66.904 94.8086 67.2552 94.8061 67.6073V67.6079C94.8049 67.7844 94.8036 67.961 94.8036 68.1383H94.7817C94.791 68.2843 94.802 68.4297 94.8131 68.5749ZM54.082 64.2969C54.0458 64.4032 54.0109 64.5081 53.9761 64.613C53.9412 64.7177 53.9064 64.8225 53.8702 64.9287C53.2242 64.7339 52.5692 64.57 51.9141 64.406C50.7824 64.1227 49.6501 63.8393 48.5626 63.3966C48.8413 63.3519 49.0922 63.2401 49.2873 63.0276L50.1187 63.2485C51.4402 63.5997 52.7592 63.9502 54.082 64.2969ZM80.3924 70.4094C80.3948 70.5656 80.3973 70.7218 80.3973 70.8781H80.3805C80.3805 71.0276 80.3793 71.1765 80.378 71.325C80.3756 71.6207 80.3731 71.9148 80.3805 72.2088C80.3861 72.4884 80.4976 72.7456 80.8098 72.7848C81.1945 72.8295 81.3896 72.5723 81.4064 72.2312C81.451 71.2583 81.4733 70.2853 81.4733 69.3124C81.4789 69.0384 81.3562 68.7701 81.0328 68.7421C80.6593 68.7085 80.4307 68.9378 80.4084 69.2845C80.3809 69.6594 80.3866 70.0344 80.3924 70.4094ZM90.6334 68.9994C90.6222 69.1515 90.6129 69.304 90.6035 69.4567L90.6035 69.457C90.5802 69.8373 90.5569 70.218 90.5051 70.593C90.4661 70.867 90.2654 71.0906 89.9588 71.0683C89.6577 71.0515 89.4849 70.8334 89.4904 70.5315L89.4919 70.3C89.4965 69.532 89.5011 68.7607 89.5518 67.9985C89.5741 67.6854 89.7581 67.3946 90.1539 67.4114C90.5721 67.4282 90.6445 67.7245 90.6389 68.0656C90.6389 68.2608 90.6281 68.4538 90.6173 68.6473L90.6172 68.6479L90.6172 68.6485L90.6172 68.6491L90.6172 68.6497C90.6106 68.7658 90.6041 68.8822 90.5999 68.9994H90.6334ZM101.82 65.0169C101.807 65.1246 101.795 65.2214 101.784 65.3034V65.8066C101.784 65.8299 101.784 65.8536 101.784 65.8775L101.783 65.9373V65.9378C101.78 66.2528 101.776 66.5865 102.196 66.6453C102.737 66.718 102.838 66.2875 102.882 65.8793C102.931 65.392 102.966 64.901 103.001 64.4094L103.001 64.4091L103.001 64.4088L103.001 64.4084L103.001 64.4081L103.001 64.4078L103.001 64.4075L103.001 64.4072L103.001 64.4068L103.001 64.4065L103.001 64.4062L103.001 64.4059L103.001 64.4056L103.001 64.4052L103.001 64.4049L103.001 64.4046L103.001 64.4043L103.001 64.404L103.001 64.4036C103.01 64.2824 103.018 64.161 103.027 64.0397C103.049 63.7545 102.971 63.4861 102.676 63.4134C102.336 63.324 102.057 63.4805 101.99 63.844C101.915 64.2642 101.861 64.6908 101.82 65.0169ZM110.075 60.5267C110.075 60.6071 110.076 60.6863 110.077 60.7644V60.7648V60.7653V60.7657V60.7661V60.7665V60.7669V60.7673V60.7677V60.7681V60.7684V60.7688V60.7691V60.7694V60.7697V60.77V60.7703V60.7706C110.079 61.0748 110.081 61.3635 110.074 61.6521C110.069 61.8926 109.929 62.0827 109.689 62.1218C109.394 62.161 109.132 62.0156 109.082 61.7304C108.942 60.8973 108.954 60.053 109.098 59.2254C109.149 58.9179 109.383 58.6439 109.756 58.6998C110.141 58.7557 110.214 59.0633 110.18 59.4044C110.162 59.5986 110.138 59.7929 110.116 59.9731L110.116 59.9735C110.102 60.0784 110.09 60.1785 110.08 60.271H110.074L110.074 60.3576C110.074 60.4146 110.075 60.471 110.075 60.5267ZM104.917 62.7416C104.926 62.9202 104.936 63.116 104.934 63.3362L104.934 63.3352V63.3408L104.934 63.3362C104.935 63.3625 104.936 63.3949 104.937 63.4324V63.4326C104.942 63.6272 104.951 63.9593 104.984 64.2913C105.006 64.5318 105.157 64.7163 105.402 64.7387C105.703 64.7666 105.937 64.5989 105.971 64.3025C106.066 63.4694 106.066 62.6251 105.96 61.7863C105.926 61.5515 105.714 61.4117 105.475 61.4117C105.229 61.4117 105.062 61.5571 104.984 61.7807C104.882 62.0711 104.898 62.3691 104.917 62.7416ZM112.538 57.9728C112.538 58.0336 112.54 58.1041 112.542 58.1812V58.1815C112.545 58.3596 112.55 58.573 112.538 58.7836C112.522 59.0744 112.36 59.3092 112.065 59.3204C111.763 59.3316 111.607 59.08 111.529 58.8172C111.368 58.2468 111.462 57.6821 111.602 57.1285C111.685 56.7874 111.886 56.5638 112.254 56.6365C112.633 56.7091 112.706 56.9999 112.65 57.341C112.622 57.5143 112.594 57.6877 112.544 57.9728H112.538ZM30.4793 57.451C30.7243 56.7034 30.9653 55.9678 29.8354 55.3504C28.9991 57.2795 29.1106 57.5982 30.287 58.1742C30.321 57.9343 30.4004 57.692 30.4793 57.451ZM4.79142 34.455C5.50133 34.7159 5.72992 35.5286 5.47717 36.8929C4.78213 36.5798 4.55354 35.7671 4.79142 34.455ZM27.7389 53.4615C27.8635 54.3183 27.9859 55.1595 28.5865 56.0046C28.9935 53.9525 28.8876 53.5947 27.661 52.9517C27.6895 53.1223 27.7142 53.2922 27.7389 53.4615ZM70.0329 69.0888C69.4475 69.3404 68.8509 69.3739 68.1763 69.3739C68.4997 68.9937 69.1186 68.8987 70.0329 69.0888ZM40.5688 38.8998C41.0503 38.8109 41.5616 38.7165 42.073 38.3019C41.475 38.2127 40.9912 38.3057 40.5346 38.3934L40.5345 38.3934C40.3611 38.4267 40.1917 38.4593 40.0213 38.4808C39.9098 38.492 39.7872 38.6094 39.8597 38.7716C39.9098 38.8946 39.9823 39.0288 40.1329 38.9897C40.2747 38.9541 40.4203 38.9272 40.5688 38.8998ZM64.0798 64.1885L64.08 64.1885C64.7857 64.1493 65.4903 64.1101 66.1636 64.4367C65.2716 64.5094 64.3851 64.4479 63.5154 64.213C63.7032 64.2095 63.8915 64.199 64.0798 64.1885ZM85.1585 66.2707C85.3982 66.0023 85.6993 66.0415 86.0003 66.1198C85.7383 66.2875 85.4595 66.349 85.1585 66.2707ZM99.7934 4.47317C99.9077 4.60688 100.061 4.63357 100.214 4.66025C100.285 4.67262 100.356 4.68499 100.423 4.70801C100.082 4.97052 99.6812 5.09325 99.2825 5.21533C99.0953 5.27268 98.9085 5.32988 98.7285 5.40136C97.619 5.84309 96.5765 6.38547 95.6398 7.12914C95.5785 6.92785 95.4057 6.86634 95.2328 6.80483C96.6099 5.74804 98.1487 5.00436 99.7934 4.47876V4.47317ZM159.131 16.6068C160.017 14.9796 159.694 13.5035 158.562 12.1615C159.032 13.3574 159.068 14.5953 159.104 15.8279C159.111 16.0879 159.119 16.3477 159.131 16.6068ZM130.97 26.9959C131.444 26.8114 131.929 26.9232 132.431 27.1133L130.992 27.3202L130.97 26.9959ZM143.108 23.4956C142.896 23.7975 142.606 23.764 142.305 23.6801C142.533 23.4509 142.812 23.4341 143.108 23.4956ZM143.509 23.9372C143.804 23.6185 144.178 23.6689 144.551 23.7248C144.223 23.8869 143.888 24.0099 143.509 23.9372ZM63.5972 69.2152C63.5161 69.4428 63.4242 69.7011 63.4708 70.1177C63.8107 69.9272 64.2087 69.9187 64.6013 69.9102C65.3033 69.8951 65.9879 69.8804 66.2919 68.8261C66.0695 68.7997 65.857 68.775 65.6513 68.7511C65.2021 68.6989 64.7853 68.6505 64.3684 68.5968C64.0283 68.5521 63.7663 68.6192 63.6659 69.005C63.6472 69.0747 63.6228 69.1434 63.5972 69.2152Z" fill="#FFD9A2"/>
</g>
<defs>
<clipPath id="clip0_6_1290">
<rect width="164.955" height="76" fill="white" transform="translate(0.0970459)"/>
</clipPath>
</defs>
</svg>
