<svg width="187" height="107" viewBox="0 0 187 107" fill="none" xmlns="http://www.w3.org/2000/svg">
<rect x="1.45557" y="0.5" width="159.255" height="90.0615" rx="13.0187" stroke="#0D070B"/>
<g clip-path="url(#clip0_6_1283)">
<path d="M17.0912 15.7815C16.9199 15.4661 16.6721 15.2273 16.3476 15.0651C16.0322 14.8938 15.6582 14.8082 15.2256 14.8082C14.4776 14.8082 13.8782 15.056 13.4276 15.5517C12.977 16.0384 12.7517 16.6918 12.7517 17.5119C12.7517 18.3861 12.986 19.0711 13.4546 19.5668C13.9323 20.0534 14.5857 20.2968 15.4149 20.2968C15.9826 20.2968 16.4603 20.1526 16.8478 19.8642C17.2444 19.5758 17.5328 19.1612 17.713 18.6205H14.7795V16.9171H19.8084V19.0666C19.6372 19.6434 19.3443 20.1796 18.9297 20.6753C18.5242 21.171 18.0059 21.572 17.3751 21.8785C16.7442 22.1849 16.0322 22.3381 15.2391 22.3381C14.3018 22.3381 13.4637 22.1353 12.7246 21.7298C11.9946 21.3152 11.4223 20.7429 11.0078 20.0129C10.6022 19.2829 10.3994 18.4492 10.3994 17.5119C10.3994 16.5746 10.6022 15.741 11.0078 15.011C11.4223 14.272 11.9946 13.6997 12.7246 13.2941C13.4546 12.8795 14.2883 12.6722 15.2256 12.6722C16.3612 12.6722 17.3165 12.9471 18.0916 13.4969C18.8756 14.0466 19.3939 14.8082 19.6462 15.7815H17.0912ZM24.1171 22.3787C23.3781 22.3787 22.7111 22.2209 22.1163 21.9055C21.5305 21.5901 21.0664 21.1394 20.7239 20.5536C20.3904 19.9678 20.2237 19.2829 20.2237 18.4988C20.2237 17.7237 20.3949 17.0433 20.7374 16.4575C21.0799 15.8627 21.5485 15.4075 22.1434 15.0921C22.7382 14.7767 23.4051 14.6189 24.1441 14.6189C24.8831 14.6189 25.5501 14.7767 26.1449 15.0921C26.7397 15.4075 27.2084 15.8627 27.5508 16.4575C27.8933 17.0433 28.0645 17.7237 28.0645 18.4988C28.0645 19.2739 27.8888 19.9588 27.5373 20.5536C27.1948 21.1394 26.7217 21.5901 26.1178 21.9055C25.523 22.2209 24.8561 22.3787 24.1171 22.3787ZM24.1171 20.3779C24.5587 20.3779 24.9327 20.2157 25.2391 19.8912C25.5546 19.5668 25.7123 19.1026 25.7123 18.4988C25.7123 17.895 25.5591 17.4308 25.2527 17.1064C24.9552 16.7819 24.5857 16.6197 24.1441 16.6197C23.6935 16.6197 23.3195 16.7819 23.0221 17.1064C22.7247 17.4218 22.576 17.8859 22.576 18.4988C22.576 19.1026 22.7202 19.5668 23.0086 19.8912C23.306 20.2157 23.6755 20.3779 24.1171 20.3779ZM32.3191 22.3787C31.5801 22.3787 30.9132 22.2209 30.3184 21.9055C29.7325 21.5901 29.2684 21.1394 28.9259 20.5536C28.5925 19.9678 28.4257 19.2829 28.4257 18.4988C28.4257 17.7237 28.597 17.0433 28.9395 16.4575C29.2819 15.8627 29.7506 15.4075 30.3454 15.0921C30.9402 14.7767 31.6071 14.6189 32.3462 14.6189C33.0852 14.6189 33.7521 14.7767 34.3469 15.0921C34.9417 15.4075 35.4104 15.8627 35.7529 16.4575C36.0953 17.0433 36.2666 17.7237 36.2666 18.4988C36.2666 19.2739 36.0908 19.9588 35.7393 20.5536C35.3969 21.1394 34.9237 21.5901 34.3199 21.9055C33.7251 22.2209 33.0581 22.3787 32.3191 22.3787ZM32.3191 20.3779C32.7607 20.3779 33.1347 20.2157 33.4412 19.8912C33.7566 19.5668 33.9143 19.1026 33.9143 18.4988C33.9143 17.895 33.7611 17.4308 33.4547 17.1064C33.1573 16.7819 32.7878 16.6197 32.3462 16.6197C31.8955 16.6197 31.5215 16.7819 31.2241 17.1064C30.9267 17.4218 30.778 17.8859 30.778 18.4988C30.778 19.1026 30.9222 19.5668 31.2106 19.8912C31.508 20.2157 31.8775 20.3779 32.3191 20.3779ZM39.9534 14.6189C40.4851 14.6189 40.9492 14.7271 41.3458 14.9434C41.7514 15.1597 42.0623 15.4436 42.2786 15.7951V14.7271H44.5903V22.257C44.5903 22.9509 44.4506 23.5773 44.1712 24.1361C43.9008 24.7039 43.4817 25.1545 42.914 25.488C42.3552 25.8214 41.6567 25.9881 40.8186 25.9881C39.701 25.9881 38.7953 25.7223 38.1013 25.1905C37.4074 24.6678 37.0108 23.9558 36.9117 23.0546H39.1963C39.2684 23.343 39.4397 23.5683 39.71 23.7305C39.9804 23.9018 40.3139 23.9874 40.7104 23.9874C41.1881 23.9874 41.5666 23.8477 41.846 23.5683C42.1344 23.2979 42.2786 22.8608 42.2786 22.257V21.189C42.0533 21.5405 41.7423 21.8289 41.3458 22.0542C40.9492 22.2705 40.4851 22.3787 39.9534 22.3787C39.3315 22.3787 38.7682 22.2209 38.2635 21.9055C37.7588 21.5811 37.3578 21.1259 37.0604 20.5401C36.772 19.9453 36.6278 19.2603 36.6278 18.4853C36.6278 17.7102 36.772 17.0298 37.0604 16.444C37.3578 15.8581 37.7588 15.4075 38.2635 15.0921C38.7682 14.7767 39.3315 14.6189 39.9534 14.6189ZM42.2786 18.4988C42.2786 17.922 42.1164 17.4669 41.7919 17.1334C41.4765 16.7999 41.0889 16.6332 40.6293 16.6332C40.1697 16.6332 39.7776 16.7999 39.4532 17.1334C39.1377 17.4579 38.98 17.9085 38.98 18.4853C38.98 19.0621 39.1377 19.5217 39.4532 19.8642C39.7776 20.1976 40.1697 20.3644 40.6293 20.3644C41.0889 20.3644 41.4765 20.1976 41.7919 19.8642C42.1164 19.5307 42.2786 19.0756 42.2786 18.4988ZM48.1688 12.2667V22.2705H45.8571V12.2667H48.1688ZM56.5493 18.3771C56.5493 18.5934 56.5358 18.8187 56.5088 19.0531H51.2771C51.3131 19.5217 51.4618 19.8822 51.7232 20.1346C51.9936 20.3779 52.3225 20.4996 52.71 20.4996C53.2868 20.4996 53.6879 20.2562 53.9132 19.7696H56.3736C56.2474 20.2652 56.0176 20.7114 55.6842 21.1079C55.3597 21.5044 54.9496 21.8154 54.454 22.0407C53.9583 22.266 53.404 22.3787 52.7912 22.3787C52.0521 22.3787 51.3942 22.2209 50.8174 21.9055C50.2406 21.5901 49.79 21.1394 49.4656 20.5536C49.1411 19.9678 48.9789 19.2829 48.9789 18.4988C48.9789 17.7147 49.1366 17.0298 49.452 16.444C49.7765 15.8581 50.2271 15.4075 50.8039 15.0921C51.3807 14.7767 52.0431 14.6189 52.7912 14.6189C53.5212 14.6189 54.1701 14.7721 54.7378 15.0786C55.3056 15.385 55.7472 15.8221 56.0627 16.3899C56.3871 16.9577 56.5493 17.6201 56.5493 18.3771ZM54.1836 17.7688C54.1836 17.3722 54.0484 17.0568 53.778 16.8225C53.5076 16.5882 53.1697 16.471 52.7641 16.471C52.3766 16.471 52.0476 16.5836 51.7773 16.809C51.5159 17.0343 51.3537 17.3542 51.2906 17.7688H54.1836Z" fill="black"/>
<rect x="66.4164" y="11.9321" width="80.1696" height="11.6758" rx="5.83792" fill="#F2F2F3"/>
<rect x="9.92291" y="40" width="38" height="4" fill="#D9D9D9"/>
<rect x="9.92291" y="47.7412" width="90" height="4" fill="#A3A3AD"/>
<rect x="9.92291" y="55.4829" width="131" height="4" fill="#D9D9D9"/>
<rect x="9.92291" y="63.2241" width="116" height="4" fill="#D9D9D9"/>
<rect x="9.92291" y="79.2241" width="136.192" height="42.1895" rx="8.72985" fill="#F2F2F3"/>
<rect x="17.4056" y="86.707" width="57" height="4" fill="#0D070B"/>
<rect x="17.4056" y="94.4482" width="116" height="4" fill="#0274D7"/>
<rect x="17.4056" y="102.189" width="108" height="4" fill="#0D070B"/>
</g>
<g clip-path="url(#clip1_6_1283)">
<path d="M136.775 66.7759C136.917 67.3285 137.1 67.6608 137.062 67.9746C136.917 69.2487 137.502 70.2261 138.289 71.1188C138.76 71.6551 139.299 72.129 139.799 72.6442C140.854 73.7297 141.908 74.8153 142.939 75.9234C143.136 76.1382 143.358 76.4346 143.374 76.6991C143.419 77.5265 143.844 78.1258 144.371 78.6889C145.683 80.0918 146.954 81.536 148.319 82.8896C152.818 87.3706 157.342 91.8236 161.88 96.2687C162.642 97.0159 163.499 97.6726 164.306 98.38C165.082 99.0557 165.937 99.1337 166.794 98.6223C168.556 97.5718 169.884 96.0641 170.995 94.3712C171.466 93.6527 171.353 92.9109 170.721 92.3027C169.881 91.4999 168.999 90.7439 168.174 89.9278C162.705 84.5226 157.247 79.0972 151.771 73.696C150.95 72.8868 150.006 72.1893 149.13 71.4347C148.899 71.2343 148.688 71.0045 148.496 70.7682C147.683 69.7585 146.928 68.7011 145.697 68.1234C145.487 68.021 145.359 67.7383 145.185 67.547C144.404 66.6965 143.673 65.7898 142.814 65.0342C142.42 64.6861 141.783 64.5507 141.233 64.4615C140.509 64.3491 140.497 64.4153 139.856 63.7758C140.924 62.0076 142.136 60.3245 143.013 58.4881C146.486 51.2028 146.452 43.7734 143.307 36.4327C140.212 29.2325 135.019 23.9471 127.751 20.8724C120.124 17.6439 112.67 18.1341 105.386 22.1343C100.239 24.9643 96.1953 28.8467 93.642 34.093C89.7297 42.1284 89.8181 50.2608 93.9478 58.1885C98.0169 65.9959 104.4 71.0438 113.117 72.8283C121.185 74.48 128.601 72.7939 135.25 67.9184C135.677 67.6044 136.099 67.2836 136.775 66.7759ZM121.664 25.3832C126.363 26.5515 130.803 29.0327 133.933 32.3036C136.269 34.7495 138.303 37.479 139.164 40.7742C141.36 49.2265 139.183 56.6094 132.68 62.3681C126.504 67.8382 119.15 68.9047 111.44 66.1166C103.693 63.313 99.0963 57.6203 97.6637 49.5454C96.8256 44.8276 97.817 40.2977 99.924 36.0427C101.65 32.5591 104.377 29.9678 107.631 27.8581C112.075 24.9676 116.798 23.9736 121.668 25.39L121.664 25.3832ZM127.086 21.7068C127.819 22.0416 128.524 22.334 129.197 22.6813C133.488 24.8917 136.742 28.2189 139.322 32.2219C142.005 36.3797 143.685 40.9002 143.983 45.8785C144.009 46.3194 143.998 46.7732 143.895 47.197C143.843 47.3912 143.534 47.6327 143.334 47.6429C143.13 47.6463 142.851 47.4329 142.735 47.2399C142.612 47.0278 142.617 46.7284 142.607 46.4653C142.36 41.1883 140.542 36.446 137.557 32.1381C134.835 28.2127 131.446 25.0404 126.935 23.2166C126.647 23.0993 126.346 22.9669 126.115 22.7719C125.722 22.4415 125.851 21.8514 126.339 21.7214C126.583 21.6537 126.857 21.7152 127.09 21.7137L127.086 21.7068ZM149.864 73.603C150.081 73.7883 150.192 73.8701 150.289 73.9652C155.935 79.6376 161.582 85.3101 167.229 90.9825C167.39 91.1411 167.536 91.3075 167.691 91.4646C168.086 91.8533 168.06 92.2513 167.711 92.6439C167.369 93.0325 166.964 92.8956 166.616 92.6811C166.319 92.4918 166.058 92.2313 165.812 91.9805C160.327 86.3975 154.847 80.816 149.377 75.2197C149.114 74.9469 148.928 74.6023 148.65 74.2101C149.128 73.9674 149.476 73.7944 149.865 73.5976L149.864 73.603ZM145.459 69.8296C145.984 70.2301 146.385 70.5051 146.754 70.8176C147.057 71.072 147.321 71.3624 147.657 71.6892C147.298 71.9867 147.002 72.2487 146.682 72.4873C145.241 73.577 145.099 74.0828 143.568 71.9851C143.516 71.9192 143.508 71.8188 143.444 71.605C144.059 71.0637 144.714 70.4866 145.459 69.8296ZM142.148 52.034C142.322 51.5829 142.479 51.0178 142.762 50.5265C142.883 50.3158 143.287 50.1288 143.527 50.164C143.767 50.1992 144.122 50.4965 144.159 50.7261C144.373 52.0035 144.047 53.1947 143.307 54.2406C143.15 54.4589 142.634 54.6101 142.385 54.5206C142.142 54.4325 141.9 53.9921 141.892 53.7006C141.876 53.1759 142.04 52.6528 142.143 52.0325L142.148 52.034ZM139.904 67.7851C140.35 67.0771 140.797 66.514 141.661 66.2358C142.363 66.8398 143.075 67.452 143.86 68.136C143.281 68.3919 142.869 68.5422 142.483 68.7458C141.157 69.4499 141.155 69.4553 140.279 68.3131C140.171 68.1744 140.077 68.0279 139.899 67.7836L139.904 67.7851Z" fill="#0D070B"/>
</g>
<defs>
<clipPath id="clip0_6_1283">
<rect width="179.347" height="106.145" fill="white" transform="translate(0.955566)"/>
</clipPath>
<clipPath id="clip1_6_1283">
<rect width="90.9823" height="65.9919" fill="white" transform="matrix(0.966133 0.258043 -0.259597 0.965717 98.7931 12.8491)"/>
</clipPath>
</defs>
</svg>
