<svg width="201" height="280" viewBox="0 0 201 280" fill="none" xmlns="http://www.w3.org/2000/svg">
<g clip-path="url(#clip0_1_789)">
<path d="M78.6897 188.861C79.8359 189.15 80.7052 189.587 81.5552 190.076C82.3408 190.532 82.9719 191.13 83.3454 191.94C84.3628 194.138 85.2193 196.369 85.3287 198.844C85.4318 201.158 85.1871 203.279 83.0942 204.751C85.303 206.706 86.4427 209.065 86.6295 211.829C86.8227 214.644 85.8053 216.946 83.1715 218.501C85.6958 220.276 85.8954 222.86 86.1272 225.437C86.3784 228.189 85.6056 230.516 83.1586 232.245C84.1696 232.907 84.7556 233.794 85.3931 234.649C86.9837 236.802 87.3958 239.226 87.0352 241.816C86.8935 242.813 86.4299 243.668 85.7859 244.42C85.0132 245.32 84.2018 246.213 83.2102 246.856C80.4734 248.617 78.5223 251.15 76.3908 253.516C75.6696 254.319 75.0192 255.187 74.3431 256.023C72.5465 258.253 70.3184 259.976 67.9552 261.564C63.3446 264.662 58.354 266.912 52.9578 268.249C51.7665 268.545 50.7619 269.053 49.9892 270.036C49.2809 270.936 48.36 271.585 47.3748 272.17C46.2286 272.852 45.1146 273.604 43.9941 274.324C42.9445 274.999 42.0172 275.796 41.2445 276.779C39.435 279.094 36.9365 280.013 34.116 280.257C33.8134 280.283 33.485 280.276 33.2016 280.193C32.4675 279.974 32.2164 279.254 32.6092 278.599C32.8282 278.232 33.1823 278.02 33.5365 277.808C36.3763 276.124 39.0551 274.24 41.4183 271.907C43.4339 269.921 44.3805 267.516 44.6767 264.784C44.7153 264.431 44.6509 264.058 44.696 263.705C44.857 262.483 45.8036 261.68 47.04 261.776C48.1669 261.866 49.2873 262.072 50.4078 262.168C52.8612 262.38 55.218 261.995 57.5104 261.075C59.5195 260.272 61.5029 259.43 63.3768 258.343C66.3453 256.621 68.9146 254.441 70.9624 251.664C71.3294 251.169 71.748 250.7 72.0507 250.173C73.184 248.18 74.9355 247.055 77.0605 246.335C78.5738 245.821 79.984 245.095 81.1238 243.899C83.6802 241.212 84.2533 238.05 82.7594 234.655C82.3215 233.665 81.3363 233.37 80.0098 233.852C78.606 234.36 77.2215 234.9 75.8242 235.42C74.3817 235.96 72.9007 236.359 71.4003 236.706C71.1556 236.237 71.5677 236.147 71.7738 236.012C72.5014 235.53 73.2097 234.97 74.0082 234.655C75.7662 233.968 77.1378 232.721 78.6575 231.686C81.5424 229.719 82.2571 224.878 80.4927 221.773C80.2416 221.336 79.8874 221.105 79.4173 220.983C78.4257 220.719 77.4855 220.841 76.5582 221.253C75.148 221.876 73.7442 222.513 72.3211 223.104C71.8639 223.29 71.4325 223.657 70.7628 223.464C71.7287 222.313 72.9007 221.516 74.1757 220.918C76.3522 219.903 78.2067 218.443 79.9905 216.894C82.0317 215.127 83.2359 212.947 83.0427 210.138C82.9848 209.303 82.8367 208.505 82.5211 207.747C81.8192 206.024 80.9113 205.703 79.1469 206.326C75.1287 207.741 71.0912 209.09 67.0537 210.466C67.0279 210.473 66.9828 210.428 66.9313 210.389C67.176 209.817 67.7556 209.643 68.2192 209.36C70.634 207.863 73.2033 206.641 75.8628 205.703C80.042 204.224 81.4715 200.174 80.9628 196.723C80.7117 194.993 80.57 193.258 79.4817 191.76C79.1211 191.265 78.7412 190.989 78.1745 190.802C76.4681 190.243 74.781 190.68 73.1325 190.963C68.4446 191.766 63.9692 193.296 59.5968 195.135C59.3135 195.25 59.0301 195.392 58.7854 195.578C55.1536 198.4 50.8714 200.175 47.1172 202.797C45.5138 203.916 43.6464 204.584 41.8562 205.368C41.2123 205.651 40.343 206.043 39.9115 205.246C39.4221 204.34 40.4202 204.057 40.9805 203.71C44.3354 201.634 47.0528 198.998 48.6884 195.328C49.2036 194.164 49.8604 193.026 51.0517 192.358C51.3994 192.165 51.3994 191.921 51.3028 191.593C50.807 189.825 50.3241 188.057 49.7896 186.122C48.2119 187.222 46.7309 188.199 45.4816 189.478C43.7558 191.252 42.1589 193.136 40.6971 195.128C36.9172 200.264 33.1115 205.375 29.3766 210.543C26.6206 214.355 24.7402 218.643 22.7891 222.892C20.1747 228.587 17.9853 234.463 15.4868 240.203C13.9027 243.835 11.9966 247.3 10.0841 250.765C8.397 253.824 6.65836 256.852 4.93259 259.893C3.91517 261.68 2.88486 263.467 1.17197 264.727C0.843564 264.971 0.55379 265.292 0 264.984C0.367047 263.402 1.03675 261.917 1.84167 260.51C4.43032 255.952 6.6326 251.195 9.15685 246.599C11.8807 241.643 14.0701 236.43 16.2402 231.216C18.6743 225.386 20.9603 219.491 23.9482 213.912C26.4531 209.245 29.1834 204.694 32.3516 200.451C34.6248 197.404 37.207 194.595 39.538 191.586C41.2896 189.33 43.2922 187.37 45.4945 185.576C46.2994 184.92 47.1301 184.303 48.1153 183.975C48.9396 183.699 49.0426 183.333 48.8108 182.51C47.2653 176.969 45.7971 171.408 44.2774 165.861C37.1426 139.756 30.0463 113.644 23.008 87.5137C19.1508 73.1852 15.2035 58.8824 11.6038 44.4832C11.4944 44.059 11.2883 43.789 10.9856 43.4869C10.0262 42.5226 10.1034 41.1791 11.0951 40.2149C13.1364 38.2222 17.0516 37.6243 19.5501 38.9678C19.9171 39.1671 20.1747 39.1992 20.5224 39.0128C23.0274 37.7079 25.7384 37.1936 28.5073 36.7887C30.6452 36.4737 32.7058 35.7859 34.7986 35.2652C39.5509 34.0824 44.3998 33.4396 49.2036 32.5589C56.4995 31.2283 63.8533 30.3347 71.2006 29.3898C80.6924 28.1684 90.1841 26.9214 99.6178 25.2693C107.487 23.8873 115.221 22.0745 122.845 19.6639C130.636 17.2019 138.557 15.1256 146.394 12.7857C155.963 9.92518 165.261 6.3061 174.405 2.29489C175.442 1.83849 176.421 1.26638 177.361 0.636413C177.618 0.462852 177.863 0.263577 178.146 0.154298C179.183 -0.231395 179.988 0.147869 180.291 1.20852C180.767 2.88629 181.257 4.57048 181.617 6.27395C183.42 14.817 185.249 23.3473 187.117 31.8775C189.036 40.6585 190.665 49.4972 192.403 58.3167C193.994 66.3777 195.655 74.4258 197.123 82.5125C198.482 89.9885 199.616 97.5096 200.878 105.005C201.006 105.789 200.845 106.406 200.388 107.01C199.828 107.756 199.184 108.418 198.456 108.997C196.924 110.218 195.295 111.298 193.537 112.166C186.653 115.547 179.428 117.848 171.829 118.96C164.836 119.983 157.804 120.471 150.753 120.799C141.081 121.249 131.403 121.583 121.724 121.737C120.321 121.757 118.962 122.097 117.616 122.412C111.556 123.814 105.452 125.08 99.4697 126.784C85.8117 130.66 72.3404 135.121 59.1976 140.514C58.4377 140.829 57.6779 141.144 56.9245 141.479C54.0589 142.732 51.3286 144.326 48.1089 144.943C48.8494 147.714 49.5578 150.388 50.279 153.056C52.6616 161.83 55.0441 170.598 57.4332 179.366C57.4976 179.617 57.6006 179.855 57.6457 180.106C57.7358 180.575 57.929 180.774 58.4828 180.736C62.7006 180.433 66.9249 180.787 71.1427 180.697C72.3919 180.671 73.6026 180.459 74.8196 180.253C75.8435 180.08 76.8738 180.112 77.8912 179.951C79.1726 179.746 79.8745 180.427 80.0484 181.616C80.2931 183.307 80.57 185.055 79.8488 186.752C79.5461 187.459 79.1469 188.102 78.6833 188.88L78.6897 188.861ZM76.9704 185.57C75.2639 185.942 73.5768 186.29 71.7866 186.007C70.8465 185.859 70.4344 185.396 70.151 184.638C69.945 184.078 69.8934 183.5 70.1768 182.645C70.6018 183.564 70.9173 184.245 71.2264 184.927C71.3874 185.287 71.5806 185.525 72.0378 185.441C73.2999 185.216 74.6071 185.12 75.7919 184.612C77.0605 184.072 78.0844 183.217 78.7734 181.745C71.8253 182.497 65.1412 183.133 58.3154 182.433C58.9722 185.062 59.5904 187.594 60.2472 190.114C60.4211 190.789 60.8783 190.899 61.4063 190.455C62.4624 189.574 62.7006 188.449 62.4817 187.119C62.3078 186.045 62.984 185.428 64.0078 185.608C64.3491 185.666 64.6775 185.859 64.9866 186.032C68.9662 188.244 72.9586 187.954 76.9704 186.116C77.376 185.955 77.7431 185.737 77.962 185.37C77.7689 185.152 77.6143 185.216 77.4855 185.267C77.3052 185.345 77.1378 185.467 76.9639 185.563L76.9704 185.57ZM73.6927 128.68C74.6071 127.542 75.8306 126.925 77.067 126.366C86.9965 121.853 97.5572 120.002 108.311 118.948C112.11 118.575 115.929 118.703 119.735 118.549C133.573 117.971 147.418 117.411 161.217 116.171C166.092 115.734 170.954 115.206 175.738 114.152C183.639 112.41 191.09 109.53 198.07 105.423C198.682 105.063 198.811 104.696 198.695 104.06C198.334 102.086 198.012 100.113 197.677 98.1395C195.971 88.1115 194.213 78.0964 192.255 68.1133C189.924 56.2147 187.497 44.3418 185.146 32.4432C184.451 28.9141 183.562 25.4236 182.931 21.8881C181.862 15.8648 180.445 9.91875 179.009 3.97265C178.926 3.61267 178.984 3.13699 178.423 2.87343C175.873 4.58333 172.905 5.48971 170.097 6.7625C162.119 10.3752 153.941 13.4735 145.537 15.9548C137.643 18.2819 129.703 20.4803 121.814 22.8073C113.45 25.2757 104.982 27.1399 96.3917 28.5606C88.3166 29.8976 80.1772 30.7976 72.07 31.9032C64.3749 32.9575 56.6411 33.761 49.0169 35.3295C44.7346 36.2101 40.4267 36.9365 36.1702 37.9843C33.53 38.6336 30.9092 39.4628 28.1725 39.6492C25.3777 39.8421 22.6861 40.4656 20.033 41.3591C20.0459 41.5134 20.033 41.6741 20.0781 41.8155C22.0936 49.0408 24.1478 56.2533 26.1312 63.485C32.9119 88.2594 39.3255 113.137 46.1964 137.885C46.7051 139.717 47.1752 141.562 47.7096 143.381C47.9415 144.172 48.1089 144.21 48.7528 143.671C49.429 143.111 50.0858 142.539 50.865 142.121C53.1316 140.9 55.3919 139.672 57.768 138.676C69.4556 133.778 81.4007 129.625 93.5648 126.089C94.5049 125.819 95.4386 125.53 96.3466 125.177C96.9905 124.926 97.6602 124.643 98.0144 123.711C96.3337 123.505 94.7689 123.454 93.2041 123.737C88.0333 124.662 82.9204 125.852 77.8976 127.401C76.4939 127.831 75.0965 128.262 73.6927 128.693V128.68ZM19.0349 42.1112C17.8823 42.5291 16.9292 42.934 15.944 43.2169C15.3387 43.3904 15.2292 43.6926 15.3966 44.2261C15.6864 45.1582 15.9762 46.0903 16.2467 47.0288C19.8978 59.7695 23.2463 72.5938 26.7687 85.3667C32.1327 104.831 37.5289 124.283 42.9123 143.741C43.421 145.58 43.4403 145.58 45.2498 144.879C46.2479 144.493 46.2672 144.487 45.9968 143.452C44.9793 139.576 43.9426 135.706 42.9316 131.83C35.771 104.343 27.9471 77.0357 21.0054 49.4908C20.3936 47.061 19.7175 44.6439 19.0349 42.1048V42.1112ZM46.7244 146.229C45.8551 146.46 45.1661 146.653 44.4642 146.814C44.0327 146.917 43.846 147.129 44.0005 147.579C44.0843 147.823 44.1293 148.074 44.2002 148.325C47.993 161.972 51.657 175.644 54.7801 189.465C55.1472 191.104 55.8877 191.651 57.562 191.574C58.7146 191.516 58.8112 191.4 58.515 190.294C55.5207 179.045 52.5199 167.796 49.5191 156.546C48.6047 153.133 47.671 149.726 46.7244 146.229Z" fill="#0D070B"/>
<path fill-rule="evenodd" clip-rule="evenodd" d="M75.7949 128.034C75.0949 128.249 74.3948 128.465 73.6931 128.68V128.667C74.6075 127.529 75.831 126.919 77.0673 126.353C86.9969 121.84 97.5576 119.989 108.311 118.935C110.712 118.699 113.121 118.666 115.53 118.634C116.932 118.614 118.334 118.595 119.735 118.536L120.89 118.488C134.344 117.926 147.802 117.364 161.218 116.158C166.086 115.721 170.954 115.194 175.739 114.139C183.64 112.397 191.09 109.517 198.07 105.41C198.689 105.043 198.811 104.683 198.695 104.047C198.426 102.581 198.179 101.109 197.932 99.6368C197.848 99.1332 197.763 98.6298 197.678 98.1267C195.971 88.0987 194.213 78.0835 192.256 68.1005C191.007 61.729 189.73 55.3631 188.452 48.9977C187.344 43.4759 186.235 37.9545 185.147 32.4304C184.848 30.9133 184.513 29.4034 184.178 27.894C183.735 25.892 183.291 23.891 182.931 21.8752C181.862 15.8456 180.446 9.89949 179.01 3.95982C178.991 3.88691 178.979 3.80882 178.966 3.7284C178.917 3.41883 178.863 3.07491 178.424 2.8606C176.657 4.04512 174.69 4.84404 172.714 5.64628C171.838 6.00211 170.96 6.35859 170.098 6.74966C162.119 10.3623 153.941 13.4607 145.538 15.942C141.59 17.1055 137.633 18.2369 133.676 19.3682C129.719 20.4996 125.762 21.631 121.815 22.7945C113.45 25.2629 104.982 27.1271 96.392 28.5477C90.895 29.4528 85.3742 30.1616 79.8539 30.8704C77.2584 31.2036 74.6631 31.5368 72.0704 31.8904C70.1751 32.1498 68.2783 32.3941 66.3819 32.6383C60.5719 33.3864 54.7653 34.1341 49.0172 35.3166C47.6272 35.6025 46.2345 35.8721 44.8417 36.1417C41.9437 36.7027 39.0454 37.2638 36.1706 37.9715C35.6097 38.1097 35.0492 38.2562 34.4877 38.4028C32.4129 38.9448 30.3268 39.4897 28.1728 39.6364C25.3846 39.8292 22.6929 40.4528 20.0334 41.3463C20.0372 41.3936 20.0393 41.4403 20.0414 41.4863C20.0464 41.5966 20.0512 41.7029 20.0785 41.8027C20.7971 44.3787 21.5206 46.9531 22.244 49.5273C23.5498 54.1733 24.8553 58.8188 26.1316 63.4722C29.1507 74.5031 32.0971 85.5543 35.0434 96.6055C38.7143 110.374 42.3852 124.143 46.1968 137.872C46.3865 138.556 46.5709 139.24 46.7553 139.924C47.0651 141.074 47.3749 142.224 47.71 143.368C47.9419 144.159 48.1093 144.191 48.7532 143.658C48.8125 143.609 48.8717 143.56 48.9308 143.51C49.5465 142.999 50.1604 142.49 50.8654 142.109L51.0868 141.989C53.2794 140.807 55.4697 139.627 57.7684 138.663C69.4495 133.765 81.4011 129.618 93.5651 126.077C94.4989 125.8 95.439 125.517 96.347 125.164C96.9909 124.913 97.667 124.63 98.0148 123.698C96.3341 123.492 94.7693 123.441 93.2045 123.724C88.0337 124.656 82.9208 125.839 77.898 127.388C77.1959 127.603 76.4954 127.819 75.7949 128.034ZM102.105 80.2277C102.109 80.2286 102.113 80.2296 102.117 80.2305L102.104 80.237C102.104 80.2339 102.105 80.2308 102.105 80.2277ZM101.476 79.7285C101.579 79.9172 101.691 80.1225 102.105 80.2277C103.413 71.3668 106.78 63.3216 110.984 55.5334C115.124 47.8709 119.819 40.5813 124.919 33.5296C125.595 32.5911 126.297 32.1989 127.507 32.5204C128.086 32.6739 128.664 32.8256 129.243 32.9772C133.29 34.0378 137.33 35.0966 141.178 36.7951C142.627 37.4315 142.666 37.5536 141.764 38.9164C141.293 39.6243 140.822 40.3316 140.35 41.039C137.086 45.9333 133.82 50.8297 130.849 55.9126C125.659 64.79 120.546 73.7123 116.238 83.059C112.639 90.8564 109.509 98.8466 106.489 106.875C106.44 107.007 106.399 107.147 106.359 107.289C106.199 107.846 106.036 108.415 105.291 108.476C104.493 108.541 104.245 107.958 104.005 107.395C103.96 107.291 103.916 107.187 103.868 107.088C101.415 102.022 98.311 97.3617 94.8144 92.9648C89.4375 86.2023 83.1333 80.3977 76.1208 75.3515C75.992 75.2615 75.8696 75.1715 75.7473 75.0751C74.073 73.7895 74.0601 73.6609 75.1484 71.8224L75.1896 71.753C77.1978 68.3692 79.2042 64.9885 81.8711 62.058C82.1026 61.8036 82.3016 61.571 82.4793 61.3632C83.6714 59.9698 83.9059 59.6957 86.5397 61.4859C89.167 63.2665 91.1954 65.6771 93.211 68.0812C96.2633 71.7067 99.0193 75.5444 101.421 79.6327C101.44 79.6638 101.458 79.6959 101.476 79.7285ZM19.7426 44.7382C19.5085 43.8737 19.2718 43 19.0352 42.1113V42.1177C18.6509 42.2563 18.2899 42.3934 17.9431 42.5251C17.2441 42.7907 16.6028 43.0343 15.9443 43.2234C15.339 43.4034 15.2295 43.6991 15.3969 44.2326C15.6931 45.1647 15.9765 46.0968 16.2469 47.0353C18.573 55.1521 20.7762 63.3003 22.9798 71.4498C24.2352 76.0923 25.4906 80.7353 26.7689 85.3731C30.5732 99.1779 34.3937 112.976 38.2143 126.775C39.7808 132.432 41.3472 138.09 42.9126 143.748C43.4213 145.593 43.4406 145.586 45.2501 144.886L45.2528 144.884C46.2482 144.5 46.2673 144.492 45.997 143.458C45.5559 141.778 45.1111 140.098 44.6664 138.419C44.0854 136.225 43.5045 134.032 42.9319 131.836C39.858 120.037 36.6619 108.27 33.4658 96.5041C29.2166 80.8609 24.9674 65.2178 21.0057 49.4973C20.6038 47.9179 20.1775 46.3439 19.7426 44.7382Z" fill="#07CBAD"/>
<path d="M102.116 80.2305C103.423 71.3659 106.784 63.3114 110.996 55.5268C115.136 47.8644 119.83 40.5748 124.93 33.5231C125.607 32.5846 126.308 32.186 127.519 32.5138C132.136 33.7416 136.792 34.8537 141.19 36.7886C142.639 37.425 142.677 37.5536 141.776 38.9099C138.054 44.5217 134.261 50.0886 130.861 55.9061C125.671 64.7835 120.558 73.7058 116.25 83.0524C112.657 90.8499 109.527 98.8401 106.501 106.869C106.256 107.518 106.243 108.386 105.303 108.47C104.356 108.547 104.189 107.711 103.88 107.081C101.427 102.009 98.3227 97.3488 94.8261 92.9583C89.4428 86.1958 83.145 80.3912 76.1325 75.345C76.0102 75.255 75.8814 75.165 75.759 75.0686C74.0848 73.783 74.0655 73.6544 75.1602 71.8159C77.1821 68.409 79.1977 65.002 81.8829 62.0515C83.6666 60.0973 83.5185 59.4288 86.5515 61.4794C89.1788 63.26 91.2008 65.6706 93.2227 68.0747C96.2686 71.7066 99.0311 75.5443 101.433 79.6262C101.555 79.8383 101.633 80.1019 102.128 80.224L102.116 80.2305Z" fill="white"/>
</g>
<defs>
<clipPath id="clip0_1_789">
<rect width="201" height="280" fill="white"/>
</clipPath>
</defs>
</svg>
