<svg width="227" height="101" viewBox="0 0 227 101" fill="none" xmlns="http://www.w3.org/2000/svg">
<path fill-rule="evenodd" clip-rule="evenodd" d="M45.483 12.7082C44.9397 12.9599 44.6001 12.9027 44.5096 12.8798C44.9624 12.2393 45.2227 11.4501 45.2227 10.5922C45.2227 8.40762 43.4682 6.63477 41.3062 6.63477C39.1442 6.63477 37.3784 8.40762 37.3784 10.6037C37.3784 12.7883 39.1329 14.5726 41.3062 14.5726C41.8495 14.5726 42.3589 14.4582 42.8343 14.2638C44.1021 14.95 45.9471 14.5497 46.4678 14.035C46.1735 13.8406 45.6528 13.1886 45.483 12.7082ZM41.3062 12.651C40.1856 12.651 39.28 11.736 39.28 10.6037C39.28 9.47134 40.1856 8.55631 41.3062 8.55631C42.4268 8.55631 43.3324 9.47134 43.3324 10.6037C43.3324 11.736 42.4268 12.651 41.3062 12.651ZM66.5937 8.09844C65.6655 8.09844 65.0995 8.65889 65.0995 8.65889V6.86316H63.3224V13.8402H65.0429V13.3941L65.0442 13.3955L65.0494 13.4016L65.0494 13.4016C65.1119 13.476 65.5815 14.0346 66.8088 14.0346C67.5785 14.0346 69.4122 13.2798 69.4122 11.1866C69.4236 9.60823 68.4727 8.09844 66.5937 8.09844ZM66.3107 12.3762C65.5863 12.3762 65.0429 11.8157 65.0316 11.0608C65.0203 10.3288 65.575 9.74548 66.2881 9.74548C67.0125 9.73404 67.5785 10.2945 67.5898 11.0494C67.5898 11.7928 67.0465 12.3647 66.3107 12.3762ZM62.7112 8.23571H60.8095C60.7642 8.37296 60.1077 10.2831 60.0511 10.4432C60.0285 10.3974 59.3606 8.68178 59.1908 8.23571H57.1873C57.301 8.49888 57.5502 9.05513 57.8352 9.69116L57.8352 9.69118L57.8353 9.69142L57.8357 9.69213C58.43 11.0186 59.1795 12.6915 59.1795 12.7765C59.1795 12.9023 58.6362 14.0461 57.5608 13.5543V15.1899C57.7646 15.2471 59.7794 15.6817 60.7076 13.3713C60.968 12.7307 62.6432 8.43015 62.7112 8.23571ZM54.5838 8.85337C55.263 8.00697 55.9535 7.96122 56.5534 8.12135V9.8942C56.5308 9.88277 54.6518 9.15075 54.6518 11.4612V13.8402H52.8633V8.20142H54.5838V8.85337ZM47.9507 8.20141C49.5354 7.77822 50.3844 8.73899 50.3844 8.73899V8.23573H52.0709L52.0709 13.8402H50.3957L50.3957 13.4056C49.1053 14.4579 47.7356 14.0118 47.0338 13.4399C46.5018 13.0053 46.1962 12.4334 46.0603 11.7586C45.9132 10.9808 45.9811 10.2145 46.3547 9.50532C46.7056 8.85337 47.2602 8.38442 47.9507 8.20141ZM47.7809 11.038C47.7583 11.7814 48.3129 12.3762 49.0487 12.3876C49.7731 12.3991 50.3504 11.8158 50.373 11.0723C50.3844 10.3746 49.8184 9.76839 49.1166 9.75695C48.3695 9.73408 47.7922 10.2831 47.7809 11.038Z" fill="#0D070B"/>
<rect x="75.2419" y="7.35059" width="115.084" height="7.19276" rx="3.59638" fill="#F2F2F3"/>
<rect x="27.7964" y="0.308019" width="175.531" height="99.7981" rx="8.02" stroke="#0D070B" stroke-width="0.616038"/>
<rect x="190.43" y="60.0639" width="35.7302" height="32.034" rx="5.85236" fill="white" stroke="#0D070B" stroke-width="0.616038"/>
<g clip-path="url(#clip0_6_1300)">
<path fill-rule="evenodd" clip-rule="evenodd" d="M202.842 80.3761C202.865 79.8878 202.676 79.3734 202.37 78.9486C201.627 77.9135 201.2 76.7047 201.2 75.4133C201.2 71.5857 204.951 68.4829 209.579 68.4829C210.219 68.4829 210.842 68.5422 211.441 68.6546C211.45 68.2624 211.512 67.3474 211.687 66.8253C210.999 66.7 210.293 66.6348 209.579 66.6348C204.255 66.6348 199.338 70.2639 199.338 75.4133C199.338 77.1219 199.905 78.7009 200.854 80.0215C200.898 80.082 200.931 80.1427 200.953 80.1964C200.956 80.2035 200.958 80.2103 200.961 80.2168C200.828 80.3747 200.717 80.4872 200.636 80.5567C200.525 80.5911 200.228 80.6983 199.947 80.9517C199.749 81.1308 199.419 81.5115 199.35 82.1076C199.278 82.7301 199.532 83.204 199.736 83.462C200.046 83.8536 200.433 84.0066 200.483 84.0265L200.488 84.0282C200.671 84.1041 200.831 84.1339 200.862 84.1395L200.865 84.1401C200.923 84.1511 200.972 84.1578 201.003 84.1618C201.119 84.1763 201.243 84.1834 201.348 84.1872C201.577 84.1955 201.89 84.1941 202.254 84.1704C202.967 84.124 203.987 83.9851 205 83.5967C205.311 83.4776 205.555 83.4919 205.687 83.5382C206.893 83.9614 208.208 84.1918 209.579 84.1918C214.903 84.1918 219.821 80.5628 219.821 75.4133C219.821 74.7288 219.734 74.0713 219.571 73.4455C218.998 73.7193 218.136 73.9076 217.776 73.9675C217.896 74.4338 217.958 74.9175 217.958 75.4133C217.958 79.2409 214.207 82.3437 209.579 82.3437C208.419 82.3437 207.313 82.1486 206.308 81.7958C205.671 81.5721 204.96 81.6309 204.33 81.8726L204.322 81.8755C204.098 81.9608 203.871 82.0313 203.647 82.0891C203.448 82.1407 203.25 82.1823 203.059 82.2157C202.101 82.3837 201.306 82.346 201.21 82.3238C201.197 82.321 201.196 82.3184 201.208 82.3165C201.578 82.2595 202.068 81.8169 202.532 81.2259C202.561 81.1897 202.587 81.1527 202.611 81.115C202.758 80.8877 202.83 80.6356 202.842 80.3761ZM205.677 73.4624C205.677 72.9237 206.114 72.487 206.653 72.487H212.505C213.044 72.487 213.481 72.9237 213.481 73.4624C213.481 74.0011 213.044 74.4378 212.505 74.4378H206.653C206.114 74.4378 205.677 74.0011 205.677 73.4624ZM206.653 76.3887C206.114 76.3887 205.677 76.8254 205.677 77.3641C205.677 77.9028 206.114 78.3395 206.653 78.3395H210.554C211.093 78.3395 211.53 77.9028 211.53 77.3641C211.53 76.8254 211.093 76.3887 210.554 76.3887H206.653Z" fill="#0D070B"/>
<circle cx="216.894" cy="69.0735" r="3.41388" fill="#FF5D6B"/>
</g>
<path fill-rule="evenodd" clip-rule="evenodd" d="M98.334 39.8415C97.5653 37.3712 94.1718 37.3712 93.4032 39.8415L91.5125 45.9172C91.3768 46.3533 91.0024 46.6153 90.6157 46.6153H84.4975C83.2226 46.6153 82.3391 47.4812 82.0321 48.468C81.7257 49.4525 81.9551 50.6661 82.962 51.43L87.9118 55.185C88.2469 55.4393 88.4033 55.9091 88.2661 56.3502L86.3754 62.4259C86 63.6324 86.4792 64.7612 87.3054 65.388C88.1368 66.0187 89.3565 66.1616 90.3763 65.388L95.326 61.6329C95.6521 61.3856 96.0851 61.3856 96.4111 61.6329L101.361 65.388C102.381 66.1616 103.6 66.0187 104.432 65.388C105.258 64.7612 105.737 63.6324 105.362 62.4259L103.471 56.3502C103.334 55.9091 103.49 55.4393 103.825 55.185L108.775 51.43C109.782 50.6661 110.011 49.4525 109.705 48.468C109.398 47.4812 108.515 46.6153 107.24 46.6153H101.121C100.735 46.6153 100.36 46.3533 100.225 45.9172L98.334 39.8415Z" fill="#0274D7"/>
<path fill-rule="evenodd" clip-rule="evenodd" d="M137.76 39.8415C136.992 37.3712 133.598 37.3712 132.83 39.8415L130.939 45.9172C130.803 46.3533 130.429 46.6153 130.042 46.6153H123.924C122.649 46.6153 121.766 47.4812 121.459 48.468C121.152 49.4525 121.382 50.6661 122.388 51.43L127.338 55.185C127.673 55.4393 127.83 55.9091 127.693 56.3502L125.802 62.4259C125.426 63.6324 125.906 64.7612 126.732 65.388C127.563 66.0187 128.783 66.1616 129.803 65.388L134.752 61.6329C135.079 61.3856 135.512 61.3856 135.838 61.6329L140.787 65.388C141.807 66.1616 143.027 66.0187 143.858 65.388C144.684 64.7612 145.164 63.6324 144.788 62.4259L142.898 56.3502C142.76 55.9091 142.917 55.4393 143.252 55.185L148.202 51.43C149.209 50.6661 149.438 49.4525 149.132 48.468C148.825 47.4812 147.941 46.6153 146.666 46.6153H140.548C140.161 46.6153 139.787 46.3533 139.651 45.9172L137.76 39.8415Z" fill="#0274D7"/>
<path fill-rule="evenodd" clip-rule="evenodd" d="M177.187 39.8415C176.418 37.3712 173.025 37.3712 172.256 39.8415L170.365 45.9172C170.23 46.3533 169.855 46.6153 169.469 46.6153H163.35C162.075 46.6153 161.192 47.4812 160.885 48.468C160.579 49.4525 160.808 50.6661 161.815 51.43L166.765 55.185C167.1 55.4393 167.256 55.9091 167.119 56.3502L165.228 62.4259C164.853 63.6324 165.332 64.7612 166.158 65.388C166.99 66.0187 168.209 66.1616 169.229 65.388L174.179 61.6329C174.505 61.3856 174.938 61.3856 175.264 61.6329L180.214 65.388C181.234 66.1616 182.453 66.0187 183.285 65.388C184.111 64.7612 184.59 63.6324 184.215 62.4259L182.324 56.3502C182.187 55.9091 182.343 55.4393 182.678 55.185L187.628 51.43C188.635 50.6661 188.864 49.4525 188.558 48.468C188.251 47.4812 187.367 46.6153 186.093 46.6153H179.974C179.588 46.6153 179.213 46.3533 179.077 45.9172L177.187 39.8415Z" fill="#0274D7"/>
<rect x="0.690709" y="24.3334" width="75.1566" height="32.034" rx="5.85236" fill="white" stroke="#0D070B" stroke-width="0.616038"/>
<path fill-rule="evenodd" clip-rule="evenodd" d="M14.0584 34.498L14.0584 34.4981H16.8927H18.3046H19.56C20.7185 34.4981 21.687 35.3788 21.7968 36.532L21.9517 38.1586C22.0176 38.8501 21.769 39.4934 21.328 39.9542V43.7387C21.328 45.4398 19.9489 46.8189 18.2478 46.8189L17.6317 46.8189H13.3195L12.7034 46.8189C11.0023 46.8189 9.62324 45.4398 9.62324 43.7387V39.9349C9.19362 39.4755 8.95275 38.8405 9.01769 38.1586L9.19013 36.3479C9.29002 35.2991 10.1709 34.498 11.2245 34.498H14.0584ZM10.8553 40.6171V43.7387C10.8553 44.7594 11.6827 45.5868 12.7034 45.5868H13.3195V43.4307C13.3195 42.2399 14.2848 41.2745 15.4756 41.2745C16.6664 41.2745 17.6317 42.2399 17.6317 43.4307V45.5868H18.2478C19.2685 45.5868 20.0959 44.7594 20.0959 43.7387V40.6206C19.9608 40.6455 19.8214 40.6585 19.6786 40.6585C18.8693 40.6585 18.093 40.2355 17.6506 39.5903C17.1804 40.239 16.4166 40.6585 15.5585 40.6585C14.6512 40.6585 13.8439 40.1881 13.3824 39.4672C12.9632 40.1811 12.1505 40.6584 11.2908 40.6584C11.1416 40.6584 10.9961 40.6442 10.8553 40.6171ZM20.7119 38.1358V38.571C20.6208 39.0537 20.1967 39.4264 19.6786 39.4264C19.1366 39.4264 18.5604 39.0144 18.509 38.4748L18.2486 35.7403L18.2491 35.7302H19.56C19.5763 35.7302 19.5924 35.7306 19.6084 35.7313C20.11 35.755 20.5222 36.1441 20.5703 36.6488L20.7119 38.1358ZM13.9411 35.7302L13.9385 35.7568L14.2168 38.2273C14.2937 38.9102 14.8713 39.4264 15.5585 39.4264C16.2806 39.4264 16.8748 38.8583 16.9073 38.137L17.0139 35.7711L17.01 35.7302H13.9411ZM11.2245 35.7301H12.6957L12.6999 35.7674L12.442 38.4747C12.3907 39.0143 11.8328 39.4264 11.2908 39.4264C10.6708 39.4264 10.1854 38.8926 10.2442 38.2754L10.4167 36.4647C10.4563 36.0482 10.8061 35.7301 11.2245 35.7301ZM16.3997 45.5868H14.5515V43.4307C14.5515 42.9203 14.9653 42.5066 15.4756 42.5066C15.9859 42.5066 16.3997 42.9203 16.3997 43.4307V45.5868Z" fill="#0D070B"/>
<rect x="26.2563" y="33.8823" width="43.1227" height="4.9283" fill="#D9D9D9"/>
<rect x="26.2563" y="42.5068" width="15.4009" height="4.9283" fill="#A3A3AD"/>
<path d="M53.1916 46.8652L79.5827 70.8475C81.2319 72.3462 80.2029 75.0901 77.9749 75.1348L69.7664 75.2997C69.3262 75.3085 69.0371 75.763 69.2157 76.1655L74.136 87.2498C74.6715 88.4562 74.1613 89.8703 72.979 90.4569L68.8723 92.4945C67.6161 93.1178 66.0938 92.5686 65.5248 91.2869L60.6682 80.3458C60.4955 79.9569 59.9899 79.856 59.6811 80.1488L53.2125 86.2847C51.642 87.7745 49.0515 86.6604 49.0525 84.4957L49.0703 48.6877C49.0713 46.5493 51.609 45.4271 53.1916 46.8652Z" fill="white"/>
<path d="M79.5827 70.8475L80.6184 69.7077L79.5827 70.8475ZM53.1916 46.8652L54.2274 45.7255L53.1916 46.8652ZM49.0703 48.6877L47.5302 48.6869L49.0703 48.6877ZM49.0525 84.4957L47.5124 84.495L49.0525 84.4957ZM53.2125 86.2847L54.2724 87.4021H54.2724L53.2125 86.2847ZM59.6811 80.1488L60.741 81.2662H60.741L59.6811 80.1488ZM60.6682 80.3458L59.2605 80.9707V80.9707L60.6682 80.3458ZM65.5248 91.2869L66.9325 90.662V90.662L65.5248 91.2869ZM68.8723 92.4945L68.1878 91.1149H68.1878L68.8723 92.4945ZM72.979 90.4569L72.2945 89.0773L72.2945 89.0773L72.979 90.4569ZM74.136 87.2498L72.7283 87.8746V87.8746L74.136 87.2498ZM69.2157 76.1655L67.8081 76.7904L69.2157 76.1655ZM69.7664 75.2997L69.7973 76.8395H69.7974L69.7664 75.2997ZM77.9749 75.1348L78.0059 76.6746L77.9749 75.1348ZM80.6184 69.7077L54.2274 45.7255L52.1559 48.005L78.5469 71.9873L80.6184 69.7077ZM47.5302 48.6869L47.5124 84.495L50.5926 84.4965L50.6104 48.6884L47.5302 48.6869ZM54.2724 87.4021L60.741 81.2662L58.6213 79.0315L52.1526 85.1674L54.2724 87.4021ZM59.2605 80.9707L64.1172 91.9117L66.9325 90.662L62.0758 79.721L59.2605 80.9707ZM69.5568 93.8741L73.6635 91.8365L72.2945 89.0773L68.1878 91.1149L69.5568 93.8741ZM75.5436 86.6249L70.6234 75.5407L67.8081 76.7904L72.7283 87.8746L75.5436 86.6249ZM69.7974 76.8395L78.0059 76.6746L77.944 73.5951L69.7355 73.7599L69.7974 76.8395ZM70.6234 75.5407C70.8914 76.1444 70.4578 76.8262 69.7973 76.8395L69.7355 73.7599C68.1946 73.7908 67.1828 75.3817 67.8081 76.7904L70.6234 75.5407ZM73.6635 91.8365C75.5848 90.8832 76.4138 88.5853 75.5436 86.6249L72.7283 87.8746C72.9292 88.327 72.7379 88.8573 72.2945 89.0773L73.6635 91.8365ZM64.1172 91.9117C65.0417 93.9945 67.5155 94.8869 69.5568 93.8741L68.1878 91.1149C67.7167 91.3486 67.1458 91.1427 66.9325 90.662L64.1172 91.9117ZM60.741 81.2662C60.2779 81.7055 59.5195 81.5541 59.2605 80.9707L62.0758 79.721C61.4715 78.3597 59.7019 78.0064 58.6213 79.0315L60.741 81.2662ZM47.5124 84.495C47.5107 88.0126 51.7203 89.8229 54.2724 87.4021L52.1526 85.1674C51.5637 85.726 50.5922 85.3083 50.5926 84.4965L47.5124 84.495ZM54.2274 45.7255C51.6557 43.3885 47.5319 45.212 47.5302 48.6869L50.6104 48.6884C50.6108 47.8865 51.5624 47.4657 52.1559 48.005L54.2274 45.7255ZM78.5469 71.9873C79.1654 72.5493 78.7795 73.5783 77.944 73.5951L78.0059 76.6746C81.6263 76.6019 83.2983 72.1431 80.6184 69.7077L78.5469 71.9873Z" fill="#0D070B"/>
<defs>
<clipPath id="clip0_6_1300">
<rect width="23.4094" height="23.4094" fill="white" transform="translate(196.899 64.6841)"/>
</clipPath>
</defs>
</svg>
