<svg width="80" height="100" viewBox="0 0 80 100" fill="none" xmlns="http://www.w3.org/2000/svg">
<g clip-path="url(#clip0_6_1278)">
<path d="M20.7037 9.55539L26.3377 3.37249L29.718 1.96729L29.1546 5.05874L25.4926 12.9279L26.6194 19.9539L36.1971 31.7576L46.6199 35.6922L42.9578 43.8424L25.4926 63.5153L28.5912 66.0446L26.9011 73.9138L31.1265 80.3777L36.1971 88.5279L20.9854 95.2729L11.4077 92.4625L11.126 88.5279L11.9711 81.7829L14.2247 77.0052L17.0416 71.9465L18.4501 64.9205L14.2247 60.1428L20.9854 51.7115L33.6618 43.8424L41.2676 37.9405L42.3944 34.8491L25.2109 31.7576L20.1403 27.542L17.0416 18.5487L20.7037 9.55539Z" fill="#F3D8E1"/>
<path d="M77.2574 87.297C76.1869 86.6899 75.0094 86.3976 73.815 86.1447C71.6516 85.6782 69.4487 85.5433 66.9472 85.3016C68.3332 84.1381 69.4543 83.1095 70.4853 81.9909C72.4234 79.8887 74.0516 77.5842 74.9869 74.8637C76.6038 70.1759 75.832 65.9378 72.491 62.2112C71.5558 61.1658 70.491 60.2721 69.3586 59.4458C67.6346 58.198 65.7697 57.2368 63.6739 56.6635C63.764 56.3824 63.8091 56.1632 63.8992 55.9665C65.4486 52.5041 65.2908 49.0698 63.7077 45.6748C62.2992 42.662 60.04 40.3687 57.3639 38.4633C52.9975 35.355 48.0791 33.5732 42.8621 32.5108C41.8423 32.3029 40.7719 32.286 39.7521 31.9263C39.8253 31.8082 39.8423 31.752 39.8761 31.7352C40.2366 31.5497 40.5972 31.3698 40.9578 31.1843C45.2227 29.054 49.0819 26.3673 52.2877 22.8093C54.2032 20.6846 55.7525 18.3407 56.5695 15.5641C58.0005 10.6908 56.4286 6.27846 52.2257 3.43433C50.5299 2.2933 48.665 1.51201 46.6988 0.989269C41.5831 -0.370969 36.4112 -0.24169 31.3012 0.848749C21.853 2.85538 13.4753 6.9642 6.60191 13.8722C4.78214 15.7046 3.5145 17.8292 2.87223 20.3193C1.74544 24.681 2.88913 28.3908 6.16809 31.4485C7.59912 32.7806 9.29494 33.7081 11.1091 34.4275C12.3485 34.9222 13.6444 35.2482 14.9233 35.5798C14.912 35.6866 14.9233 35.754 14.9007 35.7709C14.5683 35.9901 14.2303 36.2149 13.8866 36.4117C11.2049 37.963 8.84422 39.8685 7.0977 42.4653C4.13424 46.8776 4.13423 51.9589 7.10333 56.3712C8.26956 58.1024 9.70058 59.5919 11.3626 60.851C12.2922 61.5536 13.2612 62.2 14.219 62.8745C14.0049 63.3185 13.526 63.4197 13.1486 63.6389C9.06958 65.9716 5.96527 69.2935 3.38492 73.1494C2.81026 74.0093 2.337 74.9312 1.97643 75.9036C0.0946878 80.9005 0.872174 85.4196 4.48917 89.4048C5.89203 90.9505 7.55968 92.1702 9.39072 93.1707C11.9373 94.5534 14.6641 95.4528 17.4698 96.1329C17.9487 96.2509 18.4389 96.3071 18.8389 96.65C20.0671 97.7011 21.5263 98.28 23.0869 98.5836C26.7602 99.2918 30.473 99.792 34.2083 99.9326C44.2029 100.315 54.0962 99.3761 63.888 97.3863C67.4599 96.6612 70.998 95.79 74.3446 94.2724C75.6235 93.6935 76.8517 93.0414 77.8658 92.0522C79.5955 90.3716 79.3588 88.5054 77.2574 87.3138V87.297ZM43.1719 36.3105C44.8508 36.3611 45.1551 36.8108 44.3889 38.3228C42.4564 42.1562 40.0169 45.6467 37.0422 48.7494C34.7097 51.1832 32.3209 53.572 30.011 56.0227C28.1293 58.0237 26.3433 60.1091 25.2278 62.6609C25.0193 63.1387 24.7151 63.2286 24.146 63.1106C22.5685 62.9869 20.8727 62.7396 19.2051 62.3686C17.9149 62.082 16.8219 61.3344 15.6838 60.6936C15.2162 60.4294 15.25 60.0641 15.4078 59.6594C15.774 58.732 16.2754 57.8888 16.867 57.0907C18.6755 54.6569 20.7769 52.5153 23.2897 50.7897C25.5545 49.2328 27.949 47.895 30.3265 46.5292C32.7435 45.1408 35.1661 43.7525 37.414 42.0943C39.4704 40.5711 41.6 39.0928 42.6423 36.5972C42.7494 36.3442 42.9128 36.288 43.1663 36.2993L43.1719 36.3105ZM31.4758 2.50127C34.0055 2.04036 36.5464 1.78743 39.2169 1.83239C38.3098 4.68777 38.7887 6.23912 41.0423 8.11085C41.7353 8.68417 42.5071 9.14508 43.2959 9.5835C44.079 10.0219 44.879 10.4322 45.6509 10.8932C47.3861 11.9274 47.7298 12.7087 47.3072 14.6984C46.941 16.4072 46.0903 17.8686 44.8846 19.122C43.4705 20.5891 41.8198 21.7526 40.0451 22.7418C38.1633 23.7929 36.1858 24.6585 34.2083 25.5129C33.8365 25.6759 33.4984 25.8502 33.0928 25.5241C29.7124 22.7924 27.1489 19.5436 26.4672 15.1144C26.1461 13.0572 26.5461 11.0955 27.4644 9.24063C28.456 7.234 29.4927 5.24423 30.4617 3.22073C30.6927 2.73734 31.0138 2.5912 31.4871 2.50127H31.4758ZM28.8166 3.04087C28.9236 3.58609 28.5969 3.81092 28.411 4.09196C27.7011 5.1824 26.9405 6.24474 26.2475 7.34642C23.8474 11.1573 23.7291 15.1256 25.532 19.1782C26.6813 21.7638 28.411 23.9335 30.5575 25.7771C30.8279 26.0075 31.0927 26.238 31.504 26.5977C29.0758 27.6376 26.7827 28.402 24.4728 29.1271C23.8869 29.3126 23.5207 29.0765 23.1319 28.7674C20.9403 27.0249 19.4417 24.8047 18.929 22.0561C18.0276 17.2222 18.9684 12.793 22.084 8.87528C23.515 7.071 25.2334 5.54213 26.7095 3.78282C27.2335 3.15328 28.1011 3.31067 28.8166 3.04649V3.04087ZM8.78788 29.4756C5.99907 27.3734 4.97933 24.6136 5.79062 21.1793C6.88361 16.5533 9.5541 13.0066 13.2387 10.1287C15.6951 8.2064 18.4501 6.79558 21.2896 5.53651C21.4023 5.4803 21.4981 5.39037 21.6164 5.33978C21.6784 5.2892 21.7516 5.26671 21.8361 5.26671C21.9375 5.19364 22.0446 5.13181 22.1629 5.08685C22.2361 5.03064 22.315 5.00816 22.4052 5.0194C22.6925 4.85639 22.6925 5.0194 22.6643 5.23299L22.6192 5.27233C22.5798 5.37351 22.5066 5.44096 22.4052 5.47468C20.1347 7.71177 18.2755 10.2018 17.436 13.3438C16.3318 17.4751 16.467 21.5053 18.3825 25.4005C19.2051 27.0699 20.3713 28.4807 21.9094 29.7903C19.6276 30.3693 17.4642 30.7515 15.3233 31.2237C12.788 31.7801 10.7091 30.9258 8.78788 29.4756ZM14.1796 59.7156C11.464 57.7539 9.22733 55.5899 8.0611 52.5434C6.83853 49.3508 7.34559 46.3718 9.40762 43.6569C10.7034 41.9482 12.3429 40.6217 14.1852 39.5537C17.5261 37.6258 21.0924 36.3892 24.9686 35.9283C28.456 35.5123 31.9153 34.9559 35.4478 35.2201C37.4647 35.3718 39.476 35.5798 41.5381 36.0407C41.2789 36.8951 40.7268 37.474 40.1747 38.0361C38.6873 39.5481 36.9915 40.8072 35.2393 41.9931C31.9942 44.1853 28.5462 46.0289 25.1883 48.0355C22.1911 49.823 19.4586 51.9139 17.1937 54.5838C15.9374 56.0621 14.8106 57.619 14.1796 59.7156ZM3.62718 77.4774C5.21595 73.2899 7.85828 69.9061 11.8697 67.7253C13.6725 66.7472 15.4923 65.7973 17.498 65.0835C17.8924 66.2301 17.6332 67.2812 17.3909 68.3155C17.0022 69.9848 16.2979 71.5362 15.5261 73.0594C14.6359 74.8187 13.7063 76.5612 12.8443 78.3318C11.357 81.3951 10.5851 84.6496 10.3203 88.0333C10.2414 89.0169 10.3823 89.9893 10.5288 91.0179C5.05257 88.6909 1.39613 83.3568 3.62154 77.483L3.62718 77.4774ZM21.4192 93.0077C20.1347 93.2269 18.8445 93.4293 17.5543 93.6372C17.2332 93.6878 16.9346 93.6091 16.6247 93.5304C15.3571 93.2157 14.1401 92.7379 12.9063 92.3164C12.157 92.0634 11.8922 91.5913 11.7795 90.8381C11.4471 88.6572 11.8415 86.5438 12.2697 84.4304C12.6866 82.3506 13.5091 80.4058 14.4444 78.506C15.436 76.4937 16.4839 74.504 17.436 72.4749C18.8389 69.4958 19.1431 68.1693 19.2276 65.2352C21.8361 66.1121 24.4277 66.9271 27.0982 67.3487C27.1715 67.8208 26.9461 68.1243 26.8222 68.4503C25.7574 71.3226 25.9545 74.0937 27.5433 76.7242C28.1462 77.7247 28.7941 78.6971 29.4758 79.647C31.1998 82.064 32.8561 84.5203 34.4168 87.044C34.6759 87.46 34.9125 87.8871 35.2393 88.4492C30.6195 90.2423 26.2081 92.1758 21.4192 92.9965V93.0077ZM52.5694 78.9388C51.0933 80.5857 49.3805 81.9797 47.4312 83.042C44.1579 84.835 40.6592 86.1559 37.2619 87.6792C36.783 87.8928 36.4619 87.8534 36.1745 87.3307C34.1407 83.576 31.6392 80.1192 29.3124 76.5443C28.18 74.8019 27.4926 72.9526 27.7856 70.828C27.9039 69.9736 28.1631 69.1698 28.4504 68.3717C28.625 67.8826 28.9011 67.6747 29.4589 67.7477C30.6195 67.9051 31.7857 67.9894 32.9463 68.1131C37.7126 68.6133 42.462 68.6133 47.341 67.5061C47.5608 70.0073 48.9862 71.6486 50.6876 73.1213C51.3017 73.6496 51.9384 74.1555 52.4905 74.7401C53.7863 76.1059 53.8201 77.5336 52.5637 78.9332L52.5694 78.9388ZM54.4398 54.0217C53.8877 54.8536 53.1835 55.5393 52.4172 56.1689C50.0003 58.1474 47.2565 59.6032 44.4846 60.9859C42.7099 61.8684 40.7155 62.155 38.7718 62.526C35.0421 63.2286 31.273 63.4085 27.487 63.3242C27.1771 63.3185 26.8616 63.268 26.287 63.2117C26.8898 62.408 27.3349 61.8009 27.7969 61.2107C29.8927 58.5577 32.3097 56.2138 34.7942 53.9318C37.583 51.3743 40.2254 48.6875 42.3832 45.5624C44.1466 43.0105 45.8142 40.4137 46.5636 37.2829C47.8425 37.5358 48.9862 38.0192 50.1299 38.5082C50.0904 38.6207 50.0848 38.7275 50.0284 38.7837C48.2932 40.4699 48.6031 42.9262 50.2594 44.6855C50.6594 45.1127 51.0933 45.5005 51.5327 45.8884C52.2708 46.546 53.0482 47.1643 53.7694 47.8388C55.9216 49.8567 56.0906 51.5542 54.4455 54.0161L54.4398 54.0217Z" fill="#0D070B"/>
</g>
<defs>
<clipPath id="clip0_6_1278">
<rect width="78.0303" height="100" fill="white" transform="translate(0.984863)"/>
</clipPath>
</defs>
</svg>
