<svg width="540" height="233" viewBox="0 0 540 233" fill="none" xmlns="http://www.w3.org/2000/svg">
<circle cx="144.5" cy="25.95" r="13.5" fill="#D9D9DD"/>
<g clip-path="url(#clip0_384_19610)">
<path fill-rule="evenodd" clip-rule="evenodd" d="M148.438 18.8919C148.574 18.525 149.093 18.525 149.229 18.8919L149.791 20.4105C149.833 20.5259 149.924 20.6168 150.04 20.6595L151.558 21.2215C151.925 21.3572 151.925 21.8762 151.558 22.0119L150.04 22.5739C149.924 22.6166 149.833 22.7075 149.791 22.8229L149.229 24.3415C149.093 24.7084 148.574 24.7084 148.438 24.3415L147.876 22.8229C147.833 22.7075 147.743 22.6166 147.627 22.5739L146.109 22.0119C145.742 21.8762 145.742 21.3572 146.109 21.2215L147.627 20.6595C147.743 20.6168 147.833 20.5259 147.876 20.4105L148.438 18.8919ZM148.438 28.2252C148.574 27.8583 149.093 27.8583 149.229 28.2252L149.791 29.7438C149.833 29.8592 149.924 29.9502 150.04 29.9928L151.558 30.5548C151.925 30.6906 151.925 31.2095 151.558 31.3453L150.04 31.9072C149.924 31.9499 149.833 32.0409 149.791 32.1562L149.229 33.6748C149.093 34.0418 148.574 34.0418 148.438 33.6748L147.876 32.1562C147.833 32.0409 147.743 31.9499 147.627 31.9072L146.109 31.3453C145.742 31.2095 145.742 30.6906 146.109 30.5548L147.627 29.9928C147.743 29.9502 147.833 29.8592 147.876 29.7438L148.438 28.2252ZM141.822 24.0691L142.167 23.1372L142.512 24.0691C142.718 24.6263 143.157 25.0657 143.714 25.2718L144.646 25.6167L143.714 25.9616C143.157 26.1677 142.718 26.6071 142.512 27.1643L142.167 28.0962L141.822 27.1643C141.616 26.6071 141.176 26.1677 140.619 25.9616L139.687 25.6167L140.619 25.2718C141.176 25.0657 141.616 24.6263 141.822 24.0691ZM141.508 21.0753C141.734 20.4638 142.599 20.4638 142.825 21.0753L143.762 23.6064C143.833 23.7987 143.985 23.9502 144.177 24.0214L146.708 24.958C147.32 25.1842 147.32 26.0492 146.708 26.2754L144.177 27.212C143.985 27.2832 143.833 27.4347 143.762 27.627L142.825 30.1581C142.599 30.7696 141.734 30.7696 141.508 30.1581L140.571 27.627C140.5 27.4347 140.349 27.2832 140.156 27.212L137.625 26.2754C137.014 26.0492 137.014 25.1842 137.625 24.958L140.156 24.0214C140.349 23.9502 140.5 23.7987 140.571 23.6064L141.508 21.0753Z" fill="white"/>
</g>
<g clip-path="url(#clip1_384_19610)">
<path fill-rule="evenodd" clip-rule="evenodd" d="M127.38 77.0136C127.914 79.1406 128.449 81.2678 128.9 83.41L128.92 83.42C130.36 90.28 130.36 97.24 130.26 104.21C130.195 108.765 130.135 113.323 130.075 117.88C130.015 122.438 129.955 126.995 129.89 131.55C129.85 134.02 129.63 134.52 127.28 135.16C125.05 135.77 122.75 136.14 120.45 136.4C114.01 137.14 107.57 137.8 101.07 137.44C100.732 137.421 100.394 137.405 100.056 137.388C98.9546 137.334 97.8542 137.28 96.7598 137.15C94.1798 136.84 92.9098 135.54 92.8198 132.9C92.743 130.619 92.7588 128.333 92.7753 125.93C92.7824 124.888 92.7898 123.825 92.7898 122.73C91.9455 122.767 91.2109 122.804 90.4763 122.841C90.219 122.854 89.9617 122.867 89.6998 122.88C89.6998 123.856 89.7009 124.803 89.702 125.731C89.7042 127.532 89.7064 129.261 89.6998 130.99V130.99C89.6798 135.48 89.6796 135.51 85.2698 136.33C74.8998 138.25 64.5998 137.9 54.3098 135.63C52.1498 135.15 51.1198 133.98 50.9298 131.93C50.7298 129.78 50.5898 127.63 50.4898 125.47C50.4221 124.003 50.3498 122.536 50.2774 121.068C50.0504 116.462 49.8232 111.853 49.7398 107.25C49.5598 97.04 50.6598 86.98 53.6298 77.15C54.0626 75.7314 54.4086 74.2839 54.7549 72.8357C54.9846 71.8747 55.2145 70.9134 55.4698 69.96C56.0298 67.88 56.7198 67.36 58.8998 67.45C59.9162 67.4994 60.9277 67.6186 61.9343 67.7372C62.3536 67.7866 62.7721 67.8359 63.1898 67.88C74.0398 68.99 84.9098 68.87 95.7898 68.54C104.34 68.28 112.9 68.09 121.45 67.92C125.236 67.8501 125.27 67.9998 126.107 71.7599L126.11 71.77C126.502 73.5233 126.941 75.2684 127.38 77.0136ZM127.191 126.673C127.169 125.829 127.148 124.984 127.18 124.14L127.19 124.15C127.61 113.43 127.44 102.73 127.08 92.01C126.82 84.49 125.13 77.33 123.09 70.39C101.17 72.1 79.4198 73.05 57.4998 71.25C57.1749 72.735 56.8357 74.1979 56.4997 75.6475C55.7494 78.8834 55.0146 82.0524 54.4898 85.25C53.5098 91.25 53.0598 97.3 53.2798 103.41C53.4358 107.724 53.4838 112.041 53.5318 116.358C53.5638 119.236 53.5958 122.114 53.6598 124.99C53.6938 126.711 53.8342 128.432 53.9772 130.184C54.0444 131.008 54.1122 131.839 54.1698 132.68C65.0398 134.44 75.7098 135.56 86.7498 133.91C86.6339 132.019 86.5208 130.158 86.406 128.271C86.303 126.576 86.1986 124.859 86.0898 123.08C86.0229 123.055 85.9582 123.031 85.8953 123.007C85.6286 122.906 85.3925 122.817 85.1498 122.76C84.0998 122.52 83.2898 121.98 83.5198 120.81C83.7498 119.64 84.7498 119.53 85.7798 119.51C87.3881 119.477 88.9934 119.427 90.599 119.376C91.9384 119.334 93.2781 119.292 94.6198 119.26C94.8331 119.254 95.0645 119.223 95.3 119.192C96.146 119.079 97.0447 118.96 97.3498 119.93C97.4644 120.301 97.0424 120.84 96.5776 121.434C96.3531 121.721 96.1186 122.02 95.9298 122.32V133.79C106.45 134.68 116.6 134.15 126.92 132.59C126.952 132.207 126.989 131.834 127.024 131.467C127.108 130.599 127.189 129.77 127.21 128.94C127.229 128.184 127.21 127.429 127.191 126.673ZM115.45 122.77C117.48 122.01 119.51 122.17 121.43 123.18L121.42 123.17C122.21 123.59 122.95 124.33 122.65 125.26C122.41 126 121.78 126.8 121.11 127.16C120.566 127.456 119.909 127.543 119.226 127.634C118.917 127.676 118.602 127.717 118.29 127.78C118.003 127.712 117.704 127.66 117.404 127.607C116.687 127.482 115.962 127.355 115.37 127.01C114.73 126.64 114.19 125.74 114.02 124.99C113.79 123.96 114.5 123.13 115.45 122.77Z" fill="#0D070B"/>
</g>
<path d="M27.056 193.562C26.2347 193.562 25.4987 193.429 24.848 193.162C24.1973 192.895 23.6747 192.501 23.28 191.978C22.896 191.455 22.6933 190.826 22.672 190.09H25.584C25.6267 190.506 25.7707 190.826 26.016 191.05C26.2613 191.263 26.5813 191.37 26.976 191.37C27.3813 191.37 27.7013 191.279 27.936 191.098C28.1707 190.906 28.288 190.645 28.288 190.314C28.288 190.037 28.192 189.807 28 189.626C27.8187 189.445 27.5893 189.295 27.312 189.178C27.0453 189.061 26.6613 188.927 26.16 188.778C25.4347 188.554 24.8427 188.33 24.384 188.106C23.9253 187.882 23.5307 187.551 23.2 187.114C22.8693 186.677 22.704 186.106 22.704 185.402C22.704 184.357 23.0827 183.541 23.84 182.954C24.5973 182.357 25.584 182.058 26.8 182.058C28.0373 182.058 29.0347 182.357 29.792 182.954C30.5493 183.541 30.9547 184.362 31.008 185.418H28.048C28.0267 185.055 27.8933 184.773 27.648 184.57C27.4027 184.357 27.088 184.25 26.704 184.25C26.3733 184.25 26.1067 184.341 25.904 184.522C25.7013 184.693 25.6 184.943 25.6 185.274C25.6 185.637 25.7707 185.919 26.112 186.122C26.4533 186.325 26.9867 186.543 27.712 186.778C28.4373 187.023 29.024 187.258 29.472 187.482C29.9307 187.706 30.3253 188.031 30.656 188.458C30.9867 188.885 31.152 189.434 31.152 190.106C31.152 190.746 30.9867 191.327 30.656 191.85C30.336 192.373 29.8667 192.789 29.248 193.098C28.6293 193.407 27.8987 193.562 27.056 193.562ZM37.8438 184.426C38.8678 184.426 39.6891 184.767 40.3078 185.45C40.9264 186.122 41.2358 187.05 41.2358 188.234V193.45H38.5158V188.602C38.5158 188.005 38.3611 187.541 38.0518 187.21C37.7424 186.879 37.3264 186.714 36.8038 186.714C36.2811 186.714 35.8651 186.879 35.5558 187.21C35.2464 187.541 35.0918 188.005 35.0918 188.602V193.45H32.3558V181.61H35.0918V185.722C35.3691 185.327 35.7478 185.013 36.2278 184.778C36.7078 184.543 37.2464 184.426 37.8438 184.426ZM46.721 193.578C45.8463 193.578 45.057 193.391 44.353 193.018C43.6597 192.645 43.1103 192.111 42.705 191.418C42.3103 190.725 42.113 189.914 42.113 188.986C42.113 188.069 42.3157 187.263 42.721 186.57C43.1263 185.866 43.681 185.327 44.385 184.954C45.089 184.581 45.8783 184.394 46.753 184.394C47.6277 184.394 48.417 184.581 49.121 184.954C49.825 185.327 50.3797 185.866 50.785 186.57C51.1903 187.263 51.393 188.069 51.393 188.986C51.393 189.903 51.185 190.714 50.769 191.418C50.3637 192.111 49.8037 192.645 49.089 193.018C48.385 193.391 47.5957 193.578 46.721 193.578ZM46.721 191.21C47.2437 191.21 47.6863 191.018 48.049 190.634C48.4223 190.25 48.609 189.701 48.609 188.986C48.609 188.271 48.4277 187.722 48.065 187.338C47.713 186.954 47.2757 186.762 46.753 186.762C46.2197 186.762 45.777 186.954 45.425 187.338C45.073 187.711 44.897 188.261 44.897 188.986C44.897 189.701 45.0677 190.25 45.409 190.634C45.761 191.018 46.1983 191.21 46.721 191.21ZM55.1005 186.01C55.4205 185.519 55.8205 185.135 56.3005 184.858C56.7805 184.57 57.3138 184.426 57.9005 184.426V187.322H57.1485C56.4658 187.322 55.9538 187.471 55.6125 187.77C55.2712 188.058 55.1005 188.57 55.1005 189.306V193.45H52.3645V184.522H55.1005V186.01ZM63.7043 191.13V193.45H62.3123C61.3203 193.45 60.5469 193.21 59.9923 192.73C59.4376 192.239 59.1603 191.445 59.1603 190.346V186.794H58.0723V184.522H59.1603V182.346H61.8963V184.522H63.6883V186.794H61.8963V190.378C61.8963 190.645 61.9603 190.837 62.0883 190.954C62.2163 191.071 62.4296 191.13 62.7283 191.13H63.7043ZM70.3949 181.61V193.45H67.6589V181.61H70.3949ZM80.3136 188.842C80.3136 189.098 80.2976 189.365 80.2656 189.642H74.0736C74.1163 190.197 74.2923 190.623 74.6016 190.922C74.9216 191.21 75.311 191.354 75.7696 191.354C76.4523 191.354 76.927 191.066 77.1936 190.49H80.1056C79.9563 191.077 79.6843 191.605 79.2896 192.074C78.9056 192.543 78.4203 192.911 77.8336 193.178C77.247 193.445 76.591 193.578 75.8656 193.578C74.991 193.578 74.2123 193.391 73.5296 193.018C72.847 192.645 72.3136 192.111 71.9296 191.418C71.5456 190.725 71.3536 189.914 71.3536 188.986C71.3536 188.058 71.5403 187.247 71.9136 186.554C72.2976 185.861 72.831 185.327 73.5136 184.954C74.1963 184.581 74.9803 184.394 75.8656 184.394C76.7296 184.394 77.4976 184.575 78.1696 184.938C78.8416 185.301 79.3643 185.818 79.7376 186.49C80.1216 187.162 80.3136 187.946 80.3136 188.842ZM77.5136 188.122C77.5136 187.653 77.3536 187.279 77.0336 187.002C76.7136 186.725 76.3136 186.586 75.8336 186.586C75.375 186.586 74.9856 186.719 74.6656 186.986C74.3563 187.253 74.1643 187.631 74.0896 188.122H77.5136ZM84.669 184.394C85.2983 184.394 85.8477 184.522 86.317 184.778C86.797 185.034 87.165 185.37 87.421 185.786V184.522H90.157V193.434C90.157 194.255 89.9917 194.997 89.661 195.658C89.341 196.33 88.845 196.863 88.173 197.258C87.5117 197.653 86.685 197.85 85.693 197.85C84.3703 197.85 83.2983 197.535 82.477 196.906C81.6557 196.287 81.1863 195.445 81.069 194.378H83.773C83.8583 194.719 84.061 194.986 84.381 195.178C84.701 195.381 85.0957 195.482 85.565 195.482C86.1303 195.482 86.5783 195.317 86.909 194.986C87.2503 194.666 87.421 194.149 87.421 193.434V192.17C87.1543 192.586 86.7863 192.927 86.317 193.194C85.8477 193.45 85.2983 193.578 84.669 193.578C83.933 193.578 83.2663 193.391 82.669 193.018C82.0717 192.634 81.597 192.095 81.245 191.402C80.9037 190.698 80.733 189.887 80.733 188.97C80.733 188.053 80.9037 187.247 81.245 186.554C81.597 185.861 82.0717 185.327 82.669 184.954C83.2663 184.581 83.933 184.394 84.669 184.394ZM87.421 188.986C87.421 188.303 87.229 187.765 86.845 187.37C86.4717 186.975 86.013 186.778 85.469 186.778C84.925 186.778 84.461 186.975 84.077 187.37C83.7037 187.754 83.517 188.287 83.517 188.97C83.517 189.653 83.7037 190.197 84.077 190.602C84.461 190.997 84.925 191.194 85.469 191.194C86.013 191.194 86.4717 190.997 86.845 190.602C87.229 190.207 87.421 189.669 87.421 188.986ZM95.0484 184.394C95.6777 184.394 96.227 184.522 96.6964 184.778C97.1764 185.034 97.5444 185.37 97.8004 185.786V184.522H100.536V193.434C100.536 194.255 100.371 194.997 100.04 195.658C99.7204 196.33 99.2244 196.863 98.5524 197.258C97.891 197.653 97.0644 197.85 96.0724 197.85C94.7497 197.85 93.6777 197.535 92.8564 196.906C92.035 196.287 91.5657 195.445 91.4484 194.378H94.1524C94.2377 194.719 94.4404 194.986 94.7604 195.178C95.0804 195.381 95.475 195.482 95.9444 195.482C96.5097 195.482 96.9577 195.317 97.2884 194.986C97.6297 194.666 97.8004 194.149 97.8004 193.434V192.17C97.5337 192.586 97.1657 192.927 96.6964 193.194C96.227 193.45 95.6777 193.578 95.0484 193.578C94.3124 193.578 93.6457 193.391 93.0484 193.018C92.451 192.634 91.9764 192.095 91.6244 191.402C91.283 190.698 91.1124 189.887 91.1124 188.97C91.1124 188.053 91.283 187.247 91.6244 186.554C91.9764 185.861 92.451 185.327 93.0484 184.954C93.6457 184.581 94.3124 184.394 95.0484 184.394ZM97.8004 188.986C97.8004 188.303 97.6084 187.765 97.2244 187.37C96.851 186.975 96.3924 186.778 95.8484 186.778C95.3044 186.778 94.8404 186.975 94.4564 187.37C94.083 187.754 93.8964 188.287 93.8964 188.97C93.8964 189.653 94.083 190.197 94.4564 190.602C94.8404 190.997 95.3044 191.194 95.8484 191.194C96.3924 191.194 96.851 190.997 97.2244 190.602C97.6084 190.207 97.8004 189.669 97.8004 188.986ZM103.412 183.594C102.932 183.594 102.537 183.455 102.228 183.178C101.929 182.89 101.78 182.538 101.78 182.122C101.78 181.695 101.929 181.343 102.228 181.066C102.537 180.778 102.932 180.634 103.412 180.634C103.881 180.634 104.265 180.778 104.564 181.066C104.873 181.343 105.028 181.695 105.028 182.122C105.028 182.538 104.873 182.89 104.564 183.178C104.265 183.455 103.881 183.594 103.412 183.594ZM104.772 184.522V193.45H102.036V184.522H104.772ZM111.715 184.426C112.76 184.426 113.592 184.767 114.211 185.45C114.84 186.122 115.155 187.05 115.155 188.234V193.45H112.435V188.602C112.435 188.005 112.28 187.541 111.971 187.21C111.661 186.879 111.245 186.714 110.723 186.714C110.2 186.714 109.784 186.879 109.475 187.21C109.165 187.541 109.011 188.005 109.011 188.602V193.45H106.275V184.522H109.011V185.706C109.288 185.311 109.661 185.002 110.131 184.778C110.6 184.543 111.128 184.426 111.715 184.426ZM119.968 184.394C120.597 184.394 121.146 184.522 121.616 184.778C122.096 185.034 122.464 185.37 122.72 185.786V184.522H125.456V193.434C125.456 194.255 125.29 194.997 124.96 195.658C124.64 196.33 124.144 196.863 123.472 197.258C122.81 197.653 121.984 197.85 120.992 197.85C119.669 197.85 118.597 197.535 117.776 196.906C116.954 196.287 116.485 195.445 116.368 194.378H119.072C119.157 194.719 119.36 194.986 119.68 195.178C120 195.381 120.394 195.482 120.864 195.482C121.429 195.482 121.877 195.317 122.208 194.986C122.549 194.666 122.72 194.149 122.72 193.434V192.17C122.453 192.586 122.085 192.927 121.616 193.194C121.146 193.45 120.597 193.578 119.968 193.578C119.232 193.578 118.565 193.391 117.968 193.018C117.37 192.634 116.896 192.095 116.544 191.402C116.202 190.698 116.032 189.887 116.032 188.97C116.032 188.053 116.202 187.247 116.544 186.554C116.896 185.861 117.37 185.327 117.968 184.954C118.565 184.581 119.232 184.394 119.968 184.394ZM122.72 188.986C122.72 188.303 122.528 187.765 122.144 187.37C121.77 186.975 121.312 186.778 120.768 186.778C120.224 186.778 119.76 186.975 119.376 187.37C119.002 187.754 118.816 188.287 118.816 188.97C118.816 189.653 119.002 190.197 119.376 190.602C119.76 190.997 120.224 191.194 120.768 191.194C121.312 191.194 121.77 190.997 122.144 190.602C122.528 190.207 122.72 189.669 122.72 188.986Z" fill="black"/>
<rect x="22" y="203.45" width="48.7834" height="7" fill="#D9D9D9"/>
<rect x="22" y="213.45" width="16" height="7" fill="#A3A3AD"/>
<rect x="0.5" y="0.949951" width="179" height="231" rx="18.0253" stroke="#0D070B"/>
<g clip-path="url(#clip2_384_19610)">
<path fill-rule="evenodd" clip-rule="evenodd" d="M278.574 103.293C274.559 101.485 270.337 100.602 265.978 100.243H265.957C257.458 99.5391 249.029 99.9394 240.75 102.086C238.928 102.561 237.145 103.196 235.361 103.831C234.553 104.119 233.745 104.407 232.932 104.68C232.58 104.795 232.237 104.926 231.864 105.07C231.698 105.133 231.526 105.199 231.344 105.267C230.704 104.025 230.966 103.114 231.633 102.41C232.692 101.292 233.785 100.195 235.002 99.2631C238.399 96.6545 242.263 94.9224 246.258 93.4732C257.032 89.5673 268.109 88.1112 279.509 89.4431C280.699 89.5811 281.888 89.8502 283.057 90.1401C284.907 90.6024 285.196 90.4368 285.643 88.5114C286.145 86.3653 286.653 84.2191 287.183 82.0798C287.396 81.2241 287.623 80.3614 287.925 79.5402C288.407 78.2429 289.204 78.0979 290.105 79.0986C290.447 79.473 290.759 79.8766 291.069 80.2772C291.096 80.3122 291.123 80.3472 291.15 80.3821C296.183 86.938 300.391 93.9494 302.881 101.899C303.162 102.789 303.431 103.7 303.582 104.618C303.816 106.061 303.403 106.668 301.945 106.937C297.559 107.758 293.289 108.993 289.074 110.443C287.478 110.989 285.896 111.577 284.313 112.165C283.577 112.439 282.84 112.713 282.102 112.982C282.014 113.014 281.926 113.046 281.838 113.078C281.41 113.235 280.98 113.392 280.541 113.507C279.152 113.865 278.375 113.231 278.602 111.809C278.762 110.808 278.999 109.82 279.235 108.832C279.333 108.424 279.431 108.016 279.523 107.606C279.572 107.387 279.625 107.168 279.678 106.949C279.781 106.522 279.884 106.096 279.956 105.667C280.197 104.259 279.901 103.894 278.574 103.293ZM308.263 127.861C308.371 127.839 308.487 127.815 308.615 127.785L308.629 127.791C309.261 128.813 309.027 129.655 308.47 130.372C307.865 131.145 307.226 131.96 306.435 132.519C306.019 132.811 305.604 133.108 305.188 133.406C303.455 134.649 301.71 135.899 299.814 136.818C287.114 142.987 273.706 145.099 259.707 143.443C258.931 143.356 258.16 143.153 257.4 142.953C257.312 142.93 257.223 142.907 257.135 142.884C254.983 142.318 254.77 142.456 254.261 144.713C253.773 146.866 253.25 149.012 252.728 151.151C252.654 151.451 252.561 151.745 252.468 152.039C252.345 152.43 252.222 152.82 252.143 153.221C251.868 154.608 250.603 154.919 249.661 153.704C245.707 148.584 242.084 143.27 239.485 137.315C238.783 135.702 238.181 134.045 237.579 132.386C237.39 131.867 237.201 131.347 237.009 130.828C236.782 130.214 236.611 129.565 236.487 128.916C236.081 126.867 236.452 126.335 238.453 125.949C245.061 124.672 251.394 122.478 257.658 120.069C258.27 119.828 258.888 119.593 259.528 119.434C260.807 119.117 261.543 119.779 261.412 121.104C261.38 121.396 261.304 121.685 261.229 121.972C261.192 122.113 261.155 122.254 261.123 122.395C261.021 122.847 260.919 123.299 260.816 123.75C260.564 124.856 260.312 125.961 260.078 127.074C259.727 128.73 259.982 129.02 261.488 129.703C268.143 132.726 275.212 133.071 282.328 133.015C291.095 132.946 299.614 131.49 307.721 128.005C307.883 127.937 308.058 127.902 308.263 127.861Z" fill="#0D070B"/>
</g>
<circle cx="504.5" cy="25.95" r="13.5" fill="#0274D7"/>
<g clip-path="url(#clip3_384_19610)">
<path fill-rule="evenodd" clip-rule="evenodd" d="M508.438 18.8919C508.574 18.525 509.093 18.525 509.229 18.8919L509.791 20.4105C509.833 20.5259 509.924 20.6168 510.04 20.6595L511.558 21.2215C511.925 21.3572 511.925 21.8762 511.558 22.0119L510.04 22.5739C509.924 22.6166 509.833 22.7075 509.791 22.8229L509.229 24.3415C509.093 24.7084 508.574 24.7084 508.438 24.3415L507.876 22.8229C507.833 22.7075 507.743 22.6166 507.627 22.5739L506.109 22.0119C505.742 21.8762 505.742 21.3572 506.109 21.2215L507.627 20.6595C507.743 20.6168 507.833 20.5259 507.876 20.4105L508.438 18.8919ZM508.438 28.2252C508.574 27.8583 509.093 27.8583 509.229 28.2252L509.791 29.7438C509.833 29.8592 509.924 29.9502 510.04 29.9928L511.558 30.5548C511.925 30.6906 511.925 31.2095 511.558 31.3453L510.04 31.9072C509.924 31.9499 509.833 32.0409 509.791 32.1562L509.229 33.6748C509.093 34.0418 508.574 34.0418 508.438 33.6748L507.876 32.1562C507.833 32.0409 507.743 31.9499 507.627 31.9072L506.109 31.3453C505.742 31.2095 505.742 30.6906 506.109 30.5548L507.627 29.9928C507.743 29.9502 507.833 29.8592 507.876 29.7438L508.438 28.2252ZM501.822 24.0691L502.167 23.1372L502.512 24.0691C502.718 24.6263 503.157 25.0657 503.714 25.2718L504.646 25.6167L503.714 25.9616C503.157 26.1677 502.718 26.6071 502.512 27.1643L502.167 28.0962L501.822 27.1643C501.616 26.6071 501.176 26.1677 500.619 25.9616L499.687 25.6167L500.619 25.2718C501.176 25.0657 501.616 24.6263 501.822 24.0691ZM501.508 21.0753C501.734 20.4638 502.599 20.4638 502.825 21.0753L503.762 23.6064C503.833 23.7987 503.985 23.9502 504.177 24.0214L506.708 24.958C507.32 25.1842 507.32 26.0492 506.708 26.2754L504.177 27.212C503.985 27.2832 503.833 27.4347 503.762 27.627L502.825 30.1581C502.599 30.7696 501.734 30.7696 501.508 30.1581L500.571 27.627C500.5 27.4347 500.349 27.2832 500.156 27.212L497.625 26.2754C497.014 26.0492 497.014 25.1842 497.625 24.958L500.156 24.0214C500.349 23.9502 500.5 23.7987 500.571 23.6064L501.508 21.0753Z" fill="white"/>
</g>
<g clip-path="url(#clip4_384_19610)">
<path d="M450.59 37.45C451.93 38.55 451.32 39.61 450.78 40.54C449.46 42.82 448.03 45.04 446.67 47.3C445.97 48.46 445.33 49.65 444.52 51.06C445.44 51.48 446.19 51.88 446.98 52.18C452.22 54.1399 457.49 55.99 462.69 58.05C465.27 59.07 467.77 60.35 470.19 61.72C472.09 62.8 473.05 64.53 473.12 66.87C473.43 77.01 474.02 87.1499 474.21 97.2999C474.37 105.85 474.13 114.4 474.06 122.95C474.06 123.34 474.08 123.74 474.1 124.31C474.96 124.57 475.81 124.72 476.58 125.07C478.09 125.76 479.7 126.37 480.99 127.36C482.57 128.58 482.51 130.33 481.04 131.7C480.24 132.45 479.27 133.11 478.26 133.53C470.67 136.69 462.84 138.76 454.51 138.43C450.92 138.29 447.31 138.53 443.74 138.19C436.53 137.5 429.68 135.37 423.05 132.48C419.71 131.02 418.14 128.52 418.11 124.99C418.07 119.48 418.14 113.96 418.1 108.44C418.05 102.39 417.82 96.31 417.84 90.24C417.87 82.33 418.02 74.42 418.25 66.52C418.31 64.4799 419.3 62.71 421.04 61.45C426.19 57.69 431.94 55.14 437.9 52.98C438.57 52.73 439.25 52.49 439.93 52.26C441.3 51.78 442.18 50.93 442.53 49.43C442.74 48.52 443.27 47.66 443.78 46.87C445.61 44.06 447.48 41.27 449.38 38.51C449.67 38.09 450.16 37.82 450.59 37.46V37.45ZM420.63 96.4599H420.76C420.82 105.57 420.9 114.69 420.92 123.81C420.92 126.09 421.78 127.86 423.66 129.07C424.8 129.8 425.99 130.49 427.24 130.99C435.81 134.4 444.73 135.24 453.85 134.39C455.35 134.25 456.84 133.84 458.31 133.5C459.53 133.21 460.19 132.35 460.39 131.14C460.57 130 459.87 129.37 459.01 128.84C458.53 128.55 458.04 128.28 457.57 127.97C452.2 124.44 447.68 120.15 445.06 114.11C441.72 106.42 438.27 98.76 434.96 91.06C434.08 89.01 433.43 86.8499 432.81 84.7099C432.22 82.68 432.23 80.61 432.71 78.54C433.04 77.13 433.73 75.9599 435.18 75.5499C436.77 75.09 438.4 74.57 440.04 74.4799C447.47 74.0799 454.91 73.82 462.05 71.42C463.26 71.01 464.5 70.67 465.66 70.15C467.02 69.53 467.51 68.4799 467.1 67.5C466.71 66.58 465.85 66.3 464.42 66.68C462.64 67.1399 460.89 67.74 459.09 68.09C450.66 69.72 442.22 69.23 433.79 67.99C432.78 67.84 431.79 67.45 430.83 67.08C429.53 66.57 428.47 65.82 428.08 64.32C427.75 63.07 426.79 62.58 425.49 62.72C422.61 63.05 419.96 66.21 420.15 69.13C420.23 70.49 420.38 71.84 420.39 73.2C420.49 80.96 420.56 88.71 420.64 96.47L420.63 96.4599Z" fill="#0D070B"/>
</g>
<path d="M389.792 187.69C390.443 187.829 390.965 188.154 391.36 188.666C391.755 189.167 391.952 189.743 391.952 190.394C391.952 191.333 391.621 192.079 390.96 192.634C390.309 193.178 389.397 193.45 388.224 193.45H382.992V182.218H388.048C389.189 182.218 390.08 182.479 390.72 183.002C391.371 183.525 391.696 184.234 391.696 185.13C391.696 185.791 391.52 186.341 391.168 186.778C390.827 187.215 390.368 187.519 389.792 187.69ZM385.728 186.762H387.52C387.968 186.762 388.309 186.666 388.544 186.474C388.789 186.271 388.912 185.978 388.912 185.594C388.912 185.21 388.789 184.917 388.544 184.714C388.309 184.511 387.968 184.41 387.52 184.41H385.728V186.762ZM387.744 191.242C388.203 191.242 388.555 191.141 388.8 190.938C389.056 190.725 389.184 190.421 389.184 190.026C389.184 189.631 389.051 189.322 388.784 189.098C388.528 188.874 388.171 188.762 387.712 188.762H385.728V191.242H387.744ZM397.123 193.578C396.248 193.578 395.459 193.391 394.755 193.018C394.062 192.645 393.512 192.111 393.107 191.418C392.712 190.725 392.515 189.914 392.515 188.986C392.515 188.069 392.718 187.263 393.123 186.57C393.528 185.866 394.083 185.327 394.787 184.954C395.491 184.581 396.28 184.394 397.155 184.394C398.03 184.394 398.819 184.581 399.523 184.954C400.227 185.327 400.782 185.866 401.187 186.57C401.592 187.263 401.795 188.069 401.795 188.986C401.795 189.903 401.587 190.714 401.171 191.418C400.766 192.111 400.206 192.645 399.491 193.018C398.787 193.391 397.998 193.578 397.123 193.578ZM397.123 191.21C397.646 191.21 398.088 191.018 398.451 190.634C398.824 190.25 399.011 189.701 399.011 188.986C399.011 188.271 398.83 187.722 398.467 187.338C398.115 186.954 397.678 186.762 397.155 186.762C396.622 186.762 396.179 186.954 395.827 187.338C395.475 187.711 395.299 188.261 395.299 188.986C395.299 189.701 395.47 190.25 395.811 190.634C396.163 191.018 396.6 191.21 397.123 191.21ZM411.582 184.522V193.45H408.846V192.234C408.569 192.629 408.19 192.949 407.71 193.194C407.241 193.429 406.718 193.546 406.142 193.546C405.46 193.546 404.857 193.397 404.334 193.098C403.812 192.789 403.406 192.346 403.118 191.77C402.83 191.194 402.686 190.517 402.686 189.738V184.522H405.406V189.37C405.406 189.967 405.561 190.431 405.87 190.762C406.18 191.093 406.596 191.258 407.118 191.258C407.652 191.258 408.073 191.093 408.382 190.762C408.692 190.431 408.846 189.967 408.846 189.37V184.522H411.582ZM416.46 184.394C417.089 184.394 417.638 184.522 418.108 184.778C418.588 185.034 418.956 185.37 419.212 185.786V184.522H421.948V193.434C421.948 194.255 421.782 194.997 421.452 195.658C421.132 196.33 420.636 196.863 419.964 197.258C419.302 197.653 418.476 197.85 417.484 197.85C416.161 197.85 415.089 197.535 414.268 196.906C413.446 196.287 412.977 195.445 412.86 194.378H415.564C415.649 194.719 415.852 194.986 416.172 195.178C416.492 195.381 416.886 195.482 417.356 195.482C417.921 195.482 418.369 195.317 418.7 194.986C419.041 194.666 419.212 194.149 419.212 193.434V192.17C418.945 192.586 418.577 192.927 418.108 193.194C417.638 193.45 417.089 193.578 416.46 193.578C415.724 193.578 415.057 193.391 414.46 193.018C413.862 192.634 413.388 192.095 413.036 191.402C412.694 190.698 412.524 189.887 412.524 188.97C412.524 188.053 412.694 187.247 413.036 186.554C413.388 185.861 413.862 185.327 414.46 184.954C415.057 184.581 415.724 184.394 416.46 184.394ZM419.212 188.986C419.212 188.303 419.02 187.765 418.636 187.37C418.262 186.975 417.804 186.778 417.26 186.778C416.716 186.778 416.252 186.975 415.868 187.37C415.494 187.754 415.308 188.287 415.308 188.97C415.308 189.653 415.494 190.197 415.868 190.602C416.252 190.997 416.716 191.194 417.26 191.194C417.804 191.194 418.262 190.997 418.636 190.602C419.02 190.207 419.212 189.669 419.212 188.986ZM424.823 183.594C424.343 183.594 423.948 183.455 423.639 183.178C423.34 182.89 423.191 182.538 423.191 182.122C423.191 181.695 423.34 181.343 423.639 181.066C423.948 180.778 424.343 180.634 424.823 180.634C425.292 180.634 425.676 180.778 425.975 181.066C426.284 181.343 426.439 181.695 426.439 182.122C426.439 182.538 426.284 182.89 425.975 183.178C425.676 183.455 425.292 183.594 424.823 183.594ZM426.183 184.522V193.45H423.447V184.522H426.183ZM436.102 188.842C436.102 189.098 436.086 189.365 436.054 189.642H429.862C429.904 190.197 430.08 190.623 430.39 190.922C430.71 191.21 431.099 191.354 431.558 191.354C432.24 191.354 432.715 191.066 432.982 190.49H435.894C435.744 191.077 435.472 191.605 435.078 192.074C434.694 192.543 434.208 192.911 433.622 193.178C433.035 193.445 432.379 193.578 431.654 193.578C430.779 193.578 430 193.391 429.318 193.018C428.635 192.645 428.102 192.111 427.718 191.418C427.334 190.725 427.142 189.914 427.142 188.986C427.142 188.058 427.328 187.247 427.702 186.554C428.086 185.861 428.619 185.327 429.302 184.954C429.984 184.581 430.768 184.394 431.654 184.394C432.518 184.394 433.286 184.575 433.958 184.938C434.63 185.301 435.152 185.818 435.526 186.49C435.91 187.162 436.102 187.946 436.102 188.842ZM433.302 188.122C433.302 187.653 433.142 187.279 432.822 187.002C432.502 186.725 432.102 186.586 431.622 186.586C431.163 186.586 430.774 186.719 430.454 186.986C430.144 187.253 429.952 187.631 429.878 188.122H433.302Z" fill="black"/>
<rect x="382" y="203.45" width="99" height="7" fill="#D9D9D9"/>
<rect x="382" y="213.45" width="16" height="7" fill="#A3A3AD"/>
<rect x="360.5" y="0.949951" width="179" height="231" rx="18.0253" stroke="#0D070B"/>
<defs>
<clipPath id="clip0_384_19610">
<rect width="16" height="16" fill="white" transform="translate(136.5 17.95)"/>
</clipPath>
<clipPath id="clip1_384_19610">
<rect width="80.56" height="70.12" fill="white" transform="translate(49.72 67.45)"/>
</clipPath>
<clipPath id="clip2_384_19610">
<rect width="78" height="76" fill="white" transform="translate(231 78.45)"/>
</clipPath>
<clipPath id="clip3_384_19610">
<rect width="16" height="16" fill="white" transform="translate(496.5 17.95)"/>
</clipPath>
<clipPath id="clip4_384_19610">
<rect width="64.32" height="101.03" fill="white" transform="translate(417.84 37.45)"/>
</clipPath>
</defs>
</svg>
