<svg width="400" height="268" viewBox="0 0 400 268" fill="none" xmlns="http://www.w3.org/2000/svg">
<path d="M31.7814 21.9581C31.5467 21.5258 31.2071 21.1985 30.7625 20.9762C30.3302 20.7416 29.8177 20.6242 29.2249 20.6242C28.1998 20.6242 27.3785 20.9639 26.761 21.6431C26.1435 22.31 25.8347 23.2054 25.8347 24.3293C25.8347 25.5273 26.1559 26.4659 26.7981 27.1452C27.4526 27.8121 28.348 28.1455 29.4842 28.1455C30.2623 28.1455 30.9169 27.9479 31.4479 27.5527C31.9913 27.1575 32.3865 26.5894 32.6335 25.8484H28.6135V23.5142H35.505V26.4597C35.2703 27.2501 34.8689 27.985 34.3008 28.6642C33.7451 29.3435 33.0349 29.8931 32.1704 30.313C31.3059 30.7329 30.3302 30.9428 29.2434 30.9428C27.959 30.9428 26.8104 30.665 25.7977 30.1092C24.7973 29.5411 24.0131 28.7569 23.445 27.7565C22.8892 26.7561 22.6113 25.6137 22.6113 24.3293C22.6113 23.0449 22.8892 21.9025 23.445 20.9021C24.0131 19.8894 24.7973 19.1052 25.7977 18.5494C26.7981 17.9813 27.9405 17.6972 29.2249 17.6972C30.781 17.6972 32.0901 18.0739 33.1523 18.8273C34.2267 19.5806 34.9369 20.6242 35.2827 21.9581H31.7814ZM41.4094 30.9984C40.3966 30.9984 39.4827 30.7823 38.6676 30.35C37.8648 29.9178 37.2288 29.3003 36.7595 28.4975C36.3025 27.6947 36.0741 26.7561 36.0741 25.6816C36.0741 24.6195 36.3087 23.6871 36.778 22.8843C37.2473 22.0692 37.8895 21.4455 38.7047 21.0133C39.5198 20.581 40.4337 20.3649 41.4464 20.3649C42.4591 20.3649 43.373 20.581 44.1882 21.0133C45.0033 21.4455 45.6455 22.0692 46.1148 22.8843C46.5841 23.6871 46.8188 24.6195 46.8188 25.6816C46.8188 26.7438 46.5779 27.6824 46.0963 28.4975C45.627 29.3003 44.9786 29.9178 44.1511 30.35C43.336 30.7823 42.4221 30.9984 41.4094 30.9984ZM41.4094 28.2567C42.0145 28.2567 42.527 28.0344 42.947 27.5898C43.3792 27.1452 43.5953 26.5091 43.5953 25.6816C43.5953 24.8542 43.3854 24.2181 42.9655 23.7735C42.5579 23.3289 42.0516 23.1066 41.4464 23.1066C40.8289 23.1066 40.3164 23.3289 39.9088 23.7735C39.5012 24.2058 39.2975 24.8418 39.2975 25.6816C39.2975 26.5091 39.4951 27.1452 39.8903 27.5898C40.2978 28.0344 40.8042 28.2567 41.4094 28.2567ZM52.649 30.9984C51.6363 30.9984 50.7224 30.7823 49.9073 30.35C49.1045 29.9178 48.4685 29.3003 47.9992 28.4975C47.5422 27.6947 47.3137 26.7561 47.3137 25.6816C47.3137 24.6195 47.5484 23.6871 48.0177 22.8843C48.487 22.0692 49.1292 21.4455 49.9443 21.0133C50.7594 20.581 51.6734 20.3649 52.6861 20.3649C53.6988 20.3649 54.6127 20.581 55.4278 21.0133C56.2429 21.4455 56.8852 22.0692 57.3545 22.8843C57.8238 23.6871 58.0584 24.6195 58.0584 25.6816C58.0584 26.7438 57.8176 27.6824 57.3359 28.4975C56.8666 29.3003 56.2182 29.9178 55.3908 30.35C54.5757 30.7823 53.6617 30.9984 52.649 30.9984ZM52.649 28.2567C53.2542 28.2567 53.7667 28.0344 54.1866 27.5898C54.6189 27.1452 54.835 26.5091 54.835 25.6816C54.835 24.8542 54.6251 24.2181 54.2052 23.7735C53.7976 23.3289 53.2912 23.1066 52.6861 23.1066C52.0686 23.1066 51.556 23.3289 51.1485 23.7735C50.7409 24.2058 50.5371 24.8418 50.5371 25.6816C50.5371 26.5091 50.7347 27.1452 51.1299 27.5898C51.5375 28.0344 52.0439 28.2567 52.649 28.2567ZM63.1106 20.3649C63.8393 20.3649 64.4753 20.5131 65.0187 20.8095C65.5745 21.1059 66.0006 21.4949 66.297 21.9766V20.5131H69.4648V30.8317C69.4648 31.7827 69.2734 32.641 68.8905 33.4067C68.52 34.1848 67.9458 34.8023 67.1677 35.2593C66.402 35.7162 65.4448 35.9447 64.2963 35.9447C62.7648 35.9447 61.5236 35.5804 60.5727 34.8517C59.6217 34.1354 59.0783 33.1597 58.9424 31.9247H62.0732C62.172 32.3199 62.4067 32.6287 62.7772 32.851C63.1477 33.0856 63.6046 33.2029 64.1481 33.2029C64.8026 33.2029 65.3213 33.0115 65.7042 32.6287C66.0994 32.2581 66.297 31.6592 66.297 30.8317V29.3682C65.9882 29.8499 65.5622 30.2451 65.0187 30.5538C64.4753 30.8502 63.8393 30.9984 63.1106 30.9984C62.2585 30.9984 61.4866 30.7823 60.795 30.35C60.1034 29.9054 59.5538 29.2817 59.1462 28.479C58.751 27.6639 58.5534 26.7252 58.5534 25.6631C58.5534 24.601 58.751 23.6686 59.1462 22.8658C59.5538 22.063 60.1034 21.4455 60.795 21.0133C61.4866 20.581 62.2585 20.3649 63.1106 20.3649ZM66.297 25.6816C66.297 24.8912 66.0747 24.2675 65.6301 23.8106C65.1978 23.3536 64.6668 23.1252 64.0369 23.1252C63.407 23.1252 62.8698 23.3536 62.4252 23.8106C61.9929 24.2552 61.7768 24.8727 61.7768 25.6631C61.7768 26.4535 61.9929 27.0834 62.4252 27.5527C62.8698 28.0097 63.407 28.2381 64.0369 28.2381C64.6668 28.2381 65.1978 28.0097 65.6301 27.5527C66.0747 27.0957 66.297 26.4721 66.297 25.6816ZM74.3687 17.1415V30.8502H71.2009V17.1415H74.3687ZM85.853 25.5149C85.853 25.8113 85.8344 26.1201 85.7974 26.4412H78.6281C78.6775 27.0834 78.8813 27.5774 79.2394 27.9232C79.6099 28.2567 80.0607 28.4234 80.5918 28.4234C81.3822 28.4234 81.9318 28.0899 82.2405 27.423H85.6121C85.4392 28.1023 85.1243 28.7136 84.6673 29.257C84.2227 29.8005 83.6608 30.2265 82.9815 30.5353C82.3023 30.844 81.5427 30.9984 80.7029 30.9984C79.6902 30.9984 78.7886 30.7823 77.9982 30.35C77.2078 29.9178 76.5903 29.3003 76.1457 28.4975C75.7011 27.6947 75.4788 26.7561 75.4788 25.6816C75.4788 24.6072 75.6949 23.6686 76.1271 22.8658C76.5718 22.063 77.1893 21.4455 77.9797 21.0133C78.7701 20.581 79.6778 20.3649 80.7029 20.3649C81.7033 20.3649 82.5925 20.5748 83.3706 20.9947C84.1486 21.4146 84.7538 22.0136 85.186 22.7917C85.6307 23.5698 85.853 24.4775 85.853 25.5149ZM82.611 24.6813C82.611 24.1379 82.4258 23.7056 82.0553 23.3845C81.6848 23.0634 81.2216 22.9028 80.6659 22.9028C80.1348 22.9028 79.684 23.0572 79.3135 23.366C78.9554 23.6747 78.733 24.1132 78.6466 24.6813H82.611Z" fill="black"/>
<rect x="99.9677" y="16.3502" width="256" height="16" rx="8" fill="#F2F2F3"/>
<rect x="22" y="54.7004" width="48.7834" height="3" fill="#D9D9D9"/>
<rect x="22" y="60.7004" width="115.475" height="3" fill="#A3A3AD"/>
<rect x="22" y="66.7004" width="168.581" height="3" fill="#D9D9D9"/>
<rect x="22" y="72.7004" width="148.82" height="3" fill="#D9D9D9"/>
<rect x="22" y="87.7004" width="192.313" height="33" rx="7" fill="#F2F2F3"/>
<rect x="28" y="93.7004" width="88.9217" height="3" fill="#0D070B"/>
<rect x="28" y="99.7004" width="180.313" height="3" fill="#0274D7"/>
<rect x="28" y="105.7" width="168.581" height="3" fill="#0D070B"/>
<rect x="28" y="111.7" width="109.917" height="3" fill="#0D070B"/>
<rect x="22" y="132.7" width="109.917" height="3" fill="#D9D9D9"/>
<rect x="22" y="138.7" width="150.055" height="3" fill="#A3A3AD"/>
<rect x="22" y="144.7" width="131.53" height="3" fill="#D9D9D9"/>
<rect x="22" y="150.7" width="109.917" height="3" fill="#D9D9D9"/>
<rect x="22" y="165.7" width="65.4562" height="3" fill="#D9D9D9"/>
<rect x="22" y="171.7" width="124.737" height="3" fill="#A3A3AD"/>
<rect x="22" y="177.7" width="168.581" height="3" fill="#D9D9D9"/>
<rect x="22" y="183.7" width="24.7005" height="3" fill="#D9D9D9"/>
<path d="M172.324 214.848V212.94H175.648V221.7H173.512V214.848H172.324Z" fill="black"/>
<path d="M196.476 219.84C197.244 219.176 197.848 218.632 198.288 218.208C198.736 217.776 199.108 217.328 199.404 216.864C199.7 216.4 199.848 215.936 199.848 215.472C199.848 214.992 199.732 214.616 199.5 214.344C199.276 214.072 198.92 213.936 198.432 213.936C197.96 213.936 197.592 214.088 197.328 214.392C197.072 214.688 196.936 215.088 196.92 215.592H195.6C195.624 214.68 195.896 213.984 196.416 213.504C196.944 213.016 197.612 212.772 198.42 212.772C199.292 212.772 199.972 213.012 200.46 213.492C200.956 213.972 201.204 214.612 201.204 215.412C201.204 215.988 201.056 216.544 200.76 217.08C200.472 217.608 200.124 218.084 199.716 218.508C199.316 218.924 198.804 219.408 198.18 219.96L197.64 220.44H201.444V221.58H195.612V220.584L196.476 219.84Z" fill="#A3A3AD"/>
<path d="M220.696 215.112C220.744 214.368 221.028 213.788 221.548 213.372C222.076 212.956 222.748 212.748 223.564 212.748C224.124 212.748 224.608 212.848 225.016 213.048C225.424 213.248 225.732 213.52 225.94 213.864C226.148 214.208 226.252 214.596 226.252 215.028C226.252 215.524 226.12 215.948 225.856 216.3C225.592 216.652 225.276 216.888 224.908 217.008V217.056C225.38 217.2 225.748 217.464 226.012 217.848C226.276 218.224 226.408 218.708 226.408 219.3C226.408 219.772 226.3 220.192 226.084 220.56C225.868 220.928 225.548 221.22 225.124 221.436C224.7 221.644 224.192 221.748 223.6 221.748C222.736 221.748 222.024 221.528 221.464 221.088C220.912 220.64 220.616 220 220.576 219.168H221.896C221.928 219.592 222.092 219.94 222.388 220.212C222.684 220.476 223.084 220.608 223.588 220.608C224.076 220.608 224.452 220.476 224.716 220.212C224.98 219.94 225.112 219.592 225.112 219.168C225.112 218.608 224.932 218.212 224.572 217.98C224.22 217.74 223.676 217.62 222.94 217.62H222.628V216.492H222.952C223.6 216.484 224.092 216.376 224.428 216.168C224.772 215.96 224.944 215.632 224.944 215.184C224.944 214.8 224.82 214.496 224.572 214.272C224.324 214.04 223.972 213.924 223.516 213.924C223.068 213.924 222.72 214.04 222.472 214.272C222.224 214.496 222.076 214.776 222.028 215.112H220.696Z" fill="#A3A3AD"/>
<rect x="0.5" y="0.5" width="399" height="267" rx="18.0253" stroke="#0D070B"/>
</svg>
