<svg width="562" height="233" viewBox="0 0 562 233" fill="none" xmlns="http://www.w3.org/2000/svg">
<circle cx="144.5" cy="25.5" r="13.5" fill="#0274D7"/>
<g clip-path="url(#clip0_384_19606)">
<path fill-rule="evenodd" clip-rule="evenodd" d="M148.438 18.4419C148.574 18.075 149.093 18.075 149.229 18.4419L149.791 19.9606C149.833 20.0759 149.924 20.1669 150.04 20.2096L151.558 20.7715C151.925 20.9073 151.925 21.4262 151.558 21.562L150.04 22.1239C149.924 22.1666 149.833 22.2576 149.791 22.3729L149.229 23.8916C149.093 24.2585 148.574 24.2585 148.438 23.8916L147.876 22.3729C147.833 22.2576 147.743 22.1666 147.627 22.1239L146.109 21.562C145.742 21.4262 145.742 20.9073 146.109 20.7715L147.627 20.2096C147.743 20.1669 147.833 20.0759 147.876 19.9606L148.438 18.4419ZM148.438 27.7753C148.574 27.4084 149.093 27.4084 149.229 27.7753L149.791 29.2939C149.833 29.4093 149.924 29.5002 150.04 29.5429L151.558 30.1048C151.925 30.2406 151.925 30.7596 151.558 30.8953L150.04 31.4573C149.924 31.5 149.833 31.5909 149.791 31.7063L149.229 33.2249C149.093 33.5918 148.574 33.5918 148.438 33.2249L147.876 31.7063C147.833 31.5909 147.743 31.5 147.627 31.4573L146.109 30.8953C145.742 30.7596 145.742 30.2406 146.109 30.1048L147.627 29.5429C147.743 29.5002 147.833 29.4093 147.876 29.2939L148.438 27.7753ZM141.822 23.6192L142.167 22.6872L142.512 23.6192C142.718 24.1764 143.157 24.6157 143.714 24.8219L144.646 25.1667L143.714 25.5116C143.157 25.7178 142.718 26.1571 142.512 26.7143L142.167 27.6463L141.822 26.7143C141.616 26.1571 141.176 25.7178 140.619 25.5116L139.687 25.1667L140.619 24.8219C141.176 24.6157 141.616 24.1764 141.822 23.6192ZM141.508 20.6254C141.734 20.0139 142.599 20.0139 142.825 20.6254L143.762 23.1564C143.833 23.3487 143.985 23.5003 144.177 23.5714L146.708 24.508C147.32 24.7343 147.32 25.5992 146.708 25.8255L144.177 26.7621C143.985 26.8332 143.833 26.9848 143.762 27.1771L142.825 29.7081C142.599 30.3196 141.734 30.3196 141.508 29.7081L140.571 27.1771C140.5 26.9848 140.349 26.8332 140.156 26.7621L137.625 25.8255C137.014 25.5992 137.014 24.7343 137.625 24.508L140.156 23.5714C140.349 23.5003 140.5 23.3487 140.571 23.1564L141.508 20.6254Z" fill="white"/>
</g>
<g clip-path="url(#clip1_384_19606)">
<path d="M89.51 96.25C88.56 101.39 87.5 105.96 86.94 110.59C86.56 113.73 86.91 116.96 86.92 120.15C86.93 124.06 87.09 127.97 86.9 131.87C86.6 137.86 86.03 143.83 85.64 149.81C85.56 151.08 85.72 152.36 85.77 153.64C85.83 155.34 85.15 156.41 83.54 156.89C80.69 157.74 77.84 157.66 75.11 156.45C74.52 156.19 73.98 155.55 73.7 154.95C73.37 154.25 73.23 153.41 73.22 152.64C73.16 143.74 72.4 134.93 70.14 126.27C68.81 121.17 68.9 115.96 69.99 110.81C71.67 102.87 70.83 95.08 68.89 87.31C67.27 80.79 65.73 74.23 65.68 67.47C65.65 63.89 65.95 60.3 66.22 56.72C66.42 54.09 66.83 51.48 67.12 48.86C67.41 46.24 68.61 43.98 69.96 41.8C70.3 41.24 70.97 40.82 71.57 40.5C74.56 38.87 77.85 38.2 81.2 37.85C87.16 37.23 93.14 36.42 99.11 37.6C101.45 38.06 103.79 38.62 106.06 39.38C108.36 40.15 109.83 41.8 110.74 44.16C113.74 51.9 114.9 59.8 114.05 68.12C113.09 77.47 110.97 86.55 108.78 95.64C107.17 102.31 106.58 109 107.35 115.85C108.03 121.94 107.14 127.95 105.91 133.94C104.85 139.1 104.13 144.33 103.34 149.55C103.15 150.8 103.21 152.1 103.25 153.38C103.31 155.45 102.79 156.4 100.86 156.9C98.74 157.45 96.57 157.42 94.46 156.79C92.47 156.2 91.87 154.56 91.65 152.73C91.37 150.35 91.16 147.96 90.9 145.57C90.37 140.72 89.77 135.89 89.31 131.04C88.79 125.58 89.71 120.2 90.48 114.81C91.28 109.22 91.09 103.65 90.06 98.1C89.98 97.65 89.8 97.21 89.52 96.25H89.51ZM72.24 42.98C71.15 47.64 69.87 52.02 69.14 56.49C67.79 64.8 68.6 73.09 70.31 81.28C71.1 85.06 71.39 89.07 74.39 92.03C74.61 92.24 74.7 92.58 74.85 92.87C76.5 96.02 77.58 99.39 77.99 102.89C79.07 112.25 78.08 121.4 74.67 130.22C74.24 131.32 74.15 132.32 74.34 133.46C74.77 136.06 75.23 138.67 75.41 141.29C75.66 144.96 75.66 148.64 75.79 152.31C75.85 154.02 76.08 154.37 77.74 154.81C79.63 155.31 81.51 155.18 83.33 154.54C83.39 154.16 83.46 153.94 83.46 153.71C83.56 148.12 83.5 142.52 83.81 136.94C84.14 131.03 84.87 125.16 84 119.24C83.32 114.6 83.92 109.99 84.72 105.41C86.06 97.77 87.38 90.13 88.65 82.48C88.88 81.07 88.89 79.61 88.94 78.18C88.99 76.78 88.95 75.37 88.95 73.91C88.2 73.76 87.57 73.66 86.96 73.5C85.61 73.15 84.94 72.47 85.19 71.66C85.53 70.54 86.47 70.64 87.36 70.7C89.11 70.82 90.86 70.89 92.6 71.1C93.14 71.17 93.93 71.52 94.07 71.93C94.37 72.8 93.54 73.14 92.86 73.4C92.21 73.65 91.53 73.84 90.71 74.11C91.12 79.56 91.49 84.89 91.94 90.22C92.15 92.69 92.3 95.19 92.86 97.59C94.29 103.77 94.46 109.96 93.27 116.16C91.88 123.37 91.37 130.57 92.65 137.85C93.57 143.06 94.19 148.29 93.98 153.6C93.98 153.83 94.08 154.06 94.19 154.49C96.35 155.04 98.48 154.93 100.66 154.12C100.75 152.09 100.71 150.16 100.95 148.28C101.67 142.73 102.53 137.2 103.28 131.66C103.36 131.08 103.25 130.42 103.03 129.88C102.25 127.96 101.27 126.12 100.57 124.18C98.08 117.29 97.18 110.21 98.38 102.94C99.35 97.08 101.87 91.84 104.95 86.83C106.28 84.66 107.98 82.64 108.86 80.31C109.74 77.96 109.88 75.31 110.23 72.78C110.81 68.59 111.48 64.39 110.86 60.13C110.51 57.68 110.21 55.22 109.79 52.78C109.23 49.57 108.66 46.36 107.38 43.33C98.25 47.16 79.95 46.6 72.25 43.01L72.24 42.98ZM106.59 90.56L106.09 90.39C102.98 95.8 100.66 101.46 100.34 107.84C100.02 114.23 101.68 120.19 103.89 126.46C104.69 123.94 104.95 119.71 104.45 116.1C103.51 109.3 104.01 102.58 105.46 95.91C105.85 94.13 106.21 92.35 106.58 90.57L106.59 90.56ZM104.5 41.37C96.79 37.98 79.96 38.55 74.39 41.18C75.6 42.18 77.07 42.18 78.44 42.37C86 43.43 93.56 42.6 101.11 42.32C102.25 42.28 103.36 41.7 104.49 41.37H104.5ZM73.44 128.2C76.65 119.43 77.38 102.63 73.5 96.51C74.31 102.6 73.38 108.27 72.49 113.93C71.8 118.33 72.15 122.67 72.98 127C73.05 127.35 73.24 127.67 73.45 128.2H73.44Z" fill="#0D070B"/>
</g>
<path d="M31.552 185.834C31.552 186.485 31.4027 187.082 31.104 187.626C30.8053 188.159 30.3467 188.591 29.728 188.922C29.1093 189.253 28.3413 189.418 27.424 189.418H25.728V193.45H22.992V182.218H27.424C28.32 182.218 29.0773 182.373 29.696 182.682C30.3147 182.991 30.7787 183.418 31.088 183.962C31.3973 184.506 31.552 185.13 31.552 185.834ZM27.216 187.242C27.7387 187.242 28.128 187.119 28.384 186.874C28.64 186.629 28.768 186.282 28.768 185.834C28.768 185.386 28.64 185.039 28.384 184.794C28.128 184.549 27.7387 184.426 27.216 184.426H25.728V187.242H27.216ZM31.9524 188.97C31.9524 188.053 32.123 187.247 32.4644 186.554C32.8164 185.861 33.291 185.327 33.8884 184.954C34.4857 184.581 35.1524 184.394 35.8884 184.394C36.5177 184.394 37.067 184.522 37.5364 184.778C38.0164 185.034 38.3844 185.37 38.6404 185.786V184.522H41.3764V193.45H38.6404V192.186C38.3737 192.602 38.0004 192.938 37.5204 193.194C37.051 193.45 36.5017 193.578 35.8724 193.578C35.147 193.578 34.4857 193.391 33.8884 193.018C33.291 192.634 32.8164 192.095 32.4644 191.402C32.123 190.698 31.9524 189.887 31.9524 188.97ZM38.6404 188.986C38.6404 188.303 38.4484 187.765 38.0644 187.37C37.691 186.975 37.2324 186.778 36.6884 186.778C36.1444 186.778 35.6804 186.975 35.2964 187.37C34.923 187.754 34.7364 188.287 34.7364 188.97C34.7364 189.653 34.923 190.197 35.2964 190.602C35.6804 190.997 36.1444 191.194 36.6884 191.194C37.2324 191.194 37.691 190.997 38.0644 190.602C38.4484 190.207 38.6404 189.669 38.6404 188.986ZM48.3158 184.426C49.3611 184.426 50.1931 184.767 50.8118 185.45C51.4411 186.122 51.7558 187.05 51.7558 188.234V193.45H49.0358V188.602C49.0358 188.005 48.8811 187.541 48.5718 187.21C48.2624 186.879 47.8464 186.714 47.3238 186.714C46.8011 186.714 46.3851 186.879 46.0758 187.21C45.7664 187.541 45.6118 188.005 45.6118 188.602V193.45H42.8758V184.522H45.6118V185.706C45.8891 185.311 46.2624 185.002 46.7318 184.778C47.2011 184.543 47.7291 184.426 48.3158 184.426ZM58.153 191.13V193.45H56.761C55.769 193.45 54.9957 193.21 54.441 192.73C53.8863 192.239 53.609 191.445 53.609 190.346V186.794H52.521V184.522H53.609V182.346H56.345V184.522H58.137V186.794H56.345V190.378C56.345 190.645 56.409 190.837 56.537 190.954C56.665 191.071 56.8783 191.13 57.177 191.13H58.153ZM58.653 188.97C58.653 188.053 58.8237 187.247 59.165 186.554C59.517 185.861 59.9917 185.327 60.589 184.954C61.1863 184.581 61.853 184.394 62.589 184.394C63.2183 184.394 63.7677 184.522 64.237 184.778C64.717 185.034 65.085 185.37 65.341 185.786V184.522H68.077V193.45H65.341V192.186C65.0743 192.602 64.701 192.938 64.221 193.194C63.7517 193.45 63.2023 193.578 62.573 193.578C61.8477 193.578 61.1863 193.391 60.589 193.018C59.9917 192.634 59.517 192.095 59.165 191.402C58.8237 190.698 58.653 189.887 58.653 188.97ZM65.341 188.986C65.341 188.303 65.149 187.765 64.765 187.37C64.3917 186.975 63.933 186.778 63.389 186.778C62.845 186.778 62.381 186.975 61.997 187.37C61.6237 187.754 61.437 188.287 61.437 188.97C61.437 189.653 61.6237 190.197 61.997 190.602C62.381 190.997 62.845 191.194 63.389 191.194C63.933 191.194 64.3917 190.997 64.765 190.602C65.149 190.207 65.341 189.669 65.341 188.986ZM72.3124 181.61V193.45H69.5764V181.61H72.3124ZM77.8791 193.578C77.0045 193.578 76.2151 193.391 75.5111 193.018C74.8178 192.645 74.2685 192.111 73.8631 191.418C73.4685 190.725 73.2711 189.914 73.2711 188.986C73.2711 188.069 73.4738 187.263 73.8791 186.57C74.2845 185.866 74.8391 185.327 75.5431 184.954C76.2471 184.581 77.0365 184.394 77.9111 184.394C78.7858 184.394 79.5751 184.581 80.2791 184.954C80.9831 185.327 81.5378 185.866 81.9431 186.57C82.3485 187.263 82.5511 188.069 82.5511 188.986C82.5511 189.903 82.3431 190.714 81.9271 191.418C81.5218 192.111 80.9618 192.645 80.2471 193.018C79.5431 193.391 78.7538 193.578 77.8791 193.578ZM77.8791 191.21C78.4018 191.21 78.8445 191.018 79.2071 190.634C79.5805 190.25 79.7671 189.701 79.7671 188.986C79.7671 188.271 79.5858 187.722 79.2231 187.338C78.8711 186.954 78.4338 186.762 77.9111 186.762C77.3778 186.762 76.9351 186.954 76.5831 187.338C76.2311 187.711 76.0551 188.261 76.0551 188.986C76.0551 189.701 76.2258 190.25 76.5671 190.634C76.9191 191.018 77.3565 191.21 77.8791 191.21ZM88.9626 184.426C90.008 184.426 90.84 184.767 91.4586 185.45C92.088 186.122 92.4026 187.05 92.4026 188.234V193.45H89.6826V188.602C89.6826 188.005 89.528 187.541 89.2186 187.21C88.9093 186.879 88.4933 186.714 87.9706 186.714C87.448 186.714 87.032 186.879 86.7226 187.21C86.4133 187.541 86.2586 188.005 86.2586 188.602V193.45H83.5226V184.522H86.2586V185.706C86.536 185.311 86.9093 185.002 87.3786 184.778C87.848 184.543 88.376 184.426 88.9626 184.426ZM99.4705 181.61V193.45H96.7345V181.61H99.4705ZM109.389 188.842C109.389 189.098 109.373 189.365 109.341 189.642H103.149C103.192 190.197 103.368 190.623 103.677 190.922C103.997 191.21 104.387 191.354 104.845 191.354C105.528 191.354 106.003 191.066 106.269 190.49H109.181C109.032 191.077 108.76 191.605 108.365 192.074C107.981 192.543 107.496 192.911 106.909 193.178C106.323 193.445 105.667 193.578 104.941 193.578C104.067 193.578 103.288 193.391 102.605 193.018C101.923 192.645 101.389 192.111 101.005 191.418C100.621 190.725 100.429 189.914 100.429 188.986C100.429 188.058 100.616 187.247 100.989 186.554C101.373 185.861 101.907 185.327 102.589 184.954C103.272 184.581 104.056 184.394 104.941 184.394C105.805 184.394 106.573 184.575 107.245 184.938C107.917 185.301 108.44 185.818 108.813 186.49C109.197 187.162 109.389 187.946 109.389 188.842ZM106.589 188.122C106.589 187.653 106.429 187.279 106.109 187.002C105.789 186.725 105.389 186.586 104.909 186.586C104.451 186.586 104.061 186.719 103.741 186.986C103.432 187.253 103.24 187.631 103.165 188.122H106.589ZM113.745 184.394C114.374 184.394 114.923 184.522 115.393 184.778C115.873 185.034 116.241 185.37 116.497 185.786V184.522H119.233V193.434C119.233 194.255 119.067 194.997 118.737 195.658C118.417 196.33 117.921 196.863 117.249 197.258C116.587 197.653 115.761 197.85 114.769 197.85C113.446 197.85 112.374 197.535 111.553 196.906C110.731 196.287 110.262 195.445 110.145 194.378H112.849C112.934 194.719 113.137 194.986 113.457 195.178C113.777 195.381 114.171 195.482 114.641 195.482C115.206 195.482 115.654 195.317 115.985 194.986C116.326 194.666 116.497 194.149 116.497 193.434V192.17C116.23 192.586 115.862 192.927 115.393 193.194C114.923 193.45 114.374 193.578 113.745 193.578C113.009 193.578 112.342 193.391 111.745 193.018C111.147 192.634 110.673 192.095 110.321 191.402C109.979 190.698 109.809 189.887 109.809 188.97C109.809 188.053 109.979 187.247 110.321 186.554C110.673 185.861 111.147 185.327 111.745 184.954C112.342 184.581 113.009 184.394 113.745 184.394ZM116.497 188.986C116.497 188.303 116.305 187.765 115.921 187.37C115.547 186.975 115.089 186.778 114.545 186.778C114.001 186.778 113.537 186.975 113.153 187.37C112.779 187.754 112.593 188.287 112.593 188.97C112.593 189.653 112.779 190.197 113.153 190.602C113.537 190.997 114.001 191.194 114.545 191.194C115.089 191.194 115.547 190.997 115.921 190.602C116.305 190.207 116.497 189.669 116.497 188.986ZM124.124 184.394C124.753 184.394 125.303 184.522 125.772 184.778C126.252 185.034 126.62 185.37 126.876 185.786V184.522H129.612V193.434C129.612 194.255 129.447 194.997 129.116 195.658C128.796 196.33 128.3 196.863 127.628 197.258C126.967 197.653 126.14 197.85 125.148 197.85C123.825 197.85 122.753 197.535 121.932 196.906C121.111 196.287 120.641 195.445 120.524 194.378H123.228C123.313 194.719 123.516 194.986 123.836 195.178C124.156 195.381 124.551 195.482 125.02 195.482C125.585 195.482 126.033 195.317 126.364 194.986C126.705 194.666 126.876 194.149 126.876 193.434V192.17C126.609 192.586 126.241 192.927 125.772 193.194C125.303 193.45 124.753 193.578 124.124 193.578C123.388 193.578 122.721 193.391 122.124 193.018C121.527 192.634 121.052 192.095 120.7 191.402C120.359 190.698 120.188 189.887 120.188 188.97C120.188 188.053 120.359 187.247 120.7 186.554C121.052 185.861 121.527 185.327 122.124 184.954C122.721 184.581 123.388 184.394 124.124 184.394ZM126.876 188.986C126.876 188.303 126.684 187.765 126.3 187.37C125.927 186.975 125.468 186.778 124.924 186.778C124.38 186.778 123.916 186.975 123.532 187.37C123.159 187.754 122.972 188.287 122.972 188.97C122.972 189.653 123.159 190.197 123.532 190.602C123.916 190.997 124.38 191.194 124.924 191.194C125.468 191.194 125.927 190.997 126.3 190.602C126.684 190.207 126.876 189.669 126.876 188.986ZM132.487 183.594C132.007 183.594 131.613 183.455 131.303 183.178C131.005 182.89 130.855 182.538 130.855 182.122C130.855 181.695 131.005 181.343 131.303 181.066C131.613 180.778 132.007 180.634 132.487 180.634C132.957 180.634 133.341 180.778 133.639 181.066C133.949 181.343 134.103 181.695 134.103 182.122C134.103 182.538 133.949 182.89 133.639 183.178C133.341 183.455 132.957 183.594 132.487 183.594ZM133.847 184.522V193.45H131.111V184.522H133.847ZM140.79 184.426C141.835 184.426 142.667 184.767 143.286 185.45C143.915 186.122 144.23 187.05 144.23 188.234V193.45H141.51V188.602C141.51 188.005 141.355 187.541 141.046 187.21C140.737 186.879 140.321 186.714 139.798 186.714C139.275 186.714 138.859 186.879 138.55 187.21C138.241 187.541 138.086 188.005 138.086 188.602V193.45H135.35V184.522H138.086V185.706C138.363 185.311 138.737 185.002 139.206 184.778C139.675 184.543 140.203 184.426 140.79 184.426ZM149.043 184.394C149.673 184.394 150.222 184.522 150.691 184.778C151.171 185.034 151.539 185.37 151.795 185.786V184.522H154.531V193.434C154.531 194.255 154.366 194.997 154.035 195.658C153.715 196.33 153.219 196.863 152.547 197.258C151.886 197.653 151.059 197.85 150.067 197.85C148.745 197.85 147.673 197.535 146.851 196.906C146.03 196.287 145.561 195.445 145.443 194.378H148.147C148.233 194.719 148.435 194.986 148.755 195.178C149.075 195.381 149.47 195.482 149.939 195.482C150.505 195.482 150.953 195.317 151.283 194.986C151.625 194.666 151.795 194.149 151.795 193.434V192.17C151.529 192.586 151.161 192.927 150.691 193.194C150.222 193.45 149.673 193.578 149.043 193.578C148.307 193.578 147.641 193.391 147.043 193.018C146.446 192.634 145.971 192.095 145.619 191.402C145.278 190.698 145.107 189.887 145.107 188.97C145.107 188.053 145.278 187.247 145.619 186.554C145.971 185.861 146.446 185.327 147.043 184.954C147.641 184.581 148.307 184.394 149.043 184.394ZM151.795 188.986C151.795 188.303 151.603 187.765 151.219 187.37C150.846 186.975 150.387 186.778 149.843 186.778C149.299 186.778 148.835 186.975 148.451 187.37C148.078 187.754 147.891 188.287 147.891 188.97C147.891 189.653 148.078 190.197 148.451 190.602C148.835 190.997 149.299 191.194 149.843 191.194C150.387 191.194 150.846 190.997 151.219 190.602C151.603 190.207 151.795 189.669 151.795 188.986Z" fill="black"/>
<rect x="22" y="203.45" width="71" height="7" fill="#D9D9D9"/>
<rect x="22" y="213.45" width="16" height="7" fill="#A3A3AD"/>
<rect x="0.5" y="0.5" width="179" height="231.45" rx="18.0253" stroke="#0D070B"/>
<circle cx="335.5" cy="25.5" r="13.5" fill="#0274D7"/>
<g clip-path="url(#clip2_384_19606)">
<path fill-rule="evenodd" clip-rule="evenodd" d="M339.438 18.4419C339.574 18.075 340.093 18.075 340.229 18.4419L340.791 19.9606C340.833 20.0759 340.924 20.1669 341.04 20.2096L342.558 20.7715C342.925 20.9073 342.925 21.4262 342.558 21.562L341.04 22.1239C340.924 22.1666 340.833 22.2576 340.791 22.3729L340.229 23.8916C340.093 24.2585 339.574 24.2585 339.438 23.8916L338.876 22.3729C338.833 22.2576 338.742 22.1666 338.627 22.1239L337.109 21.562C336.742 21.4262 336.742 20.9073 337.109 20.7715L338.627 20.2096C338.742 20.1669 338.833 20.0759 338.876 19.9606L339.438 18.4419ZM339.438 27.7753C339.574 27.4084 340.093 27.4084 340.229 27.7753L340.791 29.2939C340.833 29.4093 340.924 29.5002 341.04 29.5429L342.558 30.1048C342.925 30.2406 342.925 30.7596 342.558 30.8953L341.04 31.4573C340.924 31.5 340.833 31.5909 340.791 31.7063L340.229 33.2249C340.093 33.5918 339.574 33.5918 339.438 33.2249L338.876 31.7063C338.833 31.5909 338.742 31.5 338.627 31.4573L337.109 30.8953C336.742 30.7596 336.742 30.2406 337.109 30.1048L338.627 29.5429C338.742 29.5002 338.833 29.4093 338.876 29.2939L339.438 27.7753ZM332.822 23.6192L333.167 22.6872L333.512 23.6192C333.718 24.1764 334.157 24.6157 334.714 24.8219L335.646 25.1667L334.714 25.5116C334.157 25.7178 333.718 26.1571 333.512 26.7143L333.167 27.6463L332.822 26.7143C332.616 26.1571 332.176 25.7178 331.619 25.5116L330.687 25.1667L331.619 24.8219C332.176 24.6157 332.616 24.1764 332.822 23.6192ZM332.508 20.6254C332.734 20.0139 333.599 20.0139 333.825 20.6254L334.762 23.1564C334.833 23.3487 334.985 23.5003 335.177 23.5714L337.708 24.508C338.32 24.7343 338.32 25.5992 337.708 25.8255L335.177 26.7621C334.985 26.8332 334.833 26.9848 334.762 27.1771L333.825 29.7081C333.599 30.3196 332.734 30.3196 332.508 29.7081L331.571 27.1771C331.5 26.9848 331.349 26.8332 331.156 26.7621L328.625 25.8255C328.014 25.5992 328.014 24.7343 328.625 24.508L331.156 23.5714C331.349 23.5003 331.5 23.3487 331.571 23.1564L332.508 20.6254Z" fill="white"/>
</g>
<g clip-path="url(#clip3_384_19606)">
<path fill-rule="evenodd" clip-rule="evenodd" d="M318.38 76.5636C318.914 78.6906 319.449 80.8178 319.9 82.9601L319.92 82.9701C321.36 89.8301 321.36 96.7901 321.26 103.76C321.195 108.315 321.135 112.873 321.075 117.43C321.015 121.988 320.955 126.545 320.89 131.1C320.85 133.57 320.63 134.07 318.28 134.71C316.05 135.32 313.75 135.69 311.45 135.95C305.01 136.69 298.57 137.35 292.07 136.99C291.732 136.971 291.394 136.955 291.056 136.938C289.955 136.884 288.854 136.83 287.76 136.7C285.18 136.39 283.91 135.09 283.82 132.45C283.743 130.169 283.759 127.883 283.775 125.48C283.782 124.438 283.79 123.375 283.79 122.28C282.945 122.317 282.211 122.354 281.476 122.391C281.219 122.404 280.962 122.417 280.7 122.43C280.7 123.406 280.701 124.353 280.702 125.281C280.704 127.082 280.706 128.811 280.7 130.54V130.54C280.68 135.03 280.68 135.06 276.27 135.88C265.9 137.8 255.6 137.45 245.31 135.18C243.15 134.7 242.12 133.53 241.93 131.48C241.73 129.33 241.59 127.18 241.49 125.02C241.422 123.553 241.35 122.086 241.277 120.618C241.05 116.012 240.823 111.403 240.74 106.8C240.56 96.5901 241.66 86.5301 244.63 76.7001C245.063 75.2815 245.409 73.8339 245.755 72.3857C245.985 71.4247 246.214 70.4634 246.47 69.5101C247.03 67.4301 247.72 66.9101 249.9 67.0001C250.916 67.0495 251.928 67.1687 252.934 67.2873C253.354 67.3367 253.772 67.386 254.19 67.4301C265.04 68.5401 275.91 68.4201 286.79 68.0901C295.34 67.8301 303.9 67.6401 312.45 67.4701C316.236 67.4001 316.27 67.5498 317.107 71.3099L317.11 71.3201C317.502 73.0733 317.941 74.8184 318.38 76.5636ZM318.191 126.223C318.169 125.379 318.148 124.535 318.18 123.69L318.19 123.7C318.61 112.98 318.44 102.28 318.08 91.5601C317.82 84.0401 316.13 76.8801 314.09 69.9401C292.17 71.6501 270.42 72.6001 248.5 70.8001C248.175 72.285 247.836 73.748 247.5 75.1975C246.749 78.4334 246.015 81.6025 245.49 84.8001C244.51 90.8001 244.06 96.8501 244.28 102.96C244.436 107.274 244.484 111.591 244.532 115.908C244.564 118.786 244.596 121.664 244.66 124.54C244.694 126.261 244.834 127.982 244.977 129.734C245.044 130.558 245.112 131.389 245.17 132.23C256.04 133.99 266.71 135.11 277.75 133.46C277.634 131.569 277.521 129.708 277.406 127.821C277.303 126.126 277.199 124.409 277.09 122.63C277.023 122.605 276.958 122.581 276.895 122.557C276.629 122.456 276.392 122.367 276.15 122.31C275.1 122.07 274.29 121.53 274.52 120.36C274.75 119.19 275.75 119.08 276.78 119.06C278.388 119.027 279.993 118.977 281.599 118.926C282.938 118.884 284.278 118.842 285.62 118.81C285.833 118.804 286.065 118.773 286.3 118.742C287.146 118.629 288.045 118.51 288.35 119.48C288.464 119.851 288.042 120.39 287.578 120.984C287.353 121.271 287.119 121.57 286.93 121.87V133.34C297.45 134.23 307.6 133.7 317.92 132.14C317.952 131.757 317.989 131.384 318.024 131.017C318.108 130.149 318.189 129.32 318.21 128.49C318.229 127.735 318.21 126.979 318.191 126.223ZM306.45 122.32C308.48 121.56 310.51 121.72 312.43 122.73L312.42 122.72C313.21 123.14 313.95 123.88 313.65 124.81C313.41 125.55 312.78 126.35 312.11 126.71C311.566 127.006 310.909 127.093 310.226 127.184C309.917 127.226 309.602 127.268 309.29 127.33C309.003 127.262 308.704 127.21 308.404 127.157C307.687 127.032 306.962 126.905 306.37 126.56C305.73 126.19 305.19 125.29 305.02 124.54C304.79 123.51 305.5 122.68 306.45 122.32Z" fill="#0D070B"/>
</g>
<path d="M218.056 193.562C217.235 193.562 216.499 193.429 215.848 193.162C215.197 192.895 214.675 192.501 214.28 191.978C213.896 191.455 213.693 190.826 213.672 190.09H216.584C216.627 190.506 216.771 190.826 217.016 191.05C217.261 191.263 217.581 191.37 217.976 191.37C218.381 191.37 218.701 191.279 218.936 191.098C219.171 190.906 219.288 190.645 219.288 190.314C219.288 190.037 219.192 189.807 219 189.626C218.819 189.445 218.589 189.295 218.312 189.178C218.045 189.061 217.661 188.927 217.16 188.778C216.435 188.554 215.843 188.33 215.384 188.106C214.925 187.882 214.531 187.551 214.2 187.114C213.869 186.677 213.704 186.106 213.704 185.402C213.704 184.357 214.083 183.541 214.84 182.954C215.597 182.357 216.584 182.058 217.8 182.058C219.037 182.058 220.035 182.357 220.792 182.954C221.549 183.541 221.955 184.362 222.008 185.418H219.048C219.027 185.055 218.893 184.773 218.648 184.57C218.403 184.357 218.088 184.25 217.704 184.25C217.373 184.25 217.107 184.341 216.904 184.522C216.701 184.693 216.6 184.943 216.6 185.274C216.6 185.637 216.771 185.919 217.112 186.122C217.453 186.325 217.987 186.543 218.712 186.778C219.437 187.023 220.024 187.258 220.472 187.482C220.931 187.706 221.325 188.031 221.656 188.458C221.987 188.885 222.152 189.434 222.152 190.106C222.152 190.746 221.987 191.327 221.656 191.85C221.336 192.373 220.867 192.789 220.248 193.098C219.629 193.407 218.899 193.562 218.056 193.562ZM228.844 184.426C229.868 184.426 230.689 184.767 231.308 185.45C231.926 186.122 232.236 187.05 232.236 188.234V193.45H229.516V188.602C229.516 188.005 229.361 187.541 229.052 187.21C228.742 186.879 228.326 186.714 227.804 186.714C227.281 186.714 226.865 186.879 226.556 187.21C226.246 187.541 226.092 188.005 226.092 188.602V193.45H223.356V181.61H226.092V185.722C226.369 185.327 226.748 185.013 227.228 184.778C227.708 184.543 228.246 184.426 228.844 184.426ZM237.721 193.578C236.846 193.578 236.057 193.391 235.353 193.018C234.66 192.645 234.11 192.111 233.705 191.418C233.31 190.725 233.113 189.914 233.113 188.986C233.113 188.069 233.316 187.263 233.721 186.57C234.126 185.866 234.681 185.327 235.385 184.954C236.089 184.581 236.878 184.394 237.753 184.394C238.628 184.394 239.417 184.581 240.121 184.954C240.825 185.327 241.38 185.866 241.785 186.57C242.19 187.263 242.393 188.069 242.393 188.986C242.393 189.903 242.185 190.714 241.769 191.418C241.364 192.111 240.804 192.645 240.089 193.018C239.385 193.391 238.596 193.578 237.721 193.578ZM237.721 191.21C238.244 191.21 238.686 191.018 239.049 190.634C239.422 190.25 239.609 189.701 239.609 188.986C239.609 188.271 239.428 187.722 239.065 187.338C238.713 186.954 238.276 186.762 237.753 186.762C237.22 186.762 236.777 186.954 236.425 187.338C236.073 187.711 235.897 188.261 235.897 188.986C235.897 189.701 236.068 190.25 236.409 190.634C236.761 191.018 237.198 191.21 237.721 191.21ZM246.1 186.01C246.42 185.519 246.82 185.135 247.3 184.858C247.78 184.57 248.314 184.426 248.9 184.426V187.322H248.148C247.466 187.322 246.954 187.471 246.612 187.77C246.271 188.058 246.1 188.57 246.1 189.306V193.45H243.364V184.522H246.1V186.01ZM254.704 191.13V193.45H253.312C252.32 193.45 251.547 193.21 250.992 192.73C250.438 192.239 250.16 191.445 250.16 190.346V186.794H249.072V184.522H250.16V182.346H252.896V184.522H254.688V186.794H252.896V190.378C252.896 190.645 252.96 190.837 253.088 190.954C253.216 191.071 253.43 191.13 253.728 191.13H254.704ZM261.395 181.61V193.45H258.659V181.61H261.395ZM271.314 188.842C271.314 189.098 271.298 189.365 271.266 189.642H265.074C265.116 190.197 265.292 190.623 265.602 190.922C265.922 191.21 266.311 191.354 266.77 191.354C267.452 191.354 267.927 191.066 268.194 190.49H271.106C270.956 191.077 270.684 191.605 270.29 192.074C269.906 192.543 269.42 192.911 268.834 193.178C268.247 193.445 267.591 193.578 266.866 193.578C265.991 193.578 265.212 193.391 264.53 193.018C263.847 192.645 263.314 192.111 262.93 191.418C262.546 190.725 262.354 189.914 262.354 188.986C262.354 188.058 262.54 187.247 262.914 186.554C263.298 185.861 263.831 185.327 264.514 184.954C265.196 184.581 265.98 184.394 266.866 184.394C267.73 184.394 268.498 184.575 269.17 184.938C269.842 185.301 270.364 185.818 270.738 186.49C271.122 187.162 271.314 187.946 271.314 188.842ZM268.514 188.122C268.514 187.653 268.354 187.279 268.034 187.002C267.714 186.725 267.314 186.586 266.834 186.586C266.375 186.586 265.986 186.719 265.666 186.986C265.356 187.253 265.164 187.631 265.09 188.122H268.514ZM275.669 184.394C276.298 184.394 276.848 184.522 277.317 184.778C277.797 185.034 278.165 185.37 278.421 185.786V184.522H281.157V193.434C281.157 194.255 280.992 194.997 280.661 195.658C280.341 196.33 279.845 196.863 279.173 197.258C278.512 197.653 277.685 197.85 276.693 197.85C275.37 197.85 274.298 197.535 273.477 196.906C272.656 196.287 272.186 195.445 272.069 194.378H274.773C274.858 194.719 275.061 194.986 275.381 195.178C275.701 195.381 276.096 195.482 276.565 195.482C277.13 195.482 277.578 195.317 277.909 194.986C278.25 194.666 278.421 194.149 278.421 193.434V192.17C278.154 192.586 277.786 192.927 277.317 193.194C276.848 193.45 276.298 193.578 275.669 193.578C274.933 193.578 274.266 193.391 273.669 193.018C273.072 192.634 272.597 192.095 272.245 191.402C271.904 190.698 271.733 189.887 271.733 188.97C271.733 188.053 271.904 187.247 272.245 186.554C272.597 185.861 273.072 185.327 273.669 184.954C274.266 184.581 274.933 184.394 275.669 184.394ZM278.421 188.986C278.421 188.303 278.229 187.765 277.845 187.37C277.472 186.975 277.013 186.778 276.469 186.778C275.925 186.778 275.461 186.975 275.077 187.37C274.704 187.754 274.517 188.287 274.517 188.97C274.517 189.653 274.704 190.197 275.077 190.602C275.461 190.997 275.925 191.194 276.469 191.194C277.013 191.194 277.472 190.997 277.845 190.602C278.229 190.207 278.421 189.669 278.421 188.986ZM286.048 184.394C286.678 184.394 287.227 184.522 287.696 184.778C288.176 185.034 288.544 185.37 288.8 185.786V184.522H291.536V193.434C291.536 194.255 291.371 194.997 291.04 195.658C290.72 196.33 290.224 196.863 289.552 197.258C288.891 197.653 288.064 197.85 287.072 197.85C285.75 197.85 284.678 197.535 283.856 196.906C283.035 196.287 282.566 195.445 282.448 194.378H285.152C285.238 194.719 285.44 194.986 285.76 195.178C286.08 195.381 286.475 195.482 286.944 195.482C287.51 195.482 287.958 195.317 288.288 194.986C288.63 194.666 288.8 194.149 288.8 193.434V192.17C288.534 192.586 288.166 192.927 287.696 193.194C287.227 193.45 286.678 193.578 286.048 193.578C285.312 193.578 284.646 193.391 284.048 193.018C283.451 192.634 282.976 192.095 282.624 191.402C282.283 190.698 282.112 189.887 282.112 188.97C282.112 188.053 282.283 187.247 282.624 186.554C282.976 185.861 283.451 185.327 284.048 184.954C284.646 184.581 285.312 184.394 286.048 184.394ZM288.8 188.986C288.8 188.303 288.608 187.765 288.224 187.37C287.851 186.975 287.392 186.778 286.848 186.778C286.304 186.778 285.84 186.975 285.456 187.37C285.083 187.754 284.896 188.287 284.896 188.97C284.896 189.653 285.083 190.197 285.456 190.602C285.84 190.997 286.304 191.194 286.848 191.194C287.392 191.194 287.851 190.997 288.224 190.602C288.608 190.207 288.8 189.669 288.8 188.986ZM294.412 183.594C293.932 183.594 293.537 183.455 293.228 183.178C292.929 182.89 292.78 182.538 292.78 182.122C292.78 181.695 292.929 181.343 293.228 181.066C293.537 180.778 293.932 180.634 294.412 180.634C294.881 180.634 295.265 180.778 295.564 181.066C295.873 181.343 296.028 181.695 296.028 182.122C296.028 182.538 295.873 182.89 295.564 183.178C295.265 183.455 294.881 183.594 294.412 183.594ZM295.772 184.522V193.45H293.036V184.522H295.772ZM302.715 184.426C303.76 184.426 304.592 184.767 305.211 185.45C305.84 186.122 306.155 187.05 306.155 188.234V193.45H303.435V188.602C303.435 188.005 303.28 187.541 302.971 187.21C302.661 186.879 302.245 186.714 301.723 186.714C301.2 186.714 300.784 186.879 300.475 187.21C300.165 187.541 300.011 188.005 300.011 188.602V193.45H297.275V184.522H300.011V185.706C300.288 185.311 300.661 185.002 301.131 184.778C301.6 184.543 302.128 184.426 302.715 184.426ZM310.968 184.394C311.597 184.394 312.146 184.522 312.616 184.778C313.096 185.034 313.464 185.37 313.72 185.786V184.522H316.456V193.434C316.456 194.255 316.29 194.997 315.96 195.658C315.64 196.33 315.144 196.863 314.472 197.258C313.81 197.653 312.984 197.85 311.992 197.85C310.669 197.85 309.597 197.535 308.776 196.906C307.954 196.287 307.485 195.445 307.368 194.378H310.072C310.157 194.719 310.36 194.986 310.68 195.178C311 195.381 311.394 195.482 311.864 195.482C312.429 195.482 312.877 195.317 313.208 194.986C313.549 194.666 313.72 194.149 313.72 193.434V192.17C313.453 192.586 313.085 192.927 312.616 193.194C312.146 193.45 311.597 193.578 310.968 193.578C310.232 193.578 309.565 193.391 308.968 193.018C308.37 192.634 307.896 192.095 307.544 191.402C307.202 190.698 307.032 189.887 307.032 188.97C307.032 188.053 307.202 187.247 307.544 186.554C307.896 185.861 308.37 185.327 308.968 184.954C309.565 184.581 310.232 184.394 310.968 184.394ZM313.72 188.986C313.72 188.303 313.528 187.765 313.144 187.37C312.77 186.975 312.312 186.778 311.768 186.778C311.224 186.778 310.76 186.975 310.376 187.37C310.002 187.754 309.816 188.287 309.816 188.97C309.816 189.653 310.002 190.197 310.376 190.602C310.76 190.997 311.224 191.194 311.768 191.194C312.312 191.194 312.77 190.997 313.144 190.602C313.528 190.207 313.72 189.669 313.72 188.986Z" fill="black"/>
<rect x="213" y="203.45" width="48.7834" height="7" fill="#D9D9D9"/>
<rect x="213" y="213.45" width="16" height="7" fill="#A3A3AD"/>
<rect x="191.5" y="0.5" width="179" height="231.45" rx="18.0253" stroke="#0D070B"/>
<circle cx="526.5" cy="25.5" r="13.5" fill="#0274D7"/>
<g clip-path="url(#clip4_384_19606)">
<path fill-rule="evenodd" clip-rule="evenodd" d="M530.438 18.4419C530.574 18.075 531.093 18.075 531.229 18.4419L531.791 19.9606C531.833 20.0759 531.924 20.1669 532.04 20.2096L533.558 20.7715C533.925 20.9073 533.925 21.4262 533.558 21.562L532.04 22.1239C531.924 22.1666 531.833 22.2576 531.791 22.3729L531.229 23.8916C531.093 24.2585 530.574 24.2585 530.438 23.8916L529.876 22.3729C529.833 22.2576 529.743 22.1666 529.627 22.1239L528.109 21.562C527.742 21.4262 527.742 20.9073 528.109 20.7715L529.627 20.2096C529.743 20.1669 529.833 20.0759 529.876 19.9606L530.438 18.4419ZM530.438 27.7753C530.574 27.4084 531.093 27.4084 531.229 27.7753L531.791 29.2939C531.833 29.4093 531.924 29.5002 532.04 29.5429L533.558 30.1048C533.925 30.2406 533.925 30.7596 533.558 30.8953L532.04 31.4573C531.924 31.5 531.833 31.5909 531.791 31.7063L531.229 33.2249C531.093 33.5918 530.574 33.5918 530.438 33.2249L529.876 31.7063C529.833 31.5909 529.743 31.5 529.627 31.4573L528.109 30.8953C527.742 30.7596 527.742 30.2406 528.109 30.1048L529.627 29.5429C529.743 29.5002 529.833 29.4093 529.876 29.2939L530.438 27.7753ZM523.822 23.6192L524.167 22.6872L524.512 23.6192C524.718 24.1764 525.157 24.6157 525.714 24.8219L526.646 25.1667L525.714 25.5116C525.157 25.7178 524.718 26.1571 524.512 26.7143L524.167 27.6463L523.822 26.7143C523.616 26.1571 523.176 25.7178 522.619 25.5116L521.687 25.1667L522.619 24.8219C523.176 24.6157 523.616 24.1764 523.822 23.6192ZM523.508 20.6254C523.734 20.0139 524.599 20.0139 524.825 20.6254L525.762 23.1564C525.833 23.3487 525.985 23.5003 526.177 23.5714L528.708 24.508C529.32 24.7343 529.32 25.5992 528.708 25.8255L526.177 26.7621C525.985 26.8332 525.833 26.9848 525.762 27.1771L524.825 29.7081C524.599 30.3196 523.734 30.3196 523.508 29.7081L522.571 27.1771C522.5 26.9848 522.349 26.8332 522.156 26.7621L519.625 25.8255C519.014 25.5992 519.014 24.7343 519.625 24.508L522.156 23.5714C522.349 23.5003 522.5 23.3487 522.571 23.1564L523.508 20.6254Z" fill="white"/>
</g>
<g clip-path="url(#clip5_384_19606)">
<path d="M476.532 128C475.564 127.767 473.962 127.432 472.385 126.984C469.156 126.08 465.935 125.168 462.731 124.178C456.451 122.241 450.197 120.209 443.918 118.281C436.85 116.112 429.757 114.011 422.672 111.902C419.802 111.041 416.949 110.111 414.414 108.467C414.002 108.2 413.66 107.675 413.488 107.202C413.283 106.634 413.283 105.988 413.206 105.377C412.769 101.778 412.76 101.761 416.033 100.074C435.659 89.976 455.286 79.8955 474.921 69.8235C476.686 68.9196 478.502 68.1018 480.318 67.3012C480.79 67.0946 481.398 66.931 481.869 67.0429C487.318 68.3514 492.757 69.7116 498.197 71.0717C506.362 73.112 514.534 75.1608 522.699 77.2268C523.624 77.4593 524.532 77.7778 525.44 78.0791C526.597 78.4665 527.445 79.1379 527.942 80.3345C528.207 80.9888 528.773 81.5655 529.312 82.0476C531.257 83.8123 531.548 85.9817 529.989 88.0736C528.755 89.735 527.393 91.2587 525.5 92.2315C524.78 92.6016 524.078 93.0837 523.495 93.6519C518.552 98.4554 512.847 102.295 507.45 106.522C499.02 113.116 490.573 119.684 482.16 126.295C480.67 127.466 479.016 127.905 476.54 127.991L476.532 128ZM485.39 111.592C498.275 100.995 511.339 90.8025 524.275 80.1279C523.795 79.8955 523.641 79.7749 523.461 79.7319C517.781 78.4665 512.084 77.2699 506.422 75.9183C497.829 73.8695 489.262 71.7088 480.678 69.6427C480.164 69.5222 479.487 69.6427 478.999 69.8838C477.586 70.581 476.258 71.4333 474.861 72.1736C456.194 82.0218 437.51 91.8613 418.825 101.709C418.269 102.002 417.746 102.364 416.941 102.854C417.84 103.147 418.346 103.336 418.86 103.474C431.427 106.857 443.986 110.249 456.562 113.598C463.176 115.354 469.893 116.723 476.446 119.176L479.959 116.017C478.348 114.958 476.96 114.045 475.384 113.012C476.498 111.824 477.363 110.869 478.279 109.948C479.479 108.734 479.547 108.725 481.115 109.474C482.529 110.146 483.925 110.86 485.399 111.592H485.39ZM475.598 122.766C475.649 120.95 475.641 120.984 474.21 120.64C471.083 119.882 467.948 119.133 464.855 118.281C448.887 113.856 432.918 109.388 416.949 104.946C416.247 104.748 415.527 104.628 414.773 104.464C414.893 106.591 414.893 106.582 416.495 107.021C423.426 108.932 430.348 110.886 437.296 112.746C449.863 116.112 462.448 119.409 475.033 122.731C475.213 122.775 475.41 122.757 475.598 122.766V122.766ZM525.928 82.039C509.454 95.012 493.1 107.882 476.626 120.855C476.789 121.457 476.986 122.224 477.234 123.171C477.757 122.792 478.091 122.568 478.391 122.327C488.38 114.175 498.36 106.014 508.358 97.8615C514.046 93.2215 519.735 88.5901 525.449 83.9759C526.006 83.5283 526.631 83.2011 525.937 82.039H525.928Z" fill="#0D070B"/>
</g>
<path d="M413.072 182.218V184.41H410.096V193.45H407.36V184.41H404.384V182.218H413.072ZM413.421 188.97C413.421 188.053 413.592 187.247 413.933 186.554C414.285 185.861 414.76 185.327 415.357 184.954C415.954 184.581 416.621 184.394 417.357 184.394C417.986 184.394 418.536 184.522 419.005 184.778C419.485 185.034 419.853 185.37 420.109 185.786V184.522H422.845V193.45H420.109V192.186C419.842 192.602 419.469 192.938 418.989 193.194C418.52 193.45 417.97 193.578 417.341 193.578C416.616 193.578 415.954 193.391 415.357 193.018C414.76 192.634 414.285 192.095 413.933 191.402C413.592 190.698 413.421 189.887 413.421 188.97ZM420.109 188.986C420.109 188.303 419.917 187.765 419.533 187.37C419.16 186.975 418.701 186.778 418.157 186.778C417.613 186.778 417.149 186.975 416.765 187.37C416.392 187.754 416.205 188.287 416.205 188.97C416.205 189.653 416.392 190.197 416.765 190.602C417.149 190.997 417.613 191.194 418.157 191.194C418.701 191.194 419.16 190.997 419.533 190.602C419.917 190.207 420.109 189.669 420.109 188.986ZM427.081 185.786C427.347 185.37 427.715 185.034 428.185 184.778C428.654 184.522 429.203 184.394 429.833 184.394C430.569 184.394 431.235 184.581 431.833 184.954C432.43 185.327 432.899 185.861 433.241 186.554C433.593 187.247 433.769 188.053 433.769 188.97C433.769 189.887 433.593 190.698 433.241 191.402C432.899 192.095 432.43 192.634 431.833 193.018C431.235 193.391 430.569 193.578 429.833 193.578C429.214 193.578 428.665 193.45 428.185 193.194C427.715 192.938 427.347 192.607 427.081 192.202V197.706H424.345V184.522H427.081V185.786ZM430.985 188.97C430.985 188.287 430.793 187.754 430.409 187.37C430.035 186.975 429.571 186.778 429.017 186.778C428.473 186.778 428.009 186.975 427.625 187.37C427.251 187.765 427.065 188.303 427.065 188.986C427.065 189.669 427.251 190.207 427.625 190.602C428.009 190.997 428.473 191.194 429.017 191.194C429.561 191.194 430.025 190.997 430.409 190.602C430.793 190.197 430.985 189.653 430.985 188.97ZM436.1 183.594C435.62 183.594 435.225 183.455 434.916 183.178C434.617 182.89 434.468 182.538 434.468 182.122C434.468 181.695 434.617 181.343 434.916 181.066C435.225 180.778 435.62 180.634 436.1 180.634C436.569 180.634 436.953 180.778 437.252 181.066C437.561 181.343 437.716 181.695 437.716 182.122C437.716 182.538 437.561 182.89 437.252 183.178C436.953 183.455 436.569 183.594 436.1 183.594ZM437.46 184.522V193.45H434.724V184.522H437.46ZM442.595 193.578C441.816 193.578 441.123 193.445 440.515 193.178C439.907 192.911 439.427 192.549 439.075 192.09C438.723 191.621 438.525 191.098 438.483 190.522H441.187C441.219 190.831 441.363 191.082 441.619 191.274C441.875 191.466 442.189 191.562 442.563 191.562C442.904 191.562 443.165 191.498 443.347 191.37C443.539 191.231 443.635 191.055 443.635 190.842C443.635 190.586 443.501 190.399 443.235 190.282C442.968 190.154 442.536 190.015 441.939 189.866C441.299 189.717 440.765 189.562 440.339 189.402C439.912 189.231 439.544 188.97 439.235 188.618C438.925 188.255 438.771 187.77 438.771 187.162C438.771 186.65 438.909 186.186 439.187 185.77C439.475 185.343 439.891 185.007 440.435 184.762C440.989 184.517 441.645 184.394 442.403 184.394C443.523 184.394 444.403 184.671 445.043 185.226C445.693 185.781 446.067 186.517 446.163 187.434H443.635C443.592 187.125 443.453 186.879 443.219 186.698C442.995 186.517 442.696 186.426 442.323 186.426C442.003 186.426 441.757 186.49 441.587 186.618C441.416 186.735 441.331 186.901 441.331 187.114C441.331 187.37 441.464 187.562 441.731 187.69C442.008 187.818 442.435 187.946 443.011 188.074C443.672 188.245 444.211 188.415 444.627 188.586C445.043 188.746 445.405 189.013 445.715 189.386C446.035 189.749 446.2 190.239 446.211 190.858C446.211 191.381 446.061 191.85 445.763 192.266C445.475 192.671 445.053 192.991 444.499 193.226C443.955 193.461 443.32 193.578 442.595 193.578ZM459.947 182.218L456.059 189.738V193.45H453.323V189.738L449.435 182.218H452.539L454.715 186.922L456.875 182.218H459.947ZM464.633 193.578C463.759 193.578 462.969 193.391 462.265 193.018C461.572 192.645 461.023 192.111 460.617 191.418C460.223 190.725 460.025 189.914 460.025 188.986C460.025 188.069 460.228 187.263 460.633 186.57C461.039 185.866 461.593 185.327 462.297 184.954C463.001 184.581 463.791 184.394 464.665 184.394C465.54 184.394 466.329 184.581 467.033 184.954C467.737 185.327 468.292 185.866 468.698 186.57C469.103 187.263 469.306 188.069 469.306 188.986C469.306 189.903 469.097 190.714 468.681 191.418C468.276 192.111 467.716 192.645 467.001 193.018C466.297 193.391 465.508 193.578 464.633 193.578ZM464.633 191.21C465.156 191.21 465.599 191.018 465.961 190.634C466.335 190.25 466.521 189.701 466.521 188.986C466.521 188.271 466.34 187.722 465.977 187.338C465.625 186.954 465.188 186.762 464.665 186.762C464.132 186.762 463.689 186.954 463.337 187.338C462.985 187.711 462.809 188.261 462.809 188.986C462.809 189.701 462.98 190.25 463.321 190.634C463.673 191.018 464.111 191.21 464.633 191.21ZM473.669 184.394C474.298 184.394 474.848 184.522 475.317 184.778C475.797 185.034 476.165 185.37 476.421 185.786V184.522H479.157V193.434C479.157 194.255 478.992 194.997 478.661 195.658C478.341 196.33 477.845 196.863 477.173 197.258C476.512 197.653 475.685 197.85 474.693 197.85C473.37 197.85 472.298 197.535 471.477 196.906C470.656 196.287 470.186 195.445 470.069 194.378H472.773C472.858 194.719 473.061 194.986 473.381 195.178C473.701 195.381 474.096 195.482 474.565 195.482C475.13 195.482 475.578 195.317 475.909 194.986C476.25 194.666 476.421 194.149 476.421 193.434V192.17C476.154 192.586 475.786 192.927 475.317 193.194C474.848 193.45 474.298 193.578 473.669 193.578C472.933 193.578 472.266 193.391 471.669 193.018C471.072 192.634 470.597 192.095 470.245 191.402C469.904 190.698 469.733 189.887 469.733 188.97C469.733 188.053 469.904 187.247 470.245 186.554C470.597 185.861 471.072 185.327 471.669 184.954C472.266 184.581 472.933 184.394 473.669 184.394ZM476.421 188.986C476.421 188.303 476.229 187.765 475.845 187.37C475.472 186.975 475.013 186.778 474.469 186.778C473.925 186.778 473.461 186.975 473.077 187.37C472.704 187.754 472.517 188.287 472.517 188.97C472.517 189.653 472.704 190.197 473.077 190.602C473.461 190.997 473.925 191.194 474.469 191.194C475.013 191.194 475.472 190.997 475.845 190.602C476.229 190.207 476.421 189.669 476.421 188.986ZM480.112 188.97C480.112 188.053 480.283 187.247 480.624 186.554C480.976 185.861 481.451 185.327 482.048 184.954C482.646 184.581 483.312 184.394 484.048 184.394C484.678 184.394 485.227 184.522 485.696 184.778C486.176 185.034 486.544 185.37 486.8 185.786V184.522H489.536V193.45H486.8V192.186C486.534 192.602 486.16 192.938 485.68 193.194C485.211 193.45 484.662 193.578 484.032 193.578C483.307 193.578 482.646 193.391 482.048 193.018C481.451 192.634 480.976 192.095 480.624 191.402C480.283 190.698 480.112 189.887 480.112 188.97ZM486.8 188.986C486.8 188.303 486.608 187.765 486.224 187.37C485.851 186.975 485.392 186.778 484.848 186.778C484.304 186.778 483.84 186.975 483.456 187.37C483.083 187.754 482.896 188.287 482.896 188.97C482.896 189.653 483.083 190.197 483.456 190.602C483.84 190.997 484.304 191.194 484.848 191.194C485.392 191.194 485.851 190.997 486.224 190.602C486.608 190.207 486.8 189.669 486.8 188.986Z" fill="black"/>
<rect x="404" y="203.45" width="128" height="7" fill="#D9D9D9"/>
<rect x="404" y="213.45" width="16" height="7" fill="#A3A3AD"/>
<rect x="382.5" y="0.5" width="179" height="231.45" rx="18.0253" stroke="#0D070B"/>
<defs>
<clipPath id="clip0_384_19606">
<rect width="16" height="16" fill="white" transform="translate(136.5 17.5)"/>
</clipPath>
<clipPath id="clip1_384_19606">
<rect width="48.64" height="120.45" fill="white" transform="translate(65.68 37)"/>
</clipPath>
<clipPath id="clip2_384_19606">
<rect width="16" height="16" fill="white" transform="translate(327.5 17.5)"/>
</clipPath>
<clipPath id="clip3_384_19606">
<rect width="80.56" height="70.12" fill="white" transform="translate(240.72 67)"/>
</clipPath>
<clipPath id="clip4_384_19606">
<rect width="16" height="16" fill="white" transform="translate(518.5 17.5)"/>
</clipPath>
<clipPath id="clip5_384_19606">
<rect width="118" height="61" fill="white" transform="translate(413 67)"/>
</clipPath>
</defs>
</svg>
