<svg width="22" height="20" viewBox="0 0 22 20" fill="none" xmlns="http://www.w3.org/2000/svg">
<path fill-rule="evenodd" clip-rule="evenodd" d="M18 2H4C2.89543 2 2 2.89543 2 4V12C2 13.1046 2.89543 14 4 14H11H18C19.1046 14 20 13.1046 20 12V4C20 2.89543 19.1046 2 18 2ZM18 16H12V18H14C14.5523 18 15 18.4477 15 19C15 19.5523 14.5523 20 14 20H8C7.44772 20 7 19.5523 7 19C7 18.4477 7.44772 18 8 18H10V16H4C1.79086 16 0 14.2091 0 12V4C0 1.79086 1.79086 0 4 0H18C20.2091 0 22 1.79086 22 4V12C22 14.2091 20.2091 16 18 16Z" fill="#0274D7"/>
</svg>
