<svg width="28" height="24" viewBox="0 0 28 24" fill="none" xmlns="http://www.w3.org/2000/svg">
<path d="M13.6206 3.0949L14.0003 3.53804L14.38 3.0949C15.7412 1.5063 17.8306 0.5 20.0003 0.5C23.8338 0.5 26.8337 3.48592 26.8337 7.28837C26.8337 8.70965 26.2712 10.2827 25.3352 11.9051C24.4026 13.5216 23.1224 15.147 21.7422 16.6628C18.9819 19.6942 15.8651 22.2396 14.4575 23.3385C14.1817 23.5538 13.8185 23.5538 13.5427 23.3387C12.1349 22.2408 9.01817 19.6978 6.2581 16.6674C4.87797 15.1521 3.59796 13.5268 2.66542 11.9097C1.72953 10.2868 1.16699 8.71227 1.16699 7.28837C1.16699 3.48592 4.1669 0.5 8.00033 0.5C10.1701 0.5 12.2595 1.5063 13.6206 3.0949Z" fill="#8669FB" stroke="#8669FB"/>
</svg>
