<svg width="20" height="18" viewBox="0 0 20 18" fill="none" xmlns="http://www.w3.org/2000/svg">
<path fill-rule="evenodd" clip-rule="evenodd" d="M10.7594 4.26476C10.3603 4.73056 9.63973 4.73056 9.24062 4.26476L8.48124 3.37848C7.76 2.53671 6.63901 2 5.5 2C3.51295 2 2 3.52131 2 5.46628C2 6.13056 2.27283 7.02162 2.90652 8.12049C3.5268 9.19609 4.4044 10.3191 5.39471 11.4064C7.022 13.193 8.83526 14.7556 9.99937 15.7C11.1635 14.7547 12.9772 13.1906 14.6049 11.4031C15.5954 10.3153 16.4732 9.1921 17.0936 8.11676C17.7276 7.01792 18 6.12815 18 5.46628C18 3.52131 16.487 2 14.5 2C13.361 2 12.24 2.53671 11.5188 3.37848L10.7594 4.26476ZM8.64205 0.913672C7.71498 0.334762 6.62204 0 5.5 0C2.42 0 0 2.40516 0 5.46628C0 10.1106 7.30087 16.1423 9.42613 17.7997C9.76864 18.0669 10.2313 18.0667 10.5736 17.7994C12.6986 16.1405 20 10.1031 20 5.46628C20 2.40516 17.58 0 14.5 0C13.378 0 12.285 0.334762 11.358 0.913672C10.8474 1.2325 10.3871 1.62538 10 2.07719C9.61289 1.62538 9.15263 1.2325 8.64205 0.913672Z" fill="#0274D7"/>
</svg>
