<svg width="22" height="20" viewBox="0 0 22 20" fill="none" xmlns="http://www.w3.org/2000/svg">
<path fill-rule="evenodd" clip-rule="evenodd" d="M13.8399 1.05125C13.0999 0.316251 11.9001 0.316252 11.1601 1.05125L6.37868 5.80033C5.81607 6.35914 5.5 7.11704 5.5 7.90731V16.5202C5.5 18.1659 6.84315 19.4999 8.5 19.4999H15.692C16.8839 19.4999 17.9627 18.7991 18.4404 17.7145L21.2485 11.3396C21.4144 10.963 21.5 10.5564 21.5 10.1453V9.56757C21.5 7.92193 20.1569 6.58786 18.5 6.58786L13.3092 6.58787L14.3281 2.87728C14.507 2.22568 14.3207 1.52882 13.8399 1.05125ZM7.79289 7.20498L12.2945 2.73387L11.3797 6.06519C11.0327 7.32887 11.9905 8.57434 13.3092 8.57434H18.5C19.0523 8.57434 19.5 9.01902 19.5 9.56757V10.1453C19.5 10.2823 19.4715 10.4179 19.4162 10.5434L16.6081 16.9183C16.4489 17.2799 16.0893 17.5135 15.692 17.5135H8.5C7.94772 17.5135 7.5 17.0688 7.5 16.5202V7.90731C7.5 7.64388 7.60536 7.39125 7.79289 7.20498ZM2.5 5.4653C1.39543 5.4653 0.5 6.36073 0.5 7.4653V17.4653C0.5 18.5699 1.39543 19.4653 2.5 19.4653C3.60457 19.4653 4.5 18.5699 4.5 17.4653V7.4653C4.5 6.36073 3.60457 5.4653 2.5 5.4653Z" fill="#0274D7"/>
</svg>
