<svg width="26" height="24" viewBox="0 0 26 24" fill="none" xmlns="http://www.w3.org/2000/svg">
<path fill-rule="evenodd" clip-rule="evenodd" d="M9.86232 2.51783L9.85745 2.56901L10.3927 7.32199C10.5407 8.63584 11.6519 9.62894 12.974 9.62894C14.3632 9.62894 15.5065 8.53597 15.569 7.14819L15.7741 2.59658L15.7666 2.51783H9.86232ZM4.76347 11.9993C6.41752 11.9993 7.981 11.0809 8.78762 9.70736C9.6754 11.0944 11.2286 11.9993 12.974 11.9993C14.625 11.9993 16.0943 11.1922 16.999 9.94415C17.8501 11.1855 19.3437 11.9993 20.9007 11.9993C21.1753 11.9993 21.4436 11.9743 21.7034 11.9264V17.9252C21.7034 19.8889 20.1116 21.4808 18.1479 21.4808H16.9627V17.3326C16.9627 15.0417 15.1055 13.1845 12.8146 13.1845C10.5236 13.1845 8.66641 15.0417 8.66641 17.3326V21.4808H7.48123C5.51755 21.4808 3.92567 19.8889 3.92567 17.9252V11.9198C4.19649 11.9719 4.47653 11.9993 4.76347 11.9993ZM1.5553 10.6073C0.728763 9.72351 0.26535 8.50179 0.390296 7.18985L0.722054 3.70639C0.914234 1.68851 2.60902 0.147461 4.63603 0.147461H7.1994H10.0881H15.5408H18.2572H20.6726C22.9012 0.147461 24.7646 1.8418 24.9759 4.06041L25.2739 7.18985C25.4006 8.52024 24.9223 9.75785 24.0738 10.6444V17.9252C24.0738 21.198 21.4207 23.8512 18.1479 23.8512L16.9627 23.8512H8.66641L7.48123 23.8512C4.20843 23.8512 1.5553 21.198 1.5553 17.9252V10.6073ZM22.8886 7.14594L22.6162 4.28514C22.5237 3.31415 21.7306 2.5655 20.7657 2.52002C20.7348 2.51857 20.7038 2.51783 20.6726 2.51783H18.1504L18.1495 2.53725L18.6505 7.79811C18.7494 8.83618 19.858 9.62894 20.9007 9.62894C21.8975 9.62894 22.7133 8.91186 22.8886 7.98326V7.14594ZM6.97834 7.79811L7.4744 2.58949L7.46633 2.51783H4.63603C3.83108 2.51783 3.15806 3.1298 3.08175 3.93112L2.74999 7.41459C2.6369 8.60202 3.57067 9.62894 4.76347 9.62894C5.80624 9.62894 6.87948 8.83617 6.97834 7.79811ZM14.5923 17.3326V21.4808H11.0368V17.3326C11.0368 16.3508 11.8327 15.5549 12.8146 15.5549C13.7964 15.5549 14.5923 16.3508 14.5923 17.3326Z" fill="#0D070B"/>
</svg>
