<svg width="21" height="21" viewBox="0 0 21 21" fill="none" xmlns="http://www.w3.org/2000/svg">
<path fill-rule="evenodd" clip-rule="evenodd" d="M8.00905 2.33325L8.00494 2.37643L8.45655 6.38676C8.58139 7.49532 9.51898 8.33325 10.6345 8.33325C11.8067 8.33325 12.7713 7.41106 12.8241 6.24012L12.9971 2.39969L12.9908 2.33325H8.00905ZM3.70689 10.3333C5.1025 10.3333 6.42168 9.55837 7.10227 8.39942C7.85134 9.5697 9.16185 10.3333 10.6345 10.3333C12.0275 10.3333 13.2673 9.65223 14.0306 8.59921C14.7488 9.64657 16.0089 10.3333 17.3227 10.3333C17.5544 10.3333 17.7807 10.3121 18 10.2717V15.3333C18 16.9901 16.6569 18.3333 15 18.3333H14V14.8333C14 12.9003 12.433 11.3333 10.5 11.3333C8.567 11.3333 7 12.9003 7 14.8333V18.3333H6C4.34315 18.3333 3 16.9901 3 15.3333V10.2662C3.2285 10.3102 3.46478 10.3333 3.70689 10.3333ZM1 9.15876C0.302608 8.41304 -0.0883975 7.38222 0.0170258 6.27527L0.296947 3.3361C0.459098 1.63351 1.88907 0.333252 3.59937 0.333252H5.76221H8.19953H12.8003H15.0922H17.1302C19.0106 0.333252 20.5828 1.76285 20.7611 3.6348L21.0126 6.27527C21.1195 7.39778 20.7159 8.44202 20 9.19005V15.3333C20 18.0947 17.7614 20.3333 15 20.3333H14H7H6C3.23858 20.3333 1 18.0947 1 15.3333V9.15876ZM19 6.23822L18.7701 3.82442C18.6921 3.00515 18.0229 2.37348 17.2088 2.3351C17.1827 2.33387 17.1565 2.33325 17.1302 2.33325H15.0021L15.0014 2.34964L15.4241 6.78849C15.5075 7.66436 16.4429 8.33325 17.3227 8.33325C18.1637 8.33325 18.8521 7.72822 19 6.94471V6.23822ZM5.57569 6.78849L5.99424 2.39372L5.98743 2.33325H3.59937C2.92019 2.33325 2.35233 2.8496 2.28794 3.52572L2.00802 6.46489C1.9126 7.46679 2.70046 8.33325 3.70689 8.33325C4.58673 8.33325 5.49228 7.66435 5.57569 6.78849ZM12 14.8333V18.3333H9V14.8333C9 14.0048 9.67157 13.3333 10.5 13.3333C11.3284 13.3333 12 14.0048 12 14.8333Z" fill="#8669FB"/>
</svg>
