<svg width="18" height="18" viewBox="0 0 18 18" fill="none" xmlns="http://www.w3.org/2000/svg">
<path fill-rule="evenodd" clip-rule="evenodd" d="M7.50679 3L7.5037 3.03239L7.84241 6.04013C7.93604 6.87155 8.63923 7.5 9.47591 7.5C10.355 7.5 11.0785 6.80835 11.1181 5.93015L11.2478 3.04983L11.2431 3H7.50679ZM4.28017 9C5.32687 9 6.31626 8.41884 6.8267 7.54962C7.3885 8.42733 8.37139 9 9.47591 9C10.5206 9 11.4505 8.48923 12.023 7.69947C12.5616 8.48499 13.5067 9 14.492 9C14.6658 9 14.8355 8.98415 15 8.95386V12.75C15 13.9926 13.9926 15 12.75 15H12V12.375C12 10.9253 10.8247 9.75 9.375 9.75C7.92525 9.75 6.75 10.9253 6.75 12.375V15H6C4.75736 15 3.75 13.9926 3.75 12.75V8.94967C3.92137 8.98269 4.09859 9 4.28017 9ZM2.25 8.11913C1.72696 7.55984 1.4337 6.78672 1.51277 5.95652L1.72271 3.75214C1.84432 2.4752 2.9168 1.5 4.19952 1.5H5.82166H7.64964H11.1002H12.8191H14.3476C15.758 1.5 16.9371 2.5722 17.0708 3.97616L17.2594 5.95651C17.3396 6.7984 17.0369 7.58158 16.5 8.1426V12.75C16.5 14.8211 14.8211 16.5 12.75 16.5H12H6.75H6C3.92893 16.5 2.25 14.8211 2.25 12.75V8.11913ZM15.75 5.92873L15.5776 4.11837C15.5191 3.50392 15.0172 3.03017 14.4066 3.00139C14.387 3.00047 14.3674 3 14.3476 3H12.7516L12.751 3.01228L13.0681 6.34143C13.1306 6.99833 13.8322 7.5 14.492 7.5C15.1228 7.5 15.6391 7.04622 15.75 6.45859V5.92873ZM5.68177 6.34142L5.99568 3.04535L5.99057 3H4.19952C3.69014 3 3.26425 3.38726 3.21595 3.89435L3.00601 6.09873C2.93445 6.85015 3.52535 7.5 4.28017 7.5C4.94004 7.5 5.61921 6.99833 5.68177 6.34142ZM10.5 12.375V15H8.25V12.375C8.25 11.7537 8.75368 11.25 9.375 11.25C9.99632 11.25 10.5 11.7537 10.5 12.375Z" fill="#0D070B"/>
</svg>
