<svg width="25" height="24" viewBox="0 0 25 24" fill="none" xmlns="http://www.w3.org/2000/svg">
<path fill-rule="evenodd" clip-rule="evenodd" d="M3.54694 9.35047C3.03435 9.80052 2.74049 10.4496 2.74049 11.1317V19.1101C2.74049 20.4192 3.80174 21.4805 5.11086 21.4805H7.59407V16.5731C7.59407 14.0172 9.66604 11.9452 12.2219 11.9452C14.7778 11.9452 16.8498 14.0172 16.8498 16.5731V21.4805H19.3331C20.6422 21.4805 21.7034 20.4192 21.7034 19.1101V11.1317C21.7034 10.4496 21.4096 9.80052 20.897 9.35047L13.7859 3.10696C12.8912 2.32145 11.5527 2.32145 10.658 3.10696L3.54694 9.35047ZM0.370117 11.1317C0.370117 9.76746 0.957841 8.46933 1.98302 7.56923L9.09413 1.32572C10.8835 -0.245291 13.5605 -0.245293 15.3498 1.32572L22.4609 7.56923C23.4861 8.46933 24.0738 9.76746 24.0738 11.1317V19.1101C24.0738 21.7283 21.9513 23.8508 19.3331 23.8508H15.3224C14.8204 23.8508 14.4794 23.2872 14.4794 22.7851V16.5731C14.4794 15.3263 13.4687 14.3156 12.2219 14.3156C10.9752 14.3156 9.96444 15.3263 9.96444 16.5731V22.7851C9.96444 23.2872 9.62351 23.8508 9.12148 23.8508H5.11086C2.49262 23.8508 0.370117 21.7283 0.370117 19.1101V11.1317Z" fill="#0D070B"/>
</svg>
