<svg width="18" height="18" viewBox="0 0 18 18" fill="none" xmlns="http://www.w3.org/2000/svg">
<path fill-rule="evenodd" clip-rule="evenodd" d="M3.51033 7.32378C3.18596 7.60858 3 8.01931 3 8.45097V13.4998C3 14.3282 3.67157 14.9998 4.5 14.9998H6.07141V11.8944C6.07141 10.277 7.38258 8.96578 8.99998 8.96578C10.6174 8.96578 11.9286 10.277 11.9286 11.8944V14.9998H13.5C14.3284 14.9998 15 14.3282 15 13.4998V8.45097C15 8.01931 14.814 7.60858 14.4897 7.32378L9.98967 3.37281C9.42352 2.87573 8.57649 2.87573 8.01033 3.37281L3.51033 7.32378ZM1.5 8.45097C1.5 7.58766 1.87192 6.76618 2.52067 6.19659L7.02067 2.24562C8.15297 1.25146 9.84703 1.25146 10.9793 2.24562L15.4793 6.19659C16.1281 6.76618 16.5 7.58765 16.5 8.45097V13.4998C16.5 15.1567 15.1569 16.4998 13.5 16.4998H10.962C10.6443 16.4998 10.4286 16.1431 10.4286 15.8254V11.8944C10.4286 11.1054 9.78896 10.4658 8.99998 10.4658C8.211 10.4658 7.57141 11.1054 7.57141 11.8944V15.8254C7.57141 16.1431 7.35566 16.4998 7.03797 16.4998H4.5C2.84315 16.4998 1.5 15.1567 1.5 13.4998V8.45097Z" fill="#0D070B"/>
</svg>
