<svg width="26" height="28" viewBox="0 0 26 28" fill="none" xmlns="http://www.w3.org/2000/svg">
<path fill-rule="evenodd" clip-rule="evenodd" d="M9.10706 6.41015C9.52382 4.64609 11.1086 3.33335 13 3.33335C14.8914 3.33335 16.4762 4.64609 16.8929 6.41015C15.6478 6.49368 14.3368 6.54545 13 6.54545C11.6632 6.54545 10.3522 6.49368 9.10706 6.41015ZM6.33333 8.84796V12.6667C6.33333 13.4031 6.93028 14 7.66666 14C8.40304 14 8.99999 13.4031 8.99999 12.6667V9.07558C10.2769 9.15988 11.6233 9.21211 13 9.21211C14.3767 9.21211 15.723 9.15988 17 9.07558V12.6667C17 13.4031 17.5969 14 18.3333 14C19.0697 14 19.6667 13.4031 19.6667 12.6667V8.84796C20.179 8.79459 20.6721 8.7378 21.1425 8.67936C22.2435 8.54258 23.0702 9.47225 22.9942 10.3063L25.6498 10.5484L22.9942 10.3063L22.0094 21.1072C21.8252 23.1275 20.136 24.6667 18.1217 24.6667H7.87828C5.86404 24.6667 4.17478 23.1275 3.99058 21.1072L3.00579 10.3063C2.92975 9.47224 3.75653 8.54258 4.85745 8.67936C5.32784 8.7378 5.82094 8.79459 6.33333 8.84796ZM6.43325 6.17705C6.00278 6.13112 5.58636 6.08275 5.18622 6.03303C2.53549 5.70371 0.107165 7.88347 0.350142 10.5484L1.33493 21.3493C1.64397 24.7388 4.48105 27.3334 7.87828 27.3334H18.1217C21.5189 27.3334 24.356 24.7388 24.6651 21.3493L25.6498 10.5484C25.8928 7.88348 23.4645 5.70371 20.8138 6.03303C20.4136 6.08275 19.9972 6.13112 19.5667 6.17705C19.0193 3.0463 16.2875 0.666687 13 0.666687C9.71247 0.666687 6.98073 3.0463 6.43325 6.17705Z" fill="#0D070B"/>
</svg>
