<svg width="32" height="32" viewBox="0 0 32 32" fill="none" xmlns="http://www.w3.org/2000/svg">
<path fill-rule="evenodd" clip-rule="evenodd" d="M12.1071 8.41021C12.5239 6.64615 14.1087 5.33341 16 5.33341C17.8914 5.33341 19.4762 6.64615 19.893 8.41021C18.6478 8.49374 17.3368 8.54551 16 8.54551C14.6632 8.54551 13.3523 8.49374 12.1071 8.41021ZM9.33337 10.848V14.6667C9.33337 15.4031 9.93033 16.0001 10.6667 16.0001C11.4031 16.0001 12 15.4031 12 14.6667V11.0756C13.277 11.1599 14.6234 11.2122 16 11.2122C17.3767 11.2122 18.7231 11.1599 20 11.0756V14.6667C20 15.4031 20.597 16.0001 21.3334 16.0001C22.0698 16.0001 22.6667 15.4031 22.6667 14.6667V10.848C23.1791 10.7946 23.6722 10.7379 24.1426 10.6794C25.2435 10.5426 26.0703 11.4723 25.9942 12.3063L28.6499 12.5485L25.9942 12.3063L25.0095 23.1073C24.8253 25.1275 23.136 26.6667 21.1218 26.6667H10.8783C8.86408 26.6667 7.17483 25.1275 6.99063 23.1073L6.00584 12.3063C5.9298 11.4723 6.75657 10.5426 7.8575 10.6794C8.32789 10.7379 8.82099 10.7946 9.33337 10.848ZM9.43329 8.17711C9.00283 8.13119 8.5864 8.08281 8.18627 8.0331C5.53554 7.70378 3.10721 9.88354 3.35019 12.5485L4.33498 23.3494C4.64402 26.7389 7.48109 29.3334 10.8783 29.3334H21.1218C24.519 29.3334 27.3561 26.7389 27.6651 23.3494L28.6499 12.5485C28.8929 9.88354 26.4645 7.70378 23.8138 8.0331C23.4137 8.08281 22.9973 8.13119 22.5668 8.17711C22.0193 5.04636 19.2876 2.66675 16 2.66675C12.7125 2.66675 9.98077 5.04636 9.43329 8.17711Z" fill="#0D070B"/>
</svg>
