<svg width="16" height="14" viewBox="0 0 16 14" fill="none" xmlns="http://www.w3.org/2000/svg">
<path fill-rule="evenodd" clip-rule="evenodd" d="M8.75938 3.227C8.36027 3.6928 7.63973 3.6928 7.24062 3.227L6.86093 2.78386C6.32 2.15253 5.47926 1.75 4.625 1.75C3.13472 1.75 2 2.89098 2 4.34971C2 4.84792 2.20462 5.51621 2.67989 6.34037C3.1451 7.14707 3.8033 7.98929 4.54604 8.80477C5.7665 10.1448 7.12644 11.3167 7.99953 12.025C8.87265 11.316 10.2329 10.1429 11.4537 8.80229C12.1965 7.98645 12.8549 7.14407 13.3202 6.33757C13.7957 5.51344 14 4.84611 14 4.34971C14 2.89098 12.8653 1.75 11.375 1.75C10.5207 1.75 9.68 2.15253 9.13907 2.78386L8.75938 3.227ZM6.98154 0.935254C6.28623 0.501071 5.46653 0.25 4.625 0.25C2.315 0.25 0.5 2.05387 0.5 4.34971C0.5 7.83293 5.97565 12.3567 7.5696 13.5998C7.82648 13.8001 8.17344 13.8001 8.43023 13.5996C10.0239 12.3554 15.5 7.82736 15.5 4.34971C15.5 2.05387 13.685 0.25 11.375 0.25C10.5335 0.25 9.71377 0.501071 9.01846 0.935254C8.63553 1.17438 8.29033 1.46904 8 1.80789C7.70967 1.46904 7.36447 1.17438 6.98154 0.935254Z" fill="#0D070B"/>
</svg>
