<svg width="18" height="19" viewBox="0 0 18 19" fill="none" xmlns="http://www.w3.org/2000/svg">
<path fill-rule="evenodd" clip-rule="evenodd" d="M13.1792 6.64312C13.4637 6.40419 13.8867 6.44002 14.124 6.72314L16.3443 8.97168C16.5816 9.2548 16.5434 9.67801 16.2589 9.91693L14.0943 11.9717C13.8098 12.2106 13.3868 12.1748 13.1495 11.8917C12.9121 11.6085 12.9503 11.1853 13.2348 10.9464L14.1158 10.0703L8.98673 10.0703C8.5798 10.0703 8.24991 9.74043 8.24991 9.3335C8.24991 8.92657 8.5798 8.59669 8.98673 8.59669L14.0207 8.59669L13.0939 7.58837C12.8566 7.30525 12.8948 6.88204 13.1792 6.64312ZM9.75012 14.5835C10.7298 14.5835 11.5632 13.9574 11.8721 13.0835L13.4251 13.0835C13.0777 14.7952 11.5643 16.0835 9.75012 16.0835L6.75012 16.0835C4.67905 16.0835 3.00012 14.4046 3.00012 12.3335L3.00012 6.33349C3.00012 4.26243 4.67906 2.5835 6.75012 2.5835L9.75012 2.5835C11.5643 2.5835 13.0777 3.87182 13.4251 5.5835L11.8721 5.5835C11.5632 4.7096 10.7298 4.08349 9.75012 4.08349L6.75012 4.08349C5.50748 4.08349 4.50012 5.09085 4.50012 6.33349L4.50012 12.3335C4.50012 13.5761 5.50748 14.5835 6.75012 14.5835L9.75012 14.5835Z" fill="#84848A"/>
</svg>
