<svg width="23" height="22" viewBox="0 0 23 22" fill="none" xmlns="http://www.w3.org/2000/svg">
<path fill-rule="evenodd" clip-rule="evenodd" d="M16.8266 6.74821C17.2761 6.37065 17.9445 6.42727 18.3196 6.87467L21.8281 10.4279C22.2032 10.8753 22.1428 11.5441 21.6933 11.9217L18.2726 15.1687C17.823 15.5462 17.1546 15.4896 16.7796 15.0422C16.4045 14.5948 16.4649 13.926 16.9144 13.5485L18.3066 12.164L10.2014 12.164C9.55834 12.164 9.03705 11.6427 9.03705 10.9997C9.03705 10.3566 9.55834 9.83534 10.2014 9.83534L18.1563 9.83533L16.6917 8.24195C16.3167 7.79454 16.3771 7.12577 16.8266 6.74821ZM11.4077 19.296C12.9559 19.296 14.2729 18.3066 14.761 16.9256L17.2151 16.9256C16.6661 19.6305 14.2747 21.6663 11.4077 21.6663L6.66701 21.6663C3.39421 21.6663 0.741079 19.0132 0.741079 15.7404L0.741078 6.25893C0.741078 2.98613 3.39421 0.333007 6.667 0.333007L11.4077 0.333007C14.2747 0.333007 16.6661 2.36887 17.2151 5.07375L14.761 5.07375C14.2729 3.69278 12.9559 2.70338 11.4077 2.70338L6.667 2.70338C4.70332 2.70338 3.11145 4.29525 3.11145 6.25893L3.11145 15.7404C3.11145 17.7041 4.70333 19.296 6.66701 19.296L11.4077 19.296Z" fill="#84848A"/>
</svg>
