<svg width="32" height="32" viewBox="0 0 32 32" fill="none" xmlns="http://www.w3.org/2000/svg">
<g clip-path="url(#clip0_199_12423)">
<path fill-rule="evenodd" clip-rule="evenodd" d="M16.8812 3.04745C15.5558 2.72385 14.1325 2.71927 12.7217 3.0973C8.24061 4.29801 5.58132 8.90404 6.78203 13.3852L8.11063 18.3436C8.22729 18.7789 8.20931 19.1206 8.12129 19.3845C8.03526 19.6424 7.85571 19.9074 7.50801 20.1551C6.5319 20.8505 5.42593 22.2334 5.87563 23.9118C6.30446 25.5122 7.94947 26.4619 9.54987 26.0331L26.9365 21.3743C28.5369 20.9455 29.4867 19.3005 29.0578 17.7001C28.6081 16.0218 26.9589 15.3771 25.7658 15.263C25.3409 15.2223 25.0529 15.0826 24.8494 14.9022C24.6412 14.7177 24.4548 14.4308 24.3382 13.9954L23.5462 11.0398C22.5209 11.0606 21.5228 10.8424 20.6208 10.4253L21.7624 14.6856C21.9895 15.5333 22.4153 16.3081 23.0805 16.8978L23.0806 16.8978C23.7515 17.4925 24.5879 17.8291 25.5118 17.9175C25.7903 17.9441 26.0833 18.0353 26.2794 18.1576C26.3664 18.2119 26.4108 18.2574 26.4321 18.2842C26.449 18.3055 26.4668 18.3333 26.482 18.3903C26.5297 18.5681 26.4242 18.7509 26.2463 18.7985L8.85968 23.4573C8.68186 23.5049 8.49908 23.3994 8.45143 23.2216C8.43617 23.1646 8.4377 23.1316 8.44167 23.1048C8.44668 23.0708 8.46241 23.0092 8.5106 22.9188C8.61928 22.7148 8.82744 22.4893 9.05531 22.327C9.81118 21.7885 10.3672 21.0788 10.6509 20.2283C10.9322 19.385 10.9136 18.501 10.6864 17.6534L9.35783 12.695C8.5383 9.63643 10.3534 6.49263 13.4119 5.6731C14.6149 5.35075 15.8311 5.436 16.9139 5.84419C16.6988 4.89662 16.6981 3.94676 16.8812 3.04745ZM15.7136 27.1422C15.523 26.431 15.9452 25.6998 16.6564 25.5093L20.5201 24.474C21.2314 24.2834 21.9625 24.7055 22.1531 25.4168C22.3437 26.1281 21.9216 26.8592 21.2103 27.0498L17.3466 28.0851C16.6353 28.2756 15.9042 27.8535 15.7136 27.1422Z" fill="#0D070B"/>
<ellipse cx="23.3334" cy="4.66667" rx="4.66667" ry="4.66667" fill="#FF5D6B"/>
</g>
<defs>
<clipPath id="clip0_199_12423">
<rect width="32" height="32" fill="white"/>
</clipPath>
</defs>
</svg>
