<svg width="24" height="26" viewBox="0 0 24 26" fill="none" xmlns="http://www.w3.org/2000/svg">
<path fill-rule="evenodd" clip-rule="evenodd" d="M18.434 16.6783L18.434 16.6783C18.9282 17.4264 19.649 17.968 20.5185 18.2925C20.7806 18.3903 21.04 18.5543 21.1978 18.7232C21.2678 18.7981 21.2989 18.8535 21.3125 18.885C21.3233 18.9099 21.3333 18.9413 21.3333 19.0003C21.3333 19.1844 21.1841 19.3337 21 19.3337H3C2.8159 19.3337 2.66667 19.1844 2.66667 19.0003C2.66667 18.9413 2.67669 18.9099 2.68747 18.885C2.70109 18.8535 2.73223 18.7981 2.80219 18.7232C2.95996 18.5543 3.21939 18.3903 3.4815 18.2925C4.35099 17.968 5.07178 17.4264 5.56596 16.6783C6.05591 15.9365 6.26667 15.0779 6.26667 14.2003V9.06699C6.26667 5.90056 8.83357 3.33366 12 3.33366C15.1664 3.33366 17.7333 5.90056 17.7333 9.06699V14.2003C17.7333 15.0779 17.9441 15.9365 18.434 16.6783ZM20.4 14.2003V9.06699C20.4 4.4278 16.6392 0.666992 12 0.666992C7.36081 0.666992 3.6 4.4278 3.6 9.06699V14.2003C3.6 14.6511 3.4942 14.9764 3.34088 15.2086C3.19103 15.4354 2.94901 15.6449 2.54905 15.7942C1.4262 16.2133 0 17.2628 0 19.0003C0 20.6572 1.34315 22.0003 3 22.0003H21C22.6569 22.0003 24 20.6572 24 19.0003C24 17.2628 22.5738 16.2133 21.451 15.7942C21.051 15.6449 20.809 15.4354 20.6591 15.2086C20.5058 14.9764 20.4 14.6511 20.4 14.2003ZM10 23.3337C9.26362 23.3337 8.66667 23.9306 8.66667 24.667C8.66667 25.4034 9.26362 26.0003 10 26.0003H14C14.7364 26.0003 15.3333 25.4034 15.3333 24.667C15.3333 23.9306 14.7364 23.3337 14 23.3337H10Z" fill="#0D070B"/>
</svg>
