<svg width="24" height="28" viewBox="0 0 24 28" fill="none" xmlns="http://www.w3.org/2000/svg">
<path fill-rule="evenodd" clip-rule="evenodd" d="M16 7.33366C16 9.5428 14.2091 11.3337 12 11.3337C9.79086 11.3337 8 9.5428 8 7.33366C8 5.12452 9.79086 3.33366 12 3.33366C14.2091 3.33366 16 5.12452 16 7.33366ZM18.6667 7.33366C18.6667 11.0156 15.6819 14.0003 12 14.0003C8.3181 14.0003 5.33333 11.0156 5.33333 7.33366C5.33333 3.65176 8.3181 0.666992 12 0.666992C15.6819 0.666992 18.6667 3.65176 18.6667 7.33366ZM21.3333 21.3337C21.3333 21.4363 21.1808 22.2471 19.2927 23.1912C17.5641 24.0555 14.9895 24.667 12 24.667C9.01051 24.667 6.43588 24.0555 4.70729 23.1912C2.81919 22.2471 2.66667 21.4363 2.66667 21.3337C2.66667 21.231 2.81919 20.4202 4.70729 19.4762C6.43588 18.6119 9.01051 18.0003 12 18.0003C14.9895 18.0003 17.5641 18.6119 19.2927 19.4762C21.1808 20.4202 21.3333 21.231 21.3333 21.3337ZM24 21.3337C24 24.6474 18.6274 27.3337 12 27.3337C5.37258 27.3337 0 24.6474 0 21.3337C0 18.02 5.37258 15.3337 12 15.3337C18.6274 15.3337 24 18.02 24 21.3337Z" fill="#0D070B"/>
</svg>
