<svg width="32" height="32" viewBox="0 0 32 32" fill="none" xmlns="http://www.w3.org/2000/svg">
<path fill-rule="evenodd" clip-rule="evenodd" d="M20 9.33341C20 11.5426 18.2091 13.3334 16 13.3334C13.7909 13.3334 12 11.5426 12 9.33341C12 7.12428 13.7909 5.33341 16 5.33341C18.2091 5.33341 20 7.12428 20 9.33341ZM22.6667 9.33341C22.6667 13.0153 19.6819 16.0001 16 16.0001C12.3181 16.0001 9.33333 13.0153 9.33333 9.33341C9.33333 5.65152 12.3181 2.66675 16 2.66675C19.6819 2.66675 22.6667 5.65152 22.6667 9.33341ZM25.3333 23.3334C25.3333 23.4361 25.1808 24.2469 23.2927 25.1909C21.5641 26.0552 18.9895 26.6667 16 26.6667C13.0105 26.6667 10.4359 26.0552 8.70729 25.1909C6.81919 24.2469 6.66667 23.4361 6.66667 23.3334C6.66667 23.2308 6.81919 22.42 8.70729 21.4759C10.4359 20.6116 13.0105 20.0001 16 20.0001C18.9895 20.0001 21.5641 20.6116 23.2927 21.4759C25.1808 22.42 25.3333 23.2308 25.3333 23.3334ZM28 23.3334C28 26.6471 22.6274 29.3334 16 29.3334C9.37258 29.3334 4 26.6471 4 23.3334C4 20.0197 9.37258 17.3334 16 17.3334C22.6274 17.3334 28 20.0197 28 23.3334Z" fill="#0D070B"/>
</svg>
