<svg width="26" height="24" viewBox="0 0 26 24" fill="none" xmlns="http://www.w3.org/2000/svg">
<path fill-rule="evenodd" clip-rule="evenodd" d="M7.3004 2.51881H18.7019C20.5429 2.51881 22.0726 3.95313 22.2103 5.80844L22.6698 12.0003H16.5192C15.8715 12.0003 15.3708 12.5627 15.0598 13.1368C14.6615 13.8721 13.8889 14.3707 13.001 14.3707C12.1131 14.3707 11.3405 13.8721 10.9422 13.1368C10.6312 12.5627 10.1305 12.0003 9.48282 12.0003H3.33246L3.79198 5.80845C3.92967 3.95313 5.45939 2.51881 7.3004 2.51881ZM6.42083 21.4818C4.37407 21.4818 2.75933 19.723 2.91241 17.6603L3.15654 14.3707H8.93811C9.74587 15.7828 11.2611 16.741 13.001 16.741C14.7409 16.741 16.2561 15.7828 17.0639 14.3707H22.8443L23.0888 17.6599C23.242 19.7227 21.6273 21.4818 19.5805 21.4818H6.42083ZM0.904201 13.0263L1.45302 5.63117C1.68251 2.53898 4.23204 0.148438 7.3004 0.148438H18.7019C21.7702 0.148438 24.3198 2.53898 24.5493 5.63116L25.4288 17.483C25.684 20.9208 22.9927 23.8521 19.5815 23.8521H19.5805H6.42083H6.41951C3.00881 23.8521 0.317822 20.9216 0.572203 17.4842L0.896877 13.0971C0.898638 13.0733 0.901086 13.0497 0.904201 13.0263Z" fill="#0D070B"/>
</svg>
