<svg width="24" height="24" viewBox="0 0 24 24" fill="none" xmlns="http://www.w3.org/2000/svg">
<path fill-rule="evenodd" clip-rule="evenodd" d="M21.4815 12.0003C21.4815 17.2368 17.2365 21.4818 12 21.4818C9.80895 21.4818 7.79149 20.7386 6.18595 19.4905L19.4902 6.18626C20.7383 7.7918 21.4815 9.80925 21.4815 12.0003ZM4.50983 17.8145L17.8141 4.51014C16.2086 3.26204 14.1911 2.51881 12 2.51881C6.76351 2.51881 2.5185 6.76381 2.5185 12.0003C2.5185 14.1914 3.26173 16.2089 4.50983 17.8145ZM23.8518 12.0003C23.8518 18.5459 18.5456 23.8521 12 23.8521C5.45439 23.8521 0.148132 18.5459 0.148132 12.0003C0.148132 5.45469 5.45439 0.148438 12 0.148438C18.5456 0.148438 23.8518 5.45469 23.8518 12.0003Z" fill="#0D070B"/>
</svg>
