<svg width="30" height="28" viewBox="0 0 30 28" fill="none" xmlns="http://www.w3.org/2000/svg">
<path fill-rule="evenodd" clip-rule="evenodd" d="M23.3333 1.33333C23.3333 0.596954 23.9303 0 24.6667 0C25.403 0 26 0.596953 26 1.33333V4L28.6667 4C29.403 4 30 4.59695 30 5.33333C30 6.06971 29.403 6.66667 28.6667 6.66667H26V9.33333C26 10.0697 25.403 10.6667 24.6667 10.6667C23.9303 10.6667 23.3333 10.0697 23.3333 9.33333V6.66667H20.6667C19.9303 6.66667 19.3333 6.06971 19.3333 5.33333C19.3333 4.59695 19.9303 4 20.6667 4L23.3333 4V1.33333ZM16.6667 4H6.66667C2.98477 4 0 6.98477 0 10.6667V21.3333C0 25.0152 2.98477 28 6.66667 28H21.3333C25.0152 28 28 25.0152 28 21.3333V13.3333H25.3333V16.2586L19.5636 11.0134C19.3011 10.7748 18.9543 10.6506 18.5999 10.6683C18.2456 10.6861 17.913 10.8443 17.6756 11.108L12.1333 17.2661L8.99107 13.7747C8.73821 13.4938 8.37799 13.3333 8.00001 13.3333C7.62203 13.3333 7.26181 13.4938 7.00895 13.7747L2.66667 18.5995V10.6667C2.66667 8.45753 4.45753 6.66667 6.66667 6.66667H16.6667V4ZM25.1031 19.6533C25.1751 19.7187 25.2524 19.7749 25.3333 19.8217V21.3333C25.3333 23.5425 23.5425 25.3333 21.3333 25.3333H6.66667C4.82463 25.3333 3.27341 24.0882 2.80873 22.3937C2.87347 22.3442 2.93458 22.2881 2.99107 22.2253L8.00001 16.6598L13.009 22.2253C13.5016 22.7726 14.3446 22.817 14.892 22.3244C15.4393 21.8318 15.4837 20.9887 14.9911 20.4414L13.9272 19.2593L18.7613 13.888L25.1031 19.6533Z" fill="#0D070B"/>
</svg>
