<svg width="19" height="22" viewBox="0 0 19 22" fill="none" xmlns="http://www.w3.org/2000/svg">
<path fill-rule="evenodd" clip-rule="evenodd" d="M0.703674 1.51868C0.703674 0.864122 1.2343 0.333496 1.88886 0.333496H8.99997C9.65453 0.333496 10.1852 0.864122 10.1852 1.51868V2.70387H15.9361C17.9321 2.70387 19.149 4.75175 18.0911 6.33053L16.9714 8.00165C16.7138 8.38597 16.7138 8.87362 16.9714 9.25794L18.0911 10.9291C19.149 12.5078 17.9321 14.5557 15.9361 14.5557H9.08543C8.38367 14.5557 7.81478 14.0251 7.81478 13.3705V12.1853H3.07404V20.4816C3.07404 21.1362 2.54342 21.6668 1.88886 21.6668C1.2343 21.6668 0.703674 21.1362 0.703674 20.4816V11.0002V1.51868ZM10.1852 11.0023V12.1853L15.9361 12.1853L14.8163 10.5142C14.0438 9.36127 14.0438 7.89831 14.8163 6.74535L15.9361 5.07424L10.1852 5.07424L10.1852 11.0002C10.1852 11.0009 10.1852 11.0016 10.1852 11.0023ZM7.81478 3.88905C7.81478 3.88856 7.81479 3.88807 7.81479 3.88758V2.70387H3.07404V9.81498H7.81479L7.81478 3.88905Z" fill="#0D070B"/>
</svg>
