<svg width="24" height="24" viewBox="0 0 24 24" fill="none" xmlns="http://www.w3.org/2000/svg">
<path d="M21.9998 12.1804C21.9998 11.36 21.9317 10.7614 21.7842 10.1406H12.1982V13.8432H17.825C17.7116 14.7634 17.099 16.1491 15.7377 17.0802L15.7186 17.2042L18.7495 19.4987L18.9595 19.5191C20.888 17.7787 21.9998 15.2179 21.9998 12.1804Z" fill="#4285F4"/>
<path d="M12.1981 21.936C14.9547 21.936 17.2689 21.0491 18.9593 19.5193L15.7375 17.0804C14.8753 17.668 13.7182 18.0781 12.1981 18.0781C9.49811 18.0781 7.20656 16.3377 6.38969 13.9321L6.26996 13.9421L3.11836 16.3255L3.07715 16.4375C4.7561 19.6966 8.2048 21.936 12.1981 21.936Z" fill="#34A853"/>
<path d="M6.38986 13.9321C6.17432 13.3113 6.04958 12.6461 6.04958 11.9588C6.04958 11.2715 6.17432 10.6064 6.37852 9.98558L6.37281 9.85336L3.18172 7.43164L3.07732 7.48017C2.38534 8.83264 1.98828 10.3514 1.98828 11.9588C1.98828 13.5663 2.38534 15.085 3.07732 16.4374L6.38986 13.9321Z" fill="#FBBC05"/>
<path d="M12.1981 5.83949C14.1152 5.83949 15.4085 6.64875 16.1459 7.32502L19.0273 4.57575C17.2577 2.96832 14.9547 1.98169 12.1981 1.98169C8.2048 1.98169 4.7561 4.22099 3.07715 7.48016L6.37835 9.98557C7.20656 7.57997 9.49811 5.83949 12.1981 5.83949Z" fill="#EB4335"/>
</svg>
