<svg width="24" height="24" viewBox="0 0 24 24" fill="none" xmlns="http://www.w3.org/2000/svg">
<path fill-rule="evenodd" clip-rule="evenodd" d="M16.9954 8.84755C18.4521 9.86718 19.6539 11.0974 20.4389 12C19.6539 12.9026 18.4521 14.1328 16.9954 15.1524C15.4178 16.2568 13.7053 17 12.0004 17C10.2955 17 8.58292 16.2568 7.0053 15.1524C5.54867 14.1328 4.3468 12.9026 3.56178 12C4.3468 11.0974 5.54867 9.86718 7.0053 8.84755C8.58292 7.74324 10.2955 7 12.0004 7C13.7053 7 15.4178 7.74324 16.9954 8.84755ZM22.1281 10.897C22.6744 11.5404 22.6744 12.4596 22.1281 13.103C20.4538 15.0748 16.5496 19 12.0004 19C7.45113 19 3.54691 15.0748 1.87264 13.103C1.32631 12.4596 1.32631 11.5404 1.87264 10.897C3.5469 8.92521 7.45113 5 12.0004 5C16.5496 5 20.4538 8.92521 22.1281 10.897ZM14.0002 12C14.0002 13.1046 13.1048 14 12.0002 14C10.8957 14 10.0002 13.1046 10.0002 12C10.0002 10.8954 10.8957 10 12.0002 10C13.1048 10 14.0002 10.8954 14.0002 12ZM16.0002 12C16.0002 14.2091 14.2094 16 12.0002 16C9.79111 16 8.00024 14.2091 8.00024 12C8.00024 9.79086 9.79111 8 12.0002 8C14.2094 8 16.0002 9.79086 16.0002 12Z" fill="#0D070B"/>
</svg>
