<svg width="408" height="377" viewBox="0 0 408 377" fill="none" xmlns="http://www.w3.org/2000/svg">
<g clip-path="url(#clip0_1_663)">
<path fill-rule="evenodd" clip-rule="evenodd" d="M-33.5236 5.84032C-33.4543 5.76589 -33.3846 5.68594 -33.3133 5.60416C-32.8884 5.11683 -32.407 4.56478 -31.6112 4.733C-31.5636 5.73036 -32.1243 5.72526 -32.7052 5.71997C-32.998 5.71731 -33.2959 5.7146 -33.5236 5.84032ZM-74.2748 160.453L-74.2917 160.471H-74.2927C-74.3645 160.49 -74.4364 160.509 -74.5084 160.529L-74.5162 160.531C-75.6963 160.846 -76.8825 161.163 -77.4205 162.507C-76.1774 162.099 -75.1637 161.391 -74.2917 160.471H-74.2569L-74.2748 160.453ZM-161.55 216.729L-161.551 216.732C-161.601 216.254 -161.655 215.777 -161.71 215.298L-161.71 215.297C-161.954 213.169 -162.2 211.01 -161.997 208.639C-167.055 210.371 -171.255 212.497 -175.133 215.104C-182.658 220.141 -189.075 226.338 -193.793 234.178C-192.324 235.854 -190.537 235.341 -188.837 234.853L-188.664 234.804C-183.856 233.428 -179.316 231.428 -175.098 228.749C-169.951 225.481 -164.786 222.178 -161.551 216.732L-161.55 216.747V216.729ZM388.947 290.544C388.143 288.329 386.82 286.436 385.373 284.632L385.391 284.615C383.478 284.936 382.084 283.989 380.797 282.793C374.774 277.203 369.948 270.72 366.445 263.272C365.069 260.361 364.604 257.503 367.696 255.253C365.194 250.467 361.905 246.305 358.044 241.947C352.879 250.199 345.265 252.806 336.793 254.164C328.882 255.429 321.094 254.576 313.285 253.721C312.167 253.599 311.049 253.476 309.93 253.36C297.15 252.02 284.371 250.77 271.502 252.181C271.321 252.2 271.134 252.209 270.944 252.217C270.24 252.249 269.506 252.282 268.928 252.86C269.535 253.555 270.155 253.675 270.736 253.786L270.814 253.802L270.889 253.816L270.941 253.827L270.999 253.839L271.037 253.848C271.055 253.852 271.073 253.856 271.091 253.86C281.672 256.378 292.45 257.664 303.299 258.182C306.403 258.333 309.511 258.412 312.618 258.49L312.62 258.49C317.222 258.607 321.822 258.723 326.409 259.075C344.05 260.414 359.26 266.933 371.11 280.543C374.655 284.624 377.774 289.001 380.895 293.381L380.895 293.381L380.898 293.385C381.914 294.81 382.93 296.236 383.961 297.652C386.874 301.653 390.52 304.778 394.506 307.582C396.99 309.333 399.707 310.118 403.3 309.333C402.52 308.461 401.785 307.638 401.08 306.848L401.061 306.827L401.054 306.82L400.981 306.738C399.687 305.289 398.491 303.95 397.294 302.617C391.932 302.01 389.948 297.974 388.286 293.67C387.875 292.616 388.018 291.437 388.947 290.544ZM55.5213 314.869C57.7734 317.62 60.2935 320.174 63.4213 321.995L63.4034 321.96C83.5824 300.689 104.816 280.686 130.446 265.933C132.43 264.799 134.406 263.643 136.38 262.488L136.384 262.485C137.486 261.841 138.586 261.197 139.687 260.558C139.68 260.555 139.674 260.552 139.667 260.549L139.652 260.542C139.641 260.536 139.63 260.53 139.619 260.524L139.599 260.513L139.568 260.496C139.481 260.447 139.392 260.397 139.293 260.397C131.787 259.557 124.298 258.504 117.166 255.825C116.487 255.575 115.754 255.432 115.111 255.86C111.827 258.004 108.119 258.726 104.409 259.449L104.409 259.449C102.525 259.816 100.64 260.183 98.8104 260.736C94.8961 261.933 90.8747 262.022 86.9426 261.04C81.8665 259.79 76.7727 259.807 71.6252 260.129C67.6394 260.379 63.6537 260.415 59.6501 260.254C55.5213 260.093 51.339 259.95 47.2639 260.772C38.7383 262.504 30.2485 264.397 21.7587 266.291C18.3985 267.041 15.1099 267.523 11.6067 266.987C9.57914 266.682 7.49314 266.752 5.26316 266.827C4.22998 266.862 3.16587 266.898 2.06236 266.898C6.16189 270.836 10.5508 274.137 14.873 277.386L14.8749 277.388L14.8753 277.388L14.8757 277.388C18.3728 280.018 21.8263 282.615 25.0474 285.49C26.8906 287.135 28.7469 288.766 30.6036 290.398L30.6042 290.399L30.6048 290.399L30.6054 290.4L30.606 290.4L30.6096 290.403L30.6132 290.407L30.6168 290.41L30.6204 290.413L30.6206 290.413L30.6208 290.413L30.621 290.414L30.6212 290.414L30.6214 290.414L30.6215 290.414L30.6217 290.414L30.6219 290.415C39.3633 298.098 48.1104 305.786 55.5213 314.869ZM66.7994 310.458C65.441 311.244 63.9397 311.69 62.3489 311.833C60.2577 311.797 58.8815 310.387 59.0424 308.261C59.1675 306.69 59.7394 305.243 60.5973 303.886C64.172 298.224 68.962 293.848 74.8066 290.669C77.8987 288.99 80.2758 289.062 81.4733 290.669C83.1534 292.937 81.938 295.063 80.7584 296.992C77.2731 302.653 72.5903 307.154 66.7994 310.458ZM95.2536 276.381C96.7729 276.078 97.9346 277.328 97.9346 278.935V278.953C97.9525 281.989 93.2161 285.293 90.4814 284.061C88.9444 283.365 88.4797 282.132 89.2125 280.561C90.41 277.989 92.6977 276.881 95.2536 276.381ZM73.4123 326.996C73.5027 326.766 73.5554 326.608 73.5928 326.495L73.593 326.495C73.6119 326.438 73.627 326.392 73.6411 326.356C73.6596 326.307 73.6764 326.273 73.6983 326.246C89.7485 307.922 106.585 290.473 127.3 277.274C139.937 269.219 153.735 263.826 168.212 260.057C169.874 259.629 171.572 259.218 173.27 259.129C176.763 258.959 180.251 258.689 183.738 258.419L183.739 258.418L183.74 258.418L183.741 258.418L183.742 258.418L183.743 258.418L183.744 258.418L183.745 258.418C190.928 257.861 198.112 257.304 205.353 257.628C218.043 258.182 230.751 258.2 243.763 255.753C240.42 257.503 237.239 258.2 233.968 258.343C233.238 258.372 232.508 258.402 231.778 258.431C224.945 258.707 218.098 258.983 211.251 259.129C198.329 259.414 185.549 261.057 173.127 264.397C157.881 268.487 143.511 274.863 130.392 283.775C112.162 296.188 94.8066 309.654 79.5429 325.674C76.6932 328.663 76.5779 328.605 73.5036 327.042L73.4123 326.996ZM380.583 302.635C381.888 303.975 383.318 305.118 385.248 305.707L385.266 305.689C380.118 298.152 374.613 290.955 368.715 284.025C360.547 274.435 350.252 268.523 338.062 265.594C330.645 263.808 323.156 263.183 315.56 263.129C304.121 263.058 292.718 262.433 281.386 260.79C276.344 260.063 271.432 258.76 266.521 257.458C263.703 256.71 260.885 255.963 258.044 255.325C257.887 255.29 257.732 255.254 257.575 255.218C256.337 254.931 255.049 254.633 252.986 255.235C254.436 255.722 255.812 256.186 257.137 256.633L257.138 256.633C260.435 257.745 263.412 258.75 266.408 259.718C278.187 263.522 290.216 265.612 302.655 265.094C307.803 264.879 312.95 265.183 318.044 265.88C332.164 267.791 345.265 272.524 356.508 281.4C364.908 288.044 373.094 294.938 380.583 302.635ZM-207.876 271.328C-207.871 271.34 -207.865 271.351 -207.86 271.363H-207.842L-207.876 271.328ZM-207.899 271.277L-207.886 271.307L-207.876 271.328L-207.913 271.291L-207.899 271.277ZM-207.899 271.277C-208.212 270.551 -207.911 269.985 -207.395 269.469C-205.184 267.277 -203.008 265.047 -200.831 262.817L-200.831 262.816C-193.453 255.257 -186.073 247.696 -177.35 241.572C-173.722 239.018 -169.986 236.697 -166.018 234.732C-160.942 232.232 -156.313 231.946 -152.149 233.678C-152.637 234.6 -153.486 234.74 -154.327 234.879C-154.595 234.923 -154.861 234.967 -155.116 235.036C-156.282 235.353 -157.45 235.664 -158.619 235.975L-158.619 235.975L-158.619 235.975L-158.62 235.975L-158.62 235.975C-161.858 236.837 -165.097 237.7 -168.288 238.697C-173.382 240.304 -177.815 243.162 -181.836 246.645C-188.074 252.074 -194.169 257.646 -199.942 263.576C-201.691 265.372 -203.514 267.102 -205.339 268.833L-205.339 268.834L-205.347 268.842C-206.2 269.651 -207.053 270.461 -207.899 271.277ZM-207.988 271.325L-207.931 271.291L-207.949 271.309L-207.877 271.363C-207.915 271.349 -207.952 271.337 -207.988 271.325ZM-210.589 272.513C-209.708 271.58 -209.127 270.966 -207.988 271.325C-208.554 271.663 -209.127 272.011 -209.895 272.478C-210.363 272.762 -210.903 273.091 -211.559 273.488C-211.186 273.145 -210.872 272.813 -210.59 272.514L-210.589 272.513L-210.589 272.513ZM-74.2029 160.328L-74.3101 160.471L-74.2922 160.453L-74.2029 160.328Z" fill="#FED301"/>
<path fill-rule="evenodd" clip-rule="evenodd" d="M-171.683 162.545C-171.402 162.49 -171.122 162.435 -170.844 162.399L-170.808 162.417C-170.45 162.203 -170.039 161.971 -169.753 162.364C-169.449 162.775 -169.807 163.042 -170.2 163.203C-171.952 166.847 -172.881 170.686 -172.97 174.741C-172.988 175.902 -173.024 177.152 -174.043 177.866C-177.832 180.527 -177.617 184.349 -177.278 188.278C-176.867 192.958 -174.668 196.44 -170.307 198.226C-168.645 198.905 -167.644 199.619 -167.716 201.513C-167.739 202.057 -167.525 202.558 -167.305 203.072C-167.013 203.756 -166.713 204.46 -166.947 205.317C-167.048 205.352 -167.152 205.387 -167.259 205.424C-167.644 205.556 -168.061 205.699 -168.466 205.852C-179.959 209.978 -189.736 216.3 -195.777 227.338C-196.255 228.215 -196.727 229.096 -197.199 229.978C-198.546 232.492 -199.894 235.009 -201.389 237.429C-207.339 247.041 -212.463 257.111 -217.586 267.178C-219.325 270.597 -221.065 274.016 -222.837 277.417C-223.57 278.81 -224.213 280.257 -224.678 281.739C-225.536 284.454 -224.588 285.454 -221.747 284.989C-219.441 284.597 -217.403 283.579 -215.527 282.239C-213.096 280.489 -210.683 278.685 -208.324 276.845C-199.083 269.648 -190.165 262.04 -181.532 254.11C-181.317 253.915 -181.11 253.703 -180.899 253.488C-180.145 252.719 -179.354 251.912 -178.082 251.717C-177.676 252.992 -177.847 254.151 -178.012 255.267C-178.05 255.526 -178.088 255.783 -178.118 256.039C-179.762 269.951 -178.458 283.668 -175.383 297.259C-175.225 297.982 -174.893 298.736 -174.565 299.483C-173.896 301.007 -173.239 302.503 -174.079 303.653C-174.874 304.733 -176.507 305.201 -178.137 305.667C-178.852 305.872 -179.566 306.076 -180.209 306.332L-180.542 306.465C-185.741 308.546 -190.951 310.631 -195.133 314.548C-201.139 320.173 -201.407 327.478 -195.866 333.533C-193.024 336.64 -189.503 338.837 -185.786 340.694C-177.957 344.606 -169.771 347.552 -161.371 349.928C-139.994 355.947 -118.153 359.572 -96.2226 362.716C-71.0212 366.323 -45.6948 368.627 -20.3326 370.735C17.1476 373.842 54.7173 375.539 92.3048 376.343C151.805 377.611 211.251 376.593 270.573 371.36C293.075 369.377 315.488 366.698 337.598 361.876C347.928 359.626 358.152 356.911 367.893 352.696C370.788 351.428 373.577 350.017 376.168 348.213C385.748 341.534 385.712 333.336 376.079 326.585C373.148 324.531 369.948 322.942 366.66 321.531C360.082 318.709 353.273 316.601 346.356 314.78C346.084 314.708 345.807 314.651 345.528 314.594C344.563 314.397 343.586 314.197 342.781 313.351C344.711 308.314 346.356 303.153 347.642 297.884C348.311 295.13 348.294 292.315 348.278 289.511C348.262 286.842 348.247 284.183 348.822 281.596C349.807 281.377 350.327 281.814 350.788 282.202C350.854 282.258 350.92 282.312 350.985 282.364C359.457 289.151 367.625 296.313 375.543 303.742C378.796 306.814 382.191 309.636 386.034 311.815C391.646 314.994 397.67 315.548 403.818 313.387C408.519 311.726 409.109 309.69 406.159 305.778C405.364 304.731 404.548 303.7 403.73 302.668C403.041 301.798 402.352 300.927 401.673 300.045C394.329 290.536 388.023 280.335 381.72 270.139C379.311 266.241 376.901 262.343 374.434 258.485C373.567 257.127 372.711 255.762 371.855 254.396C366.115 245.24 360.391 236.109 351.432 229.535C353.809 225.32 355.256 220.98 355.667 216.39C356.168 210.675 354.702 205.567 350.109 201.798C347.571 199.727 344.943 197.691 342.12 196.047C336.364 192.708 330.395 190.475 324.05 194.762C323.942 194.887 323.817 194.994 323.692 195.101C323.656 195.155 323.62 195.211 323.582 195.268C323.172 195.897 322.661 196.68 321.941 196.172C321.231 195.666 321.742 195.147 322.199 194.684C322.306 194.576 322.41 194.47 322.495 194.369C322.316 193.761 322.548 193.44 323.174 193.368C323.011 192.765 323.399 192.385 323.753 192.038C323.787 192.005 323.82 191.972 323.853 191.94C327.267 188.439 327.553 187.046 324.747 183.331C323.031 181.063 322.62 179.081 323.496 176.277C324.89 171.847 323.442 169.401 319.26 167.579C318.759 167.365 318.205 167.114 318.223 166.364C319.038 166.014 319.651 166.402 320.268 166.792C320.719 167.078 321.172 167.365 321.708 167.365C322.995 167.347 324.282 167.418 325.551 167.632C326.516 167.793 327.589 168.043 328.357 168.597C330.133 169.875 332.176 170.115 334.186 170.351C334.562 170.395 334.938 170.439 335.31 170.49C339.01 170.99 340.743 169.793 341.476 166.186C341.558 165.787 341.64 165.387 341.722 164.988C342.759 159.954 343.801 154.894 343.371 149.665C343.354 149.447 343.334 149.225 343.314 149.001C343.204 147.776 343.088 146.492 343.496 145.45C343.899 144.443 344.876 144.411 345.87 144.378C346.374 144.361 346.882 144.345 347.321 144.2C350.002 143.325 350.717 142.004 349.501 139.45C348.983 138.36 348.786 137.324 348.822 136.181C349.019 131.252 347.982 126.59 346.266 121.965C345.238 119.221 344.54 116.359 343.843 113.503C343.727 113.031 343.612 112.559 343.496 112.088C340.386 99.64 335.81 87.906 327.481 77.8867C325.748 75.7971 324.175 73.5824 322.656 71.3321C318.223 64.7597 312.7 59.2231 306.659 54.1331C290.93 40.9168 273.075 31.5939 253.665 25.0394C245.264 22.1997 236.739 19.8064 228.213 17.4668C215.827 14.0734 203.387 10.8051 190.626 9.05481C176.613 7.14381 162.547 5.75074 148.463 4.44697C146.656 4.27862 144.85 4.10599 143.044 3.93336C131.054 2.78736 119.066 1.64148 106.997 1.75013C106.46 1.75335 105.923 1.7658 105.386 1.77826C102.939 1.83504 100.496 1.89171 98.0778 1.07146C97.0769 0.714262 95.7185 0.821421 94.7177 1.21434C92.8589 1.95088 90.957 1.94096 89.0507 1.93103C88.8307 1.92988 88.6106 1.92873 88.3905 1.92873C83.7902 1.92085 79.1891 1.89994 74.5874 1.87903C58.3248 1.80513 42.0561 1.7312 25.7983 2.23235C9.51573 2.73242 -6.74894 3.679 -22.9958 4.80417C-23.104 4.81068 -23.2112 4.81805 -23.3171 4.82534C-24.6628 4.91788 -25.8026 4.99626 -26.2666 3.12534C-26.8206 0.821421 -28.7509 0.178466 -30.8779 0.0177278C-35.2568 -0.321609 -38.76 1.51796 -41.2622 4.89347C-42.71 6.85805 -44.3722 7.501 -46.5885 7.87606C-67.0355 11.448 -87.0536 16.4845 -106.106 24.9679C-122.675 32.3441 -137.992 41.6133 -151.397 53.883C-159.601 61.3842 -166.375 69.9212 -170.897 80.1727C-173.024 85.0128 -175.062 89.8706 -176.849 94.8357C-177.074 95.463 -177.3 96.0904 -177.525 96.7177C-181.112 106.698 -184.701 116.686 -187.072 127.037C-188.413 132.877 -189.414 138.807 -187.77 144.825C-186.501 149.469 -185.732 150.148 -181.031 150.201C-180.939 150.203 -180.846 150.204 -180.754 150.205C-178.361 150.238 -175.957 150.271 -173.221 151.166C-175.169 153.273 -176.688 155.005 -177.224 157.274C-177.921 160.149 -176.295 162.489 -173.382 162.721C-172.82 162.769 -172.25 162.657 -171.683 162.545ZM-74.5004 160.535C-74.4428 160.52 -74.3853 160.504 -74.3278 160.488L-74.2206 160.346L-74.3099 160.471C-75.1679 161.417 -76.2045 162.114 -77.4556 162.524C-76.8929 161.178 -75.6957 160.856 -74.5004 160.535ZM-207.986 271.314C-209.127 270.954 -209.716 271.576 -210.608 272.516C-210.891 272.815 -211.205 273.146 -211.577 273.488C-210.892 273.073 -210.334 272.736 -209.852 272.446C-209.105 271.995 -208.544 271.657 -207.986 271.314ZM-205.357 268.834C-206.214 269.648 -207.072 270.462 -207.923 271.284C-208.235 270.579 -207.934 269.99 -207.412 269.469C-205.211 267.286 -203.042 265.065 -200.873 262.844C-193.482 255.275 -186.087 247.703 -177.367 241.572C-173.757 239.018 -170.003 236.679 -166.036 234.732C-160.96 232.231 -156.33 231.946 -152.166 233.678C-152.655 234.602 -153.497 234.74 -154.344 234.88C-154.61 234.923 -154.876 234.967 -155.133 235.035C-156.337 235.363 -157.543 235.683 -158.749 236.002C-161.95 236.85 -165.151 237.698 -168.306 238.697C-173.399 240.286 -177.832 243.144 -181.853 246.644C-188.091 252.056 -194.186 257.646 -199.959 263.576C-201.708 265.372 -203.532 267.102 -205.357 268.834ZM-214.296 270.157C-214.319 270.202 -214.342 270.246 -214.365 270.291L-214.133 270.255L-214.296 270.157ZM-211.524 267.977C-212.266 268.901 -213.018 269.84 -214.284 270.134C-213.506 268.633 -212.732 267.13 -211.959 265.627C-206.414 254.854 -200.866 244.073 -193.775 234.178C-189.056 226.356 -182.64 220.14 -175.115 215.104C-171.237 212.496 -167.036 210.353 -161.978 208.639C-162.194 210.997 -161.947 213.125 -161.702 215.225C-161.643 215.733 -161.584 216.239 -161.532 216.747C-160.263 220.212 -158.797 223.587 -156.134 226.266C-156.249 226.375 -156.349 226.489 -156.437 226.59C-156.594 226.77 -156.716 226.909 -156.831 226.909C-162.729 226.82 -167.93 228.856 -173.042 231.642C-182.854 237 -190.862 244.376 -198.065 252.788C-202.247 257.664 -206.554 262.432 -210.862 267.183C-211.09 267.435 -211.307 267.705 -211.524 267.977ZM207.944 165.589C207.302 161.609 207.606 157.628 208.124 153.684C208.517 150.648 207.301 148.469 205.139 146.558C202.654 144.379 199.723 143.486 196.47 143.504C192.645 143.522 189.249 145.022 185.907 146.647C184.817 147.183 184.156 148.04 183.87 149.237C183.351 151.451 182.797 153.666 182.207 155.863C181.882 157.064 181.177 158.069 180.439 159.122C179.838 159.979 179.215 160.867 178.758 161.917C179.5 161.917 180.201 161.945 180.871 161.971C182.217 162.024 183.439 162.072 184.62 161.882C191.787 160.739 198.49 162.167 205.032 164.989C205.253 165.083 205.473 165.212 205.695 165.343C206.38 165.746 207.087 166.162 207.944 165.589ZM207.944 165.591C207.691 165.742 207.688 165.919 207.963 166.096C208.052 166.15 208.302 166.132 208.32 166.096C208.41 165.793 208.267 165.632 207.945 165.596C207.945 165.594 207.944 165.593 207.944 165.591ZM243.221 191.533C243.23 191.53 243.238 191.527 243.247 191.524L243.209 191.565C244.692 192.029 245.121 193.458 245.211 194.601C245.55 198.691 247.945 200.798 251.466 202.316C252.889 202.924 254.201 203.774 255.516 204.627C256.25 205.102 256.985 205.578 257.74 206.013C258.723 206.585 259.777 207.049 260.832 207.496C261.529 207.781 262.423 207.746 262.655 206.96C263.629 203.631 266.118 201.717 268.61 199.802C269.274 199.292 269.937 198.781 270.573 198.244C271.842 197.173 272.575 195.851 272.628 194.172C272.843 188.636 269.608 184.046 264.246 182.277C259.116 180.581 258.276 179.134 259.295 173.74C259.319 173.593 259.348 173.448 259.377 173.304C259.432 173.027 259.486 172.754 259.509 172.472C259.795 169.972 258.902 168.9 256.435 169.258C254.076 169.597 251.788 170.329 249.858 171.865C250.52 172.84 251.21 173.765 251.892 174.681C253.587 176.954 255.235 179.165 256.292 181.902C257.722 185.635 256.632 188.493 254.612 191.011C252.509 193.624 249.534 192.607 246.789 191.669L246.694 191.636C246.463 191.558 246.227 191.451 245.989 191.342C245.326 191.04 244.64 190.728 243.952 190.998C243.935 190.953 243.914 190.904 243.888 190.85L243.462 191.299C243.381 191.367 243.301 191.444 243.221 191.533ZM243.462 191.299L243.247 191.524C243.332 191.499 243.439 191.497 243.547 191.494C243.842 191.489 244.136 191.483 243.952 190.998C243.789 191.063 243.625 191.16 243.462 191.299ZM385.355 284.632C386.821 286.454 388.125 288.347 388.93 290.544V290.562C390.325 292.573 391.716 294.589 393.107 296.604C394.496 298.616 395.884 300.628 397.276 302.635C398.503 304.012 399.729 305.381 401.059 306.867C401.765 307.656 402.501 308.477 403.282 309.35C399.689 310.136 396.973 309.332 394.488 307.6C390.503 304.796 386.856 301.671 383.943 297.67C382.911 296.252 381.894 294.825 380.877 293.398C377.756 289.018 374.638 284.642 371.092 280.56C359.242 266.951 344.032 260.432 326.391 259.093C321.804 258.741 317.204 258.625 312.603 258.508C309.495 258.43 306.387 258.351 303.281 258.2C292.432 257.682 281.672 256.396 271.073 253.878C270.957 253.85 270.838 253.827 270.718 253.804C270.137 253.692 269.518 253.573 268.911 252.877C269.488 252.301 270.231 252.267 270.931 252.235C271.12 252.226 271.306 252.218 271.484 252.199C284.335 250.788 297.133 252.038 309.912 253.378C311.02 253.493 312.128 253.614 313.235 253.736C321.044 254.592 328.855 255.448 336.775 254.181C345.247 252.824 352.861 250.216 358.027 241.965C361.905 246.341 365.194 250.484 367.678 255.271C369.439 257.246 370.725 259.522 372.013 261.799C372.53 262.713 373.047 263.627 373.594 264.522C374.083 265.32 374.573 266.118 375.063 266.915C378.638 272.737 382.211 278.553 385.355 284.632ZM-117.081 210.317L-117.563 209.835L-117.545 209.817C-121.853 210.05 -126.107 209.657 -130.325 208.835C-135.258 207.853 -140.209 207.835 -145.177 208.621C-145.678 205.388 -144.337 203.584 -142.05 202.245C-137.581 199.655 -132.881 197.708 -126.982 196.815C-129.608 194.376 -132.362 194.529 -135.137 194.682C-136.385 194.751 -137.638 194.821 -138.886 194.654C-138.788 193.356 -138.481 192.04 -138.172 190.713C-137.303 186.986 -136.415 183.174 -140.066 179.42C-138.686 179.439 -137.401 179.6 -136.16 179.755C-133.929 180.034 -131.836 180.296 -129.574 179.688C-129.617 180.08 -129.662 180.466 -129.706 180.844C-129.97 183.135 -130.208 185.186 -129.932 187.225C-129.806 188.207 -129.485 189.171 -129.163 190.118C-128.77 191.225 -128.198 192.225 -126.804 192.225C-125.642 192.225 -124.981 191.457 -124.516 190.547C-124.106 189.761 -123.733 188.959 -123.359 188.157C-122.951 187.281 -122.542 186.404 -122.085 185.546C-121.495 184.421 -120.816 183.974 -119.368 184.796C-118.536 185.262 -117.626 185.569 -116.708 185.88C-115.515 186.282 -114.308 186.69 -113.238 187.457C-112.273 188.153 -110.754 188.493 -109.556 188.368C-106.639 188.062 -103.707 188.114 -100.775 188.166C-97.0234 188.233 -93.2694 188.299 -89.538 187.618C-86.9304 187.141 -84.362 186.528 -81.7965 185.916C-80.8978 185.701 -79.9995 185.486 -79.1 185.278C-78.7455 185.198 -78.3828 185.096 -78.0167 184.993C-76.6663 184.614 -75.269 184.221 -74.0597 184.867C-71.021 186.52 -68.0716 185.894 -65.1233 185.268C-64.3432 185.102 -63.5632 184.937 -62.7817 184.814C-61.9709 184.687 -61.1637 184.523 -60.3571 184.36C-57.5361 183.789 -54.7223 183.22 -51.7896 184.206C-51.6107 184.268 -51.4314 184.326 -51.253 184.384C-50.0767 184.767 -48.9349 185.139 -48.1435 186.225C-49.8414 190.118 -52.9335 190.868 -56.7762 190.725C-62.9425 190.493 -69.0194 191.029 -74.7746 193.726C-77.3484 194.922 -79.6183 196.262 -80.7264 198.905C-81.5129 200.762 -82.6031 201.066 -84.4083 200.566C-92.0716 198.451 -98.7122 201.318 -105.357 204.187C-106.57 204.71 -107.783 205.234 -109.002 205.727C-109.967 206.103 -110.199 206.835 -110.164 207.763C-110.147 208.194 -110.16 208.635 -110.172 209.076C-110.2 210.06 -110.228 211.043 -109.931 211.907C-109.324 213.639 -109.931 214.782 -111.182 215.586C-113.463 217.029 -113.258 219.082 -113.059 221.077C-112.994 221.725 -112.93 222.367 -112.952 222.98C-113.012 224.882 -111.401 225.767 -109.878 226.603C-109.584 226.764 -109.294 226.923 -109.02 227.088C-108.782 227.219 -108.496 227.27 -108.21 227.322C-108.067 227.348 -107.924 227.374 -107.787 227.409C-106.607 227.695 -105.392 228.177 -105.767 229.624C-106.106 230.946 -107.483 230.963 -108.627 230.946C-111.987 230.892 -116.08 227.195 -116.562 223.677C-116.697 222.719 -116.736 221.752 -116.775 220.784C-116.855 218.791 -116.935 216.795 -117.849 214.872C-118.232 214.046 -117.9 213.21 -117.559 212.352C-117.295 211.688 -117.026 211.011 -117.081 210.317ZM10.0243 188.546C10.0241 188.545 10.0239 188.544 10.0236 188.543C10.2143 188.251 10.3872 187.937 10.56 187.623C10.9416 186.93 11.3224 186.239 11.8929 185.778C14.7705 183.421 14.2522 180.527 13.3942 177.58C13.1798 176.83 12.8759 176.107 12.5721 175.384C12.2682 174.66 11.9644 173.937 11.7499 173.187C9.53362 165.454 2.56304 162.346 -4.67564 165.882C-5.18889 166.133 -5.69476 166.401 -6.20088 166.669C-7.45729 167.333 -8.71522 167.998 -10.0912 168.418C-14.2506 169.697 -14.2381 169.739 -13.0424 173.78L-13.0225 173.848C-12.4863 175.669 -11.5747 177.259 -10.4666 178.759C-8.66139 181.224 -7.5175 183.956 -7.21365 187.028C-7.13165 187.829 -7.02293 188.629 -6.91421 189.43C-6.71487 190.897 -6.51553 192.365 -6.48083 193.833C-6.40934 197.44 -5.42633 200.405 -2.227 202.548C-0.475415 203.727 1.00806 205.37 2.43793 206.96C4.7972 209.585 7.81777 210.675 11.1779 210.943C14.4487 211.21 17.7374 211.121 21.0082 210.621C23.7607 210.192 26.1379 209.264 28.3005 207.371C33.1621 203.084 38.8637 201.423 45.3695 202.281C49.3553 202.798 53.3767 202.495 57.2731 201.441C61.5627 200.28 62.8317 198.601 62.9747 194.119C62.9883 193.574 62.9812 193.03 62.974 192.486C62.9624 191.601 62.9509 190.717 63.0283 189.832C63.1713 188.136 62.7066 186.85 61.3304 185.724C59.6681 184.349 58.3813 182.653 57.7736 180.492C55.9505 174.133 59.132 166.346 64.9229 163.132C69.3555 160.667 74.7353 161.703 78.024 165.65C79.2337 167.093 80.1195 168.724 81.0463 170.43C81.4615 171.194 81.8849 171.974 82.3493 172.758C82.8188 172.145 83.2678 171.56 83.7035 170.994C84.346 170.158 84.9594 169.359 85.5665 168.561C85.8167 168.222 86.067 167.865 86.2815 167.49C87.6756 164.971 87.6041 162.56 85.8704 160.792C81.6523 156.488 76.755 153.845 70.4994 155.434C65.0301 156.809 59.7754 155.827 55.2356 153.041C49.9503 149.794 45.1109 151.377 40.0938 153.018L40.079 153.023C38.5062 153.541 37.5053 154.666 37.2014 156.434C36.8976 158.274 36.3078 160.149 35.003 161.471C32.4114 164.114 31.8216 167.043 32.8761 170.49C33.0522 171.077 33.073 171.706 33.0938 172.337C33.1111 172.859 33.1284 173.382 33.2336 173.883C34.5919 180.527 32.1433 185.867 27.7465 190.654C25.2621 193.368 22.2594 195.137 18.9349 196.673C14.4309 198.762 11.1601 198.441 7.96074 194.851C5.52999 192.136 4.63633 188.814 4.81505 185.349C5.08316 179.92 3.5282 175.812 -2.01252 173.955C-2.20117 173.892 -2.36326 173.776 -2.52993 173.657C-2.60014 173.607 -2.67117 173.556 -2.74533 173.508C-4.13945 172.597 -5.30121 171.454 -4.71139 169.651C-4.1163 167.817 -2.55806 167.954 -1.08296 168.084C-0.963116 168.095 -0.843823 168.105 -0.725644 168.115C7.12073 168.758 12.6793 177.384 10.2485 185.117C10.1599 185.405 10.023 185.688 9.88677 185.97C9.5909 186.583 9.29821 187.188 9.51047 187.818C9.44081 187.867 9.40346 187.958 9.44423 188.064C9.50328 188.206 9.66376 188.308 9.82773 188.413C9.86275 188.436 9.89795 188.458 9.93233 188.481C9.95777 188.508 9.98433 188.534 10.0121 188.561C10.0156 188.556 10.0192 188.55 10.0227 188.545C10.0232 188.545 10.0238 188.546 10.0243 188.546ZM10.0227 188.545C10.023 188.544 10.0233 188.544 10.0236 188.543C10.0059 188.474 9.99274 188.401 9.97968 188.328C9.94748 188.15 9.91614 187.976 9.81958 187.868C9.72238 187.761 9.59349 187.76 9.51047 187.818C9.58385 188.036 9.71756 188.256 9.93233 188.481C9.96334 188.502 9.99369 188.523 10.0227 188.545ZM139.589 260.537C139.628 260.557 139.666 260.576 139.705 260.593V260.629C142.018 260.491 144.331 260.511 146.648 260.531C149.45 260.555 152.258 260.579 155.076 260.325C154.779 260.45 154.488 260.584 154.198 260.718C153.616 260.987 153.039 261.253 152.43 261.432C133.092 267.058 116.738 277.863 101.831 290.955C90.3566 301.028 79.3287 311.619 69.7844 323.602C68.6941 324.978 67.8541 324.942 66.5851 324.192C66.3079 324.024 66.0226 323.869 65.7374 323.713C64.9011 323.258 64.0659 322.803 63.4394 322.031C60.2937 320.209 57.7915 317.673 55.5394 314.905C48.128 305.82 39.3805 298.132 30.6386 290.448C28.7763 288.812 26.9143 287.175 25.0655 285.525C21.8556 282.667 18.4196 280.084 14.9429 277.471C10.5986 274.205 6.19062 270.891 2.08046 266.933C3.18821 266.933 4.25621 266.895 5.29311 266.858C7.51862 266.78 9.6008 266.706 11.6248 267.022C15.1279 267.558 18.4166 267.076 21.7768 266.326L21.7773 266.326C30.267 264.433 38.7566 262.54 47.282 260.807C51.3571 259.986 55.5394 260.129 59.6682 260.289C63.6718 260.45 67.6575 260.414 71.6433 260.164C76.7907 259.825 81.8846 259.807 86.9606 261.075C90.9106 262.057 94.9321 261.968 98.8285 260.771C100.674 260.205 102.58 259.834 104.487 259.463C108.175 258.745 111.866 258.027 115.129 255.896C115.79 255.467 116.505 255.61 117.184 255.86C124.316 258.521 131.787 259.575 139.311 260.432C139.411 260.445 139.501 260.491 139.589 260.537ZM-156.693 304.527C-156.697 304.516 -156.701 304.504 -156.706 304.492L-156.724 304.457C-159.262 301.796 -160.388 298.474 -161.156 294.973C-161.705 292.438 -162.265 289.905 -162.824 287.374C-163.557 284.056 -164.289 280.739 -164.999 277.417C-165.803 273.648 -165.249 270.309 -163.033 266.897C-159.637 261.682 -155.383 257.325 -151.022 253.002C-146.554 248.573 -141.764 244.501 -136.759 240.697C-136.486 240.492 -136.224 240.229 -135.961 239.963C-135.261 239.257 -134.547 238.538 -133.56 238.875C-132.663 239.181 -131.695 239.225 -130.731 239.268C-129.102 239.342 -127.485 239.415 -126.25 240.751C-123.461 243.805 -119.78 244.787 -115.955 245.483C-115.429 245.579 -114.903 245.672 -114.377 245.764C-111.951 246.191 -109.526 246.618 -107.161 247.323C-101.799 248.913 -97.3307 247.52 -93.8633 243.072C-93.1662 242.179 -92.4156 241.304 -91.647 240.465C-91.0572 239.822 -90.2708 239.197 -89.4129 239.75C-88.4298 240.376 -88.5013 241.429 -88.9124 242.429C-89.4826 243.82 -90.4777 244.913 -91.4695 246.001C-91.5347 246.073 -91.5999 246.144 -91.6649 246.216C-91.919 246.497 -92.2124 246.748 -92.5118 247.004C-93.1811 247.576 -93.8805 248.174 -94.2386 249.198C-90.0047 250.952 -85.6275 251.485 -81.2112 252.022C-79.1956 252.267 -77.1719 252.514 -75.15 252.877C-74.2563 250.091 -74.2921 247.323 -74.4708 244.501C-74.6495 241.608 -73.7022 239.161 -71.0927 237.589C-69.9667 236.911 -68.7513 236.339 -67.536 237.393C-66.267 238.482 -66.821 239.697 -67.4645 240.858C-67.5346 240.976 -67.6025 241.098 -67.6709 241.222C-67.8817 241.602 -68.097 241.99 -68.3939 242.287C-70.9497 244.858 -70.7353 247.377 -68.6441 250.181C-68.5121 250.358 -68.397 250.533 -68.2878 250.7C-67.7906 251.459 -67.4168 252.029 -66.1418 251.663C-64.8014 251.288 -63.1928 251.77 -62.9962 253.127C-62.6582 255.298 -61.2194 255.804 -59.6969 256.34C-59.5282 256.399 -59.3585 256.459 -59.1891 256.521C-59.0672 256.566 -58.9398 256.607 -58.8114 256.648C-58.3751 256.788 -57.9282 256.932 -57.652 257.235C-54.781 260.41 -50.9895 260.486 -47.1986 260.563C-47.0011 260.567 -46.8037 260.571 -46.6064 260.575C-45.4612 260.602 -44.3145 260.682 -43.1672 260.763C-40.4643 260.953 -37.7579 261.143 -35.0602 260.629C-33.5491 260.343 -32.4639 261.146 -31.3896 261.94C-31.3203 261.991 -31.251 262.042 -31.1817 262.093C-30.14 262.85 -29.0932 263.6 -28.0467 264.349C-25.1433 266.428 -22.2421 268.505 -19.4568 270.737C-5.51568 281.9 8.08585 293.455 20.7759 306.046C28.0146 313.208 35.7358 319.745 44.9227 324.353C44.972 324.377 45.0216 324.402 45.0714 324.427C45.6715 324.724 46.2974 325.035 46.71 325.513C49.361 328.613 51.9923 331.751 54.5895 334.849C55.4943 335.929 56.3951 337.003 57.291 338.069C56.5765 339.333 55.7009 339.272 54.9016 339.216C54.7411 339.205 54.5837 339.194 54.4313 339.194C36.415 339.123 18.4524 338.283 0.507602 336.604C-2.10812 336.356 -4.72384 336.097 -7.34016 335.838C-18.6503 334.718 -29.9715 333.597 -41.3516 333.336C-53.2195 333.05 -64.9443 331.604 -76.5083 328.657C-87.2792 325.916 -98.1904 323.833 -109.101 321.75C-113.76 320.861 -118.42 319.971 -123.068 319.03C-125.352 318.574 -127.57 317.889 -129.787 317.204C-131.909 316.549 -134.029 315.895 -136.205 315.44C-137.492 315.173 -137.528 314.226 -137.492 313.137C-137.486 312.93 -137.475 312.716 -137.463 312.497C-137.374 310.801 -137.272 308.851 -139.44 308.582C-141.527 308.323 -141.728 309.735 -141.931 311.151C-142.021 311.784 -142.112 312.418 -142.371 312.904C-144.135 313.136 -144.354 312.055 -144.638 310.651L-144.641 310.636C-145.428 306.761 -146.589 306.296 -149.467 308.815C-150.754 309.94 -151.487 309.118 -151.719 308.332C-151.791 308.096 -151.853 307.86 -151.914 307.629C-152.244 306.373 -152.54 305.247 -154.275 304.885C-155.026 304.725 -154.668 303.778 -154.239 303.117C-153.828 302.492 -153.775 301.706 -154.418 301.188C-154.704 300.956 -155.312 300.849 -155.598 301.01C-156.527 301.51 -156.563 302.331 -156.08 303.189C-155.818 303.672 -155.783 304.037 -155.989 304.286C-156.281 304.097 -156.501 304.292 -156.693 304.527ZM-156.655 304.614C-156.338 304.55 -156.117 304.441 -155.989 304.286C-155.955 304.308 -155.92 304.335 -155.884 304.367C-155.758 304.492 -155.794 305.01 -155.848 305.01C-156.231 305.122 -156.5 304.935 -156.655 304.614ZM-156.655 304.614C-156.694 304.622 -156.735 304.629 -156.777 304.635C-156.75 304.599 -156.721 304.563 -156.693 304.527C-156.681 304.557 -156.668 304.586 -156.655 304.614ZM-72.6801 18.8044C-72.4591 18.7835 -72.2389 18.7626 -72.0222 18.7348L-71.9685 18.7706C-71.7183 18.4134 -71.3072 18.2169 -71.0391 18.5384C-70.7323 18.891 -71.0576 19.0462 -71.3481 19.1848C-71.396 19.2076 -71.4429 19.23 -71.486 19.2528C-71.697 19.6687 -71.9215 20.0769 -72.1456 20.4844C-72.6047 21.3192 -73.0621 22.1509 -73.3984 23.0391C-74.0776 24.8429 -74.2563 26.7003 -72.8801 28.3077C-71.4681 29.9508 -69.6093 29.8615 -67.7326 29.415C-61.2803 27.8612 -57.8665 22.4318 -59.4036 15.4308C-56.9045 15.0757 -54.4419 14.5099 -51.9803 13.9442C-47.1358 12.831 -42.295 11.7186 -37.1871 12.216C-35.1853 12.4125 -33.1478 12.5018 -31.3247 11.4838C-28.9534 10.1601 -26.3577 9.95785 -23.7566 9.75518C-23.5149 9.73634 -23.2731 9.71751 -23.0315 9.69777C11.4818 6.89377 46.0666 6.42941 80.6693 6.94735C81.5142 6.96359 82.3591 6.96137 83.204 6.95916C84.2179 6.9565 85.2318 6.95384 86.2457 6.98307C86.305 6.98476 86.3674 6.98533 86.4317 6.98592C87.0463 6.99152 87.8289 6.99867 87.5862 8.00108C87.3896 8.82263 87.05 9.66205 85.8525 8.94765C83.0285 7.26883 80.3475 8.09038 77.7202 9.48345C76.5584 10.0907 75.486 10.8408 74.8247 11.966L74.7772 12.0468C74.1427 13.1284 73.7091 13.8675 71.9649 13.4841C69.8023 13.0018 68.5512 14.3235 68.1401 16.4845C67.3715 20.4673 70.7675 26.6289 74.6281 28.1291C76.4154 28.8435 78.2564 29.0043 79.865 27.5933C81.3485 26.2717 81.3306 24.5214 80.9195 22.8248C80.6985 21.88 80.334 20.9774 79.9305 19.978C79.7467 19.5226 79.5547 19.0471 79.3645 18.5384C82.4923 18.0205 85.5665 17.4132 87.3539 14.4485C87.7493 13.8005 88.3267 13.8378 88.9746 13.8797C89.0588 13.8852 89.1442 13.8907 89.2305 13.8948C94.6819 14.1984 99.5077 13.1447 102.207 7.69746C102.85 6.39628 104.005 6.47278 105.077 6.5437C105.255 6.55552 105.431 6.56719 105.602 6.57229C107.452 6.62269 109.301 6.66518 111.15 6.70767C117.164 6.84588 123.176 6.98403 129.177 7.39385C141.278 8.2154 153.378 9.30485 165.478 10.43C176.559 11.4659 187.623 12.5196 198.526 14.1627C198.573 14.3573 198.63 14.5216 198.678 14.6605C198.758 14.8911 198.814 15.0514 198.758 15.1629C196.22 19.985 197.185 22.539 202.208 24.2714C203.852 24.8429 205.532 25.1108 207.266 25.0572C211.484 24.9144 213.128 23.682 214.04 19.485C214.326 18.1098 214.79 17.8061 215.988 18.0919C216.336 18.1812 216.685 18.2571 217.033 18.333C217.382 18.4089 217.73 18.4848 218.079 18.5741C227.731 21.1638 237.364 23.7713 246.909 26.7718C263.245 31.8976 278.401 39.3987 292.557 49.043C296.221 51.5434 298.509 54.7403 299.528 58.8838C302.709 71.7429 304.425 84.7806 302.048 97.9254C300.046 108.963 290.233 120.215 276.185 122.929C265.586 124.965 254.934 125.465 244.192 125.322C241.19 125.278 238.188 125.229 235.186 125.18C232.182 125.13 229.179 125.081 226.176 125.037C223.745 125.001 221.296 125.019 218.937 125.644C213.772 127.001 212.163 129.055 212.056 134.431C211.776 134.449 211.496 134.473 211.216 134.496C210.656 134.544 210.096 134.592 209.536 134.592C203.49 134.629 197.446 134.669 191.402 134.709C171.286 134.842 151.175 134.975 131.054 135.002C130.38 135.004 129.706 135.005 129.032 135.007C119.141 135.03 109.238 135.053 99.3826 133.699C96.8851 133.357 94.3332 133.481 91.7782 133.606C90.4568 133.67 89.1346 133.734 87.8186 133.734C82.1132 133.726 76.4079 133.698 70.7028 133.671C52.3872 133.582 34.0741 133.493 15.7714 134.038C-4.53265 134.645 -24.7295 136.36 -44.8369 139.378C-53.7722 140.706 -62.7859 141.421 -71.7998 142.136C-73.3337 142.257 -74.8676 142.379 -76.4011 142.504C-89.5737 143.557 -102.675 143.093 -115.776 141.771C-120.478 141.292 -125.18 141.816 -129.847 142.336C-130.573 142.417 -131.299 142.498 -132.023 142.575C-137.692 143.18 -143.372 143.272 -149.047 143.363C-151.082 143.396 -153.117 143.429 -155.151 143.486C-156.423 143.52 -157.695 143.551 -158.967 143.582C-164.272 143.709 -169.574 143.836 -174.865 144.254C-179.226 144.593 -179.905 143.879 -179.959 139.61C-179.995 136.163 -179.458 132.734 -178.708 129.43C-175.312 114.535 -171.415 99.7828 -165.392 85.6736C-160.995 75.3863 -154.489 66.6528 -146.536 58.8838C-126.071 38.9165 -101.406 26.5932 -74.1312 19.0206C-73.6632 18.8975 -73.1697 18.8508 -72.6801 18.8044ZM124.691 339.962C111.84 340.766 98.9894 340.819 85.2448 339.516C85.7718 338.903 86.2399 338.346 86.6737 337.829C87.5053 336.838 88.2107 335.998 88.9625 335.211C102.564 321.031 117.381 308.314 134.45 298.384C137.971 296.339 141.461 294.241 144.95 292.143C148.44 290.044 151.93 287.945 155.451 285.9C174.933 274.613 196.274 269.148 218.347 265.987L218.554 265.957C227.118 264.717 235.678 263.477 243.745 260.129C244.943 259.628 245.836 259.503 246.605 260.843C249.99 266.73 255.509 270.233 260.989 273.711C261.528 274.053 262.066 274.394 262.601 274.738C270.43 279.757 278.848 283.668 287.32 287.508C298.294 292.473 307.785 299.527 315.095 309.154C315.582 309.794 316.023 310.343 316.409 310.822C319.025 314.073 319.088 314.151 313.558 318.245C308.428 322.031 302.638 324.21 296.257 325.192C292.208 325.819 288.18 326.568 284.152 327.318C277.508 328.553 270.863 329.789 264.121 330.478C261.435 330.752 258.75 331.035 256.064 331.317C243.685 332.618 231.302 333.92 218.848 334.39C213.044 334.611 207.266 335.111 201.49 335.611C198.87 335.838 196.25 336.064 193.628 336.265C187.357 336.743 181.08 336.914 174.804 337.085C169.365 337.233 163.925 337.381 158.49 337.73C153.678 338.043 148.863 338.365 144.047 338.688C137.594 339.12 131.14 339.553 124.691 339.962ZM85.9723 155.347C85.7739 155.116 85.5397 154.842 85.2448 154.505L85.2806 154.523C89.0518 155.005 91.7328 156.22 94.3959 157.667C95.0442 158.021 95.6906 158.38 96.3368 158.738C100.929 161.283 105.512 163.824 110.714 165.061C113.252 165.668 115.79 165.686 118.364 165.668C124.101 165.614 129.588 158.702 125.513 152.719C125.099 152.121 124.773 151.478 124.36 150.662C124.132 150.211 123.877 149.708 123.565 149.13C126.84 150.362 130 150.225 133.099 150.091C135.345 149.994 137.558 149.898 139.758 150.326C139.758 150.832 139.778 151.331 139.798 151.824C139.84 152.877 139.881 153.9 139.723 154.898C139.258 157.881 139.883 160.56 141.438 163.078C142.278 164.453 142.654 165.918 142.904 167.507C143.994 174.223 149.249 178.956 156.005 179.366C156.102 179.372 156.197 179.377 156.292 179.383C157.34 179.439 158.29 179.491 159.044 180.474C161.117 183.17 163.637 185.492 166.372 187.868C165.994 188.324 165.629 188.764 165.272 189.194C164.499 190.126 163.769 191.006 163.047 191.886C158.918 196.923 153.253 198.316 147.354 195.565C143.994 193.994 140.723 192.225 137.471 190.439C133.556 188.278 129.41 186.796 125.013 186.046C116.612 184.617 109.678 189.011 107.372 197.262C107.038 198.441 106.784 199.651 106.53 200.862C106.403 201.467 106.276 202.072 106.139 202.673C105.728 204.495 104.941 206.156 103.94 207.746C102.51 209.996 100.455 211.282 97.8455 210.96C95.3968 210.675 93.9133 208.853 92.8409 206.728C91.9396 204.943 91.993 203.046 92.0465 201.143C92.0492 201.046 92.0519 200.949 92.0545 200.852C92.1618 196.369 91.429 192.029 89.7846 187.868C88.8731 185.582 87.5326 183.528 85.7452 181.867C84.226 180.456 84.1724 179.063 84.8516 177.277C85.6202 175.259 86.4781 173.348 87.7828 171.597C92.4299 165.382 92.1618 161.935 86.7283 156.202C86.5004 155.964 86.2791 155.705 85.9723 155.347ZM243.163 161.474C243.519 162.264 243.845 162.977 244.149 163.641C244.72 164.888 245.213 165.963 245.675 167.061C246.462 168.936 247.481 169.276 249.286 168.132C251.949 166.418 254.844 165.203 258.151 165.489C262.226 165.846 264.317 168.383 263.781 172.419C263.703 173.034 263.519 173.636 263.336 174.236C263.226 174.594 263.117 174.952 263.03 175.312C262.351 177.973 262.601 178.42 265.264 179.348C265.676 179.491 266.087 179.581 266.516 179.67C271.198 180.67 273.879 183.796 275.345 188.118C276.131 190.422 276.793 192.761 276.525 195.244C276.364 196.69 276.846 197.315 278.366 197.333C281.726 197.369 284.764 198.637 287.803 199.905C292.039 201.673 296.453 202.852 300.886 203.888C304.514 204.745 308.25 204.781 311.967 204.352C314.255 204.084 316.025 203.12 316.865 200.834C317.049 200.328 317.276 199.832 317.502 199.337C317.867 198.539 318.232 197.742 318.42 196.905C318.992 194.458 320.135 192.44 321.869 190.636C324.407 187.975 324.514 187.064 322.084 184.528C319.653 181.974 318.884 179.241 319.921 175.937C320.314 174.687 320.797 172.847 319.885 172.276C318.955 171.694 318.152 170.937 317.35 170.18C316.012 168.917 314.677 167.657 312.754 167.222C301.325 164.629 289.698 163.538 278.075 162.447C276.646 162.313 275.218 162.179 273.79 162.042C269.07 161.594 264.345 161.714 259.545 161.836C254.211 161.972 248.783 162.11 243.163 161.474ZM-17.7492 178.41C-17.4833 178.785 -17.2201 179.156 -16.9725 179.527L-16.9903 179.509C-19.1709 183.063 -22.5668 183.51 -26.0521 183.385C-26.3303 183.375 -26.6082 183.364 -26.8858 183.353C-31.0316 183.195 -35.1127 183.038 -39.0996 184.796C-41.1014 185.689 -43.0138 184.278 -44.4437 182.974C-48.9656 178.884 -54.1668 177.973 -59.9577 179.223C-62.3348 179.741 -64.712 180.152 -67.1606 180.206C-68.7513 180.241 -70.217 180.134 -71.7004 179.384C-74.7032 177.866 -77.9561 177.58 -81.2984 178.098L-81.5218 178.132C-85.1122 178.675 -88.7286 179.222 -92.7909 179.134C-92.3322 178.274 -91.8898 177.424 -91.4531 176.586C-90.3754 174.515 -89.3319 172.511 -88.1617 170.579C-86.6067 167.99 -84.3547 166.525 -81.0839 166.65C-76.0794 166.829 -72.2366 164.507 -69.6092 160.381C-65.3375 153.648 -58.2418 151.791 -51.3428 150.719C-46.7851 150.005 -42.3704 152.987 -38.6527 156.024C-38.2789 156.328 -37.9572 156.711 -37.6376 157.092C-37.2083 157.603 -36.7828 158.11 -36.2398 158.417C-28.8403 162.65 -23.3175 168.597 -19.296 176.044C-18.8408 176.87 -18.2894 177.648 -17.7492 178.41ZM214.54 200.209C205.586 194.422 195.845 190.564 185.282 187.296H185.246C185.653 186.826 186.044 186.394 186.416 185.983C187.203 185.115 187.904 184.341 188.499 183.492C190.661 180.438 190.429 178.473 187.408 176.187C186.243 175.295 184.931 174.584 183.622 173.874C183.044 173.56 182.467 173.247 181.904 172.919C180.277 171.972 178.668 170.972 179.008 168.472C182.332 168.007 185.103 169.043 186.872 171.937C188.981 175.384 192.02 177.455 195.559 179.17C201.618 182.117 206.998 181.152 211.627 176.562C213.074 175.134 213.897 175.33 215.559 175.919C223.512 178.759 230.054 183.331 236.149 189.243C240.456 193.404 242.387 197.851 242.851 203.37C243.209 207.424 244.871 210.8 247.909 213.425C250.341 215.537 250.754 218.353 251.163 221.14C251.283 221.958 251.403 222.775 251.574 223.569C251.931 225.284 250.197 226.177 248.303 225.588C246.641 225.088 245.211 224.105 243.906 222.998C243.601 222.741 243.296 222.484 242.99 222.227C241.216 220.735 239.437 219.24 237.775 217.64C230.769 210.835 222.708 205.477 214.54 200.209ZM73.5218 327.042L73.4306 326.996C73.4942 326.818 73.5375 326.683 73.5708 326.579C73.6311 326.39 73.659 326.303 73.7166 326.246C89.7668 307.922 106.621 290.472 127.318 277.274C139.973 269.219 153.771 263.826 168.23 260.057C169.893 259.628 171.591 259.218 173.289 259.128C176.784 258.959 180.272 258.688 183.76 258.418C190.938 257.861 198.118 257.304 205.371 257.628C218.043 258.182 230.769 258.2 243.781 255.753C240.438 257.521 237.275 258.218 233.986 258.343C233.204 258.374 232.423 258.405 231.641 258.437C224.848 258.711 218.066 258.984 211.269 259.128C198.347 259.414 185.568 261.057 173.146 264.397C157.9 268.469 143.512 274.863 130.411 283.775C112.18 296.188 94.8249 309.654 79.5611 325.674C76.7114 328.663 76.5961 328.605 73.5218 327.042ZM368.715 284.043C374.595 290.973 380.118 298.17 385.266 305.707L385.248 305.725C383.317 305.135 381.888 303.992 380.583 302.653C373.094 294.955 364.908 288.044 356.508 281.418C345.265 272.523 332.164 267.808 318.044 265.897C312.95 265.201 307.803 264.897 302.655 265.111C290.216 265.629 278.187 263.54 266.408 259.736C263.378 258.752 260.348 257.731 256.984 256.598C255.706 256.167 254.379 255.72 252.986 255.253C255.095 254.637 256.395 254.948 257.66 255.251C257.788 255.282 257.915 255.313 258.044 255.342C260.885 255.98 263.703 256.728 266.521 257.475C271.432 258.778 276.344 260.081 281.386 260.807C292.718 262.45 304.121 263.075 315.56 263.147C323.138 263.2 330.645 263.826 338.062 265.612C350.27 268.541 360.547 274.452 368.715 284.043ZM-154.129 187.126C-154.448 187.131 -154.8 187.135 -155.204 187.135L-155.187 187.1C-156.491 187.243 -158.189 187.421 -159.905 187.564C-163.033 187.814 -165.196 189.154 -166.322 192.297C-167.287 194.958 -168.002 195.029 -170.397 193.565C-174.99 190.743 -175.383 184.867 -171.112 181.617C-169.306 180.224 -168.198 178.563 -167.823 176.33C-167.789 176.133 -167.755 175.936 -167.721 175.739C-167.417 173.969 -167.111 172.19 -166.661 170.454C-165.231 165.007 -161.013 162.578 -155.58 164.132C-153.653 164.684 -151.821 165.551 -150.009 166.407C-149.888 166.464 -149.767 166.522 -149.646 166.579C-146.303 168.15 -145.803 169.24 -147.001 172.883C-148.18 176.437 -148.591 180.116 -148.931 183.796C-149.253 187.243 -149.288 187.314 -152.666 187.135C-153.12 187.113 -153.575 187.119 -154.129 187.126ZM228.092 178.283C227.573 178.006 227.033 177.718 226.837 177.009V176.973C227.146 176.939 227.455 176.918 227.761 176.897C228.431 176.851 229.089 176.805 229.715 176.634C231.949 176.027 232.967 174.562 232.86 172.205C232.839 171.695 232.725 171.193 232.611 170.689C232.537 170.362 232.463 170.034 232.413 169.704C231.824 165.739 233.95 163.417 237.918 163.596C238.866 163.65 239.634 164.025 239.92 164.9C241.501 169.611 244.966 172.736 248.428 175.858C249.389 176.725 250.349 177.591 251.27 178.491C252.396 179.599 253.325 180.849 253.986 182.242C255.041 184.492 254.648 187.01 253.021 188.564C251.913 189.6 250.948 189.743 249.232 189.1C242.522 186.6 236.374 183.052 230.223 179.503C229.607 179.148 228.991 178.792 228.374 178.438C228.282 178.385 228.187 178.334 228.092 178.283ZM177.477 165.719C175.286 165.569 173.847 166.239 172.505 166.865C172.336 166.943 172.169 167.021 172.002 167.097C165.46 170.026 158.793 165.829 156.935 160.524C155.726 157.083 153.073 155.485 150.407 153.88C149.641 153.419 148.875 152.958 148.141 152.452C146.818 151.541 145.138 151.63 143.762 152.809C142.35 154.023 141.832 155.381 142.35 157.327C143.501 161.716 145.512 165.79 147.479 169.773L147.533 169.883C150.429 175.741 156.363 176.473 161.331 172.383C165.389 169.043 170.572 169.008 174.432 172.258C174.572 172.375 174.695 172.518 174.817 172.66C174.976 172.846 175.134 173.03 175.326 173.151C175.987 173.562 176.72 173.473 177.31 173.026C177.882 172.597 177.56 172.008 177.292 171.544C176.187 169.691 175.953 167.838 177.477 165.719ZM264.853 221.748C262.726 225.605 261.457 226.213 257.436 226.373L257.418 226.356C257.981 222.717 257.348 219.175 256.702 215.562C256.385 213.784 256.064 211.989 255.881 210.157C257.045 210.06 257.938 210.489 258.788 210.898C259.191 211.091 259.584 211.281 259.992 211.407C263.281 212.407 264.943 211.925 266.122 208.746C267.524 204.981 270.696 203.036 273.7 201.194L273.879 201.084C275.792 199.887 278.652 200.298 280.921 201.298C283.302 202.348 285.637 203.506 288.023 204.688C289.005 205.175 289.996 205.666 291.002 206.156C289.179 208.067 287.356 207.763 285.604 207.103C280.85 205.281 277.204 206.603 273.772 210.317C270.448 213.907 267.231 217.444 264.853 221.748ZM215.273 211.014C216.113 211.621 216.649 212.461 216.649 213.425C216.774 215.55 215.13 216.836 213.271 215.925C212.34 215.466 211.531 214.77 210.724 214.074C210.338 213.742 209.952 213.41 209.553 213.104C209.442 213.019 209.332 212.933 209.221 212.848C207.52 211.534 205.873 210.263 203.423 211.621C202.118 212.336 200.974 211.371 200.027 210.46C195.148 205.71 189.071 205.799 182.922 206.228C181.028 206.353 179.812 207.46 179.115 209.192L179.08 209.28C178.607 210.457 178.073 211.784 176.416 211.139C174.718 210.478 174.021 208.889 174.558 207.299C174.623 207.105 174.686 206.908 174.75 206.709C175.281 205.057 175.846 203.3 177.793 202.566C184.674 200.012 191.591 199.566 198.615 201.959C201.153 204.771 204.494 206.021 207.838 207.272C209.252 207.801 210.666 208.331 212.02 208.978C213.164 209.532 214.236 210.264 215.273 211.014ZM-100.047 159.789C-100.729 159.657 -101.377 159.539 -101.999 159.425C-103.571 159.138 -104.977 158.881 -106.357 158.524C-107.965 158.113 -109.52 158.31 -110.986 158.881C-115.919 160.828 -121.227 161.757 -126.285 161.149C-132.162 160.457 -135.889 163.466 -139.705 166.546C-140.021 166.801 -140.337 167.057 -140.656 167.311C-143.068 169.24 -142.639 171.49 -139.923 173.187C-138.35 174.169 -136.598 174.848 -134.775 175.223C-134.304 175.321 -133.82 175.451 -133.332 175.583C-131.952 175.955 -130.548 176.334 -129.36 175.991C-128.329 175.688 -128.055 174.473 -127.779 173.249C-127.648 172.668 -127.517 172.086 -127.304 171.597C-122.836 161.239 -113.971 157.399 -103.461 161.524C-102.081 162.066 -101.585 161.482 -100.926 160.705C-100.676 160.41 -100.402 160.088 -100.047 159.789ZM291.952 147.75C293.996 147.954 296.039 148.158 298.08 148.326H298.098C292.966 149.565 287.69 149.562 282.437 149.559C282.164 149.558 281.891 149.558 281.619 149.558C267.785 149.523 253.933 149.451 240.099 149.165C232.681 149.022 225.3 148.183 218.008 146.683C216.81 146.433 215.63 146.04 214.54 145.147C215.137 145.147 215.733 145.133 216.329 145.119C217.518 145.091 218.705 145.064 219.884 145.147C236.117 146.305 252.362 146.488 268.62 146.671C271.91 146.708 275.2 146.745 278.491 146.79C282.973 146.851 287.464 147.301 291.952 147.75ZM34.9853 225.315C34.8905 225.506 34.7809 225.728 34.6456 225.998L34.6277 226.034C35.0093 226.245 35.3928 226.423 35.7608 226.593C36.5473 226.958 37.2627 227.29 37.7376 227.838C38.8458 229.106 39.9182 229.338 41.4553 228.945C42.7243 228.624 44.0469 228.927 45.2444 229.392C45.6077 229.532 45.9712 229.671 46.3347 229.811C49.0297 230.846 51.7254 231.881 54.324 233.124C57.8808 234.839 59.6503 238.804 58.5421 241.912C57.6663 244.376 53.0014 246.912 49.9808 246.555C49.2659 246.466 48.551 246.234 48.3722 245.394C48.1577 244.394 48.7476 243.787 49.5697 243.376C51.643 242.358 53.6627 241.322 54.1274 238.697L54.143 238.61C54.2996 237.748 54.4504 236.918 53.4125 236.589C52.4718 236.295 51.5506 235.93 50.6297 235.564C48.1385 234.575 45.6487 233.587 42.7779 234.017C42.5627 234.05 42.3476 234.078 42.1345 234.105C40.329 234.341 38.6669 234.558 38.3632 237.018C38.256 237.875 37.6304 238.572 36.5759 238.482C35.2711 238.375 35.0924 237.304 34.9673 236.321C34.8958 235.768 34.9852 235.16 35.1818 234.643C35.7895 233.071 35.3069 232.124 33.9664 231.053C32.2863 229.731 30.9279 227.981 31.0352 225.605C31.0709 224.748 31.1603 223.873 31.4462 223.087C32.1969 221.016 33.9664 219.765 35.2175 220.498C37.0151 221.547 36.3066 222.836 35.6249 224.077C35.5407 224.23 35.4569 224.383 35.3784 224.534C35.2562 224.767 35.1409 225 34.9853 225.315ZM128.909 226.945C127.64 227.641 126.389 228.302 124.512 227.82L124.548 227.802C123.003 228.394 121.29 228.607 119.555 228.824C116.052 229.26 112.456 229.708 109.946 233.303C108.909 234.768 107.3 234.321 106.3 233.053C105.281 231.803 105.281 229.999 106.746 229.338C108.686 228.457 110.17 227.066 111.65 225.678C112.42 224.956 113.189 224.235 114.021 223.587C116.469 221.676 119.454 221.48 122.153 222.569C124.28 223.444 125.567 223.319 127.408 221.873C131.715 218.497 139.919 218.765 144.28 222.034C146.371 223.587 146.639 225.248 144.977 226.552C144.227 227.141 143.547 227.231 142.779 226.391C139.097 222.426 138.382 222.248 133.771 224.284C132.528 224.839 131.345 225.53 130.162 226.221C129.745 226.464 129.328 226.708 128.909 226.945ZM-31.3068 196.726C-34.1665 195.065 -36.9012 193.493 -40.6903 192.69L-40.7082 192.672C-37.8842 189.1 -34.5061 188.01 -30.9136 188.136C-25.0333 188.332 -19.6177 187.385 -15.2566 183.17C-13.9519 184.278 -13.5587 185.296 -14.0234 186.725C-14.7562 189.046 -15.7213 191.243 -17.1691 193.208C-18.027 194.386 -19.0815 195.315 -20.6901 195.279C-20.8221 195.271 -20.9541 195.286 -21.0861 195.3C-21.24 195.317 -21.394 195.334 -21.548 195.315C-23.0233 195.162 -24.4655 195.734 -25.8747 196.294C-27.7435 197.036 -29.5542 197.755 -31.3068 196.726ZM218.595 246.746C218.987 246.749 219.364 246.752 219.723 246.752V246.769C223.941 247.252 227.641 247.019 230.233 243.305C231.126 242.019 232.556 241.769 234.076 242.162C234.415 242.25 234.754 242.341 235.094 242.432C235.989 242.673 236.886 242.914 237.793 243.108C240.707 243.715 243.441 243.626 245.693 241.286C246.355 240.608 247.248 239.804 248.285 240.608C249.429 241.483 248.982 242.608 248.464 243.68C246.658 247.43 243.137 249.163 238.973 248.109C236.9 247.591 235.112 247.448 233.414 249.002C232.807 249.556 231.984 250.127 231.198 250.234C225.818 251.02 220.456 250.699 215.112 249.841C214.201 249.698 213.646 249.02 213.789 247.984C213.915 247.127 214.558 246.805 215.291 246.769C216.431 246.731 217.562 246.739 218.595 246.746ZM-34.8915 217.518C-35.0422 217.561 -35.1887 217.604 -35.3283 217.64H-35.3462C-39.046 216.872 -39.7966 217.89 -40.9405 221.141C-40.9871 221.271 -41.0297 221.401 -41.0714 221.528C-41.3505 222.379 -41.5929 223.118 -42.7278 223.087C-44.2471 223.034 -44.4973 221.855 -44.6224 220.694C-44.7654 219.23 -44.3543 217.89 -43.4428 216.711C-40.9941 213.55 -34.5419 212.193 -31.0745 214.175C-30.3988 214.556 -29.7311 214.947 -29.064 215.336C-26.7315 216.699 -24.4072 218.057 -21.7804 219.015C-17.5265 220.551 -15.8464 224.82 -18.3487 230.088C-18.7776 231.035 -19.5283 231.821 -20.708 231.321C-21.8161 230.856 -21.977 229.928 -21.6016 228.82C-21.3693 228.159 -21.2084 227.445 -21.2084 226.749C-21.1369 222.819 -22.5668 221.158 -26.5168 221.319C-29.1799 221.408 -31.146 221.283 -32.0396 218.229C-32.4642 216.815 -33.7882 217.198 -34.8915 217.518ZM-145.368 198.278C-148.311 197.795 -150.362 196.669 -151.54 194.297C-152.309 192.743 -153.667 192.618 -155.187 192.904C-156.741 193.208 -158.225 193.69 -159.565 194.494C-163.462 196.851 -163.748 201.709 -160.048 204.388C-157.296 206.388 -153.989 206.62 -150.736 206.817C-149.789 206.871 -149.056 206.478 -149.074 205.37C-149.089 202.957 -147.714 201.231 -146.134 199.249C-145.883 198.933 -145.626 198.611 -145.368 198.278ZM313.023 228.856C312.71 228.832 312.388 228.807 312.057 228.785H312.039C310.109 228.267 307.785 229.142 305.479 230.428C302.03 232.339 298.401 232.374 294.755 230.946C293.629 230.499 292.575 229.803 292.879 228.463C293.2 227.052 293.933 225.695 295.738 225.856C299.17 226.159 302.226 225.695 304.657 222.909C305.747 221.658 307.606 221.658 308.589 222.605C310.454 224.398 312.592 224.301 314.721 224.204C315.857 224.153 316.991 224.101 318.08 224.337C318.383 224.398 318.705 224.396 319.021 224.394C319.824 224.388 320.581 224.384 320.85 225.409C321.15 226.591 320.225 227.202 319.365 227.772C319.25 227.848 319.137 227.923 319.027 227.999C317.334 229.185 315.444 229.041 313.023 228.856ZM-109.717 164.596C-106.357 164.686 -103.944 166.686 -102.103 170.597C-115.544 167.418 -120.906 176.205 -126.589 185.814C-126.125 179.206 -124.57 173.74 -120.816 169.133C-118.01 165.686 -113.971 164.471 -109.717 164.596ZM167.784 184.946C165.42 182.858 163.054 180.766 161.26 178.027L161.278 178.009C161.479 177.786 161.679 177.565 161.877 177.345C162.963 176.142 164.003 174.99 165.031 173.812C166.532 172.08 168.552 172.097 170.465 172.508C172.377 172.901 173.199 174.58 173.271 176.366C173.449 180.277 174.861 183.474 179.151 185.939C178.313 185.977 177.535 186.011 176.802 186.044C174.424 186.151 172.525 186.236 170.625 186.332C169.696 186.385 168.981 186.01 168.32 185.421C168.141 185.263 167.962 185.104 167.784 184.946ZM28.7014 185.261C24.9602 185.419 21.7872 184.989 18.8098 183.617C18.0413 183.278 17.5051 183.51 17.0225 184.171C16.4746 184.91 15.911 185.638 15.3478 186.366C14.441 187.539 13.5351 188.71 12.6972 189.921C12.6556 189.981 12.6131 190.041 12.5703 190.102C11.8954 191.061 11.1198 192.163 11.8929 193.422C12.8081 194.895 14.2538 194.891 15.7878 194.887C15.8714 194.887 15.9554 194.887 16.0395 194.887C17.476 194.887 18.5597 194.174 19.6343 193.466C20.1642 193.118 20.6918 192.771 21.2585 192.511C24.2915 191.103 26.808 188.787 28.7014 185.261ZM75.6123 171.114C75.6983 169.693 74.9805 168.808 74.2997 167.968C74.1989 167.844 74.0989 167.721 74.0025 167.597C72.0543 165.114 68.6942 164.596 66.0668 166.293C61.8487 169.025 60.4724 174.794 63.0283 179.598C65.0462 173.478 69.3657 170.798 75.6123 171.114ZM333.844 156.077H334.059V156.113C334.059 157.058 334.063 158.005 334.067 158.954C334.075 160.855 334.083 162.761 334.059 164.668C334.056 164.82 334.066 164.984 334.076 165.151C334.125 165.966 334.178 166.843 332.754 166.65C332.645 166.634 332.531 166.62 332.415 166.605C331.35 166.468 330.074 166.304 330.252 164.936C330.759 160.957 330.427 157.015 330.095 153.072C329.9 150.766 329.706 148.46 329.68 146.147C329.68 145.236 329.841 144.361 331.056 144.504C331.27 144.527 331.498 144.532 331.727 144.537C332.766 144.56 333.844 144.584 333.844 146.236V156.077ZM67.157 217.461C67.8362 215.282 69.695 215.05 71.3573 214.925V214.907C76.3439 215.032 80.6514 220.176 79.9901 224.891C79.8292 226.052 79.3824 227.088 78.5245 227.892C77.8989 228.463 77.2018 229.052 76.2546 228.534C75.3788 228.052 75.057 227.195 75.5039 226.373C76.5058 224.568 75.7799 223.085 75.0457 221.585C74.9155 221.319 74.785 221.052 74.6638 220.783C73.3948 217.979 72.1616 217.586 69.6057 219.283C69.4923 219.359 69.3842 219.443 69.278 219.525C68.8315 219.873 68.4178 220.195 67.7826 219.747C66.9426 219.158 66.9068 218.283 67.157 217.461ZM183.119 165.043C191.644 164.328 199.419 165.132 207.141 170.151C203.423 171.008 200.724 170.311 198.007 169.472C197.866 169.428 197.724 169.384 197.582 169.34C194.88 168.502 192.159 167.657 189.357 169.151C189.231 169.218 189.057 169.344 188.922 169.442C188.808 169.524 188.721 169.587 188.713 169.579C188.121 168.896 187.298 168.499 186.451 168.09C185.149 167.462 183.79 166.806 183.119 165.043ZM218.49 169.918C215.97 169.508 214.54 167.954 213.664 165.579V165.561C218.74 167.114 223.638 168.579 229.035 166.936C229.179 167.55 229.33 168.126 229.475 168.68C229.744 169.707 229.993 170.659 230.143 171.633C230.483 173.812 229.143 174.83 227.034 174.026C226.515 173.826 226.051 173.502 225.585 173.176C225.344 173.008 225.103 172.839 224.853 172.687C222.869 171.472 220.814 170.294 218.49 169.918ZM-135.311 227.945C-136.956 226.909 -137.26 225.23 -137.456 223.498L-137.474 223.516C-137.492 219.765 -133.542 216.05 -129.842 216.336C-129.056 216.39 -128.466 216.711 -128.269 217.515C-128.037 218.408 -128.234 219.319 -128.913 219.855C-129.216 220.103 -129.637 220.195 -130.065 220.288C-130.344 220.349 -130.625 220.41 -130.879 220.515C-133.238 221.533 -133.792 223.159 -132.434 225.48C-132.406 225.526 -132.378 225.572 -132.35 225.617C-131.824 226.476 -131.335 227.275 -132.184 228.106C-133.202 229.088 -134.311 228.57 -135.311 227.945ZM336.664 167.001C337.892 159.811 339.127 152.586 337.097 145.343C339.54 145.069 340.779 145.891 340.815 147.808C340.937 153.708 339.762 159.455 338.59 165.182L338.509 165.579L338.502 165.613C338.326 166.459 338.149 167.308 336.65 167.079L336.664 167.001ZM323.208 152.331C323.259 156.169 323.311 160.021 323.817 163.9H323.799L323.652 163.896C321.862 163.846 320.45 163.806 320.833 161.685C321.617 157.448 321.481 153.2 321.344 148.949C321.313 147.967 321.282 146.986 321.261 146.004C321.261 145.477 321.292 144.94 321.323 144.408C321.332 144.237 321.342 144.066 321.351 143.897C321.369 143.557 321.565 143.414 321.923 143.414C322.352 143.414 322.745 143.468 322.888 143.932C322.955 144.134 322.962 144.345 322.968 144.559C322.971 144.63 322.973 144.701 322.977 144.772C323.14 147.288 323.174 149.806 323.208 152.331ZM150.129 241.731C150.931 241.443 151.79 241.392 152.648 241.342C154.065 241.258 155.478 241.175 156.613 240.018C157.381 239.233 157.775 238.286 157.238 237.322C156.756 236.446 155.719 236.375 154.986 236.839C153.002 238.054 151.09 238.215 148.927 237.268C147.283 236.554 146.622 237.947 146.228 239.161C145.728 240.679 146.854 241.179 148.034 241.465C148.485 241.584 148.961 241.624 149.433 241.663C149.667 241.683 149.9 241.702 150.129 241.731ZM340.619 208.046C340.664 208.158 340.704 208.257 340.743 208.335H340.725C340.708 209.853 339.885 210.728 338.867 210.192C336.49 208.96 334.291 209.067 331.95 210.085C331.324 210.371 330.52 210.175 330.073 209.496C329.733 208.978 329.805 208.406 330.109 207.889C331.682 205.21 338.08 204.674 340.082 207.067C340.342 207.366 340.498 207.749 340.619 208.046ZM-166.482 152.389C-161.757 150.265 -157.027 148.138 -151.522 148.79C-155.102 149.186 -158.449 150.405 -161.795 151.624C-164.797 152.717 -167.799 153.811 -170.969 154.309C-169.457 153.727 -167.97 153.058 -166.482 152.389ZM-67.9914 196.75C-70.704 199.122 -73.4941 201.562 -78.0633 202.12C-75.1281 196.974 -70.6545 196.025 -66.1894 195.077L-65.9631 195.029C-66.6517 195.579 -67.3192 196.163 -67.9914 196.75ZM-156.456 217.051C-157.278 215.675 -157.635 214.175 -157.689 212.586H-157.671C-157.674 212.505 -157.679 212.424 -157.683 212.342C-157.727 211.564 -157.774 210.73 -156.884 210.407C-155.776 210.014 -154.597 210.282 -153.596 210.853C-152.702 211.353 -152.702 212.371 -153.238 213.086C-154.043 214.139 -153.918 215.122 -153.596 216.265C-153.399 216.979 -153.864 217.694 -154.65 217.872C-155.401 218.051 -156.044 217.711 -156.456 217.051ZM204.419 19.731C204.164 19.6435 203.904 19.5542 203.637 19.4671V19.4492C205.121 17.8954 206.676 17.3954 208.445 17.3775C209.196 17.3775 209.947 17.5382 210.108 18.3777C210.286 19.3778 209.643 20.0029 208.767 20.2708C207.282 20.7144 205.941 20.2539 204.419 19.731ZM218.311 173.026C220.814 173.187 222.923 174.116 224.478 176.205C222.876 176.874 221.631 176.19 220.388 175.508C219.509 175.026 218.632 174.544 217.632 174.544C217.579 174.544 217.471 174.026 217.471 173.758C217.471 173.24 217.9 172.99 218.311 173.026ZM-92.5622 169.324C-92.4602 169.357 -92.3206 169.403 -92.1296 169.454V169.472L-94.471 174.741C-96.3179 173.217 -96.4549 171.883 -94.8821 170.74C-94.2029 170.24 -93.5058 169.758 -92.8088 169.276C-92.7772 169.254 -92.7084 169.277 -92.5622 169.324ZM-64.4081 18.9313C-65.1946 22.0389 -66.8568 23.3248 -68.8407 24.2714C-68.3864 22.1798 -66.9598 21.0155 -65.0156 19.4289C-64.8183 19.2678 -64.6156 19.1025 -64.4081 18.9313ZM77.8095 14.7342C79.9364 12.6625 81.8131 11.8409 84.7801 12.7697C82.9481 14.9631 80.9179 14.8722 78.4363 14.761C78.2305 14.7518 78.0216 14.7424 77.8095 14.7342ZM73.1803 17.9669C73.8059 20.6816 74.8604 22.3425 76.9337 24.2893C76.5048 21.3781 75.1822 19.8957 73.1803 17.9669ZM-32.7047 5.71969C-32.9975 5.71703 -33.2955 5.71432 -33.5231 5.84004C-33.4538 5.76562 -33.3841 5.68566 -33.3128 5.60389C-32.8879 5.11655 -32.4065 4.5645 -31.6107 4.73273C-31.5631 5.73008 -32.1239 5.72498 -32.7047 5.71969ZM15.8071 28.5042L15.8087 28.4814L15.825 28.5042H15.8071ZM15.8128 28.3706C15.7869 28.3737 15.7611 28.3766 15.7357 28.3792L15.8087 28.4814C15.8112 28.4436 15.8125 28.4067 15.8128 28.3706ZM16.9017 28.7278C17.2167 28.4407 17.6132 28.5963 18.0081 28.7512C18.2269 28.837 18.4452 28.9227 18.649 28.9329C22.6348 29.1472 23.8501 26.7897 22.5633 23.0212C21.1513 18.8956 18.1843 17.8955 14.5203 17.4311C11.8393 17.1096 10.8384 18.0383 11.2137 20.753C11.4997 22.8069 12.6079 24.4322 13.8411 26.0396C14.0572 26.3154 14.3619 26.5248 14.6673 26.7347C15.2419 27.1296 15.8191 27.5263 15.8128 28.3706C15.8707 28.3637 15.9296 28.3559 15.9887 28.348C16.4866 28.2815 16.9907 28.2142 16.9017 28.7278ZM16.9017 28.7278C16.7791 28.8395 16.6688 29.0182 16.5757 29.29L16.6651 29.3258C16.802 29.0697 16.8762 28.8749 16.9017 28.7278ZM20.49 25.3073C19.6857 22.2175 18.3809 20.9674 15.8787 19.7529C16.7902 22.289 17.9877 23.6642 20.49 25.3073ZM101.778 23.6642C99.615 21.646 97.0055 20.6994 93.8776 20.6101C93.737 20.6229 93.5734 20.6288 93.396 20.6353C93.0775 20.6468 92.7143 20.6599 92.3584 20.7173C89.0161 21.2352 88.0331 23.2534 89.874 26.0931C91.6256 28.8078 94.1993 30.5581 97.2557 31.5046C99.8116 32.2905 102.224 31.4868 103.315 29.7008C104.441 27.8612 103.905 25.6466 101.778 23.6642ZM95.5667 25.646C95.4864 25.5747 95.4061 25.5033 95.3254 25.4323C96.8446 25.5752 98.3638 25.8074 99.5077 27.3076C97.7741 27.6074 96.678 26.6334 95.5667 25.646ZM157.363 41.9706C157.381 44.7389 156.719 45.7747 154.396 45.5247C149.213 44.9532 144.798 42.8279 142.224 38.0236C141.116 35.9518 140.651 33.63 142.456 31.6476C144.262 29.6652 146.514 30.0045 148.766 30.8439C153.752 32.7013 157.309 37.3092 157.345 41.9706H157.363ZM146.55 34.9695C147.586 37.4163 149.302 39.0059 152.466 39.3809C150.982 36.7912 149.177 35.3982 146.55 34.9695ZM-56.5082 64.5811C-56.4903 61.6879 -55.8826 58.9196 -54.5957 56.3299C-53.6484 54.4546 -52.3079 53.0437 -50.0023 53.0437C-47.7502 53.0437 -46.3204 54.3653 -45.2301 56.1513C-44.0326 58.1159 -43.9611 60.2233 -44.7475 62.3129C-46.0701 65.8492 -48.3401 68.7961 -51.0211 71.3858C-52.7548 73.0646 -53.5054 72.761 -54.9353 70.6535C-56.2222 68.7782 -56.5975 66.76 -56.5082 64.5811ZM-50.8244 63.1524C-49.6269 61.7772 -48.8048 60.5627 -49.2158 57.973C-50.3061 60.0626 -50.8066 61.3842 -50.8244 63.1524ZM-3.98797 60.0168L-3.98774 60.0163C-3.61645 59.1796 -3.24772 58.3487 -2.78114 57.58C-0.797208 54.3117 0.668384 53.758 4.29666 54.776C7.17426 55.5797 8.56841 57.4907 8.62203 60.7948C8.65776 62.2414 8.31816 63.6345 7.74622 64.9561C5.44057 70.2962 1.41909 71.2428 -3.54968 67.6887C-7.03497 70.7427 -9.34062 70.9928 -13.1119 68.5817C-15.1673 67.2601 -17.0261 65.6884 -18.4917 63.7059C-19.5463 62.2771 -19.8859 60.8305 -17.8483 59.8482C-17.8112 59.8323 -17.7711 59.818 -17.73 59.8034C-17.6326 59.7688 -17.5306 59.7325 -17.4551 59.6696C-17.1338 59.3641 -16.8352 59.0275 -16.5372 58.6917C-15.4593 57.477 -14.3901 56.272 -12.2897 56.5799C-9.69809 56.9549 -7.80352 58.2944 -6.12344 60.1161C-6.05847 60.1872 -5.99777 60.2632 -5.93634 60.34L-5.9362 60.3402L-5.93597 60.3405C-5.64274 60.7074 -5.33281 61.0953 -4.46122 61.0805V61.0627C-4.29817 60.7158 -4.14285 60.3658 -3.98797 60.0168ZM-14.077 60.6162C-12.6114 62.5093 -10.8599 63.8667 -8.018 64.3846C-9.55511 61.7056 -11.1816 60.1518 -14.077 60.6162ZM2.83107 62.9737C2.72663 63.0433 2.62216 63.1128 2.40209 63.2484C2.40148 63.091 2.38781 62.9394 2.37482 62.7954C2.34839 62.5024 2.32483 62.241 2.41999 62.0271C2.48981 61.8783 2.54384 61.7174 2.59824 61.5553L2.59828 61.5552L2.59833 61.5551L2.59842 61.5548C2.75286 61.0949 2.91017 60.6263 3.43875 60.4019C3.45864 60.5012 3.48836 60.5981 3.51789 60.6944C3.56797 60.8577 3.6175 61.0191 3.6175 61.1877C3.65325 61.9021 3.42089 62.5272 2.83107 62.9737ZM-103.39 107.266C-103.39 109.677 -103.462 111.695 -104.749 113.392C-106.286 115.375 -108.198 115.142 -109.11 112.713C-109.396 111.963 -109.628 111.678 -110.254 111.302C-114.436 108.856 -117.171 102.765 -116.259 98.1398C-115.526 94.3892 -111.934 93.0854 -108.681 95.5501C-105.553 97.9255 -104.195 101.372 -103.515 105.123C-103.417 105.702 -103.403 106.297 -103.393 106.764V106.764V106.764C-103.388 106.974 -103.384 107.158 -103.372 107.302L-103.39 107.266ZM-9.32306 117.839C-6.60632 117.679 -4.83687 115.785 -4.89048 113.106H-4.90835C-4.99772 108.766 -12.6475 100.676 -16.9371 100.39C-19.1355 100.229 -20.4402 101.408 -20.1721 103.801C-19.6359 108.463 -17.8486 112.606 -14.3633 115.875C-12.9513 117.178 -11.307 117.964 -9.32306 117.839ZM-11.0367 110.911C-10.9828 111.01 -10.9313 111.113 -10.8798 111.215C-10.5664 111.837 -10.2518 112.462 -9.37668 112.553C-9.73773 111.493 -10.2911 110.946 -11.0367 110.911ZM-10.878 109.767C-10.5388 110.207 -10.3606 110.664 -11.0609 110.862L-11.45 109.749C-11.3897 109.749 -11.3194 109.742 -11.2488 109.735C-11.089 109.72 -10.9276 109.705 -10.878 109.767ZM264.728 72.8681C261.922 70.8142 258.83 69.4569 253.915 69.564V69.5462C250.358 69.5283 248.839 71.9394 251.252 76.1722C253.414 79.9942 256.649 82.3695 261.225 82.4767C264.174 82.5481 266.426 81.2444 267.141 79.1726C267.91 76.9937 267.087 74.6184 264.728 72.8681ZM257.605 75.6318C257.575 75.6518 257.543 75.6712 257.507 75.6899L257.49 75.6721C257.527 75.6555 257.564 75.6399 257.601 75.6253L257.605 75.6318ZM257.63 75.6137C259.034 75.0693 259.941 75.8786 260.839 76.6796C261.073 76.8881 261.306 77.0961 261.547 77.2795C259.925 77.511 258.516 77.1565 257.605 75.6318C257.613 75.6258 257.622 75.6198 257.63 75.6137ZM257.63 75.6137C257.831 75.4656 257.865 75.2906 257.668 75.1542C257.588 75.0969 257.464 75.1057 257.337 75.1147C257.267 75.1198 257.196 75.1248 257.132 75.1184L257.597 75.6185L257.601 75.6253L257.63 75.6137ZM-143.748 92.7283C-145.911 93.8892 -146.375 95.9431 -146.411 98.6578C-146.618 100.52 -145.749 102.339 -144.856 104.206L-144.856 104.207C-144.593 104.757 -144.328 105.312 -144.088 105.873C-142.461 109.695 -138.333 110.267 -135.598 107.123C-132.47 103.516 -133.596 95.8359 -137.671 93.407C-139.548 92.2818 -141.585 91.5674 -143.748 92.7283ZM-138.834 101.996L-138.834 101.996L-138.834 101.997L-138.834 101.997C-138.904 102.451 -138.976 102.922 -139.03 103.408C-141.46 100.98 -141.335 98.8899 -141.085 96.4074C-138.167 97.6399 -138.464 99.5808 -138.834 101.996ZM185.71 71.3321C185.737 71.2705 185.759 71.2113 185.778 71.1547C185.8 71.1438 185.821 71.1327 185.842 71.1216C186.063 71.0059 186.278 70.8934 186.586 71.1892C186.922 71.501 186.775 71.7 186.631 71.8945L186.617 71.9129C186.548 71.9631 186.478 72.0194 186.407 72.0822L186.435 72.1234C186.43 72.1506 186.425 72.1775 186.421 72.2041C185.732 72.3302 185.303 72.1976 185.509 71.4304C185.57 71.4027 185.631 71.3701 185.692 71.3321L185.71 71.3321ZM185.509 71.4304C184.935 71.6914 184.384 71.5217 183.829 71.351C183.5 71.2497 183.169 71.1481 182.833 71.1357C180.509 71.0464 178.543 71.725 177.417 73.7789C176.255 75.9042 176.434 78.1367 177.739 80.2263C178.847 81.9766 180.527 82.9946 182.422 83.709C185.639 84.9235 188.659 84.5484 189.893 82.816C191.233 80.9586 190.661 78.2439 188.588 75.3863C188.347 75.0565 188.01 74.7861 187.673 74.515C186.956 73.9399 186.235 73.3614 186.421 72.2041C186.446 72.1996 186.471 72.1946 186.497 72.1894L186.482 72.1675C186.499 72.0774 186.556 71.9952 186.617 71.9129C187.568 71.2209 188.356 71.6814 189.142 72.1405C189.58 72.3966 190.018 72.6523 190.483 72.7073C190.641 72.7268 190.801 72.7475 190.961 72.7683C192.853 73.0134 194.79 73.2646 196.059 71.6179C197.489 69.7604 197.06 67.5101 195.916 65.5812C193.575 61.6699 190.054 59.366 185.532 58.9017C181.993 58.5266 180.223 60.8484 181.117 64.2596C181.653 66.2599 182.904 67.778 184.28 69.2604C184.442 69.4326 184.684 69.5606 184.929 69.6907C185.486 69.9864 186.064 70.2931 185.778 71.1547C185.699 71.1944 185.619 71.2298 185.532 71.2428L185.56 71.2633C185.54 71.3221 185.523 71.3777 185.509 71.4304ZM192.413 66.7779C192.395 66.7884 192.375 66.797 192.354 66.804L192.395 66.76C191.599 66.5063 190.934 65.9655 190.254 65.4117C189.163 64.5233 188.03 63.6014 186.247 63.7774C189.028 66.8598 189.608 67.3143 191.629 66.9546C191.569 67.0434 191.58 67.2029 191.716 67.4923L192.349 66.8096L192.413 66.7957V66.7779ZM192.349 66.8096C192.089 66.8661 191.85 66.9152 191.629 66.9546C191.7 66.8479 191.872 66.8434 192.046 66.8388C192.156 66.8359 192.267 66.833 192.354 66.804L192.349 66.8096ZM13.2871 50.2754C14.6097 51.1506 16.111 51.5971 17.7196 51.5613V51.5792C20.1862 51.7042 22.5275 51.1684 24.6724 49.9361C27.6751 48.2037 28.9262 45.4711 27.9789 42.8815C26.9959 40.1489 24.4757 38.7915 21.0977 39.113C19.2531 39.3014 17.5606 39.9357 15.8599 40.5731C15.3029 40.7819 14.7451 40.9909 14.1807 41.1848C12.1253 41.8813 10.6597 43.0065 10.5167 45.3283C10.3737 47.5607 11.5534 49.1145 13.2871 50.2754ZM23.9932 46.0784C21.3658 47.7572 18.7206 47.6858 15.5212 45.7747L15.5033 45.7569C18.4167 44.0959 20.7938 43.3994 23.4033 43.6851C23.9395 43.7566 24.5472 43.9173 24.6545 44.6317C24.7617 45.2747 24.4579 45.7747 23.9932 46.0784ZM24.4751 71.3857H26.0837C29.7298 71.5643 31.9461 73.1895 32.3215 75.9935C32.7147 78.9047 30.7307 81.5836 27.2991 82.3873C22.9023 83.4232 18.7914 82.5302 15.2167 79.7619C12.2855 77.4937 12.5894 75.3863 15.8066 73.6717C18.7735 72.0822 21.9371 71.5286 24.4751 71.3857ZM20.1498 76.7972C23.081 78.2439 25.3151 79.3333 27.9782 78.3332C28.6753 78.0653 29.2651 77.5295 29.0685 76.7615C28.9434 76.2793 28.3715 75.9221 27.7459 75.8506C25.4581 75.6006 23.2597 76.0828 20.1498 76.7972ZM-109.842 80.28C-107.912 81.8159 -105.624 81.8159 -103.372 81.7445C-99.3147 82.2088 -95.9724 80.53 -92.7374 78.369C-90.6104 76.958 -89.1448 74.6541 -89.5559 72.761C-90.0921 70.207 -92.2548 69.3319 -94.346 69.2068C-100.602 68.8496 -106.124 70.8142 -110.396 75.565C-111.987 77.3331 -111.683 78.8154 -109.842 80.28ZM-93.0591 74.8148C-96.8303 77.6724 -100.834 79.2262 -106.017 76.6008C-102.818 73.8147 -99.4577 72.4931 -95.9188 71.5286C-95.3826 71.3857 -94.7928 71.35 -94.2387 71.3857C-93.2378 71.4572 -92.1475 71.6715 -91.8437 72.7431C-91.5756 73.6539 -92.3978 74.3148 -93.0591 74.8148ZM-38.8509 54.7468L-38.851 54.7468C-39.6513 54.5821 -40.5561 54.3959 -41.4053 54.0616C-45.5876 52.4543 -46.1417 49.2573 -42.71 46.3462C-40.8691 44.7745 -38.9209 43.31 -36.7404 42.2027C-34.8994 41.274 -32.9691 40.9525 -30.9494 41.6848C-27.5714 42.9171 -26.3381 45.6675 -27.9646 48.8287C-29.9664 52.7043 -33.3266 54.5796 -37.9558 54.9189L-37.9736 54.9368C-38.244 54.8717 -38.5395 54.8109 -38.8509 54.7468ZM-39.7967 49.3466C-36.3829 50.0074 -33.9164 49.9539 -31.7716 48.1857C-31.0209 47.5607 -30.1988 46.757 -30.7528 45.6854C-31.3069 44.6138 -32.4329 44.6852 -33.3623 45.096C-35.525 46.0426 -37.5983 47.132 -39.7788 49.3466H-39.7967ZM63.6784 85.8502L63.6787 85.848L63.6788 85.8476C63.7121 85.6102 63.7433 85.3886 63.7787 85.1914C63.4391 80.4407 61.6875 76.6901 58.6311 73.4575C58.4015 73.2151 58.2003 72.9401 58.0009 72.6677C57.3777 71.8164 56.7729 70.9901 55.3782 71.2607C53.43 71.6358 52.5363 73.0467 52.018 74.7434C50.7311 79.0119 53.6445 87.156 57.3264 89.7635C59.9895 91.6567 62.2415 90.9423 63.2782 87.8168C63.4957 87.152 63.5941 86.4506 63.6784 85.8502ZM59.9001 86.9952C61.3657 82.1909 60.1682 77.976 56.5578 75.5649C56.7723 79.762 57.1834 83.5662 59.9001 86.9952ZM207.194 92.4604C207.14 95.3001 205.674 96.6217 202.832 96.4074C196.863 95.9252 192.645 89.0313 194.932 83.4411C196.773 78.9404 198.168 78.6725 201.653 82.1552C205.085 85.5664 207.247 89.5849 207.194 92.4604ZM203.261 92.5854C202.278 89.8707 201.152 87.6382 198.918 85.8344C198.65 90.0671 199.365 91.1923 203.261 92.5854ZM106.943 95.9787C107.655 94.8221 107.729 93.5769 107.729 91.9781C107.658 89.0491 106.621 86.12 104.655 83.5839C102.886 81.2979 99.1321 81.6015 97.7559 83.9947C95.897 87.2274 97.2197 94.7821 100.044 97.1396C102.457 99.1399 105.281 98.6398 106.943 95.9787ZM102.593 88.8413L102.593 88.8343C102.602 88.6973 102.61 88.5606 102.617 88.424C104.083 89.9421 104.53 91.7102 104.029 94.4963C102.37 92.5061 102.482 90.6545 102.593 88.8413ZM202.708 48.1679C198.382 48.1322 190.625 41.3812 190.178 37.2734C190.071 36.2376 190.304 35.2553 191.197 34.648C191.984 34.1122 192.824 34.2015 193.485 34.9159C194.304 35.8 195.347 35.8554 196.384 35.9105C196.75 35.93 197.116 35.9494 197.471 36.0054C199.901 36.3804 202.171 37.1306 204.084 38.6844C206.068 40.3096 207.158 42.3992 206.64 45.0246C206.229 47.1321 204.834 48.1679 202.708 48.1501V48.1679ZM196.402 40.6534C196.388 40.6563 196.373 40.659 196.358 40.6617L196.405 40.6431L196.402 40.6534ZM196.716 40.5335C199.171 39.7524 201.02 41.1741 202.825 42.5625C202.917 42.6333 203.009 42.704 203.101 42.7743C203.78 43.2922 204.209 44.1852 203.565 45.0068C203.066 45.6527 202.506 45.3091 202.015 45.0076C201.908 44.9423 201.805 44.879 201.707 44.8282C199.669 43.7923 197.971 42.2921 196.398 40.6668L196.402 40.6534C196.541 40.626 196.65 40.5878 196.716 40.5335ZM196.716 40.5335C196.613 40.5661 196.51 40.6026 196.405 40.6431L196.577 40.0417C196.816 40.281 196.837 40.4342 196.716 40.5335ZM186.389 80.5834C186.341 78.8427 185.48 77.8679 184.663 76.9421C184.463 76.7158 184.266 76.4924 184.084 76.2614C183.637 75.6899 183.011 75.2077 182.279 75.7613C181.528 76.3329 181.349 77.1723 181.85 78.0117C182.779 79.5832 184.227 80.3155 186.389 80.5834ZM-118.654 50.061C-118.761 54.1152 -124.481 59.4374 -128.538 59.2767C-131.29 59.1695 -133.078 56.9728 -132.309 54.3295C-131.237 50.5968 -128.842 47.7571 -125.41 45.989C-122.389 44.4352 -118.582 46.8641 -118.672 50.061H-118.654ZM-126.822 54.4724C-124.284 53.4722 -122.818 52.4542 -121.817 50.8647C-121.46 50.2932 -121.049 49.5609 -121.782 49.0073C-122.425 48.5251 -123.158 48.8823 -123.658 49.3466C-124.963 50.5611 -126.018 51.9542 -126.822 54.4724ZM166.425 38.5772C169.409 38.9523 172.394 40.1667 174.593 42.8457C175.88 44.3995 176.148 46.2927 175.326 48.0787C174.45 49.9539 172.573 49.8825 170.839 49.7396C166.871 49.436 163.315 46.8463 162.296 43.5958C161.331 40.5061 162.796 38.5236 166.425 38.5772ZM16.5673 29.3429L16.5578 29.2901L16.6471 29.3258C16.6204 29.3316 16.5938 29.3373 16.5673 29.3429ZM15.6634 28.4939C15.1906 29.5347 15.8078 29.5021 16.5673 29.3429C17.1953 32.8574 16.5964 35.9635 13.5908 38.3093C11.0171 40.3096 7.40667 40.649 4.79717 39.0773C2.54514 37.7199 2.20554 35.8804 3.72477 33.7729C6.68067 29.6342 10.7759 28.1578 15.6634 28.4939ZM15.8071 28.5043C15.7591 28.5006 15.7112 28.4972 15.6634 28.4939C15.6801 28.457 15.6982 28.4188 15.7177 28.3792L15.8071 28.5043ZM14.2879 31.7726C11.1899 32.8799 9.18804 34.273 8.28246 35.9518C11.1779 36.309 13.0189 35.2196 14.2879 31.7726ZM53.895 56.6335C57.1122 56.5442 60.0076 57.1514 62.4205 59.1339C65.0658 61.3128 64.887 63.8846 62.0809 65.742C57.6126 68.7068 51.2676 66.5814 49.4445 61.4914C48.2827 58.2945 49.2836 56.8835 52.8047 56.705C53.0754 56.6937 53.339 56.6682 53.5641 56.6464C53.6956 56.6337 53.8139 56.6222 53.9128 56.6157L53.895 56.6335ZM60.794 62.813C58.2203 61.2949 56.2721 60.777 53.5196 60.6698C55.6287 63.0452 57.4517 64.0096 60.794 62.813ZM-5.75723 41.2746L-5.76648 41.274H-5.74861L-5.75723 41.2746ZM-6.19719 41.2902C-6.03607 41.2869 -5.88714 41.2839 -5.75723 41.2746C-3.36612 41.436 -1.29594 41.9187 0.435535 43.2922C2.0084 44.5423 2.65183 46.2212 2.22287 48.2215C1.79392 50.1682 0.274692 50.9898 -1.44114 51.347C-4.37236 51.9363 -7.10698 51.2755 -9.48413 49.4538C-11.0391 48.2751 -12.1115 46.757 -11.7183 44.7031C-11.3145 42.5629 -9.47947 42.0079 -7.73759 41.4812L-7.64317 41.4526C-7.16266 41.3098 -6.63495 41.2991 -6.19719 41.2902ZM-8.55471 45.2746C-6.32055 47.3999 -3.97915 47.8643 -1.19091 47.2392C-3.13911 44.3995 -4.14001 44.1316 -8.55471 45.2746Z" fill="#0D070B"/>
<path d="M222.297 85.6022C222.154 86.3344 222.029 87.0309 221.886 87.7275C221.367 90.1743 219.955 91.871 217.489 92.4246C215.487 92.8711 213.807 92.0853 212.663 90.4243C211.144 88.2454 211.037 85.9058 212.359 83.584C213.664 81.2979 217.185 79.7798 219.777 80.3156C220.867 80.53 221.6 81.2265 221.85 82.2445C222.118 83.3339 222.154 84.477 222.297 85.6022V85.6022ZM219.527 86.2451C219.527 85.1557 219.08 84.8163 218.49 84.7985C217.006 84.727 215.451 86.3165 215.541 87.7811C215.612 88.7276 216.077 89.3884 217.114 89.3527C218.454 89.317 219.598 87.6203 219.509 86.2451H219.527Z" fill="#0D070B"/>
<path d="M280.581 50.5613C283.888 49.8826 288.178 54.4905 288.589 57.0623C289 59.5627 287.659 61.2415 285.139 61.3308C281.421 61.4558 276.9 56.3301 277.454 52.5973C277.686 51.0435 278.383 50.5792 280.581 50.5435V50.5613ZM284.96 57.4731C284.281 55.9014 283.334 54.5798 281.278 53.5975C282.011 55.83 283.048 57.0444 284.96 57.4731Z" fill="#0D070B"/>
<path d="M107.229 116.75C107.282 118.375 105.173 120.607 103.672 120.5C102.045 120.393 101.67 119.161 101.634 117.786C101.563 115.821 102.814 114.214 104.458 114.249C106.138 114.285 106.978 115.321 107.246 116.768L107.229 116.75Z" fill="#0D070B"/>
<path d="M128.819 75.565C127.693 75.565 127.139 74.9935 127.05 74.0469C126.925 72.7789 127.443 71.7788 128.766 71.5644C129.945 71.368 130.624 72.1181 130.678 73.2611C130.732 74.5649 130.017 75.3329 128.837 75.565H128.819Z" fill="#0D070B"/>
<path d="M149.928 103.569C148.373 103.301 147.64 102.605 147.729 101.265C147.819 100.122 148.462 99.4794 149.642 99.5508C150.839 99.6222 151.286 100.408 151.304 101.515C151.34 102.676 150.625 103.194 149.928 103.551V103.569Z" fill="#0D070B"/>
<path d="M208.838 308.547C208.838 310.618 207.158 312.44 205.227 312.476C203.297 312.512 201.903 310.958 201.992 308.886C202.1 306.725 203.798 305.064 205.781 305.171C207.569 305.278 208.838 306.689 208.838 308.547V308.547Z" fill="#0D070B"/>
<path d="M251.198 296.813C249.41 296.831 248.105 295.42 248.105 293.455C248.105 291.383 249.553 289.794 251.466 289.794C253.289 289.794 254.611 291.187 254.593 293.116C254.593 295.134 253.056 296.795 251.198 296.813Z" fill="#0D070B"/>
<path d="M229.053 312.137C229.053 313.798 227.498 315.441 225.853 315.512C224.155 315.584 222.618 314.048 222.618 312.297C222.618 310.601 224.12 308.993 225.8 308.922C227.498 308.85 229.07 310.404 229.053 312.137Z" fill="#0D070B"/>
<path d="M209.821 326.585C209.875 328.318 208.695 329.621 207.069 329.604C205.567 329.604 204.406 328.407 204.531 326.907C204.674 325.335 205.532 324.317 207.14 324.103C208.695 323.888 209.768 324.924 209.821 326.567V326.585Z" fill="#0D070B"/>
<path d="M196.219 320.763C196.112 321.959 195.504 322.62 194.289 322.585C193.467 322.567 192.931 322.102 192.859 321.299C192.77 320.138 193.431 319.352 194.539 319.245C195.504 319.155 196.094 319.781 196.201 320.745L196.219 320.763Z" fill="#0D070B"/>
<path d="M238.758 325.282C238.633 326.192 238.097 326.764 237.114 326.782C236.292 326.782 235.755 326.282 235.755 325.496C235.755 324.353 236.399 323.638 237.596 323.763C238.365 323.835 238.776 324.424 238.758 325.282V325.282Z" fill="#0D070B"/>
<path d="M28.9256 201.941C28.2106 201.87 27.4957 201.816 26.7986 201.709C25.4403 201.495 24.2785 200.959 24.0461 199.459C23.8495 198.173 24.5823 197.298 25.619 196.655C30.6771 193.529 33.3045 188.814 34.6629 183.188C35.7174 178.777 38.0767 175.402 42.5807 173.812C43.6889 173.419 44.7792 173.098 45.923 173.223C51.7676 173.83 52.6613 178.741 54.1269 182.974C55.3423 186.457 54.2877 189.011 51.0527 191.011C48.8721 192.368 46.5665 193.529 44.2608 194.655C40.9185 196.28 37.5583 197.851 34.502 199.977C32.8219 201.138 31.0346 201.959 28.9256 201.941Z" fill="#0D070B"/>
</g>
<defs>
<clipPath id="clip0_1_663">
<rect width="633" height="376.861" fill="white" transform="translate(-225)"/>
</clipPath>
</defs>
</svg>
