<svg width="605" height="535" viewBox="0 0 605 535" fill="none" xmlns="http://www.w3.org/2000/svg">
<g clip-path="url(#clip0_1_812)">
<path fill-rule="evenodd" clip-rule="evenodd" d="M394.152 108.59L378.638 188.974L344.789 171.346L340.558 149.487L339.853 108.59L349.02 83.205L375.112 54.9999L406.845 43.0127L404.729 59.9358L392.741 62.7563L363.829 91.6665L356.072 121.282L355.367 153.013H367.355L369.47 141.025L383.574 116.346L394.152 108.59ZM433.642 47.2435L469.606 69.1024L476.658 74.7435L472.427 78.9742L481.594 84.6152V87.4358L464.67 78.9742L443.514 64.8717L418.128 58.5255V44.423L433.642 47.2435ZM438.578 549.295L441.399 536.602L445.63 497.115L474.542 428.718V396.282L487.941 370.897L467.49 334.231L474.542 318.013L470.311 300.384L440.693 277.82L462.554 246.795L449.156 220H407.55L408.96 186.859L417.423 176.282L462.554 193.205L493.582 227.756L527.431 252.436L538.713 282.051L545.06 318.013L540.829 368.782L521.789 485.833L510.506 549.295H438.578ZM279.207 445.641L235.486 550H284.849L290.49 490.769L284.849 451.282L279.207 445.641ZM416.717 95.1922L453.387 90.9614L498.518 98.0127L528.841 115.641L557.753 148.782L579.614 171.346L600.769 181.218L594.423 182.628L576.793 176.987L517.558 136.09L493.582 126.923H485.825L498.518 133.269L549.291 171.346L592.307 191.795L573.267 186.154V190.384L587.371 198.141L580.319 197.436L559.164 189.679L524.61 169.231L537.303 181.923L554.933 196.025L583.14 205.897L575.383 208.013L542.944 200.256L526.02 186.859L503.454 160.064L482.299 143.141L451.271 133.269L411.076 136.795L414.602 95.8973L416.717 95.1922Z" fill="#CEB186"/>
<path fill-rule="evenodd" clip-rule="evenodd" d="M211.284 308.592C210.738 308.38 210.191 308.169 209.645 307.957C207.794 307.242 205.946 306.526 204.106 305.786C203.259 305.448 202.343 304.968 202.568 303.882C202.836 302.613 203.936 302.571 204.994 302.683C207.547 302.951 210.114 303.233 212.667 303.53C212.953 303.563 213.239 303.607 213.524 303.652L213.524 303.652C214.431 303.792 215.33 303.931 216.221 303.727C216.402 302.697 215.835 302.583 215.287 302.473C215.197 302.455 215.107 302.437 215.022 302.415C214.395 302.258 213.767 302.107 213.139 301.956C210.614 301.348 208.091 300.741 205.685 299.736C204.515 299.257 203.316 298.763 203.795 297.099C205.149 296.365 206.574 296.492 208.026 296.648C208.285 296.676 208.543 296.705 208.801 296.735L208.802 296.735L208.803 296.735C210.095 296.884 211.388 297.033 212.681 296.986C213.306 296.964 213.919 297.094 214.561 297.23C215.554 297.441 216.619 297.667 217.913 297.367C216.305 296.055 214.853 295.83 213.358 295.674C212.846 295.493 212.335 295.317 211.824 295.14L211.823 295.14C210.742 294.767 209.663 294.394 208.591 293.982C207.857 293.7 207.166 293.333 206.475 292.953C205.699 292.53 205.304 291.867 205.657 290.992C205.967 290.231 206.687 290.189 207.378 290.287C208.421 290.428 209.475 290.509 210.53 290.589C212.951 290.773 215.374 290.957 217.673 291.881C218.914 292.389 219.605 292.107 219.916 290.513C218.41 289.858 216.807 289.475 215.203 289.092L215.202 289.091C214.146 288.839 213.09 288.587 212.06 288.257C211.604 288.109 211.139 287.99 210.673 287.871L210.672 287.871C210.158 287.74 209.644 287.609 209.141 287.439C208.139 287.086 207.223 286.508 207.462 285.267C207.66 284.181 208.647 284.012 209.578 283.983C212.06 283.885 214.528 284.082 216.968 284.449C217.144 284.474 217.32 284.501 217.497 284.528C218.876 284.736 220.297 284.95 222.172 284.787C220.422 283.908 218.73 283.48 217.118 283.072C216.119 282.819 215.151 282.575 214.218 282.235C213.734 282.061 213.239 281.919 212.744 281.778C212.156 281.609 211.569 281.441 211.002 281.219C210.128 280.881 209.366 280.331 209.564 279.217C209.775 278.046 210.72 277.948 211.651 278.046C215.118 278.37 218.585 278.737 222.052 279.103L222.053 279.103L222.06 279.104C222.361 279.137 222.662 279.173 222.962 279.209L222.967 279.209C224.186 279.354 225.406 279.499 226.671 279.499C224.996 278.149 223.01 277.561 221.042 276.978L221.041 276.978C220.707 276.879 220.374 276.781 220.043 276.678C219.12 276.392 218.187 276.139 217.252 275.885L217.252 275.885C216.343 275.638 215.432 275.391 214.528 275.113C213.781 274.887 213.061 274.535 212.37 274.168C211.524 273.717 210.904 273.054 211.172 272.01C211.44 270.967 212.286 270.614 213.245 270.685C214.438 270.779 215.632 270.91 216.825 271.042L216.827 271.042C217.424 271.108 218.021 271.174 218.618 271.235C220.226 271.658 221.848 271.996 224.231 271.672L221.34 270.812C220.61 270.563 219.879 270.32 219.15 270.077L219.147 270.076L219.145 270.076C217.847 269.644 216.551 269.213 215.262 268.753C215.167 268.718 215.069 268.686 214.967 268.654C214.887 268.629 214.805 268.604 214.722 268.579C213.797 268.3 212.78 267.993 212.991 266.75C213.189 265.517 214.118 265.616 215.019 265.712C215.272 265.739 215.523 265.766 215.755 265.763C217.121 265.739 218.471 265.922 219.869 266.111C221.822 266.376 223.868 266.652 226.178 266.398C225.165 266.033 224.196 265.687 223.259 265.352L223.256 265.351C220.857 264.493 218.669 263.711 216.489 262.9C215.882 262.674 215.403 262.759 214.951 263.168C214.889 263.224 214.827 263.28 214.765 263.335L214.762 263.338L214.761 263.338C214.402 263.66 214.048 263.977 213.724 264.324C209.268 269.063 203.584 271.573 197.491 273.435C187.957 276.34 178.183 277.835 168.297 278.822C159.736 279.682 151.203 280.176 142.685 278.723C135.125 277.44 127.721 275.494 120.401 273.209C116.007 271.839 112.226 269.257 108.468 266.691L108.018 266.383C106.495 265.34 105.254 265.072 103.378 265.65C92.4771 269.016 82.3855 274.172 72.3029 279.323L72.2875 279.331C71.5609 279.702 70.8343 280.073 70.1075 280.444C68.4404 281.291 66.8078 282.207 65.1766 283.122L65.1763 283.122C64.2547 283.639 63.3336 284.156 62.407 284.66C50.5176 291.105 39.9258 299.242 30.6175 309.03C24.3978 315.573 17.8114 321.694 10.8443 327.448C1.46536 335.204 -7.58914 343.355 -15.9526 352.24C-24.4415 361.247 -33.177 370.015 -41.9136 378.783L-41.9151 378.785L-41.9248 378.794C-46.2335 383.119 -50.5424 387.444 -54.822 391.797C-58.9825 396.033 -63.1649 400.245 -67.3473 404.457L-67.348 404.457C-75.7129 412.881 -84.0777 421.305 -92.2671 429.917C-95.5955 433.414 -99.0086 436.841 -102.972 439.662V420.045C-101.057 419.341 -99.8121 417.855 -98.5804 416.386C-98.2333 415.972 -97.8873 415.559 -97.5277 415.165C-83.9177 400.118 -69.927 385.437 -55.7388 370.94C-50.4543 365.536 -44.9902 360.3 -39.5259 355.064L-39.5251 355.064C-36.6041 352.265 -33.6831 349.466 -30.7895 346.641C-26.8264 342.777 -22.5671 339.294 -18.1809 335.909C-9.4226 329.168 -0.762993 322.286 7.17732 314.6C17.8356 304.279 29.6993 295.489 41.5599 286.702C43.636 285.164 45.7121 283.626 47.7815 282.08C56.368 275.671 65.7755 270.577 75.1823 265.482C77.4719 264.242 79.7614 263.003 82.0391 261.744L82.6096 261.428C86.4671 259.294 90.3103 257.168 93.59 254.171C95.1273 252.76 96.1427 251.167 96.8338 249.164C98.1172 245.441 98.2442 241.704 97.9057 237.84C97.2569 230.492 99.175 223.78 103.35 217.716C103.45 217.57 103.547 217.416 103.645 217.262C104.189 216.401 104.755 215.505 106.142 215.685C106.674 217.601 105.981 219.245 105.299 220.866L105.298 220.867C105.202 221.096 105.106 221.323 105.014 221.551C103.674 224.922 102.588 228.321 102.659 232.016C102.805 238.952 104.996 245.397 107.191 251.851L107.197 251.868C107.32 252.231 107.444 252.595 107.567 252.958C107.708 253.367 107.99 253.762 108.286 254.086C112.207 258.26 116.776 261.631 122.333 263.083C129.963 265.072 137.762 266.482 145.618 267.046C162.782 268.287 179.833 267.667 196.673 263.577C200.284 262.703 203.513 261.377 206.221 258.867C209.27 256.059 212.716 253.802 216.17 251.54C216.775 251.144 217.38 250.748 217.984 250.349C222.44 247.401 227.25 245.907 232.665 246.231C236.502 246.471 240.352 245.991 243.991 244.807C246.515 243.974 248.391 244.045 249.406 246.724C255.4 244.327 257.135 245.244 258.546 251.392C258.94 253.113 259.829 254.453 261.211 255.553C265.372 258.853 270.082 260.63 275.343 261.49C284.327 262.957 293.071 262.646 301.561 259.121C306.089 257.231 306.089 257.217 304.594 252.38C301.801 243.424 299.968 234.3 299.093 224.95C298.501 218.604 295.906 213.259 290.039 209.987C289.447 209.66 288.863 209.32 288.28 208.979C287.405 208.468 286.53 207.957 285.624 207.491C273.834 201.483 261.451 197.041 248.56 194.108C245.81 193.484 243.034 192.957 240.259 192.43C234.624 191.361 228.988 190.291 223.554 188.41C214.923 185.407 206.024 184.433 196.969 184.222C193.472 184.137 189.988 184.292 186.49 184.476C186.424 184.479 186.355 184.483 186.285 184.488L186.227 184.492C185.624 184.535 184.936 184.584 184.727 183.898C184.431 182.924 185.334 182.501 186.011 182.205C187.139 181.712 188.31 181.232 189.523 181.007C199.578 179.089 209.606 178.299 219.605 181.5C225.289 183.319 231.001 185.054 236.911 186.027C238.998 186.93 241.198 187.169 243.426 187.212C242.044 186.394 240.69 185.632 239.125 185.407L239.122 185.405C238.206 184.756 237.25 184.08 237.841 182.755C238.304 181.726 239.237 181.777 240.146 181.825C240.234 181.83 240.321 181.835 240.408 181.839C241.283 181.886 242.157 181.908 243.032 181.929C243.469 181.94 243.906 181.951 244.343 181.966C247.509 182.475 250.674 182.989 253.966 183.524C256.144 183.878 258.378 184.241 260.703 184.617C259.397 184.239 258.149 183.847 256.937 183.466L256.937 183.466L256.936 183.466C254.08 182.569 251.421 181.734 248.659 181.289C248.518 181.204 248.363 181.148 248.208 181.133C248.052 180.654 247.714 180.598 247.277 180.753L246.191 180.428C246.036 179.921 245.669 179.907 245.246 180.048C244.867 179.888 244.488 179.733 244.11 179.578L244.109 179.578C243.249 179.225 242.393 178.874 241.551 178.482C241.156 178.299 240.902 177.89 241.001 177.368C241.113 176.86 241.452 176.578 241.917 176.55C242.585 176.514 243.264 176.54 243.934 176.566H243.935C244.043 176.57 244.151 176.574 244.259 176.578C246.953 176.686 249.6 177.148 252.246 177.609C254.779 178.051 257.312 178.492 259.885 178.623C263.331 179.675 266.884 180.034 270.44 180.393L270.646 180.414C267.262 178.976 263.806 177.833 260.182 177.255C258.574 176.743 256.967 176.232 255.359 175.722L255.354 175.72C252.14 174.699 248.925 173.677 245.711 172.644C244.851 172.376 244.005 172.051 243.201 171.671C242.665 171.417 242.298 170.923 242.482 170.303C242.665 169.71 243.215 169.442 243.807 169.485C245.387 169.598 246.952 169.71 248.518 169.936C250.449 170.2 252.372 170.501 254.293 170.801L254.294 170.802C255.039 170.918 255.784 171.035 256.529 171.149C257.615 171.586 258.701 172.009 259.899 171.769H259.97C264.98 173.22 270.111 173.973 275.256 174.729C275.739 174.799 276.222 174.87 276.705 174.942C276.928 174.975 277.151 175.008 277.374 175.041C276.366 174.72 275.368 174.369 274.372 174.017C271.91 173.15 269.453 172.284 266.853 171.882C264.54 171.198 262.23 170.511 259.921 169.823C257.611 169.136 255.302 168.448 252.989 167.764C252.024 167.477 251.06 167.202 250.097 166.927L250.096 166.927C248.692 166.526 247.291 166.126 245.895 165.691C244.921 165.395 243.835 164.958 244.216 163.632C244.527 162.546 245.542 162.603 246.473 162.73C247.064 162.805 247.656 162.873 248.249 162.941L248.25 162.941C249.552 163.09 250.854 163.24 252.142 163.463C256.353 164.193 260.547 164.956 264.75 165.721L264.755 165.722L264.8 165.73C266.099 165.966 267.399 166.203 268.7 166.439C270.11 167.13 271.563 167.313 273.806 166.975C273.278 166.792 272.815 166.598 272.389 166.419C271.371 165.993 270.567 165.656 269.603 165.776L269.58 165.769L269.577 165.768C262.731 163.584 255.885 161.401 249.054 159.204C248.208 158.936 247.347 158.626 246.572 158.203C245.937 157.864 245.627 157.216 245.909 156.482C246.12 155.918 246.614 155.58 247.234 155.636L247.282 155.64L247.282 155.64C248.494 155.737 249.718 155.836 250.915 156.017C256.057 156.78 261.125 157.926 266.194 159.072L266.197 159.073C268.149 159.514 270.101 159.955 272.057 160.375C274.189 161.24 276.426 161.533 278.911 161.859C279.829 161.98 280.781 162.104 281.774 162.264C281.332 162.075 280.905 161.889 280.491 161.708C278.276 160.74 276.409 159.923 274.342 159.698C270.497 158.463 266.649 157.225 262.801 155.987L262.734 155.966C258.911 154.736 255.088 153.506 251.268 152.28C250.914 152.169 250.558 152.071 250.202 151.973C249.693 151.833 249.185 151.692 248.687 151.518C248.01 151.278 247.502 150.813 247.601 150.023C247.7 149.219 248.306 148.937 249.04 148.923C249.491 148.923 249.942 148.966 250.38 149.036C251.106 149.161 251.834 149.282 252.561 149.403C254.715 149.761 256.871 150.12 259.011 150.573C266.29 152.135 273.558 153.747 280.826 155.359C282.218 155.667 283.611 155.976 285.004 156.285C286.203 157.018 287.486 157.032 288.812 156.891C288.738 156.849 288.665 156.807 288.592 156.765C287.711 156.256 286.851 155.759 285.822 155.707C285.647 155.643 285.472 155.577 285.296 155.511C284.738 155.302 284.177 155.092 283.608 154.931L255.132 146.892C253.948 146.554 252.763 146.216 251.592 145.821C250.817 145.553 250.14 145.087 250.38 144.1C250.619 143.141 251.451 142.986 252.241 143.085C254.131 143.296 256.021 143.592 257.911 143.889C261.768 144.485 265.566 145.371 269.364 146.257C273.647 147.256 277.93 148.256 282.296 148.839C284.129 149.699 286.09 149.854 288.092 149.953L287.877 149.835C286.398 149.026 284.918 148.217 283.156 148.19C283.01 148.131 282.866 148.068 282.724 148.004C282.454 147.884 282.187 147.765 281.901 147.682C279.559 146.987 277.195 146.373 274.832 145.759C270.336 144.59 265.843 143.422 261.507 141.703C260.802 141.421 259.956 141.407 259.18 141.421C254.554 141.534 249.942 141.646 245.316 141.844C233.032 142.38 220.748 142.803 208.464 141.9C207.237 141.811 206.01 141.721 204.784 141.63L204.783 141.63C196.676 141.033 188.576 140.436 180.454 140.264C153.403 139.7 126.338 139.855 99.2878 140.814C92.5181 141.054 85.8048 141.886 79.162 143.184C60.785 146.751 43.4517 153.408 26.7249 161.545C12.9598 168.244 -0.354012 175.845 -13.3716 183.94C-42.2416 201.907 -71.295 219.591 -100.884 236.373C-101.291 236.602 -101.712 236.815 -102.134 237.028C-102.414 237.17 -102.695 237.312 -102.972 237.459V232.044C-102.16 232.09 -101.549 231.67 -100.942 231.252C-100.81 231.162 -100.679 231.071 -100.546 230.986C-83.3959 219.858 -66.0388 209.068 -48.6815 198.277C-39.2464 192.411 -29.8112 186.546 -20.4093 180.626C-18.5053 179.427 -16.6436 178.158 -14.7961 176.86C9.78648 159.641 36.6397 147.132 65.3546 138.6C77.5965 134.962 90.2051 133.227 102.983 132.494C123.264 131.323 143.559 131.112 163.868 131.478C180.807 131.789 197.646 133.044 214.373 135.794C218.813 136.522 223.307 136.91 227.798 137.297L227.8 137.297C229.828 137.472 231.856 137.647 233.878 137.853C233.904 137.855 233.929 137.857 233.954 137.859L234.005 137.864C234.302 137.89 234.598 137.916 234.894 137.867C239.652 137.189 244.444 136.886 249.235 136.583L249.235 136.583C253.22 136.33 257.205 136.078 261.169 135.61C261.452 135.574 261.729 135.502 262.069 135.414C262.254 135.366 262.458 135.313 262.692 135.258C261.435 134.224 260.071 133.905 258.729 133.591L258.729 133.591C258.459 133.527 258.191 133.465 257.925 133.396C257.668 133.329 257.398 133.297 257.128 133.265L257.128 133.265C256.834 133.23 256.54 133.195 256.261 133.114C255.231 132.818 254.357 132.282 254.427 131.027C254.512 129.814 255.316 129.236 256.458 129.18C257.197 129.142 257.936 129.154 258.691 129.167C259.075 129.173 259.463 129.18 259.857 129.18C259.73 128.258 259.159 127.97 258.615 127.696C258.376 127.575 258.142 127.458 257.953 127.29C257.862 127.21 257.767 127.131 257.673 127.052C256.963 126.456 256.232 125.842 256.543 124.822C256.895 123.637 257.572 122.509 258.969 122.255C260.181 122.03 261.423 121.903 262.65 121.804C272.579 121.014 282.493 121.494 292.394 122.185C296.403 122.467 300.418 122.611 304.431 122.755L304.433 122.755C306.843 122.842 309.252 122.929 311.66 123.045C314.621 123.186 317.513 123.609 320.291 124.54C325.947 126.43 329.966 129.857 330.248 136.316C330.319 137.853 330.869 138.84 332.406 139.334C333.734 139.749 335.044 140.218 336.506 140.741L336.507 140.742C337.28 141.019 338.096 141.311 338.978 141.618C338.562 137.99 338.627 134.48 338.692 131.019C338.741 128.385 338.79 125.78 338.626 123.172C338.047 114.33 338.358 105.544 341.319 97.1246C346.115 83.4733 354.154 71.8528 364.83 62.1361C374.096 53.7028 384.519 47.131 396.789 43.831C399.525 43.0976 402.289 42.6182 405.096 42.322C406.422 42.181 407.07 41.6592 407.352 40.3477C408.523 34.9605 409.708 29.5733 410.892 24.1862C412.077 18.799 413.262 13.4118 414.432 8.02459C414.51 7.6742 414.581 7.32234 414.652 6.97052L414.652 6.96917C414.894 5.778 415.135 4.58728 415.603 3.45536C416.336 1.65023 417.775 0.592542 419.594 0.127158C421.315 -0.310021 422.203 0.381004 422.133 2.18613C421.935 7.70023 421.71 13.2143 421.385 18.7284C421.036 24.4651 420.634 30.1944 420.229 35.9707L420.226 36.0084C420.076 38.1432 419.926 40.2844 419.778 42.4348C420.499 42.5782 421.209 42.7125 421.91 42.8452C423.346 43.117 424.745 43.3819 426.138 43.7041C432.88 45.2412 439.241 47.7938 445.291 51.1361C452.301 55.0002 459.014 59.372 465.628 63.8707C465.875 64.0375 466.094 64.1898 466.291 64.3267C467.134 64.9119 467.57 65.2148 467.958 65.1617C468.373 65.1047 468.733 64.638 469.478 63.6706C469.579 63.5397 469.687 63.3996 469.803 63.2502C471.123 61.5391 472.445 59.828 473.766 58.1166C479.263 50.9982 484.765 43.8745 490.211 36.7233C491.974 34.4105 494.075 33.3246 496.938 33.9874C499.167 34.4951 499.9 35.8489 499.082 37.9925C498.82 38.6636 498.449 39.2888 498.078 39.9125L498.077 39.914C497.988 40.0631 497.9 40.2122 497.813 40.3618C496.643 42.3118 495.464 44.257 494.286 46.2022L494.286 46.2025C489.457 54.1742 484.63 62.1443 480.367 70.4425C480.094 70.9696 479.758 71.459 479.376 72.0156L479.373 72.02C479.184 72.296 478.983 72.5886 478.773 72.9105C485.247 77.3246 491.805 81.372 499.435 83.3887C499.689 83.4545 499.944 83.5156 500.199 83.5767C500.71 83.6989 501.221 83.8211 501.719 83.981C502.368 84.1784 503.088 84.4464 502.932 85.2925C502.791 86.1105 501.987 86.2515 501.339 86.2374C497.813 86.1951 494.386 85.631 491.184 84.0656C487.334 82.1899 483.484 80.3143 479.647 78.4387C479.384 78.3101 479.126 78.1709 478.868 78.0314C478.531 77.8497 478.193 77.6675 477.842 77.5079C476.883 77.0566 475.797 76.7323 475.318 78.0015C474.937 79.0028 474.739 80.0887 476.192 80.7938C477.655 81.5123 479.093 82.2835 480.532 83.0552L480.534 83.0562C482.964 84.359 485.395 85.6631 487.954 86.7169C490.232 87.6496 492.503 88.6179 494.929 89.6525L494.931 89.6532C496.246 90.214 497.607 90.7942 499.04 91.3989C496.765 92.4009 494.984 92.1158 493.273 91.8418L493.06 91.8079C486.77 90.8207 480.874 88.5925 475.177 85.8284C474.699 85.5964 474.302 85.3894 473.968 85.2149C473.122 84.7734 472.674 84.5396 472.314 84.6354C471.909 84.7431 471.614 85.2677 470.989 86.3826C470.84 86.6479 470.672 86.9466 470.48 87.281C470.423 87.3799 470.361 87.478 470.299 87.5777L470.298 87.5782C470.004 88.0469 469.686 88.552 469.733 89.354C471.333 89.9982 473.063 90.1754 474.788 90.3523C475.481 90.4232 476.172 90.4941 476.855 90.5951C505.274 94.8258 528.333 108.378 546.428 130.491C549.688 134.479 552.798 138.587 555.907 142.693C557.559 144.875 559.21 147.057 560.884 149.219C564.269 153.591 567.936 157.709 571.73 161.728C579.134 169.555 587.991 175.069 598.033 178.807C598.261 178.891 598.49 178.974 598.72 179.055C598.914 179.124 599.109 179.192 599.305 179.26C601.004 179.852 602.757 180.464 604.492 181.669C602.823 182.891 601.069 182.926 599.377 182.959C599.253 182.962 599.129 182.964 599.006 182.967C590.953 183.207 583.379 181.331 576.215 177.678C568.965 173.983 562.097 169.682 555.652 164.718C548.952 159.557 542.239 154.409 535.526 149.276C529.348 144.537 522.903 140.194 516.105 136.4C508.729 132.282 500.775 129.73 492.594 127.798C491.706 127.036 490.747 126.951 489.52 127.403C490.394 128.15 491.114 128.63 492.059 128.616C501.621 133.072 510.097 139.15 518.066 146.018C537.317 162.603 558.754 175.676 582.096 185.66C585.932 187.296 589.81 188.777 593.76 190.089C593.953 190.154 594.15 190.213 594.349 190.272C595.226 190.534 596.164 190.813 597.187 191.767C595.339 192.331 593.788 192.401 592.194 192.275C585.65 191.725 579.36 190.004 573.168 187.903C570.517 186.351 567.71 185.209 564.65 184.617C566.878 186.323 570.009 187.719 573.168 187.903C580.474 193.318 587.512 197.436 595.847 200.553C595.698 201.719 595.025 201.608 594.471 201.517C594.396 201.504 594.322 201.492 594.253 201.483C592.575 201.314 590.882 201.131 589.246 200.764C575.171 197.591 561.716 192.825 549.361 185.237C545.046 182.586 540.786 179.85 536.541 177.114C535.512 176.451 534.496 175.831 533.34 175.45C532.282 173.749 530.615 172.9 528.942 172.049C528.563 171.856 528.184 171.662 527.811 171.459C529.87 174.068 532.07 176.508 534.891 178.299C537.331 180.522 539.866 182.635 542.402 184.749L542.404 184.75C543.503 185.666 544.603 186.583 545.695 187.508C555.031 195.433 565.877 200.087 577.738 202.668C579.839 203.119 581.955 203.43 584.113 203.345C585.015 203.317 585.918 203.345 586.806 203.43C587.385 203.486 587.892 203.74 588.09 204.36C588.33 205.164 587.878 205.63 587.286 206.025C585.847 206.983 584.282 207.477 582.575 207.745C575.439 208.831 568.401 207.957 561.392 206.73C556.836 205.94 552.365 204.798 547.993 203.275C539.517 200.313 532.437 195.222 526.105 188.975C521.119 184.053 516.67 178.652 512.223 173.254C511.975 172.953 511.726 172.651 511.478 172.349C511.229 172.048 510.981 171.746 510.732 171.445C504.681 164.126 498.18 157.286 490.549 151.56C477.602 141.844 462.949 136.612 446.969 134.694C444.572 134.412 443.119 134.891 441.864 137.204C438.958 142.51 435.918 147.743 432.878 152.976L432.871 152.987C431.502 155.344 430.133 157.701 428.776 160.064C428.735 160.135 428.692 160.204 428.646 160.274C428.623 160.311 428.598 160.349 428.574 160.386C428.275 160.842 427.954 161.333 428.057 162.166C428.857 162.239 429.664 162.308 430.477 162.378L430.477 162.378C432.156 162.521 433.854 162.667 435.546 162.857C448.45 164.337 460.255 168.723 470.706 176.508C471.945 177.433 473.184 178.36 474.423 179.286L474.424 179.287C486.813 188.552 499.194 197.81 512.297 206.067C516.585 208.774 520.929 211.383 525.357 213.837C537.021 220.282 545.906 229.421 552.055 241.239C553.057 243.157 554.594 244.665 556.23 246.019C564.015 252.507 571.518 259.304 578.302 266.849C580.53 269.331 580.403 270.516 577.329 271.968C574.988 273.082 573.521 274.662 572.237 276.862C567.583 284.928 553.889 290.273 543.494 282.658C542.712 282.082 541.912 281.536 541.107 280.985L541.105 280.984C540.648 280.671 540.188 280.356 539.729 280.035C539.348 280.723 539.534 281.197 539.71 281.643C539.721 281.671 539.731 281.698 539.742 281.726C539.757 281.764 539.771 281.802 539.785 281.84C543.043 291.274 544.594 301.033 545.553 310.919C547.528 331.142 546.089 351.168 542.606 371.137C537.172 402.174 531.808 433.231 526.446 464.285L526.433 464.358C524.214 477.206 521.995 490.053 519.772 502.897L518.74 508.847L518.718 508.972C516.432 522.147 514.148 535.314 511.874 548.491C511.819 548.835 511.798 549.197 511.778 549.548V549.549C511.773 549.644 511.767 549.738 511.761 549.831H509.053C509.159 548.781 509.251 547.728 509.343 546.675L509.344 546.674C509.546 544.361 509.748 542.048 510.097 539.761L510.484 537.17L510.484 537.167C512.216 525.563 513.949 513.951 515.865 502.376C516.436 498.947 517.003 495.517 517.57 492.087C520.383 475.077 523.197 458.063 526.401 441.128C529.419 425.15 531.267 409.101 532.014 392.883C532.346 385.612 532.455 378.335 532.564 371.055V371.054C532.616 367.519 532.669 363.983 532.747 360.448C532.809 357.705 532.88 354.963 532.951 352.222C533.308 338.524 533.664 324.832 532.747 311.131C532.536 308.071 532 305.123 531.027 302.218C527.501 291.585 522.494 281.642 517.022 271.898L516.89 271.662C515.509 269.201 514.12 266.723 512.015 264.127C512.217 264.633 512.397 265.093 512.565 265.52L512.565 265.522L512.566 265.523C512.925 266.438 513.226 267.204 513.552 267.963C517.84 277.948 520.604 288.383 522.635 299.017C527.134 322.667 526.514 346.556 525.653 370.432C525.502 374.701 525.181 378.962 524.86 383.223L524.86 383.224C524.343 390.082 523.826 396.938 524.017 403.827C524.102 406.859 523.989 409.919 523.749 412.951C522.551 428.224 520.717 443.413 518.7 458.601C515.146 485.495 511.465 512.374 507.135 539.169C506.972 540.196 506.763 541.218 506.554 542.239C506.043 544.737 505.532 547.234 505.683 549.817H502.975C503.293 547.764 503.617 545.712 503.942 543.66L503.943 543.657C504.655 539.157 505.368 534.657 506.007 530.144C508.207 514.546 510.365 498.949 512.481 483.351C514.229 470.419 515.922 457.487 517.586 444.541C518.149 440.148 518.663 435.755 519.178 431.361C519.398 429.479 519.618 427.597 519.843 425.714C519.137 427.646 518.743 429.621 518.348 431.595C513.214 456.5 506.966 481.137 500.351 505.676C499.787 507.749 499.533 509.85 499.435 511.994C499.295 515.119 499.072 518.245 498.848 521.37V521.371L498.846 521.398C498.753 522.691 498.661 523.985 498.574 525.278L497.982 525.306C497.862 524.383 497.739 523.462 497.615 522.542C497.492 521.622 497.369 520.702 497.249 519.778H496.572C495.168 524.738 493.767 529.701 492.366 534.664L492.327 534.805C490.913 539.814 489.499 544.824 488.081 549.831H484.02C483.888 549.051 484.092 548.312 484.295 547.58C484.311 547.523 484.327 547.466 484.342 547.408C484.362 547.337 484.381 547.265 484.4 547.194C485.906 541.588 487.406 535.982 488.904 530.377L488.908 530.362L488.918 530.328C491.049 522.357 493.18 514.387 495.331 506.423C496.078 503.673 496.417 500.937 496.388 498.088C496.05 467.556 496.544 437.038 498.053 406.535C498.829 390.687 499.85 374.849 500.871 359.013C501.074 355.853 501.278 352.692 501.48 349.532C502.213 337.954 502.932 326.376 503.384 314.783C504.033 298.298 502.312 281.953 500.14 265.622C498.927 256.526 495.838 248.219 491.382 240.266C483.498 226.191 473.682 213.71 461.849 202.725C455.446 196.773 448.464 191.71 440.891 187.395C438.973 186.295 437.026 185.195 434.742 184.828C435.588 185.675 436.547 186.323 437.506 186.972C443.599 191.118 449.141 195.857 453.979 201.427C468.407 218.082 478.872 237.008 486.079 257.753C493.116 278.032 495.796 299.13 497.404 320.382C498.264 331.833 498.264 343.341 498.067 354.835C497.968 360.574 497.771 366.328 497.277 372.04C496.847 376.974 496.325 381.897 495.804 386.82L495.803 386.826C495.281 391.752 494.759 396.677 494.329 401.613C493.693 408.911 493.128 416.216 492.562 423.519L492.562 423.527C492.024 430.475 491.486 437.422 490.888 444.358C489.774 457.149 488.505 469.912 487.207 482.688C485.5 499.597 483.737 516.506 481.918 533.401C481.763 534.835 481.624 536.27 481.484 537.705L481.484 537.706C481.091 541.759 480.697 545.807 479.958 549.817H477.927C477.945 548.996 477.974 548.173 478.002 547.35C478.058 545.699 478.115 544.046 478.096 542.399C478.076 540.658 478.054 538.916 478.032 537.175V537.174C477.83 520.92 477.628 504.666 478.392 488.4C478.804 479.625 478.364 470.85 477.925 462.076C477.807 459.723 477.69 457.371 477.588 455.019C477.222 456.204 476.869 457.374 476.728 458.587C476.162 463.214 475.607 467.842 475.052 472.471L475.047 472.514C473.181 488.073 471.315 503.633 469.056 519.144C468.038 526.176 466.948 533.195 465.858 540.215C465.361 543.415 464.863 546.615 464.373 549.817H461.665C461.694 549.493 461.72 549.168 461.747 548.842C461.811 548.048 461.876 547.25 461.976 546.46C462.621 541.659 463.274 536.859 463.927 532.059C465.216 522.593 466.504 513.129 467.73 503.659C468.166 500.309 468.539 496.945 468.911 493.582C469.392 489.23 469.874 484.879 470.494 480.559C470.696 479.137 470.896 477.715 471.097 476.292L471.097 476.291C472.73 464.691 474.366 453.076 476.841 441.608C477.349 439.267 477.095 436.954 476.319 433.964C476.173 434.625 476.069 435.08 475.986 435.442C475.917 435.745 475.863 435.983 475.811 436.221C473.089 448.814 469.14 460.985 462.78 472.267C461.68 474.213 460.584 476.161 459.488 478.11C455.73 484.789 451.97 491.473 448.084 498.088C446.448 500.881 445.996 503.631 446.377 506.776C447.294 514.208 447.012 521.597 444.953 528.86C444.53 530.351 444.081 531.835 443.632 533.32L443.631 533.321C441.998 538.72 440.364 544.121 439.988 549.817H437.957C437.52 544.373 438.112 539.085 439.777 533.824C441.229 529.213 442.047 524.404 442.202 519.538C442.246 518.169 442.304 516.797 442.363 515.426C442.707 507.382 443.052 499.336 440.256 491.517C440.143 491.206 440.087 490.854 440.059 490.529C440.055 490.471 440.052 490.412 440.048 490.353C440.003 489.611 439.955 488.822 440.778 488.456C441.765 488.019 442.232 488.688 442.698 489.356C442.758 489.443 442.818 489.529 442.879 489.613C443.244 490.098 443.461 490.671 443.681 491.252L443.681 491.252C443.997 492.087 444.32 492.937 445.094 493.562C447.315 487.974 449.862 482.665 452.395 477.386L452.395 477.385L452.405 477.365C452.988 476.149 453.571 474.935 454.148 473.719C461.031 459.236 466.87 444.456 469.634 428.521C470.5 423.51 470.945 418.484 471.399 413.353C471.707 409.878 472.019 406.354 472.469 402.755C470.037 404.855 468.539 407.223 467.084 409.522L467.083 409.524C466.741 410.065 466.401 410.603 466.052 411.132L465.705 411.659C461.834 417.537 461.798 417.592 459.564 418.606C460.058 415.433 461.256 412.683 462.765 410.032C467.448 401.796 472.737 393.955 478.082 386.142C480 383.35 481.678 380.431 483.145 377.385C485.049 373.436 484.88 369.6 482.962 365.708C480.917 361.562 478.547 357.599 476.009 353.749L475.6 353.131C472.715 348.769 469.823 344.396 468.153 339.265C467.115 339.823 466.703 340.719 466.308 341.58L466.307 341.581C466.193 341.83 466.08 342.077 465.953 342.312C460.636 352.028 456.771 362.351 453.528 372.914C452.865 375.058 452.131 377.187 451.299 379.289C451.261 379.385 451.227 379.493 451.192 379.605C451.006 380.199 450.78 380.917 449.677 380.727C449.452 378.95 449.438 377.187 449.804 375.424C452.54 362.013 456.644 349.067 463.174 336.981C465.417 332.821 467.617 328.632 469.747 324.401C474.528 314.91 470.945 301.64 462.046 295.491C457.505 292.36 452.836 289.399 448.013 286.719C444.854 284.971 441.85 282.968 439.311 280.359C437.28 278.272 436.025 275.818 435.546 272.955C435.376 271.94 435.334 270.953 435.687 269.965C435.926 269.303 436.237 268.654 436.984 268.555C437.915 268.442 438.38 269.063 438.691 269.867C438.718 269.94 438.746 270.013 438.772 270.086C438.836 270.261 438.897 270.437 438.959 270.615C439.384 271.838 439.823 273.101 441.145 274.083C441.596 270.558 443.542 267.977 445.503 265.424C446.65 263.939 447.784 262.443 448.919 260.946L448.92 260.945C451.189 257.952 453.457 254.96 455.826 252.055C458.097 249.277 459.084 246.231 458.986 242.705C458.816 236.458 456.306 231.169 452.399 226.445C451.468 225.317 450.326 224.33 448.958 223.766C444.769 222.017 440.482 220.832 435.842 221.34C423.572 222.666 412.119 226.501 401.26 232.255C400.061 232.89 398.918 233.637 398.185 234.836C397.085 236.641 395.393 237.755 393.559 238.672C391.746 239.571 389.924 240.455 388.103 241.34C385.064 242.816 382.025 244.293 379.018 245.836C365.973 252.535 354.817 261.885 343.788 271.39C337.187 277.087 331.179 283.349 326.017 290.358C322.026 295.759 317.329 300.413 312.28 304.757C304.185 311.709 291.407 311.568 283.368 304.517C282.423 303.685 281.647 302.754 281.224 301.541C280.942 300.695 281.027 299.962 281.704 299.398C282.282 298.904 282.959 298.989 283.593 299.355C283.861 299.511 284.123 299.68 284.386 299.849C284.885 300.17 285.385 300.492 285.921 300.723C286.266 300.87 286.607 301.043 286.951 301.219L286.951 301.219C288.065 301.788 289.215 302.375 290.702 302.105C289.992 300.842 289.497 299.537 289.01 298.251C288.404 296.651 287.808 295.081 286.823 293.658C284.129 289.766 280.519 286.931 276.767 284.223C273.439 281.812 269.631 281.008 265.569 281.219C257.713 281.628 250.605 284.266 244.033 288.426C238.603 291.867 235.119 296.605 234.555 303.191C234.442 304.418 234.358 305.659 234.301 306.9C233.977 314.713 234.795 322.427 236.177 330.099C236.596 332.421 236.985 334.748 237.373 337.075L237.374 337.08C238.636 344.631 239.897 352.18 242.171 359.531C248.32 379.387 256.74 398.285 266.627 416.533C268.404 419.805 270.576 422.823 272.875 425.756C272.969 425.872 273.053 426.012 273.139 426.155C273.441 426.659 273.77 427.206 274.638 426.899C274.638 425.74 274.637 424.583 274.636 423.425C274.636 422.666 274.635 421.906 274.635 421.147V421.145C274.631 417.315 274.628 413.486 274.638 409.651C274.638 408.297 274.765 406.944 274.906 405.604C274.962 405.026 275.315 404.518 275.907 404.377C276.64 404.194 277.261 404.49 277.614 405.138C277.882 405.618 278.093 406.154 278.234 406.676C278.855 408.847 279.25 411.047 279.546 413.29C279.661 414.172 279.754 415.059 279.846 415.945V415.945C280.128 418.64 280.41 421.334 281.323 423.923C284.806 433.897 286.993 444.203 289.177 454.497C289.328 455.207 289.479 455.917 289.63 456.627C292.352 469.39 292.479 482.378 292.027 495.324C291.421 512.896 289.771 530.383 286.753 547.729C286.734 547.834 286.703 547.941 286.668 548.049C286.647 548.116 286.623 548.183 286.6 548.251C286.406 548.806 286.208 549.374 286.936 549.845H280.843C280.9 549.436 280.955 549.028 281.01 548.62C281.063 548.228 281.116 547.837 281.168 547.446C281.39 545.793 281.612 544.142 281.859 542.497C283.89 528.804 285.61 515.082 286.739 501.29C287.077 497.2 287.063 493.096 286.668 488.964C286.231 489.754 285.935 490.572 285.723 491.404C284.947 494.563 284.161 497.72 283.375 500.878L283.364 500.923L283.363 500.926C281.408 508.774 279.453 516.624 277.656 524.517C275.766 532.851 273.975 541.228 274.074 549.845H272.72C272.523 537.811 273.054 525.796 273.586 513.761V513.761C273.704 511.086 273.822 508.41 273.933 505.732C273.411 506.832 273.002 507.974 272.762 509.131C272.629 509.77 272.495 510.409 272.362 511.048C272.238 511.639 272.114 512.23 271.991 512.821L271.991 512.822C270.776 518.626 269.563 524.424 268.446 530.242C267.191 536.744 265.95 543.245 265.273 549.845H261.888C262.16 548.106 262.423 546.365 262.687 544.624C263.301 540.578 263.914 536.532 264.624 532.499C267.755 514.631 271.605 496.946 277.543 479.769C278.648 476.562 279.805 473.371 280.961 470.181L280.961 470.179C281.914 467.549 282.867 464.92 283.791 462.282C284.849 459.264 284.383 455.442 282.522 452.058C282.074 453.25 281.671 454.437 281.272 455.609L281.271 455.612C280.388 458.21 279.53 460.735 278.276 463.086C277.032 465.405 276.266 467.894 275.5 470.385C274.999 472.015 274.498 473.645 273.862 475.228C267.713 490.473 261.606 505.718 255.598 521.019C251.86 530.553 248.137 540.086 244.964 549.831H242.933C242.707 548.734 243.112 547.777 243.511 546.835C243.636 546.54 243.76 546.248 243.864 545.953C253.708 517.677 265.132 490.008 276.781 462.437L277.021 461.869C278.423 458.547 279.827 455.22 281.041 451.818C281.534 450.436 281.21 449.562 279.941 449.181C278.988 448.896 278.877 449.581 278.776 450.205C278.747 450.384 278.719 450.559 278.671 450.704C275.634 459.484 272.004 468.017 268.371 476.557L268.003 477.422L267.628 478.303C265.81 482.568 263.98 486.829 262.149 491.09C253.801 510.525 245.452 529.962 238.222 549.845H234.837C234.626 548.682 235.064 547.67 235.499 546.666C235.644 546.33 235.789 545.996 235.909 545.656C245.105 519.736 256.19 494.619 267.727 469.686C269.523 465.798 271.237 461.869 272.951 457.938L272.955 457.929L272.956 457.928C274.256 454.946 275.557 451.964 276.894 448.997C277.473 447.714 277.628 446.84 276.443 445.768C269.377 439.422 264.427 431.482 259.914 423.274C254.723 413.812 249.533 404.335 245.429 394.322C244.609 394.676 244.451 395.292 244.297 395.889C244.256 396.051 244.214 396.213 244.16 396.367C232.341 430.862 220.127 465.215 207.364 499.372C206.306 502.206 205.248 505.013 203.668 507.65C199.254 515.04 192.414 517.747 184.304 517.762C179.1 517.762 174.065 516.478 169.199 514.476C162.006 511.528 154.828 508.567 147.804 505.253L147.641 505.176C146.678 504.721 145.697 504.259 144.842 503.645C142.388 501.882 142.544 500.288 145.223 498.878C145.399 498.785 145.599 498.741 145.799 498.697L145.8 498.697C146.144 498.621 146.492 498.545 146.732 498.215C146.605 498.016 146.482 497.828 146.365 497.651C145.24 495.946 144.801 495.279 148.763 494.845C148.835 494.282 148.52 493.905 148.207 493.53C148.089 493.388 147.971 493.247 147.875 493.096C146.323 490.628 146.422 490.417 149.581 489.965C149.562 489.31 149.13 488.837 148.706 488.371C148.217 487.836 147.737 487.309 147.903 486.524C148.143 485.357 149.045 485.176 149.944 484.995C150.261 484.932 150.578 484.868 150.865 484.762C150.075 482.665 150.474 481.241 152.063 480.488C151.984 480.162 151.712 479.84 151.44 479.517C150.795 478.751 150.149 477.984 152.063 477.16C152.412 477.007 152.254 476.674 152.104 476.358C152.047 476.239 151.992 476.122 151.965 476.018C151.736 475.192 152.091 474.496 152.453 473.785C152.827 473.052 153.21 472.302 152.966 471.378C152.868 471.011 153.434 471.019 154.004 471.027C154.333 471.032 154.664 471.036 154.87 470.969C155.267 470.347 154.748 469.825 154.243 469.317C153.547 468.616 152.879 467.944 154.687 467.077C154.391 465.187 154.757 463.876 157.127 464.637C157.077 463.81 156.718 463.313 156.386 462.853C156.243 462.654 156.105 462.462 155.998 462.254C155.209 460.689 155.321 460.421 157.225 459.814C157.319 459.784 157.412 459.761 157.5 459.738C157.953 459.621 158.278 459.538 157.959 458.841C157.895 458.7 157.848 458.553 157.802 458.407L157.802 458.407C157.746 458.232 157.691 458.058 157.606 457.896C157.151 457.078 157.762 456.787 158.348 456.508C158.924 456.234 159.477 455.971 158.974 455.231C158.043 453.863 158.072 453.059 159.708 452.424C160.234 452.224 159.998 451.915 159.786 451.636C159.714 451.541 159.645 451.449 159.609 451.367C159.313 450.718 158.988 449.844 159.679 449.547C161.329 448.828 161.781 448.038 160.653 446.459C160.201 445.824 160.737 444.978 161.442 444.908C163.375 444.724 163.191 443.61 162.824 442.313C162.5 441.156 162.401 440.056 163.784 439.478C164.235 439.295 164.418 439.027 164.376 438.477C164.194 436.416 164.22 436.404 165.841 435.656L165.871 435.642C165.941 434.931 165.498 434.618 165.054 434.304C164.873 434.177 164.692 434.049 164.545 433.894C162.768 432.018 163.036 430.918 165.476 430.001C165.588 429.961 165.712 429.944 165.837 429.926C166.151 429.882 166.475 429.837 166.647 429.423C166.734 428.88 166.413 428.527 166.09 428.171C165.893 427.955 165.695 427.738 165.589 427.477C165.349 426.899 165.264 426.179 165.8 425.968C167.577 425.263 167.62 424.276 166.745 422.767C166.238 421.878 166.858 421.06 167.591 420.426C167.858 420.192 168.184 420.049 168.508 419.906C169.006 419.687 169.498 419.469 169.763 418.931C169.8 418.39 169.537 417.978 169.273 417.564C169.234 417.503 169.195 417.441 169.157 417.38C169.108 417.297 169.057 417.215 169.006 417.132C168.821 416.832 168.633 416.526 168.522 416.195C168.424 415.899 168.409 415.278 168.522 415.25C170.046 414.721 169.834 413.572 169.624 412.433C169.426 411.358 169.23 410.291 170.497 409.764C171.775 409.235 171.434 408.58 171.084 407.908C170.874 407.505 170.661 407.095 170.793 406.704C170.937 406.267 171.388 406.091 171.834 405.916C172.527 405.644 173.209 405.378 172.711 404.151C172.203 402.896 172.528 401.712 173.853 400.978C174.488 400.626 174.968 400.104 174.629 399.342C173.995 397.904 173.684 396.55 175.193 395.436C175.518 395.196 175.461 394.815 175.348 394.505C174.389 391.642 175.264 389.541 177.915 388.131C178.395 387.877 178.494 387.482 178.324 387.017C178.211 386.706 178.042 386.41 177.859 386.128C176.383 383.985 176.811 382.391 179.142 381.348C178.197 378.767 178.649 377.074 181.357 374.917C181.42 374.867 181.482 374.819 181.541 374.773C182.271 374.211 182.648 373.92 182.048 372.942C181.725 372.417 181.842 371.833 181.961 371.238C182.108 370.507 182.257 369.761 181.596 369.092C181.328 368.824 181.596 368.119 181.977 367.894C183.955 366.729 184.015 364.836 184.072 363.036C184.088 362.526 184.104 362.024 184.163 361.547C184.302 360.386 185.002 359.703 185.639 359.082L185.639 359.081C186.1 358.632 186.528 358.214 186.688 357.669C186.808 357.257 186.646 356.781 186.477 356.283C186.17 355.383 185.84 354.412 187.111 353.622C187.576 353.326 187.76 352.987 187.449 352.564C186.012 350.574 187.314 350.104 188.615 349.633C188.808 349.564 189 349.494 189.184 349.419L189.165 349.378C187.943 346.768 187.926 346.732 190.101 345.315C190.679 344.935 190.764 344.737 190.538 344.032C189.833 341.932 189.889 341.903 192.199 340.705L192.202 340.704C192.256 340.081 191.906 339.649 191.554 339.215C191.357 338.971 191.159 338.727 191.032 338.448C190.552 337.404 190.453 336.431 191.807 336.036C192.795 335.754 193.161 335.5 192.414 334.485C191.455 333.159 191.991 332.2 193.472 331.636C194.875 331.097 194.343 330.727 193.809 330.356L193.809 330.356C193.603 330.212 193.397 330.069 193.302 329.915C192.87 329.274 193.135 328.713 193.402 328.152C193.621 327.688 193.841 327.224 193.669 326.714C193.57 326.094 193.697 325.53 194.134 325.064C195.158 324.658 196.176 324.771 197.21 324.886C198.043 324.978 198.885 325.071 199.748 324.895L197.717 324.091C197.59 324.011 197.461 323.933 197.333 323.855C197.076 323.698 196.819 323.541 196.574 323.372C195.728 322.808 195.305 322.032 195.714 321.059C196.123 320.114 197.012 319.86 197.971 319.973C200.326 320.255 202.667 320.551 205.008 320.862C205.047 320.867 205.086 320.872 205.125 320.877C205.536 320.932 205.945 320.986 206.461 320.664C205.864 319.878 205.025 319.526 204.194 319.178C203.728 318.983 203.266 318.789 202.85 318.521C202.614 318.37 202.375 318.226 202.135 318.083C201.702 317.824 201.27 317.565 200.862 317.265C200.368 316.913 200.199 316.349 200.382 315.771C200.58 315.15 201.13 314.896 201.694 314.91C202.875 314.942 204.064 315.022 205.248 315.102L205.249 315.102C205.635 315.128 206.02 315.154 206.405 315.178C208.591 315.883 210.791 316.053 213.061 315.601C212.774 315.479 212.499 315.331 212.227 315.184L212.226 315.184C211.521 314.804 210.831 314.432 209.987 314.544C209.496 314.36 209.005 314.177 208.515 313.994L208.514 313.993C206.368 313.192 204.224 312.392 202.089 311.554L202.015 311.525C201.21 311.207 200.251 310.828 200.552 309.692C200.834 308.649 201.821 308.508 202.752 308.55C204.54 308.657 206.337 308.789 208.129 308.92L208.151 308.921C208.712 308.962 209.272 309.003 209.832 309.044C211.214 309.523 212.596 309.862 214.782 309.41C213.913 309.353 213.307 309.08 212.781 308.842C212.273 308.613 211.839 308.417 211.313 308.48L211.284 308.592ZM360.264 173.592C360.282 173.125 360.301 172.67 360.145 172.28L360.179 172.338C360.831 173.431 361.495 174.547 361.572 176.155C360.186 175.532 360.226 174.536 360.264 173.592ZM393.153 183.335C393.071 183.29 392.989 183.245 392.906 183.2C391.639 182.513 390.375 181.828 390.4 179.822C388.623 182.107 388.609 182.135 390.217 182.981C390.789 183.283 391.393 183.523 391.999 183.765C392.213 183.85 392.428 183.936 392.642 184.025C394.072 185.092 395.733 185.579 397.391 186.066C398.187 186.3 398.982 186.534 399.751 186.831C402.67 187.973 403.107 187.578 402.825 184.504C402.795 184.216 402.716 183.927 402.628 183.604L402.628 183.603C402.591 183.469 402.552 183.328 402.515 183.178C400.935 185.957 400.851 185.985 397.818 184.941C396.72 184.561 395.622 184.197 394.518 183.831L394.516 183.83C394.146 183.707 393.776 183.584 393.404 183.46V183.475C393.321 183.427 393.237 183.381 393.153 183.335ZM395.83 192.712C398.072 192.528 400.061 191.922 401.499 189.666C398.072 188.269 394.786 187.099 391.387 186.21C391.054 186.175 390.734 186.041 390.414 185.906C389.839 185.665 389.266 185.424 388.623 185.759C388.186 190.089 389.737 192.148 393.827 192.768C394.28 192.837 394.753 192.796 395.222 192.755C395.426 192.738 395.629 192.72 395.83 192.712ZM227.377 259.812C228.524 260.318 229.724 260.447 231.027 260.587C232.047 260.697 233.131 260.814 234.301 261.123C232.722 259.826 231.495 259.459 230.183 259.304C229.393 259.069 228.602 258.84 227.81 258.611L227.809 258.611C226.227 258.153 224.645 257.696 223.075 257.189C221.368 256.653 220.339 257.245 219.591 258.966C220.713 259.088 221.806 259.206 222.881 259.322C224.402 259.486 225.889 259.646 227.377 259.812ZM406.196 57.6797L406.18 57.7172C405.833 58.5513 405.479 59.4003 405.618 60.3451C405.035 63.1172 404.454 65.8893 403.873 68.661L403.869 68.6791L403.86 68.7238C402.574 74.8567 401.289 80.9875 399.99 87.1117C399.489 89.4749 398.988 91.8383 398.487 94.2018L398.404 94.595C394.731 111.917 391.057 129.246 387.297 146.554C386.507 150.178 385.887 153.789 385.45 157.498C383.701 172.376 381.881 187.24 379.315 202.005C378.793 205.037 378.779 207.999 379.738 210.989C381.797 217.419 383.701 223.892 384.688 230.619L384.736 230.942C384.973 232.558 385.227 234.285 386.112 235.753C388.275 235.076 389.069 233.741 388.496 231.748C388.454 231.605 388.419 231.46 388.384 231.316L388.383 231.316C388.311 231.019 388.238 230.725 388.115 230.45C387.283 228.645 388.045 227.658 389.61 226.642L390.386 226.135C394.936 223.159 399.483 220.184 404.207 217.462C404.305 217.405 404.403 217.35 404.501 217.296C405.278 216.863 406.011 216.455 405.998 215.29C405.968 212.907 405.974 210.531 405.98 208.209V208.201C405.982 207.283 405.984 206.373 405.984 205.475C405.542 205.172 405.282 205.33 405.046 205.474C404.996 205.505 404.948 205.534 404.898 205.559C403.102 206.455 401.307 207.352 399.513 208.249L399.452 208.279C395.222 210.394 390.995 212.507 386.761 214.599C386.605 214.675 386.443 214.789 386.275 214.905C385.701 215.305 385.079 215.739 384.533 214.81C383.969 213.851 384.124 212.864 385.393 212.357C385.804 212.187 386.197 211.963 386.589 211.738C386.884 211.57 387.178 211.402 387.48 211.257C391.184 209.492 394.733 207.443 398.281 205.394L398.281 205.394C400.489 204.119 402.696 202.845 404.941 201.639C405.003 201.605 405.067 201.571 405.131 201.537C406.044 201.049 407.01 200.534 406.14 199.058C400.976 201.323 395.976 203.873 390.917 206.454L390.916 206.454C388.417 207.729 385.903 209.011 383.348 210.269C383.211 209.515 383.049 208.816 382.896 208.154L382.896 208.153C382.59 206.834 382.319 205.661 382.347 204.487L382.361 203.871V203.87C382.467 199.238 382.574 194.596 383.56 190.032C384.251 186.845 384.871 183.644 385.252 180.386C385.593 177.431 385.996 174.485 386.398 171.541L386.399 171.534C386.713 169.239 387.027 166.945 387.311 164.648C387.565 162.56 388.298 160.939 390.076 159.557C391.307 158.594 392.521 157.606 393.736 156.618L393.738 156.617L393.738 156.616C395.583 155.116 397.429 153.615 399.342 152.195C401.889 150.306 404.372 148.307 406.846 146.315C407.092 146.117 407.338 145.919 407.583 145.722L407.846 145.51C407.937 145.436 408.035 145.363 408.135 145.29C408.181 145.256 408.227 145.223 408.273 145.189C408.881 144.748 409.533 144.276 409.51 143.494C409.476 142.451 409.614 141.417 409.755 140.362L409.755 140.361C409.961 138.819 410.173 137.23 409.863 135.498C402.811 139.291 396.366 143.663 389.977 148.303C390.08 147.229 390.302 146.225 390.518 145.243C390.717 144.342 390.912 143.461 391.006 142.563C391.26 140.18 392.53 138.769 394.434 137.528C398.248 135.034 402.009 132.451 405.766 129.871C406.746 129.198 407.726 128.525 408.706 127.854C408.858 127.752 409.019 127.656 409.18 127.559C409.888 127.134 410.612 126.701 410.681 125.725C410.763 124.541 410.81 123.358 410.864 121.999L410.864 121.998C410.893 121.269 410.924 120.489 410.963 119.632C407.229 122.209 403.736 124.622 400.342 126.967C398.108 128.51 395.917 130.023 393.728 131.535C393.377 130.97 393.461 130.573 393.544 130.184C393.554 130.136 393.564 130.088 393.573 130.04C395.562 119.646 397.55 109.253 399.497 98.8451C399.747 97.5108 399.997 96.1768 400.247 94.843L400.252 94.8199C401.807 86.5325 403.361 78.2511 404.842 69.9489C405.265 67.6079 406.027 65.7746 408.326 64.6182C409.571 64 410.72 63.1946 411.872 62.3878C412.48 61.9614 413.089 61.5346 413.713 61.1348C414.729 60.472 415.279 59.7387 414.573 58.4271C412.941 59.4525 411.352 60.4492 409.786 61.4311L409.768 61.4419C408.648 62.1445 407.539 62.8396 406.436 63.5323C406.612 62.5451 406.788 61.5614 406.965 60.5778C407.141 59.5941 407.317 58.6105 407.493 57.6233C408.121 57.1873 408.742 56.7405 409.364 56.2938C410.751 55.2955 412.139 54.2976 413.6 53.4207C415.42 52.3348 415.913 50.9528 415.363 48.7951L408.453 53.1105C408.121 51.6752 408.871 51.1718 409.59 50.6884L409.637 50.6566C410.006 50.4009 410.371 50.1382 410.737 49.8751C411.744 49.1516 412.754 48.4256 413.84 47.8361C415.815 46.7502 416.379 45.1989 415.913 43.013C414.74 43.4921 413.738 44.2017 412.746 44.9038C411.986 45.4418 411.233 45.9755 410.413 46.3977C409.508 46.8645 409.543 46.3923 409.577 45.9201C409.593 45.7076 409.609 45.4951 409.539 45.3682C409.603 45.2516 409.677 45.1364 409.751 45.0213L409.752 45.0207C409.919 44.7599 410.086 44.4997 410.145 44.2259C412.232 34.5797 414.305 24.9195 416.365 15.2592C417.211 11.2823 418.043 7.29126 418.903 3.14511C417.497 3.77303 417.208 4.81474 416.913 5.88184C416.877 6.01304 416.84 6.14462 416.802 6.27587C416.194 8.34862 415.831 10.4808 415.468 12.6133C414.913 15.8781 414.357 19.1437 412.923 22.1977C413.185 24.9562 412.498 27.5854 411.817 30.193L411.816 30.1952C411.543 31.2395 411.271 32.2803 411.062 33.3246C410.6 35.6155 410.208 37.9204 409.817 40.2232C409.527 41.9321 409.236 43.6399 408.918 45.34L406.238 57.6656L406.196 57.6797ZM462.582 287.862C462.695 288.271 462.935 288.948 463.217 288.821C463.896 288.5 463.62 287.924 463.374 287.408C463.349 287.357 463.325 287.305 463.301 287.255C461.172 274.323 459.042 266.214 456.912 263.154C456.517 263.597 456.123 264.041 455.73 264.484L455.722 264.493C454.703 265.642 453.689 266.785 452.653 267.892C451.765 268.851 451.609 269.698 452.413 270.854C455.668 275.529 458.452 280.496 461.233 285.459C461.682 286.261 462.131 287.062 462.582 287.862ZM524.58 132.046C524.89 132.565 525.361 132.821 525.992 132.917C525.655 132.337 525.176 132.08 524.58 132.046ZM523.79 131.052C524.106 131.274 524.468 131.529 524.495 131.988C520.497 130.146 516.68 128.012 512.974 125.64C510.964 124.354 508.721 123.46 506.482 122.568C505.407 122.139 504.333 121.711 503.285 121.24C497.305 118.532 491.184 116.177 484.711 114.71C464.274 110.099 444.008 110.155 423.924 116.487C421.695 117.194 419.513 118.052 417.337 118.908L417.336 118.908C416.387 119.281 415.439 119.653 414.489 120.013C414.447 119.954 414.403 119.899 414.36 119.846L414.328 119.807C414.21 119.662 414.108 119.538 414.108 119.421C414.126 118.815 414.137 118.283 414.147 117.812C414.185 115.888 414.203 115.009 414.639 114.467C415.005 114.012 415.666 113.795 416.882 113.394C417.391 113.227 417.997 113.027 418.72 112.764C434.375 107.067 450.509 105.784 467.025 107.405C488.378 109.507 506.74 118.589 523.735 131.013L523.79 131.052ZM420.483 174.703C427.182 175.196 433.148 176.423 438.648 179.089C445.624 182.486 452.469 186.157 459.314 189.828L461.115 190.794C466.63 193.741 471.397 197.704 475.614 202.316C480.197 207.322 484.245 212.723 487.912 218.421L488.027 218.599C488.572 219.448 489.075 220.232 490.183 220.733C497.658 224.16 504.851 228.166 511.973 232.269C519.462 236.599 526.344 241.704 531.464 248.727C536.287 255.355 542.112 260.954 548.29 266.228C550.983 268.527 554.058 270.191 557.471 271.094C557.713 271.157 557.956 271.226 558.201 271.295C559.49 271.66 560.861 272.048 562.591 271.799C562.374 271.605 562.195 271.441 562.04 271.3C561.722 271.01 561.507 270.813 561.279 270.642C555.779 266.412 551.999 260.898 549.234 254.608C548.354 252.591 548.382 250.485 548.411 248.38C548.425 247.35 548.439 246.32 548.346 245.3C548.304 244.835 548.572 244.398 549.079 244.327C549.559 244.257 549.968 244.51 550.151 244.962C550.659 246.217 551.04 247.514 551.153 248.868C551.35 251.153 552.182 253.226 553.339 255.186C555.934 259.586 559.022 263.633 562.873 266.962C566.836 270.389 571.377 271.742 576.483 269.712C576.578 269.102 576.289 268.837 576.009 268.581C575.991 268.565 575.974 268.549 575.956 268.532C575.924 268.503 575.893 268.473 575.862 268.442C572.88 265.371 569.774 262.424 566.667 259.477C560.473 253.601 554.278 247.723 549.065 240.858C546.727 237.782 544.056 234.959 541.381 232.132C539.862 230.526 538.341 228.918 536.88 227.263C533.41 223.342 529.475 219.972 524.934 217.391C505.88 206.56 487.912 194.122 470.593 180.739C462.554 174.519 453.57 170.796 443.81 168.427C440.992 167.747 438.131 167.38 435.274 167.014C432.44 166.651 429.61 166.288 426.83 165.621C426.026 165.423 425.518 165.691 425.151 166.34L425.142 166.357L425.135 166.368C423.66 168.996 422.183 171.625 420.483 174.689V174.703ZM502.814 253.958L502.815 253.965C502.89 254.536 502.953 255.005 503.045 255.468C505.81 269.077 507.389 282.827 508.108 296.676C508.856 311.201 508.193 325.727 507.093 340.239C506.407 349.318 505.806 358.406 505.206 367.495C504.632 376.165 504.059 384.836 503.412 393.504C501.734 415.871 500.746 438.251 500.196 460.674C500.058 466.396 499.95 472.117 499.84 477.914L499.84 477.931C499.782 480.987 499.724 484.064 499.66 487.173C500.56 486.375 500.751 485.478 500.935 484.619C500.981 484.4 501.028 484.184 501.085 483.972C505.02 468.938 508.771 453.863 512.213 438.717C516.232 421.018 519.222 403.15 520.717 385.042C521.45 376.059 521.874 367.062 522.184 358.05C522.804 339.562 522.706 321.101 519.843 302.768C517.558 288.13 513.75 273.914 507.093 260.573C506.968 260.323 506.843 260.072 506.718 259.82L506.718 259.82C505.593 257.555 504.458 255.271 502.707 252.986L502.679 252.972C502.731 253.337 502.774 253.661 502.814 253.958ZM329.19 144.354C329.098 144.569 329.018 144.745 328.95 144.896L328.95 144.897C328.821 145.182 328.733 145.378 328.669 145.581C324.169 159.613 319.67 173.645 315.186 187.677C314.611 189.484 314.047 191.294 313.484 193.105L313.483 193.107C312.441 196.453 311.399 199.798 310.292 203.119C309.812 204.558 310.193 205.136 311.519 205.587C312.544 205.932 313.567 206.285 314.591 206.639C319.098 208.197 323.609 209.756 328.344 210.537C330.657 210.919 332.974 211.264 335.292 211.608L335.294 211.609L335.297 211.609C338.546 212.093 341.794 212.576 345.029 213.16C346.763 213.471 347.92 213.245 349.161 211.919C353.422 207.357 357.746 202.865 362.075 198.367C363.219 197.179 364.363 195.99 365.507 194.799L365.514 194.791L365.52 194.786C367.533 192.703 369.545 190.62 371.67 188.439C371.383 188.262 371.12 188.097 370.872 187.941C370.366 187.623 369.925 187.345 369.47 187.099C367.972 186.266 366.465 185.449 364.959 184.632L364.956 184.63C361.614 182.817 358.274 181.005 355.028 179.032C349.641 175.76 344.211 172.559 338.485 169.894C337.878 169.612 337.286 169.259 336.736 168.878C336.186 168.484 335.579 168.018 335.749 167.257C335.907 166.536 336.542 166.471 337.121 166.412C337.211 166.403 337.299 166.394 337.385 166.382C338.702 166.189 339.959 166.527 341.343 166.899C341.975 167.069 342.634 167.247 343.336 167.383C341.08 161.475 340.403 155.692 339.81 149.91C339.669 148.585 339.049 147.964 337.892 147.471C335.086 146.286 332.279 145.172 329.204 144.368L329.19 144.354ZM434.465 189.016C434.126 188.657 433.783 188.292 433.434 187.922C435.051 188.335 435.912 189.016 436.683 189.626C436.86 189.766 437.033 189.903 437.21 190.032C446.25 196.618 453.358 205.051 459.761 214.105C476.037 237.107 486.262 262.477 490.902 290.33C495.246 316.405 495.584 342.565 494.541 368.81C494.293 374.958 493.595 381.082 492.898 387.209L492.897 387.212C492.524 390.487 492.152 393.763 491.847 397.044C491.156 404.546 490.507 412.063 489.943 419.579C488.885 433.724 487.686 447.855 486.206 461.958C485.458 469.06 484.782 476.17 484.106 483.277C483.876 485.695 483.646 488.113 483.413 490.529C483.185 492.931 482.965 495.333 482.745 497.735L482.743 497.767L482.742 497.769C482.041 505.443 481.34 513.116 480.353 520.765C480.254 521.527 480.226 522.303 480.226 522.345C479.845 518.974 479.887 514.87 480.226 510.767C481.622 494.013 481.65 477.231 481.086 460.449C480.902 455.049 480.597 449.64 480.292 444.237L480.291 444.236C480.222 443.007 480.153 441.778 480.085 440.55C479.986 438.717 480.169 436.94 480.621 435.191C483.949 422.414 485.811 409.383 487.461 396.31C489.238 382.208 490.592 368.077 489.929 353.862C489.125 336.515 487.08 319.282 482.426 302.514C480.776 296.577 479.887 290.739 479.76 284.632C479.563 275.55 477.659 266.778 474.514 258.26C466.602 236.81 456.503 216.503 442.583 198.24C440.221 195.129 437.539 192.281 434.465 189.016ZM402.614 61.5861C401.582 61.4729 400.809 61.6851 400.053 61.8924C399.961 61.9175 399.87 61.9425 399.779 61.9669C395.576 63.1374 391.965 65.4361 388.581 68.0592C374.505 78.9746 365.126 93.1335 360.077 110.099C356.932 120.648 356.269 131.549 356.636 142.521C356.847 148.966 356.989 149.149 363.236 150.813C364.28 151.095 364.985 151.053 365.225 149.84L365.24 149.756L365.24 149.755C365.334 149.232 365.43 148.698 365.564 148.19C369.879 132.028 377.678 117.968 390.724 107.166C392.487 105.699 393.432 104.091 393.884 101.891C395.157 95.7068 396.503 89.5387 397.849 83.3745L397.849 83.3728L397.85 83.3708C398.277 81.4115 398.705 79.4527 399.13 77.4938C400.177 72.6988 401.236 67.9038 402.328 62.9569L402.628 61.6002L402.614 61.5861ZM561.476 158.259C559.515 155.669 557.58 153.11 555.66 150.572L555.657 150.569C552.414 146.282 549.216 142.055 546.019 137.839C541.322 131.634 536.217 125.767 530.533 120.436C519.702 110.282 507.417 102.554 493.018 98.3938C488.158 96.9869 483.199 96.369 478.229 95.7498L478.228 95.7496C476.722 95.562 475.215 95.3742 473.71 95.1643C461.228 93.4438 448.775 93.4438 436.406 96.2079C429.918 97.6605 423.529 99.5079 417.437 102.23C417.313 102.284 417.187 102.337 417.06 102.39C416.141 102.775 415.187 103.175 415.138 104.401C415.117 104.979 415.057 105.559 414.997 106.144C414.855 107.531 414.71 108.949 415.067 110.437C415.26 110.386 415.434 110.341 415.592 110.301L415.593 110.3C416.001 110.195 416.31 110.116 416.604 110.014C425.687 106.855 434.981 104.712 444.614 104.063C462.046 102.878 478.97 104.853 495.345 111.298C510.577 117.305 523.425 126.937 536.019 137.021C536.55 137.448 537.022 137.955 537.494 138.464C538.238 139.265 538.985 140.069 539.968 140.56C542.156 141.654 543.915 143.417 545.531 145.036L545.807 145.313C547.48 146.975 549.316 148.466 551.116 149.928L551.118 149.929C551.685 150.39 552.249 150.847 552.803 151.307C553.587 151.953 554.357 152.621 555.136 153.296L555.136 153.296L555.137 153.296C557.074 154.976 559.064 156.7 561.448 158.259H561.476ZM459.366 76.8592C447.407 66.7617 434.065 60.9656 418.522 59.9784C418.157 65.2424 417.794 70.4875 417.432 75.7301L417.43 75.7551C417.025 81.6281 416.619 87.4979 416.209 93.3874C416.427 93.3874 416.61 93.3973 416.77 93.406C417.036 93.4205 417.238 93.4314 417.422 93.3874C427.662 90.454 438.098 88.8464 448.746 88.7335C450.058 88.7335 450.806 88.113 451.511 87.1682C453.853 84.0546 456.23 80.9527 458.663 77.777L459.366 76.8592ZM542.013 348.376L541.559 348.431C541.499 347.821 541.428 347.213 541.357 346.605C541.197 345.226 541.037 343.85 540.998 342.467C540.222 312.485 530.223 285.633 513.327 261.151L512.856 260.469C509.502 255.6 506.13 250.705 501.522 246.866C500.887 246.344 500.535 245.667 500.295 244.891C498.997 240.801 497.446 236.825 495.683 232.918C495.67 232.888 495.656 232.858 495.642 232.828C495.478 232.467 495.29 232.053 495.641 231.663C495.675 231.653 495.713 231.636 495.751 231.62C495.82 231.589 495.886 231.56 495.923 231.578C503.567 236.246 510.421 241.986 516.105 248.826C522.071 256.004 527.402 263.718 532.381 271.644C535.596 276.777 537.345 282.489 538.755 288.285C542.578 303.939 543.537 319.86 542.86 335.909C542.738 338.677 542.528 341.439 542.319 344.202L542.319 344.205C542.213 345.594 542.108 346.984 542.013 348.376ZM515.647 149.371C516.642 150.215 517.675 151.091 518.762 152.022C516.49 151.677 514.922 150.645 513.459 149.681C512.988 149.371 512.527 149.067 512.057 148.796C509.132 147.112 506.17 145.502 503.208 143.891C500.986 142.683 498.764 141.475 496.558 140.236C491.664 137.486 486.234 135.681 480.747 134.398C472.157 132.384 463.523 130.524 454.884 128.662C453.722 128.412 452.56 128.161 451.398 127.91C440.2 125.485 429.199 126.641 418.353 129.941C416.844 130.392 415.335 130.83 413.826 131.253C413.773 131.27 413.703 131.249 413.586 131.214C413.516 131.193 413.429 131.166 413.318 131.14C413.021 130.011 413.196 128.871 413.371 127.727L413.371 127.727C413.479 127.027 413.586 126.327 413.586 125.626C413.598 124.656 414.394 124.422 415.116 124.21C415.265 124.166 415.411 124.123 415.547 124.075C418.899 122.889 422.373 122.263 425.856 121.635C426.477 121.523 427.098 121.411 427.718 121.296C442.216 118.617 456.518 120.225 470.536 124.004C485.162 127.953 498.617 134.398 510.069 144.566C511.853 146.153 513.674 147.698 515.647 149.371ZM476.192 310.877C477.49 307.239 477.49 286.79 476.418 276.862C475.191 265.551 470.861 255.299 465.784 245.145C465.544 250.899 462.497 255.242 459.268 259.459C458.393 260.601 458.732 261.532 459.127 262.59C462.159 270.755 463.978 279.231 465.502 287.763C466.023 290.71 466.545 293.432 469.084 295.435C469.806 296.004 470.325 296.862 470.83 297.698C470.976 297.94 471.121 298.18 471.27 298.41C473.639 302.091 475.557 305.969 476.192 310.863V310.877ZM576.723 205.374C576.814 205.464 576.942 205.592 577.131 205.771C569.492 205.853 562.445 204.373 555.426 202.725C542.817 199.763 532.987 192.472 524.751 182.84C522.112 179.755 519.552 176.602 516.991 173.448L516.99 173.447C514.365 170.213 511.738 166.978 509.025 163.816C498.038 150.996 484.936 141.153 468.731 135.78C467.159 135.261 465.568 134.801 463.971 134.339C461.356 133.583 458.723 132.822 456.123 131.789C456.576 131.838 457.034 131.87 457.492 131.902L457.492 131.902C458.486 131.971 459.478 132.041 460.424 132.282C471.651 135.103 482.271 139.319 491.988 145.736C504.089 153.732 514.92 163.237 525.329 173.264C532.479 180.146 539.997 186.605 547.909 192.613C555.496 198.381 564.043 201.977 573.196 204.332C573.739 204.473 574.286 204.611 574.833 204.748C575.379 204.886 575.925 205.023 576.469 205.164C576.521 205.173 576.568 205.22 576.722 205.373L576.723 205.374ZM433.994 117.503C434.607 117.471 435.221 117.425 435.835 117.378C437.131 117.28 438.429 117.182 439.72 117.221C452.597 117.601 465.346 118.941 477.631 123.13C480.099 123.962 482.595 124.54 485.204 124.737C486.576 124.843 487.934 125.098 489.288 125.353L489.289 125.353C489.926 125.473 490.562 125.593 491.198 125.696C496.515 126.557 501.508 128.418 506.515 130.322C507.506 130.7 508.516 131.023 509.527 131.345C511.379 131.936 513.234 132.527 514.977 133.467C521.634 137.049 528.135 140.885 534.186 145.426C541.844 151.18 549.446 156.99 557.062 162.814C563.874 168.032 570.996 172.771 578.753 176.48C578.906 176.554 579.057 176.651 579.212 176.75L579.213 176.75C579.789 177.117 580.418 177.518 581.362 176.973C580.58 176.426 579.821 175.858 579.068 175.295C577.434 174.072 575.828 172.87 574.071 171.953C569.939 169.809 566.201 167.13 562.591 164.253C560.652 162.709 558.713 161.167 556.774 159.624C550.953 154.993 545.131 150.363 539.334 145.708C526.119 135.103 511.804 126.289 495.725 120.789C478.66 114.95 461.059 112.934 443.091 115.458C442.645 115.521 442.197 115.581 441.749 115.641C439.109 115.992 436.454 116.345 433.994 117.503ZM375.281 191.231C373.419 193.205 372.122 194.587 370.824 195.969C366.347 200.713 361.89 205.478 357.433 210.243L357.429 210.247C347.26 221.119 337.089 231.993 326.666 242.621C324.655 244.671 322.699 246.788 320.741 248.905C313.838 256.371 306.917 263.856 297.556 268.569C297.218 268.739 297.006 268.964 297.048 269.331C297.119 269.923 297.612 270.022 298.05 269.951C298.712 269.853 299.361 269.669 299.996 269.458C303.889 268.104 307.33 265.974 310.193 263.041C315.468 257.626 321.067 252.563 326.722 247.571C329.261 245.328 331.771 243.072 334.282 240.816L337.591 237.844L337.603 237.833C348.82 227.758 360.028 217.693 371.247 207.604C371.334 207.525 371.424 207.447 371.515 207.371C371.601 207.299 371.688 207.227 371.775 207.156C372.471 206.585 373.177 206.006 373.278 205.009C373.45 203.176 373.805 201.373 374.17 199.515C374.677 196.94 375.205 194.259 375.295 191.245L375.281 191.231ZM480.649 136.541C482.059 137.204 483.427 137.895 484.767 138.614C494.245 143.705 502.862 150.037 511.141 156.849C512.408 157.891 513.644 158.969 514.88 160.046L514.88 160.047C517.123 162.003 519.366 163.96 521.803 165.705C523.919 167.221 526.198 168.436 528.475 169.65L528.476 169.65C530.266 170.605 532.056 171.559 533.763 172.658C545.328 180.104 557.02 187.353 569.755 192.712C570.164 192.881 570.559 193.107 570.94 193.332C574.799 195.653 579.115 196.477 583.435 197.302L583.549 197.323C582.096 196.421 580.601 195.645 579.049 195.025C572.266 192.289 566.102 188.537 560.39 183.954L559.518 183.255C554.903 179.552 550.289 175.85 545.314 172.573C542.235 170.548 539.17 168.501 536.106 166.455C523.294 157.899 510.49 149.347 496.685 142.394C491.565 139.813 486.276 137.726 480.635 136.527L480.649 136.541ZM404.334 52.2079C400.667 52.1797 397.268 53.3361 393.926 54.6194C379.991 60.0066 369.865 69.7797 362.038 82.2323C352.701 97.0963 348.329 117.009 349.584 136.259C349.649 129.905 350.973 123.728 352.291 117.577L352.291 117.576L352.291 117.575C352.41 117.024 352.528 116.474 352.645 115.923C357.003 95.3899 367.087 78.4669 384.434 66.1694C388.905 63.0105 393.63 60.331 398.933 59.1182C402.684 58.2579 404.828 56.6784 404.32 52.2079H404.334ZM238.039 398.228C238.045 398.092 238.054 397.962 238.062 397.839C238.111 397.106 238.145 396.606 237.517 396.437C236.84 396.254 236.487 396.762 236.248 397.269C236.143 397.497 236.038 397.725 235.933 397.952L235.933 397.953C235.331 399.259 234.731 400.562 234.203 401.895C226.135 422.527 218.463 443.3 211.129 464.2C208.6 471.411 206.021 478.609 203.442 485.807C202.152 489.407 200.862 493.006 199.578 496.608C198.817 498.765 199.042 499.908 200.298 500.373C201.511 500.81 202.385 500.063 203.189 497.835C203.478 497.045 203.753 496.248 204.028 495.451L204.029 495.448C204.304 494.652 204.578 493.857 204.867 493.068C205.989 489.988 207.111 486.909 208.234 483.83C217.704 457.862 227.176 431.889 235.712 405.59C236.404 403.455 237.076 401.311 237.681 399.384L238.039 398.242V398.228ZM418.001 179.399C417.481 180.264 416.968 181.117 416.461 181.96C414.614 185.03 412.844 187.972 411.118 190.949C410.858 191.393 410.769 191.935 410.68 192.478C410.639 192.728 410.598 192.979 410.54 193.219C410.201 194.686 410.624 195.476 412.26 195.814C414.103 196.195 415.929 196.662 417.755 197.129L417.755 197.129L417.755 197.129C419.311 197.527 420.865 197.924 422.429 198.268C431.216 200.186 439.466 203.218 446.194 209.55C438.267 198.198 429.805 187.395 418.001 179.399ZM486.361 361.28C487.052 341.127 484.513 321.383 480.254 301.823C479.817 305.645 479.577 309.453 479.379 313.246C479.339 313.991 479.3 314.735 479.261 315.479V315.48C478.761 324.96 478.262 334.439 476.065 343.736C475.727 345.146 476.333 346.133 477.01 347.163C478.15 348.912 479.337 350.634 480.527 352.361L480.527 352.361L480.529 352.363C482.533 355.271 484.547 358.192 486.361 361.28ZM360.289 240.703C358.841 239.786 358.034 240.437 357.327 241.007L357.327 241.007C357.207 241.103 357.091 241.197 356.974 241.281C353.001 244.126 348.957 246.868 344.914 249.61C339.357 253.379 333.801 257.147 328.429 261.18C322.294 265.791 316.398 270.671 311.067 276.199C308.797 278.554 306.554 280.994 305.595 284.223C303.969 289.684 303.805 295.318 303.64 301.01L303.639 301.029C303.629 301.402 303.618 301.775 303.606 302.148C304.668 302.023 305.345 301.483 305.996 300.966L305.996 300.965C306.227 300.781 306.455 300.6 306.695 300.441C307.88 299.665 308.049 298.707 307.922 297.282C307.175 289.145 309.036 281.91 315.453 276.255C317.712 274.262 320.051 272.378 322.391 270.493C323.296 269.765 324.2 269.036 325.1 268.301C326.975 266.764 328.838 265.209 330.7 263.655C335.842 259.363 340.986 255.069 346.411 251.124C348.098 249.897 349.711 248.577 351.334 247.249C354.147 244.947 356.988 242.622 360.289 240.717V240.703ZM346.03 141.167C346.803 140.151 346.711 139.031 346.622 137.936L346.622 137.935C346.597 137.632 346.572 137.331 346.566 137.035C346.242 121.917 348.244 107.222 353.97 93.0771C360.585 76.7182 370.993 63.772 386.789 55.4938C391.81 52.8707 397.071 50.9246 402.726 50.1771C405.589 49.7964 405.688 49.6271 405.505 46.031C403.652 46.7219 401.769 47.3469 399.889 47.9707C395.746 49.3459 391.621 50.7152 387.875 52.772C375.944 59.3156 365.225 67.5233 357.722 79.2284C353.872 85.222 350.459 91.3989 348.766 98.4079C345.522 111.862 344.239 125.471 345.311 139.277C345.319 139.397 345.315 139.522 345.311 139.651C345.294 140.159 345.276 140.717 346.03 141.167ZM480.381 85.8143C480.004 85.5365 479.692 85.2949 479.419 85.0837C478.874 84.6621 478.486 84.3616 478.054 84.1361C467.927 78.7207 459.113 71.6412 451.186 63.363C445.545 57.4682 438.211 54.5912 430.468 52.6451C427.408 51.8694 424.263 51.5451 421.117 51.3618C421.034 51.3564 420.947 51.3488 420.859 51.3411C420.252 51.2877 419.582 51.2288 419.298 51.8694C418.706 53.2374 418.734 54.7605 419.002 56.1707C419.159 57.0478 419.887 57.0436 420.587 57.0395C420.833 57.0381 421.074 57.0367 421.287 57.0733C432.993 58.9348 444.064 62.3759 453.711 69.6105C457.674 72.5861 461.736 75.4348 465.854 78.1848C470.24 81.104 474.796 83.7412 480.381 85.8284V85.8143ZM444.304 215.854C441.765 212.357 438.267 209.945 433.698 208.253C428.73 206.427 423.578 205.299 418.425 204.171L418.425 204.171C415.898 203.617 413.37 203.064 410.864 202.428C410.806 202.412 410.737 202.43 410.615 202.462C410.531 202.484 410.421 202.512 410.272 202.541C410.181 204.221 410.091 205.912 409.998 207.644C409.874 209.954 409.746 212.337 409.609 214.867C421.484 212.526 432.95 212.004 444.304 215.854ZM275.075 524.051C277.368 514.537 279.92 505.117 282.47 495.703C283.59 491.569 284.71 487.435 285.808 483.295C287.345 477.485 286.386 471.815 285.356 466.076C284.232 468.993 283.274 471.936 282.317 474.878L282.314 474.889C282.06 475.67 281.806 476.451 281.548 477.231C278.559 486.327 275.724 495.451 275.921 505.196C275.921 505.432 275.879 505.664 275.836 505.897L275.836 505.897C275.797 506.109 275.759 506.321 275.752 506.536C275.668 508.355 275.533 510.171 275.397 511.987V511.988C275.098 516.001 274.799 520.013 275.061 524.051H275.075ZM251.931 270.586C250.83 270.355 249.84 270.768 248.882 271.169C248.613 271.281 248.346 271.393 248.081 271.489C237.164 275.381 228.35 281.882 223.202 292.516C219.027 301.132 218.858 309.876 223.343 318.507C223.424 318.663 223.499 318.829 223.574 318.996C223.906 319.729 224.254 320.496 225.219 320.749C225.236 320.608 225.255 320.466 225.275 320.324C225.4 319.415 225.525 318.501 225.049 317.745C223.638 315.532 223.424 313.055 223.21 310.59L223.21 310.588C223.172 310.148 223.134 309.707 223.089 309.269C222.285 301.174 224.824 294.123 230.338 288.228C235.712 282.474 242.058 277.976 249.336 274.986C251.607 274.055 252.509 272.927 251.945 270.572L251.931 270.586ZM535.046 391.769C536.082 387.797 536.724 383.997 537.354 380.262C537.608 378.759 537.86 377.266 538.135 375.777C539.376 369.135 540.25 362.577 539.165 355.709C538.644 352.397 538.545 349.014 538.447 345.625V345.625V345.623C538.375 343.141 538.303 340.656 538.064 338.194C538.012 337.646 537.961 337.099 537.909 336.552L537.906 336.518C537.403 331.178 536.899 325.813 535.596 320.298C536.171 335.761 535.814 351.077 535.455 366.456L535.455 366.462C535.259 374.868 535.063 383.292 535.018 391.769H535.046ZM480.127 427.35C482.327 419.763 485.825 388.596 484.936 384.789C484.039 386.013 483.149 387.24 482.261 388.465C480.776 390.512 479.295 392.555 477.786 394.576C476.672 396.056 476.389 397.58 476.911 399.328L476.969 399.523L476.97 399.523C477.43 401.066 477.892 402.612 478.068 404.236C478.787 410.723 479.111 417.239 479.394 423.754C479.406 424.004 479.402 424.26 479.399 424.518C479.386 425.467 479.373 426.452 480.127 427.35ZM275.526 124.54C274.477 124.54 273.51 124.537 272.598 124.535H272.596C270.494 124.529 268.691 124.525 266.881 124.554L266.779 124.554C266.05 124.551 265.185 124.548 265.118 125.626C265.061 126.627 265.879 126.966 266.627 127.149C268.051 127.487 269.476 127.784 270.928 127.967C277.402 128.813 283.932 129.039 290.448 129.222C292.627 129.283 294.803 129.412 296.979 129.542L296.98 129.542C300.871 129.774 304.762 130.005 308.67 129.842C309.826 129.8 311.124 129.73 311.293 128.291C311.462 126.768 310.151 126.557 309.022 126.387C308.247 126.26 307.457 126.204 306.667 126.162C304.822 126.071 302.977 125.986 301.132 125.9L301.131 125.9C298.364 125.771 295.598 125.643 292.831 125.499C287.876 125.234 282.921 124.95 278.443 124.693L278.442 124.693L276.766 124.598L275.512 124.526L275.526 124.54ZM446.194 187.635C466.39 201.512 481.283 219.239 493.032 239.814C492.972 238.519 492.473 237.397 491.978 236.284L491.975 236.276C491.889 236.083 491.803 235.89 491.72 235.696C488.434 228.123 484.175 221.114 479.506 214.317C471.228 202.259 460.255 193.614 446.194 187.635ZM342.8 142.887C343.196 142.2 343.123 141.482 343.052 140.785C343.026 140.538 343.001 140.293 342.998 140.053C342.991 138.775 342.98 137.498 342.97 136.221C342.891 126.716 342.812 117.228 344.366 107.73C347.257 90.0451 356.171 75.9284 368.779 63.4617C358.455 72.4169 350.769 83.022 345.607 95.4182C343.209 101.172 341.813 107.236 341.743 113.469C341.664 120.68 341.754 127.9 341.844 135.121V135.124C341.868 137.025 341.891 138.927 341.912 140.828C341.912 140.949 341.902 141.075 341.893 141.204C341.846 141.832 341.794 142.527 342.8 142.901V142.887ZM443.852 277.257C448.944 282.601 455.093 285.803 461.468 288.849C458.605 282.235 454.882 276.255 450.622 270.346C449.477 271.519 448.391 272.625 447.316 273.72L447.313 273.724C446.166 274.893 445.031 276.048 443.852 277.257ZM497.051 36.0887C494.654 36.2015 493.116 36.7797 492.016 38.4156C490.944 39.9951 489.858 41.5746 488.688 43.0976C486.49 45.9556 484.285 48.8072 482.078 51.6589C478.635 56.1105 475.19 60.5628 471.778 65.0412C471.66 65.1956 471.488 65.346 471.31 65.5025L471.309 65.5028C470.737 66.0037 470.093 66.567 470.931 67.5233C471.848 68.5669 472.92 68.2143 473.992 67.7489C474.208 67.6556 474.424 67.5609 474.64 67.4663L474.643 67.4647C475.665 67.0165 476.687 66.5681 477.758 66.2541C480.226 65.5066 481.65 63.8707 482.341 61.3323C481.268 61.3503 480.288 61.7395 479.291 62.1351C477.956 62.665 476.592 63.2065 474.937 62.8835C477.024 60.3127 479.06 57.7292 481.093 55.1488C486.176 48.6984 491.243 42.2675 497.065 36.1028L497.051 36.0887ZM389.424 120.284C389.362 120.304 389.305 120.321 389.251 120.336C389.053 120.394 388.911 120.435 388.82 120.535C382.417 127.036 376.184 133.692 371.417 141.534C369.682 144.396 368.807 147.583 368.441 150.926C369.047 150.221 369.498 149.473 369.936 148.698C374.124 141.308 379.145 134.51 385.506 128.869C388.172 126.5 389.469 123.863 389.638 120.225V120.21C389.562 120.239 389.491 120.263 389.424 120.284ZM464.43 66.9874L464.599 66.663C464.426 66.5344 464.256 66.4047 464.086 66.2755L464.083 66.2735C463.658 65.9498 463.237 65.6292 462.794 65.3374L461.983 64.8107C455.485 60.5853 448.993 56.364 442.033 52.8707C436.265 49.9797 430.341 47.7374 424.023 46.4541C423.285 46.3028 422.542 46.2022 421.796 46.1014C421.429 46.0518 421.062 46.0022 420.694 45.9464C419.593 45.7871 419.478 46.5275 419.362 47.2737L419.35 47.3541L419.34 47.413C419.214 48.231 419.129 49.0489 420.187 49.2746C420.832 49.4149 421.52 49.4435 422.193 49.4716L422.204 49.472C432.302 49.9938 441.511 53.2797 450.129 58.3707C452.464 59.7474 454.762 61.1834 457.058 62.6186L457.061 62.6203L457.063 62.6218C458.482 63.5085 459.9 64.3949 461.327 65.2669C462.034 65.7053 462.777 66.1015 463.515 66.4953C463.822 66.6588 464.128 66.8219 464.43 66.9874ZM374.801 133.382C379.159 127.91 383.63 123.172 388.383 118.744C390.611 116.657 391.373 114.33 391.697 111.326C385.562 116.078 377.904 126.049 374.801 133.382ZM476.206 323.676V323.676C476.253 322.925 476.299 322.171 476.347 321.412C475.63 322.996 474.947 324.5 474.283 325.96L474.275 325.977C473.454 327.784 472.663 329.525 471.876 331.269C471.861 331.304 471.845 331.338 471.83 331.372L471.769 331.506C471.431 332.244 471.093 332.984 471.284 333.85C471.333 334.073 471.381 334.296 471.429 334.519L471.432 334.534C471.994 337.146 472.558 339.772 474.387 342.015V342.001C475.445 336.003 475.817 329.981 476.206 323.676ZM415.716 101.172C424.108 97.3502 432.753 95.1502 441.413 93.0066C433.176 93.472 425.165 95.0515 417.267 97.3784C415.397 97.9345 415.508 99.057 415.663 100.614C415.681 100.794 415.7 100.98 415.716 101.172ZM448.154 130.534C447.005 129.574 445.608 129.507 444.265 129.443L444.263 129.443C444.107 129.436 443.951 129.428 443.796 129.419C438.282 129.081 432.767 129.278 427.309 130.181C422.754 130.928 418.255 131.901 413.854 133.298C413.135 133.523 412.528 133.932 412.867 134.722C413.117 135.31 413.553 135.082 413.946 134.877C414.062 134.816 414.175 134.757 414.277 134.722C424.672 131.281 435.306 130.026 446.222 131.112C446.298 131.119 446.376 131.13 446.456 131.143C446.483 131.148 446.511 131.152 446.539 131.157C447.066 131.245 447.639 131.341 448.154 130.534ZM566.511 160.516C570.686 165.86 575.509 170.557 581.066 174.477C585.128 177.34 589.444 179.737 594.281 181.063C595.767 181.472 595.83 181.459 598.482 180.923L598.766 180.866C585.438 177.283 575.383 169.837 566.511 160.516ZM281.901 272.716C281.896 272.758 281.88 272.808 281.866 272.857C281.841 272.938 281.818 273.013 281.845 273.04C285.469 276.537 289.108 280.035 292.761 283.518C293.184 283.913 293.678 284.195 294.242 283.73C294.975 283.123 295.539 282.376 295.187 281.417C294.961 280.824 294.51 280.246 294.002 279.823C290.73 277.087 287.331 274.521 283.41 272.73C283.357 272.705 283.302 272.679 283.247 272.652C282.822 272.446 282.35 272.218 281.901 272.73V272.716ZM317.386 244.51C315.925 244.479 314.574 244.263 313.267 244.053C311.621 243.79 310.044 243.537 308.402 243.678C308.54 245.382 308.947 246.967 309.375 248.634C309.688 249.851 310.011 251.111 310.249 252.492C311.014 251.655 311.774 250.87 312.524 250.096C314.223 248.342 315.869 246.643 317.386 244.51ZM230.486 255.351C228.495 254.976 226.507 254.601 224.466 254.285L224.565 254.144C225.449 252.886 226.057 252.022 227.616 252.591C228.958 253.081 230.348 253.456 231.736 253.831C232.624 254.071 233.511 254.31 234.386 254.58C234.911 254.739 235.44 254.887 235.978 255.038L235.98 255.039C237.727 255.529 239.569 256.045 241.649 257.048C237.708 256.712 234.094 256.031 230.488 255.351L230.486 255.351ZM357.158 109.732C356.172 111.623 355.711 113.761 355.248 115.905L355.248 115.906C355.148 116.368 355.049 116.831 354.944 117.291C353.204 124.944 352.786 130.975 353.688 135.385C353.928 127.219 355.324 118.532 357.158 109.732ZM453.711 88.3246C455.432 89.1002 456.094 88.1412 456.475 87.2528C457.998 83.713 460.932 82.0771 464.401 81.0758C464.516 81.0376 464.605 80.9024 464.694 80.7665C464.736 80.7017 464.779 80.6369 464.825 80.5823C464.792 80.0457 464.401 79.8602 464.029 79.6842C463.912 79.6289 463.797 79.5745 463.696 79.5105C461.651 78.1566 461.623 78.1566 460.029 80.1874C458.595 82.0088 457.181 83.8369 455.723 85.722C455.059 86.5808 454.385 87.4515 453.697 88.3387L453.711 88.3246ZM393.672 164.464C393.445 164.464 393.233 164.46 393.033 164.456C392.598 164.447 392.215 164.44 391.838 164.478C391.542 164.521 391.204 164.619 391.133 165.057C391.049 165.592 391.288 165.889 391.768 166.016C392.023 166.082 392.287 166.114 392.546 166.145C392.616 166.153 392.686 166.162 392.755 166.171C394.943 166.435 397.144 166.475 399.345 166.514C402.07 166.563 404.795 166.612 407.493 167.087C408.1 167.186 408.594 166.932 408.495 166.157C408.41 165.409 408.156 164.901 407.24 164.986C402.642 165.367 398.072 164.986 393.658 164.45L393.672 164.464ZM320.788 131.257H320.789C321.09 131.259 321.297 131.261 321.504 131.253C322.421 131.182 323.352 131.027 323.605 129.955C323.902 128.714 323.083 128.15 322.082 127.727C320.811 127.175 319.493 127.219 318.171 127.263C318.041 127.268 317.911 127.272 317.781 127.276C316.892 127.304 316.286 127.727 316.145 128.63C316.018 129.518 316.455 130.195 317.23 130.519C318.26 130.942 319.346 131.267 320.079 131.253C320.369 131.253 320.598 131.255 320.788 131.257ZM258.917 268.972C259.559 268.902 260.205 268.831 260.838 268.67C261.003 268.705 261.172 268.734 261.342 268.762C261.708 268.824 262.079 268.886 262.424 269.021C263.496 269.415 263.383 270.107 262.72 270.798C261.888 271.658 256.811 272.617 255.697 272.151C255.259 271.968 254.907 271.7 254.85 271.207C254.78 270.586 255.147 270.149 255.626 269.853C256.645 269.221 257.774 269.098 258.917 268.972L258.917 268.972ZM198.521 505.859C198.464 504.942 197.985 504.364 197.082 504.279C195.855 504.167 194.219 506.212 194.402 507.664C194.529 508.665 195.122 509.328 196.222 509.244C197.35 509.145 198.591 507.269 198.521 505.873V505.859ZM418.24 137.26C416.463 136.908 415.448 137.698 414.7 138.882C414.462 139.262 414.192 139.629 413.918 140.002C412.909 141.374 411.848 142.816 412.148 145.2C413.35 143.63 414.458 142.188 415.537 140.783C416.444 139.602 417.332 138.446 418.24 137.26ZM369.682 174.553L369.682 174.552C370.418 171.848 371.154 169.143 371.967 166.467C369.95 170.401 368.483 174.477 368.469 178.962C368.881 177.496 369.282 176.024 369.682 174.553ZM463.197 69.4544L463.197 69.4542C461.726 68.4083 460.271 67.3736 458.139 67.1143C460.669 70.0382 462.728 71.0771 464.317 70.231C463.935 69.9794 463.566 69.7166 463.197 69.4544ZM391.824 179.413C395.576 179.046 398.312 180.118 401.274 181.486C398.679 177.805 395.858 177.1 391.824 179.413ZM380.866 148.867C381.319 148.097 381.917 147.395 382.523 146.685C383.913 145.053 385.344 143.374 385.168 140.701C383.39 143.367 382.022 146.004 380.866 148.867ZM469.154 76.3092C469.269 76.3899 469.383 76.471 469.498 76.5523C470.005 76.9115 470.515 77.2731 471.044 77.6066C471.749 78.0579 472.469 78.2271 473.103 77.4656C473.625 76.8451 474.091 76.1258 473.512 75.3925C473.019 74.7579 472.285 74.5322 471.453 74.9694C471.226 75.0851 470.984 75.1717 470.742 75.2587C470.155 75.4687 469.563 75.681 469.154 76.3092ZM376.268 183.319C378.172 182.642 379.3 181.514 378.638 179.23C377.558 180.361 376.994 181.656 376.432 182.944C376.378 183.069 376.323 183.194 376.268 183.319ZM346.298 168.187L344.479 164.478C344.662 164.975 344.718 165.474 344.77 165.942C344.882 166.95 344.979 167.812 346.298 168.187ZM467.504 71.3169C466.235 71.9092 465.516 72.431 465.417 73.5169C465.403 73.6861 465.614 74.0105 465.741 74.0246C466.575 74.1423 466.836 73.6115 467.098 73.0782C467.212 72.8449 467.327 72.6112 467.49 72.431C467.55 72.3622 467.542 72.2306 467.527 71.9755C467.517 71.812 467.504 71.5978 467.504 71.3169ZM372.629 181.43C372.663 181.079 372.83 180.749 373.005 180.403C373.335 179.749 373.693 179.042 373.222 178.045C373.138 178.246 373.052 178.439 372.968 178.626L372.968 178.626C372.541 179.578 372.181 180.381 372.629 181.43ZM373.067 60.3169L373.052 60.322C372.197 60.6306 371.33 60.9431 370.993 61.981C371.711 61.4178 372.387 60.8688 373.063 60.3197L373.067 60.3169ZM450.763 549.93C451.666 546.094 452.569 542.261 453.471 538.429C454.374 534.596 455.277 530.764 456.179 526.928C456.709 524.693 457.231 522.456 457.753 520.219C460.606 507.985 463.46 495.745 467.645 483.859C467.73 483.621 467.808 483.381 467.888 483.136C468.263 481.989 468.666 480.754 469.817 479.29C470.226 481.236 469.987 482.576 469.634 483.873C465.911 497.802 462.665 511.848 459.42 525.894C457.773 533.023 456.126 540.151 454.416 547.264C454.398 547.338 454.38 547.411 454.362 547.484C454.165 548.286 453.967 549.09 454.148 549.93H450.763ZM391.049 190.399C392.671 191.09 394.363 191.499 396.112 191.64V191.654C396.366 191.532 396.68 191.523 396.992 191.515C397.58 191.499 398.16 191.483 398.326 190.709C398.536 189.739 397.823 189.501 397.165 189.282C396.981 189.221 396.802 189.161 396.648 189.087C395.945 188.742 395.2 188.492 394.453 188.242C393.34 187.869 392.225 187.495 391.246 186.803C390.146 186.93 389.328 187.48 389.328 188.636C389.342 189.623 390.231 190.046 391.049 190.399Z" fill="#0D070B"/>
</g>
<defs>
<clipPath id="clip0_1_812">
<rect width="708" height="550" fill="white" transform="translate(-103)"/>
</clipPath>
</defs>
</svg>
