<svg width="553" height="451" viewBox="0 0 553 451" fill="none" xmlns="http://www.w3.org/2000/svg">
<g clip-path="url(#clip0_1_699)">
<path d="M-111.718 268.639C-113.312 283.229 -105.233 298.616 -94.814 302.456C-94.4684 301.393 -94.216 300.277 -93.7775 299.254C-91.9435 294.988 -87.3854 293.248 -83.226 295.174C-79.319 296.968 -77.6578 302.177 -79.6777 306.084C-80.5016 307.691 -81.9369 308.515 -83.4386 309.1C-83.3323 310.309 -82.495 310.455 -81.9103 310.814C-44.608 333.735 -7.30566 356.63 29.9967 379.538C31.206 380.282 32.1761 381.266 33.7574 379.698C34.8471 378.608 36.9734 379.91 36.6811 381.651C36.3222 383.804 37.7973 384.109 38.9136 384.933C39.5116 385.372 39.9103 385.212 40.5747 384.84C42.6079 383.684 43.7508 384.269 44.1096 386.435C44.5216 388.88 44.9203 389.119 47.1794 388.229C49.1329 387.458 50.515 388.322 51.0598 390.607C51.4319 392.184 52.3311 392.693 53.7575 392.135C55.8571 391.311 57.3056 392.069 57.6113 394.328C57.7309 395.191 57.6512 395.896 58.5814 396.427C65.3854 400.347 71.6711 405.131 78.7807 408.559C90.0631 414.007 101.877 417.063 114.462 416.704C123.684 416.438 132.229 413.927 139.977 408.798C205.399 365.56 270.821 322.308 336.282 279.136C391.286 242.86 446.369 206.731 500.841 169.671C508.575 164.409 516.216 159.028 523.804 153.567C533.186 146.83 537.412 137.608 537.678 126.3C537.731 123.961 537.85 121.636 537.292 119.324C537.04 118.288 536.907 117.225 535.857 116.64C535.126 116.706 535.126 117.331 535.02 117.769C533.146 125.662 528.349 131.389 521.744 135.788C492.854 155.068 463.764 174.043 434.661 193.018C342.183 253.318 249.744 313.671 157.266 373.971C151.578 377.678 146.116 381.811 140.003 384.814C117.266 396.015 94.5149 396.188 72.2159 383.804C21.2259 355.474 -28.6213 325.178 -79.1595 296.065C-82.6412 294.058 -86.0432 291.879 -89.5648 289.939C-98.6811 284.943 -106.375 278.485 -111.758 268.625L-111.718 268.639ZM507.286 157.885C506.834 160.981 505.638 163.692 502.621 165.565C490.887 172.86 479.485 180.66 467.339 187.278C463.299 189.483 461.478 189.284 458.435 185.896C455.578 182.72 455.684 181.843 459.312 179.544C468.734 173.565 478.143 167.572 487.605 161.672C492.296 158.749 497.053 155.945 501.85 153.208C504.694 151.587 506.116 152.318 506.874 155.48C507.046 156.198 507.126 156.942 507.286 157.898V157.885ZM447.498 196.446C447.339 199.409 446.223 202.08 443.326 203.914C435.963 208.578 428.708 213.388 421.306 217.986C416.522 220.949 411.551 223.606 406.688 226.437C404.495 227.726 402.369 227.526 400.442 226.091C399.352 225.281 398.435 224.178 397.651 223.062C396.322 221.148 396.575 220.271 398.542 218.863C398.887 218.61 399.259 218.398 399.618 218.172C409.133 212.152 418.621 206.093 428.163 200.127C432.761 197.257 437.425 194.506 442.116 191.809C445.133 190.081 446.821 191.038 447.312 194.546C447.392 195.078 447.405 195.609 447.485 196.42L447.498 196.446ZM56.0432 389.039C56.0299 387.896 57 386.94 58.2757 386.86C59.5781 386.78 60.6678 387.883 60.6146 389.225C60.5615 390.421 59.5515 391.271 58.2757 391.218C57.0266 391.165 56.0697 390.235 56.0565 389.039H56.0432ZM44.9601 378.276C46.1296 378.249 47.1927 379.219 47.2724 380.375C47.3521 381.545 46.3687 382.581 45.1328 382.594C43.9236 382.608 42.8737 381.651 42.8339 380.495C42.794 379.259 43.7242 378.289 44.9601 378.263V378.276ZM38.8073 378.103C37.8239 378.156 36.588 376.921 36.6279 375.858C36.6678 374.768 37.3189 374.077 38.3687 374.024C39.5648 373.957 40.309 374.662 40.4684 375.858C40.6279 376.987 39.8173 378.05 38.8073 378.103ZM52.1362 386.727C50.8073 386.793 49.8372 385.85 49.8239 384.601C49.8239 383.352 50.5016 382.648 51.6844 382.488C52.8538 382.329 53.8638 383.365 53.8372 384.614C53.8106 385.81 53.2525 386.581 52.1229 386.727H52.1362Z" fill="#FF9DBF"/>
<path d="M-113.924 290.045C-118.309 283.149 -119.665 275.628 -118.708 267.483C-117.751 259.258 -113.273 252.946 -107.851 247.418C-103.412 242.9 -98.6812 238.529 -93.2725 235.087C-87.9968 231.725 -82.6812 228.403 -77.2991 225.201C16.1494 169.751 109.372 113.889 203.046 58.8116C224.375 46.268 245.146 32.7809 266.847 20.8485C267.498 20.4897 268.096 20.0512 268.681 19.5995C285.425 6.67046 304.482 0.531514 325.492 0.0132917C329.133 -0.0930104 332.734 0.265759 336.309 0.810557C342.103 1.67426 347.831 2.91002 353.04 5.72703C358.927 8.91609 364.907 11.8926 370.94 14.8026C394.09 25.9643 417.452 36.6742 440.442 48.1549C457.917 56.8716 475.046 66.3059 493.093 73.8667C497.306 75.6339 501.266 77.9859 505.465 79.7266C514.143 83.3409 521.678 88.4965 528.096 95.3264C528.827 96.0971 529.518 96.9077 530.289 97.6385C540.694 107.564 545.757 119.284 542.369 133.821C542.13 134.858 542.236 135.575 543.126 136.319C548.309 140.704 550.887 146.564 552.349 153.022C554.807 163.905 550.302 175.492 541.12 181.856C538.156 183.916 535.153 185.936 532.163 187.955C466.781 231.832 401.399 275.668 336.03 319.571C292.721 348.658 249.585 377.997 206.09 406.792C194.488 414.472 182.488 421.568 171.126 429.58C162.023 436.011 152.216 440.954 142.196 445.605C134.9 448.994 127.179 451.013 119.1 451.027C108.615 451.027 98.7142 448.289 89.3587 443.678C74.8604 436.543 61.4119 427.534 47.4584 419.442C32.7607 410.911 18.1561 402.221 3.55139 393.53C-28.8074 374.276 -59.4652 352.498 -90.2692 330.918C-95.9304 326.959 -101.166 322.441 -105.924 317.392C-108.887 314.256 -111.239 310.734 -112.688 306.695C-114.07 302.855 -114.907 298.762 -113.326 294.855C-112.515 292.862 -112.874 291.693 -113.91 290.072L-113.924 290.045ZM527.193 107.551C525.425 103.219 522.648 99.6449 519.166 96.602C517.651 95.2733 516.096 93.9445 514.382 92.8948C507.605 88.7623 500.854 84.6165 493.678 81.1617C458.488 64.1932 422.847 48.115 388.123 30.1898C376.615 24.2502 364.947 18.6029 353.213 13.1416C341.943 7.89294 330.156 6.7369 318.023 8.11883C304.442 9.6735 291.737 14.0319 279.87 20.7555C275.259 23.3732 270.9 26.4294 266.409 29.2597C249.518 39.9297 231.924 49.3906 214.781 59.6488C128.203 111.484 41.1461 162.523 -45.6048 214.079C-58.3888 221.68 -71.3058 229.041 -84.0632 236.682C-89.9902 240.229 -95.3456 244.628 -100.821 248.84C-103.797 251.125 -105.631 254.461 -106.814 258.075C-107.864 261.277 -107.479 264.373 -106.123 267.376C-104.209 271.628 -101.312 275.176 -97.6978 278.033C-94.9602 280.199 -92.1429 282.285 -88.8606 283.667C-87.3057 284.318 -85.9104 285.355 -84.4486 286.218C-38.9203 313.365 6.44843 340.778 52.2292 367.5C56.8139 370.184 61.4783 372.748 66.3421 374.874C69.3853 376.203 71.8704 378.409 74.98 379.618C85.9966 383.897 97.3986 386.063 109.199 386.209C118.355 386.289 127.206 384.854 135.498 380.814C139.046 379.087 142.09 376.562 145.372 374.409C215.458 328.234 285.93 282.657 356.269 236.841C404.163 205.641 451.99 174.349 499.87 143.136C505.213 139.654 510.914 136.718 516.096 133.037C521.558 129.17 525.664 124.041 527.724 117.504C528.787 114.115 528.561 110.82 527.233 107.538L527.193 107.551ZM-94.8141 302.469C-94.4686 301.406 -94.2161 300.29 -93.7775 299.267C-91.9437 295.002 -87.3855 293.261 -83.226 295.188C-79.319 296.982 -77.6579 302.19 -79.6779 306.097C-80.5018 307.705 -81.937 308.529 -83.4387 309.113C-83.3323 310.322 -82.4951 310.469 -81.9104 310.827C-44.608 333.749 -7.30573 356.644 29.9966 379.552C31.2059 380.296 32.176 381.279 33.7574 379.711C34.847 378.622 36.9733 379.924 36.681 381.664C36.3221 383.817 37.7972 384.123 38.9135 384.947C39.5115 385.385 39.9102 385.226 40.5746 384.854C42.6079 383.697 43.7507 384.282 44.1095 386.448C44.5215 388.893 44.9202 389.132 47.1793 388.242C49.1328 387.471 50.5149 388.335 51.0597 390.62C51.4318 392.197 52.331 392.707 53.7574 392.148C55.8571 391.325 57.3056 392.082 57.6112 394.341C57.7308 395.205 57.6511 395.909 58.5813 396.44C65.3853 400.36 71.671 405.144 78.7806 408.572C90.063 414.02 101.877 417.076 114.462 416.718C123.684 416.452 132.229 413.94 139.977 408.811C205.399 365.573 270.821 322.321 336.282 279.149C391.286 242.874 446.369 206.744 500.84 169.685C508.575 164.423 516.216 159.041 523.804 153.58C533.186 146.843 537.412 137.621 537.678 126.313C537.731 123.975 537.85 121.649 537.292 119.337C537.04 118.301 536.907 117.238 535.857 116.653C535.126 116.72 535.126 117.344 535.02 117.783C533.146 125.676 528.336 131.403 521.744 135.801C492.854 155.081 463.764 174.056 434.661 193.031C342.183 253.331 249.744 313.684 157.266 373.984C151.578 377.691 146.116 381.824 140.003 384.827C117.266 396.029 94.5149 396.201 72.2159 383.817C21.2258 355.488 -28.6214 325.191 -79.1596 296.078C-82.6413 294.072 -86.0433 291.892 -89.5649 289.952C-98.6812 284.956 -106.376 278.498 -111.758 268.639C-113.352 283.229 -105.273 298.616 -94.8539 302.456L-94.8141 302.469Z" fill="#0D070B"/>
<path d="M492.482 137.236C489.744 139.242 487.007 141.262 484.189 143.176C467.02 154.763 449.505 165.845 432.149 177.152C367.963 218.956 303.817 260.826 239.644 302.655C211.259 321.165 182.834 339.635 154.462 358.172C151.95 359.806 149.678 359.554 147.312 358.198C144.003 356.298 140.734 354.305 137.412 352.418C83.764 321.896 30.7939 290.218 -22.6812 259.404C-33.9104 252.933 -45.02 246.262 -56.0366 239.432C-57.5648 238.489 -59.1729 237.612 -60.2626 236.097C-62.1629 233.439 -61.8173 231.752 -59.0399 230.104C-41.1662 219.434 -23.2526 208.817 -5.4054 198.094C83.8172 144.478 173.558 91.7254 263.126 38.6807C269.332 35 275.644 31.492 281.93 27.9176C283.126 27.2399 284.362 26.5888 285.811 26.642C288.548 26.7616 290.927 27.9973 293.332 29.0869C301.173 32.6347 308.561 37.0861 316.229 40.9795C364.694 65.6017 413.159 90.2505 461.638 114.859C471.1 119.67 480.628 124.373 490.103 129.157C491.711 129.968 493.279 130.845 494.515 132.24C495.472 133.329 495.525 134.313 494.608 135.323C493.97 136.027 493.252 136.678 492.482 137.236ZM69.8372 161.646C68.8272 161.473 67.99 161.632 67.1262 162.151C62.3953 164.981 57.6511 167.785 52.7474 170.695C53.4518 171.492 54.2624 171.532 55.0464 171.651C65.2391 173.153 75.4318 174.654 85.6245 176.143C101.186 178.415 116.734 180.674 132.296 182.933C149.013 185.364 165.718 187.783 182.435 190.201C197.997 192.46 213.545 194.719 229.106 196.951C244.668 199.184 260.242 201.336 275.791 203.608C299.113 207.023 322.515 210 345.718 214.212C349.997 214.996 354.302 215.634 358.581 216.431C359.777 216.657 360.787 216.657 361.89 215.939C367.126 212.485 372.402 209.123 377.678 205.721C378.01 205.509 378.448 205.336 378.276 204.565C375.764 204.299 373.173 204.007 370.568 203.741C346.475 201.177 322.515 197.709 298.555 194.227C275.432 190.865 252.282 187.65 229.146 184.368C207.379 181.272 185.611 178.162 163.844 175.093C145.013 172.435 126.183 169.844 107.352 167.187C98.1029 165.884 88.8537 164.516 79.6046 163.16C76.3488 162.682 73.0929 162.217 69.8504 161.659L69.8372 161.646ZM106.648 139.96C105.585 139.801 104.628 139.668 103.605 140.305C99.5381 142.817 95.4318 145.249 91.3388 147.72C91.2059 147.8 91.2059 148.092 91.0464 148.531C107.95 150.949 124.654 153.327 141.372 155.746C156.615 157.952 171.844 160.197 187.086 162.416C202.528 164.662 217.983 166.908 233.438 169.127C250.674 171.611 267.924 174.07 285.159 176.541C302.196 178.973 319.219 181.418 336.256 183.836C350.342 185.829 364.389 188.088 378.409 190.493C383.844 191.437 389.319 192.181 394.661 193.629C395.591 193.882 396.282 193.775 397.027 193.297C402.382 189.869 407.737 186.441 413.359 182.853C412.03 181.963 410.781 182.029 409.598 181.909C391.1 180.049 372.654 177.79 354.262 175.119C338.608 172.861 322.927 170.695 307.259 168.462C293.385 166.482 279.512 164.449 265.638 162.469C249.757 160.211 233.89 157.965 218.01 155.733C202.236 153.514 186.462 151.321 170.688 149.102C154.807 146.87 138.927 144.611 123.06 142.352C117.598 141.568 112.123 140.771 106.661 139.947L106.648 139.96ZM483.299 132.864C450.488 116.108 417.664 99.3792 384.854 82.61C382.541 81.4274 380.136 80.8162 377.585 80.4574C361.917 78.2649 346.249 75.9927 330.581 73.7604C316.495 71.7539 302.395 69.7342 288.309 67.741C272.322 65.4821 256.335 63.2498 240.349 60.9775C238.316 60.6852 236.548 60.6852 234.595 61.8678C210.422 76.4844 186.169 90.9813 161.943 105.518C161.319 105.89 160.734 106.315 159.831 106.927C162.821 107.963 165.651 107.99 168.389 108.388C193.292 112.042 218.209 115.63 243.126 119.231C265.837 122.513 288.548 125.769 311.246 129.037C335.738 132.572 360.229 136.16 384.734 139.628C402.09 142.086 419.445 144.451 436.721 147.441C444.149 148.717 451.578 150.032 458.98 151.427C460.216 151.667 461.159 151.64 462.249 150.922C470.156 145.74 478.076 140.585 486.196 135.735C486.448 135.575 486.621 135.283 486.847 135.03C485.784 134.06 484.522 133.502 483.299 132.878V132.864Z" fill="#0D070B"/>
<path d="M418.794 86.9951C418.515 86.8489 418.249 86.6762 417.983 86.5034C415.02 84.6299 411.91 83.022 408.734 81.5338C398.448 76.7103 388.774 70.7176 378.555 65.7878C376.734 64.9108 375.073 63.7415 373.718 62.2134C372.827 61.2168 372.336 60.0608 373.053 58.7187C373.691 57.5361 374.794 57.2438 376.136 57.2969C378.395 57.5627 380.548 58.4928 382.568 59.6621C388.987 63.396 395.565 66.8508 402.156 70.2791C408.84 73.7472 415.06 78.0391 421.943 81.1618C423.963 82.0786 424.561 84.2977 423.565 85.9719C422.621 87.5664 420.761 87.9651 418.807 86.9951H418.794Z" fill="#0D070B"/>
<path d="M459.312 179.558C468.734 173.578 478.143 167.585 487.605 161.686C492.296 158.762 497.053 155.959 501.85 153.221C504.694 151.6 506.116 152.331 506.874 155.493C507.046 156.211 507.126 156.955 507.286 157.912C506.834 161.008 505.638 163.719 502.621 165.592C490.887 172.887 479.485 180.687 467.339 187.304C463.299 189.51 461.478 189.311 458.435 185.922C455.578 182.747 455.684 181.87 459.312 179.571V179.558ZM467.046 183.464C477.877 175.757 489.531 169.379 500.787 162.35C503.684 160.543 503.95 159.932 503.02 155.866C488.987 165.273 474.847 173.831 460.84 182.733C463.764 185.112 464.482 185.285 467.033 183.464H467.046Z" fill="#0D070B"/>
<path d="M398.555 218.876C398.9 218.624 399.272 218.411 399.631 218.185C409.146 212.166 418.635 206.106 428.176 200.14C432.774 197.27 437.438 194.52 442.13 191.822C445.146 190.095 446.834 191.051 447.326 194.559C447.405 195.091 447.419 195.622 447.498 196.433C447.339 199.396 446.223 202.067 443.326 203.901C435.963 208.565 428.708 213.375 421.306 217.972C416.522 220.936 411.551 223.593 406.688 226.423C404.495 227.712 402.369 227.513 400.442 226.078C399.352 225.267 398.435 224.165 397.651 223.048C396.322 221.135 396.575 220.258 398.541 218.849L398.555 218.876ZM407.365 222.078C418.276 214.358 429.957 207.887 441.306 200.871C444.149 199.117 444.495 198.134 443.272 194.506C429.399 203.848 415.272 212.365 401.306 221.241C404.07 223.739 404.787 223.899 407.365 222.078Z" fill="#0D070B"/>
<path d="M58.2623 386.86C59.5646 386.78 60.6543 387.883 60.6012 389.225C60.548 390.421 59.538 391.272 58.2623 391.218C57.0131 391.165 56.0563 390.235 56.043 389.039C56.0298 387.896 56.9998 386.94 58.2756 386.86H58.2623Z" fill="#0D070B"/>
<path d="M44.9469 378.263C46.1163 378.236 47.1794 379.206 47.2591 380.362C47.3389 381.532 46.3555 382.568 45.1196 382.581C43.9103 382.595 42.8605 381.638 42.8206 380.482C42.7808 379.246 43.711 378.276 44.9469 378.25V378.263Z" fill="#0D070B"/>
<path d="M38.3554 374.011C39.5514 373.944 40.2955 374.648 40.455 375.844C40.6145 376.974 39.8038 378.037 38.7939 378.09C37.8105 378.143 36.5747 376.907 36.6145 375.844C36.6544 374.755 37.3055 374.064 38.3554 374.011Z" fill="#0D070B"/>
<path d="M51.6843 382.488C52.8537 382.329 53.8637 383.365 53.8371 384.614C53.8106 385.81 53.2524 386.581 52.1228 386.727C50.7939 386.794 49.8238 385.85 49.8105 384.601C49.8105 383.352 50.4883 382.648 51.671 382.488H51.6843Z" fill="#0D070B"/>
</g>
<defs>
<clipPath id="clip0_1_699">
<rect width="672" height="451" fill="white" transform="matrix(-1 0 0 1 553 0)"/>
</clipPath>
</defs>
</svg>
