<svg width="377" height="712" viewBox="0 0 377 712" fill="none" xmlns="http://www.w3.org/2000/svg">
<g clip-path="url(#clip0_1_836)">
<path fill-rule="evenodd" clip-rule="evenodd" d="M78.6458 250.736L78.6659 250.703L78.6483 250.739L78.6458 250.736ZM76.2614 249.759C76.9261 249.748 77.6376 249.737 78.6458 250.736C76.9346 253.596 74.7516 256.041 72.575 258.478C71.7168 259.439 70.8595 260.399 70.0326 261.383C58.534 275.087 48.5381 289.724 41.4575 306.214C39.9815 309.634 38.7044 313.16 38.5995 316.961C38.548 318.951 37.6391 319.785 35.5481 319.376C33.9119 319.062 32.268 318.807 30.6242 318.553L30.624 318.553L30.6238 318.552C27.4509 318.06 24.2786 317.568 21.1645 316.656C18.1691 315.773 16.2834 314.322 15.7846 311.299C15.2474 307.976 14.1148 304.833 12.984 301.695C12.6592 300.794 12.3347 299.893 12.0244 298.989C8.44517 288.541 8.24599 277.897 10.1328 267.178C10.3688 265.822 10.6162 264.468 10.8637 263.114C11.311 260.667 11.7583 258.22 12.1384 255.758C12.7125 252.096 15.3324 249.704 18.8038 249.65C21.8854 249.605 24.9669 249.545 28.0484 249.486C37.0355 249.313 46.0227 249.14 55.0134 249.314C57.6423 249.368 60.2738 249.429 62.906 249.49L62.9123 249.49C67.322 249.592 71.7336 249.694 76.1377 249.761C76.1788 249.76 76.22 249.76 76.2614 249.759ZM68.8711 315.233C67.2062 316.525 65.5299 317.826 64.1709 319.512L64.1532 319.548C65.1711 320.441 66.1431 320.34 67.0506 320.245C67.2598 320.224 67.4657 320.202 67.6678 320.193C69.3989 320.113 71.1249 319.983 72.8486 319.852L72.8492 319.852C74.5631 319.723 76.2747 319.594 77.9869 319.514C86.376 319.113 94.7195 319.83 103.051 320.547C105.166 320.728 107.281 320.91 109.395 321.073C111.634 321.242 113.875 321.293 116.116 321.345C118.901 321.408 121.684 321.472 124.459 321.761C134.022 322.774 143.634 323.321 153.244 323.652C156.906 323.776 160.571 323.819 164.237 323.862C167.903 323.905 171.569 323.948 175.231 324.072C177.565 324.15 179.899 324.221 182.233 324.292C191.811 324.583 201.387 324.874 210.957 325.641C218.266 326.229 218.869 325.309 220.091 318.199C220.894 313.561 220.956 308.897 221.017 304.23L221.017 304.23L221.017 304.23C221.066 300.604 221.114 296.978 221.509 293.362C221.873 290.018 222.066 286.655 222.259 283.293C222.614 277.093 222.97 270.892 224.4 264.8C224.917 262.608 224.482 260.533 223.742 258.48C223.056 256.533 221.73 255.31 219.642 255.206C218.033 255.122 216.425 254.956 214.817 254.791C211.264 254.425 207.714 254.059 204.165 254.576C199.135 255.309 194.117 255.361 189.097 255.269C185.93 255.194 183.746 256.274 181.574 258.5C171.748 268.602 160.811 277.46 149.765 286.176C147.963 287.593 146.106 288.974 143.901 289.749C140.639 290.894 138.159 289.378 137.727 285.941C137.531 284.366 137.731 282.823 138.219 281.277C139.072 278.508 140.378 275.967 141.881 273.514C145.261 268.013 149.093 262.812 153.107 257.753C153.208 257.629 153.321 257.507 153.435 257.384L153.435 257.384C153.986 256.79 154.571 256.16 153.979 255.038C152.247 254.927 150.51 254.779 148.768 254.63L148.768 254.63C145.404 254.343 142.019 254.054 138.605 254.03C136.392 254.017 134.817 254.804 133.249 256.236C119.561 268.707 105.891 281.178 92.5123 293.987C88.6302 297.705 84.6211 301.281 80.6106 304.859L80.6102 304.859L80.6097 304.86C77.6639 307.488 74.7172 310.117 71.8195 312.803C70.8901 313.666 69.8828 314.447 68.8713 315.233L68.8712 315.233L68.8711 315.233ZM126.694 301.163C123.481 303.634 119.792 305.195 116.471 305.91L116.453 305.91C112.209 306.061 109.86 303.325 110.561 299.752C111.006 297.489 111.937 295.382 113.195 293.434C120.437 282.194 129.276 272.246 138.804 262.882C138.934 262.755 139.067 262.616 139.205 262.473C140.18 261.457 141.349 260.239 142.766 261.497C144.211 262.784 143.095 264.056 142.174 265.105C142.042 265.255 141.915 265.4 141.8 265.54C141.251 266.197 140.701 266.852 140.15 267.507L140.149 267.509L140.148 267.51C136.277 272.119 132.408 276.723 129.249 281.87C127.444 284.828 125.784 287.838 125.063 291.233C124.6 293.442 124.245 295.632 126.763 297.309C128.483 298.439 128.354 299.892 126.694 301.163ZM67.8008 289.294C68.3225 287.224 69.7007 285.7 71.065 284.192C71.4186 283.8 71.7713 283.411 72.1078 283.012C78.898 275.039 84.8002 266.429 90.5394 257.714C91.3895 256.415 92.1657 254.919 92.4203 253.429C92.8789 250.79 94.4378 250.182 96.7253 250.463C100.39 250.912 104.074 251.165 107.753 251.417L107.753 251.417C112.481 251.742 117.201 252.066 121.863 252.804C122.031 253.412 121.801 253.809 121.425 254.01C114.517 257.533 108.339 262.105 102.159 266.679L102.158 266.679C100.286 268.065 98.4136 269.451 96.5203 270.808C94.5567 272.216 92.6055 273.642 90.6541 275.069C84.7435 279.391 78.8312 283.714 72.5679 287.524C72.3118 287.679 72.0586 287.844 71.8049 288.009L71.8041 288.009C70.6232 288.778 69.43 289.555 67.8735 289.364L67.819 289.311L67.8008 289.294ZM166.024 260.731C166.016 260.751 166.008 260.772 166.001 260.793L165.946 260.74C165.972 260.737 165.998 260.734 166.024 260.731ZM174.71 255.721C171.967 258.187 169.522 260.314 166.024 260.731C167.98 255.449 168.165 255.342 174.71 255.721Z" fill="#07CBAD"/>
<path fill-rule="evenodd" clip-rule="evenodd" d="M251.739 707.777C234.309 708.01 216.874 707.651 199.866 703.399C193.423 701.787 187.061 699.862 180.699 697.938L180.694 697.936C176.053 696.532 171.411 695.128 166.739 693.846C157.304 691.254 147.732 689.327 137.989 688.298C133.144 687.783 128.316 688.122 123.492 688.46L123.489 688.461C121.572 688.595 119.655 688.73 117.738 688.81C115.83 688.892 113.917 689.693 112.07 690.466L112.061 690.47C111.77 690.592 111.48 690.713 111.192 690.831C97.3619 696.439 82.8024 697.61 68.0952 698.424C57.3073 699.009 46.5943 698.41 35.8752 697.811L35.8725 697.811L35.8631 697.81C32.8125 697.64 29.7614 697.469 26.708 697.326C8.99762 696.486 -8.68388 696.703 -26.3345 698.175C-27.2287 698.25 -28.1197 698.356 -29.0091 698.462L-29.0103 698.463C-31.9644 698.815 -34.9013 699.165 -37.8817 698.383C-38.7029 698.162 -39.4823 698.457 -40.2642 698.754L-40.2652 698.754C-40.5823 698.874 -40.8998 698.994 -41.2206 699.08C-41.7134 699.218 -42.203 699.369 -42.6917 699.52C-43.8574 699.881 -45.0183 700.24 -46.2081 700.404C-50.8427 701.061 -53.4939 698.651 -54.045 694.032C-54.6943 688.608 -54.7315 683.232 -54.4454 677.799C-54.0678 670.769 -54.7333 663.768 -56.0099 656.828C-57.8373 647.043 -57.8487 637.168 -57.5547 627.253C-57.0679 611.205 -56.7853 595.158 -56.5027 579.112C-56.4497 576.103 -56.3967 573.095 -56.3424 570.086C-56.1925 562.017 -56.2556 553.947 -56.3187 545.877C-56.4068 534.602 -56.4949 523.326 -56.0025 512.05C-55.3635 497.31 -56.296 482.608 -57.2287 467.902C-57.4851 463.86 -57.7414 459.818 -57.9652 455.776C-59.3346 431.021 -60.5962 406.247 -59.9514 381.436C-59.6662 370.661 -58.4623 360.003 -56.4301 349.426C-55.8721 346.514 -55.4707 343.569 -55.0694 340.623C-54.8321 338.882 -54.5949 337.141 -54.3253 335.407C-54.0381 333.594 -54.2649 332.521 -56.5162 332.275C-60.8745 331.8 -64.245 329.415 -67.1558 326.255C-68.2227 325.094 -69.3296 323.967 -70.4357 322.842C-71.1402 322.124 -71.8445 321.407 -72.5379 320.682C-77.8299 315.127 -80.2877 308.772 -78.4241 301.046C-77.7884 298.426 -77.5192 295.749 -77.2492 293.064C-77.1601 292.177 -77.0708 291.29 -76.9682 290.403C-76.7201 288.286 -77.4327 287.218 -79.293 286.502C-82.4751 285.267 -85.6503 283.995 -88.8227 282.724L-88.8305 282.72L-88.8308 282.72C-90.5894 282.016 -92.3471 281.311 -94.1048 280.614C-94.4389 280.483 -94.7773 280.361 -95.1157 280.239C-95.4544 280.117 -95.7931 279.995 -96.1273 279.864C-102.285 277.561 -102.889 276.546 -100.615 270.34C-93.5968 251.234 -86.2538 232.268 -77.4296 213.897C-71.212 200.965 -66.1505 187.56 -61.5226 173.981C-60.4764 170.913 -59.2953 167.89 -58.1138 164.866C-56.9682 161.934 -55.8223 159.001 -54.7989 156.026C-54.3056 154.574 -53.8816 153.101 -53.4577 151.627C-52.6214 148.721 -51.7852 145.815 -50.4164 143.077C-49.2924 140.82 -47.7504 138.89 -46.203 136.953L-46.2028 136.953C-45.7119 136.338 -45.2205 135.723 -44.7417 135.097C-41.2546 130.575 -36.4826 128.358 -31.6704 126.122C-31.2152 125.911 -30.7596 125.699 -30.3047 125.486C-23.6968 122.392 -17.3531 118.821 -11.0072 115.249L-11.007 115.249C-7.4667 113.257 -3.92573 111.263 -0.337786 109.352C5.28019 106.356 11.1025 103.984 17.3128 102.612C22.1052 101.559 26.6935 99.8988 31.152 97.8636C36.1299 95.6081 41.2933 93.8883 46.5853 92.4361C47.8138 92.1033 48.9764 91.5551 50.1397 91.0065L50.14 91.0064C50.9301 90.6338 51.7206 90.261 52.5324 89.9555C56.7437 88.371 59.4683 89.1674 62.0081 92.9947C62.887 94.3121 63.7035 94.0503 64.6727 93.7395C64.7512 93.7143 64.8307 93.6889 64.9113 93.6639C74.5589 90.6614 84.4904 89.0361 94.5187 88.0729C102.534 87.3096 110.568 86.564 118.627 86.553C121.646 86.5397 121.649 86.4526 121.723 83.6379L121.726 83.5282C121.77 82.0934 121.814 80.658 121.857 79.2221C122.026 73.6423 122.195 68.0558 122.41 62.4802C122.637 56.5634 123.257 55.6789 128.98 54.1326C138.219 51.6541 143.155 45.3126 145.115 36.3851C146.06 32.0919 145.602 27.831 143.618 23.8009C138.694 13.7791 127.384 10.7408 118.13 17.0548C112.878 20.6394 109.944 25.7775 108.622 31.8847C108.542 32.2605 108.476 32.6393 108.409 33.0177L108.409 33.0181C108.203 34.195 107.997 35.3677 107.409 36.4315C106.49 38.0898 105.096 38.9464 103.17 38.787C101.405 38.6617 100.28 37.6875 99.5623 36.1177C99.0101 34.9047 98.8891 33.6334 98.9299 32.3426C99.3422 19.936 109.234 7.39631 121.27 3.99298C132.732 0.756845 144.909 5.84731 150.773 16.3076C159.313 31.5616 153.782 51.817 138.653 60.6288C136.543 61.8691 134.323 62.8597 131.918 63.4579C128.563 64.2989 128.527 64.353 128.65 67.5778C128.722 69.5256 128.816 71.4733 128.911 73.42L128.911 73.422C129.08 76.918 129.25 80.4113 129.286 83.8986C129.308 86.0491 130.14 86.4707 132.101 86.5044C144.755 86.7334 157.323 87.963 169.893 89.1928C173.642 89.5595 177.391 89.9263 181.143 90.2666C181.511 90.3013 181.875 90.3413 182.237 90.3812C184.068 90.5827 185.842 90.778 187.835 90.2338C190.562 89.4889 193.521 90.4263 196.197 91.6714C196.326 91.7311 196.456 91.791 196.585 91.8509C199.454 93.179 202.312 94.502 205.632 94.245C206.962 94.1417 208.262 94.6481 209.225 95.5165C211.108 97.2279 213.413 97.9893 215.726 98.753C215.999 98.8434 216.273 98.9338 216.546 99.0258C223.081 101.235 229.424 103.966 235.713 106.787C241.79 109.506 248.027 111.813 254.266 114.12L254.266 114.12L254.267 114.12C259.884 116.197 265.502 118.274 271.007 120.655C276.699 123.124 281.698 126.388 285.793 131.006C286.559 131.873 287.491 132.505 288.427 133.14C289.024 133.545 289.623 133.951 290.181 134.42C299.635 142.316 308.018 151.12 313.333 162.374C317.011 170.186 321.51 177.381 326.708 184.335C333.749 193.744 339.611 204.007 345.007 214.454C352.771 229.501 361.143 244.201 370.731 258.172C372.557 260.842 372.462 262.061 370.208 265.096C366.571 269.972 361.97 273.89 357.277 277.684C353.571 280.68 349.846 283.657 346.12 286.634C341.651 290.206 337.181 293.778 332.744 297.382C325.375 303.372 320.057 310.99 315.554 319.227C314.088 321.912 313.525 324.839 313.502 327.922C313.479 330.933 312.325 332.361 309.564 333.303C303.881 335.226 294.682 332.811 290.858 328.334C289.001 326.166 288.29 323.557 288.244 320.761C288.207 318.786 288.185 316.811 288.163 314.835C288.136 312.367 288.108 309.898 288.053 307.429C288.046 307.144 288.083 306.837 288.121 306.526C288.241 305.549 288.365 304.533 287.118 304.016C286.755 303.862 286.394 303.691 286.033 303.52L286.033 303.52C284.707 302.891 283.37 302.258 281.831 302.457C280.709 302.594 280.833 303.413 280.946 304.157L280.946 304.158C280.962 304.259 280.977 304.359 280.988 304.455C281.248 306.476 281.495 308.502 281.741 310.528L281.742 310.531C282.292 315.051 282.842 319.575 283.546 324.072C286.26 341.375 287.662 358.763 288.112 376.287C288.555 393.2 288.522 410.113 288.489 427.027L288.489 427.03C288.455 443.945 288.422 460.859 288.865 477.774C289.163 489.008 289.636 500.24 290.109 511.474L290.109 511.474L290.109 511.475C290.849 529.033 291.588 546.593 291.659 564.167C291.765 590.279 293.291 616.305 294.836 642.348C295.228 648.957 294.665 655.523 294.049 662.089C293.529 667.525 293.405 672.938 294.252 678.378C295.505 686.484 294.65 694.361 291.238 701.923C290.341 703.904 289.219 705.081 286.94 705.57C281.573 706.718 276.239 707.669 270.716 707.6C266.282 707.546 261.85 707.614 257.418 707.682C255.519 707.711 253.62 707.74 251.721 707.759L251.739 707.777ZM71.6803 163.052L72.4903 163.67C72.3731 163.259 72.0793 163.088 71.6803 163.052ZM72.658 163.815L73.3762 164.516C73.307 164.11 73.0775 163.866 72.658 163.815ZM73.8738 164.984C73.7623 164.879 73.6508 164.774 73.5371 164.668C73.9078 164.719 74.1272 164.933 74.2038 165.294C74.0924 165.191 73.9831 165.088 73.8738 164.984ZM74.3931 165.475L75.1308 166.21C75.0871 165.759 74.8378 165.507 74.3931 165.475ZM75.2694 166.346L76.0028 167.062C75.9578 166.62 75.7027 166.381 75.2694 166.346ZM76.1369 167.196L76.8721 167.944C76.8849 167.446 76.6133 167.224 76.1369 167.196ZM76.9832 168.055L77.7517 168.805C77.8128 168.233 77.52 168.032 76.9832 168.055ZM77.8437 168.902L78.5792 169.715C78.7441 169.067 78.4456 168.845 77.8437 168.902ZM78.6747 169.803L78.6288 169.764C79.2082 169.49 79.6826 169.749 80.1587 170.01C80.3032 170.089 80.4479 170.168 80.5956 170.232C79.8224 170.761 79.2447 170.279 78.6747 169.803ZM80.7214 170.323C81.0553 172.648 82.4952 173.652 84.7649 173.696C83.417 172.566 82.0691 171.437 80.7214 170.323ZM89.9299 177.338C87.708 176.957 85.7919 176.162 84.9962 173.851C85.3173 174.019 85.6443 174.178 85.9717 174.338L85.9724 174.339C87.4749 175.073 88.9862 175.812 89.9833 177.284C90.3793 177.298 90.7041 177.402 90.7983 177.813C90.8168 177.867 90.6206 178.03 90.5127 178.031C90.081 178.035 89.8984 177.768 89.9299 177.338ZM66.7513 156.116L67.167 157.785C67.2545 157.178 67.006 156.646 66.7513 156.116ZM68.2174 158.874C67.9422 158.519 67.6664 158.164 67.2952 157.935C68.2503 157.9 68.7254 158.535 69.1988 159.168C69.4423 159.494 69.6855 159.819 69.9932 160.052C69.1219 160.038 68.6706 159.457 68.2176 158.874L68.2174 158.874ZM65.945 155.201C66.1197 155.402 66.2947 155.604 66.5066 155.753C65.832 155.755 65.4611 155.304 65.0904 154.854C64.9668 154.704 64.8433 154.554 64.7085 154.421C65.2845 154.441 65.614 154.82 65.9448 155.201L65.945 155.201ZM64.5374 154.221C64.4779 153.13 64.1432 152.231 62.934 151.926L64.5374 154.221ZM62.8117 151.751C62.8098 150.576 62.5108 149.599 61.1549 149.37L62.8117 151.751ZM61.0558 149.218C61.1551 148.35 61.115 147.519 59.8108 147.089L61.0558 149.218ZM80.5929 101.844L80.5575 101.798C81.6978 101.403 82.5483 101.991 83.3964 102.578C83.5442 102.68 83.6918 102.782 83.8409 102.879C100.176 109.934 117.229 113.326 135.035 113.017C140.503 112.908 145.928 112.189 151.444 111.433C146.539 115.588 129.458 118.218 116.061 116.94C103.726 115.758 92.6189 111.553 82.8793 103.839C81.8541 103.487 81.224 102.666 80.5929 101.844ZM336.274 257.45L336.615 257.327C338.886 256.504 341.15 255.683 342.948 253.941C340.344 254.433 337.943 255.318 336.092 257.309C334.888 257.429 333.83 257.726 333.289 259.363C333.618 259.28 333.946 259.23 334.256 259.182C335.349 259.015 336.236 258.878 336.292 257.468L336.274 257.45ZM-23.4311 674.326C-22.9636 674.238 -22.4643 674.318 -21.9664 674.399C-20.9727 674.56 -19.9845 674.72 -19.2657 673.531C-19.2126 673.44 -19.2152 673.19 -19.2877 673.136C-20.262 672.35 -21.1853 672.667 -22.1111 672.984C-22.5815 673.145 -23.0526 673.306 -23.5313 673.323L-23.9052 673.374C-26.6575 673.743 -29.4491 674.117 -32.7716 675.694C-28.9951 675.566 -26.1939 675.071 -23.4311 674.326ZM58.6709 145.161C58.6587 145.117 58.6465 145.073 58.6318 145.034L59.1074 145.161C58.7873 145.58 58.7294 145.371 58.6709 145.161ZM54.6415 136.743C56.0925 139.262 57.5422 141.78 58.354 144.611C55.6883 140.616 53.6008 136.326 52.0083 131.792C52.7734 133.499 53.7077 135.121 54.6414 136.743L54.6415 136.743ZM105.26 184.654C105.589 184.685 105.911 184.816 106.234 184.946C106.921 185.224 107.611 185.503 108.374 184.837C108.005 183.847 107.212 183.753 106.423 183.66C106.145 183.627 105.867 183.594 105.608 183.522C104.724 183.185 103.839 182.853 102.956 182.522L102.954 182.521C101.457 181.959 99.9623 181.399 98.4747 180.817C96.8792 180.205 95.3027 179.565 93.7243 178.923C93.1407 178.686 92.5569 178.449 91.9717 178.213C95.9629 181.47 100.392 183.557 105.26 184.654ZM44.8654 108.907C44.7029 107.997 44.5743 107.078 44.4456 106.158C44.0454 103.299 43.6439 100.429 42.2148 97.786C41.8629 101.18 42.6532 104.404 43.4436 107.627L43.4437 107.628C43.5725 108.153 43.7012 108.678 43.8251 109.204C45.2655 116.34 47.9607 123.034 51.122 129.579C49.3043 125.053 48.0331 120.358 46.7638 115.671L46.7637 115.671L46.7634 115.67C46.1507 113.407 45.5385 111.146 44.8654 108.907ZM267.733 686.913C276.666 687.86 287.461 686.262 290.235 683.133C289.491 683.236 288.792 683.312 288.127 683.385L288.126 683.385C286.785 683.532 285.584 683.664 284.433 683.963C281.912 684.64 279.325 684.925 276.739 685.21C273.767 685.537 270.796 685.865 267.93 686.785C267.817 686.302 267.456 686.145 267.043 686.257C266.881 686.294 266.651 686.673 266.688 686.744C266.962 687.136 267.339 687.078 267.733 686.913ZM155.063 671.007C158.702 671.817 162.353 672.614 165.995 673.409L168.009 673.849C169.209 674.114 170.394 674.455 171.58 674.797L171.582 674.797C174.458 675.626 177.336 676.455 180.428 676.195C172.106 673.449 163.735 671.061 155.051 669.842C148.972 668.149 142.73 667.544 136.489 666.94L136.488 666.939C135.21 666.816 133.933 666.692 132.657 666.559C132.098 666.493 131.486 666.428 130.966 666.576C130.625 666.669 130.252 667.103 130.147 667.463C130.043 667.858 130.407 668.231 130.84 668.316C131.543 668.452 132.246 668.588 132.948 668.617C138.594 668.763 144.173 669.531 149.751 670.298L149.753 670.299C151.517 670.541 153.28 670.784 155.045 671.007L155.063 671.007ZM256.907 686.204L256.908 686.203C257.185 686.163 257.463 686.122 257.74 686.083L251.058 685.238C247.125 684.47 243.16 684.027 239.188 683.584L239.16 683.581C238.298 683.485 237.436 683.389 236.574 683.289C219.626 681.331 202.728 679.031 185.864 676.48C185.436 676.414 185.007 676.326 184.577 676.237C183.232 675.96 181.867 675.679 180.427 676.087C180.488 676.217 180.537 676.35 180.582 676.471C180.673 676.715 180.747 676.914 180.867 676.961C181.95 677.308 183.051 677.638 184.169 677.877C194.663 680.243 205.277 681.98 215.975 683.196C218.341 683.466 220.705 683.755 223.07 684.045C232.371 685.182 241.678 686.32 251.087 686.295L251.068 686.277C253.026 686.775 254.961 686.49 256.907 686.204ZM189.554 683.805L189.561 683.807C190.852 684.124 192.137 684.44 193.449 684.682C215.656 688.899 238.106 690.604 260.684 690.713C261.819 690.719 262.955 690.729 264.09 690.739L264.091 690.739C272.138 690.809 280.202 690.879 288.197 689.588C288.28 689.575 288.364 689.564 288.448 689.552L288.45 689.552C289.255 689.441 290.055 689.331 289.946 688.262C289.841 687.101 289.091 687.286 288.356 687.467L288.354 687.468C288.239 687.496 288.125 687.524 288.014 687.547C282.233 688.682 276.357 689.333 270.476 689.447C247.598 689.897 224.89 687.729 202.229 684.771C200.654 684.564 199.088 684.286 197.522 684.008L197.521 684.008L197.52 684.008C194.431 683.46 191.341 682.911 188.178 682.908C188.115 682.84 188.058 682.755 188.002 682.67C187.896 682.512 187.792 682.356 187.651 682.322C184.831 681.652 182.01 680.99 179.187 680.328C174.626 679.258 170.062 678.188 165.506 677.083C160.185 675.793 154.78 675.006 149.664 674.306C152.024 674.96 154.429 675.632 156.863 676.313L156.864 676.314C160.608 677.361 164.421 678.428 168.247 679.474C174.741 681.236 181.373 682.386 188.004 683.447L188.004 683.429C188.523 683.552 189.039 683.679 189.554 683.805ZM-6.03906 666.152C-7.4359 666.407 -8.86349 666.668 -10.3361 666.933C-10.1678 665.58 -10.0136 664.26 -9.86204 662.964C-9.53578 660.172 -9.22209 657.488 -8.80789 654.82C-7.91504 649.165 -7.36816 643.464 -6.8213 637.764C-6.09561 630.199 -5.36993 622.634 -3.83582 615.178C-2.13909 606.97 -1.81034 598.686 -1.85969 590.371C-1.90791 583.919 -2.40582 577.472 -4.43029 571.274C-4.53078 570.962 -4.62147 570.628 -4.71387 570.288C-5.2024 568.492 -5.73863 566.52 -8.02278 566.544C-10.4449 566.568 -10.7823 568.603 -11.0844 570.425C-11.1412 570.768 -11.1968 571.103 -11.2649 571.416C-13.9064 583.743 -17.6853 595.749 -21.4628 607.751L-21.4634 607.753C-23.234 613.379 -25.0044 619.004 -26.6572 624.66C-29.716 635.122 -32.775 645.567 -35.8881 655.994C-35.96 656.243 -36.0188 656.5 -36.0781 656.759C-36.3054 657.753 -36.5414 658.785 -37.5603 659.577C-39.4063 658.763 -39.9748 657.026 -40.5251 655.344C-40.5782 655.182 -40.6311 655.02 -40.685 654.86C-41.9838 651.002 -42.1691 646.972 -42.1384 642.957C-41.9715 624.154 -40.5624 605.447 -38.1993 586.801C-37.1762 578.596 -36.9093 570.331 -36.6429 562.08L-36.624 561.496C-36.3851 554.408 -36.1014 547.321 -35.8177 540.233L-35.8176 540.232C-35.1843 524.41 -34.5509 508.586 -34.4153 492.741C-34.3113 481.843 -33.0733 471.005 -31.475 460.217C-30.7481 455.314 -30.0432 450.405 -29.3381 445.496C-27.8234 434.95 -26.3081 424.399 -24.5747 413.889C-21.6619 396.205 -17.2348 378.847 -11.3282 361.903L-11.1981 361.532C-9.77218 357.464 -8.3435 353.389 -7.93407 349.054C-7.44741 343.887 -8.45022 339.076 -11.5165 334.788C-13.8525 331.532 -16.9099 329.861 -21.0469 329.922C-26.7666 330.016 -27.0579 329.679 -26.7583 323.815C-26.2482 313.916 -24.8737 304.117 -22.652 294.47C-20.2549 284.084 -19.2626 273.542 -18.2686 262.981L-18.268 262.974C-18.148 261.699 -18.028 260.424 -17.9054 259.149C-16.4908 244.492 -17.4138 229.931 -18.5887 215.354C-19.1778 208.046 -21.3707 201.025 -23.5427 194.072C-23.8029 193.239 -24.0628 192.407 -24.3196 191.576C-27.799 180.338 -30.7578 168.988 -33.5911 157.6C-35.3545 150.539 -37.4758 143.679 -40.5116 137.097C-41.1373 135.723 -40.8925 135.039 -39.5495 134.434C-38.0852 133.769 -36.6402 133.057 -35.1924 132.343L-35.1919 132.343C-33.8071 131.661 -32.4198 130.977 -31.0106 130.332C-21.5743 126.023 -12.5044 121.073 -3.59966 115.802C4.23223 111.17 12.4153 107.447 21.4274 105.634C25.8079 104.765 30.0016 103.216 34.0293 101.275C34.2398 101.171 34.447 101.056 34.6558 100.939C35.4415 100.501 36.2505 100.05 37.346 100.166C38.1702 101.544 38.4444 103.124 38.7177 104.699L38.7178 104.699C38.8329 105.363 38.9479 106.025 39.1038 106.672C42.7705 122.137 48.4433 136.757 57.0184 150.201C63.7285 160.724 71.9175 169.852 82.1382 177.113C107.182 194.922 136.486 194.747 161.758 176.923C177.082 166.12 187.617 151.441 195.74 134.833C198.947 128.241 201.611 121.439 203.608 114.393C204.509 111.219 205.255 108.013 205.99 104.856L205.99 104.855L205.992 104.846C206.318 103.447 206.641 102.057 206.975 100.683C226.408 106.362 244.607 114.456 262.752 122.657C266.277 124.252 269.906 125.613 273.676 126.614C276.31 127.321 278.786 128.461 281.076 130.714C278.948 133.693 277.11 136.848 275.705 140.25C272.826 147.179 271.119 154.366 270.098 161.796C269.799 163.971 269.472 166.143 269.145 168.315L269.145 168.316C268.427 173.08 267.71 177.846 267.29 182.651C267.226 183.494 267.056 184.41 266.631 185.113C262.596 191.884 261.259 199.442 259.924 206.993L259.922 207.008C259.789 207.757 259.657 208.507 259.521 209.256C255.063 234.071 254.402 259.097 255.685 284.211C255.901 288.449 256.102 292.69 256.302 296.932L256.302 296.934C256.583 302.858 256.863 308.782 257.185 314.7C257.342 317.691 257.679 320.699 258.087 323.67C259.801 336.431 258.726 349.149 257.543 361.85C255.774 380.561 254.87 399.318 254.594 418.085C254.349 434.469 252.788 450.669 249.913 466.793C249.085 471.478 248.487 476.208 247.889 480.937L247.889 480.939C247.445 484.456 247 487.973 246.461 491.472C244.639 503.247 241.59 514.713 237.929 526.06C236.043 531.901 234.285 537.783 232.526 543.665L232.525 543.668L232.525 543.669C229.033 555.35 225.541 567.03 221.052 578.387C213.88 596.509 206.546 614.56 197.187 631.719C197.043 631.985 196.899 632.251 196.755 632.517C195.123 635.535 193.493 638.549 191.022 641.012C189.331 642.696 187.492 644.041 184.91 643.136C182.563 642.299 181.125 640.719 180.685 638.179C180.643 637.946 180.599 637.715 180.555 637.483C180.223 635.736 179.894 634.009 180.336 632.232C182.226 624.593 183.224 616.823 184.222 609.052L184.222 609.05C184.738 605.031 185.254 601.013 185.894 597.011C187.579 586.483 188.648 575.883 189.716 565.281L189.716 565.28C190.63 556.213 191.544 547.145 192.845 538.118C193.299 535.013 193.572 531.838 193.072 528.689C193.062 528.627 193.053 528.565 193.044 528.504L193.015 528.309C192.884 527.431 192.753 526.552 192.43 525.756C191.341 523.043 189.301 522.365 186.98 524.109C185.267 525.399 183.754 526.974 182.313 528.566C175.482 536.056 170.208 544.552 166.184 553.841C160.812 566.23 156.725 579.075 152.641 591.912L152.641 591.913C152.209 593.27 151.777 594.628 151.343 595.986C147.199 608.987 142.663 621.847 138.126 634.71L138.125 634.713C135.182 643.055 132.239 651.398 129.403 659.782C129.346 659.952 129.293 660.122 129.239 660.292C128.75 661.849 128.289 663.317 125.821 663.116C119.038 662.573 112.254 662.809 105.468 663.046L105.462 663.046C102.326 663.155 99.1884 663.264 96.0503 663.296C93.5428 663.325 91.035 663.364 88.5272 663.403C73.9268 663.631 59.3247 663.859 44.7663 661.959C30.6254 660.096 16.6342 662.301 2.7158 664.595C-0.155061 665.077 -3.0255 665.601 -6.03906 666.152ZM305.142 307.379L306.165 307.064C306.153 305.936 306.123 304.807 306.093 303.68L306.093 303.679C306.025 301.118 305.956 298.559 306.105 296.007C306.425 290.376 305.99 284.788 304.747 279.353C302.393 269.107 301.225 258.706 300.56 248.282C299.674 234.561 299.037 220.829 298.4 207.1L298.4 207.094C298.114 200.933 297.828 194.772 297.519 188.614C297.395 186.118 297.478 183.628 297.561 181.137C297.66 178.192 297.758 175.245 297.514 172.286C297.307 169.672 299.103 167.646 301.275 167.194C303.681 166.703 305.471 167.617 306.829 170.219C307.416 171.36 307.933 172.574 308.251 173.807C309.617 178.937 310.785 184.122 311.128 189.424C311.203 190.581 311.277 191.738 311.351 192.894C312.035 203.609 312.719 214.307 314.209 224.968C315.461 233.98 316.164 243.074 316.866 252.146L316.866 252.146L316.963 253.391C316.991 253.758 317.02 254.126 317.048 254.493C317.298 257.824 317.443 257.895 320.723 256.75C323.358 255.827 326.013 255.029 328.688 256.238C330.405 257.009 331.587 256.567 332.98 255.513C337.371 252.206 342.368 250.004 347.529 248.123C349.568 247.373 351.697 247.022 353.782 246.679C354.72 246.524 355.65 246.371 356.558 246.184C356.76 245.047 356.268 244.355 355.809 243.71C355.688 243.54 355.569 243.373 355.466 243.202C351.641 236.789 348.03 230.285 344.687 223.616C336.515 207.319 327.43 191.551 316.611 176.84C314.641 174.154 313.136 171.248 311.792 168.233C307.631 158.956 301.845 150.825 294.576 143.73C293.761 142.929 292.934 142.139 292.107 141.348C289.819 139.161 287.529 136.972 285.469 134.558C285.337 134.399 285.219 134.21 285.098 134.017C284.705 133.386 284.284 132.711 283.24 132.914C280.209 139.074 277.376 145.323 275.448 151.974C272.06 163.64 270.815 175.589 270.795 187.669C270.774 202.33 271.458 216.967 272.143 231.603L272.238 233.643C272.336 235.669 272.573 237.684 272.808 239.696L272.809 239.7C272.902 240.498 272.996 241.296 273.081 242.094C273.919 239.666 274.272 237.261 274.464 234.857C275.382 222.714 276.895 210.637 278.696 198.575C279.369 194.033 280.547 189.594 281.761 185.173C282.056 184.077 282.458 182.961 283.078 182.023C284.531 179.839 286.814 179.708 288.454 181.753C289.238 182.73 289.79 183.961 290.252 185.157C292.064 189.942 292.439 194.903 292.005 199.961C291.411 206.957 290.835 213.953 290.656 220.98C290.373 232.023 289.371 243.02 288.17 253.983C287.31 261.878 287.133 269.785 286.957 277.697L286.957 277.697L286.957 277.703C286.894 280.524 286.831 283.346 286.737 286.169C286.657 288.822 287.501 290.426 290.207 291.169C292.912 291.911 295.083 293.574 297.256 295.238C298.17 295.938 299.084 296.638 300.038 297.27C300.871 297.835 301.688 298.615 301.089 299.768C300.561 300.799 299.659 300.639 298.775 300.483C298.698 300.47 298.622 300.456 298.546 300.444C298.502 300.436 298.458 300.429 298.415 300.423C298.189 300.385 297.965 300.32 297.736 300.253C297.033 300.047 296.282 299.828 295.284 300.365C299.241 302.009 302.271 304.595 305.178 307.343L305.142 307.379ZM-38.3961 288.896C-38.3079 288.772 -38.2161 288.658 -38.1278 288.547C-37.9321 288.302 -37.7537 288.079 -37.6695 287.831C-34.2799 278.046 -31.9724 268.004 -30.8366 257.723C-29.4211 244.894 -28.9418 232.003 -28.6963 219.114C-28.3818 202.425 -29.8285 185.915 -33.5578 169.608C-34.1189 167.156 -34.9125 164.779 -35.7054 162.403C-36.5894 159.755 -37.4725 157.11 -38.0317 154.366C-38.9787 149.734 -40.0872 145.139 -41.2136 140.563C-41.2506 140.412 -41.275 140.248 -41.3002 140.078C-41.4159 139.3 -41.5482 138.41 -42.9825 138.233C-43.2936 138.74 -43.6245 139.259 -43.9621 139.788C-44.5846 140.763 -45.2296 141.774 -45.8138 142.814C-49.5768 149.52 -52.707 156.524 -54.7722 163.894C-55.0145 164.764 -55.3636 165.582 -55.7142 166.402C-56.1669 167.462 -56.622 168.528 -56.8531 169.722C-57.3213 172.09 -57.2113 174.387 -57.1008 176.692C-57.058 177.586 -57.0151 178.482 -57.0058 179.384C-56.9308 186.695 -57.81 193.927 -59.4273 201.112C-59.9368 203.372 -60.454 205.631 -60.9711 207.889L-60.9712 207.889C-64.1914 221.952 -67.4133 236.022 -68.8151 250.46C-69.3758 256.301 -69.79 262.151 -70.2044 268.003C-70.5587 273.007 -70.9132 278.013 -71.3594 283.015C-71.4076 283.571 -71.4197 284.145 -71.0392 284.41C-59.5507 281.998 -48.7243 283.428 -38.3957 288.932L-38.3961 288.896ZM124.013 672.741C121.798 672.178 119.969 672.31 118.222 672.437C117.991 672.454 117.762 672.47 117.534 672.485C99.2679 673.569 81.0071 673.433 62.7254 673.012C45.3073 672.599 27.9132 672.778 10.5533 674.533C3.54473 675.25 -3.44346 676.2 -10.3938 677.329C-10.4949 677.345 -10.596 677.361 -10.6967 677.377C-11.7398 677.539 -12.7292 677.692 -13.0932 678.987C-13.6376 680.929 -14.2081 682.871 -14.7805 684.82C-15.0293 685.667 -15.2784 686.514 -15.5258 687.364C-14.2979 687.653 -13.3522 687.439 -12.4523 687.235C-12.2288 687.184 -12.0082 687.134 -11.7868 687.093C3.94063 684.028 19.81 682.521 35.8456 683.199C40.5897 683.396 45.3309 683.677 50.0718 683.958L50.0756 683.958C55.6748 684.29 61.2736 684.621 66.8762 684.816C68.144 684.86 69.4119 684.906 70.6797 684.951C84.5107 685.448 98.3417 685.945 112.154 684.638C112.398 684.615 112.668 684.614 112.941 684.613C113.617 684.61 114.309 684.607 114.651 684.272C115.201 683.738 115.763 683.213 116.326 682.686C119.302 679.901 122.33 677.068 123.995 672.741L124.013 672.741ZM81.763 96.7349C85.9142 99.8108 90.3421 101.809 94.9806 103.284C118.444 110.822 141.97 110.365 165.503 103.582C168.498 102.709 170.709 100.751 173.325 97.9818C142.431 92.2231 112.124 92.7313 81.763 96.7349ZM63.429 105.239C63.5685 106.065 63.705 106.804 63.8312 107.488L63.8313 107.488C64.0689 108.775 64.2702 109.865 64.3872 110.964C64.7643 114.402 66.4236 116.571 69.7301 117.971C75.4397 120.404 81.2184 122.549 87.2761 123.831C108.82 128.395 130.565 129.677 152.47 127.284C159.909 126.473 167.178 124.875 174.109 121.775C180.716 118.821 183.29 113.669 183.581 106.927C183.003 106.718 182.662 106.829 182.287 107.102C177.465 110.557 172.441 113.53 166.294 114.041C165.344 114.122 164.399 114.684 163.543 115.194L163.535 115.198C158.277 118.227 152.633 120.436 146.932 122.34C123.285 130.254 101.32 126.734 81.0947 112.245C80.8074 112.038 80.5324 111.805 80.2563 111.572L80.256 111.571C79.5395 110.965 78.816 110.352 77.8534 110.181C74.0108 109.541 70.4515 108.082 66.5889 106.499C65.5607 106.077 64.511 105.647 63.4288 105.221L63.429 105.239ZM126.613 666.675C125.274 665.826 123.743 665.805 122.254 665.784L122.238 665.784C122.062 665.781 121.886 665.779 121.711 665.775C121.398 665.768 121.085 665.761 120.772 665.754C117.211 665.672 113.625 665.59 110.072 665.841C100.614 666.505 91.1417 666.584 81.6667 666.664L81.6635 666.664C77.0569 666.703 72.4497 666.742 67.8431 666.848C64.5518 666.917 61.2237 666.916 57.9464 666.609C41.7393 665.001 25.5614 664.486 9.43866 667.59C5.24239 668.398 1.0029 669.018 -3.23871 669.637L-3.23985 669.637L-3.25859 669.64C-5.27144 669.934 -7.28476 670.228 -9.29416 670.543C-10.6592 670.754 -12.0758 671.199 -11.8432 672.827C-11.6274 674.256 -10.5807 673.939 -9.71045 673.676L-9.70913 673.676C-9.49009 673.609 -9.28227 673.547 -9.10174 673.516C14.226 669.549 37.7652 668.662 61.3339 668.886C82.0239 669.086 102.712 669.106 123.391 668.177C123.615 668.168 123.855 668.184 124.098 668.2L124.099 668.2C125.103 668.266 126.178 668.338 126.595 666.675L126.613 666.675ZM113.544 186.57C112.048 186.614 110.376 186.663 108.816 184.423C111.291 184.604 113.288 184.748 115.168 184.883L115.19 184.885L116.813 185.002C133.555 186.138 148.433 180.949 161.317 170.727C183.908 152.806 196.361 128.733 202.409 100.999C202.461 100.754 202.488 100.469 202.516 100.176C202.617 99.1152 202.73 97.9378 204.07 98.0785C205.78 98.2567 205.342 99.5704 204.994 100.615L204.994 100.616C204.928 100.814 204.865 101.002 204.821 101.171C200.194 118.335 194.465 135.061 184.147 149.846C176.08 161.381 166.558 171.354 154.2 178.435C141.967 185.443 128.919 188.426 114.869 186.599C114.45 186.544 114.005 186.557 113.544 186.57L113.544 186.57ZM336.534 270.549C340.29 267.519 344.391 266.062 348.461 264.615C349.243 264.337 350.025 264.06 350.802 263.771C355.713 261.947 360.811 260.891 366.398 260.17C365.866 259.368 365.358 258.622 364.872 257.91L364.871 257.909L364.871 257.909C363.837 256.394 362.907 255.031 362.085 253.601C361.041 251.802 359.777 251.331 357.823 251.96L357.365 252.11C351.315 254.094 345.291 256.07 339.636 259.065C336.38 260.783 335.105 263.371 335.812 266.829C335.965 267.551 336.098 268.274 336.287 269.295C336.339 269.577 336.395 269.881 336.457 270.215L336.516 270.531L336.534 270.549ZM-74.1112 307.615C-73.7799 307.202 -73.5034 306.851 -73.2626 306.546C-72.7029 305.835 -72.3366 305.37 -71.9259 304.94C-67.388 300.126 -62.0073 296.791 -55.362 295.737C-52.7577 295.334 -50.2029 295.362 -47.8327 296.682C-45.8425 297.79 -45.0515 299.485 -46.1484 301.288C-47.0629 302.79 -47.1906 304.323 -47.3402 306.12C-47.4135 307 -47.492 307.942 -47.6705 308.975C-45.3779 306.489 -44.3109 303.94 -43.2896 301.5C-42.9953 300.797 -42.7047 300.102 -42.3897 299.422C-41.6682 297.855 -42.1251 297.161 -43.5355 296.458C-49.8459 293.333 -56.4984 291.931 -63.5248 292.667C-66.0767 292.926 -68.6263 293.4 -71.0076 294.5C-72.3684 295.123 -73.4576 295.923 -73.6745 297.574C-73.7249 297.978 -73.7784 298.383 -73.8321 298.789L-73.8323 298.79C-74.1865 301.467 -74.552 304.23 -74.111 307.633L-74.1112 307.615ZM-72.2958 291.681C-62.3447 286.704 -48.7306 288.07 -40.5879 294.439C-38.7872 291.104 -38.7534 290.889 -42.0423 289.453C-50.9332 285.548 -60.1629 285.445 -69.5337 287.369C-71.634 287.803 -72.7731 288.998 -72.2958 291.681ZM122.716 181.733C123.661 182.215 124.671 182.149 125.689 182.082L125.691 182.082C125.822 182.073 125.953 182.064 126.083 182.057C129.631 181.865 131.093 180.004 130.47 176.474C129.743 172.354 129.709 172.357 125.884 172.632L125.591 172.653C123.596 172.799 123.245 173.663 123.316 175.382L123.322 175.498C123.414 177.592 123.508 179.719 122.716 181.733ZM-49.4443 688.322C-40.8264 684.9 -31.9061 682.908 -22.8535 681.525C-22.813 681.519 -22.7718 681.512 -22.7299 681.506L-22.7193 681.504C-21.8703 681.377 -20.7709 681.211 -20.8028 679.765C-22.4193 679.455 -23.9136 679.878 -25.3977 680.297L-25.3984 680.297C-25.9495 680.453 -26.4992 680.608 -27.0533 680.726C-30.7129 681.504 -34.3669 682.314 -38.0213 683.123L-38.0462 683.129C-41.1053 683.807 -44.1648 684.485 -47.2282 685.145L-47.3445 685.17C-48.9508 685.516 -50.4009 685.828 -49.4445 688.304L-49.4443 688.322ZM140.618 174.936C141.004 175.843 141.407 176.731 142.01 178.043L141.763 178.161L141.763 178.161C139.592 179.195 137.631 180.128 135.31 180.152C135.2 179.621 135.089 179.095 134.978 178.573L134.978 178.572C134.671 177.125 134.369 175.705 134.117 174.286C133.716 172.032 135.91 170.163 138.235 170.659C138.974 170.82 139.179 171.365 139.384 171.91C139.42 172.003 139.455 172.096 139.492 172.187C139.686 172.642 139.87 173.102 140.055 173.561L140.055 173.562L140.055 173.562C140.24 174.022 140.424 174.481 140.618 174.936ZM65.1992 144.507C67.9438 142.319 70.3282 142.923 72.3524 146.321C72.1948 146.445 72.0277 146.572 71.8555 146.703L71.8552 146.703C71.5027 146.97 71.1288 147.253 70.7714 147.568C65.9746 151.837 65.8273 151.526 64.1348 147.952L64.1346 147.951C63.8647 147.381 63.5554 146.728 63.1817 145.997C63.4149 145.824 63.6527 145.653 63.8918 145.481L63.8927 145.48C64.3304 145.165 64.7724 144.847 65.1992 144.507ZM60.5693 124.589C60.3581 124.719 60.1467 124.845 59.9362 124.971C59.559 125.196 59.1844 125.419 58.8174 125.664C55.8284 127.738 55.2987 130.462 57.2282 133.835C63.7263 130.704 63.8313 130.416 60.5693 124.589ZM189.513 99.5541C192.052 99.7611 194.218 100.474 196.261 101.438C198.249 102.386 198.853 101.591 199.032 99.797C199.044 99.6703 199.074 99.5444 199.106 99.4141C199.208 98.991 199.321 98.5214 198.832 97.8276C196.978 97.6666 195.238 96.805 193.395 95.8926C192.302 95.3518 191.173 94.7932 189.964 94.352L189.495 99.5543L189.513 99.5541ZM189.438 102.709C188.616 105.573 189.39 107.435 191.762 108.295C192.053 108.404 192.347 108.51 192.641 108.617C193.15 108.801 193.66 108.985 194.164 109.185C194.242 109.218 194.321 109.253 194.399 109.287C195.382 109.718 196.319 110.129 196.819 108.53C196.845 108.448 196.871 108.366 196.896 108.285C197.309 106.982 197.675 105.829 195.67 105.208C194.208 104.756 192.795 104.142 191.386 103.53L191.384 103.529C190.742 103.25 190.101 102.972 189.456 102.709L189.438 102.709ZM146.532 167.509C143.303 168.426 142.284 170.205 143.475 172.846C143.549 173.007 143.627 173.168 143.706 173.329L143.706 173.33C143.941 173.812 144.178 174.3 144.304 174.808C144.317 174.855 144.329 174.901 144.341 174.947L144.351 174.985C144.649 176.106 144.932 177.174 146.478 176.256C146.731 176.106 147.028 175.98 147.328 175.853C148.452 175.379 149.609 174.89 148.568 173.062C147.613 171.376 147.092 169.551 146.57 167.722L146.514 167.527L146.532 167.509ZM82.5095 167.718C83.7002 166.736 84.542 165.501 85.3806 164.271C85.7356 163.75 86.0899 163.23 86.4699 162.731C87.4108 161.502 86.8822 160.827 85.8838 159.959C84.5226 158.79 83.5148 158.747 82.4693 160.299C82.1041 160.851 81.6635 161.355 81.2216 161.86C80.9132 162.213 80.6042 162.566 80.3196 162.937C78.4378 165.376 78.4939 165.591 81.3702 167.138C81.4967 167.203 81.6212 167.267 81.7457 167.332C81.995 167.46 82.2442 167.589 82.5095 167.718ZM119.935 177.209L120.115 177.207C120.113 176.968 120.104 176.728 120.096 176.489L120.096 176.489C120.079 176.014 120.062 175.54 120.093 175.075C120.222 173.586 119.889 172.657 118.071 172.622C116.142 172.59 116.14 173.78 116.137 175.068L116.136 175.169C116.131 175.656 116.132 176.145 116.132 176.634C116.134 177.855 116.135 179.079 116.045 180.296C115.935 181.821 116.659 182.279 118.045 182.301C119.574 182.339 120.052 181.581 119.966 180.202C119.923 179.534 119.928 178.873 119.933 178.21C119.936 177.878 119.939 177.544 119.935 177.209ZM53.4499 115.398C52.665 115.773 51.8407 116.166 50.9141 116.616C49.8124 114.062 50.3097 112.165 52.4058 110.926L52.4062 110.926L52.4067 110.926C53.497 110.269 54.5873 109.613 55.714 108.992C55.8624 108.904 56.0631 108.892 56.262 108.881C56.3507 108.876 56.439 108.871 56.5222 108.859C57.6426 111.691 57.0035 113.687 54.6047 114.846C54.2244 115.029 53.842 115.211 53.4499 115.398ZM112.422 176.103C112.443 175.775 112.465 175.446 112.488 175.117L112.488 175.117C112.533 174.46 112.578 173.802 112.608 173.144C112.655 171.91 111.822 171.794 111.022 171.684L111.022 171.684C110.857 171.661 110.695 171.638 110.541 171.606C109.406 171.385 109.089 172.087 109.009 173.056C108.831 175.029 108.636 177.003 108.35 178.959C108.098 180.7 109.039 181.21 110.515 181.356C111.956 181.503 112.126 180.533 112.205 179.493C112.244 178.928 112.279 178.363 112.314 177.798C112.348 177.233 112.383 176.668 112.422 176.103ZM192.149 121.446C191.903 120.616 191.023 120.327 190.114 120.028C189.713 119.896 189.306 119.762 188.945 119.579C186.142 118.156 185.213 118.704 184.812 121.755C184.575 123.494 185.724 123.864 186.819 124.218C187.193 124.338 187.56 124.456 187.864 124.627C190.252 125.946 192.218 124.654 192.149 121.446ZM188.205 110.5C186.543 115.387 186.643 115.423 189.526 116.49L189.526 116.49C190.007 116.668 190.565 116.874 191.205 117.137C191.378 117.205 191.547 117.277 191.717 117.349C191.939 117.443 192.162 117.537 192.397 117.626C193.174 117.905 193.675 117.667 194.117 116.91C195.213 115.017 194.968 113.962 192.979 112.925C191.83 112.319 190.67 111.735 189.411 111.1C189.025 110.905 188.63 110.706 188.223 110.5L188.205 110.5ZM63.6972 140.693C62.9878 141.216 62.281 141.737 61.5814 142.266C59.0428 138.871 59.0301 138.848 61.7714 136.549C62.0143 136.344 62.245 136.116 62.477 135.887C63.148 135.226 63.8292 134.555 64.8434 134.384C65.4382 134.851 65.7603 135.475 66.0818 136.099C66.2113 136.35 66.3407 136.601 66.4877 136.841C67.0731 137.785 66.7018 138.416 65.9522 138.997C65.7825 139.124 65.6129 139.256 65.4433 139.388L65.4415 139.389C65.2726 139.52 65.1037 139.651 64.9348 139.778C64.522 140.085 64.1092 140.389 63.6972 140.693ZM156.065 161.517C156.606 161.133 157.176 160.728 157.798 160.286C158.943 161.676 159.937 162.902 160.91 164.102L160.919 164.112C161.334 164.625 161.746 165.132 162.164 165.646C161.871 165.924 161.601 166.176 161.345 166.414L161.342 166.417C160.915 166.815 160.529 167.175 160.151 167.549C158.993 168.725 157.967 168.646 156.982 167.294C156.61 166.778 156.155 166.326 155.693 165.867C154.928 165.108 154.144 164.329 153.684 163.206C154.459 162.658 155.221 162.117 156.052 161.526L156.065 161.517ZM176.781 138.487C174.774 141.662 174.959 143.9 177.335 145.202C178.951 146.094 180.44 145.087 181.802 142.181C181.148 141.699 180.488 141.214 179.804 140.712C178.857 140.016 177.865 139.287 176.781 138.487ZM56.2906 95.0607C54.1653 95.2185 52.5991 95.9007 51.1496 96.5321C50.3065 96.8993 49.5029 97.2494 48.6518 97.469C45.4581 98.2904 45.4768 98.3619 47.49 101.711C48.4128 100.619 49.7287 100.081 51.0885 99.5251C53.1073 98.6996 55.2226 97.8347 56.2906 95.0607ZM183.557 125.639C183.358 126.04 183.165 126.408 182.983 126.754C182.553 127.574 182.187 128.274 181.954 129.007C181.518 130.355 183.085 132.239 184.963 132.919C186.723 133.562 187.418 132.466 188.163 131.292C188.205 131.225 188.247 131.159 188.29 131.092C189.459 129.288 188.228 128.566 186.925 127.809C186.247 127.405 185.586 126.967 184.767 126.424L184.765 126.423C184.404 126.184 184.012 125.924 183.575 125.638L183.557 125.639ZM89.786 173.827C90.1797 173.044 90.5586 172.287 90.9281 171.548C91.7665 169.872 92.557 168.292 93.365 166.728C93.9824 165.539 93.3466 164.936 92.4052 164.355C91.2644 163.632 90.5669 164.033 90.0563 165.114C89.8561 165.539 89.6688 165.972 89.4819 166.403C89.0443 167.413 88.6085 168.418 88.0128 169.328C86.6491 171.421 87.2917 172.687 89.786 173.827ZM58.6654 117.87C57.4432 118.144 56.598 118.769 55.7941 119.363C55.4411 119.624 55.0961 119.879 54.7306 120.096C51.8744 121.808 51.888 121.828 53.9793 124.982L53.9893 124.997C54.3795 124.762 54.7697 124.532 55.1591 124.302L55.1618 124.3C55.86 123.889 56.5555 123.478 57.2434 123.046C58.9713 121.965 59.4453 120.239 58.6654 117.87ZM172.632 154.929C172.338 154.667 172.043 154.406 171.748 154.144L171.745 154.141C170.8 153.304 169.85 152.461 168.91 151.597C168.038 150.8 167.341 151.219 166.79 151.924C166.636 152.116 166.441 152.292 166.246 152.468C165.632 153.023 165.007 153.588 165.578 154.696C167.432 158.387 170.168 158.538 172.65 154.928L172.632 154.929ZM98.7549 167.802C98.0706 167.738 97.7693 168.171 97.5411 168.729C97.3183 169.255 97.116 169.792 96.9137 170.328C96.3346 171.863 95.7546 173.4 94.6884 174.726C94.2622 175.268 94.131 176.506 95.1603 176.89C96.0993 177.239 97.232 177.173 97.7059 176.022C98.5656 173.898 99.3891 171.757 100.104 169.581C100.453 168.52 99.6928 168.044 98.7547 167.784L98.7549 167.802ZM68.5695 153.882C70.5293 157.285 70.818 157.371 73.7979 154.993C74.5827 154.375 75.3125 153.676 76.0266 152.992L76.0268 152.991L76.0272 152.991C76.3195 152.711 76.6092 152.434 76.899 152.165C76.4884 150.718 75.6696 149.812 73.8781 148.791C73.667 149.068 73.458 149.369 73.2425 149.68L73.2423 149.681C72.7693 150.363 72.2653 151.09 71.6413 151.699C71.0099 152.316 70.2505 152.798 69.4928 153.28L69.4924 153.28C69.1815 153.478 68.8709 153.675 68.5695 153.882ZM73.4883 159.889C75.2705 161.758 76.9154 161.945 78.4232 160.448C78.7063 160.16 78.9827 159.865 79.2586 159.571C79.7635 159.033 80.2671 158.496 80.8087 158.004C81.7888 157.097 81.5832 156.347 80.711 155.495C79.7663 154.591 79.0481 154.724 78.1938 155.629C78.0373 155.794 77.8815 155.959 77.7256 156.125L77.7254 156.125C76.428 157.503 75.1321 158.88 73.4883 159.889ZM185.273 101.766C180.846 99.894 180.702 99.8955 175.255 107.318C176.712 106.459 178.1 105.786 179.438 105.139C181.482 104.148 183.406 103.216 185.273 101.766ZM55.9499 102.179C55.0115 102.581 54.1053 102.974 53.2191 103.358L53.2167 103.359C51.6343 104.044 50.1153 104.702 48.5886 105.338C47.7109 105.705 47.7537 106.368 47.9229 107.083C48.0736 107.744 48.5997 108.169 49.1553 107.966C49.2887 107.918 49.4223 107.87 49.5559 107.822C49.6785 107.778 49.8012 107.734 49.924 107.689C51.967 106.955 54.0194 106.217 55.9272 105.226C56.9114 104.715 56.4846 103.446 55.9499 102.179ZM150.624 164.815C150.462 164.918 150.274 165.019 150.078 165.125C149.585 165.39 149.038 165.685 148.695 166.125C148.27 166.672 148.702 167.119 149.116 167.549C149.221 167.658 149.326 167.766 149.414 167.874L149.654 168.17L149.655 168.17C150.469 169.174 151.288 170.183 152.003 171.253C152.716 172.321 153.419 172.457 154.455 171.693C155.329 171.039 155.377 170.411 154.774 169.557C153.862 168.276 153.003 166.977 152.144 165.677C151.815 165.179 151.451 164.788 150.624 164.797L150.624 164.815ZM103.859 179.579C103.934 179.546 104.024 179.516 104.114 179.486C104.325 179.415 104.538 179.344 104.575 179.231C105.429 176.534 105.976 173.768 106.019 170.936C106.017 170.739 105.383 170.351 105.059 170.354C104.718 170.358 104.164 170.704 104.077 170.992C103.417 173.31 102.811 175.647 102.296 178.018C102.055 179.131 102.958 179.445 103.859 179.579ZM179.708 133.065L179.707 133.066L179.707 133.067C179.596 133.387 179.513 133.63 179.377 133.836C178.118 135.624 178.366 136.929 180.515 137.732C181.038 137.923 181.545 138.241 181.981 138.577C183.105 139.426 183.896 139.4 184.692 138.065C185.399 136.875 185.426 136.015 184.231 135.22C183.198 134.563 182.176 133.895 180.949 133.093C180.711 132.937 180.464 132.776 180.209 132.609L179.939 132.433C179.843 132.674 179.771 132.883 179.708 133.065ZM162.665 156.572C163.199 156.406 166.969 160.344 167.027 161.03C166.948 161.715 166.399 162.14 165.891 162.533C165.856 162.561 165.82 162.588 165.785 162.616C165.339 162.961 164.765 163.146 164.256 162.614C164.037 162.39 163.819 162.167 163.6 161.944C162.724 161.053 161.849 160.161 161.019 159.224C160.673 158.815 160.343 158.209 160.931 157.719C160.966 157.691 161.001 157.662 161.036 157.633C161.072 157.604 161.107 157.574 161.143 157.545C161.613 157.155 162.104 156.749 162.665 156.572ZM359.72 249.252C355.894 248.073 347.501 250.65 343.828 253.824C348.813 252.285 353.799 250.783 359.72 249.252ZM-38.8933 676.94C-39.9762 677.163 -41.0972 677.256 -42.2226 677.35C-44.6231 677.551 -47.0439 677.753 -49.16 679.214C-45.8714 679.296 -42.8067 678.261 -39.7176 677.218C-39.5273 677.153 -39.3368 677.089 -39.1463 677.025C-39.062 676.997 -38.9776 676.968 -38.8933 676.94ZM176.712 149.367C176.446 149.143 176.165 148.905 175.872 148.657C175.029 147.944 174.089 147.149 173.12 146.375C172.503 145.879 171.891 145.832 171.286 146.519C170.646 147.26 170.367 148.052 171.201 148.724C172.307 149.609 173.503 150.421 174.733 151.107C175.602 151.6 176.888 150.673 176.712 149.367ZM64.4415 100.479C64.7065 100.661 64.9651 100.841 65.2194 101.017C67.2087 102.397 68.9329 103.594 71.3184 104.459C68.1493 98.9178 68.1132 98.9002 64.4415 100.479ZM106.113 29.3476C107.508 25.0319 104.266 24.5872 102.47 24.9043C101.889 26.7026 100.73 30.6574 100.745 32.0911C100.763 33.8831 104.37 34.7422 106.113 29.3476ZM110.865 11.1684C112.6 11.3852 115.123 13.2219 111.332 18.8346C106.594 25.8505 104.007 23.2898 105.067 20.7371C105.915 18.6949 109.285 13.5071 110.865 11.1684Z" fill="#0D070B"/>
</g>
<defs>
<clipPath id="clip0_1_836">
<rect width="474" height="706" fill="white" transform="translate(-104.61 5.45068) rotate(-0.587964)"/>
</clipPath>
</defs>
</svg>
