<svg width="544" height="368" viewBox="0 0 544 368" fill="none" xmlns="http://www.w3.org/2000/svg">
<g clip-path="url(#clip0_1_800)">
<ellipse rx="35.0714" ry="54.4094" transform="matrix(0.915581 -0.402133 0.401895 0.915686 211.499 340.283)" fill="#FF5D6B"/>
<path fill-rule="evenodd" clip-rule="evenodd" d="M511.71 106.349C514.256 105.881 516.801 105.414 519.351 104.987L519.294 105.059C520.358 104.88 521.421 104.695 522.484 104.51C529.43 103.302 536.371 102.095 543.485 102.653V107.465C543.128 107.21 542.738 107.238 542.333 107.268C542.283 107.272 542.233 107.275 542.182 107.278C536.342 107.694 530.559 108.553 524.905 109.999C508.458 114.209 491.782 115.999 474.892 114.252C457.472 112.448 440.209 109.498 423.261 105.045C406.328 100.591 389.652 95.279 374.479 86.1864C374.394 86.1341 374.308 86.0771 374.221 86.0189C373.661 85.6465 373.024 85.2232 371.96 85.6566C371.831 88.4345 371.43 91.3556 370.543 94.1622C369.24 98.3147 368.424 102.582 367.68 106.863C363.643 130.232 355.413 152.054 343.561 172.53C333.612 189.728 321.517 205.364 308.534 220.385C299.187 231.21 290.327 242.436 283.814 255.323C272.964 276.788 268.112 299.412 270.76 323.425C272.306 337.486 276.471 350.688 284.573 362.501C284.899 362.976 285.258 363.433 285.618 363.892C286.584 365.122 287.557 366.361 287.922 367.957H280.364C280.025 367.152 279.694 366.341 279.364 365.53C278.677 363.844 277.988 362.154 277.215 360.511C266.265 337.257 263.03 313.115 268.656 287.928C271.261 276.258 275.354 265.132 280.851 254.507C283.213 249.925 285.646 245.4 288.724 241.248C293.147 235.262 297.799 229.449 302.594 223.764C317.896 205.622 331.866 186.52 343.876 166.015L344.029 165.754L344.397 165.126C346.661 161.272 348.924 157.418 350.546 153.243C351.392 151.065 352.251 148.892 353.11 146.719L353.11 146.719L353.11 146.718L353.11 146.717L353.11 146.717L353.111 146.716L353.111 146.715L353.112 146.712L353.115 146.706C357.426 135.797 361.734 124.895 364.431 113.436C366.721 103.742 368.61 93.9617 368.539 83.924C368.536 83.701 368.552 83.4732 368.567 83.2431C368.629 82.3501 368.693 81.4217 367.68 80.602C366.412 81.7852 366.297 83.3216 366.184 84.8219L366.184 84.8269C366.164 85.0861 366.145 85.3443 366.12 85.5993C365.132 95.5081 363.572 105.317 361.067 114.982C359.051 122.768 356.127 130.226 353.203 137.685C352.12 140.445 351.038 143.206 350.002 145.983C345.697 157.538 338.955 167.756 332.238 177.934L332.237 177.935C331.338 179.298 330.44 180.66 329.547 182.024C318.898 198.319 307.017 213.741 294.249 228.475C289.082 234.446 284.129 240.661 280.336 247.62C271.948 263.013 266.079 279.265 263.646 296.72C261.627 311.125 262.973 325.272 266.437 339.262C268.813 348.827 272.234 358.048 276.557 366.912C276.786 367.37 276.843 367.728 276.256 367.928H262.515C262.38 365.9 261.544 364.111 260.713 362.331L260.713 362.331L260.712 362.33L260.712 362.329C260.487 361.848 260.263 361.368 260.053 360.883C255.63 350.588 251.364 340.336 249.761 329.023C247.528 313.23 247.227 297.564 250.205 281.885C252.667 268.955 256.918 256.769 264.118 245.601C267.488 240.362 271.094 235.295 274.697 230.23L274.7 230.227C277.064 226.904 279.428 223.582 281.724 220.213C284.819 215.668 287.952 211.149 291.086 206.631C299.56 194.412 308.032 182.195 315.734 169.452C323.908 155.92 331.308 141.988 337.434 127.411C339.252 123.087 340.898 118.691 342.215 114.18C346.252 100.448 347.74 86.4012 347.812 72.1394C347.826 70.8364 347.426 70.192 346.137 70.1634C344.777 70.1204 344.205 70.9366 344.42 72.1251C344.835 74.4869 344.658 76.8403 344.481 79.1918C344.426 79.9198 344.371 80.6475 344.334 81.3752C343.618 95.0643 341.199 108.41 336.046 121.168C331.38 132.738 326.012 143.964 319.971 154.904C313.616 166.43 306.945 177.757 299.245 188.453C298.18 189.929 297.112 191.403 296.044 192.877L296.034 192.891L296.024 192.904L296.014 192.918L295.998 192.94L295.975 192.972C291.824 198.7 287.673 204.428 283.728 210.29C280.651 214.86 277.444 219.337 274.237 223.815L274.236 223.816L274.236 223.817L274.235 223.818L274.234 223.819L274.233 223.82L274.233 223.821L274.232 223.822L274.231 223.823C269.25 230.779 264.267 237.736 259.766 245.042C252.352 257.07 248.215 270.115 246.025 283.904C243.992 296.648 243.864 309.449 245.481 322.236C246.798 332.689 248.372 343.099 252.982 352.764C254.698 356.36 256.235 360.044 257.774 363.733L258.049 364.392C258.169 364.68 258.324 364.963 258.481 365.248C258.921 366.051 259.371 366.871 259.065 367.885H249.446C249.25 367.749 249.054 367.613 248.858 367.477L248.224 367.038C247.129 366.279 246.036 365.522 244.951 364.75C241.716 362.43 239.183 359.738 238.396 355.514C238.168 354.315 237.82 353.121 237.471 351.92L237.47 351.917C237.227 351.083 236.984 350.245 236.778 349.399C235.919 345.877 235.79 342.555 236.993 339.104C238.209 335.639 239.741 332.331 241.545 329.138C243.234 326.16 243.105 324.756 240.672 322.523C234.602 316.938 227.775 314.49 219.573 317.396C216.839 318.37 215.178 320.06 214.319 322.766C213.203 326.26 213.904 329.553 215.264 332.775C217.397 337.83 220.689 342.039 224.926 345.505C225.034 345.594 225.151 345.68 225.268 345.766C225.94 346.262 226.624 346.766 225.771 347.925C222.922 346.221 220.188 344.302 218.614 341.553C216.123 337.214 212.301 334.851 208.064 332.818C205.099 331.396 202.656 329.218 200.174 327.005L199.819 326.689C197.987 328.537 196.527 330.269 195.511 332.345C194.022 335.352 194.051 336.083 196.484 338.331C201.05 342.555 206.06 346.135 212.101 348.011C216.681 349.442 221.29 350.817 226.143 350.989C226.224 350.991 226.306 350.99 226.387 350.989H226.388H226.389C226.874 350.982 227.319 350.975 227.417 351.662C227.503 352.378 227.059 352.636 226.443 352.807C226.091 352.907 225.748 353.035 225.403 353.163C225.103 353.275 224.803 353.387 224.497 353.48C218.542 355.328 213.675 358.864 209.496 363.389C209.333 363.566 209.164 363.741 208.996 363.917C207.934 365.023 206.846 366.158 206.833 367.9H53.6158C53.1739 367.236 52.5008 366.97 51.8293 366.705C51.4569 366.557 51.0849 366.41 50.7531 366.196C44.1686 361.972 39.4736 356.459 39.1444 348.268C38.5289 332.975 42.8803 319.115 51.8266 306.729C55.992 300.958 60.7585 295.689 65.8543 290.734C73.0972 283.689 79.5815 276 85.3787 267.724C85.5028 267.548 85.6316 267.374 85.7606 267.2C86.4197 266.31 87.0841 265.413 87.1679 264.215C86.0244 263.941 85.566 264.571 85.1505 265.142C85.046 265.286 84.9441 265.426 84.8347 265.547C77.7779 273.437 69.7335 280.224 61.5888 286.911C58.1391 289.746 54.7467 292.653 51.4258 295.631L51.1722 295.859C49.559 297.305 47.8889 298.802 47.0457 300.829C46.2306 302.771 45.4129 304.713 44.5951 306.654C39.9556 317.669 35.3125 328.692 31.1142 339.892C28.8097 346.049 26.2045 351.977 21.5525 356.774C19.3869 359.016 17.0219 361.047 14.6524 363.083C14.3281 363.361 14.0038 363.64 13.6798 363.919C13.2987 364.246 12.8865 364.547 12.4731 364.848C11.3492 365.667 10.2159 366.493 9.67178 367.885H-28.1172C-28.6779 366.885 -28.0141 366.593 -27.4296 366.337C-27.2531 366.259 -27.0839 366.185 -26.9578 366.096C-21.4182 362.244 -15.9646 358.263 -10.8116 353.881C5.84995 339.734 20.3787 323.611 33.3615 306.056C33.4904 305.884 33.6335 305.698 33.748 305.497C34.3964 304.454 34.9938 303.362 35.5908 302.27C36.9443 299.794 38.2953 297.323 40.2323 295.445C41.8615 293.867 43.7681 292.525 45.6844 291.176C46.9669 290.273 48.2539 289.368 49.4648 288.386C60.1145 279.723 69.1465 269.628 76.504 258.001C83.4463 247.047 89.7302 235.806 93.9242 223.463C97.3739 213.354 99.6355 202.987 101.067 192.42C103.071 177.599 102.684 162.722 102.069 147.844L102.025 146.787C101.74 139.924 101.456 133.075 100.68 126.251C99.5113 115.803 96.8087 105.689 94.1041 95.5681L94.104 95.5678C93.7952 94.4122 93.4864 93.2565 93.1798 92.1002C91.2188 84.6829 88.9572 77.3802 86.0085 70.278C84.2479 66.0252 82.0006 62.0445 79.7104 58.0924C75.7025 51.1477 71.6229 44.2602 67.3859 37.4587C63.5771 31.3649 58.994 25.895 54.4103 20.4244C53.7056 19.5833 53.0009 18.7422 52.299 17.8988L52.2424 17.8313C51.9604 17.4947 51.6745 17.1533 51.3256 16.9251C50.524 16.381 49.6223 16.0803 48.792 16.7819C47.8616 17.5552 48.2481 18.4286 48.835 19.2019C50.1376 20.9488 51.4544 22.6814 52.8143 24.3711C63.7931 37.9598 73.1974 52.5653 80.7266 68.3162C84.3337 75.8624 86.7385 83.8811 88.8713 91.9713C89.3087 93.6267 89.754 95.2811 90.1994 96.9358C92.6397 106.002 95.0832 115.08 96.2574 124.404C97.9608 137.921 98.4188 151.539 98.3758 165.185C98.3186 182.095 96.3003 198.749 92.1206 215.13C89.5154 225.396 85.5504 235.119 80.2972 244.298C76.5469 250.841 72.6535 257.342 68.1303 263.399C61.6603 272.048 54.2028 279.78 45.6859 286.453C45.5227 286.587 45.3015 286.645 45.0785 286.702L45.0776 286.702C44.9685 286.731 44.8589 286.759 44.7555 286.797C44.7125 287.112 44.5694 287.441 44.2259 287.183C43.9396 286.954 44.1972 286.653 44.4119 286.424C45.3296 284.904 46.2437 283.383 47.1578 281.863C48.0687 280.348 48.9797 278.833 49.8942 277.317C63.9936 253.906 74.5 229.033 80.0968 202.214C83.2602 187.05 85.3643 171.686 84.2908 156.178C82.659 132.709 77.0049 110.142 67.7295 88.4918C57.7096 65.1088 44.0255 44.1457 26.5337 25.6598C25.2312 24.2851 24.0431 24.0274 22.3254 24.3424C-34.2722 34.8812 -89.5674 49.7874 -142.701 72.3113C-191.283 92.9164 -237.03 118.404 -278.856 150.694C-323.33 185.031 -360.99 225.597 -390.491 273.551C-391.01 274.392 -391.513 275.239 -392.015 276.084C-392.565 277.011 -393.114 277.936 -393.683 278.849C-393.969 279.308 -394.342 279.837 -395 279.236V268.239C-393.797 268.337 -393.447 267.523 -393.112 266.742C-393.005 266.492 -392.899 266.246 -392.767 266.034C-381.874 248.35 -369.607 231.654 -356.137 215.86C-327.567 182.368 -294.702 153.672 -258.501 128.728C-212.797 97.2264 -163.456 72.9413 -111.167 54.5556C-74.3086 41.5825 -36.677 31.4876 1.77048 24.4713C9.87222 22.9964 18.0026 21.6361 26.2045 20.777C26.363 20.7635 26.5333 20.7627 26.7062 20.7619C27.2675 20.7593 27.8558 20.7566 28.1512 20.3188C29.4125 18.4532 31.3258 17.8696 33.2381 17.2863C34.3642 16.9428 35.4899 16.5994 36.482 15.9944C36.9687 15.708 37.5413 15.4932 38.0995 15.4359C38.4843 15.3986 38.8701 15.3657 39.2558 15.3329C42.1262 15.0882 44.9849 14.8445 47.332 12.7869C51.6628 12.1084 55.8491 10.87 60.0372 9.63102C63.1855 8.69965 66.3348 7.76798 69.5474 7.07362C75.4734 5.78491 87.3683 3.46521 87.3683 3.46521C87.3683 3.46521 155.265 -3.40536 197.83 3.60841C242.953 11.0438 273.894 22.5668 308.42 42.1267C319.585 48.4557 330.435 55.2572 340.312 63.5193C341.228 64.2783 342.144 64.9083 343.375 64.851C344.32 64.8081 345.293 64.9369 346.037 65.4238C348.615 67.1241 351.489 68.1686 354.369 69.2152C357.261 70.2663 360.159 71.3196 362.77 73.0415C364.462 74.1551 366.052 75.3975 367.638 76.6373L367.64 76.6389C368.643 77.4232 369.646 78.2064 370.672 78.9553C373.625 81.1114 376.796 82.8117 379.962 84.5095C380.602 84.8525 381.242 85.1955 381.879 85.5421C386.088 87.8331 390.482 89.7662 394.977 91.5131C414.573 99.1309 434.856 104.114 455.625 107.235C469.367 109.297 483.165 110.457 497.021 108.753C501.943 108.141 506.827 107.245 511.71 106.349ZM69.5474 257.514C69.5331 255.151 70.5208 253.634 71.8233 252.187C72.5104 254.421 71.2937 255.867 69.5474 257.514ZM76.8046 244.555C76.7903 242.966 77.4344 241.82 78.2932 240.775C78.4793 242.264 77.8209 243.381 76.8046 244.555ZM94.3677 159.09C94.3652 159.627 94.3625 160.206 95.4415 160.903C95.5056 160.282 95.5742 159.665 95.6424 159.052C96.1371 154.6 96.6123 150.325 95.2411 145.983C93.1942 146.842 93.3087 148.36 93.5663 149.835C94.0959 152.87 94.325 155.935 94.3679 159.013L94.3677 159.09ZM94.2963 166.044V175.938C95.6561 172.645 96.0569 169.352 95.1408 166.044H94.2963ZM94.0101 138.68C95.0264 136.074 95.3555 133.497 93.5949 130.332C92.4455 132.984 93.0548 135.174 93.6432 137.289L93.6433 137.289L93.6435 137.29L93.6438 137.291L93.6457 137.298C93.7745 137.761 93.9022 138.22 94.0101 138.68ZM92.7055 184.86C92.6967 184.903 92.6879 184.946 92.6789 184.988H92.6646C92.1459 187.258 92.1819 189.56 92.2184 191.895C92.2303 192.654 92.2422 193.416 92.2351 194.181C93.9385 191.36 94.1818 188.21 94.2963 185.031C94.3106 184.558 94.1532 184.057 93.6665 183.943C92.9282 183.771 92.8092 184.353 92.7055 184.86ZM82.2869 232.37C82.6591 232.656 83.2029 232.599 83.5035 232.198L83.5179 232.184C84.5914 230.795 85.0924 229.177 85.393 227.544C85.3849 227.428 85.3839 227.309 85.383 227.191C85.3789 226.686 85.375 226.203 84.8062 226.041C84.0905 225.84 83.8041 226.499 83.6037 226.986C83.0026 228.461 82.4586 229.95 81.9576 231.468C81.8717 231.725 82.0579 232.198 82.2869 232.37ZM89.3723 203.86C89.1576 204.261 88.9429 204.691 88.8856 205.121V205.135C88.5644 207.461 88.269 209.787 87.9727 212.12L87.9726 212.121L87.9724 212.123L87.9722 212.125L87.972 212.126L87.9718 212.128L87.9716 212.129L87.9715 212.131L87.9713 212.132C87.8851 212.811 87.7988 213.49 87.7119 214.17C88.0125 214.242 88.3274 214.328 88.6423 214.414C90.2455 211.206 90.8753 207.727 91.0471 204.133C91.0614 203.875 90.7321 203.503 90.4745 203.374C89.9878 203.145 89.6013 203.445 89.3723 203.86ZM62.0743 43.6053L62.0735 43.6042C60.0573 40.4619 58.0406 37.3189 55.9347 34.2369V34.2512C52.3705 29.039 48.2338 24.2994 43.7534 19.8605L43.638 19.7446C42.8657 18.9682 42.1282 18.2267 40.8191 18.4859C38.7722 18.8868 36.7969 19.4596 35.0935 20.6767C33.2899 21.9798 33.0037 23.3544 34.3921 25.0441C37.2943 28.5628 40.015 32.2227 42.7339 35.8804L42.735 35.8817L42.736 35.883L42.7365 35.8838C45.1396 39.1164 47.5414 42.3473 50.066 45.4773C57.9673 55.2572 64.4516 65.8963 69.4758 77.3372C76.733 93.8185 81.6141 111.087 84.4769 128.9C84.5058 129.09 84.5181 129.288 84.5305 129.488C84.5735 130.179 84.6175 130.887 85.35 131.32C85.427 131.269 85.5096 131.228 85.5871 131.191C85.7256 131.123 85.8481 131.063 85.894 130.962C86.08 130.547 86.2375 130.103 86.3377 129.659C88.3416 120.767 89.4582 111.832 87.6117 102.782C85.6649 93.2457 82.8594 83.9383 79.3954 74.8457C76.1318 66.2686 71.7231 58.2786 66.6273 50.6179C65.0861 48.2991 63.5814 45.9541 62.0765 43.6088L62.0743 43.6053ZM96.5007 285.823C102.341 280.611 106.764 274.368 110.113 267.337V267.323C110.131 267.287 110.149 267.252 110.168 267.216L110.17 267.212C110.404 266.757 110.659 266.263 109.97 265.561L109.423 266.179C107.818 267.99 106.223 269.79 104.617 271.59C97.1877 279.895 88.9429 287.269 79.5815 293.355C72.7394 297.794 66.5701 303.049 60.7443 308.733C56.3642 313.015 52.9145 317.955 50.2091 323.439C49.751 324.355 49.4362 325.343 49.1499 326.331C49.0211 326.775 49.2501 327.277 49.7654 327.377C50.0516 327.42 50.4954 327.32 50.6671 327.119C51.0984 326.616 51.4595 326.062 51.826 325.501L51.92 325.357L52.0045 325.228L52.0414 325.172C54.5606 321.334 57.5093 317.855 60.687 314.547C65.5537 309.492 71.079 305.268 76.8046 301.259C83.6467 296.462 90.2741 291.393 96.5007 285.823ZM330.021 122.495C331.347 119.141 332.673 115.788 333.698 112.347V112.333L333.788 112.034L333.885 111.711L334.066 111.11L334.175 110.749L334.315 110.285C336.781 102.114 339.263 93.8923 338.88 85.0123C339.066 80.4588 338.565 75.8194 337.549 71.2087C337.205 69.6479 336.475 68.5167 335.173 67.6289C333.838 66.7102 332.517 65.7675 331.196 64.8247L331.193 64.8231C328.974 63.2391 326.754 61.6548 324.466 60.183C288.008 36.7427 205.774 13.4456 205.774 13.4456C205.774 13.4456 113.852 6.25007 84.2908 13.9468C83.5154 14.1522 82.7389 14.3543 81.9621 14.5564C77.4333 15.7347 72.8994 16.9144 68.574 18.7723C63.8361 20.8056 62.0325 24.5572 66.0404 29.0248C66.1927 29.1962 66.3323 29.3802 66.472 29.5643L66.4721 29.5646L66.4725 29.565L66.4731 29.5657C66.543 29.658 66.613 29.7502 66.6846 29.8409C77.7064 43.487 86.0801 58.6652 92.3782 74.9889C97.9178 89.3223 102.126 104.042 104.459 119.263C104.488 119.443 104.508 119.633 104.528 119.825L104.528 119.826L104.528 119.827C104.62 120.705 104.718 121.633 105.633 121.927C106.835 122.313 107.809 121.383 108.539 120.495C109.326 119.536 110.042 118.476 110.629 117.373C111.645 115.44 112.303 113.378 112.79 111.245C114.493 103.856 115.195 96.3387 115.767 88.8068C116.712 76.292 116.125 63.8773 113.191 51.6345L113.122 51.3463C111.794 45.8221 111.601 45.0194 118.215 44.2029C130.167 42.7137 142.191 42.8569 154.186 44.0597C161.599 44.7994 168.818 46.5125 176.037 48.2258C179.719 49.0996 183.401 49.9733 187.108 50.7181C202.567 53.8404 217.228 59.5431 231.83 65.2227L231.831 65.223C232.764 65.5862 233.698 65.9493 234.631 66.3116C250.52 72.4831 265.921 79.7715 280.379 88.95C294.621 97.9853 306.86 108.896 314.961 123.96C315.935 125.793 317.223 127.397 318.769 128.8C320.258 130.16 321.99 130.905 324.022 131.048C325.826 131.163 326.971 130.59 327.629 128.743C328.378 126.648 329.199 124.573 330.019 122.499L330.019 122.499L330.019 122.498L330.019 122.498L330.02 122.497L330.02 122.497L330.02 122.496L330.02 122.495L330.021 122.495ZM264.003 359.609C263.717 359.165 263.13 359.179 262.973 359.681V359.666C262.738 360.453 263.196 361.066 263.637 361.657C263.734 361.786 263.83 361.914 263.917 362.043C263.988 362.143 264.056 362.251 264.125 362.361C264.385 362.775 264.653 363.202 265.091 363.23C265.135 362.996 265.385 362.977 265.629 362.958C265.711 362.952 265.792 362.945 265.864 362.931C265.559 363.153 265.322 363.227 265.112 363.231L265.12 363.232C265.091 363.318 265.091 363.418 265.134 363.561C265.163 363.697 265.272 363.814 265.38 363.929L265.38 363.929C265.43 363.983 265.48 364.036 265.521 364.091C265.578 363.898 265.639 363.705 265.699 363.512C265.733 363.404 265.767 363.296 265.801 363.188C265.827 363.103 265.853 363.017 265.879 362.931H265.893V362.902C265.797 362.734 265.702 362.566 265.607 362.397C265.505 362.216 265.404 362.034 265.303 361.852C264.882 361.096 264.463 360.343 264.003 359.609ZM252.722 297.761C253.366 295.876 254.029 293.933 252.924 291.393C251.808 294.114 251.164 296.233 252.481 298.481C252.558 298.242 252.639 298.004 252.721 297.764L252.722 297.761ZM251.951 303.621C252.509 305.469 252.781 307.001 252.108 308.59C251.063 307.044 250.863 305.497 251.951 303.621ZM252.624 319.917C252.996 318.041 252.753 316.566 251.679 315.234C251.725 315.669 251.667 316.128 251.608 316.594C251.466 317.724 251.317 318.903 252.624 319.917ZM254.012 330.212C252.667 328.236 252.108 326.632 252.939 324.742C253.912 326.289 254.384 327.921 254.012 330.212ZM254.564 284.127C255.155 282.494 255.725 280.919 255.329 279.021C253.368 281.37 253.139 282.701 254.227 285.078C254.336 284.757 254.45 284.441 254.564 284.127ZM254.585 335.31C255.873 336.713 256.088 338.431 256.217 340.579C254.198 339.018 254.127 337.243 254.585 335.31ZM258.671 348.034C258.409 346.844 258.147 345.655 256.904 344.889C257.047 346.507 257.219 348.111 258.922 349.056C258.823 348.723 258.747 348.379 258.672 348.036L258.671 348.036L258.671 348.035L258.671 348.034L258.671 348.034ZM258.922 267.793C258.964 267.655 259.007 267.517 259.051 267.38H259.036C259.165 266.979 259.165 266.435 258.607 266.263C258.063 266.091 257.762 266.478 257.576 266.907C256.718 268.869 256.002 270.859 256.274 273.108C257.724 271.719 258.262 269.955 258.798 268.196C258.839 268.062 258.88 267.927 258.922 267.793ZM259.809 352.664C261.117 353.39 262.028 354.769 262.543 356.802C260.654 355.7 260.167 354.325 259.809 352.664ZM263.703 252.803C261.813 255.008 260.768 256.984 260.912 259.419C261.198 258.888 261.545 258.389 261.896 257.884C262.863 256.495 263.86 255.061 263.703 252.803ZM268.838 246.887C268.942 246.655 269.044 246.43 269.156 246.259L269.171 246.245C269.272 246.093 269.382 245.942 269.493 245.789C270.011 245.079 270.56 244.326 270.43 243.195C269.191 243.241 268.733 244.042 268.313 244.778L268.311 244.781L268.258 244.875L268.213 244.953C268.143 245.073 268.072 245.19 267.997 245.3C267.951 245.368 267.899 245.439 267.843 245.512C267.782 245.593 267.716 245.676 267.648 245.762C267.1 246.457 266.452 247.277 267.253 247.834C268.135 248.445 268.504 247.628 268.838 246.887ZM274.009 237.081C274.252 237.31 274.596 237.453 274.911 237.181V237.167C276.027 236.193 276.886 235.033 277.473 233.687C277.451 233.644 277.432 233.601 277.414 233.558C277.4 233.526 277.387 233.493 277.374 233.462L277.372 233.458C277.311 233.307 277.254 233.167 277.158 233.071C276.929 232.857 276.628 232.628 276.285 232.943C275.197 233.959 274.381 235.162 273.794 236.508C273.723 236.651 273.866 236.952 274.009 237.081ZM280.636 228.246C281.137 225.941 282.454 224.279 284.558 222.404C284.143 225.454 282.526 226.971 280.636 228.246ZM291.121 215.943L291.122 215.942L291.122 215.942L291.123 215.94L291.124 215.938C291.294 215.647 291.462 215.36 291.644 215.087C291.83 214.8 291.744 214.414 291.429 214.199C291.114 213.998 290.728 214.041 290.527 214.313C290.322 214.598 290.094 214.873 289.864 215.151C289.052 216.13 288.204 217.154 288.137 218.838C289.784 218.236 290.466 217.066 291.121 215.943ZM294.392 210.877C296.282 209.187 297.298 207.612 298.157 205.937L298.171 205.922C298.286 205.708 298.171 205.235 297.999 205.02C297.785 204.748 297.298 204.806 297.112 205.063C296.902 205.359 296.676 205.647 296.448 205.938C295.459 207.198 294.415 208.527 294.392 210.877ZM301.893 199.436C302.064 199.507 302.408 199.479 302.522 199.364C303.882 197.975 304.884 196.357 305.8 194.754C305.755 194.645 305.72 194.544 305.688 194.454C305.62 194.261 305.569 194.116 305.471 194.038C305.185 193.823 304.784 193.809 304.555 194.081C303.396 195.498 302.351 196.973 301.549 198.62C301.392 198.935 301.549 199.293 301.893 199.436ZM308.792 187.007C308.448 187.594 308.992 188.038 309.594 188.21H309.608C310.538 188.024 313.644 183.212 313.501 182.124C313.473 181.924 313.372 181.666 313.215 181.537C312.914 181.279 312.485 181.394 312.313 181.652C311.097 183.413 309.88 185.174 308.792 187.007ZM316.135 176.397C318.926 175.494 319.928 173.318 320.758 171.027C320.873 170.698 320.587 170.311 320.243 170.282C319.957 170.254 319.499 170.383 319.37 170.597C318.591 171.926 317.847 173.283 317.103 174.639L317.103 174.64L317.102 174.641L317.102 174.642L317.101 174.643L317.101 174.644L317.1 174.645L317.099 174.646L317.099 174.647C316.778 175.231 316.458 175.815 316.135 176.397ZM327.088 159.553C327.277 159.196 327.463 158.843 327.658 158.498V158.512C327.93 158.025 327.858 157.381 327.171 157.123C326.642 156.923 326.255 157.295 326.069 157.681C325.792 158.259 325.484 158.822 325.17 159.398C324.345 160.908 323.476 162.497 323.02 164.612C325.206 163.115 326.169 161.292 327.088 159.553ZM330.564 151.983C332.711 150.021 333.741 148.345 334.242 146.326C334.357 145.868 334.314 145.353 333.741 145.253C333.469 145.21 332.968 145.367 332.868 145.582C332.664 146.001 332.427 146.408 332.185 146.824C331.393 148.184 330.542 149.647 330.564 151.983ZM352.063 132.537C359.392 118.161 362.885 102.754 364.259 89.623H364.273C364.817 79.9147 361.024 75.0605 354.468 73.9293C352.951 73.6716 352.106 74.0439 351.634 75.5617C351.047 77.4375 350.761 79.3419 350.575 81.275C349.759 90.0382 348.857 98.7729 346.409 107.293C346.079 108.441 345.755 109.59 345.43 110.74L345.43 110.74L345.43 110.741C343.647 117.061 341.866 123.376 339.081 129.373C338.791 129.996 338.493 130.618 338.195 131.24L338.193 131.245L338.192 131.247C337.505 132.682 336.816 134.121 336.218 135.587C335.259 137.95 336.246 139.725 338.522 139.797C341.886 139.897 345.049 138.709 348.113 137.535C349.965 136.821 350.843 135.024 351.694 133.283C351.817 133.032 351.939 132.782 352.063 132.537ZM221.319 367.885H226.114C226.114 367.377 226.112 366.869 226.109 366.361C226.101 364.836 226.093 363.311 226.157 361.785C226.196 360.735 226.618 359.792 227.077 358.767L227.077 358.767C227.469 357.892 227.888 356.957 228.118 355.843C223.595 359.051 221.906 363.174 221.319 367.885ZM209.08 366.955C212.344 363.246 215.808 359.781 220.202 357.375C220.276 357.337 220.348 357.293 220.421 357.25C220.833 357.002 221.273 356.739 222.063 357.189C217.969 360.082 214.42 363.332 212.373 367.885H208.937C208.78 367.542 208.851 367.227 209.08 366.955ZM230.036 360.411C228.97 362.352 228.938 364.356 228.906 366.338V366.341C228.897 366.858 228.889 367.373 228.863 367.885H232.298C232.39 366.873 232.022 365.97 231.658 365.077C231.512 364.72 231.367 364.365 231.253 364.005C231.133 363.627 231.099 363.213 231.065 362.795C230.993 361.912 230.92 361.013 230.036 360.411ZM348.113 318.771C355.656 315.836 363.099 316.394 370.17 320.461V320.446C371.044 320.948 371.845 321.649 372.518 322.408C375.395 325.601 375.094 329.625 371.802 332.36C370.299 333.62 368.51 334.365 366.635 334.937C356.815 337.887 347.211 336.813 337.763 333.334C335.502 332.503 333.484 331.214 331.78 329.453C331.279 328.923 330.993 328.293 331.322 327.592C331.666 326.847 332.41 326.647 333.054 326.947C335.874 328.279 338.823 328.823 341.929 328.58C342.056 328.57 342.179 328.63 342.317 328.697C342.583 328.827 342.903 328.982 343.403 328.708C342.144 323.597 343.36 320.633 348.113 318.771ZM369.669 326.717C369.669 327.089 369.669 327.613 370.199 327.348L370.213 327.362C370.571 327.176 370.428 326.632 370.085 326.303C369.77 325.372 369.083 324.742 368.295 324.284C362.226 320.733 355.871 320.002 349.243 322.566C348.513 322.852 347.855 323.367 347.282 323.912C346.71 324.456 346.123 325.229 346.753 326.002C347.187 326.54 347.621 326.256 348.05 325.976C348.215 325.868 348.379 325.761 348.542 325.701C355.728 323.038 362.784 322.967 369.669 326.689V326.717ZM221.161 323.324C220.174 322.236 218.943 322.208 217.697 322.694C216.538 323.138 215.794 323.983 215.894 325.315C215.951 326.102 216.051 326.904 216.237 327.677C217.549 332.978 220.745 337.134 224.074 341.463C224.414 341.906 224.756 342.351 225.098 342.798C225.164 342.559 225.229 342.376 225.28 342.233C225.359 342.007 225.405 341.878 225.37 341.782C223.581 337.042 222.335 332.202 222.679 327.062C222.779 325.673 222.12 324.398 221.161 323.339V323.324ZM232.971 349.199C232.756 350.058 232.026 350.13 231.353 350.03C229.707 349.786 228.82 348.712 228.218 346.836C229.965 346.464 231.181 347.08 232.355 347.738C232.885 348.039 233.128 348.583 232.971 349.199ZM232.747 352.265L232.645 352.266C231.975 352.272 231.225 352.279 230.652 353.008C231.067 353.795 231.682 354.44 232.513 354.741C232.588 354.77 232.664 354.806 232.74 354.846C232.827 354.892 232.914 354.942 233.002 354.993C233.509 355.284 234.037 355.588 234.631 355.07C234.817 354.898 234.946 354.383 234.832 354.182C234.746 354.035 234.666 353.877 234.585 353.717L234.584 353.715C234.217 352.99 233.829 352.226 232.856 352.249L232.842 352.263C232.81 352.264 232.779 352.264 232.747 352.265ZM221.118 348.784L221.161 348.87V348.855C221.276 348.44 221.505 348.454 221.763 348.727C221.805 348.769 221.777 348.941 221.72 348.984C221.462 349.185 221.262 349.156 221.147 348.87C212.73 347.151 205.216 343.629 198.903 337.729C197.472 336.383 197.529 335.768 199.046 334.536C199.69 334.007 200.263 333.921 200.821 334.508C205.068 339.003 210.299 342.077 215.528 345.149C217.26 346.167 218.993 347.185 220.689 348.254C220.811 348.329 220.896 348.459 220.98 348.588C221.025 348.656 221.069 348.724 221.118 348.784Z" fill="#0D070B"/>
</g>
<defs>
<clipPath id="clip0_1_800">
<rect width="939" height="368" fill="white" transform="translate(-395)"/>
</clipPath>
</defs>
</svg>
