<svg width="558" height="675" viewBox="0 0 558 675" fill="none" xmlns="http://www.w3.org/2000/svg">
<g clip-path="url(#clip0_1_848)">
<path fill-rule="evenodd" clip-rule="evenodd" d="M183.658 279.402C183.988 279.164 184.319 278.926 184.58 278.618L184.57 278.614C182.891 273.012 181.128 267.445 179.099 261.958C178.807 260.429 178.294 258.963 177.781 257.497C177.235 255.939 176.689 254.38 176.408 252.743C175.235 251.542 173.862 250.635 172.288 250.02C173.519 254.19 174.778 258.347 176.37 262.406C176.418 262.379 176.466 262.351 176.513 262.324C177.102 261.984 177.687 261.646 178.354 262.241C178.355 262.924 177.973 263.411 177.593 263.897C177.302 264.268 177.011 264.639 176.892 265.096C177.871 267.241 178.559 269.49 179.247 271.738C179.663 273.099 180.079 274.459 180.559 275.795C181.053 277.172 181.529 278.556 182.004 279.937C182.114 280.258 182.224 280.578 182.334 280.899C182.564 280.19 183.11 279.796 183.658 279.402ZM134.445 296.736C139.627 295.342 144.672 293.565 149.532 291.293C151.498 290.378 151.517 290.46 152.022 292.547L152.028 292.574C152.251 293.494 152.56 294.403 152.906 295.279C153.689 297.21 153.943 297.219 155.299 295.431C156.135 295.759 156.636 296.463 157.122 297.145L157.141 297.172C158.591 299.201 160.249 301.053 161.906 302.904C163.249 304.404 164.591 305.903 165.822 307.496C166.136 307.904 166.492 308.294 166.86 308.653C167.123 308.9 167.476 309.008 167.805 308.803C168.235 308.521 168.265 308.101 168.052 307.675C167.896 307.367 167.699 307.076 167.489 306.816C166.166 305.155 164.936 303.426 163.706 301.697C162.38 299.831 161.053 297.966 159.609 296.186C158.476 294.784 157.464 293.282 156.414 291.722L156.414 291.722C155.913 290.979 155.404 290.223 154.869 289.459C155.603 288.856 156.456 288.594 157.294 288.336C157.838 288.169 158.375 288.004 158.87 287.749C158.934 287.715 159.002 287.682 159.071 287.648C159.48 287.449 159.914 287.237 159.758 286.683C159.588 286.065 158.98 286.064 158.461 286.193C157.394 286.455 156.339 286.734 155.173 287.043C154.692 287.17 154.193 287.302 153.666 287.44C153.363 284.901 152.756 282.467 152.154 280.055L152.154 280.055L152.154 280.055C151.625 277.938 151.101 275.837 150.79 273.695C150.299 270.297 149.464 266.979 148.629 263.661L148.629 263.661L148.629 263.661L148.629 263.661L148.629 263.661L148.629 263.661C147.923 260.856 147.217 258.052 146.72 255.199C146.671 254.945 146.612 254.688 146.534 254.446C146.308 253.735 145.953 253.111 145.077 253.341C144.358 253.528 144.309 254.198 144.358 254.826C144.383 255.081 144.414 255.351 144.477 255.599C145.192 258.329 145.625 261.114 146.059 263.901L146.059 263.901C146.544 267.015 147.029 270.129 147.906 273.168C148.695 275.892 149.12 278.7 149.544 281.503C149.586 281.78 149.628 282.058 149.67 282.335C149.683 282.422 149.699 282.508 149.714 282.593C149.836 283.264 149.942 283.851 148.781 283.951C147.908 284.029 147.783 284.855 148.174 285.563C148.521 286.192 148.92 286.791 149.38 287.482C149.581 287.784 149.794 288.103 150.019 288.45C144.35 289.46 138.991 291.004 133.71 292.814C133.003 290.226 132.295 287.639 131.587 285.053L131.586 285.05L131.585 285.047L131.584 285.042L131.582 285.037L131.581 285.032L131.58 285.028L131.578 285.023C129.944 279.051 128.311 273.083 126.684 267.111C128.301 266.668 128.554 266.303 127.771 265.295C127.316 264.708 126.77 264.195 126.225 263.682L126.225 263.682C125.979 263.451 125.733 263.219 125.495 262.981C125.126 261.645 124.757 260.306 124.388 258.967C124.02 257.628 123.651 256.289 123.281 254.953C126.281 251.762 130.029 249.67 133.929 247.803C133.968 247.784 134.005 247.766 134.043 247.747L134.044 247.747C134.566 247.49 135.052 247.251 135.707 247.974C138.089 250.6 140.25 250.085 141.18 246.64C141.485 245.513 141.972 245.091 143.02 244.896C147.888 244.018 152.762 243.843 157.647 244.737C157.666 244.925 157.671 245.119 157.676 245.313L157.676 245.313L157.676 245.313L157.676 245.313C157.699 246.174 157.722 247.032 158.896 247.336L158.908 247.364C158.489 247.417 158.399 247.696 158.494 248.038C158.692 248.763 158.901 249.479 159.111 250.196C159.175 250.416 159.239 250.636 159.303 250.856C158.709 252.638 158.115 254.419 157.542 256.209C157.366 256.757 157.484 257.273 158.103 257.419C158.573 257.527 158.876 257.183 159.062 256.755C159.199 256.416 159.29 256.058 159.38 255.701C159.541 255.065 159.702 254.429 160.129 253.892C160.617 254.529 160.829 255.278 161.039 256.023C161.109 256.27 161.179 256.516 161.258 256.757L179.95 314.417C180.054 314.721 180.171 315.024 180.287 315.324L180.336 315.45C180.359 315.511 180.382 315.571 180.405 315.631C180.346 315.758 180.283 315.887 180.221 316.015C179.787 316.908 179.341 317.826 179.838 318.814C180.372 319.861 179.843 320.418 179.14 320.998C175.495 324.02 171.348 326.091 166.828 327.438C166.163 327.636 165.592 327.661 164.908 327.185C162.916 325.816 161.946 325.961 160.625 327.833C160.127 328.543 159.668 328.953 158.807 329.002C154.482 329.235 150.187 329.106 145.929 328.221C145.143 328.055 144.698 327.769 144.646 326.918C144.534 325.177 143.294 324.429 141.861 323.871C141.856 323.713 141.809 323.552 141.762 323.39C141.658 323.034 141.553 322.674 141.901 322.333C141.255 321.957 141.153 321.327 141.053 320.708C141.02 320.503 140.987 320.299 140.934 320.105C139.94 316.437 138.962 312.765 137.983 309.092C137.121 305.861 136.26 302.629 135.388 299.398C135.333 299.191 135.286 298.98 135.24 298.768C135.084 298.057 134.927 297.342 134.427 296.752L134.445 296.736ZM141.408 251.408C141.175 250.916 140.74 250.576 140.166 250.753C139.455 250.979 139.303 251.584 139.518 252.208C140.071 253.812 140.677 255.402 142.431 256.639C142.859 254.487 142.155 252.939 141.408 251.408ZM175.251 311.308C175.579 312.516 176.246 313.523 177.375 314.051C177.895 314.297 178.394 313.962 178.385 313.292C178.385 312.368 176.877 310.669 175.962 310.532C175.711 310.489 175.442 310.52 175.289 310.926C175.287 310.936 175.282 310.952 175.275 310.974C175.251 311.048 175.209 311.18 175.245 311.294L175.251 311.308ZM161.222 324.112C161.314 324.29 161.645 324.424 161.859 324.417C162.217 324.399 162.534 324.107 162.521 323.763C162.483 322.473 162.172 321.224 161.457 320.163C161.115 319.65 160.571 319.955 160.202 320.461C160.333 321.753 160.604 322.985 161.222 324.112ZM144.317 319.572C143.36 319.708 143.055 320.402 142.753 321.089C142.55 321.551 142.348 322.009 141.951 322.295C144.073 322.652 144.417 322.266 144.317 319.572ZM176.616 341.834C176.577 341.859 176.533 341.88 176.49 341.9C176.447 341.921 176.403 341.941 176.364 341.966C176.405 341.936 176.448 341.91 176.491 341.883C176.534 341.857 176.577 341.83 176.618 341.8L176.606 341.83L176.616 341.834ZM94.0549 332.255C94.1963 332.26 94.3377 332.264 94.4766 332.268C94.4643 331.491 94.1739 330.824 93.7369 330.086C93.4034 330.851 93.4966 331.543 93.634 332.242C93.7727 332.245 93.9138 332.25 94.0549 332.255ZM114.2 266.627L114.199 266.63L114.193 266.616C113.946 267.12 113.739 267.646 113.534 268.17L113.534 268.171C113.457 268.367 113.38 268.562 113.301 268.756C114.19 271.108 114.804 273.532 115.417 275.957C115.816 277.532 116.215 279.108 116.689 280.663C116.939 280.795 117.197 280.918 117.456 281.041L117.456 281.041C118.561 281.566 119.676 282.096 120.204 283.409C119.531 283.792 118.963 283.591 118.409 283.394C118.075 283.275 117.746 283.158 117.401 283.173L121.23 297.421C123.852 296.719 126.381 295.757 128.839 294.626C126.325 284.553 123.552 274.546 120.78 264.542L120.141 262.236C116.658 261.665 115.425 264.155 114.2 266.627ZM132.827 309.979C133.583 311.427 133.945 312.99 134.307 314.554C134.446 315.153 134.584 315.752 134.745 316.345C134.932 317.035 135.127 317.723 135.322 318.411L135.322 318.412L135.322 318.412L135.323 318.413L135.323 318.413C135.945 320.606 136.567 322.802 136.911 325.067C136.45 324.87 135.987 324.677 135.524 324.484L135.523 324.484L135.523 324.484L135.522 324.484C133.237 323.531 130.956 322.581 128.889 321.159C128.031 320.566 127.519 319.984 127.637 318.886C127.823 317.045 126.984 315.769 125.313 315.021C125.063 313.946 124.82 312.869 124.578 311.792L124.578 311.791L124.578 311.791L124.577 311.791C123.707 307.928 122.836 304.06 121.639 300.275C124.32 299.398 127.029 298.627 129.797 298.054C130.106 299.21 130.444 300.36 130.782 301.51L130.782 301.51C131.601 304.299 132.421 307.091 132.837 309.983L132.827 309.979ZM128.597 312.858C128.557 313.707 129.315 313.769 129.892 313.383C131.187 312.552 132.433 311.643 132.805 310.005C132.059 309.481 131.304 309.151 130.52 309.932C130.401 310.052 130.278 310.17 130.155 310.289C129.402 311.015 128.63 311.758 128.583 312.864L128.597 312.858ZM184.42 261.72C184.448 261.797 184.476 261.875 184.502 261.951L184.488 261.957C187.776 272.035 191.068 282.102 194.37 292.174C194.424 292.328 194.512 292.476 194.601 292.623C194.645 292.697 194.689 292.771 194.729 292.845C195.148 291.811 195.344 290.839 195.124 289.651C194.962 288.744 195.074 287.827 195.187 286.904C195.302 285.953 195.419 284.996 195.238 284.039C195.207 283.875 195.175 283.711 195.142 283.546L195.142 283.546C194.992 282.785 194.841 282.019 194.825 281.253C194.796 279.71 194.143 279.129 192.576 278.786C190.42 278.309 189.877 275.903 191.569 274.438C192.521 273.62 192.282 273.056 191.932 272.247C190.006 267.889 187.626 263.815 184.46 260.239C184.064 260.743 184.244 261.238 184.42 261.72ZM189.735 304.123C189.432 303.316 189.189 302.488 188.946 301.659C188.514 300.181 188.08 298.703 187.307 297.341C188.341 296.147 188.315 296.066 186.747 295.091C186.25 293.483 185.755 291.876 185.259 290.269L185.259 290.268C184.358 287.348 183.458 284.429 182.553 281.513C183.255 281.846 183.886 281.631 184.519 281.415C184.823 281.312 185.127 281.208 185.441 281.165C185.607 281.648 185.773 282.131 185.938 282.613C186.247 283.514 186.555 284.413 186.869 285.309C187.427 286.9 187.933 288.509 188.439 290.119C189.3 292.854 190.16 295.591 191.279 298.239C191.313 299.222 191.578 300.125 192.262 300.858C192.202 301.383 192.213 301.902 192.541 302.362C192.163 303.927 191.565 305.403 190.719 306.767C190.554 306.326 190.39 305.885 190.227 305.445C190.064 305.005 189.9 304.565 189.735 304.123Z" fill="#0274D7"/>
<path fill-rule="evenodd" clip-rule="evenodd" d="M-42.6567 105.434C-42.9599 106.153 -43.2631 106.872 -43.5562 107.595L-43.6104 107.584C-46.2053 113.984 -48.7989 120.383 -51.3924 126.783C-60.8956 150.232 -70.3988 173.681 -79.9701 197.103C-80.7762 199.091 -80.5269 200.349 -79.1485 201.878C-76.0616 205.305 -72.7663 208.476 -69.1799 211.333C-64.0892 215.397 -59.2432 219.717 -54.3896 224.044C-53.8218 224.55 -53.2539 225.056 -52.6855 225.562C-51.8444 226.312 -51.0297 227.099 -50.3158 227.961C-47.9205 230.829 -45.472 233.654 -43.0234 236.478L-43.0207 236.482L-43.0199 236.482C-39.0119 241.106 -35.0036 245.73 -31.227 250.548C-31.065 250.754 -30.9031 250.96 -30.7553 251.172C-25.6373 258.445 -19.4146 264.732 -13.1986 271.013C-11.697 272.53 -10.1958 274.047 -8.71064 275.577C-5.80819 278.568 -2.43141 281.123 0.929057 283.665C1.51006 284.104 2.09058 284.543 2.66809 284.984C4.6881 286.517 6.68179 286.413 8.7261 285.407C10.4337 284.568 12.0836 283.612 13.6675 282.559C16.9928 280.354 20.1821 277.965 22.9335 275.071C23.8229 274.146 24.4374 273.928 25.5294 274.78C25.7322 274.937 25.9351 275.094 26.1378 275.252C28.3872 276.995 30.6222 278.728 32.588 280.833C33.5708 281.896 34.7514 282.784 35.9288 283.67C36.3478 283.985 36.7665 284.3 37.1756 284.622C44.7296 290.55 52.3017 296.461 60.279 301.777C68.2622 307.107 76.201 312.489 83.6315 318.576C83.6686 318.608 83.706 318.641 83.7437 318.674L83.8183 318.739C84.156 319.037 84.5168 319.355 84.9045 319.443C86.4254 319.777 87.3672 320.814 88.3082 321.851C88.808 322.401 89.3075 322.951 89.8935 323.395C90.4378 323.805 90.3787 324.34 90.3167 324.899L90.3055 325.002C90.3019 325.036 90.2985 325.069 90.2952 325.103C90.2892 325.166 90.284 325.23 90.2806 325.294C90.0004 331.259 90.036 337.224 90.1882 343.189C90.4127 351.685 98.3277 357.817 104.508 358.254L104.839 358.278C107.49 358.467 110.146 358.656 112.795 358.541L113.156 358.524C116.228 358.388 119.318 358.25 122.212 356.993C122.621 356.82 123.044 356.7 123.459 356.915C125.014 357.721 126.624 358.303 128.425 358.157C128.843 358.124 129.016 358.46 129.183 358.784L129.214 358.845L129.227 358.869L129.247 358.907C129.255 358.923 129.264 358.939 129.273 358.954L129.292 358.988C130.128 360.414 131.079 361.758 132.5 362.662C132.952 362.957 133.172 363.372 133.405 363.813L133.436 363.871C134.981 366.803 136.571 369.711 138.162 372.62C141.719 379.124 145.277 385.632 148.337 392.405L148.458 392.675L148.458 392.675C150.628 397.478 152.78 402.24 153.394 407.572C153.54 408.786 153.813 409.986 154.086 411.185C154.314 412.184 154.542 413.183 154.696 414.191C157.768 434.456 163.321 454.079 169.695 473.521C173.84 486.155 178.884 498.359 185.419 509.941C190.414 518.805 194.154 528.201 197.561 537.754C197.763 538.339 197.918 538.941 198.074 539.543L198.074 539.543L198.074 539.544C198.2 540.032 198.326 540.521 198.477 541.001C199.174 543.259 199.162 544.902 196.742 546.575C193.273 548.991 192.049 553.135 190.988 557.077C188.95 564.667 190.458 571.872 193.985 578.68C196.824 584.179 200.158 589.398 203.488 594.61L203.839 595.16C204.338 595.937 204.823 596.723 205.308 597.51L205.309 597.512C206.958 600.186 208.61 602.864 210.794 605.159C213.914 608.446 217.616 610.73 222.201 611.269C222.467 611.3 222.733 611.332 222.999 611.364C225.98 611.722 228.967 612.081 231.995 611.441C234.806 610.851 237.207 609.685 239.218 607.637C242.333 604.481 244.998 601.05 246.417 596.657C247.482 599.41 248.772 601.917 250.053 604.408C250.391 605.067 250.729 605.724 251.062 606.385C253.053 610.325 256.259 612.735 259.995 614.706C264.391 617.03 269.137 618.333 273.881 619.635L273.881 619.635L273.881 619.635L273.881 619.635L273.882 619.635L273.882 619.635L273.882 619.635L273.882 619.635L273.883 619.636L273.883 619.636L273.883 619.636L273.883 619.636L273.884 619.636L273.884 619.636L273.884 619.636L273.884 619.636L273.885 619.636L273.885 619.636L273.885 619.636L273.885 619.637L273.885 619.637L273.886 619.637L273.886 619.637L273.886 619.637L273.886 619.637L273.887 619.637L273.887 619.637L274.415 619.782C274.804 619.889 275.197 619.988 275.589 620.086C276.375 620.282 277.16 620.478 277.916 620.746C283.287 622.632 288.304 621.79 293.104 618.944C293.179 618.904 293.257 618.854 293.332 618.815C297.835 616.385 300.769 612.724 302.126 607.792C302.464 606.583 302.866 605.386 303.267 604.19L303.267 604.19C303.389 603.828 303.51 603.467 303.629 603.106C303.831 602.521 304.07 601.905 304.845 602.009C305.611 602.109 305.727 602.775 305.736 603.387C305.738 603.763 305.694 604.138 305.649 604.515C305.623 604.737 305.597 604.959 305.58 605.183C305.194 609.737 306.783 613.514 310.172 616.513C313.096 619.102 316.252 621.376 319.817 623.02L320.013 623.11C325.059 625.434 330.114 627.761 335.689 628.58C339.188 629.087 342.59 628.537 345.926 627.517C347.61 626.996 348.924 625.857 350.067 624.509C351.686 622.593 353.037 620.499 354.573 618.095C355.71 620.134 356.815 621.961 358.115 623.657C360.915 627.329 364.845 629.309 368.981 630.869C372.986 632.377 376.662 630.98 380.031 628.781C382.277 627.306 384.238 625.495 385.948 623.383C394.066 613.336 401.582 602.871 407.956 591.65C411.415 585.571 414.619 579.283 416.992 572.682C418.814 567.611 419.282 562.307 418.295 556.844C417.39 551.873 416.137 546.991 414.884 542.11L414.884 542.109C413.901 538.28 412.919 534.451 412.104 530.58C411.605 528.213 411.087 525.85 410.57 523.485L410.569 523.482L410.563 523.455C410.121 521.435 409.679 519.415 409.248 517.392C409.22 517.264 409.19 517.135 409.16 517.005C408.996 516.296 408.826 515.561 409.015 514.68C409.645 514.594 410.115 514.934 410.557 515.255C410.706 515.363 410.851 515.468 410.998 515.554C415.477 518.2 420.304 518.229 425.09 517.06C434.047 514.859 437.867 505.151 433.253 496.757C432.42 495.238 431.53 493.743 430.521 492.34C428.727 489.848 427.379 487.15 426.518 484.229C421.98 468.875 414.001 455.177 405.883 441.563C404.671 439.531 403.436 437.513 402.201 435.495C398.693 429.763 395.186 424.032 392.207 417.991C391.04 415.624 389.859 413.263 388.678 410.902C387.496 408.541 386.315 406.18 385.147 403.812C382.172 397.764 378.42 392.207 374.664 386.645L374.658 386.637C374.009 385.675 373.359 384.713 372.714 383.749C370.891 381.01 369.013 378.32 367.107 375.642C359.823 365.417 350.772 356.872 341.249 348.825C322.432 332.918 303.092 317.664 283.346 302.923C275.676 297.194 268.967 290.569 263.14 282.946C256.713 274.529 249.089 267.217 241.085 260.324C236.943 256.763 232.161 254.087 227.271 251.648C226.113 251.074 225.233 250.623 225.462 249.021C225.688 247.453 224.957 245.999 224.145 244.629C222.613 242.067 220.57 239.929 218.377 237.988C216.983 236.755 215.599 235.51 214.215 234.266C208.595 229.211 202.975 224.156 196.692 219.901C193.895 218.007 191.009 216.276 188.067 214.626C186.37 213.681 184.469 213.179 182.57 213.426C181.41 213.575 180.823 213.267 180.221 212.415C177.372 208.397 174.251 204.596 171.131 200.796C169.805 199.182 168.479 197.568 167.175 195.937C159.508 186.34 151.623 176.935 142.342 168.811C140.157 166.903 138.182 164.779 136.206 162.652L136.206 162.652C134.474 160.788 132.741 158.923 130.863 157.201C130.435 156.808 130.012 156.41 129.589 156.012C128.119 154.63 126.653 153.251 124.997 152.098C124.103 151.479 123.523 150.776 123.488 149.593C123.264 142.768 119.503 137.748 114.836 133.319C112.538 131.14 110.341 128.873 108.146 126.607C107.397 125.834 106.649 125.062 105.897 124.293C97.9152 116.135 90.2285 107.71 82.9316 98.9298C81.2843 96.9453 79.7278 94.8894 78.1711 92.8334C76.7006 90.8912 75.23 88.9488 73.6826 87.0663C72.2953 85.374 70.8705 83.7164 69.4461 82.0594C67.0973 79.3269 64.7495 76.5956 62.5723 73.7116C60.0008 70.302 57.6663 66.7385 55.3321 63.1754L55.3312 63.1741C53.3537 60.1556 51.3764 57.1373 49.2552 54.2131C48.4359 53.0824 47.6205 51.9485 46.8051 50.8145C41.1618 42.9664 35.5163 35.1151 28.5511 28.3173C24.9518 24.8003 21.1096 21.594 17.227 18.4296C12.1724 14.3225 7.55615 9.79687 3.73413 4.49448C3.01262 3.49963 2.22516 2.55975 1.4234 1.60282L1.42261 1.60184L1.42127 1.60027L1.42046 1.59934L1.42008 1.59884L1.41981 1.59852L1.41968 1.59834L1.41954 1.59822C1.04816 1.15492 0.673684 0.707908 0.301241 0.250032C-1.51258 3.14614 -1.49282 3.171 0.203389 5.30731L0.326351 5.46226C6.50757 13.2761 13.4385 20.3653 20.6762 27.2164C29.0993 35.1796 37.0313 43.6332 44.3047 52.6732C47.2337 56.3158 49.9022 60.1685 52.361 64.1348C59.5217 75.7009 67.4513 86.7254 75.7665 97.4621C82.2226 105.808 89.5352 113.426 96.9104 120.976L97.015 121.083C99.1767 123.286 99.1879 123.297 97.6503 126.011C93.6661 133.069 88.3934 139.125 82.9043 145.024C81.3411 146.701 79.7683 148.371 78.1954 150.04L78.1947 150.041L78.194 150.042L78.1933 150.042L78.1926 150.043L78.1919 150.044L78.1912 150.045L78.1905 150.045L78.1898 150.046L78.188 150.048L78.1863 150.05L78.1845 150.052L78.1828 150.054L78.181 150.056L78.1793 150.057L78.1775 150.059L78.1758 150.061L78.174 150.063L78.1712 150.066L78.1684 150.069L78.1656 150.072L78.1618 150.076L78.1569 150.081L78.151 150.088L78.1451 150.094L78.1381 150.101L78.1312 150.109L78.1308 150.109L78.1304 150.11L78.1301 150.11L78.1297 150.111L78.1293 150.111L78.129 150.111L78.1286 150.112L78.1282 150.112L78.1279 150.113L78.1275 150.113L78.1271 150.113L78.1268 150.114L78.1264 150.114L78.126 150.115L78.1257 150.115L78.1253 150.116L78.1249 150.116L78.1246 150.116L78.1242 150.117L78.1238 150.117L78.1235 150.118L78.1231 150.118L78.1227 150.118L78.1223 150.119L78.122 150.119L78.1216 150.12C73.8486 154.655 69.5749 159.191 65.484 163.888C58.7268 171.646 52.4123 179.781 46.2 187.982C38.9475 197.537 30.7662 206.155 21.6336 213.92C19.6383 215.612 17.5069 216.747 14.854 216.747C14.5724 216.749 14.3635 216.688 14.1959 216.41C14.139 215.987 14.4173 215.762 14.693 215.54C14.8123 215.444 14.9312 215.348 15.0222 215.237C16.3092 213.619 16.5318 212.494 15.6473 211.562C14.7569 210.617 13.5952 210.859 12.0817 212.314C11.8865 212.5 11.6948 212.694 11.5022 212.889C11.3379 213.055 11.1729 213.222 11.0045 213.385C10.3783 212.896 10.1346 212.24 9.89552 211.596C9.80262 211.346 9.71041 211.098 9.59672 210.862C8.01568 207.556 6.18235 204.439 3.42273 201.964C-0.925006 198.073 -7.18926 198.304 -11.2764 202.503C-12.3012 203.56 -13.1236 204.782 -13.9201 206.025C-15.4237 208.35 -17.0876 210.551 -19.1923 212.397C-20.3235 213.4 -21.588 214.126 -23.0953 214.298C-24.5543 214.467 -25.2885 213.654 -24.7791 212.283C-23.6929 209.345 -24.1056 206.501 -24.8761 203.616C-26.3894 197.953 -29.0154 192.785 -32.0708 187.84C-33.9847 184.749 -35.1373 181.453 -35.5243 177.882C-36.212 171.595 -36.2421 165.328 -35.2604 159.016L-35.0962 157.969L-35.0959 157.967C-33.664 148.831 -32.2314 139.69 -31.3675 130.482C-30.8925 125.39 -30.8457 120.289 -31.3279 115.195C-31.5383 112.947 -31.9118 110.727 -32.5429 108.566C-32.9247 107.23 -33.4152 105.932 -34.2102 104.78C-35.2188 103.319 -36.3891 102.026 -38.381 102.153C-40.5076 102.296 -41.8531 103.539 -42.6567 105.434ZM182.027 217.473C182.66 216.747 183.373 216.487 184.332 216.747L184.317 216.753C187.112 217.501 189.466 219.016 191.748 220.795C190.825 221.976 189.918 221.503 189.162 220.974C187.368 219.721 185.485 219.12 183.317 219.854C182.815 220.025 182.22 219.994 181.99 219.41L181.961 219.336C181.73 218.734 181.483 218.094 182.027 217.473ZM179.039 224.9C180.288 225.652 181.458 226.571 182.568 227.523L182.554 227.529C183.203 228.085 183.85 228.643 184.497 229.201L184.508 229.21L184.508 229.21L184.508 229.21L184.508 229.211L184.509 229.211L184.509 229.211L184.509 229.211L184.509 229.211L184.51 229.212L184.51 229.212L184.51 229.212L184.51 229.212L184.51 229.212L184.511 229.212L184.511 229.213L184.511 229.213L184.511 229.213L184.512 229.213L184.512 229.213L184.512 229.214L184.512 229.214L184.512 229.214L184.513 229.214L184.513 229.214L184.513 229.215L184.513 229.215L184.514 229.215C187.788 232.037 191.06 234.857 194.54 237.428C194.812 237.621 195.079 237.857 194.984 238.263C193.719 239.309 192.505 239.304 191.344 238.248C190.241 237.243 189.171 236.203 188.102 235.163L188.101 235.163L188.101 235.162L188.1 235.162L188.1 235.162L188.1 235.162L188.1 235.161L188.099 235.161L188.099 235.161L188.099 235.161L188.098 235.16L188.098 235.16L188.098 235.16L188.098 235.159L188.097 235.159C186.57 233.674 185.041 232.189 183.413 230.8L183.19 230.61L183.029 230.472C180.653 228.438 178.301 226.424 174.82 226.31C176.339 224.237 177.36 223.88 179.039 224.9ZM200.947 252.819C202.84 254.939 204.735 257.062 206.771 259.058L206.781 259.062C207.453 259.72 208.083 260.422 208.714 261.124L208.715 261.125L208.715 261.125L208.715 261.126L208.716 261.126L208.716 261.127L208.717 261.127L208.717 261.128L208.717 261.128C209.043 261.49 209.368 261.853 209.7 262.21C209.634 262.3 209.572 262.389 209.509 262.478C209.447 262.566 209.385 262.655 209.319 262.745C207.488 261.324 205.624 259.926 203.511 258.998C201.247 258.01 199.648 256.333 198.511 254.294C196.968 251.529 194.842 249.276 192.582 247.155C190.882 245.554 189.259 243.879 187.705 242.15C184.054 238.097 179.609 235.196 174.655 233C174.396 232.884 174.127 232.788 173.858 232.691C173.256 232.475 172.651 232.258 172.143 231.818C173.989 229.714 175.422 229.524 177.673 231.208C184.859 236.6 191.498 242.624 197.643 249.172C198.76 250.37 199.852 251.592 200.945 252.816L200.945 252.817L200.947 252.819ZM211.525 258.782L211.525 258.781C211.489 258.729 211.453 258.676 211.416 258.625C211.383 258.579 211.349 258.534 211.313 258.492L211.309 258.502C208.601 255.264 205.831 252.095 202.575 249.372C201.452 248.426 200.372 247.427 199.321 246.416C196.945 244.12 196.949 244.11 199.572 241.62C200.808 242.819 202.043 244.007 203.272 245.191L203.272 245.191L203.273 245.191L203.273 245.191L203.273 245.192L203.274 245.192L203.274 245.192L203.275 245.193L203.275 245.193L203.275 245.194L203.276 245.194L203.279 245.197C206.309 248.113 209.307 250.998 212.23 253.954C214.445 256.185 214.337 256.48 212.447 259.442C211.97 259.436 211.745 259.106 211.526 258.784L211.525 258.782ZM220.329 245.338C221.121 246.15 221.738 247.078 222.059 248.19L222.069 248.194C222.458 249.568 222.217 251.2 221.155 251.716C220.081 252.233 219.289 253.029 218.466 253.856C217.854 254.472 217.225 255.105 216.449 255.653C216.367 255.36 216.22 255.109 216.084 254.876C215.786 254.368 215.54 253.949 216.138 253.364C218.341 251.218 218.687 249.126 217.37 246.464C216.677 245.061 215.833 243.772 214.752 242.632C209.821 237.441 204.581 232.581 198.85 228.269C197.952 227.601 197.085 226.887 196.235 226.157C196.173 226.103 196.107 226.048 196.041 225.992C195.434 225.484 194.738 224.9 195.429 224.053C196.021 223.33 196.597 223.838 197.082 224.266C197.185 224.358 197.285 224.445 197.38 224.517C205.622 230.793 213.114 237.911 220.329 245.338ZM212.998 270.643C212.824 269.943 212.658 269.277 213.43 268.69L213.44 268.695C214.847 267.617 214.965 266.087 214.824 264.475C214.815 264.359 214.784 264.236 214.752 264.112C214.659 263.744 214.562 263.358 215.016 263.079C215.51 262.973 215.681 263.295 215.84 263.596L215.86 263.632C215.871 263.654 215.883 263.675 215.894 263.696C215.911 263.726 215.928 263.756 215.945 263.784C216.916 265.337 217.535 267.045 218.157 268.758L218.273 269.076C218.321 269.209 218.369 269.342 218.418 269.474C218.968 270.971 218.566 272.048 217.571 273.234C216.099 274.99 214.323 276.366 212.555 277.735C211.767 278.345 210.98 278.954 210.223 279.595C209.805 279.284 209.788 278.933 209.771 278.603C209.767 278.521 209.763 278.441 209.753 278.363C209.555 276.892 209.853 275.867 211.45 275.159C213.262 274.35 213.524 273.241 213.089 271.03C213.062 270.9 213.03 270.771 212.998 270.643ZM198.16 329.143C198.342 329.299 198.552 329.501 198.598 329.706L198.592 329.692C198.663 330.018 198.464 329.998 198.272 329.98C198.239 329.977 198.206 329.973 198.175 329.972C198.159 329.971 198.143 329.971 198.128 329.972C198.083 329.948 198.036 329.926 197.988 329.903L197.988 329.903C197.745 329.79 197.492 329.672 197.586 329.319C197.653 329.066 197.921 328.953 198.16 329.143ZM200.533 327.989C200.487 328.333 200.142 328.521 199.787 328.388C199.471 328.272 199.257 328.022 199.358 327.63C199.482 327.294 199.739 327.036 200.077 327.068C200.654 327.115 200.587 327.625 200.533 327.989ZM196.09 330.817C196.516 331.036 196.824 331.372 196.743 331.83L196.749 331.844C196.646 332.445 196.168 332.672 195.615 332.507C195.242 332.39 194.72 332.12 194.954 331.63C195.149 331.207 195.497 330.752 196.09 330.817ZM193.929 333.235C194.173 333.406 194.426 333.583 194.343 333.943L194.347 333.933C194.261 334.319 193.993 334.49 193.631 334.344L193.596 334.331C193.229 334.194 192.819 334.041 193.036 333.506C193.175 333.165 193.505 333.1 193.856 333.184C193.88 333.201 193.904 333.218 193.929 333.235ZM198.434 321.983C198.695 324.193 197.184 327.227 195.575 327.966C195.21 328.145 194.937 328.011 194.687 327.735C194.345 327.339 194.413 326.969 194.715 326.6C195.078 326.147 195.443 325.694 195.811 325.237C196.084 324.899 196.359 324.558 196.636 324.215L196.638 324.212C197.224 323.486 197.82 322.746 198.434 321.983ZM202.124 317.467C201.928 317.868 201.7 318.337 200.881 317.878C207.096 306.99 209.179 295.198 207.911 282.444L208.045 282.598L208.169 282.741C209.314 284.055 209.379 284.13 209.411 285.344C209.733 296.627 207.537 307.344 202.185 317.343L202.175 317.362C202.167 317.378 202.159 317.394 202.151 317.411L202.124 317.467ZM155.246 371.044C154.396 369.133 153.879 367.123 153.634 365.048L153.648 364.983C153.088 360.197 155.254 356.037 159.471 353.737C161.628 352.567 163.945 351.869 166.332 351.4C168.629 350.952 170.883 350.323 173.049 349.448C179.113 346.974 184.824 343.959 188.965 338.647C189.9 337.437 191.456 337.086 192.606 337.248C194.762 337.55 196.087 336.532 197.412 335.281C198.839 333.933 199.952 332.328 201.067 330.722L201.067 330.721L201.068 330.719C201.178 330.562 201.287 330.404 201.396 330.247C201.505 330.091 201.613 329.936 201.723 329.781C202.172 329.133 202.696 328.247 202.355 327.618C201.464 325.982 201.887 324.564 202.51 323.028C202.75 322.435 202.711 321.637 202.578 320.986C202.381 320.03 202.694 319.374 203.305 318.674C205.03 316.697 206.28 314.422 207.191 311.974C210.384 303.437 212.027 294.658 211.257 285.52C211.139 284.081 211.464 282.962 212.51 282.053C213.288 281.375 214.102 280.723 214.949 280.132C217.238 278.523 219.196 276.605 220.866 274.36C221.887 272.997 222.199 271.534 221.823 269.955C221.156 267.159 220.208 264.484 218.473 262.132C217.005 260.134 216.975 260.063 219.114 258.593C221.354 257.046 223.282 255.232 224.796 252.305C225.973 254.302 227.51 255.439 229.026 256.545C235.77 261.442 242.051 266.819 247.49 273.15C247.69 273.383 247.917 273.596 248.144 273.81L248.146 273.812L248.148 273.814C248.234 273.896 248.321 273.977 248.406 274.06C252.833 278.333 256.768 283.039 260.558 287.872C264.958 293.479 269.966 298.479 275.366 303.089C281.004 307.902 287.213 311.893 293.44 315.897L293.441 315.897C293.84 316.153 294.239 316.41 294.637 316.667C302.918 322.012 310.772 327.979 318.585 333.988C331.207 343.701 343.386 353.9 354.546 365.288C359.76 370.617 364.398 376.414 368.851 382.381C370.094 384.042 371.268 385.758 372.178 387.635C372.606 388.519 373.034 389.403 373.463 390.287C376.169 395.868 378.874 401.446 381.286 407.168C386.026 418.419 391.241 429.453 396.83 440.311C399.802 446.069 403.042 451.672 406.281 457.273L406.282 457.274L406.282 457.274L406.282 457.275L406.283 457.276L406.283 457.276L406.284 457.277L406.284 457.278L406.285 457.279L406.285 457.28L406.286 457.281L406.286 457.282L406.287 457.283L406.287 457.284L406.288 457.285L406.288 457.285L406.289 457.286L406.289 457.287L406.29 457.288L406.29 457.289L406.291 457.29L406.291 457.291L406.292 457.292L406.292 457.293L406.293 457.294L406.293 457.294L406.294 457.295L406.294 457.296L406.295 457.297L406.295 457.298L406.296 457.299C407.818 459.93 409.339 462.561 410.833 465.208C413.563 470.033 416.035 474.975 418.06 480.156C420.225 485.71 422.534 491.229 426.419 495.914C427.665 497.425 428.807 499.104 429.514 500.992C429.566 501.126 429.622 501.262 429.678 501.4C430.059 502.325 430.464 503.306 429.616 504.142C428.769 504.976 427.805 504.545 426.917 504.148C426.764 504.08 426.614 504.012 426.467 503.953C421.503 501.928 417.434 498.56 413.436 495.103C413.056 494.773 412.766 494.305 412.499 493.87C410.286 490.248 408.157 486.591 406.733 482.554C406.335 481.424 405.949 480.288 405.564 479.152C404.333 475.525 403.101 471.893 401.449 468.464C400.336 466.155 399.236 463.84 398.136 461.524C394.556 453.987 390.975 446.448 386.938 439.141C381.842 429.92 377.644 420.385 375.598 409.982C374.774 405.79 373.051 401.911 370.858 398.24C370.367 397.433 369.82 396.65 369.236 395.899L369.225 395.885C368.929 395.497 368.545 394.995 367.959 395.358C367.578 395.592 367.672 396.001 367.759 396.381C367.772 396.436 367.784 396.489 367.795 396.542C368.245 398.747 368.89 400.902 369.654 403.024C371.379 407.85 372.529 412.794 373.197 417.892C374.015 424.174 375.391 430.379 377.78 436.246C380.551 443.05 383.508 449.776 386.464 456.502C386.957 457.623 387.45 458.744 387.942 459.865C392.018 469.152 395.774 478.566 398.029 488.481C403.288 511.597 408.718 534.666 414.868 557.571C416.149 562.368 415.589 566.946 413.513 571.201C410.812 576.74 407.878 582.177 404.944 587.612C404.342 588.728 403.74 589.843 403.14 590.959C401.194 594.577 398.267 596.406 394.605 597.54L394.467 597.583L394.467 597.583C393.845 597.777 393.231 597.968 392.597 598.081C387.544 598.955 382.732 598.43 378.485 595.328C375.976 593.504 374.354 591.163 375.066 587.793C375.192 587.196 375.225 586.579 375.259 585.963C375.272 585.713 375.286 585.462 375.306 585.213C375.876 578.243 375.29 571.389 373.218 564.681C371.739 559.884 370.302 555.069 368.889 550.253C365.239 537.784 364.049 525.156 366.528 512.297C366.542 512.232 366.558 512.166 366.574 512.1C366.62 511.914 366.666 511.724 366.673 511.537C366.723 510.634 366.306 510.021 365.434 509.807C364.681 509.619 364.04 509.932 363.736 510.65C363.315 511.638 362.96 512.643 362.603 513.655L362.603 513.655C362.556 513.787 362.51 513.918 362.463 514.05C359.428 522.744 358.413 531.731 358.562 540.875C358.608 543.651 358.642 546.426 358.677 549.202C358.808 559.829 358.939 570.452 359.714 581.065C360.037 585.486 359.726 589.884 358.685 594.208C358.463 595.158 358.192 596.03 357.448 596.71C353.307 600.525 348.554 603.052 342.813 603.085C335.281 603.129 328.3 601.034 321.883 597.088C320.463 596.208 319.322 595.102 318.541 593.57C315.506 587.651 313.44 581.448 312.774 574.819C312.254 569.733 311.355 564.716 310.436 559.69C309.339 553.761 308.374 547.813 307.409 541.861L307.231 540.762C307.073 539.79 306.969 538.812 306.864 537.833C306.777 537.009 306.689 536.185 306.569 535.362C306.539 535.158 306.549 534.923 306.56 534.683C306.589 534.001 306.62 533.291 305.726 533.232C304.884 533.176 304.777 533.865 304.672 534.535C304.635 534.771 304.598 535.004 304.53 535.201C304.516 535.255 304.511 535.308 304.507 535.363L304.507 535.363L304.504 535.397L304.501 535.421C304.5 535.432 304.499 535.445 304.497 535.457C302.952 543.82 302.479 552.279 302.693 560.771C302.912 569.51 302.893 578.234 301.992 586.941C301.734 589.478 300.722 591.569 299.076 593.439C294.352 598.806 288.294 600.861 281.366 600.191C272.334 599.322 265.863 594.326 261.171 586.788C260.732 586.084 260.597 585.41 260.77 584.58C261.386 581.598 261.155 578.597 260.924 575.585L260.92 575.534C260.578 571.032 259.924 566.57 259.27 562.109L259.27 562.108L259.27 562.107L259.269 562.107L259.269 562.107L259.269 562.107L259.269 562.106L259.269 562.106L259.269 562.106L259.269 562.105L259.269 562.105L259.269 562.105L259.269 562.104L259.269 562.104L259.269 562.104L259.269 562.104L259.269 562.103L259.269 562.103L259.269 562.102C258.844 559.204 258.419 556.307 258.08 553.399C257.611 549.339 256.532 545.43 255.299 541.552C254.958 540.472 254.387 539.499 253.816 538.525C253.765 538.438 253.714 538.351 253.663 538.264C253.541 538.054 253.419 537.843 253.301 537.632C252.996 537.087 252.525 536.662 251.833 536.756C250.978 536.877 250.751 537.579 250.659 538.267C250.409 540.094 250.682 541.9 250.997 543.688C251.425 546.176 251.518 548.657 251.21 551.174C250.249 558.991 248.884 566.737 247.343 574.459C247.168 575.323 246.822 576.06 246.322 576.804C244.831 579.04 242.82 580.597 240.375 581.64C233.206 584.706 225.951 582.279 220.638 577.108C220.108 576.601 219.901 575.956 219.76 575.267C219.578 574.347 219.377 573.429 219.176 572.51L219.176 572.509L219.175 572.507C218.747 570.547 218.318 568.588 218.07 566.61C217.322 560.645 216.274 554.725 215.226 548.806L215.226 548.806L215.226 548.805L215.225 548.802C214.781 546.29 214.336 543.778 213.914 541.264C212.448 532.534 210.411 523.929 208.374 515.323L208.373 515.323L208.373 515.322C207.281 510.709 206.189 506.095 205.184 501.461C203.898 495.527 202.188 489.714 200.142 484.009C198.936 480.641 197.727 477.275 196.518 473.909L196.516 473.903L196.513 473.897L196.511 473.891L196.509 473.885L196.507 473.879L196.505 473.873L196.492 473.838C189.602 454.66 182.713 435.483 176.503 416.067C175.106 411.701 173.528 407.379 171.424 403.287L171.423 403.285L171.422 403.283L171.42 403.281L171.419 403.278L171.418 403.276L171.417 403.274L171.416 403.272L171.415 403.269L171.413 403.267L171.412 403.265C168.336 397.265 165.259 391.266 162.019 385.352C159.657 381.043 157.684 376.569 155.708 372.09L155.707 372.09L155.706 372.086L155.382 371.352L155.246 371.044ZM184.409 337.385C181.837 339.353 179.516 341.014 176.66 341.782C176.87 341.554 177.072 341.317 177.276 341.08L177.276 341.079C178.069 340.153 178.867 339.219 180.076 338.807C180.496 338.664 180.872 338.391 181.259 338.11C182.083 337.512 182.957 336.878 184.409 337.385ZM176.35 341.972C174.372 343.391 172.171 344.322 169.829 344.939L169.833 344.929C165.573 346.615 161.186 347.606 156.588 347.472C159.11 346.465 161.757 346.066 164.403 345.668C166.178 345.4 167.952 345.133 169.687 344.683C170.805 343.96 172.058 343.557 173.311 343.155C174.35 342.821 175.388 342.488 176.35 341.972ZM135.746 356.59C135.529 356.864 135.255 357.022 134.869 356.994L134.873 356.984C133.041 356.861 132.138 355.139 133.18 353.609C133.65 352.911 134.246 352.276 134.866 351.697C135.622 350.987 136.532 350.876 137.425 351.239C138.758 351.698 139.017 352.27 138.281 353.363C137.729 354.169 137.105 354.928 136.482 355.686C136.235 355.986 135.988 356.287 135.746 356.59ZM198.238 317.017C186.616 337.379 163.994 347.05 141.084 341.956L141.088 341.946C135.288 340.658 129.766 338.769 124.765 335.537C111.135 326.725 102.266 314.385 98.6194 298.621C95.9892 287.267 97.829 276.101 101.993 265.199C107.355 252.293 116.562 242.876 129.377 237.271C145.489 230.221 161.442 231.231 176.803 239.635C184.464 243.828 190.882 249.646 195.947 256.785C199.786 262.188 202.366 268.249 203.996 274.661C207.772 289.531 205.799 303.764 198.238 317.017ZM169.059 225.294C168.146 226.646 166.866 226.896 165.458 226.313C163.956 225.692 162.647 226.097 161.241 226.625C160.813 226.785 160.389 226.954 159.965 227.123L159.964 227.124L159.964 227.124L159.963 227.124L159.963 227.124L159.962 227.124L159.962 227.125L159.961 227.125L159.961 227.125L159.961 227.125L159.96 227.126L159.96 227.126L159.958 227.127C158.482 227.715 157.008 228.302 155.423 228.521C155.551 228.41 155.662 228.269 155.773 228.128C155.973 227.873 156.173 227.618 156.473 227.544C158.351 227.104 159.825 225.986 161.308 224.862C161.67 224.587 162.034 224.312 162.403 224.046C164.726 222.381 167 222.882 169.059 225.294ZM133.345 230.943C140.175 228.569 147.186 227.823 154.38 228.613C153.318 229.187 152.254 229.562 150.989 229.54C143.471 229.403 136.236 230.817 129.275 233.688C129.262 233.693 129.249 233.699 129.236 233.704C129.217 233.712 129.199 233.721 129.181 233.73L129.146 233.747L129.109 233.766L129.061 233.791L129.06 233.791C128.692 233.983 128.275 234.2 127.774 233.441C129.575 232.43 131.425 231.614 133.345 230.943ZM93.7751 335.288C93.7155 334.269 93.656 333.251 93.614 332.234L93.5999 332.24C93.4625 331.541 93.3693 330.848 93.7028 330.084C94.1398 330.822 94.4301 331.489 94.4466 332.256C94.7702 333.464 95.1417 334.661 95.5134 335.857L95.5137 335.858L95.5139 335.859L95.5142 335.86L95.5145 335.861L95.5147 335.861L95.515 335.862L95.5153 335.863L95.5155 335.864L95.5158 335.865L95.5161 335.865L95.5163 335.866L95.5166 335.867L95.5169 335.868L95.5171 335.869L95.5174 335.869L95.5177 335.87L95.5179 335.871L95.5182 335.872L95.5185 335.873L95.5188 335.873L95.519 335.874L95.5193 335.875L95.5196 335.876L95.5198 335.877L95.5201 335.877L95.5204 335.878L95.5205 335.878C96.3205 338.454 97.1213 341.031 97.4563 343.74C97.5867 344.806 97.9449 345.845 98.2971 346.867L98.2972 346.867L98.3377 346.985C99.3195 349.838 100.462 350.71 103.452 350.801C105.526 350.857 107.598 350.86 109.668 350.864L109.671 350.864L109.683 350.864C110.538 350.865 111.393 350.867 112.247 350.872C113.887 350.882 115.124 351.723 115.958 353.394C114.084 353.617 112.208 353.614 110.338 353.611L110.338 353.611C108.85 353.609 107.366 353.607 105.892 353.719C100.144 354.146 93.7956 348.79 93.9809 342.05C94.0389 339.803 93.907 337.545 93.7752 335.289L93.7751 335.288ZM99.6675 341.515C101.38 344.267 103.628 346.418 106.623 348.544L106.613 348.54C106.095 348.54 105.63 348.538 105.203 348.537L105.199 348.537C104.249 348.533 103.482 348.53 102.717 348.55C101.733 348.584 101.059 348.17 100.744 347.247C100.133 345.41 99.7282 343.527 99.6675 341.515ZM91.9485 319.245C91.8707 319.16 91.7931 319.074 91.7149 318.99L91.729 318.984C89.398 316.461 89.4111 316.256 91.8726 313.817C91.9064 313.784 91.9549 313.772 92.0517 313.748L92.0519 313.748C92.1229 313.73 92.2199 313.706 92.3561 313.662C93.3313 315.379 94.4826 316.863 95.765 318.283C100.282 323.283 104.943 328.13 109.768 332.834C110.989 334.024 112.182 335.244 113.375 336.464C117.363 340.543 121.349 344.621 126.372 347.54C127.666 348.298 128.221 350.359 127.758 351.703C127.32 352.986 126.252 353.313 125.18 352.469C124.771 352.151 124.407 351.781 124.047 351.402C122.708 350.008 121.372 348.607 120.036 347.206L120.021 347.191C118.68 345.785 117.34 344.38 115.996 342.982C114.487 341.412 112.991 339.829 111.495 338.247L111.494 338.246L111.493 338.245L111.492 338.243L111.49 338.242L111.489 338.241L111.488 338.24L111.487 338.238L111.485 338.237C105.519 331.927 99.5545 325.62 92.8077 320.1C92.4934 319.845 92.2193 319.543 91.9485 319.245ZM90.6409 308.293C89.5895 309.223 88.5207 310.17 87.3204 311.036L87.3063 311.042C87.7424 305.268 88.4594 304.25 93.1287 302.765C93.6651 304.151 93.6675 305.731 92.6174 306.591C91.9469 307.137 91.2973 307.712 90.6409 308.293ZM95.2475 295.897C93.9761 290.963 93.1192 285.986 93.524 280.866L93.5381 280.86C93.5599 280.518 93.5817 280.177 93.6577 279.845C93.7193 279.578 93.9635 279.408 94.2285 279.504C94.4433 279.579 94.6859 279.759 94.7835 279.951C94.8871 280.157 94.8615 280.45 94.8422 280.699C94.4054 285.783 94.7089 290.827 95.2475 295.897ZM55.9226 269.663C51.7388 266.809 49.8509 262.501 48.3768 257.894L48.3627 257.9C47.0113 253.681 47.481 249.698 49.2862 246.573L49.2994 246.54C50.5205 243.5 51.4578 241.166 53.0106 239.175C54.9873 236.636 56.9535 234.089 58.9197 231.541L58.9266 231.532C67.6836 220.187 76.4385 208.844 86.1029 198.236C88.3655 195.74 90.4039 193.048 92.4423 190.356C93.317 189.205 94.1825 188.045 95.0483 186.885L95.0485 186.885L95.0487 186.885L95.0489 186.884L95.0491 186.884L95.0493 186.884L95.0495 186.884L95.0496 186.884L95.0498 186.883L95.05 186.883L95.0502 186.883L95.0504 186.883L95.0506 186.882L95.0508 186.882L95.051 186.882L95.0511 186.882L95.0513 186.882L95.0515 186.881L95.0517 186.881L95.0519 186.881L95.0521 186.881L95.0523 186.88L95.0525 186.88L95.0527 186.88L95.0528 186.88L95.053 186.88L95.0532 186.879C98.5796 182.155 102.109 177.427 106.27 173.203C108.831 170.606 110.847 167.566 112.47 164.285C113.087 163.05 113.749 161.822 114.489 160.661L114.589 160.503C116.091 158.151 117.593 155.798 120.199 154.419L120.418 154.303C122.165 153.376 122.227 153.343 123.777 154.702C125.338 156.071 126.857 157.482 128.314 158.961C131.919 162.621 135.317 166.471 138.715 170.322C142.293 174.377 145.872 178.433 149.695 182.267C151.434 184.012 153.07 185.865 154.706 187.721C155.759 188.914 156.811 190.107 157.893 191.273C161.083 194.721 164.131 198.296 167.178 201.87L167.179 201.871L167.179 201.871L167.179 201.872C170.862 206.192 174.545 210.511 178.479 214.608C179.203 215.357 179.036 215.886 178.598 216.62C178.556 216.692 178.513 216.764 178.47 216.836L178.466 216.843L178.466 216.843C177.981 217.66 177.482 218.503 177.227 219.396C176.904 220.48 176.379 220.969 175.244 221C174.367 221.03 173.507 221.394 172.954 222.093C172.111 223.155 171.566 222.724 170.772 222.096C170.733 222.065 170.694 222.034 170.654 222.002C167.245 219.311 164.07 219.215 160.394 221.594C159.851 221.948 159.341 222.345 158.83 222.742L158.83 222.743L158.829 222.743L158.829 222.743L158.828 222.744L158.828 222.744L158.827 222.745L158.827 222.745L158.826 222.745L158.826 222.746L158.825 222.746L158.824 222.746L158.824 222.747L158.823 222.747L158.823 222.748L158.822 222.748L158.822 222.748L158.821 222.749L158.82 222.749L158.82 222.75L158.819 222.75L158.818 222.751L158.818 222.751L158.817 222.751L158.817 222.752L158.816 222.752C158.376 223.095 157.935 223.439 157.473 223.753C155.601 225.028 153.643 226.338 151.311 226.211C144.358 225.834 137.689 227.233 131.2 229.488C110.066 236.817 96.978 251.569 91.4034 273.098C90.8849 275.097 90.1483 276.855 88.9519 278.451C88.3167 279.305 87.6364 280.128 86.9558 280.951L86.9542 280.953L86.953 280.955L86.9518 280.956C86.5319 281.464 86.1118 281.972 85.7023 282.487C83.8365 284.84 81.4351 285.258 78.7158 284.412C77.236 283.948 75.8711 283.223 74.507 282.498L74.5066 282.498C74.3417 282.41 74.1769 282.323 74.0119 282.236C69.8314 280.025 66.0897 277.191 62.3482 274.357C60.2327 272.755 58.1173 271.153 55.9226 269.663ZM47.3412 238.196C44.5502 241.437 41.7601 244.678 39.1101 248.034C37.1795 250.489 34.7455 251.793 31.8418 252.498C31.8001 251.824 32.2445 251.438 32.6727 251.065C32.8007 250.954 32.9273 250.844 33.039 250.727C38.6849 244.899 43.5926 238.463 48.4962 232.032L48.4965 232.031L48.4969 232.031L48.5108 232.012C48.9974 231.374 49.4839 230.736 49.9711 230.099C53.6304 225.314 57.0018 220.326 60.3738 215.336L60.3743 215.335L60.375 215.335C61.7942 213.235 63.2136 211.134 64.6546 209.049C67.7187 204.612 71.0269 200.355 74.3355 196.098L74.3357 196.098L74.3359 196.098L74.3361 196.097L74.3363 196.097L74.3365 196.097L74.3367 196.097L74.3369 196.096L74.3371 196.096L74.3374 196.096L74.3376 196.095L74.3378 196.095L74.338 196.095L74.3382 196.095L74.3384 196.094L74.3386 196.094L74.3388 196.094L74.339 196.094L74.3392 196.093L74.3394 196.093L74.3396 196.093L74.3398 196.093L74.34 196.092L74.3402 196.092L74.3404 196.092L74.3406 196.092L74.3408 196.091C77.0227 192.641 79.7049 189.19 82.2577 185.642L82.4648 185.354L82.4651 185.353C86.2817 180.046 90.1023 174.733 94.468 169.855C97.6975 166.243 100.737 162.496 103.597 158.582C106.247 154.953 109.341 151.717 112.446 148.469L112.446 148.468L112.447 148.468L112.448 148.467L112.448 148.466L112.449 148.465L112.45 148.464L112.451 148.463L112.452 148.462L112.453 148.461L112.454 148.461L112.454 148.46L112.455 148.46L112.455 148.459L112.456 148.458L112.456 148.458L112.457 148.457L112.457 148.457L112.458 148.456L112.458 148.456L112.459 148.455L112.459 148.455L112.46 148.454L112.46 148.453L112.461 148.453L112.461 148.452L112.462 148.452L112.462 148.451C114.004 146.838 115.549 145.223 117.043 143.554C117.189 143.717 117.332 143.876 117.471 144.03L117.684 144.266C118.243 144.883 118.751 145.444 119.229 146.03C119.883 146.84 119.796 147.801 119.712 148.72C119.695 148.906 119.679 149.09 119.668 149.271C119.631 149.851 119.104 149.957 118.588 150.062C118.373 150.105 118.16 150.148 117.984 150.225C116.692 150.788 115.528 151.555 114.598 152.581L114.389 152.81C112.015 155.414 109.629 158.031 107.939 161.161C106.119 164.526 104.098 167.752 101.344 170.422C97.1185 174.53 93.2837 178.972 89.8033 183.722C87.8637 186.372 85.9241 189.022 83.9224 191.624C80.9449 195.483 77.9557 199.332 74.9668 203.181C69.0525 210.797 63.1392 218.411 57.3196 226.1C54.1609 230.276 50.7503 234.237 47.3412 238.196ZM31.6727 252.626L31.6722 252.625C31.6578 252.615 31.6383 252.601 31.6101 252.579L31.6001 252.575C31.59 252.567 31.5789 252.556 31.568 252.544C31.5609 252.536 31.5538 252.528 31.5469 252.52C31.5372 252.508 31.528 252.496 31.5201 252.484C31.621 252.409 31.6913 252.437 31.7653 252.514C31.6459 252.549 31.674 252.617 31.6999 252.646C31.693 252.64 31.6846 252.634 31.6727 252.626ZM19.939 240.003C18.6946 238.2 18.7535 236.412 19.4673 234.364L19.4774 234.368C21.7128 227.933 25.1499 222.138 28.7194 216.419C34.551 207.082 41.7092 198.739 48.9274 190.479C49.9795 189.274 51.0345 188.072 52.0895 186.869L52.0904 186.868C58.1026 180.016 64.1136 173.165 69.5795 165.865C74.7698 158.945 80.2946 152.324 86.4265 146.195C90.2745 142.355 93.7862 138.191 96.9132 133.708C97.887 132.315 99.0458 131.086 100.261 129.797C101.024 128.987 101.81 128.153 102.586 127.241C104.803 130.162 106.85 132.722 109.097 135.106C109.842 135.897 110.612 136.664 111.383 137.431L111.383 137.432L111.383 137.432C112.328 138.374 113.273 139.314 114.169 140.296C115.465 141.71 115.428 141.8 114.052 143.206C110.474 146.84 106.913 150.493 103.78 154.53C103.076 155.433 102.39 156.351 101.703 157.271L101.702 157.272L101.701 157.273L101.701 157.274L101.7 157.275L101.699 157.276L101.698 157.278L101.697 157.279L101.696 157.28L101.696 157.281L101.695 157.282L101.694 157.283L101.693 157.284L101.692 157.285L101.691 157.286L101.691 157.287L101.69 157.288L101.689 157.29L101.688 157.291L101.687 157.292L101.686 157.293L101.686 157.294L101.685 157.295L101.684 157.296L101.683 157.297L101.682 157.298L101.681 157.3L101.681 157.3L101.68 157.3L101.68 157.301C99.9959 159.555 98.3088 161.813 96.3635 163.855C90.6388 169.856 85.6548 176.47 80.6797 183.073L80.6795 183.073L80.6793 183.073L80.6791 183.073C80.3013 183.575 79.9236 184.076 79.5456 184.577C71.4831 195.265 63.8133 206.253 56.2718 217.328C51.1282 224.868 45.4233 231.982 39.7172 239.097L39.7168 239.097L39.7164 239.098C36.6634 242.905 33.6101 246.712 30.6423 250.585L30.5723 250.676L30.5041 250.764C29.9386 251.495 29.3411 252.268 28.2581 252.833C27.1505 250.14 25.4383 247.887 23.7296 245.638L23.7292 245.637C22.7238 244.314 21.7195 242.993 20.8404 241.584C20.6966 241.356 20.5726 241.118 20.4491 240.881C20.2916 240.579 20.1349 240.279 19.939 240.003ZM75.4409 144.09C75.9109 144.631 76.5186 144.574 77.0892 144.291L77.0792 144.287C78.5792 143.527 79.7191 142.388 80.3424 141.168C80.8442 140.132 80.9887 139.372 80.2474 138.78C79.6202 138.28 78.9336 138.446 78.3402 138.871C76.9839 139.853 75.9701 141.113 75.293 142.639C75.0794 143.137 75.0568 143.654 75.4409 144.09ZM26.4826 201.963C26.446 201.986 26.4093 202.009 26.3723 202.033L26.3631 202.039C25.7404 202.432 25.0801 202.85 24.3552 202.281C23.6642 201.736 23.9421 201.115 24.1362 200.681C24.1735 200.598 24.2076 200.522 24.2312 200.454C24.7974 199 25.5661 198.085 26.5792 197.373C27.3299 196.848 28.1699 196.592 28.9326 197.334C29.6953 198.076 29.4901 198.928 28.9314 199.671C28.2592 200.58 27.445 201.348 26.4767 201.949L26.4826 201.963ZM52.8882 168.319C53.4695 168.73 54.0723 168.426 54.5469 168.033C55.7624 167.053 56.956 166.041 57.789 164.707C58.1863 164.073 58.2562 163.354 57.7058 162.78C57.1354 162.198 56.4227 162.341 55.7974 162.731C54.367 163.635 53.4693 165.013 52.7635 166.235C52.3811 167.12 52.1886 167.825 52.8882 168.319ZM87.4015 130.938C88.171 131.519 88.0566 132.29 87.6811 133.015C87.1702 134.001 86.3621 134.728 85.5585 135.45C85.411 135.583 85.2636 135.715 85.1182 135.849L85.0672 135.896C85.0209 135.939 84.9749 135.982 84.9292 136.026C84.418 136.508 83.7885 136.907 83.0868 136.447C82.3166 135.949 82.5572 135.283 82.7726 134.687C82.8006 134.61 82.8281 134.533 82.853 134.459C83.4669 133.118 84.2386 131.993 85.2949 131.089C85.9412 130.533 86.678 130.387 87.4055 130.928L87.4015 130.938ZM32.0714 193.744C32.4642 194.043 32.8909 193.971 33.2762 193.741C34.6295 192.969 35.9448 192.147 36.9003 190.886C37.5257 190.064 37.852 189.144 36.9547 188.359C36.0474 187.571 35.1903 188.041 34.4447 188.756C33.3738 189.783 32.6215 191.033 31.9778 192.303C31.9669 192.333 31.9558 192.363 31.9446 192.393L31.9225 192.452C31.7446 192.925 31.5797 193.364 32.0714 193.744ZM39.5815 185.427C38.9299 184.995 39.1358 184.431 39.3282 183.903C39.3643 183.804 39.3999 183.707 39.4293 183.611C40.0961 182.14 40.9791 180.885 42.2348 179.921C42.7253 179.547 43.3178 179.296 43.8951 179.718C44.4622 180.135 44.4391 180.768 44.2431 181.367C43.7209 182.885 42.5895 183.946 41.416 184.966C40.8928 185.421 40.3093 185.909 39.5915 185.431L39.5815 185.427ZM60.6998 157.149C60.5258 157.431 60.3638 157.694 60.1953 157.909L60.1912 157.919C59.7505 158.804 59.6772 159.418 60.1293 159.917C60.6395 160.474 61.2662 160.226 61.7847 159.898C62.8176 159.253 63.8166 158.548 64.5093 157.531C65.0542 156.735 65.1287 155.888 64.3274 155.213C63.6303 154.626 62.8854 154.792 62.193 155.318C61.5117 155.834 61.0774 156.537 60.6998 157.149ZM94.7116 122.797C95.1687 123.11 95.1892 123.434 95.095 123.782C94.6785 125.436 93.5425 126.599 92.421 127.748C92.3556 127.815 92.2902 127.882 92.2249 127.949C91.8429 128.343 91.264 128.272 90.7969 127.954C90.2056 127.539 90.1021 126.901 90.4586 126.367C91.3682 125.018 92.354 123.711 93.8441 122.947C94.0398 122.847 94.2802 122.833 94.476 122.822C94.5605 122.817 94.6368 122.813 94.6975 122.803L94.7116 122.797ZM71.9163 148.833C72.2162 148.382 72.3034 147.821 71.897 147.411L71.8911 147.397C71.3467 146.837 70.806 147.19 70.3274 147.593C69.359 148.408 68.6429 149.443 67.973 150.411L67.9728 150.411C67.8199 150.632 67.6694 150.849 67.519 151.06C67.2348 151.587 67.1322 152.013 67.4623 152.381C67.8084 152.767 68.2514 152.654 68.6088 152.378C69.9008 151.382 71.0127 150.197 71.9163 148.833ZM47.1377 176.649C46.7785 176.901 46.2872 177.017 45.9568 176.708C45.5383 176.328 45.5932 175.789 45.9468 175.032C46.0873 174.855 46.2273 174.662 46.3729 174.461C46.9193 173.706 47.544 172.843 48.5644 172.353C48.9575 172.161 49.3804 172.041 49.7632 172.336C50.2601 172.725 50.1629 173.281 49.9255 173.723C49.278 174.945 48.2618 175.865 47.1377 176.649ZM21.279 207.043C21.5471 206.497 21.7111 205.862 21.0636 205.412L21.0576 205.398C20.5845 205.066 20.0735 205.116 19.5954 205.401C18.7565 205.904 18.3197 206.719 17.883 207.533C17.8293 207.633 17.7756 207.733 17.7212 207.833L17.7202 207.835C17.5737 208.254 17.4202 208.693 17.7918 209.042C18.1542 209.388 18.5972 209.275 18.9944 209.074C19.9239 208.597 20.8016 208.018 21.279 207.043ZM126.488 334.027C111.158 325.776 102.24 312.433 99.3224 295.562C96.951 281.812 99.9245 268.744 107.869 256.991C116.485 244.247 135.131 233.081 151.221 234.848C160.259 235.848 169.085 237.112 176.988 241.919C201.953 257.104 208.544 283.823 199.732 307.745C194.001 321.588 184.417 331.215 171.021 336.725C155.846 342.963 140.81 341.74 126.488 334.027ZM146.196 333.789C148.838 334.197 151.499 334.291 154.159 334.386C155.297 334.426 156.434 334.467 157.57 334.532C157.666 334.537 157.762 334.542 157.858 334.546L158.057 334.555C159.527 334.623 161.02 334.693 162.334 335.552C162.962 335.96 163.576 335.767 164.18 335.577L164.18 335.577C164.314 335.535 164.448 335.493 164.581 335.458C177.202 332.205 186.783 324.833 193.556 313.809C209.735 287.486 196.469 257.429 177.646 245.657C174.698 243.819 171.634 242.238 167.709 240.763C162.023 237.896 155.197 237.349 148.342 237.971C130.599 239.59 116.822 247.681 108.159 263.597C106.219 267.17 104.745 270.979 103.784 274.962C103.769 275.026 103.754 275.089 103.739 275.152C103.575 275.823 103.427 276.431 104.082 277.082C105.779 278.775 106.295 281.019 106.212 283.299C106.065 287.569 106.906 291.691 107.746 295.811C107.872 296.43 107.999 297.05 108.122 297.669C109.243 303.349 111.295 308.694 114.939 313.223C117.916 316.92 121.147 320.451 125.107 323.167C125.931 323.732 126.752 324.303 127.574 324.875L127.574 324.875L127.574 324.875L127.575 324.875L127.575 324.875L127.575 324.875L127.575 324.876L127.576 324.876L127.576 324.876L127.576 324.876L127.576 324.876L127.577 324.876L127.577 324.876L127.577 324.877L127.577 324.877L127.578 324.877C130.091 326.625 132.608 328.375 135.235 329.952C138.63 331.983 142.291 333.187 146.182 333.795L146.196 333.789ZM130.092 247.006C125.886 249.135 122.418 252.183 119.027 255.472C105.246 268.821 101.329 297.732 120.317 317.052C124.91 321.72 129.929 325.743 135.938 328.448C156.459 337.705 178.007 328.604 187.702 316.17C196.279 305.164 198.919 292.686 195.924 279.033C192.342 262.734 181.714 251.504 166.752 245.285C155.04 240.792 142.445 240.782 130.092 247.006ZM124.885 315.027C124.579 315.031 124.275 315.036 124.037 315.17L124.045 315.15C122.514 316.014 121.704 315.101 120.824 314.043C119.161 312.035 117.668 309.922 116.356 307.683L116.296 307.581C115.581 306.369 114.99 305.366 115.983 303.733C117.154 301.823 115.872 300.029 113.605 299.998C112.863 299.989 112.748 299.664 112.586 299.202L112.585 299.199C110.966 294.603 109.889 289.911 109.965 284.997L109.965 284.981C109.976 284.268 109.986 283.691 110.881 283.428C112.605 282.923 113.286 281.62 113.304 279.874C113.323 278.128 112.331 277.2 110.781 276.7C111.253 273.864 112.038 271.237 113.326 268.754L113.374 268.635C113.402 268.565 113.429 268.495 113.457 268.425C113.492 268.337 113.526 268.249 113.561 268.161C113.766 267.637 113.97 267.117 114.217 266.614L114.219 266.611C115.443 264.139 116.676 261.649 120.159 262.22C121.308 260.944 121.988 259.525 121.146 257.827C120.793 257.112 121.071 256.745 121.563 256.337C121.748 256.184 121.92 256.014 122.092 255.843C122.461 255.477 122.831 255.11 123.332 254.915C126.342 251.728 130.089 249.636 133.98 247.765C134.003 247.754 134.026 247.743 134.048 247.732L134.085 247.714L134.088 247.712L134.091 247.711L134.094 247.709C134.616 247.452 135.103 247.213 135.757 247.936C138.136 250.572 140.301 250.047 141.23 246.602C141.536 245.475 142.022 245.053 143.071 244.858C147.939 243.98 152.813 243.805 157.698 244.699C157.743 244.706 157.789 244.712 157.835 244.718C158.204 244.764 158.576 244.811 158.65 245.319L158.937 247.294L158.949 247.322C159.128 247.399 159.307 247.478 159.485 247.558C159.93 247.756 160.373 247.953 160.831 248.097C161.683 248.361 162.807 248.443 163.205 247.692C164.116 245.983 165.172 246.465 166.254 246.959C166.444 247.045 166.635 247.132 166.825 247.208C168.74 247.961 170.597 248.831 172.297 250C173.86 250.61 175.234 251.518 176.417 252.722C178.18 253.648 179.65 254.548 179.209 257.105C178.93 258.687 180.817 259.943 182.571 259.508C183.561 259.255 183.962 259.652 184.464 260.229C187.641 263.809 190.01 267.879 191.936 272.237C192.286 273.046 192.511 273.616 191.574 274.428C189.881 275.893 190.425 278.299 192.58 278.776C194.148 279.119 194.79 279.696 194.829 281.243C194.845 282.009 194.996 282.774 195.146 283.536L195.146 283.536C195.179 283.701 195.211 283.865 195.242 284.029C195.42 284.984 195.303 285.936 195.186 286.879L195.186 286.88L195.186 286.88L195.186 286.88L195.186 286.88L195.186 286.881L195.186 286.881L195.186 286.881C195.072 287.81 194.958 288.731 195.129 289.641C195.348 290.829 195.148 291.811 194.733 292.835C194.69 293.117 194.699 293.433 194.709 293.75C194.735 294.587 194.76 295.434 193.814 295.677C192.314 296.063 191.778 297.038 191.264 298.22C191.301 299.194 191.566 300.097 192.247 300.84C193.029 301.216 192.978 301.745 192.525 302.344C192.147 303.909 191.553 305.375 190.704 306.749C189.513 309.685 187.578 312.139 185.643 314.593L185.642 314.594L185.374 314.934C184.69 315.813 184.127 316.193 183.106 315.37C182.398 314.809 181.654 315.111 180.93 315.404C180.757 315.474 180.586 315.543 180.417 315.6C180.399 315.641 180.38 315.682 180.361 315.723L180.322 315.808L180.27 315.917L180.226 316.008L180.226 316.008L180.226 316.009C179.802 316.897 179.367 317.808 179.861 318.788C180.395 319.835 179.865 320.392 179.163 320.972C175.514 324.004 171.37 326.065 166.851 327.412C166.186 327.61 165.619 327.625 164.931 327.159C162.938 325.79 161.968 325.934 160.648 327.807C160.15 328.517 159.691 328.927 158.83 328.975C154.501 329.219 150.209 329.08 145.951 328.195C145.162 328.039 144.721 327.743 144.669 326.892C144.556 325.151 143.317 324.403 141.883 323.845C140.532 323.893 139.204 323.998 138.213 325.116C137.762 325.622 137.326 325.399 136.906 325.053L136.766 324.994L136.656 324.947C136.547 324.901 136.438 324.855 136.328 324.809C136.171 324.743 136.014 324.677 135.857 324.612L135.517 324.47C133.232 323.517 130.95 322.566 128.883 321.145C128.021 320.562 127.513 319.97 127.631 318.872C127.827 317.035 126.983 315.745 125.307 315.007C125.263 315.012 125.218 315.016 125.173 315.018C125.078 315.024 124.982 315.025 124.885 315.027L124.885 315.027ZM118.887 300.807C118.321 300.905 117.872 300.688 117.677 300.13C117.471 299.543 117.773 299.116 118.249 298.865C118.957 298.499 119.686 298.159 120.414 297.82L120.416 297.819C120.69 297.691 120.963 297.564 121.236 297.435C123.852 296.719 126.377 295.767 128.844 294.64C130.623 294.403 132.218 293.67 133.753 292.796C139.033 290.986 144.393 289.442 150.061 288.432C149.836 288.085 149.624 287.766 149.423 287.464L149.422 287.464C148.962 286.773 148.564 286.174 148.217 285.545C147.826 284.837 147.941 284.007 148.824 283.933C149.985 283.833 149.879 283.247 149.757 282.575C149.742 282.49 149.726 282.404 149.713 282.318L149.691 282.176C149.656 281.948 149.622 281.72 149.587 281.491L149.586 281.485L149.586 281.484L149.586 281.484L149.586 281.483L149.586 281.483L149.586 281.483L149.586 281.483L149.586 281.482L149.586 281.482L149.585 281.482L149.585 281.481L149.585 281.481L149.585 281.481L149.585 281.481C149.161 278.679 148.737 275.872 147.949 273.15C147.075 270.123 146.593 267.021 146.111 263.92C145.677 261.122 145.242 258.324 144.52 255.581C144.457 255.333 144.422 255.074 144.401 254.808C144.346 254.166 144.401 253.51 145.12 253.323C145.996 253.093 146.351 253.717 146.577 254.428C146.65 254.68 146.713 254.927 146.762 255.181C147.26 258.033 147.966 260.838 148.671 263.642L148.672 263.643L148.672 263.643L148.672 263.644C149.507 266.961 150.342 270.279 150.832 273.677C151.144 275.84 151.671 277.955 152.203 280.086C152.8 282.482 153.403 284.897 153.709 287.422C154.174 287.3 154.619 287.183 155.049 287.07C156.284 286.745 157.393 286.453 158.503 286.175C159.023 286.046 159.634 286.037 159.8 286.665C159.956 287.219 159.522 287.431 159.114 287.63C159.045 287.664 158.977 287.697 158.912 287.732C158.418 287.986 157.88 288.152 157.337 288.319C156.498 288.576 155.645 288.838 154.912 289.441C155.414 290.162 155.893 290.875 156.365 291.575C157.447 293.183 158.486 294.726 159.652 296.168C161.082 297.939 162.4 299.79 163.717 301.639C164.957 303.381 166.198 305.123 167.531 306.798C167.747 307.072 167.949 307.353 168.094 307.657C168.307 308.083 168.273 308.513 167.847 308.785C167.515 309 167.155 308.878 166.903 308.635C166.53 308.286 166.178 307.886 165.865 307.478C164.633 305.885 163.291 304.386 161.95 302.887L161.949 302.887C160.292 301.035 158.634 299.183 157.183 297.154L157.164 297.127C156.679 296.445 156.178 295.741 155.341 295.413C153.985 297.201 153.732 297.192 152.949 295.261C152.593 294.381 152.284 293.472 152.071 292.556L152.071 292.555C151.56 290.443 151.538 290.353 149.575 291.275C144.701 293.553 139.66 295.32 134.474 296.724C134.234 296.778 133.994 296.829 133.755 296.881C132.414 297.171 131.081 297.459 129.82 298.028C127.055 298.59 124.346 299.362 121.661 300.249C121.442 300.294 121.224 300.34 121.005 300.386C120.308 300.532 119.613 300.678 118.915 300.795L118.887 300.807ZM140.173 250.767C139.462 250.993 139.306 251.608 139.524 252.222C140.082 253.816 140.683 255.416 142.437 256.654C142.862 254.511 142.161 252.953 141.415 251.423C141.182 250.931 140.747 250.591 140.173 250.767ZM126.717 267.089C126.415 266.879 126.109 266.672 125.803 266.464C125.122 266.002 124.438 265.537 123.782 265.045C123.281 264.667 122.998 264.096 123.255 263.464C123.528 262.791 124.141 262.748 124.779 262.819C124.961 262.843 125.139 262.877 125.321 262.912C125.394 262.926 125.467 262.94 125.542 262.954C125.78 263.191 126.026 263.423 126.271 263.654L126.272 263.654C126.817 264.167 127.363 264.68 127.818 265.267C128.601 266.275 128.334 266.646 126.731 267.083L126.717 267.089ZM157.584 256.191C157.413 256.729 157.527 257.255 158.146 257.401C158.616 257.51 158.929 257.169 159.104 256.737C159.249 256.39 159.343 256.023 159.437 255.656C159.597 255.031 159.757 254.405 160.172 253.874C160.181 253.789 160.19 253.704 160.2 253.618C160.212 253.509 160.225 253.4 160.238 253.29L160.239 253.283L160.24 253.272L160.241 253.267L160.241 253.266C160.295 252.803 160.35 252.337 160.375 251.875C160.412 251.177 160.149 250.731 159.346 250.838C159.112 251.553 158.876 252.266 158.639 252.979L158.639 252.979L158.639 252.979L158.638 252.979L158.638 252.98L158.638 252.98L158.638 252.98L158.638 252.98L158.638 252.981L158.638 252.981L158.638 252.981C158.283 254.05 157.928 255.118 157.584 256.191ZM161.477 320.171C162.192 321.232 162.504 322.481 162.542 323.771C162.554 324.115 162.237 324.407 161.879 324.425C161.666 324.432 161.335 324.298 161.243 324.121C160.625 322.993 160.363 321.765 160.223 320.469C160.591 319.964 161.136 319.658 161.477 320.171ZM178.405 313.3C178.406 312.376 176.897 310.678 175.983 310.541L175.989 310.555C175.738 310.511 175.478 310.546 175.315 310.948C175.309 310.992 175.225 311.169 175.271 311.316C175.589 312.52 176.256 313.527 177.396 314.059C177.905 314.301 178.404 313.966 178.405 313.3ZM144.333 319.59C144.433 322.284 144.089 322.671 141.967 322.313C142.365 322.027 142.569 321.568 142.773 321.106C143.077 320.42 143.383 319.728 144.333 319.59ZM141.927 322.297L141.939 322.325C141.941 322.324 141.943 322.323 141.944 322.322L141.947 322.32L141.949 322.319L141.952 322.317L141.954 322.314L141.956 322.312C141.957 322.31 141.958 322.309 141.958 322.309L141.927 322.297ZM186.772 277.824C187.28 277.667 187.829 277.668 188.073 278.304C188.25 278.762 188.053 279.161 187.702 279.451C187.165 279.877 186.617 280.286 186.068 280.695C185.948 280.785 185.827 280.875 185.707 280.965C185.618 281.031 185.53 281.098 185.441 281.165C185.135 281.209 184.835 281.311 184.536 281.413C183.899 281.63 183.26 281.848 182.553 281.513C182.484 281.31 182.404 281.103 182.325 280.896L182.325 280.895C182.554 280.186 183.101 279.792 183.648 279.398C183.978 279.16 184.309 278.922 184.57 278.614C184.784 278.536 184.998 278.454 185.211 278.372C185.723 278.176 186.235 277.98 186.758 277.83L186.772 277.824ZM175.957 266.08C176.238 265.704 176.513 265.335 176.892 265.096C177.012 264.639 177.302 264.268 177.593 263.897C177.974 263.411 178.355 262.924 178.354 262.241C177.695 261.653 177.113 261.985 176.534 262.314C176.479 262.345 176.425 262.376 176.37 262.406C176.139 263.03 175.743 263.576 175.341 264.13C174.656 265.075 173.955 266.041 174.035 267.445C175.016 267.34 175.494 266.7 175.957 266.08ZM184.138 295.763C184.266 294.825 184.901 294.942 185.527 295.056C185.773 295.102 186.018 295.147 186.23 295.127C186.4 295.114 186.569 295.101 186.744 295.101C188.312 296.076 188.337 296.157 187.304 297.351C187.14 297.319 186.973 297.294 186.806 297.268C186.466 297.217 186.124 297.164 185.799 297.056C185.695 297.023 185.584 296.991 185.47 296.959C184.799 296.767 184.029 296.548 184.138 295.763ZM118.401 283.402C118.955 283.599 119.527 283.802 120.2 283.419C119.671 282.106 118.557 281.576 117.451 281.051C117.193 280.928 116.935 280.805 116.685 280.673C115.334 281.902 115.369 282.045 117.397 283.183C117.738 283.167 118.066 283.283 118.401 283.402ZM132.816 310.01L132.835 310.017L132.827 309.979L132.82 309.997C132.073 309.486 131.325 309.152 130.544 309.93C130.435 310.038 130.324 310.144 130.212 310.251C129.442 310.986 128.655 311.739 128.607 312.862C128.571 313.701 129.319 313.759 129.902 313.387C131.189 312.544 132.441 311.641 132.816 310.01ZM132.819 309.999L132.819 310L132.819 309.999Z" fill="#0D070B"/>
</g>
<defs>
<clipPath id="clip0_1_848">
<rect width="601.991" height="483.549" fill="white" transform="matrix(-0.926703 -0.375794 -0.375794 0.926703 557.58 226.225)"/>
</clipPath>
</defs>
</svg>
