<svg width="200" height="334" viewBox="0 0 200 334" fill="none" xmlns="http://www.w3.org/2000/svg">
<g clip-path="url(#clip0_209_8566)">
<path d="M116.293 9.85776C116.576 9.79565 116.665 9.80453 116.709 9.76016C120.787 6.47721 125.759 5.94484 130.652 5.21727C136.831 4.2945 143.062 3.99282 149.303 3.80649C152.777 3.70002 156.243 3.52256 159.718 3.41609C160.711 3.38947 161.712 3.41609 162.687 3.55805C164.221 3.771 165.462 4.43646 166.277 5.88273C168.254 9.41412 170.382 12.8479 172.996 15.9534C174.167 17.3464 174.681 18.9524 174.689 20.8512C174.716 26.6008 175.115 32.3504 174.973 38.0911C174.84 43.8496 175.31 49.5726 175.487 55.3222C175.487 55.5262 175.567 55.7303 175.629 56.0142C179.086 56.1473 182.525 56.3425 185.974 56.6442C188.686 56.8838 190.37 57.7799 191.372 60.6281C193.242 65.9607 194.341 71.3908 195.104 76.963C197.249 92.7478 197.453 108.657 198.002 124.53C199.172 157.874 199.217 191.227 198.445 224.58C198.002 243.453 198.357 262.334 198.242 281.207C198.197 288.518 198.844 295.811 199.482 303.087C199.704 305.563 198.924 307.115 196.983 308.455C193.508 310.851 189.723 312.572 185.77 313.983C178.785 316.467 171.552 317.781 164.212 318.641C155.339 319.688 146.431 320.345 137.531 321.037C130.387 321.596 123.322 322.661 116.275 323.947C107.49 325.553 98.839 327.727 90.1788 329.865C83.0874 331.604 75.8366 332.527 68.6832 333.938C67.5309 334.169 66.4495 333.743 65.3769 333.343C61.654 331.977 57.9399 330.584 54.1992 329.28C46.5051 326.6 38.5629 324.719 30.8688 322.048C25.506 320.194 19.8772 319.289 14.5322 317.39C10.8004 316.068 6.90901 315.199 3.25698 313.637C0.464774 312.448 0.0127034 311.587 0.943438 308.721C2.1401 305.021 3.14175 301.259 4.65751 297.657C5.78326 294.995 5.98714 292.014 6.50126 289.148C8.48682 277.977 10.5078 266.806 12.3605 255.617C13.8408 246.647 14.7272 237.597 15.0374 228.52C15.7022 209.017 16.1986 189.506 16.7216 170.004C16.9698 160.856 17.0141 151.699 17.3155 142.551C17.6701 131.983 18.3349 121.425 18.654 110.857C18.9022 102.552 19.3543 94.2473 20.2673 86.0133C20.9144 80.1306 20.9675 74.2834 21.1891 68.4096C21.2246 67.4868 21.3487 66.5729 21.393 65.6501C21.4462 64.4257 21.9603 63.7336 23.2456 63.4763C24.2916 63.2633 25.3464 63.1746 26.4013 63.0593C30.2749 62.6156 34.1397 62.1454 38.0044 61.7372C38.9883 61.6307 39.2809 61.2315 39.2986 60.2466C39.3695 56.7684 39.5911 53.2991 39.662 49.821C39.8216 41.9419 40.1761 34.0806 41.3639 26.2725C41.426 25.8555 41.488 25.4207 41.4703 25.0037C41.2664 21.1884 42.8265 17.9941 44.8475 14.9064C47.2586 11.2153 49.909 7.71941 52.8696 4.45421C54.2878 2.89259 55.8213 1.7125 58.0551 1.50843C64.0473 0.958313 69.9685 -0.354866 76.0405 0.177504C79.9318 0.523544 83.832 0.532417 87.7323 0.461435C93.7599 0.346088 99.7875 0.310596 105.797 0.00892019C108.74 -0.141918 110.85 1.07366 112.649 3.10554C114.351 5.03094 115.601 7.23141 116.293 9.84889V9.85776ZM164.895 9.41412C164.957 9.17455 164.841 9.00597 164.691 8.84626C164.646 8.8995 164.567 8.94386 164.558 9.00597C164.531 9.22779 164.54 9.44074 164.833 9.46736C165.808 25.8644 165.71 42.288 165.976 58.818C167.9 58.5252 169.699 58.2236 171.507 57.9751C173.094 57.7622 173.094 57.7888 173.041 56.2183C172.855 50.7704 172.536 45.3136 172.527 39.8657C172.518 34.258 172.296 28.6859 171.773 23.1049C171.259 17.5594 168.44 13.3448 164.903 9.40525L164.895 9.41412ZM187.144 60.0869C181.772 61.0895 176.409 61.6041 171.091 62.3849C160.374 63.9732 149.657 65.6058 139.038 67.7796C132.851 69.0484 126.575 69.6695 120.343 70.6278C112.153 71.8877 103.971 73.263 95.7011 73.8398C90.4004 74.2035 85.1616 75.215 79.852 75.4102C79.0986 75.4369 78.8947 75.6942 78.9036 76.4217C78.9479 78.8352 78.9656 81.2486 78.9036 83.662C78.8149 87.9209 78.3274 92.1621 78.4249 96.4211C78.6642 107.006 77.698 117.556 76.9978 128.097C76.1734 140.484 75.7479 152.897 74.6576 165.265C74.0283 172.399 73.6737 179.56 73.2217 186.711C72.5391 197.474 71.4931 208.219 71.3868 219.008C71.2715 231.288 70.8461 243.559 70.066 255.804C69.3392 267.285 69.0466 278.767 68.9935 290.266C68.958 297.338 69.8267 304.258 72.0516 311.002C73.2128 314.515 75.2693 317.266 78.3895 319.253C79.5684 320.008 80.7473 320.371 82.1922 320.105C90.2054 318.65 98.2717 317.461 106.241 315.802C114.626 314.063 122.932 311.96 131.246 309.901C142.929 307.009 154.834 305.962 166.809 305.367C171.56 305.128 176.303 305.119 181.045 305.163C182.623 305.181 183.828 304.613 184.759 303.486C186.718 301.126 188.438 298.589 189.174 295.563C191.141 287.524 192.161 279.388 191.602 271.101C191.008 262.396 190.308 253.692 190.441 244.952C190.565 237.295 190.104 229.629 190.813 221.972C191.195 217.872 191.363 213.764 191.673 209.656C192.329 201.085 192.134 192.496 192.427 183.916C192.586 179.24 192.693 174.546 192.347 169.87C192.063 166.046 191.948 162.213 192.001 158.389C192.152 145.621 192.01 132.853 192.409 120.076C192.737 109.509 191.629 98.9587 190.76 88.4267C190.53 85.6761 190.255 82.9167 189.971 80.175C189.28 73.5026 189.448 66.706 187.144 60.0869V60.0869ZM30.7624 310.78C30.6294 308.988 30.2926 307.595 30.5054 306.175C31.0904 302.173 31.569 298.172 31.9857 294.143C32.4377 289.778 33.2266 285.439 33.7851 281.082C35.2033 270.045 36.338 258.971 37.9512 247.951C39.9191 234.553 42.1883 221.2 43.8547 207.757C44.688 201.005 45.7605 194.28 45.8226 187.439C45.9112 177.643 46.7976 167.883 47.2763 158.105C47.755 148.469 48.5262 138.842 48.6768 129.197C48.8807 116.003 49.0048 102.801 49.1644 89.6068C49.1998 86.4126 49.448 83.2272 49.838 80.0596C50.2635 76.6791 50.627 73.2985 51.079 69.9268C51.2031 69.0218 50.9372 68.6491 50.0419 68.5161C48.7832 68.3297 47.5422 68.0014 46.2924 67.7707C39.0858 66.4398 31.7818 66.3245 24.4866 66.0583C24.3714 66.0583 24.2473 66.1914 24.0966 66.2801C24.1498 66.6882 24.1941 67.1053 24.2473 67.5312C24.85 72.4556 25.5148 77.38 25.3021 82.3665C25.2312 83.9282 24.983 85.472 24.9121 87.0336C24.4246 97.8762 24.0257 108.719 23.4761 119.561C22.439 140.182 21.8805 160.82 21.1625 181.458C20.7282 194.075 20.2495 206.702 19.895 219.328C19.6822 226.923 18.8579 234.473 18.2197 242.033C17.5726 249.744 16.4291 257.383 15.1083 265.005C13.3976 274.854 11.9527 284.756 9.82531 294.525C9.23141 297.258 9.91395 299.139 11.7577 301.011C16.9432 306.272 23.6711 308.429 30.7624 310.78V310.78ZM51.5931 115.267C51.8768 123.004 51.4602 133.43 50.822 143.838C50.4408 149.995 50.0774 156.162 49.6962 162.32C49.3505 167.98 48.8984 173.641 48.668 179.311C48.3311 187.394 47.9588 195.46 47.1345 203.516C45.7428 217.065 43.6952 230.525 41.683 243.985C40.4421 252.335 39.2809 260.693 38.4831 269.095C37.5523 278.847 36.205 288.536 34.769 298.216C34.1928 302.067 33.2 305.847 32.7391 309.724C32.553 311.303 32.5352 311.33 34.1042 311.72C36.0986 312.217 38.1019 312.679 40.1052 313.131C43.4381 313.876 46.7976 314.329 50.2281 313.939C51.9566 313.743 53.1444 313.025 54.0219 311.339C55.4756 308.544 56.5748 305.66 57.3726 302.635C59.6772 293.913 61.1576 285.049 62.0617 276.069C63.1165 265.617 63.87 255.147 64.5082 244.668C64.8539 238.937 64.9869 233.187 65.5542 227.464C66.2544 220.41 66.8838 213.338 67.4511 206.267C67.85 201.316 68.0627 196.356 68.4084 191.396C69.0644 182.053 69.7735 172.719 70.4117 163.375C70.7752 158.07 70.917 152.746 71.4134 147.449C72.0516 140.599 72.3884 133.722 72.9823 126.864C73.3812 122.197 73.5408 117.521 74.1701 112.871C74.6931 109.012 75.2959 105.134 75.4111 101.248C75.5707 95.7113 75.7923 90.1924 76.2443 84.6735C76.4748 81.843 76.5103 79.0037 76.6521 76.1733C76.6875 75.4191 76.5014 74.9843 75.6238 74.9755C72.1668 74.9666 68.9491 73.7954 65.7226 72.7484C61.9465 71.5328 58.1969 70.2551 54.3056 69.4477C52.7278 69.1194 52.6657 69.1638 52.7632 70.681C52.8607 72.2426 52.8075 73.8043 52.6834 75.357C52.3909 79.1723 51.93 82.9876 51.8059 86.8118C51.5311 95.3919 51.3627 103.981 51.5931 115.258V115.267ZM106.125 20.9577C105.948 20.9311 105.744 20.8601 105.558 20.8778C100.257 21.4723 94.9477 21.3481 89.6292 21.0287C87.6525 20.9133 85.6492 20.8689 83.6813 21.0109C74.9147 21.632 66.1569 22.3596 57.3903 22.9896C56.4241 23.0605 56.238 23.4154 56.238 24.2584C56.238 26.5298 56.1936 28.8013 56.1405 31.0638C55.9454 39.6439 55.3693 48.2239 55.3515 56.8039C55.3515 58.9068 55.4934 59.0576 57.5942 59.1552C58.0197 59.173 58.4451 59.1552 58.8706 59.1375C61.4855 58.9778 64.1005 58.7559 66.7242 58.6583C76.6343 58.2768 86.5622 58.0727 96.4546 57.2032C98.9897 56.9814 98.6529 57.0612 98.7061 54.9495C98.8302 50.5486 98.9188 46.1565 99.3177 41.7733C99.947 34.8082 101.968 28.3133 105.585 22.3152C105.824 21.9159 106.303 21.5876 106.125 20.9577V20.9577ZM120.84 24.773C122.01 35.1276 121.363 45.4733 121.735 56.0231C135.129 52.6869 148.443 53.1394 161.881 55.402C161.881 53.5742 161.863 52.0215 161.881 50.4687C161.952 44.1513 161.056 37.887 161.012 31.5696C160.994 29.2893 161.376 27.0533 161.402 24.7819C161.411 23.8502 161.154 23.5042 160.214 23.5752C158.379 23.7083 156.536 23.8413 154.701 23.8591C143.585 23.9922 132.478 24.8085 121.354 24.5867C121.23 24.5867 121.097 24.6754 120.84 24.773V24.773ZM160.596 19.9994C160.392 15.8292 159.55 11.8896 158.876 7.91461C158.752 7.19591 158.238 7.25802 157.741 7.35562C152.21 8.36713 146.59 8.22516 141.006 8.54458C134.624 8.90837 128.357 10.0973 122.072 11.1355C121.318 11.2597 120.946 11.6589 120.733 12.2978C120.538 12.9011 120.264 13.5222 120.246 14.1345C120.184 16.3172 120.219 18.4999 120.219 20.8335C133.516 20.0704 147.016 20.6383 160.587 19.9905L160.596 19.9994ZM112.206 67.6998C112.286 67.3803 112.357 67.2472 112.348 67.1141C111.736 58.96 112.242 50.8325 112.729 42.6961C112.986 38.3839 113.438 34.0895 113.474 29.7595C113.509 26.2991 113.58 22.821 114.591 19.4404C115.131 17.6304 115.504 15.7759 116.027 13.6465C114.981 14.3031 114.334 14.9419 113.811 15.6783C112.002 18.216 110.185 20.7447 108.465 23.3445C106.737 25.9708 105.629 28.8722 104.858 31.9156C103.847 35.9084 103.165 39.9455 102.943 44.0625C102.527 51.773 102.021 59.4835 102.659 67.2117C102.784 68.729 102.792 68.8 104.282 68.5515C106.923 68.1168 109.565 67.7086 112.197 67.682L112.206 67.6998ZM42.862 59.4569C43.6597 59.3859 43.9257 58.9156 44.3068 58.6228C46.1062 57.2564 47.6131 55.4907 49.6962 54.5059C50.9372 53.9202 51.3449 53.0596 51.4336 51.6754C51.8591 44.4618 52.3643 37.2482 52.9405 30.0523C53.2153 26.6008 53.9067 23.1848 53.1355 19.7155C52.9848 19.0411 53.1001 18.3047 53.1532 17.5949C53.4014 14.7023 53.4458 11.792 54.2169 8.96161C54.2701 8.75753 54.4297 8.40262 53.889 8.26953C50.0774 12.147 47.037 16.6366 44.3245 21.3747C43.9877 21.9603 43.9877 22.5903 44.0054 23.2291C44.1473 28.2689 43.8636 33.2998 43.58 38.3129C43.1811 45.3225 43.3052 52.3409 42.8708 59.4391L42.862 59.4569Z" fill="#120C10"/>
<path d="M160.595 19.9994C147.033 20.6471 133.524 20.0793 120.228 20.8423C120.228 18.5088 120.192 16.3261 120.254 14.1433C120.272 13.5222 120.547 12.91 120.742 12.3067C120.946 11.6589 121.327 11.2685 122.08 11.1443C128.365 10.0973 134.623 8.91725 141.014 8.55346C146.599 8.23404 152.21 8.38488 157.75 7.3645C158.246 7.27577 158.769 7.20479 158.884 7.92349C159.558 11.8896 160.4 15.8381 160.604 20.0083L160.595 19.9994Z" fill="#CAAE85"/>
<path d="M112.206 67.6996C109.582 67.7351 106.941 68.1344 104.29 68.5691C102.801 68.8176 102.792 68.7377 102.668 67.2293C102.03 59.5011 102.535 51.7906 102.952 44.0801C103.173 39.9631 103.856 35.926 104.866 31.9332C105.638 28.8898 106.746 25.9796 108.474 23.3621C110.185 20.7623 112.011 18.2336 113.819 15.6959C114.342 14.9595 114.989 14.3207 116.035 13.6641C115.512 15.7935 115.131 17.648 114.599 19.458C113.589 22.8386 113.518 26.3167 113.482 29.7771C113.438 34.1071 112.995 38.4015 112.738 42.7137C112.241 50.8501 111.736 58.9776 112.357 67.1318C112.365 67.2648 112.295 67.3979 112.215 67.7174L112.206 67.6996Z" fill="#CAAE85"/>
<path d="M42.8614 59.4567C43.2957 52.3585 43.1716 45.3401 43.5705 38.3305C43.8542 33.3085 44.1378 28.2776 43.996 23.2467C43.9783 22.6079 43.9783 21.9779 44.3151 21.3923C47.0276 16.6542 50.068 12.1645 53.8795 8.28711C54.4114 8.4202 54.2607 8.77511 54.2075 8.97919C53.4363 11.8096 53.392 14.7199 53.1438 17.6125C53.0818 18.3134 52.9754 19.0587 53.1261 19.7331C53.8973 23.2023 53.2059 26.6273 52.9311 30.0699C52.3549 37.2747 51.8496 44.4794 51.4242 51.693C51.3444 53.0683 50.9278 53.9378 49.6868 54.5234C47.6037 55.5083 46.0968 57.2651 44.2974 58.6404C43.9162 58.9332 43.6503 59.4035 42.8525 59.4745L42.8614 59.4567Z" fill="#CAAE85"/>
<path d="M164.885 9.41406C168.422 13.3536 171.241 17.5682 171.755 23.1137C172.278 28.6947 172.5 34.2669 172.509 39.8745C172.517 45.3224 172.837 50.7792 173.023 56.2271C173.076 57.7976 173.076 57.771 171.489 57.9839C169.681 58.2324 167.881 58.5341 165.958 58.8269C165.692 42.2879 165.79 25.8643 164.814 9.47617L164.877 9.42294L164.885 9.41406Z" fill="#CAAE85"/>
<path d="M164.823 9.46729C164.522 9.44067 164.513 9.22772 164.549 9.0059C164.549 8.95266 164.637 8.89943 164.682 8.84619C164.832 9.0059 164.947 9.17449 164.885 9.40518L164.823 9.45842V9.46729Z" fill="#CAAE85"/>
</g>
<defs>
<clipPath id="clip0_209_8566">
<rect width="199" height="334" fill="white" transform="translate(0.5)"/>
</clipPath>
</defs>
</svg>
