<svg width="27" height="24" viewBox="0 0 27 24" fill="none" xmlns="http://www.w3.org/2000/svg">
<path fill-rule="evenodd" clip-rule="evenodd" d="M13.2666 2.7611H15.6956C17.0372 2.7611 18.1247 3.84864 18.1247 5.19018H18.1249V6.40636L19.9468 6.40636C21.9591 6.40636 23.5904 8.03766 23.5904 10.05L23.5904 17.3372C23.5904 19.3495 21.9591 20.9808 19.9468 20.9808L6.58684 20.9808C4.57453 20.9808 2.94323 19.3495 2.94323 17.3372L2.94323 10.0504H0.51416L0.51416 17.3372C0.51416 20.691 3.23299 23.4099 6.58684 23.4099L19.9468 23.4099C23.3006 23.4099 26.0194 20.691 26.0194 17.3372L26.0194 10.05C26.0194 6.85045 23.5451 4.22886 20.4055 3.99436C19.8727 1.88952 17.9661 0.332031 15.6956 0.332031L13.2666 0.332031V2.7611ZM20.5538 10.0475C21.2246 10.0475 21.7684 9.50369 21.7684 8.83292C21.7684 8.16215 21.2246 7.61838 20.5538 7.61838C19.8831 7.61838 19.3393 8.16215 19.3393 8.83292C19.3393 9.50369 19.8831 10.0475 20.5538 10.0475ZM18.1247 13.6921C18.1247 16.3752 15.9497 18.5503 13.2666 18.5503C10.5835 18.5503 8.40844 16.3752 8.40844 13.6921C8.40844 11.009 10.5835 8.83398 13.2666 8.83398C15.9497 8.83398 18.1247 11.009 18.1247 13.6921ZM15.6956 13.6917C15.6956 15.0332 14.608 16.1208 13.2665 16.1208C11.9249 16.1208 10.8374 15.0332 10.8374 13.6917C10.8374 12.3501 11.9249 11.2626 13.2665 11.2626C14.608 11.2626 15.6956 12.3501 15.6956 13.6917ZM4.76468 1.54657C4.76468 0.875796 5.30844 0.332031 5.97921 0.332031C6.64998 0.332031 7.19375 0.875798 7.19375 1.54657L7.19375 3.97452L9.62281 3.97452C10.2936 3.97452 10.8373 4.51829 10.8373 5.18906C10.8373 5.85983 10.2936 6.4036 9.62281 6.4036H7.19375V8.83379C7.19375 9.50456 6.64998 10.0483 5.97921 10.0483C5.30844 10.0483 4.76468 9.50456 4.76468 8.83379V6.4036L2.33559 6.4036C1.66482 6.4036 1.12105 5.85983 1.12105 5.18906C1.12105 4.51829 1.66482 3.97452 2.33559 3.97452L4.76468 3.97452L4.76468 1.54657Z" fill="#0274D7"/>
</svg>
