<svg width="17" height="17" viewBox="0 0 17 17" fill="none" xmlns="http://www.w3.org/2000/svg">
<path fill-rule="evenodd" clip-rule="evenodd" d="M9.50037 2.91836C9.18842 1.91588 7.81128 1.91589 7.49933 2.91837L6.73208 5.38403C6.67702 5.56098 6.52506 5.6673 6.36812 5.6673H3.88524C3.36785 5.6673 3.00933 6.01872 2.88472 6.41916C2.76039 6.81872 2.85349 7.3112 3.26213 7.62121L5.27082 9.14507C5.40683 9.24825 5.47029 9.43893 5.4146 9.61791L4.64735 12.0836C4.49499 12.5732 4.68947 13.0313 5.02475 13.2856C5.36216 13.5416 5.8571 13.5996 6.27098 13.2856L8.27967 11.7618C8.41198 11.6614 8.58772 11.6614 8.72003 11.7618L10.7287 13.2856C11.1426 13.5996 11.6375 13.5416 11.9749 13.2856C12.3102 13.0313 12.5047 12.5732 12.3524 12.0836L11.5851 9.61791C11.5294 9.43893 11.5929 9.24825 11.7289 9.14507L13.7376 7.62121C14.1462 7.3112 14.2393 6.81872 14.115 6.41916C13.9904 6.01872 13.6319 5.6673 13.1145 5.6673H10.6316C10.4746 5.6673 10.3227 5.56098 10.2676 5.38402L9.50037 2.91836Z" fill="#0D070B"/>
</svg>
