<svg width="20" height="20" viewBox="0 0 20 20" fill="none" xmlns="http://www.w3.org/2000/svg">
<path fill-rule="evenodd" clip-rule="evenodd" d="M6.53495 2.12164C6.22322 2.03943 5.87823 1.99845 5.57706 2.00004L5.57177 2.00006C4.78915 2.00006 4.01327 2.26881 3.38896 2.76091L3.38398 2.76483C2.49424 3.45704 1.99444 4.48627 2.00005 5.59329L2.00008 5.59926C1.99706 8.9132 3.28402 12.024 5.62741 14.3674C7.97101 16.711 11.0833 18 14.401 18C15.4851 18 16.5024 17.518 17.2008 16.6619C17.7095 16.0191 17.9933 15.2152 18 14.3976C17.9997 14.0831 17.9588 13.7702 17.8785 13.4667C17.8345 13.2999 17.6564 13.0895 17.5046 13.0196L13.9932 11.4756C13.9568 11.4593 13.8656 11.4321 13.7505 11.4276C13.6371 11.4232 13.5604 11.443 13.5236 11.4601C12.7398 11.8292 12.1054 12.4805 11.752 13.2716C11.6353 13.5329 11.4122 13.7317 11.1392 13.8176C10.8661 13.9036 10.5694 13.8684 10.324 13.721C9.68425 13.3366 8.88676 12.716 8.16811 12.0562C7.45941 11.4056 6.74446 10.6413 6.33048 9.95278C6.18279 9.70715 6.1476 9.40995 6.23384 9.13661C6.32008 8.86328 6.51946 8.64009 6.78137 8.52369C7.57645 8.17033 8.22588 7.53589 8.59006 6.75358C8.60698 6.7173 8.62732 6.63936 8.62281 6.52479C8.61826 6.40906 8.59097 6.31741 8.57462 6.28075L8.56635 6.26169L6.9771 2.49021C6.90626 2.34053 6.69941 2.16511 6.53495 2.12164ZM5.56914 5.90137e-05C6.03953 -0.00218498 6.55888 0.0595522 7.04515 0.187805C7.79303 0.385176 8.48928 0.973296 8.80558 1.67965L8.81444 1.70002L10.406 5.47705C10.6363 6.0014 10.7516 6.85077 10.4029 7.59828M5.56914 5.90137e-05C4.33607 0.000658398 3.12681 0.421852 2.15338 1.18821C0.780864 2.25722 -0.00777409 3.86893 5.77848e-05 5.60034C-0.00266943 9.44431 1.495 13.0634 4.21319 15.7817C6.9321 18.5005 10.5532 20 14.401 20C16.0942 20 17.6812 19.241 18.7562 17.9193L18.7635 17.9101C19.5521 16.9169 19.9909 15.6772 20 14.4081L20 14.401C20 13.9126 19.9367 13.4265 19.8119 12.9549C19.6147 12.2082 19.0291 11.5126 18.323 11.1947L14.8089 9.64946L14.8059 9.64809C14.2829 9.4155 13.4272 9.29581 12.673 9.65005C11.8144 10.0542 11.0754 10.6718 10.5227 11.428C10.2008 11.18 9.85632 10.8911 9.52072 10.583C9.20232 10.2907 8.91116 9.99853 8.66507 9.72511C9.40567 9.17466 10.0086 8.44502 10.4029 7.59828" fill="#0274D7"/>
</svg>
