<svg width="32" height="32" viewBox="0 0 32 32" fill="none" xmlns="http://www.w3.org/2000/svg">
<circle cx="16" cy="16" r="16" fill="#0D070B"/>
<path fill-rule="evenodd" clip-rule="evenodd" d="M20.4296 19.3119L17.0772 15.9602L20.4296 12.6085C20.7386 12.2996 20.7386 11.7986 20.4296 11.4905C20.1207 11.1816 19.6214 11.1816 19.3124 11.4905L15.9599 14.843L12.6082 11.4905C12.2993 11.1816 11.7991 11.1816 11.491 11.4905C11.182 11.7986 11.182 12.2996 11.491 12.6085L14.8427 15.9602L11.491 19.3119C11.182 19.6209 11.182 20.121 11.491 20.43C11.7991 20.7389 12.2993 20.7381 12.6082 20.43L15.9599 17.0775L19.3124 20.43C19.6214 20.7389 20.1207 20.7381 20.4296 20.43C20.7386 20.121 20.7386 19.6209 20.4296 19.3119" fill="white"/>
</svg>
