<svg width="22" height="20" viewBox="0 0 22 20" fill="none" xmlns="http://www.w3.org/2000/svg">
<path fill-rule="evenodd" clip-rule="evenodd" d="M8.00905 2L8.00494 2.04318L8.45655 6.05351C8.58139 7.16207 9.51898 8 10.6345 8C11.8067 8 12.7713 7.0778 12.8241 5.90687L12.9971 2.06644L12.9908 2H8.00905ZM3.70689 10C5.1025 10 6.42168 9.22512 7.10227 8.06616C7.85134 9.23644 9.16185 10 10.6345 10C12.0275 10 13.2673 9.31897 14.0306 8.26596C14.7488 9.31331 16.0089 10 17.3227 10C17.5544 10 17.7807 9.97886 18 9.93848V15C18 16.6569 16.6569 18 15 18H14V14.5C14 12.567 12.433 11 10.5 11C8.567 11 7 12.567 7 14.5V18H6C4.34315 18 3 16.6569 3 15V9.9329C3.2285 9.97691 3.46478 10 3.70689 10ZM1 8.8255C0.302608 8.07979 -0.0883975 7.04896 0.0170258 5.94202L0.296947 3.00285C0.459098 1.30026 1.88907 0 3.59937 0H5.76221H8.19953H12.8003H15.0922H17.1302C19.0106 0 20.5828 1.4296 20.7611 3.30155L21.0126 5.94202C21.1195 7.06453 20.7159 8.10877 20 8.85679V15C20 17.7614 17.7614 20 15 20H14H7H6C3.23858 20 1 17.7614 1 15V8.8255ZM19 5.90497L18.7701 3.49117C18.6921 2.6719 18.0229 2.04022 17.2088 2.00185C17.1827 2.00062 17.1565 2 17.1302 2H15.0021L15.0014 2.01638L15.4241 6.45523C15.5075 7.3311 16.4429 8 17.3227 8C18.1637 8 18.8521 7.39496 19 6.61145V5.90497ZM5.57569 6.45523L5.99424 2.06046L5.98743 2H3.59937C2.92019 2 2.35233 2.51635 2.28794 3.19247L2.00802 6.13164C1.9126 7.13354 2.70046 8 3.70689 8C4.58673 8 5.49228 7.3311 5.57569 6.45523ZM12 14.5V18H9V14.5C9 13.6716 9.67157 13 10.5 13C11.3284 13 12 13.6716 12 14.5Z" fill="#0D070B"/>
</svg>
