<svg width="55" height="55" viewBox="0 0 55 55" fill="none" xmlns="http://www.w3.org/2000/svg">
<circle cx="27.5" cy="27.4167" r="27" fill="#F2F2F3"/>
<g clip-path="url(#clip0_28_7178)">
<path d="M40.7 23.2701L39.3 17.4434C39.0067 16.2434 37.9667 15.4167 36.7533 15.4167H18.2333C17.0333 15.4167 15.98 16.2567 15.7 17.4434L14.3 23.2701C13.98 24.6301 14.2733 26.0167 15.1267 27.1101C15.2333 27.2567 15.38 27.3634 15.5 27.4967V36.7501C15.5 38.2167 16.7 39.4167 18.1667 39.4167H36.8333C38.3 39.4167 39.5 38.2167 39.5 36.7501V27.4967C39.62 27.3767 39.7667 27.2567 39.8733 27.1234C40.7267 26.0301 41.0333 24.6301 40.7 23.2701ZM36.7133 18.0701L38.1133 23.8967C38.2467 24.4567 38.1267 25.0167 37.78 25.4567C37.5933 25.6967 37.1933 26.0834 36.5267 26.0834C35.7133 26.0834 35.0067 25.4301 34.9133 24.5634L34.14 18.0834L36.7133 18.0701ZM28.8333 18.0834H31.4467L32.1667 24.1101C32.2333 24.6301 32.0733 25.1501 31.7267 25.5367C31.4333 25.8834 31.0067 26.0834 30.46 26.0834C29.5667 26.0834 28.8333 25.2967 28.8333 24.3367V18.0834ZM22.82 24.1101L23.5533 18.0834H26.1667V24.3367C26.1667 25.2967 25.4333 26.0834 24.4467 26.0834C23.9933 26.0834 23.58 25.8834 23.26 25.5367C22.9267 25.1501 22.7667 24.6301 22.82 24.1101ZM16.8867 23.8967L18.2333 18.0834H20.86L20.0867 24.5634C19.98 25.4301 19.2867 26.0834 18.4733 26.0834C17.82 26.0834 17.4067 25.6967 17.2333 25.4567C16.8733 25.0301 16.7533 24.4567 16.8867 23.8967ZM18.1667 36.7501V28.7101C18.2733 28.7234 18.3667 28.7501 18.4733 28.7501C19.6333 28.7501 20.6867 28.2701 21.46 27.4834C22.26 28.2834 23.3267 28.7501 24.54 28.7501C25.7 28.7501 26.74 28.2701 27.5133 27.5101C28.3 28.2701 29.3667 28.7501 30.5667 28.7501C31.6867 28.7501 32.7533 28.2834 33.5533 27.4834C34.3267 28.2701 35.38 28.7501 36.54 28.7501C36.6467 28.7501 36.74 28.7234 36.8467 28.7101V36.7501H18.1667Z" fill="#0D070B"/>
</g>
<defs>
<clipPath id="clip0_28_7178">
<rect width="32" height="32" fill="F2F2F3" transform="translate(11.5 11.4167)"/>
</clipPath>
</defs>
</svg>
