<svg width="49" height="48" viewBox="0 0 49 48" fill="none" xmlns="http://www.w3.org/2000/svg">
<circle cx="24.5" cy="24" r="24" fill="#F2F2F3"/>
<path fill-rule="evenodd" clip-rule="evenodd" d="M31.1447 28.9681L26.116 23.9406L31.1447 18.913C31.6081 18.4496 31.6081 17.6982 31.1447 17.236C30.6813 16.7726 29.9323 16.7726 29.4689 17.236L24.4401 22.2647L19.4126 17.236C18.9492 16.7726 18.1989 16.7726 17.7367 17.236C17.2733 17.6982 17.2733 18.4496 17.7367 18.913L22.7643 23.9406L17.7367 28.9681C17.2733 29.4315 17.2733 30.1818 17.7367 30.6452C18.1989 31.1086 18.9492 31.1074 19.4126 30.6452L24.4401 25.6164L29.4689 30.6452C29.9323 31.1086 30.6813 31.1074 31.1447 30.6452C31.6081 30.1818 31.6081 29.4315 31.1447 28.9681" fill="#0D070B"/>
</svg>
