<svg width="42" height="42" viewBox="0 0 42 42" fill="none" xmlns="http://www.w3.org/2000/svg">
<path d="M0 15C0 6.71573 6.71573 0 15 0H27C35.2843 0 42 6.71573 42 15V27C42 35.2843 35.2843 42 27 42H15C6.71573 42 0 35.2843 0 27V15Z" fill="#F2F2F3"/>
<path d="M13.7198 11.6667C13.7998 12.8533 13.9998 14.0133 14.3198 15.12L12.7198 16.72C12.1732 15.12 11.8265 13.4267 11.7065 11.6667H13.7198ZM26.8665 27.6933C27.9998 28.0133 29.1598 28.2133 30.3332 28.2933V30.28C28.5732 30.16 26.8798 29.8133 25.2665 29.28L26.8665 27.6933ZM14.9998 9H10.3332C9.59985 9 8.99985 9.6 8.99985 10.3333C8.99985 22.8533 19.1465 33 31.6665 33C32.3998 33 32.9998 32.4 32.9998 31.6667V27.0133C32.9998 26.28 32.3998 25.68 31.6665 25.68C30.0132 25.68 28.3998 25.4133 26.9065 24.92C26.7732 24.8667 26.6265 24.8533 26.4932 24.8533C26.1465 24.8533 25.8132 24.9867 25.5465 25.24L22.6132 28.1733C18.8398 26.24 15.7465 23.16 13.8265 19.3867L16.7598 16.4533C17.1332 16.08 17.2398 15.56 17.0932 15.0933C16.5998 13.6 16.3332 12 16.3332 10.3333C16.3332 9.6 15.7332 9 14.9998 9Z" fill="#0D070B"/>
</svg>
