<svg width="68" height="35" viewBox="0 0 68 35" fill="none" xmlns="http://www.w3.org/2000/svg">
<rect width="68" height="35" rx="10" fill="white"/>
<path fill-rule="evenodd" clip-rule="evenodd" d="M22.3045 23.2501C22.242 23.2445 22.1807 23.2365 22.1204 23.2286H22.1204C21.9896 23.2115 21.8634 23.1951 21.7392 23.2049C21.219 23.2446 20.859 23.0529 20.7078 22.6256C20.5651 22.223 20.743 21.793 21.1578 21.5403C21.3933 21.3965 21.6507 21.3335 21.9263 21.378C22.0608 21.3996 22.1944 21.4272 22.328 21.4548L22.328 21.4548L22.3281 21.4548C22.4192 21.4737 22.5104 21.4925 22.6019 21.5095C22.6881 21.5253 22.7749 21.5371 22.8598 21.5486H22.8598C22.8961 21.5535 22.9321 21.5584 22.9675 21.5636C23.037 21.4618 23.104 21.3618 23.17 21.2635C23.3131 21.0502 23.4512 20.8445 23.5975 20.6439C24.2344 19.7702 25.0134 19.045 25.9788 18.5191C26.5412 18.2124 27.1402 18.009 27.7821 17.9289C28.2476 17.8714 28.7025 17.9213 29.1426 18.0645C30.0158 18.3486 30.4679 19.1553 30.2689 20.053C30.1641 20.5262 29.9202 20.9315 29.6038 21.2979C29.2466 21.7122 28.8058 22.0292 28.3404 22.3168C27.3273 22.9427 26.1981 23.2337 25.0289 23.4076C24.8383 23.4359 24.6466 23.457 24.4549 23.4782L24.4548 23.4782C24.368 23.4878 24.2811 23.4973 24.1944 23.5076C23.8681 24.1636 24.0903 24.8634 24.7343 25.1893C25.0451 25.3468 25.3797 25.4153 25.7299 25.429C27.4419 25.4968 28.8951 24.8853 30.1831 23.8315C30.3111 23.7267 30.3659 23.6048 30.3856 23.4487C30.5818 21.9148 31.3165 20.6446 32.4449 19.5901C33.3814 18.7143 34.5119 18.1713 35.8014 18.0022C36.6605 17.8892 37.4803 18.0535 38.2052 18.5547C38.2493 18.5853 38.296 18.6122 38.3427 18.6392L38.3427 18.6392L38.3428 18.6392C38.3839 18.6629 38.4251 18.6866 38.4646 18.7129C38.852 18.969 39.0278 19.3655 38.9153 19.814C38.8311 20.149 38.7388 20.4819 38.6465 20.8149L38.6465 20.815C38.536 21.2138 38.4255 21.6126 38.3289 22.0148C38.1201 22.8872 37.9668 23.7698 37.9485 24.6689C37.9453 24.8233 37.946 24.9776 37.9469 25.1602V25.1602C37.9474 25.2539 37.9478 25.355 37.9478 25.4674C38.0106 25.4227 38.0642 25.3866 38.111 25.3549L38.1111 25.3549L38.1111 25.3549C38.1944 25.2986 38.2564 25.2567 38.3113 25.2072C38.8049 24.7593 39.129 24.1951 39.4524 23.6288C39.6064 23.3597 39.657 23.0796 39.6669 22.7749C39.7308 20.9089 39.9193 19.0519 40.2272 17.2106C40.4608 15.8108 40.7184 14.4149 40.9759 13.0191L40.9761 13.0185L40.9765 13.016C41.0776 12.4682 41.1787 11.9204 41.2783 11.3723C41.3066 11.2174 41.3403 11.0631 41.3773 10.8939L41.3777 10.892C41.3957 10.8098 41.4144 10.7239 41.4337 10.6328C40.4909 10.6034 39.5804 10.6157 38.6277 10.6403C38.6521 10.6894 38.6751 10.7336 38.6965 10.7749C38.7411 10.8608 38.7789 10.9335 38.8084 11.0094C38.9434 11.3545 38.8513 11.7455 38.5771 11.9626C38.2881 12.1913 37.9767 12.1968 37.6462 12.0359C37.5133 11.9715 37.3622 11.9208 37.2152 11.9065C36.8166 11.8672 36.4174 11.8325 36.0183 11.7978L36.0182 11.7978C35.6037 11.7618 35.1893 11.7258 34.7756 11.6846C34.4979 11.6572 34.2124 11.6237 33.9502 11.5367C33.1332 11.2676 32.9265 10.376 33.5255 9.76933C33.7625 9.52898 34.0613 9.39409 34.3819 9.29617C35.1313 9.06677 35.9061 8.97433 36.6844 8.94899C37.8355 8.91214 38.987 8.89267 40.1386 8.8732L40.1386 8.8732C40.5703 8.8659 41.002 8.8586 41.4337 8.85039C41.5269 8.84856 41.6202 8.84917 41.7135 8.84978C41.7601 8.85009 41.8068 8.85039 41.8534 8.85039C41.865 8.8334 41.8767 8.81797 41.8877 8.80338C41.911 8.77268 41.9315 8.74566 41.942 8.71549C42.1026 8.25224 42.2624 7.78869 42.4223 7.32512L42.4242 7.31954C42.6129 6.77222 42.8017 6.22487 42.9917 5.67792C43.024 5.58479 43.069 5.49303 43.1224 5.40881C43.3488 5.05479 43.7454 4.91578 44.1117 5.05479C44.5019 5.2027 44.6994 5.57109 44.5869 5.99496C44.4353 6.56548 44.2759 7.13434 44.1164 7.70315L44.1164 7.70329C44.0473 7.94958 43.9783 8.19587 43.9099 8.44228C43.8829 8.53892 43.8562 8.6352 43.8257 8.74546L43.7918 8.86819C43.8302 8.87539 43.8661 8.88322 43.9005 8.89071C43.9677 8.90533 44.029 8.91868 44.0913 8.92366C44.6142 8.9651 45.1376 9.00301 45.6609 9.0409C46.7803 9.12198 47.8995 9.20304 49.0149 9.31876C51.212 9.5461 53.3908 9.89875 55.5331 10.4418C55.6195 10.4637 55.7067 10.4863 55.7897 10.5164C56.2249 10.6766 56.447 11.0519 56.3486 11.4559C56.2565 11.8332 55.8902 12.0859 55.4452 12.0455C55.0984 12.0139 54.7537 11.9619 54.4088 11.9099L54.231 11.8832C53.6443 11.7961 53.0583 11.7038 52.4723 11.6115L52.4722 11.6115L52.4721 11.6115C51.1928 11.4101 49.9137 11.2087 48.6282 11.0608C47.4502 10.9253 46.2646 10.8497 45.0789 10.7741L45.0788 10.7741C44.569 10.7416 44.0592 10.7091 43.5499 10.6718C43.5017 10.6682 43.4526 10.6735 43.3935 10.6799C43.3629 10.6832 43.3297 10.6868 43.2926 10.6896C43.257 10.8495 43.2207 11.0085 43.1845 11.1669L43.1844 11.1672C43.104 11.519 43.0242 11.8682 42.9544 12.2194C42.4805 14.6119 42.0432 17.0113 41.7557 19.4319C41.5476 21.1856 41.3697 22.9475 41.4969 24.7162C41.5306 25.1847 41.6349 25.6497 41.7388 26.1125L41.7388 26.1125C41.763 26.2206 41.7872 26.3285 41.8105 26.4363C41.8408 26.5784 41.9085 26.7129 41.9759 26.8469C41.9991 26.893 42.0223 26.9391 42.0439 26.9855C42.1255 27.1601 42.2577 27.258 42.4679 27.2306C42.5305 27.2224 42.5958 27.2258 42.6591 27.234C43.0191 27.282 43.2778 27.4621 43.3924 27.8044C43.5014 28.1297 43.3819 28.481 43.0838 28.7001C42.7294 28.9603 42.3273 29.0541 41.89 28.9699C41.3156 28.8603 40.9021 28.5248 40.5872 28.0612C40.2947 27.6312 40.1182 27.1525 39.9762 26.6595C39.9523 26.5768 39.93 26.4934 39.9041 26.396L39.904 26.3958L39.8672 26.2583C39.8381 26.2798 39.8111 26.3 39.7854 26.3192C39.7264 26.3634 39.6748 26.402 39.6219 26.4383C39.5079 26.5172 39.3961 26.6001 39.2843 26.6831C39.0298 26.8718 38.7754 27.0606 38.4955 27.2005C37.5169 27.6887 36.6043 27.2922 36.3069 26.2678C36.2213 25.9735 36.1868 25.6634 36.1526 25.356L36.1395 25.24C36.1235 25.0988 36.1276 24.9554 36.1317 24.8119V24.8118L36.1317 24.8117C36.1335 24.7471 36.1353 24.6826 36.1353 24.6183L36.0608 24.595C36.0397 24.6186 36.0183 24.642 35.9968 24.6654L35.9966 24.6656L35.9965 24.6657C35.9471 24.7195 35.8977 24.7734 35.8527 24.8305C35.343 25.4776 34.7566 26.0439 34.0423 26.4767C33.6591 26.7088 33.2577 26.9026 32.7971 26.919C31.9408 26.9499 31.2441 26.6753 30.8236 25.9001C30.8037 25.8635 30.7808 25.8282 30.7513 25.7827C30.7372 25.7609 30.7216 25.7368 30.7041 25.7091L30.6311 25.7522C30.5459 25.8024 30.4648 25.8501 30.3842 25.8988C28.9647 26.7581 27.4426 27.2683 25.7482 27.2046C25.1548 27.182 24.5811 27.0779 24.0418 26.8293C22.8346 26.2719 22.23 25.3434 22.2462 24.039C22.2475 23.924 22.256 23.8084 22.2646 23.6933L22.2665 23.6665C22.2725 23.5877 22.2801 23.5092 22.2892 23.4166L22.2892 23.4163C22.2941 23.3657 22.2995 23.3109 22.3052 23.2494L22.3045 23.2501ZM36.7442 19.8215L36.7041 19.7209C36.6181 19.7264 36.5315 19.7291 36.4449 19.7317C36.2539 19.7375 36.063 19.7432 35.8787 19.7805C34.8178 19.9927 33.9347 20.5077 33.2534 21.3314C32.5159 22.2223 32.1236 23.2371 32.1391 24.3889C32.1426 24.6655 32.177 24.9565 32.4576 25.1044C32.6926 25.2282 32.8914 25.0989 33.0795 24.9766L33.0898 24.9699C33.1126 24.9551 33.1353 24.9404 33.1578 24.9264C33.8384 24.5025 34.3432 23.9109 34.7672 23.2549C35.1946 22.5934 35.6024 21.9196 35.9975 21.239C36.1835 20.919 36.3515 20.5895 36.5197 20.2598C36.5944 20.1133 36.6692 19.9667 36.7456 19.8209L36.7442 19.8215ZM25.1463 21.6498C26.5637 21.5821 28.204 20.6152 28.4128 19.7428C27.5108 19.4956 25.7545 20.509 25.1463 21.6498ZM21.9938 18.3206C21.3807 18.7218 20.8871 19.2142 20.4653 19.7743C19.2272 21.4177 18.2612 23.209 17.4379 25.0757C17.2446 25.5143 17.0792 25.9645 16.9139 26.4147C16.8386 26.6195 16.7634 26.8243 16.6856 27.0279C16.6743 27.0572 16.6639 27.0869 16.6535 27.1166C16.631 27.1813 16.6084 27.2458 16.5766 27.3059C16.4029 27.6353 16.0549 27.8263 15.6999 27.7962C15.3195 27.764 15.0144 27.512 14.9075 27.1388C14.8898 27.0767 14.8761 27.0138 14.8585 26.9326L14.8585 26.9326C14.8495 26.8911 14.8395 26.8449 14.8274 26.7917L14.7175 26.8781L14.7174 26.8783C14.6087 26.9637 14.5159 27.0368 14.4238 27.1114C13.5864 27.7894 12.6584 28.2947 11.582 28.509C10.6722 28.6905 9.7786 28.6309 8.91031 28.2988C8.0167 27.9564 7.35441 27.3593 6.90234 26.5417C6.23301 25.3318 6.03967 24.0273 6.1381 22.6756C6.29066 20.5782 7.01834 18.6492 8.0153 16.8079C9.12404 14.7598 10.5506 12.9603 12.4559 11.5483C13.088 11.0799 13.758 10.6718 14.506 10.3972C14.9637 10.2295 15.4327 10.1213 15.9263 10.1364C16.8733 10.1651 17.5876 10.6924 17.8245 11.5901C18.0861 12.583 17.8724 13.5163 17.338 14.3798C17.0863 14.7858 16.6244 14.8968 16.2454 14.6907C15.8763 14.49 15.7645 14.0915 15.9185 13.6533L15.9344 13.6081C16.0442 13.2963 16.157 12.9761 16.1892 12.6521C16.2588 11.9551 16.0198 11.7695 15.3462 11.9989C14.9405 12.1365 14.5447 12.3262 14.1777 12.546C13.1224 13.1774 12.2365 14.0018 11.4596 14.9338C9.81657 16.9052 8.66212 19.1149 8.11443 21.6067C7.87679 22.6886 7.8339 23.7767 8.1524 24.8559C8.16646 24.9038 8.18177 24.9511 8.19708 24.9984C8.20474 25.0221 8.21239 25.0458 8.21989 25.0695C8.75422 26.7766 10.2033 27.043 11.4456 26.7177C12.3216 26.4883 13.0331 25.9905 13.6785 25.392C14.2733 24.8401 14.7634 24.2026 15.2274 23.5466C15.297 23.448 15.3399 23.3234 15.3666 23.2042C15.7055 21.6834 15.9101 20.1434 16.0619 18.5958C16.076 18.4486 16.1013 18.298 16.1526 18.1596C16.2848 17.8042 16.6335 17.5851 17.016 17.5968C17.3837 17.6084 17.7233 17.8282 17.8168 18.1843C17.878 18.4178 17.8808 18.6759 17.8576 18.919C17.8284 19.2298 17.7815 19.539 17.7345 19.8481L17.7345 19.8482L17.7344 19.8483C17.7123 19.9941 17.6901 20.1399 17.6699 20.2858C17.6565 20.383 17.6516 20.481 17.6931 20.6076C17.7131 20.5819 17.7336 20.5563 17.754 20.5306L17.754 20.5306C17.7967 20.4771 17.8395 20.4235 17.8794 20.368C18.04 20.1441 18.1976 19.9181 18.3553 19.692L18.3554 19.6919C18.707 19.1877 19.0586 18.6835 19.443 18.2041C19.9935 17.5167 20.6713 16.9408 21.3828 16.4108C21.6985 16.1752 22.0493 15.9965 22.4451 15.915C23.3661 15.726 24.1473 16.3176 24.1691 17.2345C24.1845 17.8748 23.9413 18.4561 23.6509 19.0101C23.4913 19.3148 23.2719 19.6004 23.0329 19.853C22.796 20.103 22.4627 20.1256 22.1428 20.0057C21.832 19.8893 21.6577 19.6483 21.6127 19.3278C21.5796 19.0943 21.6619 18.8903 21.7934 18.6965C21.8482 18.6152 21.892 18.527 21.9359 18.4387L21.9359 18.4387C21.9555 18.3991 21.9752 18.3595 21.9959 18.3206H21.9938ZM52.4142 19.7798C52.0536 20.1845 51.6324 20.5213 51.0714 20.8315L51.0721 20.8302C51.077 20.7605 51.0822 20.6991 51.087 20.6433C51.0967 20.5302 51.1044 20.44 51.103 20.3502C51.1018 20.2678 51.1021 20.1851 51.1024 20.1023C51.1035 19.8612 51.1045 19.6197 51.0657 19.3847C50.9237 18.5191 50.3838 17.759 49.2132 17.7392C49.1365 17.7378 49.0585 17.7358 48.9847 17.7193C48.2408 17.5543 47.5342 17.6899 46.8621 18.0001C45.0552 18.8341 43.8628 20.1968 43.2715 22.0511C43.0226 22.8324 42.9657 23.6342 43.1168 24.4464C43.519 26.6129 45.6591 27.6798 47.6868 26.7239C48.3779 26.3986 48.8567 25.8522 49.2982 25.2688C49.8094 24.5929 50.1728 23.8404 50.4667 23.0549C50.5406 22.8577 50.6432 22.7557 50.871 22.7359C51.3097 22.6982 51.7091 22.5297 52.0852 22.3106C52.1684 22.2622 52.2519 22.2143 52.3494 22.1584C52.4034 22.1274 52.4618 22.0939 52.5267 22.0566C52.5151 22.1103 52.5048 22.1587 52.4952 22.2033C52.4735 22.3048 52.456 22.3868 52.4374 22.4681C52.3807 22.7171 52.3228 22.9658 52.2648 23.2145C52.1365 23.7648 52.0082 24.315 51.894 24.8682C51.804 25.3057 51.7393 25.7508 51.7048 26.1959C51.6753 26.5773 51.8715 26.8677 52.23 27.032C52.5752 27.1902 52.9718 27.1176 53.2495 26.8334C53.3788 26.7013 53.4892 26.5404 53.5694 26.3746C54.508 24.4313 55.713 22.6461 56.9905 20.9055C57.6774 19.9701 58.4874 19.1443 59.4449 18.4637C59.4926 18.4299 59.5446 18.4021 59.6146 18.3646C59.6541 18.3434 59.6994 18.3192 59.7529 18.289C59.7214 18.3764 59.692 18.4548 59.6646 18.5274C59.61 18.6725 59.564 18.7949 59.5279 18.9204C59.4984 19.0228 59.4673 19.1251 59.4361 19.2275C59.3403 19.5426 59.2442 19.8584 59.1954 20.1803C59.085 20.9041 59.5884 21.6402 60.2943 21.8703C60.6922 21.9997 61.0894 21.8744 61.3053 21.5505C61.5113 21.241 61.4944 20.8329 61.2026 20.5583C61.0079 20.3748 61.0044 20.2057 61.0845 19.992C61.3123 19.386 61.538 18.7786 61.763 18.1713C61.7819 18.1204 61.802 18.0698 61.8221 18.0192C61.8758 17.8838 61.9295 17.7485 61.9612 17.6084C62.1764 16.6573 61.4628 15.9212 60.4771 16.0636C60.0018 16.1321 59.5666 16.3046 59.156 16.5368C58.2666 17.0401 57.47 17.6645 56.7831 18.4061C56.4047 18.8141 56.053 19.2456 55.7012 19.6772C55.5452 19.8686 55.3891 20.0601 55.2307 20.2495C55.1874 20.3014 55.1427 20.3529 55.0981 20.4043C55.0797 20.4255 55.0613 20.4467 55.043 20.4679C55.1862 19.8664 55.3787 19.2947 55.5706 18.7245C55.5926 18.6593 55.6145 18.594 55.6364 18.5287C55.7039 18.3288 55.7707 18.1247 55.8002 17.9172C55.8607 17.4947 55.6188 17.1017 55.2357 16.9558C54.8279 16.8011 54.3934 16.9428 54.1325 17.3208C54.0686 17.4132 54.0158 17.5132 53.9645 17.6132C53.5546 18.4082 53.009 19.1114 52.4142 19.7798ZM47.0921 19.8884C47.1104 19.8853 47.1342 19.8812 47.1658 19.8743L47.1665 19.8749C47.1989 21.0144 47.8583 21.7464 48.8208 22.3181C48.781 22.4118 48.7427 22.5042 48.7049 22.5954C48.6267 22.7843 48.5504 22.9682 48.4665 23.1488C48.181 23.7644 47.8197 24.3327 47.3247 24.8113C47.2171 24.9154 47.1004 25.0195 46.969 25.09C45.9931 25.6125 45.2985 25.2434 44.9497 24.2642C44.7613 23.7349 44.8408 23.1796 44.987 22.6461C45.3069 21.4773 46.0374 20.5932 47.0372 19.9037C47.0483 19.8958 47.0636 19.8932 47.0921 19.8884ZM49.2005 19.5435C48.9129 19.825 48.9326 20.0961 49.2631 20.3337C49.3207 20.0578 49.3481 19.801 49.2005 19.5435Z" fill="#0D070B"/>
</svg>
