<svg width="23" height="18" viewBox="0 0 23 18" fill="none" xmlns="http://www.w3.org/2000/svg">
<path fill-rule="evenodd" clip-rule="evenodd" d="M4.5 2.5H13.5C14.6046 2.5 15.5 3.39543 15.5 4.5V5.5V12.5H7.73611C7.18679 11.8863 6.3885 11.5 5.5 11.5C4.6115 11.5 3.81321 11.8863 3.26389 12.5H2.5V4.5C2.5 3.39543 3.39543 2.5 4.5 2.5ZM18.5 15.5C17.9477 15.5 17.5 15.0523 17.5 14.5C17.5 13.9477 17.9477 13.5 18.5 13.5C19.0523 13.5 19.5 13.9477 19.5 14.5C19.5 15.0523 19.0523 15.5 18.5 15.5ZM18.5 17.5C16.8431 17.5 15.5 16.1569 15.5 14.5H8.5C8.5 16.1569 7.15685 17.5 5.5 17.5C3.84315 17.5 2.5 16.1569 2.5 14.5H1.5C0.947715 14.5 0.5 14.0523 0.5 13.5V4.5C0.5 2.29086 2.29086 0.5 4.5 0.5H13.5C15.7091 0.5 17.5 2.29086 17.5 4.5H18.5C20.7091 4.5 22.5 6.29086 22.5 8.5V12.5V13.5C22.5 14.0523 22.0523 14.5 21.5 14.5C21.5 16.1569 20.1569 17.5 18.5 17.5ZM4.5 14.5C4.5 15.0523 4.94772 15.5 5.5 15.5C6.05228 15.5 6.5 15.0523 6.5 14.5C6.5 13.9477 6.05228 13.5 5.5 13.5C4.94772 13.5 4.5 13.9477 4.5 14.5ZM17.5 6.5H18.5C19.6046 6.5 20.5 7.39543 20.5 8.5V9.5H17.5V6.5Z" fill="#0D070B"/>
</svg>
