<svg width="55" height="55" viewBox="0 0 55 55" fill="none" xmlns="http://www.w3.org/2000/svg">
<circle cx="27.5" cy="27.3335" r="27" fill="#EBD2AD"/>
<path fill-rule="evenodd" clip-rule="evenodd" d="M18.8333 18.6667H30.8333C32.3061 18.6667 33.5 19.8606 33.5 21.3333L33.5 22.6667L33.5 32H23.1481C22.4157 31.1817 21.3513 30.6667 20.1667 30.6667C18.982 30.6667 17.9176 31.1817 17.1852 32H16.1667V21.3333C16.1667 19.8606 17.3606 18.6667 18.8333 18.6667ZM37.5 36C36.7636 36 36.1667 35.403 36.1667 34.6667C36.1667 33.9303 36.7636 33.3333 37.5 33.3333C38.2364 33.3333 38.8333 33.9303 38.8333 34.6667C38.8333 35.403 38.2364 36 37.5 36ZM37.5 38.6667C35.2909 38.6667 33.5 36.8758 33.5 34.6667H24.1667C24.1667 36.8758 22.3758 38.6667 20.1667 38.6667C17.9575 38.6667 16.1667 36.8758 16.1667 34.6667H14.8333C14.097 34.6667 13.5 34.0697 13.5 33.3333V21.3333C13.5 18.3878 15.8878 16 18.8333 16H30.8333C33.7789 16 36.1667 18.3878 36.1667 21.3333H37.5C40.4455 21.3333 42.8333 23.7211 42.8333 26.6667V32V33.3333C42.8333 34.0697 42.2364 34.6667 41.5 34.6667C41.5 36.8758 39.7091 38.6667 37.5 38.6667ZM18.8333 34.6667C18.8333 35.403 19.4303 36 20.1667 36C20.2587 36 20.3486 35.9907 20.4354 35.9729C21.043 35.8486 21.5 35.311 21.5 34.6667C21.5 33.9303 20.903 33.3333 20.1667 33.3333C19.4303 33.3333 18.8333 33.9303 18.8333 34.6667ZM36.1667 24H38.1667C39.2712 24 40.1667 24.8954 40.1667 26V28H36.1667V24Z" fill="#0D070B"/>
</svg>
