<svg width="32" height="32" viewBox="0 0 32 32" fill="none" xmlns="http://www.w3.org/2000/svg">
<circle cx="16" cy="16" r="16" fill="#F2F2F3"/>
<g clip-path="url(#clip0_2552_30971)">
<path fill-rule="evenodd" clip-rule="evenodd" d="M20.4641 12.4907L15.9999 8.09766L11.5357 12.4907C10.3901 13.6206 9.67896 15.1772 9.67896 16.8917C9.67896 20.3288 12.5076 23.11 15.9999 23.11C19.4923 23.11 22.3209 20.3288 22.3209 16.8917C22.3209 15.1772 21.6098 13.6206 20.4641 12.4907ZM15.9999 21.5298C18.6153 21.5298 20.7407 19.4518 20.7407 16.8918C20.7407 15.6592 20.2508 14.4977 19.358 13.6207L15.9999 10.3179L12.6419 13.6207C11.7491 14.4977 11.2592 15.6592 11.2592 16.8918C11.2592 19.4518 13.3846 21.5298 15.9999 21.5298Z" fill="#0D070B"/>
</g>
<defs>
<clipPath id="clip0_2552_30971">
<rect width="18.963" height="18.963" fill="white" transform="translate(6.51855 6.51758)"/>
</clipPath>
</defs>
</svg>
