<svg width="32" height="32" viewBox="0 0 32 32" fill="none" xmlns="http://www.w3.org/2000/svg">
<circle cx="16" cy="16" r="16" fill="#F2F2F3"/>
<path fill-rule="evenodd" clip-rule="evenodd" d="M11.6545 10.4689H20.3458C21.655 10.4689 22.7162 11.5302 22.7162 12.8393V16.1531L19.2971 13.0448C19.1415 12.9033 18.936 12.8298 18.726 12.8403C18.5161 12.8508 18.3189 12.9446 18.1783 13.1008L14.894 16.7501L13.0319 14.6811C12.8821 14.5146 12.6686 14.4195 12.4446 14.4195C12.2206 14.4195 12.0072 14.5146 11.8573 14.6811L9.2841 17.5402V12.8393C9.2841 11.5302 10.3454 10.4689 11.6545 10.4689ZM9.36829 19.7886C9.64366 20.7928 10.5629 21.5306 11.6545 21.5306H20.3458C21.655 21.5306 22.7162 20.4694 22.7162 19.1603V18.2645C22.6682 18.2367 22.6225 18.2035 22.5798 18.1647L18.8217 14.7482L15.957 17.9312L16.5875 18.6317C16.8794 18.9561 16.8531 19.4557 16.5287 19.7476C16.2044 20.0395 15.7048 20.0132 15.4129 19.6888L12.4446 16.3908L9.47634 19.6888C9.44287 19.726 9.40665 19.7593 9.36829 19.7886ZM7.70386 12.8393C7.70386 10.6574 9.47261 8.88867 11.6545 8.88867H20.3458C22.5277 8.88867 24.2965 10.6574 24.2965 12.8393V19.1603C24.2965 21.3421 22.5277 23.1109 20.3458 23.1109H11.6545C9.47261 23.1109 7.70386 21.3421 7.70386 19.1603V12.8393Z" fill="#0D070B"/>
</svg>
