<svg width="32" height="32" viewBox="0 0 32 32" fill="none" xmlns="http://www.w3.org/2000/svg">
<circle cx="16" cy="16" r="16" fill="#F2F2F3"/>
<path fill-rule="evenodd" clip-rule="evenodd" d="M13.2621 9.77499C13.0157 9.71004 12.7432 9.67766 12.5052 9.67891L12.501 9.67893C11.8827 9.67893 11.2696 9.89128 10.7763 10.2801L10.7724 10.2832C10.0694 10.8301 9.67448 11.6433 9.67892 12.518L9.67894 12.5227C9.67656 15.1412 10.6934 17.5991 12.545 19.4507C14.3967 21.3024 16.8558 22.3209 19.4772 22.3209C20.3338 22.3209 21.1375 21.94 21.6894 21.2636C22.0913 20.7557 22.3156 20.1205 22.3209 19.4745C22.3206 19.226 22.2883 18.9788 22.2249 18.739C22.1901 18.6072 22.0494 18.441 21.9294 18.3858L19.155 17.1657C19.1262 17.1529 19.0542 17.1314 18.9632 17.1278C18.8736 17.1243 18.813 17.14 18.784 17.1536C18.1646 17.4452 17.6634 17.9598 17.3842 18.5848C17.292 18.7913 17.1157 18.9484 16.8999 19.0163C16.6842 19.0842 16.4497 19.0563 16.2559 18.9399C15.7504 18.6362 15.1203 18.1459 14.5524 17.6245C13.9925 17.1104 13.4276 16.5066 13.1005 15.9626C12.9838 15.7685 12.956 15.5337 13.0241 15.3177C13.0923 15.1017 13.2498 14.9254 13.4568 14.8334C14.085 14.5542 14.5981 14.0529 14.8858 13.4348C14.8992 13.4061 14.9153 13.3445 14.9117 13.254C14.9081 13.1626 14.8866 13.0902 14.8736 13.0612L14.8671 13.0461L13.6114 10.0662C13.5554 9.94794 13.392 9.80934 13.2621 9.77499ZM12.4989 8.09868C12.8706 8.09691 13.281 8.14569 13.6652 8.24702C14.2561 8.40297 14.8062 8.86766 15.0561 9.42576L15.0631 9.44186L16.3207 12.4262C16.5026 12.8405 16.5937 13.5116 16.3182 14.1022M12.4989 8.09868C11.5247 8.09915 10.5692 8.43195 9.80007 9.03747C8.71561 9.88212 8.09249 11.1556 8.09868 12.5236C8.09652 15.5608 9.27986 18.4203 11.4276 20.5681C13.5758 22.7163 16.437 23.9011 19.4772 23.9011C20.8151 23.9011 22.0689 23.3014 22.9183 22.2571L22.9242 22.2498C23.5472 21.4651 23.8939 20.4855 23.9011 19.4828L23.9011 19.4772C23.9011 19.0913 23.8511 18.7073 23.7525 18.3346C23.5967 17.7447 23.1339 17.195 22.5761 16.9439L19.7995 15.7229L19.7971 15.7218C19.3839 15.538 18.7077 15.4435 18.1118 15.7234C17.4334 16.0427 16.8496 16.5307 16.4128 17.1281C16.1585 16.9322 15.8863 16.7039 15.6212 16.4605C15.3696 16.2295 15.1395 15.9987 14.9451 15.7827C15.5303 15.3477 16.0067 14.7712 16.3182 14.1022" fill="#0D070B"/>
</svg>
