<svg width="32" height="32" viewBox="0 0 32 32" fill="none" xmlns="http://www.w3.org/2000/svg">
<circle cx="16" cy="16" r="16" fill="#F2F2F3"/>
<path d="M20.7405 8.09876H13.6294C12.7603 8.09876 12.0492 8.80987 12.0492 9.67901V19.1605C12.0492 20.0296 12.7603 20.7407 13.6294 20.7407H20.7405C21.6097 20.7407 22.3208 20.0296 22.3208 19.1605V9.67901C22.3208 8.80987 21.6097 8.09876 20.7405 8.09876ZM20.7405 19.1605H13.6294V9.67901H20.7405V19.1605ZM8.88867 18.3704V16.7901H10.4689V18.3704H8.88867ZM8.88867 14.0247H10.4689V15.6049H8.88867V14.0247ZM14.4195 22.321H15.9998V23.9012H14.4195V22.321ZM8.88867 21.1358V19.5556H10.4689V21.1358H8.88867ZM10.4689 23.9012C9.59978 23.9012 8.88867 23.1901 8.88867 22.321H10.4689V23.9012ZM13.2344 23.9012H11.6541V22.321H13.2344V23.9012ZM17.185 23.9012V22.321H18.7652C18.7652 23.1901 18.0541 23.9012 17.185 23.9012ZM10.4689 11.2593V12.8395H8.88867C8.88867 11.9704 9.59978 11.2593 10.4689 11.2593Z" fill="#0D070B"/>
</svg>
