<svg width="49" height="48" viewBox="0 0 49 48" fill="none" xmlns="http://www.w3.org/2000/svg">
<circle cx="24.5" cy="24" r="24" fill="#F2F2F3"/>
<path d="M31.6113 12.1481H20.9446C19.6409 12.1481 18.5742 13.2148 18.5742 14.5185V28.7407C18.5742 30.0444 19.6409 31.1111 20.9446 31.1111H31.6113C32.915 31.1111 33.9816 30.0444 33.9816 28.7407V14.5185C33.9816 13.2148 32.915 12.1481 31.6113 12.1481ZM31.6113 28.7407H20.9446V14.5185H31.6113V28.7407ZM13.8335 27.5555V25.1852H16.2039V27.5555H13.8335ZM13.8335 21.037H16.2039V23.4074H13.8335V21.037ZM22.1298 33.4815H24.5002V35.8518H22.1298V33.4815ZM13.8335 31.7037V29.3333H16.2039V31.7037H13.8335ZM16.2039 35.8518C14.9002 35.8518 13.8335 34.7852 13.8335 33.4815H16.2039V35.8518ZM20.352 35.8518H17.9816V33.4815H20.352V35.8518ZM26.2779 35.8518V33.4815H28.6483C28.6483 34.7852 27.5816 35.8518 26.2779 35.8518ZM16.2039 16.8889V19.2592H13.8335C13.8335 17.9555 14.9002 16.8889 16.2039 16.8889Z" fill="#84848A"/>
</svg>
