<svg width="40" height="40" viewBox="0 0 40 40" fill="none" xmlns="http://www.w3.org/2000/svg">
<circle cx="20" cy="20" r="20" fill="#0274D7"/>
<path fill-rule="evenodd" clip-rule="evenodd" d="M24.7725 17.1908L16.051 25.9123L14.0261 25.842L13.9558 23.8172L22.6773 15.0957L24.7725 17.1908ZM27.566 17.1908L27.9883 16.7685C29.1381 15.6186 28.9759 13.5921 27.626 12.2422C26.276 10.8922 24.2495 10.73 23.0996 11.8799L12.0977 22.8819L12.2617 27.6065L16.9863 27.7705L26.1692 18.5876L26.1693 18.5877L27.5661 17.1909L27.566 17.1908ZM26.1692 15.7941L24.0741 13.6989L24.4964 13.2766C24.9892 12.7838 25.8577 12.8533 26.4363 13.4319C27.0148 14.0104 27.0843 14.8789 26.5915 15.3717L26.1692 15.7941Z" fill="white"/>
</svg>
