<svg width="49" height="48" viewBox="0 0 49 48" fill="none" xmlns="http://www.w3.org/2000/svg">
<circle cx="24.5" cy="24" r="24" fill="#F2F2F3"/>
<path fill-rule="evenodd" clip-rule="evenodd" d="M30.2283 20.6264L19.7625 31.0922L17.3327 31.0078L17.2484 28.578L27.7142 18.1122L30.2283 20.6264ZM33.5805 20.6264L34.0873 20.1196C35.4671 18.7398 35.2725 16.308 33.6525 14.688C32.0326 13.0681 29.6008 12.8734 28.2209 14.2533L15.0186 27.4557L15.2154 33.1252L20.8849 33.322L31.9044 22.3025L31.9046 22.3026L33.5807 20.6265L33.5805 20.6264ZM31.9044 18.9503L29.3903 16.4361L29.897 15.9294C30.4884 15.338 31.5306 15.4214 32.2249 16.1157C32.9191 16.81 33.0026 17.8522 32.4112 18.4435L31.9044 18.9503Z" fill="#84848A"/>
</svg>
