<svg width="18" height="17" viewBox="0 0 18 17" fill="none" xmlns="http://www.w3.org/2000/svg">
<path fill-rule="evenodd" clip-rule="evenodd" d="M13.3332 6.28729L4.50273 15.1178L2.45259 15.0466L2.38141 12.9965L11.2119 4.16597L13.3332 6.28729ZM16.1617 6.28729L16.5893 5.8597C17.7535 4.69546 17.5893 2.64363 16.2224 1.27679C14.8556 -0.0900449 12.8038 -0.254287 11.6395 0.909949L0.5 12.0495L0.666075 16.8331L5.44975 16.9992L14.7475 7.7015L14.7476 7.70161L16.1618 6.28739L16.1617 6.28729ZM14.7475 4.87307L12.6261 2.75175L13.0537 2.32416C13.5527 1.82521 14.432 1.89559 15.0178 2.48138C15.6036 3.06717 15.674 3.94653 15.175 4.44548L14.7475 4.87307Z" fill="#0D070B"/>
</svg>
