<svg width="24" height="24" viewBox="0 0 24 24" fill="none" xmlns="http://www.w3.org/2000/svg">
<path fill-rule="evenodd" clip-rule="evenodd" d="M6.5 5.5H17.5C18.1604 5.5 18.7709 5.71337 19.2664 6.07494L12.5999 11.3C12.2443 11.5667 11.7555 11.5667 11.3999 11.3L4.73344 6.07502C5.22898 5.71341 5.83957 5.5 6.5 5.5ZM3.6004 7.7275C3.5349 7.97398 3.5 8.23291 3.5 8.5V15.5C3.5 17.1569 4.84315 18.5 6.5 18.5H17.5C19.1569 18.5 20.5 17.1569 20.5 15.5V8.5C20.5 8.23286 20.4651 7.97388 20.3996 7.72736L13.7999 12.9C12.7332 13.7 11.2666 13.7 10.1999 12.9L3.6004 7.7275ZM1.5 8.5C1.5 5.73858 3.73858 3.5 6.5 3.5H17.5C20.2614 3.5 22.5 5.73858 22.5 8.5V15.5C22.5 18.2614 20.2614 20.5 17.5 20.5H6.5C3.73858 20.5 1.5 18.2614 1.5 15.5V8.5Z" fill="#A3A3AD"/>
</svg>
