<svg width="32" height="32" viewBox="0 0 32 32" fill="none" xmlns="http://www.w3.org/2000/svg">
<circle cx="16" cy="16" r="16" fill="#F2F2F3"/>
<path d="M17.5799 9.67901V13.6296C17.5799 14.5146 17.8722 15.3363 18.37 16H13.6292C14.1428 15.3205 14.4194 14.4988 14.4194 13.6296V9.67901H17.5799ZM19.9502 8.09876H12.049C11.6144 8.09876 11.2589 8.45432 11.2589 8.88889C11.2589 9.32345 11.6144 9.67901 12.049 9.67901H12.8391V13.6296C12.8391 14.9412 11.7804 16 10.4688 16V17.5802H15.1858V23.1111L15.9759 23.9012L16.766 23.1111V17.5802H21.5305V16C20.2189 16 19.1601 14.9412 19.1601 13.6296V9.67901H19.9502C20.3848 9.67901 20.7404 9.32345 20.7404 8.88889C20.7404 8.45432 20.3848 8.09876 19.9502 8.09876Z" fill="#0D070B"/>
</svg>
