<svg width="18" height="20" viewBox="0 0 18 20" fill="none" xmlns="http://www.w3.org/2000/svg">
<path fill-rule="evenodd" clip-rule="evenodd" d="M16 17.5281V2.00244H2V17.5281L3.84921 17.1167C4.27784 17.0213 4.72216 17.0213 5.15079 17.1167L9 17.9731L12.8492 17.1167C13.2778 17.0213 13.7222 17.0213 14.1508 17.1167L16 17.5281ZM2 0C0.895431 0 0 0.896525 0 2.00244V18.7763C0 19.4168 0.592417 19.8926 1.21693 19.7537L4.28307 19.0715C4.42595 19.0397 4.57405 19.0397 4.71693 19.0715L8.78307 19.9762C8.92595 20.0079 9.07405 20.0079 9.21693 19.9762L13.2831 19.0715C13.4259 19.0397 13.5741 19.0397 13.7169 19.0715L16.7831 19.7537C17.4076 19.8926 18 19.4168 18 18.7763V2.00244C18 0.896524 17.1046 0 16 0H2ZM7 6C7 5.44772 7.44772 5 8 5H12C12.5523 5 13 5.44772 13 6C13 6.55228 12.5523 7 12 7H8C7.44772 7 7 6.55228 7 6ZM8 9C7.44772 9 7 9.44771 7 10C7 10.5523 7.44772 11 8 11H10C10.5523 11 11 10.5523 11 10C11 9.44771 10.5523 9 10 9H8ZM4 6C4 5.44772 4.44772 5 5 5C5.55228 5 6 5.44772 6 6C6 6.55228 5.55228 7 5 7C4.44772 7 4 6.55228 4 6ZM5 9C4.44772 9 4 9.44771 4 10C4 10.5523 4.44772 11 5 11C5.55228 11 6 10.5523 6 10C6 9.44771 5.55228 9 5 9Z" fill="#0D070B"/>
</svg>
