<svg width="23" height="23" viewBox="0 0 23 23" fill="none" xmlns="http://www.w3.org/2000/svg">
<path fill-rule="evenodd" clip-rule="evenodd" d="M20.5193 10.1028H12.6426V2.2262C12.6426 1.35662 11.9369 0.650879 11.0673 0.650879C10.1977 0.650879 9.49199 1.35662 9.49199 2.2262V10.1028H1.61537C0.745785 10.1028 0.0400391 10.8086 0.0400391 11.6782C0.0400391 12.5477 0.745785 13.2535 1.61537 13.2535H9.49199V21.1301C9.49199 21.9997 10.1977 22.7054 11.0673 22.7054C11.9369 22.7054 12.6426 21.9997 12.6426 21.1301V13.2535H20.5193C21.3889 13.2535 22.0946 12.5477 22.0946 11.6782C22.0946 10.8086 21.3889 10.1028 20.5193 10.1028Z" fill="#000000" fill-opacity="0.38"/>
</svg>
