<svg width="24" height="25" viewBox="0 0 24 25" fill="none" xmlns="http://www.w3.org/2000/svg">
<path fill-rule="evenodd" clip-rule="evenodd" d="M13.5008 4.12779C13.0329 2.62407 10.9672 2.62407 10.4992 4.12779L9.34836 7.82628C9.26577 8.09171 9.03783 8.2512 8.80243 8.2512H5.0781C4.30202 8.2512 3.76424 8.77832 3.57733 9.37899C3.39083 9.97832 3.53047 10.717 4.14344 11.1821L7.15648 13.4678C7.36049 13.6226 7.45568 13.9086 7.37214 14.1771L6.22126 17.8756C5.99273 18.61 6.28446 19.2971 6.78737 19.6787C7.29349 20.0626 8.0359 20.1496 8.65671 19.6787L11.6697 17.3929C11.8682 17.2423 12.1318 17.2423 12.3303 17.3929L15.3433 19.6787C15.9641 20.1496 16.7066 20.0626 17.2127 19.6787C17.7156 19.2971 18.0073 18.61 17.7788 17.8756L16.6279 14.1771C16.5444 13.9086 16.6396 13.6226 16.8436 13.4678L19.8566 11.1821C20.4696 10.717 20.6092 9.97832 20.4227 9.37899C20.2358 8.77832 19.698 8.2512 18.9219 8.2512H15.1976C14.9622 8.2512 14.7343 8.09171 14.6517 7.82628L13.5008 4.12779Z" fill="#D9D9DD"/>
</svg>
