<svg width="24" height="24" viewBox="0 0 24 24" fill="none" xmlns="http://www.w3.org/2000/svg">
<path fill-rule="evenodd" clip-rule="evenodd" d="M6.99899 7.99996C6.99899 7.86956 7.02395 7.745 7.06935 7.63078C6.89485 6.64612 6.03475 5.89832 5 5.89832C3.83928 5.89832 2.89832 6.83928 2.89832 8C2.89832 9.16073 3.83928 10.1017 5 10.1017C6.03477 10.1017 6.89488 9.35385 7.06936 8.36917C7.02396 8.25494 6.99899 8.13037 6.99899 7.99996ZM5 4C6.86382 4 8.42992 5.27475 8.87397 6.99996H16.999C17.5513 6.99996 17.999 7.44768 17.999 7.99996C17.999 8.55224 17.5513 8.99996 16.999 8.99996H8.87399C8.42996 10.7252 6.86385 12 5 12C2.79086 12 1 10.2091 1 8C1 5.79086 2.79086 4 5 4ZM21.1018 16C21.1018 17.1607 20.1609 18.1016 19.0001 18.1016C17.9634 18.1016 17.102 17.351 16.9298 16.3635C16.9738 16.2508 16.9979 16.1282 16.9979 15.9999C16.9979 15.8717 16.9738 15.7491 16.9298 15.6364C17.102 14.6489 17.9634 13.8983 19.0001 13.8983C20.1609 13.8983 21.1018 14.8392 21.1018 16ZM15.1262 14.9999C15.5702 13.2747 17.1363 12 19.0001 12C21.2093 12 23.0001 13.7908 23.0001 16C23.0001 18.2091 21.2093 20 19.0001 20C17.1363 20 15.5702 18.7252 15.1261 16.9999H6.99793C6.44564 16.9999 5.99793 16.5522 5.99793 15.9999C5.99793 15.4476 6.44564 14.9999 6.99793 14.9999H15.1262Z" fill="white"/>
</svg>
