<svg width="32" height="32" viewBox="0 0 32 32" fill="none" xmlns="http://www.w3.org/2000/svg">
<circle cx="16" cy="16" r="16" fill="#0274D7"/>
<g clip-path="url(#clip0_89_9356)">
<path fill-rule="evenodd" clip-rule="evenodd" d="M19.9111 8.737C18.9854 7.81131 17.4846 7.81131 16.5589 8.737L13.3229 11.9727C13.2148 12.0808 13.0777 12.1552 12.9282 12.1869L11.2681 12.5391C9.73493 12.8643 9.17299 14.7599 10.2812 15.8681L12.6479 18.2348L10.4131 20.4696C10.1045 20.7782 10.1045 21.2784 10.4131 21.587C10.7216 21.8956 11.2219 21.8956 11.5305 21.587L13.7653 19.3522L16.1319 21.7188C17.2401 22.827 19.1357 22.2651 19.4609 20.7319L19.8131 19.0718C19.8448 18.9223 19.9192 18.7852 20.0273 18.6771L23.2633 15.4414C24.189 14.5157 24.189 13.0148 23.2633 12.0891L19.9111 8.737ZM14.324 17.6761L17.2493 20.6014C17.4709 20.823 17.85 20.7106 17.9151 20.404L18.2672 18.7439C18.3624 18.2953 18.5856 17.8839 18.9099 17.5597L22.1459 14.324C22.4544 14.0154 22.4544 13.5151 22.1459 13.2066L18.7937 9.8544C18.4852 9.54584 17.9849 9.54584 17.6763 9.8544L14.4403 13.0901C14.1161 13.4144 13.7047 13.6376 13.2561 13.7328L11.596 14.0849C11.2894 14.15 11.177 14.5291 11.3986 14.7507L14.324 17.6761Z" fill="white"/>
</g>
<defs>
<clipPath id="clip0_89_9356">
<rect width="18.963" height="18.963" fill="white" transform="translate(6.51855 6.51849)"/>
</clipPath>
</defs>
</svg>
