<svg width="49" height="48" viewBox="0 0 49 48" fill="none" xmlns="http://www.w3.org/2000/svg">
<circle cx="24.5" cy="24" r="24" fill="#F2F2F3"/>
<path d="M26.8703 14.5186V20.4445C26.8703 21.7719 27.3088 23.0045 28.0555 24H20.9444C21.7147 22.9808 22.1295 21.7482 22.1295 20.4445V14.5186H26.8703ZM30.4258 12.1482H18.574C17.9221 12.1482 17.3888 12.6815 17.3888 13.3334C17.3888 13.9852 17.9221 14.5186 18.574 14.5186H19.7592V20.4445C19.7592 22.4119 18.171 24 16.2036 24V26.3704H23.2792V34.6667L24.4644 35.8519L25.6495 34.6667V26.3704H32.7962V24C30.8288 24 29.2406 22.4119 29.2406 20.4445V14.5186H30.4258C31.0777 14.5186 31.611 13.9852 31.611 13.3334C31.611 12.6815 31.0777 12.1482 30.4258 12.1482Z" fill="#84848A"/>
</svg>
