<svg width="32" height="32" viewBox="0 0 32 32" fill="none" xmlns="http://www.w3.org/2000/svg">
<circle cx="16" cy="16" r="16" fill="white"/>
<path fill-rule="evenodd" clip-rule="evenodd" d="M13.6302 8.09875C12.3211 8.09875 11.2598 9.16001 11.2598 10.4691L11.2597 15.0453C11.2597 15.1982 11.2153 15.3478 11.132 15.4759L10.2071 16.8988C9.353 18.2129 10.296 19.9506 11.8633 19.9506H15.2103V23.1111C15.2103 23.5475 15.5641 23.9012 16.0005 23.9012C16.4368 23.9012 16.7906 23.5475 16.7906 23.1111V19.9506H20.1374C21.7047 19.9506 22.6477 18.2129 21.7936 16.8988L20.8687 15.4759C20.7854 15.3478 20.7411 15.1982 20.7411 15.0453L20.7412 10.4691C20.7412 9.16001 19.68 8.09875 18.3709 8.09875H13.6302ZM16.0005 18.3704L20.1374 18.3704C20.4508 18.3704 20.6394 18.0228 20.4686 17.76L19.5438 16.3371C19.2938 15.9526 19.1608 15.5039 19.1608 15.0453L19.161 10.4691C19.161 10.0328 18.8072 9.679 18.3709 9.679H13.6302C13.1938 9.679 12.8401 10.0328 12.8401 10.4691L12.8399 15.0453C12.8399 15.5039 12.7069 15.9526 12.457 16.3371L11.5321 17.76C11.3613 18.0228 11.5499 18.3704 11.8633 18.3704L16.0005 18.3704Z" fill="#0D070B"/>
</svg>
