<svg width="49" height="48" viewBox="0 0 49 48" fill="none" xmlns="http://www.w3.org/2000/svg">
<circle cx="24.5" cy="24" r="24" fill="#F2F2F3"/>
<g clip-path="url(#clip0_45_946)">
<path d="M32.7964 20.4444L34.2779 17.1852L37.5371 15.7037L34.2779 14.2222L32.7964 10.963L31.3149 14.2222L28.0557 15.7037L31.3149 17.1852L32.7964 20.4444Z" fill="#84848A"/>
<path d="M32.7964 27.5555L31.3149 30.8148L28.0557 32.2963L31.3149 33.7778L32.7964 37.037L34.2779 33.7778L37.5371 32.2963L34.2779 30.8148L32.7964 27.5555Z" fill="#84848A"/>
<path d="M23.9073 21.037L20.9444 14.5185L17.9814 21.037L11.4629 24L17.9814 26.9629L20.9444 33.4815L23.9073 26.9629L30.4259 24L23.9073 21.037ZM22.1177 25.1733L20.9444 27.757L19.771 25.1733L17.1873 24L19.771 22.8266L20.9444 20.2429L22.1177 22.8266L24.7014 24L22.1177 25.1733Z" fill="#84848A"/>
</g>
<defs>
<clipPath id="clip0_45_946">
<rect width="28.4444" height="28.4444" fill="white" transform="translate(10.2778 9.77777)"/>
</clipPath>
</defs>
</svg>
