<svg width="32" height="32" viewBox="0 0 32 32" fill="none" xmlns="http://www.w3.org/2000/svg">
<circle cx="16" cy="16" r="16" fill="#F2F2F3"/>
<g clip-path="url(#clip0_106_11950)">
<path fill-rule="evenodd" clip-rule="evenodd" d="M20.6673 7.63478C20.8282 7.19992 21.4433 7.19992 21.6042 7.63478L22.2702 9.43464C22.3208 9.57136 22.4286 9.67915 22.5653 9.72975L24.3652 10.3958C24.8 10.5567 24.8 11.1717 24.3652 11.3326L22.5653 11.9986C22.4286 12.0492 22.3208 12.157 22.2702 12.2937L21.6042 14.0936C21.4433 14.5285 20.8282 14.5285 20.6673 14.0936L20.0013 12.2937C19.9507 12.157 19.8429 12.0492 19.7062 11.9986L17.9063 11.3326C17.4715 11.1717 17.4715 10.5567 17.9063 10.3958L19.7062 9.72975C19.8429 9.67915 19.9507 9.57136 20.0013 9.43464L20.6673 7.63478ZM20.6673 18.6965C20.8282 18.2617 21.4433 18.2617 21.6042 18.6965L22.2702 20.4964C22.3208 20.6331 22.4286 20.7409 22.5653 20.7915L24.3652 21.4575C24.8 21.6184 24.8 22.2335 24.3652 22.3944L22.5653 23.0604C22.4286 23.111 22.3208 23.2188 22.2702 23.3555L21.6042 25.1553C21.4433 25.5902 20.8282 25.5902 20.6673 25.1553L20.0013 23.3555C19.9507 23.2188 19.8429 23.111 19.7062 23.0604L17.9063 22.3944C17.4715 22.2335 17.4715 21.6184 17.9063 21.4575L19.7062 20.7915C19.8429 20.7409 19.9507 20.6331 20.0013 20.4964L20.6673 18.6965ZM12.8258 13.7708L13.2345 12.6662L13.6432 13.7708C13.8876 14.4312 14.4083 14.9519 15.0687 15.1962L16.1732 15.6049L15.0687 16.0136C14.4083 16.258 13.8876 16.7787 13.6432 17.4391L13.2345 18.5436L12.8258 17.4391C12.5814 16.7787 12.0607 16.258 11.4003 16.0136L10.2958 15.6049L11.4003 15.1962C12.0607 14.9519 12.5814 14.4312 12.8258 13.7708ZM12.4538 10.2226C12.722 9.49782 13.7471 9.49782 14.0153 10.2226L15.1253 13.2223C15.2096 13.4502 15.3892 13.6299 15.6171 13.7142L18.6169 14.8242C19.3416 15.0924 19.3416 16.1175 18.6169 16.3857L15.6171 17.4957C15.3892 17.58 15.2096 17.7597 15.1253 17.9875L14.0153 20.9873C13.7471 21.7121 12.722 21.7121 12.4538 20.9873L11.3438 17.9875C11.2595 17.7597 11.0798 17.58 10.8519 17.4957L7.85217 16.3857C7.1274 16.1175 7.1274 15.0924 7.85217 14.8242L10.8519 13.7142C11.0798 13.6299 11.2595 13.4502 11.3438 13.2223L12.4538 10.2226Z" fill="#0D070B"/>
</g>
<defs>
<clipPath id="clip0_106_11950">
<rect width="18.963" height="18.963" fill="white" transform="translate(6.51855 6.51852)"/>
</clipPath>
</defs>
</svg>
