<svg width="18" height="22" viewBox="0 0 18 22" fill="none" xmlns="http://www.w3.org/2000/svg">
<path fill-rule="evenodd" clip-rule="evenodd" d="M2 16.5L2 5.5C2 3.84315 3.34315 2.5 5 2.5L13 2.5C14.6569 2.5 16 3.84314 16 5.5L16 16.5C16 18.1569 14.6569 19.5 13 19.5L5 19.5C3.34315 19.5 2 18.1569 2 16.5ZM5 21.5C2.23858 21.5 -9.78513e-08 19.2614 -2.18557e-07 16.5L-6.99382e-07 5.5C-8.20088e-07 2.73858 2.23858 0.5 5 0.5L13 0.499999C15.7614 0.499999 18 2.73858 18 5.5L18 16.5C18 19.2614 15.7614 21.5 13 21.5L5 21.5ZM6 6C5.44772 6 5 6.44771 5 7C5 7.55228 5.44772 8 6 8L12 8C12.5523 8 13 7.55228 13 7C13 6.44772 12.5523 6 12 6L6 6ZM5 15C5 14.4477 5.44772 14 6 14L12 14C12.5523 14 13 14.4477 13 15C13 15.5523 12.5523 16 12 16L6 16C5.44772 16 5 15.5523 5 15ZM6 10C5.44772 10 5 10.4477 5 11C5 11.5523 5.44772 12 6 12L9 12C9.55228 12 10 11.5523 10 11C10 10.4477 9.55229 10 9 10L6 10Z" fill="#0D070B"/>
</svg>
