<svg width="24" height="25" viewBox="0 0 24 25" fill="none" xmlns="http://www.w3.org/2000/svg">
<path fill-rule="evenodd" clip-rule="evenodd" d="M11 17.5C7.691 17.5 5 14.809 5 11.5C5 8.191 7.691 5.5 11 5.5C14.309 5.5 17 8.191 17 11.5C17 14.809 14.309 17.5 11 17.5ZM20.707 18.793L17.729 15.815C18.53 14.569 19 13.091 19 11.5C19 7.082 15.418 3.5 11 3.5C6.582 3.5 3 7.082 3 11.5C3 15.918 6.582 19.5 11 19.5C13.104 19.5 15.012 18.682 16.44 17.354L19.293 20.207C19.488 20.402 19.744 20.5 20 20.5C20.256 20.5 20.512 20.402 20.707 20.207C21.098 19.816 21.098 19.184 20.707 18.793Z" fill="#0D070B"/>
</svg>
