<svg width="54" height="55" viewBox="0 0 54 55" fill="none" xmlns="http://www.w3.org/2000/svg">
<circle cx="27" cy="27.5" r="27" fill="#F2F2F3"/>
<path d="M40.3333 36.8333H32.3333V31.5H28.76C27.24 34.7266 23.96 36.8333 20.3333 36.8333C15.1867 36.8333 11 32.6466 11 27.5C11 22.3533 15.1867 18.1666 20.3333 18.1666C23.96 18.1666 27.2267 20.2733 28.76 23.5H43V31.5H40.3333V36.8333ZM35 34.1666H37.6667V28.8333H40.3333V26.1666H26.92L26.6133 25.2733C25.68 22.62 23.1467 20.8333 20.3333 20.8333C16.6533 20.8333 13.6667 23.82 13.6667 27.5C13.6667 31.18 16.6533 34.1666 20.3333 34.1666C23.1467 34.1666 25.68 32.38 26.6133 29.7266L26.92 28.8333H35V34.1666ZM20.3333 31.5C18.1333 31.5 16.3333 29.7 16.3333 27.5C16.3333 25.3 18.1333 23.5 20.3333 23.5C22.5333 23.5 24.3333 25.3 24.3333 27.5C24.3333 29.7 22.5333 31.5 20.3333 31.5ZM20.3333 26.1666C19.6 26.1666 19 26.7666 19 27.5C19 28.2333 19.6 28.8333 20.3333 28.8333C21.0667 28.8333 21.6667 28.2333 21.6667 27.5C21.6667 26.7666 21.0667 26.1666 20.3333 26.1666Z" fill="#84848A"/>
</svg>
