<svg width="54" height="55" viewBox="0 0 54 55" fill="none" xmlns="http://www.w3.org/2000/svg">
<circle cx="27" cy="27.5" r="27" fill="#F8F2DA"/>
<path fill-rule="evenodd" clip-rule="evenodd" d="M27.7157 15.5744C26.9279 14.9217 25.8739 14.8167 24.9932 15.3032L22.2937 16.7941L19.7773 15.8676C18.7316 15.4826 17.5798 15.8678 16.9031 16.8289L13.5476 21.5943C12.8093 22.6429 12.8184 24.114 13.5697 25.1513L15.38 27.6509L14.6506 28.4567C13.2456 30.0087 13.2456 32.5249 14.6506 34.0769C15.4639 34.9754 16.5698 35.3537 17.6296 35.2119C17.7905 35.8477 18.0974 36.4479 18.5501 36.948C19.3634 37.8464 20.4692 38.2247 21.5288 38.0831C21.6898 38.7192 21.9967 39.3198 22.4496 39.8201C23.2625 40.718 24.3676 41.0964 25.4268 40.9553L26.1357 41.7384C27.6586 43.4206 30.1277 43.4206 31.6506 41.7384L33.7661 39.4017C34.3413 39.2238 34.8844 38.8849 35.3369 38.3851C35.9503 37.7075 36.2959 36.8461 36.3737 35.9614C37.1703 35.8796 37.9466 35.5018 38.5566 34.8281C39.7186 33.5445 39.9044 31.6009 39.1324 30.1061L42.5924 24.1095C43.0835 23.2583 43.134 22.1847 42.7253 21.2818L41.1135 17.7209C40.4142 16.176 38.6472 15.6576 37.3461 16.6158L35.2257 18.1773L31.3163 16.5579C30.5925 16.2581 29.7916 16.3316 29.128 16.7444L27.7157 15.5744ZM26.9431 18.5239L26.1558 17.8717L23.4563 19.3627C22.8396 19.7033 22.1257 19.7593 21.4716 19.5185L18.9552 18.592L15.5998 23.3574L17.2335 25.6131C18.7487 24.1218 21.1054 24.3079 22.4083 26.067C22.7318 26.5037 22.9579 26.9956 23.0882 27.5093C24.2644 27.3525 25.4925 27.8373 26.3078 28.9381C26.6315 29.375 26.8577 29.8673 26.988 30.3813C28.1641 30.2246 29.392 30.7094 30.2073 31.8101C31.011 32.8951 31.2138 34.3207 30.839 35.575C31.173 35.5739 31.5073 35.714 31.7622 35.9955L32.0871 36.3545C32.4769 36.785 33.1088 36.785 33.4985 36.3545C33.8883 35.924 33.8883 35.226 33.4985 34.7955L33.1736 34.4365C32.8711 34.1024 32.7489 33.6446 32.8068 33.2105C32.8461 32.9159 32.9683 32.6321 33.1737 32.4053C33.6813 31.8446 34.5043 31.8446 35.012 32.4053L35.367 32.7975C35.7401 33.2097 36.3451 33.2097 36.7183 32.7975C37.1012 32.3745 37.0896 31.6849 36.6928 31.2778L30.0244 24.438L28.9337 25.1609C27.6116 26.0371 25.904 25.6676 24.9789 24.3052C23.982 22.8369 24.2514 20.7539 25.5806 19.6526L26.9431 18.5239ZM27.974 39.7078L27.8067 39.5229L29.6253 37.5141C29.6884 37.7009 29.7879 37.876 29.9239 38.0261L30.2488 38.3851C30.3781 38.5279 30.5148 38.6576 30.6575 38.7741L29.8123 39.7078C29.3047 40.2685 28.4816 40.2685 27.974 39.7078ZM37.2844 27.9658L40.4 22.5661L38.7882 19.0052L36.6678 20.5667C35.972 21.079 35.0957 21.1905 34.3128 20.8662L30.4035 19.2468L27.1405 21.95C26.9599 22.0996 26.9233 22.3827 27.0587 22.5822C27.1844 22.7673 27.4165 22.8175 27.5961 22.6984L28.6868 21.9755C29.6791 21.3179 30.9454 21.4639 31.7934 22.3336L37.2844 27.9658ZM22.2097 31.3466C22.1959 31.3624 22.1819 31.3781 22.1678 31.3937L20.3665 33.3834C19.9988 33.8155 20.0061 34.4951 20.3884 34.9174C20.7782 35.3479 21.4101 35.3479 21.7998 34.9174L24.229 32.2341C24.5916 31.8337 24.6204 31.1949 24.2957 30.7565C23.9218 30.2518 23.2351 30.2139 22.8176 30.6751L22.2097 31.3466ZM18.508 31.375C18.5219 31.3592 18.5359 31.3434 18.5501 31.3278L20.3514 29.3381C20.6931 28.9364 20.7142 28.3148 20.3962 27.8854C20.0223 27.3807 19.3356 27.3428 18.9181 27.804L16.4889 30.4873C16.0992 30.9178 16.0992 31.6158 16.4889 32.0463C16.8787 32.4768 17.5106 32.4768 17.9003 32.0463L18.508 31.375ZM28.1285 35.1062C28.4911 34.7057 28.5199 34.0669 28.1952 33.6286C27.8213 33.1238 27.1346 33.086 26.7171 33.5472L24.2879 36.2305C23.8982 36.661 23.8982 37.359 24.2879 37.7895C24.6777 38.22 25.3096 38.22 25.6993 37.7895L28.1285 35.1062Z" fill="black"/>
</svg>
