<svg width="54" height="55" viewBox="0 0 54 55" fill="none" xmlns="http://www.w3.org/2000/svg">
<circle cx="27" cy="27.5" r="27" fill="#DBE8F4"/>
<g clip-path="url(#clip0_7_9745)">
<path fill-rule="evenodd" clip-rule="evenodd" d="M17.0012 15.1306C15.9456 15.3418 15.1204 16.1669 14.9093 17.2225L13.4779 24.3796C13.2156 25.691 13.6261 27.0468 14.5718 27.9925L25.8192 39.2398C27.902 41.3226 31.2788 41.3226 33.3616 39.2398L39.0185 33.583C41.1013 31.5002 41.1013 28.1233 39.0185 26.0405L27.7711 14.7931C26.8254 13.8474 25.4697 13.437 24.1582 13.6992L17.0012 15.1306ZM16.0928 24.9025L17.5242 17.7455L24.6812 16.3141C25.1183 16.2267 25.5703 16.3635 25.8855 16.6788L37.1329 27.9261C38.1743 28.9675 38.1743 30.656 37.1329 31.6974L31.476 37.3542C30.4346 38.3956 28.7462 38.3956 27.7048 37.3542L16.4574 26.1068C16.1422 25.7916 16.0053 25.3397 16.0928 24.9025ZM22.0727 23.3721C23.1397 23.0863 23.7728 21.9896 23.4869 20.9227C23.2011 19.8557 22.1044 19.2226 21.0375 19.5084C19.9705 19.7943 19.3374 20.891 19.6232 21.9579C19.9091 23.0249 21.0058 23.658 22.0727 23.3721Z" fill="#0D070B"/>
</g>
<defs>
<clipPath id="clip0_7_9745">
<rect width="32" height="32" fill="white" transform="translate(11 11.5)"/>
</clipPath>
</defs>
</svg>
