<svg width="386" height="383" viewBox="0 0 386 383" fill="#FFF" xmlns="http://www.w3.org/2000/svg">
<path d="M199.532 5.57786C196.892 0.112735 189.108 0.112759 186.467 5.57786L162.497 55.1916C161.217 57.8416 157.842 58.6735 155.476 56.922L111.195 24.1308C106.317 20.5188 99.4248 24.1362 99.6266 30.2024L101.458 85.2728C101.556 88.2142 98.9545 90.5193 96.0462 90.0676L41.5982 81.611C35.6006 80.6795 31.1787 87.0857 34.1765 92.3632L61.3911 140.274C62.8447 142.833 61.6121 146.083 58.827 147.035L6.68575 164.85C0.942214 166.813 0.00395012 174.54 5.11095 177.82L51.4736 207.596C53.95 209.186 54.369 212.637 52.3452 214.774L14.4556 254.78C10.2819 259.187 13.0422 266.465 19.0884 266.996L73.9781 271.815C76.9099 272.073 78.8845 274.933 78.0856 277.766L63.1277 330.798C61.48 336.639 67.3065 341.801 72.9069 339.461L123.749 318.22C126.465 317.086 129.543 318.701 130.151 321.58L141.552 375.489C142.808 381.427 150.366 383.29 154.237 378.616L189.384 336.18C191.262 333.913 194.738 333.913 196.615 336.18L231.762 378.616C235.634 383.29 243.192 381.427 244.448 375.489L255.848 321.58C256.457 318.701 259.535 317.086 262.251 318.22L313.093 339.461C318.693 341.801 324.519 336.639 322.872 330.798L307.914 277.766C307.115 274.933 309.09 272.073 312.021 271.815L366.911 266.996C372.957 266.465 375.718 259.187 371.544 254.78L333.654 214.774C331.631 212.637 332.049 209.186 334.526 207.596L380.889 177.82C385.996 174.54 385.057 166.813 379.314 164.85L327.172 147.035C324.387 146.083 323.155 142.833 324.608 140.274L351.823 92.3632C354.821 87.0857 350.399 80.6795 344.401 81.611L289.953 90.0676C287.045 90.5193 284.443 88.2142 284.541 85.2728L286.373 30.2024C286.575 24.1362 279.682 20.5188 274.805 24.1308L230.523 56.922C228.158 58.6735 224.783 57.8416 223.503 55.1916L199.532 5.57786Z" stroke="#FBFBFB" stroke-width="2.56056"/>
</svg>
