<svg width="24" height="24" viewBox="0 0 24 24" fill="none" xmlns="http://www.w3.org/2000/svg">
<path fill-rule="evenodd" clip-rule="evenodd" d="M21.1621 4.2632C21.3435 4.45718 21.4403 4.71536 21.4311 4.98081L21.2424 10.4489C21.2233 11.0009 20.7604 11.4329 20.2085 11.4138C19.6565 11.3948 19.2245 10.9319 19.2436 10.3799L19.3583 7.05573L13.1717 13.2424C12.7811 13.6329 12.148 13.6329 11.7574 13.2424C11.3669 12.8519 11.3669 12.2187 11.7574 11.8282L17.7262 5.85946L14.5539 5.75703C14.0019 5.7392 13.5688 5.27727 13.5866 4.72527C13.6045 4.17328 14.0664 3.74024 14.6184 3.75807L20.464 3.94683C20.7295 3.9554 20.9806 4.06923 21.1621 4.2632ZM7.5 5.50004H12V7.50004H7.5C5.84315 7.50004 4.5 8.84318 4.5 10.5V17.5C4.5 19.1569 5.84315 20.5 7.5 20.5H14.5C16.1569 20.5 17.5 19.1569 17.5 17.5V13H19.5V17.5C19.5 20.2615 17.2614 22.5 14.5 22.5H7.5C4.73858 22.5 2.5 20.2615 2.5 17.5V10.5C2.5 7.73861 4.73858 5.50004 7.5 5.50004Z" fill="#0274D7"/>
</svg>
