<svg width="32" height="32" viewBox="0 0 32 32" fill="none" xmlns="http://www.w3.org/2000/svg">
<circle cx="16" cy="16" r="16" fill="#F1F1F3"/>
<path fill-rule="evenodd" clip-rule="evenodd" d="M14.7823 7.73019C15.3884 7.16812 16.3253 7.16812 16.9314 7.73019L17.6878 8.43169C18.0281 8.74723 18.4899 8.89726 18.9506 8.84199L19.9749 8.71909C20.7956 8.62063 21.5536 9.1713 21.7135 9.98227L21.9132 10.9944C22.003 11.4497 22.2884 11.8425 22.6936 12.0686L23.5945 12.5713C24.3164 12.974 24.6059 13.865 24.2586 14.6151L23.8252 15.5513C23.6303 15.9725 23.6303 16.458 23.8252 16.8791L24.2586 17.8153C24.6059 18.5654 24.3164 19.4564 23.5945 19.8592L22.6936 20.3618C22.2884 20.5879 22.003 20.9807 21.9132 21.436L21.7135 22.4481C21.5536 23.2591 20.7956 23.8098 19.9749 23.7113L18.9506 23.5884C18.4899 23.5332 18.0281 23.6832 17.6878 23.9987L16.9314 24.7002C16.3253 25.2623 15.3884 25.2623 14.7823 24.7002L14.0259 23.9987C13.6856 23.6832 13.2239 23.5332 12.7631 23.5884L11.7388 23.7113C10.9181 23.8098 10.1601 23.2591 10.0002 22.4482L9.80052 21.436C9.71071 20.9807 9.42533 20.5879 9.02009 20.3618L8.11916 19.8592C7.39731 19.4564 7.10781 18.5654 7.45507 17.8153L7.88848 16.8791C8.08343 16.458 8.08343 15.9725 7.88848 15.5513L7.45507 14.6151C7.10781 13.865 7.39731 12.974 8.11916 12.5713L9.02009 12.0686C9.42533 11.8425 9.71071 11.4497 9.80052 10.9944L10.0002 9.98227C10.1601 9.1713 10.9181 8.62063 11.7388 8.71909L12.7631 8.84199C13.2239 8.89726 13.6856 8.74723 14.0259 8.43169L14.7823 7.73019ZM12.5098 12.5187C12.2028 12.8315 12.0493 13.2644 12.0493 13.8173C12.0493 14.3776 12.2028 14.8141 12.5098 15.1269C12.8238 15.4398 13.2249 15.5962 13.7133 15.5962C14.2017 15.5962 14.5994 15.4398 14.9063 15.1269C15.2203 14.8141 15.3773 14.3776 15.3773 13.8173C15.3773 13.2644 15.2203 12.8315 14.9063 12.5187C14.5994 12.2058 14.2017 12.0494 13.7133 12.0494C13.2249 12.0494 12.8238 12.2058 12.5098 12.5187ZM14.6552 19.8197L18.768 12.1803H17.3343L13.2319 19.8197H14.6552ZM13.1273 13.8173C13.1273 13.2498 13.3191 12.9661 13.7028 12.9661C14.1005 12.9661 14.2994 13.2498 14.2994 13.8173C14.2994 14.1084 14.247 14.3266 14.1424 14.4721C14.0377 14.6104 13.8912 14.6795 13.7028 14.6795C13.3191 14.6795 13.1273 14.3921 13.1273 13.8173ZM17.104 16.8731C16.7971 17.1786 16.6436 17.6115 16.6436 18.1717C16.6436 18.732 16.7971 19.1685 17.104 19.4813C17.411 19.7942 17.8122 19.9506 18.3075 19.9506C18.7959 19.9506 19.1901 19.7942 19.4901 19.4813C19.7971 19.1685 19.9506 18.732 19.9506 18.1717C19.9506 17.6115 19.7971 17.1786 19.4901 16.8731C19.1901 16.5602 18.7959 16.4038 18.3075 16.4038C17.8192 16.4038 17.418 16.5602 17.104 16.8731ZM17.7005 18.1717C17.7005 17.6043 17.8994 17.3205 18.2971 17.3205C18.6878 17.3205 18.8831 17.6043 18.8831 18.1717C18.8831 18.7465 18.6878 19.0339 18.2971 19.0339C17.8994 19.0339 17.7005 18.7465 17.7005 18.1717Z" fill="#0D070B"/>
</svg>
