<svg width="49" height="48" viewBox="0 0 49 48" fill="none" xmlns="http://www.w3.org/2000/svg">
<circle cx="24.5" cy="24" r="24" fill="#F2F2F3"/>
<path fill-rule="evenodd" clip-rule="evenodd" d="M22.6735 11.5953C23.5826 10.7522 24.9879 10.7522 25.8971 11.5953L27.0318 12.6475C27.5421 13.1208 28.2348 13.3459 28.9259 13.263L30.4624 13.0786C31.6934 12.9309 32.8303 13.7569 33.0703 14.9734L33.3698 16.4916C33.5045 17.1746 33.9326 17.7637 34.5404 18.1029L35.8918 18.8569C36.9746 19.461 37.4088 20.7975 36.888 21.9227L36.2378 23.327C35.9454 23.9587 35.9454 24.6869 36.2378 25.3186L36.888 26.7229C37.4088 27.8481 36.9746 29.1846 35.8918 29.7887L34.5404 30.5427C33.9326 30.8819 33.5045 31.4711 33.3698 32.154L33.0703 33.6722C32.8303 34.8887 31.6934 35.7147 30.4624 35.567L28.9259 35.3826C28.2348 35.2997 27.5421 35.5248 27.0318 35.9981L25.8971 37.0503C24.9879 37.8934 23.5826 37.8934 22.6735 37.0503L21.5388 35.9981C21.0284 35.5248 20.3358 35.2997 19.6447 35.3826L18.1082 35.567C16.8771 35.7147 15.7402 34.8887 15.5003 33.6722L15.2008 32.154C15.0661 31.4711 14.638 30.8819 14.0301 30.5427L12.6787 29.7887C11.596 29.1846 11.1617 27.8481 11.6826 26.7229L12.3327 25.3186C12.6251 24.6869 12.6251 23.9587 12.3327 23.327L11.6826 21.9227C11.1617 20.7975 11.596 19.461 12.6787 18.8569L14.0301 18.1029C14.638 17.7637 15.0661 17.1746 15.2008 16.4916L15.5003 14.9734C15.7402 13.7569 16.8771 12.9309 18.1082 13.0786L19.6447 13.263C20.3358 13.3459 21.0284 13.1208 21.5388 12.6475L22.6735 11.5953ZM19.2647 18.778C18.8042 19.2472 18.574 19.8966 18.574 20.726C18.574 21.5663 18.8042 22.2211 19.2647 22.6904C19.7356 23.1597 20.3374 23.3943 21.07 23.3943C21.8025 23.3943 22.399 23.1597 22.8595 22.6904C23.3304 22.2211 23.5659 21.5663 23.5659 20.726C23.5659 19.8966 23.3304 19.2472 22.8595 18.778C22.399 18.3087 21.8025 18.0741 21.07 18.0741C20.3374 18.0741 19.7356 18.3087 19.2647 18.778ZM22.4828 29.7295L28.652 18.2705H26.5014L20.3479 29.7295H22.4828ZM20.1909 20.726C20.1909 19.8748 20.4787 19.4491 21.0543 19.4491C21.6508 19.4491 21.949 19.8748 21.949 20.726C21.949 21.1625 21.8705 21.4899 21.7136 21.7082C21.5566 21.9155 21.3368 22.0192 21.0543 22.0192C20.4787 22.0192 20.1909 21.5881 20.1909 20.726ZM26.156 25.3096C25.6956 25.7679 25.4653 26.4173 25.4653 27.2576C25.4653 28.0979 25.6956 28.7527 26.156 29.222C26.6165 29.6913 27.2183 29.9259 27.9613 29.9259C28.6939 29.9259 29.2851 29.6913 29.7351 29.222C30.1956 28.7527 30.4259 28.0979 30.4259 27.2576C30.4259 26.4173 30.1956 25.7679 29.7351 25.3096C29.2851 24.8403 28.6939 24.6057 27.9613 24.6057C27.2287 24.6057 26.627 24.8403 26.156 25.3096ZM27.0508 27.2576C27.0508 26.4064 27.3491 25.9808 27.9456 25.9808C28.5316 25.9808 28.8247 26.4064 28.8247 27.2576C28.8247 28.1198 28.5316 28.5508 27.9456 28.5508C27.3491 28.5508 27.0508 28.1198 27.0508 27.2576Z" fill="#84848A"/>
</svg>
