<svg width="42" height="43" viewBox="0 0 42 43" fill="none" xmlns="http://www.w3.org/2000/svg">
<rect y="0.167969" width="42" height="42" rx="15" fill="#F2F2F3"/>
<path d="M35.6654 12.0092C34.5861 12.4916 33.4263 12.8165 32.2089 12.9629C33.4519 12.2135 34.4065 11.026 34.855 9.61095C33.6927 10.305 32.4045 10.8095 31.0331 11.0814C29.9368 9.90382 28.3711 9.16797 26.6405 9.16797C22.755 9.16797 19.8999 12.8177 20.7775 16.6064C15.7774 16.3542 11.3431 13.9424 8.37436 10.2767C6.7977 12.9998 7.5567 16.5621 10.2358 18.3661C9.2507 18.3341 8.32181 18.0621 7.51148 17.6081C7.44548 20.4149 9.44381 23.0408 12.338 23.6253C11.491 23.8566 10.5634 23.9108 9.61981 23.7287C10.3849 26.1356 12.6069 27.8866 15.242 27.9358C12.712 29.9329 9.52448 30.8251 6.33203 30.4461C8.99525 32.1651 12.1596 33.168 15.5574 33.168C26.7309 33.168 33.0437 23.6671 32.6624 15.1458C33.8381 14.2906 34.8587 13.2238 35.6654 12.0092Z" fill="#0D070B"/>
</svg>
