<svg width="27" height="27" viewBox="0 0 27 27" fill="none" xmlns="http://www.w3.org/2000/svg">
<path d="M11.279 1.80028L11.9489 2.52269L11.279 1.80028L10.3216 2.68812C10.1063 2.8878 9.81406 2.98274 9.52249 2.94776L8.22608 2.79223C6.66801 2.6053 5.22913 3.65071 4.92544 5.19029L4.67275 6.47131C4.61592 6.75941 4.43533 7.00798 4.17888 7.15106L3.03864 7.78723C1.66826 8.55182 1.11866 10.2433 1.77791 11.6674L2.32645 12.8523C2.44981 13.1188 2.44981 13.426 2.32645 13.6925L1.77791 14.8774C1.11866 16.3014 1.66826 17.9929 3.03865 18.7575L4.17888 19.3937C4.43533 19.5368 4.61592 19.7853 4.67275 20.0735L4.92544 21.3545C5.22913 22.8941 6.66801 23.9395 8.22608 23.7525L9.52249 23.597C9.81406 23.562 10.1063 23.657 10.3216 23.8566L11.279 24.7445C12.4296 25.8115 14.2082 25.8115 15.3588 24.7445L16.3162 23.8566C16.5315 23.657 16.8237 23.562 17.1153 23.597L18.4117 23.7525C19.9698 23.9395 21.4086 22.894 21.7123 21.3545L21.965 20.0734C22.0219 19.7853 22.2025 19.5368 22.4589 19.3937L23.5991 18.7575C24.9695 17.9929 25.5191 16.3014 24.8599 14.8774L24.3113 13.6925C24.188 13.426 24.188 13.1188 24.3113 12.8523L24.8599 11.6674C25.5191 10.2433 24.9695 8.55182 23.5991 7.78723L22.4589 7.15106C22.2025 7.00798 22.0219 6.75941 21.965 6.47131L21.7123 5.19029C21.4086 3.65071 19.9698 2.6053 18.4117 2.79223L17.1153 2.94776C16.8237 2.98274 16.5315 2.8878 16.3162 2.68812L15.3588 1.80028C14.2082 0.733239 12.4296 0.73324 11.279 1.80028Z" fill="#0274D7" stroke="white" stroke-width="2"/>
<path fill-rule="evenodd" clip-rule="evenodd" d="M20.026 9.97861L12.3189 17.6857L7.61182 12.9786L9.02603 11.5644L12.3189 14.8573L18.6118 8.56439L20.026 9.97861Z" fill="white"/>
</svg>
