<svg width="24" height="25" viewBox="0 0 24 25" fill="none" xmlns="http://www.w3.org/2000/svg">
<path d="M11.99 2.33203C6.47 2.33203 2 6.81203 2 12.332C2 17.852 6.47 22.332 11.99 22.332C17.52 22.332 22 17.852 22 12.332C22 6.81203 17.52 2.33203 11.99 2.33203ZM18.92 8.33203H15.97C15.65 7.08203 15.19 5.88203 14.59 4.77203C16.43 5.40203 17.96 6.68203 18.92 8.33203ZM12 4.37203C12.83 5.57203 13.48 6.90203 13.91 8.33203H10.09C10.52 6.90203 11.17 5.57203 12 4.37203ZM4.26 14.332C4.1 13.692 4 13.022 4 12.332C4 11.642 4.1 10.972 4.26 10.332H7.64C7.56 10.992 7.5 11.652 7.5 12.332C7.5 13.012 7.56 13.672 7.64 14.332H4.26ZM5.08 16.332H8.03C8.35 17.582 8.81 18.782 9.41 19.892C7.57 19.262 6.04 17.992 5.08 16.332ZM8.03 8.33203H5.08C6.04 6.67203 7.57 5.40203 9.41 4.77203C8.81 5.88203 8.35 7.08203 8.03 8.33203ZM12 20.292C11.17 19.092 10.52 17.762 10.09 16.332H13.91C13.48 17.762 12.83 19.092 12 20.292ZM14.34 14.332H9.66C9.57 13.672 9.5 13.012 9.5 12.332C9.5 11.652 9.57 10.982 9.66 10.332H14.34C14.43 10.982 14.5 11.652 14.5 12.332C14.5 13.012 14.43 13.672 14.34 14.332ZM14.59 19.892C15.19 18.782 15.65 17.582 15.97 16.332H18.92C17.96 17.982 16.43 19.262 14.59 19.892ZM16.36 14.332C16.44 13.672 16.5 13.012 16.5 12.332C16.5 11.652 16.44 10.992 16.36 10.332H19.74C19.9 10.972 20 11.642 20 12.332C20 13.022 19.9 13.692 19.74 14.332H16.36Z" fill="#A3A3AD"/>
</svg>
