<svg width="28" height="29" viewBox="0 0 28 29" fill="none" xmlns="http://www.w3.org/2000/svg">
<path fill-rule="evenodd" clip-rule="evenodd" d="M23.8667 4.29655C21.2539 1.68064 17.779 0.239388 14.0771 0.237854C6.44895 0.237854 0.240735 6.4459 0.237666 14.0761C0.236644 16.5153 0.87383 18.8963 2.08496 20.995L0.121582 28.1663L7.45809 26.2418C9.47959 27.3445 11.7554 27.9256 14.0715 27.9263H14.0773C21.7046 27.9263 27.9135 21.7177 27.9164 14.0872C27.9179 10.3892 26.4797 6.91229 23.8667 4.29655ZM14.0771 25.5891H14.0723C12.0084 25.5882 9.98416 25.0336 8.21783 23.9857L7.79799 23.7364L3.44439 24.8784L4.60643 20.6338L4.33284 20.1986C3.18137 18.3671 2.57333 16.2504 2.57436 14.077C2.57674 7.73493 7.73696 2.57523 14.0817 2.57523C17.1541 2.57625 20.0423 3.77425 22.2139 5.94849C24.3856 8.12273 25.5809 11.0127 25.5799 14.0863C25.5771 20.4289 20.4173 25.5891 14.0771 25.5891V25.5891ZM20.3866 16.9741C20.0409 16.8009 18.3407 15.9647 18.0236 15.8491C17.7069 15.7337 17.4761 15.6762 17.2458 16.0223C17.0152 16.3683 16.3526 17.1473 16.1508 17.378C15.949 17.6088 15.7475 17.6377 15.4016 17.4646C15.0557 17.2915 13.9416 16.9262 12.6207 15.7482C11.5928 14.8313 10.8989 13.6989 10.697 13.3528C10.4955 13.0065 10.6953 12.8374 10.8487 12.6471C11.2231 12.1823 11.5979 11.6949 11.7132 11.4643C11.8286 11.2335 11.7708 11.0315 11.6842 10.8585C11.5979 10.6855 10.9064 8.9834 10.6183 8.29081C10.3374 7.6168 10.0525 7.70783 9.84012 7.69726C9.63863 7.6872 9.408 7.68516 9.17736 7.68516C8.9469 7.68516 8.57222 7.77158 8.25516 8.11796C7.93828 8.46417 7.04506 9.30063 7.04506 11.0027C7.04506 12.7047 8.28414 14.349 8.45699 14.5798C8.62984 14.8106 10.8954 18.3034 14.3642 19.8011C15.1892 20.1577 15.8332 20.3702 16.3356 20.5296C17.164 20.7928 17.9176 20.7557 18.5136 20.6667C19.178 20.5673 20.5593 19.8301 20.8477 19.0224C21.1358 18.2146 21.1358 17.5223 21.0492 17.378C20.9629 17.2337 20.7323 17.1473 20.3866 16.9741V16.9741Z" fill="white"/>
</svg>
