<svg width="42" height="43" viewBox="0 0 42 43" fill="none" xmlns="http://www.w3.org/2000/svg">
<rect y="0.667969" width="42" height="42" rx="15" fill="#F2F2F3"/>
<path fill-rule="evenodd" clip-rule="evenodd" d="M31.6119 11.0121C28.8052 8.20215 25.0726 6.65399 21.0961 6.65234C12.9022 6.65234 6.23346 13.3209 6.23016 21.517C6.22906 24.1371 6.91351 26.6947 8.21448 28.9491L6.10547 36.6523L13.9861 34.5851C16.1576 35.7696 18.6022 36.3938 21.0901 36.3945H21.0963C29.2894 36.3945 35.9588 29.7255 35.9619 21.5289C35.9636 17.5566 34.4187 13.8218 31.6119 11.0121ZM21.0961 33.884H21.091C18.874 33.8831 16.6996 33.2872 14.8022 32.1617L14.3513 31.8938L9.67474 33.1206L10.923 28.5611L10.6291 28.0936C9.39221 26.1263 8.73907 23.8525 8.74017 21.5179C8.74274 14.7055 14.2857 9.16309 21.1011 9.16309C24.4014 9.16419 27.5037 10.4511 29.8365 12.7866C32.1693 15.1221 33.4532 18.2264 33.4521 21.528C33.4492 28.341 27.9066 33.884 21.0961 33.884ZM27.8736 24.63C27.5023 24.444 25.676 23.5457 25.3354 23.4215C24.9952 23.2975 24.7473 23.2358 24.4999 23.6075C24.2521 23.9792 23.5404 24.816 23.3236 25.0638C23.1068 25.3117 22.8904 25.3428 22.5189 25.1568C22.1473 24.971 20.9506 24.5786 19.5317 23.3131C18.4276 22.3282 17.6821 21.1118 17.4653 20.7401C17.2489 20.368 17.4635 20.1864 17.6283 19.9821C18.0304 19.4827 18.433 18.9592 18.5568 18.7115C18.6808 18.4636 18.6187 18.2466 18.5257 18.0607C18.433 17.8749 17.6902 16.0466 17.3807 15.3026C17.079 14.5786 16.773 14.6764 16.5449 14.665C16.3284 14.6542 16.0807 14.652 15.8329 14.652C15.5854 14.652 15.1829 14.7449 14.8423 15.1169C14.502 15.4888 13.5425 16.3873 13.5425 18.2156C13.5425 20.0439 14.8735 21.8102 15.0591 22.0581C15.2448 22.306 17.6785 26.0579 21.4045 27.6666C22.2907 28.0497 22.9825 28.278 23.5221 28.4492C24.412 28.7319 25.2215 28.692 25.8616 28.5964C26.5754 28.4897 28.0591 27.6978 28.3689 26.8302C28.6783 25.9625 28.6783 25.2189 28.5853 25.0638C28.4927 24.9089 28.2449 24.816 27.8736 24.63Z" fill="#0D070B"/>
</svg>
