<svg width="24" height="25" viewBox="5 0 24 25" fill="none" xmlns="http://www.w3.org/2000/svg">
<path fill-rule="evenodd" clip-rule="evenodd" d="M17.6062 16.4418L13.3632 12.1998L17.6062 7.95776C17.9972 7.56676 17.9972 6.93276 17.6062 6.54276C17.2153 6.15176 16.5833 6.15176 16.1923 6.54276L11.9493 10.7858L7.70725 6.54276C7.31625 6.15176 6.68325 6.15176 6.29325 6.54276C5.90225 6.93276 5.90225 7.56676 6.29325 7.95776L10.5353 12.1998L6.29325 16.4418C5.90225 16.8328 5.90225 17.4658 6.29325 17.8568C6.68325 18.2478 7.31625 18.2468 7.70725 17.8568L11.9493 13.6138L16.1923 17.8568C16.5833 18.2478 17.2153 18.2468 17.6062 17.8568C17.9972 17.4658 17.9972 16.8328 17.6062 16.4418Z" fill="white"/>
</svg>
