<svg width="32" height="32" viewBox="0 0 32 32" fill="none" xmlns="http://www.w3.org/2000/svg">
<path d="M12.9524 13.3C13.0131 12.5027 13.3207 11.8787 13.8754 11.428C14.4301 10.9773 15.1494 10.752 16.0334 10.752C16.6227 10.752 17.1297 10.8603 17.5544 11.077C17.9877 11.285 18.3127 11.571 18.5294 11.935C18.7547 12.299 18.8674 12.7107 18.8674 13.17C18.8674 13.7073 18.7114 14.171 18.3994 14.561C18.0961 14.951 17.6974 15.2023 17.2034 15.315V15.38C17.7667 15.5187 18.2131 15.7917 18.5424 16.199C18.8717 16.6063 19.0364 17.1393 19.0364 17.798C19.0364 18.292 18.9237 18.7383 18.6984 19.137C18.4731 19.527 18.1351 19.8347 17.6844 20.06C17.2337 20.2853 16.6921 20.398 16.0594 20.398C15.1407 20.398 14.3867 20.1597 13.7974 19.683C13.2081 19.1977 12.8787 18.513 12.8094 17.629H13.9534C14.0141 18.149 14.2264 18.5737 14.5904 18.903C14.9544 19.2323 15.4397 19.397 16.0464 19.397C16.6531 19.397 17.1124 19.241 17.4244 18.929C17.7451 18.6083 17.9054 18.1967 17.9054 17.694C17.9054 17.044 17.6887 16.576 17.2554 16.29C16.8221 16.004 16.1677 15.861 15.2924 15.861H14.9934V14.873H15.3054C16.1027 14.8643 16.7051 14.7343 17.1124 14.483C17.5197 14.223 17.7234 13.8243 17.7234 13.287C17.7234 12.8277 17.5717 12.4593 17.2684 12.182C16.9737 11.9047 16.5491 11.766 15.9944 11.766C15.4571 11.766 15.0237 11.9047 14.6944 12.182C14.3651 12.4593 14.1701 12.832 14.1094 13.3H12.9524Z" fill="#84848A"/>
<path fill-rule="evenodd" clip-rule="evenodd" d="M16 28.0003C22.6274 28.0003 28 22.6277 28 16.0003C28 9.37291 22.6274 4.00033 16 4.00033C9.37254 4.00033 3.99996 9.37291 3.99996 16.0003C3.99996 22.6277 9.37254 28.0003 16 28.0003ZM16 29.3337C23.3638 29.3337 29.3333 23.3641 29.3333 16.0003C29.3333 8.63653 23.3638 2.66699 16 2.66699C8.63616 2.66699 2.66663 8.63653 2.66663 16.0003C2.66663 23.3641 8.63616 29.3337 16 29.3337Z" fill="#84848A"/>
<path fill-rule="evenodd" clip-rule="evenodd" d="M16 28.0003C22.6274 28.0003 28 22.6277 28 16.0003C28 9.37291 22.6274 4.00033 16 4.00033C9.37254 4.00033 3.99996 9.37291 3.99996 16.0003C3.99996 22.6277 9.37254 28.0003 16 28.0003ZM16 29.3337C23.3638 29.3337 29.3333 23.3641 29.3333 16.0003C29.3333 8.63653 23.3638 2.66699 16 2.66699C8.63616 2.66699 2.66663 8.63653 2.66663 16.0003C2.66663 23.3641 8.63616 29.3337 16 29.3337Z" fill="#84848A"/>
</svg>
