<svg width="32" height="32" viewBox="0 0 32 32" fill="none" xmlns="http://www.w3.org/2000/svg">
<path d="M12.4321 18.24V17.343L16.9952 11.025H18.4121V17.213H19.7122V18.24H18.4121V20.333H17.2422V18.24H12.4321ZM17.2942 12.26L13.7972 17.213H17.2942V12.26Z" fill="#84848A"/>
<path fill-rule="evenodd" clip-rule="evenodd" d="M16 28.0003C22.6274 28.0003 28 22.6277 28 16.0003C28 9.37291 22.6274 4.00033 16 4.00033C9.37254 4.00033 3.99996 9.37291 3.99996 16.0003C3.99996 22.6277 9.37254 28.0003 16 28.0003ZM16 29.3337C23.3638 29.3337 29.3333 23.3641 29.3333 16.0003C29.3333 8.63653 23.3638 2.66699 16 2.66699C8.63616 2.66699 2.66663 8.63653 2.66663 16.0003C2.66663 23.3641 8.63616 29.3337 16 29.3337Z" fill="#84848A"/>
<path fill-rule="evenodd" clip-rule="evenodd" d="M16 28.0003C22.6274 28.0003 28 22.6277 28 16.0003C28 9.37291 22.6274 4.00033 16 4.00033C9.37254 4.00033 3.99996 9.37291 3.99996 16.0003C3.99996 22.6277 9.37254 28.0003 16 28.0003ZM16 29.3337C23.3638 29.3337 29.3333 23.3641 29.3333 16.0003C29.3333 8.63653 23.3638 2.66699 16 2.66699C8.63616 2.66699 2.66663 8.63653 2.66663 16.0003C2.66663 23.3641 8.63616 29.3337 16 29.3337Z" fill="#84848A"/>
</svg>
