<svg width="18" height="13" viewBox="0 0 18 13" fill="none" xmlns="http://www.w3.org/2000/svg">
<path d="M15.3209 3.50595H12.9506V0.345459H1.88884C1.0197 0.345459 0.308594 1.05657 0.308594 1.92571V10.6171H1.88884C1.88884 11.9287 2.94761 12.9874 4.25921 12.9874C5.57082 12.9874 6.62958 11.9287 6.62958 10.6171H11.3703C11.3703 11.9287 12.4291 12.9874 13.7407 12.9874C15.0523 12.9874 16.1111 11.9287 16.1111 10.6171H17.6913V6.66645L15.3209 3.50595ZM4.25921 11.8022C3.60341 11.8022 3.07403 11.2729 3.07403 10.6171C3.07403 9.96126 3.60341 9.43188 4.25921 9.43188C4.91501 9.43188 5.4444 9.96126 5.4444 10.6171C5.4444 11.2729 4.91501 11.8022 4.25921 11.8022ZM14.9259 4.69114L16.4745 6.66645H12.9506V4.69114H14.9259ZM13.7407 11.8022C13.0849 11.8022 12.5555 11.2729 12.5555 10.6171C12.5555 9.96126 13.0849 9.43188 13.7407 9.43188C14.3965 9.43188 14.9259 9.96126 14.9259 10.6171C14.9259 11.2729 14.3965 11.8022 13.7407 11.8022Z" fill="#0D070B"/>
</svg>
