<svg width="25" height="24" viewBox="0 0 25 24" fill="#000" xmlns="http://www.w3.org/2000/svg">
<path fill-rule="evenodd" clip-rule="evenodd" d="M6.59361 16.088C6.61699 15.5874 6.42251 15.06 6.1096 14.6244C5.34721 13.5633 4.9094 12.3239 4.9094 11C4.9094 7.07587 8.75562 3.89474 13.5002 3.89474C18.2447 3.89474 22.0909 7.07587 22.0909 11C22.0909 14.9241 18.2447 18.1053 13.5002 18.1053C12.3103 18.1053 11.177 17.9052 10.1466 17.5435C9.49318 17.3141 8.76481 17.3745 8.11822 17.6222L8.11054 17.6252C7.88112 17.7127 7.6484 17.7849 7.41855 17.8442C7.21397 17.8971 7.01166 17.9397 6.81597 17.974C5.83381 18.1462 5.0184 18.1076 4.91947 18.0849C4.90665 18.0819 4.90586 18.0793 4.91829 18.0773C5.29677 18.0189 5.79928 17.5652 6.2756 16.9592C6.3048 16.9221 6.33184 16.8841 6.35678 16.8455C6.50721 16.6125 6.58118 16.354 6.59361 16.088ZM4.33182 16.2731C4.21795 16.3084 3.91312 16.4183 3.62527 16.6781C3.42189 16.8617 3.08403 17.252 3.01294 17.8632C2.9387 18.5014 3.19911 18.9873 3.40845 19.2517C3.72627 19.6532 4.12324 19.8101 4.17479 19.8305L4.17922 19.8323C4.36779 19.9101 4.53186 19.9406 4.56294 19.9464L4.56614 19.947C4.62534 19.9582 4.67573 19.9651 4.70771 19.9692C4.82665 19.9841 4.95391 19.9914 5.06155 19.9953C5.29644 20.0038 5.61672 20.0023 5.98978 19.9781C6.72151 19.9304 7.76665 19.788 8.80583 19.3898C9.12443 19.2677 9.37494 19.2824 9.51007 19.3298C10.7462 19.7637 12.0949 20 13.5002 20C18.9584 20 24 16.2794 24 11C24 5.72065 18.9584 2 13.5002 2C8.04197 2 3.00035 5.72065 3.00035 11C3.00035 12.7517 3.58248 14.3705 4.55524 15.7245C4.5998 15.7865 4.63356 15.8487 4.65609 15.9037C4.65909 15.9111 4.6618 15.9181 4.66425 15.9247C4.52868 16.0865 4.41454 16.2019 4.33182 16.2731ZM9.49982 8.9998C9.49982 8.44751 9.94754 7.9998 10.4998 7.9998H16.4998C17.0521 7.9998 17.4998 8.44751 17.4998 8.9998C17.4998 9.55208 17.0521 9.9998 16.4998 9.9998H10.4998C9.94754 9.9998 9.49982 9.55208 9.49982 8.9998ZM10.4998 12C9.94754 12 9.49982 12.4477 9.49982 13C9.49982 13.5523 9.94754 14 10.4998 14H14.4998C15.0521 14 15.4998 13.5523 15.4998 13C15.4998 12.4477 15.0521 12 14.4998 12H10.4998Z" fill="#0D070B"/>
</svg>
