<svg width="33" height="19" viewBox="0 0 33 19" fill="none" xmlns="http://www.w3.org/2000/svg">
<path d="M29.8333 18.8332H21.8333V13.4998H18.26C16.74 16.7265 13.46 18.8332 9.83333 18.8332C4.68667 18.8332 0.5 14.6465 0.5 9.49984C0.5 4.35317 4.68667 0.166504 9.83333 0.166504C13.46 0.166504 16.7267 2.27317 18.26 5.49984H32.5V13.4998H29.8333V18.8332ZM24.5 16.1665H27.1667V10.8332H29.8333V8.1665H16.42L16.1133 7.27317C15.18 4.61984 12.6467 2.83317 9.83333 2.83317C6.15333 2.83317 3.16667 5.81984 3.16667 9.49984C3.16667 13.1798 6.15333 16.1665 9.83333 16.1665C12.6467 16.1665 15.18 14.3798 16.1133 11.7265L16.42 10.8332H24.5V16.1665ZM9.83333 13.4998C7.63333 13.4998 5.83333 11.6998 5.83333 9.49984C5.83333 7.29984 7.63333 5.49984 9.83333 5.49984C12.0333 5.49984 13.8333 7.29984 13.8333 9.49984C13.8333 11.6998 12.0333 13.4998 9.83333 13.4998ZM9.83333 8.1665C9.1 8.1665 8.5 8.7665 8.5 9.49984C8.5 10.2332 9.1 10.8332 9.83333 10.8332C10.5667 10.8332 11.1667 10.2332 11.1667 9.49984C11.1667 8.7665 10.5667 8.1665 9.83333 8.1665Z" fill="#84848A"/>
</svg>
