<svg width="40" height="40" viewBox="0 0 40 40" fill="none" xmlns="http://www.w3.org/2000/svg">
<path fill-rule="evenodd" clip-rule="evenodd" d="M28.0555 15.2558L13.338 29.9734L9.92106 29.8547L9.80244 26.4378L24.52 11.7203L28.0555 15.2558ZM32.7695 15.2558L33.4822 14.5432C35.4226 12.6028 35.1488 9.18306 32.8708 6.905C30.5927 4.62694 27.173 4.35321 25.2326 6.2936L6.66675 24.8595L6.94354 32.8322L14.9163 33.109L30.4125 17.6129L30.4127 17.613L32.7697 15.256L32.7695 15.2558ZM30.4125 12.8988L26.877 9.36327L27.5896 8.65062C28.4212 7.81903 29.8868 7.93634 30.8631 8.91265C31.8394 9.88896 31.9568 11.3546 31.1252 12.1862L30.4125 12.8988Z" fill="#0D070B"/>
</svg>
