<svg width="19" height="18" viewBox="0 0 19 18" fill="none" xmlns="http://www.w3.org/2000/svg">
<path d="M4.04 1.99951C4.1 2.88951 4.25 3.75951 4.49 4.58951L3.29 5.78951C2.88 4.58951 2.62 3.31951 2.53 1.99951H4.04ZM13.9 14.0195C14.75 14.2595 15.62 14.4095 16.5 14.4695V15.9595C15.18 15.8695 13.91 15.6095 12.7 15.2095L13.9 14.0195ZM5 -0.000488281H1.5C0.95 -0.000488281 0.5 0.449512 0.5 0.999512C0.5 10.3895 8.11 17.9995 17.5 17.9995C18.05 17.9995 18.5 17.5495 18.5 16.9995V13.5095C18.5 12.9595 18.05 12.5095 17.5 12.5095C16.26 12.5095 15.05 12.3095 13.93 11.9395C13.83 11.8995 13.72 11.8895 13.62 11.8895C13.36 11.8895 13.11 11.9895 12.91 12.1795L10.71 14.3795C7.88 12.9295 5.56 10.6195 4.12 7.78951L6.32 5.58951C6.6 5.30951 6.68 4.91951 6.57 4.56951C6.2 3.44951 6 2.24951 6 0.999512C6 0.449512 5.55 -0.000488281 5 -0.000488281Z" fill="#0274D7"/>
</svg>
