<svg width="40" height="41" viewBox="0 0 40 41" fill="none" xmlns="http://www.w3.org/2000/svg">
<circle cx="20" cy="20.25" r="20" fill="#F2F2F3"/>
<path fill-rule="evenodd" clip-rule="evenodd" d="M25.9259 19.2624H20.9877V14.3241C20.9877 13.7789 20.5452 13.3364 20 13.3364C19.4548 13.3364 19.0124 13.7789 19.0124 14.3241V19.2624H14.0741C13.5289 19.2624 13.0864 19.7048 13.0864 20.25C13.0864 20.7952 13.5289 21.2377 14.0741 21.2377H19.0124V26.1759C19.0124 26.7211 19.4548 27.1636 20 27.1636C20.5452 27.1636 20.9877 26.7211 20.9877 26.1759V21.2377H25.9259C26.4711 21.2377 26.9136 20.7952 26.9136 20.25C26.9136 19.7048 26.4711 19.2624 25.9259 19.2624Z" fill="#0D070B"/>
</svg>
