<svg width="33" height="33" viewBox="0 0 33 33" fill="none" xmlns="http://www.w3.org/2000/svg">
<path d="M29.0467 15.7132L17.2734 3.93984C16.7801 3.4465 16.1001 3.1665 15.3934 3.1665H5.83341C4.36675 3.1665 3.16675 4.3665 3.16675 5.83317V15.3932C3.16675 16.0998 3.44675 16.7798 3.95341 17.2732L15.7267 29.0465C16.7667 30.0865 18.4601 30.0865 19.5001 29.0465L29.0601 19.4865C30.1001 18.4465 30.1001 16.7665 29.0467 15.7132ZM17.6067 27.1665L5.83341 15.3932V5.83317H15.3934L27.1667 17.6065L17.6067 27.1665Z" fill="#0D070B"/>
<path d="M9.16675 11.1665C10.2713 11.1665 11.1667 10.2711 11.1667 9.1665C11.1667 8.06193 10.2713 7.1665 9.16675 7.1665C8.06218 7.1665 7.16675 8.06193 7.16675 9.1665C7.16675 10.2711 8.06218 11.1665 9.16675 11.1665Z" fill="#0D070B"/>
</svg>
