<svg width="32" height="33" viewBox="0 0 32 33" fill="none" xmlns="http://www.w3.org/2000/svg">
<path fill-rule="evenodd" clip-rule="evenodd" d="M7.33333 8.16618H19.3333C20.8061 8.16618 22 9.36009 22 10.8328L22 12.1662L22 21.4995H11.6481C10.9157 20.6812 9.85133 20.1662 8.66667 20.1662C7.482 20.1662 6.41762 20.6812 5.68519 21.4995H4.66667V10.8328C4.66667 9.36009 5.86057 8.16618 7.33333 8.16618ZM26 25.4995C25.2636 25.4995 24.6667 24.9026 24.6667 24.1662C24.6667 23.4298 25.2636 22.8328 26 22.8328C26.7364 22.8328 27.3333 23.4298 27.3333 24.1662C27.3333 24.9026 26.7364 25.4995 26 25.4995ZM26 28.1662C23.7909 28.1662 22 26.3753 22 24.1662H12.6667C12.6667 26.3753 10.8758 28.1662 8.66667 28.1662C6.45753 28.1662 4.66667 26.3753 4.66667 24.1662H3.33333C2.59695 24.1662 2 23.5692 2 22.8328V10.8328C2 7.88733 4.38781 5.49951 7.33333 5.49951H19.3333C22.2789 5.49951 24.6667 7.88733 24.6667 10.8328H26C28.9455 10.8328 31.3333 13.2207 31.3333 16.1662V21.4995V22.8328C31.3333 23.5692 30.7364 24.1662 30 24.1662C30 26.3753 28.2091 28.1662 26 28.1662ZM7.33333 24.1662C7.33333 24.9026 7.93029 25.4995 8.66667 25.4995C8.75871 25.4995 8.84858 25.4902 8.93538 25.4724C9.54296 25.3481 10 24.8105 10 24.1662C10 23.4298 9.40305 22.8328 8.66667 22.8328C7.93029 22.8328 7.33333 23.4298 7.33333 24.1662ZM24.6667 13.4995H26.6667C27.7712 13.4995 28.6667 14.3949 28.6667 15.4995V17.4995H24.6667V13.4995Z" fill="#0D070B"/>
</svg>
