<svg width="33" height="33" viewBox="0 0 33 33" fill="none" xmlns="http://www.w3.org/2000/svg">
<path fill-rule="evenodd" clip-rule="evenodd" d="M7.83333 7.66667H19.8333C21.3061 7.66667 22.5 8.86057 22.5 10.3333L22.5 11.6667L22.5 21H12.1481C11.4157 20.1817 10.3513 19.6667 9.16667 19.6667C7.982 19.6667 6.91762 20.1817 6.18519 21H5.16667V10.3333C5.16667 8.86057 6.36057 7.66667 7.83333 7.66667ZM26.5 25C25.7636 25 25.1667 24.403 25.1667 23.6667C25.1667 22.9303 25.7636 22.3333 26.5 22.3333C27.2364 22.3333 27.8333 22.9303 27.8333 23.6667C27.8333 24.403 27.2364 25 26.5 25ZM26.5 27.6667C24.2909 27.6667 22.5 25.8758 22.5 23.6667H13.1667C13.1667 25.8758 11.3758 27.6667 9.16667 27.6667C6.95753 27.6667 5.16667 25.8758 5.16667 23.6667H3.83333C3.09695 23.6667 2.5 23.0697 2.5 22.3333V10.3333C2.5 7.38781 4.88781 5 7.83333 5H19.8333C22.7789 5 25.1667 7.38781 25.1667 10.3333H26.5C29.4455 10.3333 31.8333 12.7211 31.8333 15.6667V21V22.3333C31.8333 23.0697 31.2364 23.6667 30.5 23.6667C30.5 25.8758 28.7091 27.6667 26.5 27.6667ZM7.83333 23.6667C7.83333 24.403 8.43029 25 9.16667 25C9.25871 25 9.34858 24.9907 9.43538 24.9729C10.043 24.8486 10.5 24.311 10.5 23.6667C10.5 22.9303 9.90305 22.3333 9.16667 22.3333C8.43029 22.3333 7.83333 22.9303 7.83333 23.6667ZM25.1667 13H27.1667C28.2712 13 29.1667 13.8954 29.1667 15V17H25.1667V13Z" fill="#0D070B"/>
</svg>
