<svg width="17" height="16" viewBox="0 0 17 16" fill="none" xmlns="http://www.w3.org/2000/svg">
<path fill-rule="evenodd" clip-rule="evenodd" d="M9.50061 2.41836C9.18866 1.41588 7.81152 1.41589 7.49958 2.41837L6.73232 4.88403C6.67726 5.06098 6.5253 5.1673 6.36837 5.1673H3.88548C3.36809 5.1673 3.00957 5.51872 2.88497 5.91916C2.76063 6.31872 2.85373 6.8112 3.26237 7.12121L5.27107 8.64507C5.40707 8.74825 5.47054 8.93893 5.41484 9.11791L4.64759 11.5836C4.49524 12.0732 4.68972 12.5313 5.025 12.7856C5.36241 13.0416 5.85735 13.0996 6.27122 12.7856L8.27991 11.2618C8.41222 11.1614 8.58797 11.1614 8.72028 11.2618L10.729 12.7856C11.1428 13.0996 11.6378 13.0416 11.9752 12.7856C12.3105 12.5313 12.505 12.0732 12.3526 11.5836L11.5853 9.11791C11.5297 8.93893 11.5931 8.74825 11.7291 8.64507L13.7378 7.12121C14.1465 6.8112 14.2396 6.31872 14.1152 5.91916C13.9906 5.51872 13.6321 5.1673 13.1147 5.1673H10.6318C10.4749 5.1673 10.3229 5.06098 10.2679 4.88402L9.50061 2.41836Z" fill="#0D070B"/>
</svg>
