<svg width="33" height="33" viewBox="0 0 33 33" fill="none" xmlns="http://www.w3.org/2000/svg">
<path d="M29.7 12.2698L28.3 6.44317C28.0067 5.24317 26.9667 4.4165 25.7533 4.4165H7.23334C6.03334 4.4165 4.98001 5.2565 4.70001 6.44317L3.30001 12.2698C2.98001 13.6298 3.27334 15.0165 4.12668 16.1098C4.23334 16.2565 4.38001 16.3632 4.50001 16.4965V25.7498C4.50001 27.2165 5.70001 28.4165 7.16668 28.4165H25.8333C27.3 28.4165 28.5 27.2165 28.5 25.7498V16.4965C28.62 16.3765 28.7667 16.2565 28.8733 16.1232C29.7267 15.0298 30.0333 13.6298 29.7 12.2698ZM25.7133 7.06984L27.1133 12.8965C27.2467 13.4565 27.1267 14.0165 26.78 14.4565C26.5933 14.6965 26.1933 15.0832 25.5267 15.0832C24.7133 15.0832 24.0067 14.4298 23.9133 13.5632L23.14 7.08317L25.7133 7.06984ZM17.8333 7.08317H20.4467L21.1667 13.1098C21.2333 13.6298 21.0733 14.1498 20.7267 14.5365C20.4333 14.8832 20.0067 15.0832 19.46 15.0832C18.5667 15.0832 17.8333 14.2965 17.8333 13.3365V7.08317ZM11.82 13.1098L12.5533 7.08317H15.1667V13.3365C15.1667 14.2965 14.4333 15.0832 13.4467 15.0832C12.9933 15.0832 12.58 14.8832 12.26 14.5365C11.9267 14.1498 11.7667 13.6298 11.82 13.1098ZM5.88668 12.8965L7.23334 7.08317H9.86001L9.08668 13.5632C8.98001 14.4298 8.28668 15.0832 7.47334 15.0832C6.82001 15.0832 6.40668 14.6965 6.23334 14.4565C5.87334 14.0298 5.75334 13.4565 5.88668 12.8965ZM7.16668 25.7498V17.7098C7.27334 17.7232 7.36668 17.7498 7.47334 17.7498C8.63334 17.7498 9.68668 17.2698 10.46 16.4832C11.26 17.2832 12.3267 17.7498 13.54 17.7498C14.7 17.7498 15.74 17.2698 16.5133 16.5098C17.3 17.2698 18.3667 17.7498 19.5667 17.7498C20.6867 17.7498 21.7533 17.2832 22.5533 16.4832C23.3267 17.2698 24.38 17.7498 25.54 17.7498C25.6467 17.7498 25.74 17.7232 25.8467 17.7098V25.7498H7.16668Z" fill="#0D070B"/>
</svg>
