<svg width="27" height="29" viewBox="0 0 27 29" fill="none" xmlns="http://www.w3.org/2000/svg">
<path d="M20.6201 13.0868L22.5001 11.2068L25.3267 14.0335C26.8867 12.4735 26.8867 9.94016 25.3267 8.38016L20.6067 3.66016L18.7267 5.54016V1.78016L17.7934 0.833496L13.0734 5.5535L14.0201 6.50016H17.7934L15.9134 8.38016L17.3267 9.7935L13.4734 13.6468L7.96675 8.14016V6.24683L3.94008 2.22016L0.166748 5.9935L4.20675 10.0335H6.08675L11.5934 15.5402L10.4601 16.6735H7.63341L0.566748 23.7402C0.046748 24.2602 0.046748 25.1002 0.566748 25.6202L3.39341 28.4468C3.91341 28.9668 4.75341 28.9668 5.27341 28.4468L12.3401 21.3802V18.5535L19.2067 11.6868L20.6201 13.0868ZM9.98008 19.9535L4.32675 25.6068L3.38008 24.6602L9.03341 19.0068L9.98008 19.9535Z" fill="#0D070B"/>
</svg>
