<svg width="24" height="24" viewBox="0 0 24 24" fill="none" xmlns="http://www.w3.org/2000/svg">
<path fill-rule="evenodd" clip-rule="evenodd" d="M16.8332 9.1535L8.00273 17.984L5.95259 17.9128L5.88141 15.8627L14.7119 7.03218L16.8332 9.1535ZM19.6617 9.1535L20.0893 8.72591C21.2535 7.56167 21.0893 5.50984 19.7224 4.143C18.3556 2.77617 16.3038 2.61192 15.1395 3.77616L4 14.9157L4.16607 19.6994L8.94975 19.8654L18.2475 10.5677L18.2476 10.5678L19.6618 9.1536L19.6617 9.1535ZM18.2475 7.73928L16.1261 5.61796L16.5537 5.19037C17.0527 4.69142 17.932 4.7618 18.5178 5.34759C19.1036 5.93338 19.174 6.81274 18.675 7.3117L18.2475 7.73928Z" fill="#0274D7"/>
</svg>
