<svg width="11" height="10" viewBox="0 0 11 10" fill="none" xmlns="http://www.w3.org/2000/svg">
<path fill-rule="evenodd" clip-rule="evenodd" d="M8.2934 4.28767L5.66786 6.91322C5.56599 7.01509 5.43103 7.06707 5.29661 7.06707C5.17531 7.06707 5.05348 7.02507 4.95476 6.94052L3.11688 5.3652C2.89686 5.17616 2.87113 4.84534 3.06017 4.62532C3.24921 4.40425 3.58055 4.37904 3.80057 4.56808L5.2693 5.82677L7.5509 3.54517C7.75621 3.33985 8.08808 3.33985 8.2934 3.54517C8.49872 3.75049 8.49872 4.08236 8.2934 4.28767M5.55898 0.50293C2.94867 0.50293 0.833008 2.61859 0.833008 5.22891C0.833008 7.83922 2.94867 9.95488 5.55898 9.95488C8.1693 9.95488 10.285 7.83922 10.285 5.22891C10.285 2.61859 8.1693 0.50293 5.55898 0.50293" fill="#84848A"/>
</svg>
