<svg width="28" height="32" viewBox="0 0 28 32" fill="none" xmlns="http://www.w3.org/2000/svg">
<path fill-rule="evenodd" clip-rule="evenodd" d="M22.9427 13.6093L16.276 20.276C16.0173 20.5347 15.6747 20.6667 15.3333 20.6667C15.0253 20.6667 14.716 20.56 14.4653 20.3453L9.79867 16.3453C9.24 15.8653 9.17467 15.0253 9.65467 14.4667C10.1347 13.9053 10.976 13.8413 11.5347 14.3213L15.264 17.5173L21.0573 11.724C21.5787 11.2027 22.4213 11.2027 22.9427 11.724C23.464 12.2453 23.464 13.088 22.9427 13.6093ZM16 4C9.372 4 4 9.372 4 16C4 22.628 9.372 28 16 28C22.628 28 28 22.628 28 16C28 9.372 22.628 4 16 4Z" fill="#0274D7"/>
</svg>
