<svg width="14" height="15" viewBox="0 0 14 15" fill="none" xmlns="http://www.w3.org/2000/svg">
<path fill-rule="evenodd" clip-rule="evenodd" d="M10.9052 6.15525L7.15525 9.90525C7.00975 10.0507 6.817 10.125 6.625 10.125C6.45175 10.125 6.27775 10.065 6.13675 9.94425L3.51175 7.69425C3.1975 7.42425 3.16075 6.95175 3.43075 6.6375C3.70075 6.32175 4.174 6.28575 4.48825 6.55575L6.586 8.3535L9.84475 5.09475C10.138 4.8015 10.612 4.8015 10.9052 5.09475C11.1985 5.388 11.1985 5.862 10.9052 6.15525ZM7 0.75C3.27175 0.75 0.25 3.77175 0.25 7.5C0.25 11.2283 3.27175 14.25 7 14.25C10.7283 14.25 13.75 11.2283 13.75 7.5C13.75 3.77175 10.7283 0.75 7 0.75Z" fill="#0D070B"/>
</svg>
