<svg width="40" height="40" viewBox="0 0 40 40" fill="none" xmlns="http://www.w3.org/2000/svg">
<path fill-rule="evenodd" clip-rule="evenodd" d="M29.3437 26.9866L22.2721 19.9166L29.3437 12.8466C29.9954 12.1949 29.9954 11.1383 29.3437 10.4883C28.6921 9.8366 27.6387 9.8366 26.9871 10.4883L19.9154 17.5599L12.8454 10.4883C12.1937 9.8366 11.1387 9.8366 10.4887 10.4883C9.83708 11.1383 9.83708 12.1949 10.4887 12.8466L17.5587 19.9166L10.4887 26.9866C9.83708 27.6383 9.83708 28.6933 10.4887 29.3449C11.1387 29.9966 12.1937 29.9949 12.8454 29.3449L19.9154 22.2733L26.9871 29.3449C27.6387 29.9966 28.6921 29.9949 29.3437 29.3449C29.9954 28.6933 29.9954 27.6383 29.3437 26.9866Z" fill="#0D070B"/>
</svg>
