<svg width="32" height="32" viewBox="0 0 32 32" fill="none" xmlns="http://www.w3.org/2000/svg">
<circle cx="16" cy="16" r="16" fill="#F2F2F3"/>
<path fill-rule="evenodd" clip-rule="evenodd" d="M19.8188 13.7507L12.8416 20.7279L11.2217 20.6717L11.1655 19.0518L18.1427 12.0746L19.8188 13.7507ZM22.0536 13.7507L22.3915 13.4128C23.3113 12.493 23.1816 10.8718 22.1016 9.79178C21.0216 8.71182 19.4004 8.58204 18.4805 9.50193L9.67896 18.3035L9.81017 22.0832L13.5899 22.2144L20.9362 14.8681L20.9363 14.8682L22.0537 13.7508L22.0536 13.7507ZM20.9362 12.6333L19.2601 10.9572L19.598 10.6193C19.9922 10.2251 20.687 10.2807 21.1498 10.7436C21.6127 11.2064 21.6683 11.9012 21.2741 12.2954L20.9362 12.6333Z" fill="#0D070B"/>
</svg>
