<svg width="42" height="42" viewBox="0 0 42 42" fill="none" xmlns="http://www.w3.org/2000/svg">
<rect width="42" height="42" rx="15" fill="#F2F2F3"/>
<path fill-rule="evenodd" clip-rule="evenodd" d="M13.6667 12.3346H28.3333C29.2138 12.3346 30.0279 12.6191 30.6886 13.1012L21.7999 20.068C21.3258 20.4235 20.6739 20.4235 20.1999 20.068L11.3112 13.1013C11.972 12.6192 12.7861 12.3346 13.6667 12.3346ZM9.80053 15.3046C9.7132 15.6333 9.66667 15.9785 9.66667 16.3346V25.668C9.66667 27.8771 11.4575 29.668 13.6667 29.668H28.3333C30.5425 29.668 32.3333 27.8771 32.3333 25.668V16.3346C32.3333 15.9784 32.2868 15.6331 32.1994 15.3044L23.3999 22.2013C21.9776 23.268 20.0221 23.268 18.5999 22.2013L9.80053 15.3046ZM7 16.3346C7 12.6527 9.98477 9.66797 13.6667 9.66797H28.3333C32.0152 9.66797 35 12.6527 35 16.3346V25.668C35 29.3499 32.0152 32.3346 28.3333 32.3346H13.6667C9.98477 32.3346 7 29.3499 7 25.668V16.3346Z" fill="#0D070B"/>
</svg>
