<svg width="22" height="21" viewBox="0 0 22 21" fill="none" xmlns="http://www.w3.org/2000/svg">
<path fill-rule="evenodd" clip-rule="evenodd" d="M9.46997 8.46996L13.06 4.87996C13.54 4.39996 13.54 3.59996 13.06 3.10996L11.47 1.51996L12.53 0.459961L14.12 2.04996C15.19 3.11996 15.19 4.86996 14.12 5.93996L10.53 9.52996L9.46997 8.46996ZM7.46997 6.46996L8.05997 5.87996C8.53997 5.39996 8.53997 4.59996 8.05997 4.11996L7.46997 3.52996L8.52997 2.45996L9.11997 3.04996C10.19 4.11996 10.19 5.86996 9.11997 6.93996L8.52997 7.52996L7.46997 6.46996ZM12.53 11.53L18.12 5.94001C18.61 5.45001 19.4 5.45001 19.89 5.94001L20.48 6.53001L21.54 5.47001L20.95 4.88001C19.88 3.81001 18.13 3.81001 17.06 4.88001L11.47 10.47L12.53 11.53ZM0 21L14 16L5 7L0 21ZM10.35 15.18L3.3 17.7L5.82 10.65L10.35 15.18ZM15.06 10.88L13.47 12.47L14.53 13.53L16.12 11.94C16.61 11.45 17.4 11.45 17.89 11.94L19.5 13.55L20.56 12.49L18.95 10.88C17.87 9.81001 16.13 9.81001 15.06 10.88Z" fill="#A3A3AD"/>
</svg>
