<svg width="32" height="32" viewBox="0 0 32 32" fill="none" xmlns="http://www.w3.org/2000/svg">
<path d="M12.4323 18.24V17.343L16.9953 11.025H18.4123V17.213H19.7123V18.24H18.4123V20.333H17.2423V18.24H12.4323ZM17.2943 12.26L13.7973 17.213H17.2943V12.26Z" fill="#0D070B"/>
<path fill-rule="evenodd" clip-rule="evenodd" d="M15.9998 28.0003C22.6273 28.0003 27.9998 22.6277 27.9998 16.0003C27.9998 9.37291 22.6273 4.00033 15.9998 4.00033C9.37242 4.00033 3.99984 9.37291 3.99984 16.0003C3.99984 22.6277 9.37242 28.0003 15.9998 28.0003ZM15.9998 29.3337C23.3636 29.3337 29.3332 23.3641 29.3332 16.0003C29.3332 8.63653 23.3636 2.66699 15.9998 2.66699C8.63604 2.66699 2.6665 8.63653 2.6665 16.0003C2.6665 23.3641 8.63604 29.3337 15.9998 29.3337Z" fill="#0D070B"/>
<path fill-rule="evenodd" clip-rule="evenodd" d="M15.9998 28.0003C22.6273 28.0003 27.9998 22.6277 27.9998 16.0003C27.9998 9.37291 22.6273 4.00033 15.9998 4.00033C9.37242 4.00033 3.99984 9.37291 3.99984 16.0003C3.99984 22.6277 9.37242 28.0003 15.9998 28.0003ZM15.9998 29.3337C23.3636 29.3337 29.3332 23.3641 29.3332 16.0003C29.3332 8.63653 23.3636 2.66699 15.9998 2.66699C8.63604 2.66699 2.6665 8.63653 2.6665 16.0003C2.6665 23.3641 8.63604 29.3337 15.9998 29.3337Z" fill="#0D070B"/>
</svg>
