<svg width="24" height="24" viewBox="0 0 24 24" fill="none" xmlns="http://www.w3.org/2000/svg">
<path fill-rule="evenodd" clip-rule="evenodd" d="M4.68044 9.76504C4.24795 10.1448 4 10.6924 4 11.268V17.9997C4 19.1043 4.89543 19.9997 6 19.9997H8.09521V15.8591C8.09521 13.7026 9.84344 11.9544 12 11.9544C14.1565 11.9544 15.9047 13.7026 15.9047 15.8591V19.9997H18C19.1046 19.9997 20 19.1043 20 17.9997V11.268C20 10.6924 19.7521 10.1448 19.3196 9.76504L13.3196 4.49708C12.5647 3.83431 11.4353 3.83431 10.6804 4.49708L4.68044 9.76504ZM2 11.268C2 10.1169 2.49589 9.02158 3.36089 8.26212L9.36089 2.99416C10.8706 1.66862 13.1294 1.66861 14.6391 2.99416L20.6391 8.26212C21.5041 9.02158 22 10.1169 22 11.268V17.9997C22 20.2089 20.2091 21.9997 18 21.9997H14.616C14.1924 21.9997 13.9047 21.5241 13.9047 21.1005V15.8591C13.9047 14.8072 13.0519 13.9544 12 13.9544C10.948 13.9544 10.0952 14.8072 10.0952 15.8591V21.1005C10.0952 21.5241 9.80755 21.9997 9.38397 21.9997H6C3.79086 21.9997 2 20.2089 2 17.9997V11.268Z" fill="#A3A3AD"/>
</svg>
