<svg width="42" height="43" viewBox="0 0 42 43" fill="none" xmlns="http://www.w3.org/2000/svg">
<rect y="0.667969" width="42" height="42" rx="15" fill="#F2F2F3"/>
<path fill-rule="evenodd" clip-rule="evenodd" d="M34.2618 16.176C34.1993 14.7591 33.9702 13.785 33.6419 12.9409C33.3033 12.045 32.7824 11.2428 32.0999 10.576C31.433 9.89875 30.6256 9.37252 29.74 9.0392C28.891 8.71097 27.922 8.48184 26.5051 8.41937C25.0776 8.35161 24.6244 8.33594 21.0039 8.33594C17.3834 8.33594 16.9303 8.35161 15.5081 8.41408C14.0912 8.47655 13.117 8.70588 12.2732 9.03391C11.377 9.37252 10.5748 9.89346 9.90799 10.576C9.23078 11.2428 8.70475 12.0503 8.37123 12.9358C8.043 13.785 7.81387 14.7538 7.7514 16.1707C7.68364 17.5982 7.66797 18.0514 7.66797 21.6719C7.66797 25.2924 7.68364 25.7456 7.74611 27.1678C7.80858 28.5847 8.03791 29.5588 8.36615 30.4029C8.70475 31.2989 9.23078 32.101 9.90799 32.7679C10.5748 33.4451 11.3823 33.9713 12.2679 34.3046C13.117 34.6329 14.0859 34.862 15.503 34.9245C16.925 34.9871 17.3783 35.0026 20.9988 35.0026C24.6194 35.0026 25.0725 34.9871 26.4947 34.9245C27.9116 34.862 28.8857 34.6329 29.7296 34.3046C31.5218 33.6117 32.9387 32.1948 33.6316 30.4029C33.9596 29.5537 34.1889 28.5847 34.2514 27.1678C34.3139 25.7456 34.3295 25.2924 34.3295 21.6719C34.3295 18.0514 34.3242 17.5982 34.2618 16.176ZM31.8604 27.0636C31.803 28.366 31.5842 29.0692 31.4019 29.5381C30.9538 30.6998 30.0318 31.6218 28.8701 32.0699C28.4012 32.2522 27.6929 32.471 26.3956 32.5282C24.9891 32.5908 24.5673 32.6063 21.0092 32.6063C17.4512 32.6063 17.0241 32.5908 15.6226 32.5282C14.3203 32.471 13.617 32.2522 13.1482 32.0699C12.5701 31.8562 12.0438 31.5176 11.6167 31.0748C11.1739 30.6424 10.8353 30.1215 10.6216 29.5434C10.4393 29.0745 10.2206 28.366 10.1634 27.0689C10.1007 25.6624 10.0852 25.2403 10.0852 21.6823C10.0852 18.1243 10.1007 17.6971 10.1634 16.2959C10.2206 14.9935 10.4393 14.2903 10.6216 13.8214C10.8353 13.2431 11.1739 12.7171 11.622 12.2898C12.0542 11.847 12.5751 11.5084 13.1535 11.2949C13.6223 11.1126 14.3309 10.8938 15.6279 10.8364C17.0344 10.774 17.4565 10.7583 21.0143 10.7583C24.5776 10.7583 24.9995 10.774 26.4009 10.8364C27.7033 10.8938 28.4065 11.1126 28.8754 11.2949C29.4535 11.5084 29.9797 11.847 30.4068 12.2898C30.8496 12.7222 31.1882 13.2431 31.4019 13.8214C31.5842 14.2903 31.803 14.9986 31.8604 16.2959C31.9228 17.7024 31.9385 18.1243 31.9385 21.6823C31.9385 25.2403 31.9228 25.6571 31.8604 27.0636ZM21.0039 14.8215C17.222 14.8215 14.1535 17.8897 14.1535 21.6718C14.1535 25.4539 17.222 28.5222 21.0039 28.5222C24.7859 28.5222 27.8542 25.4539 27.8542 21.6718C27.8542 17.8897 24.7859 14.8215 21.0039 14.8215ZM21.0039 26.1155C18.5504 26.1155 16.5602 24.1255 16.5602 21.6718C16.5602 19.2181 18.5504 17.2282 21.0039 17.2282C23.4575 17.2282 25.4475 19.2181 25.4475 21.6718C25.4475 24.1255 23.4575 26.1155 21.0039 26.1155ZM28.1251 16.15C29.0084 16.15 29.7245 15.4339 29.7245 14.5508C29.7245 13.6674 29.0084 12.9515 28.1251 12.9515C27.2419 12.9515 26.5258 13.6674 26.5258 14.5508C26.5258 15.4339 27.2419 16.15 28.1251 16.15Z" fill="#0D070B"/>
</svg>
