<svg width="21" height="18" viewBox="0 0 21 18" fill="none" xmlns="http://www.w3.org/2000/svg">
<path fill-rule="evenodd" clip-rule="evenodd" d="M3.59361 14.088C3.61699 13.5874 3.42251 13.06 3.1096 12.6244C2.34721 11.5633 1.9094 10.3239 1.9094 9C1.9094 5.07587 5.75562 1.89474 10.5002 1.89474C15.2447 1.89474 19.0909 5.07587 19.0909 9C19.0909 12.9241 15.2447 16.1053 10.5002 16.1053C9.31033 16.1053 8.17698 15.9052 7.14662 15.5435C6.49318 15.3141 5.76481 15.3745 5.11822 15.6222L5.11054 15.6252C4.88112 15.7127 4.6484 15.7849 4.41855 15.8442C4.21397 15.8971 4.01166 15.9397 3.81597 15.974C2.83381 16.1462 2.0184 16.1076 1.91947 16.0849C1.90665 16.0819 1.90586 16.0793 1.91829 16.0773C2.29677 16.0189 2.79928 15.5652 3.2756 14.9592C3.3048 14.9221 3.33184 14.8841 3.35678 14.8455C3.50721 14.6125 3.58118 14.354 3.59361 14.088ZM1.33182 14.2731C1.21795 14.3084 0.913118 14.4183 0.625266 14.6781C0.421891 14.8617 0.0840307 15.252 0.0129359 15.8632C-0.061302 16.5014 0.199113 16.9873 0.408448 17.2517C0.726266 17.6532 1.12324 17.8101 1.17479 17.8305L1.17922 17.8323C1.36779 17.9101 1.53186 17.9406 1.56294 17.9464L1.56614 17.947C1.62534 17.9582 1.67573 17.9651 1.70771 17.9692C1.82665 17.9841 1.95391 17.9914 2.06155 17.9953C2.29644 18.0038 2.61672 18.0023 2.98978 17.9781C3.72151 17.9304 4.76665 17.788 5.80583 17.3898C6.12443 17.2677 6.37494 17.2824 6.51007 17.3298C7.74619 17.7637 9.09488 18 10.5002 18C15.9584 18 21 14.2794 21 9C21 3.72065 15.9584 0 10.5002 0C5.04197 0 0.000345271 3.72065 0.000345271 9C0.000345271 10.7517 0.582484 12.3705 1.55524 13.7245C1.5998 13.7865 1.63356 13.8487 1.65609 13.9037C1.65909 13.9111 1.6618 13.9181 1.66425 13.9247C1.52868 14.0865 1.41454 14.2019 1.33182 14.2731ZM6 7C6 6.44772 6.44772 6 7 6H13C13.5523 6 14 6.44772 14 7C14 7.55228 13.5523 8 13 8H7C6.44772 8 6 7.55228 6 7ZM7 10C6.44772 10 6 10.4477 6 11C6 11.5523 6.44772 12 7 12H11C11.5523 12 12 11.5523 12 11C12 10.4477 11.5523 10 11 10H7Z" fill="#84848A"/>
</svg>
