<svg width="42" height="42" viewBox="0 0 42 42" fill="none" xmlns="http://www.w3.org/2000/svg">
<rect width="42" height="42" rx="15" fill="#F2F2F3"/>
<path fill-rule="evenodd" clip-rule="evenodd" d="M16.3812 10.4968C15.9656 10.3872 15.5056 10.3326 15.104 10.3347L15.097 10.3347C14.0535 10.3347 13.019 10.6931 12.1866 11.3492L12.1799 11.3544C10.9936 12.2774 10.3272 13.6497 10.3347 15.1257L10.3347 15.1336C10.3307 19.5522 12.0467 23.7 15.1712 26.8246C18.296 29.9492 22.4457 31.668 26.8694 31.668C28.3148 31.668 29.6711 31.0253 30.6024 29.8839C31.2806 29.0268 31.6591 27.9549 31.668 26.8647C31.6676 26.4454 31.6131 26.0282 31.506 25.6236C31.4473 25.4011 31.2098 25.1206 31.0074 25.0275L26.3255 22.9687C26.2771 22.9471 26.1554 22.9107 26.002 22.9047C25.8507 22.8989 25.7484 22.9253 25.6995 22.9481C24.6543 23.4403 23.8086 24.3086 23.3374 25.3634C23.1817 25.7119 22.8842 25.9769 22.5202 26.0915C22.1561 26.206 21.7605 26.1591 21.4333 25.9626C20.5803 25.4501 19.517 24.6227 18.5588 23.7429C17.6139 22.8754 16.6606 21.8564 16.1086 20.9383C15.9117 20.6108 15.8648 20.2146 15.9798 19.8501C16.0947 19.4857 16.3606 19.1881 16.7098 19.0329C17.7699 18.5617 18.6358 17.7158 19.1214 16.6727C19.1439 16.6244 19.1711 16.5204 19.165 16.3677C19.159 16.2134 19.1226 16.0912 19.1008 16.0423L19.0898 16.0169L16.9708 10.9882C16.8763 10.7887 16.6005 10.5548 16.3812 10.4968ZM15.0935 7.66805C15.7207 7.66506 16.4131 7.74737 17.0615 7.91837C18.0587 8.18154 18.987 8.9657 19.4087 9.9075L19.4205 9.93466L21.5427 14.9707C21.8497 15.6698 22.0034 16.8023 21.5385 17.799M15.0935 7.66805C13.4494 7.66885 11.8371 8.23044 10.5391 9.25225C8.70912 10.6776 7.6576 12.8265 7.66805 15.1351C7.66441 20.2604 9.6613 25.0859 13.2856 28.7102C16.9108 32.3353 21.7389 34.3346 26.8694 34.3346C29.1269 34.3346 31.2428 33.3227 32.6762 31.5604L32.686 31.5481C33.7375 30.2238 34.3226 28.5709 34.3346 26.8788L34.3346 26.8693C34.3346 26.2181 34.2503 25.57 34.0839 24.9412C33.8209 23.9456 33.04 23.0182 32.0987 22.5943L27.4132 20.5339L27.4091 20.5321C26.7118 20.222 25.5709 20.0624 24.5653 20.5347C23.4204 21.0736 22.4352 21.8971 21.6982 22.9052C21.269 22.5746 20.8097 22.1894 20.3623 21.7786C19.9377 21.3888 19.5495 20.9993 19.2214 20.6348C20.2089 19.9008 21.0128 18.928 21.5385 17.799" fill="#0D070B"/>
</svg>
