<svg width="12" height="13" viewBox="0 0 12 13" fill="none" xmlns="http://www.w3.org/2000/svg">
<path fill-rule="evenodd" clip-rule="evenodd" d="M11.6062 10.4418L7.36325 6.19976L11.6062 1.95776C11.9972 1.56676 11.9972 0.932762 11.6062 0.542762C11.2152 0.151762 10.5833 0.151762 10.1923 0.542762L5.94925 4.78576L1.70725 0.542762C1.31625 0.151762 0.68325 0.151762 0.29325 0.542762C-0.09775 0.932762 -0.09775 1.56676 0.29325 1.95776L4.53525 6.19976L0.29325 10.4418C-0.09775 10.8328 -0.09775 11.4658 0.29325 11.8568C0.68325 12.2478 1.31625 12.2468 1.70725 11.8568L5.94925 7.61376L10.1923 11.8568C10.5833 12.2478 11.2152 12.2468 11.6062 11.8568C11.9972 11.4658 11.9972 10.8328 11.6062 10.4418" fill="white"/>
</svg>
