<svg width="32" height="32" viewBox="0 0 32 32" fill="none" xmlns="http://www.w3.org/2000/svg">
<path d="M12.9242 19.384C14.0249 18.5 14.8872 17.7763 15.5112 17.213C16.1352 16.641 16.6596 16.0473 17.0842 15.432C17.5176 14.808 17.7342 14.197 17.7342 13.599C17.7342 13.0357 17.5956 12.5937 17.3182 12.273C17.0496 11.9437 16.6119 11.779 16.0052 11.779C15.4159 11.779 14.9566 11.9653 14.6272 12.338C14.3066 12.702 14.1332 13.1917 14.1072 13.807H12.9632C12.9979 12.8363 13.2926 12.0867 13.8472 11.558C14.4019 11.0293 15.1169 10.765 15.9922 10.765C16.8849 10.765 17.5912 11.012 18.1112 11.506C18.6399 12 18.9042 12.6803 18.9042 13.547C18.9042 14.2663 18.6876 14.9683 18.2542 15.653C17.8296 16.329 17.3442 16.927 16.7982 17.447C16.2522 17.9583 15.5546 18.5563 14.7052 19.241H19.1772V20.229H12.9242V19.384Z" fill="#0D070B"/>
<path fill-rule="evenodd" clip-rule="evenodd" d="M16 28.0003C22.6274 28.0003 28 22.6277 28 16.0003C28 9.37291 22.6274 4.00033 16 4.00033C9.37259 4.00033 4.00001 9.37291 4.00001 16.0003C4.00001 22.6277 9.37259 28.0003 16 28.0003ZM16 29.3337C23.3638 29.3337 29.3333 23.3641 29.3333 16.0003C29.3333 8.63653 23.3638 2.66699 16 2.66699C8.63621 2.66699 2.66667 8.63653 2.66667 16.0003C2.66667 23.3641 8.63621 29.3337 16 29.3337Z" fill="#0D070B"/>
<path fill-rule="evenodd" clip-rule="evenodd" d="M16 28.0003C22.6274 28.0003 28 22.6277 28 16.0003C28 9.37291 22.6274 4.00033 16 4.00033C9.37259 4.00033 4.00001 9.37291 4.00001 16.0003C4.00001 22.6277 9.37259 28.0003 16 28.0003ZM16 29.3337C23.3638 29.3337 29.3333 23.3641 29.3333 16.0003C29.3333 8.63653 23.3638 2.66699 16 2.66699C8.63621 2.66699 2.66667 8.63653 2.66667 16.0003C2.66667 23.3641 8.63621 29.3337 16 29.3337Z" fill="#0D070B"/>
</svg>
