<svg width="26" height="28" viewBox="0 0 26 28" fill="none" xmlns="http://www.w3.org/2000/svg">
<path fill-rule="evenodd" clip-rule="evenodd" d="M9.10711 6.41045C9.52387 4.64639 11.1087 3.33366 13 3.33366C14.8914 3.33366 16.4762 4.64639 16.893 6.41045C15.6478 6.49398 14.3368 6.54575 13 6.54575C11.6632 6.54575 10.3523 6.49398 9.10711 6.41045ZM6.33337 8.84826V12.667C6.33337 13.4034 6.93033 14.0003 7.66671 14.0003C8.40309 14.0003 9.00004 13.4034 9.00004 12.667V9.07589C10.277 9.16018 11.6234 9.21242 13 9.21242C14.3767 9.21242 15.7231 9.16018 17 9.07589V12.667C17 13.4034 17.597 14.0003 18.3334 14.0003C19.0698 14.0003 19.6667 13.4034 19.6667 12.667V8.84826C20.1791 8.79489 20.6722 8.7381 21.1426 8.67966C22.2435 8.54288 23.0703 9.47255 22.9942 10.3066L25.6499 10.5487L22.9942 10.3066L22.0095 21.1075C21.8253 23.1278 20.136 24.667 18.1218 24.667H7.87833C5.86408 24.667 4.17483 23.1278 3.99063 21.1075L3.00584 10.3066C2.9298 9.47255 3.75657 8.54288 4.8575 8.67966C5.32789 8.7381 5.82099 8.79489 6.33337 8.84826ZM6.43329 6.17735C6.00283 6.13143 5.5864 6.08305 5.18627 6.03334C2.53554 5.70402 0.10721 7.88378 0.350187 10.5487L1.33498 21.3496C1.64402 24.7391 4.48109 27.3337 7.87833 27.3337H18.1218C21.519 27.3337 24.3561 24.7391 24.6651 21.3496L25.6499 10.5487C25.8929 7.88378 23.4645 5.70402 20.8138 6.03334C20.4137 6.08305 19.9973 6.13143 19.5668 6.17735C19.0193 3.0466 16.2876 0.666992 13 0.666992C9.71251 0.666992 6.98077 3.0466 6.43329 6.17735Z" fill="#0D070B"/>
</svg>
