<svg width="32" height="32" viewBox="0 0 32 32" fill="none" xmlns="http://www.w3.org/2000/svg">
<path d="M12.9525 13.3C13.0132 12.5027 13.3209 11.8787 13.8755 11.428C14.4302 10.9773 15.1495 10.752 16.0335 10.752C16.6229 10.752 17.1299 10.8603 17.5545 11.077C17.9879 11.285 18.3129 11.571 18.5295 11.935C18.7549 12.299 18.8675 12.7107 18.8675 13.17C18.8675 13.7073 18.7115 14.171 18.3995 14.561C18.0962 14.951 17.6975 15.2023 17.2035 15.315V15.38C17.7669 15.5187 18.2132 15.7917 18.5425 16.199C18.8719 16.6063 19.0365 17.1393 19.0365 17.798C19.0365 18.292 18.9239 18.7383 18.6985 19.137C18.4732 19.527 18.1352 19.8347 17.6845 20.06C17.2339 20.2853 16.6922 20.398 16.0595 20.398C15.1409 20.398 14.3869 20.1597 13.7975 19.683C13.2082 19.1977 12.8789 18.513 12.8095 17.629H13.9535C14.0142 18.149 14.2265 18.5737 14.5905 18.903C14.9545 19.2323 15.4399 19.397 16.0465 19.397C16.6532 19.397 17.1125 19.241 17.4245 18.929C17.7452 18.6083 17.9055 18.1967 17.9055 17.694C17.9055 17.044 17.6889 16.576 17.2555 16.29C16.8222 16.004 16.1679 15.861 15.2925 15.861H14.9935V14.873H15.3055C16.1029 14.8643 16.7052 14.7343 17.1125 14.483C17.5199 14.223 17.7235 13.8243 17.7235 13.287C17.7235 12.8277 17.5719 12.4593 17.2685 12.182C16.9739 11.9047 16.5492 11.766 15.9945 11.766C15.4572 11.766 15.0239 11.9047 14.6945 12.182C14.3652 12.4593 14.1702 12.832 14.1095 13.3H12.9525Z" fill="#0D070B"/>
<path fill-rule="evenodd" clip-rule="evenodd" d="M15.9998 28.0003C22.6273 28.0003 27.9998 22.6277 27.9998 16.0003C27.9998 9.37291 22.6273 4.00033 15.9998 4.00033C9.37242 4.00033 3.99984 9.37291 3.99984 16.0003C3.99984 22.6277 9.37242 28.0003 15.9998 28.0003ZM15.9998 29.3337C23.3636 29.3337 29.3332 23.3641 29.3332 16.0003C29.3332 8.63653 23.3636 2.66699 15.9998 2.66699C8.63604 2.66699 2.6665 8.63653 2.6665 16.0003C2.6665 23.3641 8.63604 29.3337 15.9998 29.3337Z" fill="#0D070B"/>
<path fill-rule="evenodd" clip-rule="evenodd" d="M15.9998 28.0003C22.6273 28.0003 27.9998 22.6277 27.9998 16.0003C27.9998 9.37291 22.6273 4.00033 15.9998 4.00033C9.37242 4.00033 3.99984 9.37291 3.99984 16.0003C3.99984 22.6277 9.37242 28.0003 15.9998 28.0003ZM15.9998 29.3337C23.3636 29.3337 29.3332 23.3641 29.3332 16.0003C29.3332 8.63653 23.3636 2.66699 15.9998 2.66699C8.63604 2.66699 2.6665 8.63653 2.6665 16.0003C2.6665 23.3641 8.63604 29.3337 15.9998 29.3337Z" fill="#0D070B"/>
</svg>
