<svg width="24" height="24" viewBox="0 0 24 24" fill="none" xmlns="http://www.w3.org/2000/svg">
<path fill-rule="evenodd" clip-rule="evenodd" d="M18.9427 9.60933L12.276 16.276C12.0173 16.5347 11.6747 16.6667 11.3333 16.6667C11.0253 16.6667 10.716 16.56 10.4653 16.3453L5.79867 12.3453C5.24 11.8653 5.17467 11.0253 5.65467 10.4667C6.13467 9.90533 6.976 9.84133 7.53467 10.3213L11.264 13.5173L17.0573 7.724C17.5787 7.20267 18.4213 7.20267 18.9427 7.724C19.464 8.24533 19.464 9.088 18.9427 9.60933ZM12 0C5.372 0 0 5.372 0 12C0 18.628 5.372 24 12 24C18.628 24 24 18.628 24 12C24 5.372 18.628 0 12 0Z" fill="#07CBAD"/>
</svg>
