<svg width="33" height="33" viewBox="0 0 33 33" fill="none" xmlns="http://www.w3.org/2000/svg">
<path d="M29.3934 24.7268L22.3268 17.6602H21.0068L17.6201 21.0468V22.3668L24.6868 29.4335C25.2068 29.9535 26.0468 29.9535 26.5668 29.4335L29.3934 26.6068C29.9134 26.1002 29.9134 25.2468 29.3934 24.7268ZM25.6201 26.6202L19.9668 20.9668L20.9135 20.0202L26.5668 25.6735L25.6201 26.6202Z" fill="#0D070B"/>
<path d="M23.6201 14.0868L25.5001 12.2068L28.3267 15.0335C29.8867 13.4735 29.8867 10.9402 28.3267 9.38016L23.6067 4.66016L21.7267 6.54016V2.78016L20.7934 1.8335L16.0734 6.5535L17.0201 7.50016H20.7934L18.9134 9.38016L20.3267 10.7935L16.4734 14.6468L10.9667 9.14016V7.24683L6.94008 3.22016L3.16675 6.9935L7.20675 11.0335H9.08675L14.5934 16.5402L13.4601 17.6735H10.6334L3.56675 24.7402C3.04675 25.2602 3.04675 26.1002 3.56675 26.6202L6.39341 29.4468C6.91341 29.9668 7.75341 29.9668 8.27341 29.4468L15.3401 22.3802V19.5535L22.2067 12.6868L23.6201 14.0868ZM12.9801 20.9535L7.32675 26.6068L6.38008 25.6602L12.0334 20.0068L12.9801 20.9535Z" fill="#0D070B"/>
</svg>
