<svg width="42" height="43" viewBox="0 0 42 43" fill="none" xmlns="http://www.w3.org/2000/svg">
<rect y="0.332031" width="42" height="42" rx="15" fill="#F2F2F3"/>
<path fill-rule="evenodd" clip-rule="evenodd" d="M23.3302 29.5689C22.2655 31.6982 21.288 32 21.0013 32C20.7146 32 19.7371 31.6982 18.6724 29.5689C18.242 28.7081 17.8687 27.6682 17.5847 26.49C18.6751 26.6052 19.8203 26.6667 21.0013 26.6667C22.1823 26.6667 23.3275 26.6052 24.4179 26.49C24.1339 27.6682 23.7606 28.7081 23.3302 29.5689ZM24.8798 23.7493C23.6808 23.9097 22.3771 24 21.0013 24C19.6255 24 18.3218 23.9097 17.1228 23.7493C17.0438 22.9769 17.0013 22.169 17.0013 21.3333C17.0013 20.4976 17.0438 19.6898 17.1228 18.9174C18.3218 18.7569 19.6255 18.6667 21.0013 18.6667C22.3771 18.6667 23.6808 18.7569 24.8798 18.9174C24.9588 19.6898 25.0013 20.4976 25.0013 21.3333C25.0013 22.169 24.9588 22.9769 24.8798 23.7493ZM27.2392 26.0482C26.8853 27.9201 26.3268 29.591 25.6182 30.9518C28.165 29.7271 30.1504 27.5207 31.084 24.8233C30.0072 25.3206 28.7042 25.7374 27.2392 26.0482ZM31.084 17.8434C30.0072 17.3461 28.7042 16.9292 27.2392 16.6185C26.8853 14.7466 26.3268 13.0757 25.6182 11.7149C28.165 12.9396 30.1504 15.146 31.084 17.8434ZM27.6015 19.443C28.2768 19.6191 28.8927 19.8195 29.439 20.038C30.4595 20.4462 31.1064 20.8656 31.4545 21.1948C31.5114 21.2486 31.5553 21.2948 31.5889 21.3333C31.5553 21.3719 31.5114 21.418 31.4545 21.4718C31.1064 21.8011 30.4595 22.2204 29.439 22.6286C28.8927 22.8472 28.2768 23.0476 27.6015 23.2237C27.6453 22.6062 27.668 21.9751 27.668 21.3333C27.668 20.6916 27.6453 20.0605 27.6015 19.443ZM24.4179 16.1767C24.1339 14.9985 23.7606 13.9586 23.3302 13.0978C22.2655 10.9684 21.288 10.6667 21.0013 10.6667C20.7146 10.6667 19.7371 10.9684 18.6724 13.0978C18.242 13.9586 17.8687 14.9985 17.5847 16.1767C18.6751 16.0614 19.8203 16 21.0013 16C22.1823 16 23.3275 16.0614 24.4179 16.1767ZM14.7634 16.6185C15.1173 14.7466 15.6758 13.0757 16.3844 11.7149C13.8376 12.9396 11.8522 15.146 10.9186 17.8434C11.9954 17.3461 13.2984 16.9292 14.7634 16.6185ZM7.66797 21.3333C7.66797 13.9695 13.6375 8 21.0013 8C28.3651 8 34.3346 13.9695 34.3346 21.3333C34.3346 28.6971 28.3651 34.6667 21.0013 34.6667C13.6375 34.6667 7.66797 28.6971 7.66797 21.3333ZM10.9186 24.8233C11.9954 25.3206 13.2984 25.7374 14.7634 26.0482C15.1173 27.9201 15.6758 29.591 16.3844 30.9518C13.8376 29.7271 11.8522 27.5207 10.9186 24.8233ZM14.4011 23.2237C14.3573 22.6062 14.3346 21.9751 14.3346 21.3333C14.3346 20.6916 14.3573 20.0605 14.4011 19.443C13.7258 19.6191 13.1099 19.8195 12.5636 20.038C11.5431 20.4462 10.8962 20.8656 10.5481 21.1948C10.4912 21.2486 10.4473 21.2948 10.4137 21.3333C10.4473 21.3719 10.4912 21.418 10.5481 21.4718C10.8962 21.8011 11.5431 22.2204 12.5636 22.6286C13.1099 22.8472 13.7258 23.0476 14.4011 23.2237Z" fill="#0D070B"/>
</svg>
