<svg width="42" height="42" viewBox="0 0 42 42" fill="none" xmlns="http://www.w3.org/2000/svg">
<path d="M0 15C0 6.71573 6.71573 0 15 0H27C35.2843 0 42 6.71573 42 15V27C42 35.2843 35.2843 42 27 42H15C6.71573 42 0 35.2843 0 27V15Z" fill="#F2F2F3"/>
<path fill-rule="evenodd" clip-rule="evenodd" d="M31.6119 10.3441C28.8052 7.53418 25.0726 5.98602 21.0961 5.98438C12.9022 5.98438 6.23346 12.6529 6.23016 20.8491C6.22906 23.4691 6.91351 26.0267 8.21448 28.2811L6.10547 35.9844L13.9861 33.9171C16.1576 35.1016 18.6022 35.7258 21.0901 35.7266H21.0963C29.2894 35.7266 35.9588 29.0575 35.9619 20.861C35.9636 16.8887 34.4187 13.1539 31.6119 10.3441ZM21.0961 33.216H21.091C18.874 33.2151 16.6996 32.6193 14.8022 31.4937L14.3513 31.2258L9.67474 32.4526L10.923 27.8931L10.6291 27.4257C9.39221 25.4584 8.73907 23.1846 8.74017 20.85C8.74274 14.0375 14.2857 8.49512 21.1011 8.49512C24.4014 8.49622 27.5037 9.78308 29.8365 12.1186C32.1693 14.4541 33.4532 17.5585 33.4521 20.86C33.4492 27.673 27.9066 33.216 21.0961 33.216V33.216ZM27.8736 23.962C27.5023 23.776 25.676 22.8777 25.3354 22.7535C24.9952 22.6296 24.7473 22.5679 24.4999 22.9396C24.2521 23.3113 23.5404 24.1481 23.3236 24.3958C23.1068 24.6437 22.8904 24.6749 22.5189 24.4888C22.1473 24.303 20.9506 23.9106 19.5317 22.6451C18.4276 21.6602 17.6821 20.4438 17.4653 20.0721C17.2489 19.7001 17.4635 19.5184 17.6283 19.3141C18.0304 18.8148 18.433 18.2913 18.5568 18.0435C18.6808 17.7956 18.6187 17.5786 18.5257 17.3928C18.433 17.2069 17.6902 15.3786 17.3807 14.6346C17.079 13.9106 16.773 14.0084 16.5449 13.9971C16.3284 13.9863 16.0807 13.9841 15.8329 13.9841C15.5854 13.9841 15.1829 14.0769 14.8423 14.449C14.502 14.8209 13.5425 15.7194 13.5425 17.5477C13.5425 19.376 14.8735 21.1422 15.0591 21.3901C15.2448 21.6381 17.6785 25.3899 21.4045 26.9987C22.2907 27.3817 22.9825 27.61 23.5221 27.7813C24.412 28.064 25.2215 28.0241 25.8616 27.9285C26.5754 27.8217 28.0591 27.0298 28.3689 26.1622C28.6783 25.2945 28.6783 24.5509 28.5853 24.3958C28.4927 24.2409 28.2449 24.1481 27.8736 23.962V23.962Z" fill="#0D070B"/>
</svg>
